M48
;Layer_Color=9474304
;FILE_FORMAT=4:4
METRIC,TZ
;TYPE=PLATED
T01F00S00C0.2550
T03F00S00C0.8000
T04F00S00C0.9000
T06F00S00C1.0200
T07F00S00C3.3000
;TYPE=NON_PLATED
T08F00S00C0.5000
T09F00S00C0.5700
T10F00S00C3.2000
%
T01
X183000Y126000
X180142Y137685
X169000Y281000
X223000Y273000
X318000Y206000
X336000Y186000
X360000Y173000
X361000Y130000
X390536Y211312
X390460Y224655
X404000Y283315
X66000Y290000
X446167Y224025
X446727Y211078
X464000Y187000
X437000Y174000
Y129000
X455000Y296000
X537000Y321000
X527000Y436000
X531865Y483350
X504000Y490000
X489000Y521000
X478000Y420000
X472703Y633161
X459911Y633383
X406000Y604000
X403000Y593000
Y582000
X349622Y622421
X345593Y632791
X358163
X320000Y630000
X309070Y629831
X335000Y674000
X347000
X322000Y550000
X328000Y494000
X321000Y488000
X336000Y486000
X349000Y485000
X359000Y491000
X366000Y466000
X348000Y416000
X336000Y401000
X362000Y347000
Y336000
X381000Y310000
X381239Y299649
X304000Y297000
X284000
X292000Y440000
X248000Y489000
X208000Y509000
X185000Y537000
X163000Y580000
X245000Y567000
X78000Y569000
X93000Y496000
X94276Y475724
X73000Y476000
X71000Y452000
X64000Y439000
Y427000
X54887Y435111
X127000Y402000
X177000Y366000
X191000Y439000
X224000Y412000
X70270Y331000
X170278Y669775
X170000Y702000
X159000Y696000
Y708000
X169000Y761000
X168000Y774000
X154000Y815000
X178000Y858000
X184000Y894000
X154000Y883000
X139000Y894000
X77000Y856000
X50000Y938000
X126000Y994000
X195000Y938000
X218000Y870000
X222000Y860000
X217000Y840000
X249000Y822000
X248000Y811000
X235000Y797000
X219000Y786000
X240000Y760000
X320000Y773000
Y783000
X311453Y796547
X329000Y845000
X345000
X336693Y856285
X285000Y889000
X279000Y953000
X312000Y943000
X311000Y967000
X304000Y1030000
X341000Y1035680
X339000Y1053320
X374000Y1001000
Y990000
X378000Y953000
X356000Y933000
X358000Y921000
X422000Y918000
X422866Y927969
X406000Y872000
X409000Y768000
Y754000
Y740000
X395000
X381000
Y754000
X395000
Y768000
X381000
X249000Y1016000
X212000Y1036000
X209362Y1056035
X434000Y981000
X455000Y978000
Y966000
X437000Y923000
X430000Y904000
X466630Y912920
X484000Y865000
X472690Y843781
X506000Y950000
X523755Y982741
X338000Y1110000
X299000Y1118000
X259255Y1110840
X258000Y1128000
X244700Y1116700
X204000Y1110000
X191000Y1294000
X169000Y1295000
X275019Y1309450
X307444Y1298342
X351000Y1315000
T03
X125000Y919000
Y939000
Y959000
Y979000
T04
X243470Y1138920
X268870
X294270
X319670
X306970Y1164320
X281570
X256170
X230770
T06
X325000Y133000
X448000Y587000
X352000Y559000
X247000Y679000
Y729000
X439000Y1110000
Y1147000
X391000
Y1110000
X145000Y1128000
X112000
Y1167000
X145000
T07
X218070Y1227820
X332370
T08
X490520Y950000
T09
X360755Y151398
X435685
T10
X40979Y190308
X510179Y142308
X40979Y1061508
X510179
M30
