G04*
G04 #@! TF.GenerationSoftware,Altium Limited,Altium Designer,24.0.1 (36)*
G04*
G04 Layer_Color=8388736*
%FSLAX44Y44*%
%MOMM*%
G71*
G04*
G04 #@! TF.SameCoordinates,7A80B53C-B2C1-45D1-8136-E7169236FAC4*
G04*
G04*
G04 #@! TF.FilePolarity,Positive*
G04*
G01*
G75*
%ADD11C,0.2000*%
D11*
X452250Y375500D02*
X461750D01*
X452250Y358500D02*
Y375500D01*
Y358500D02*
X461750D01*
Y375500D01*
X126351Y1113395D02*
Y1142605D01*
X97649Y1113395D02*
X126351D01*
X97649D02*
Y1142605D01*
X126351D01*
X130649Y1113395D02*
Y1142605D01*
X159351D01*
Y1113395D02*
Y1142605D01*
X130649Y1113395D02*
X159351D01*
X135905Y329780D02*
Y360780D01*
X104905Y329780D02*
X135905D01*
X104905D02*
Y360780D01*
X135905D01*
X500500Y349250D02*
Y358750D01*
X483500D02*
X500500D01*
X483500Y349250D02*
Y358750D01*
Y349250D02*
X500500D01*
X502500Y270250D02*
Y279750D01*
X485500D02*
X502500D01*
X485500Y270250D02*
Y279750D01*
Y270250D02*
X502500D01*
X485500Y473250D02*
Y482750D01*
Y473250D02*
X502500D01*
Y482750D01*
X485500D02*
X502500D01*
X500500Y327250D02*
Y336750D01*
X483500D02*
X500500D01*
X483500Y327250D02*
Y336750D01*
Y327250D02*
X500500D01*
X282500Y304250D02*
Y313750D01*
Y304250D02*
X299500D01*
Y313750D01*
X282500D02*
X299500D01*
X282500Y327250D02*
Y336750D01*
Y327250D02*
X299500D01*
Y336750D01*
X282500D02*
X299500D01*
X482996Y428484D02*
Y437984D01*
Y428484D02*
X499996D01*
Y437984D01*
X482996D02*
X499996D01*
X190250Y553500D02*
X199750D01*
X190250Y536500D02*
Y553500D01*
Y536500D02*
X199750D01*
Y553500D01*
X190250Y493500D02*
X199750D01*
Y510500D01*
X190250D02*
X199750D01*
X190250Y493500D02*
Y510500D01*
X191250Y161000D02*
X200750D01*
X191250Y144000D02*
Y161000D01*
Y144000D02*
X200750D01*
Y161000D01*
X484500Y530001D02*
Y539501D01*
Y530001D02*
X501500D01*
Y539501D01*
X484500D02*
X501500D01*
X438500Y879250D02*
Y888750D01*
Y879250D02*
X455500D01*
Y888750D01*
X438500D02*
X455500D01*
X184500Y678250D02*
Y687750D01*
X167500D02*
X184500D01*
X167500Y678250D02*
Y687750D01*
Y678250D02*
X184500D01*
X339605Y118649D02*
Y147351D01*
X310395D02*
X339605D01*
X310395Y118649D02*
Y147351D01*
Y118649D02*
X339605D01*
X390294Y299519D02*
X441294D01*
Y350519D01*
X390294D02*
X441294D01*
X390294Y299519D02*
Y350519D01*
X284738Y352750D02*
Y365250D01*
X264737D02*
X284738D01*
X264737Y352750D02*
Y365250D01*
Y352750D02*
X284738D01*
X238000Y470750D02*
Y485250D01*
X216000D02*
X238000D01*
X216000Y470750D02*
Y485250D01*
Y470750D02*
X238000D01*
X232395Y693351D02*
X261605D01*
Y664649D02*
Y693351D01*
X232395Y664649D02*
X261605D01*
X232395D02*
Y693351D01*
Y714649D02*
X261605D01*
X232395D02*
Y743351D01*
X261605D01*
Y714649D02*
Y743351D01*
X424649Y1132395D02*
Y1161605D01*
X453351D01*
Y1132395D02*
Y1161605D01*
X424649Y1132395D02*
X453351D01*
X376649D02*
Y1161605D01*
X405351D01*
Y1132395D02*
Y1161605D01*
X376649Y1132395D02*
X405351D01*
X230500Y411500D02*
X261500D01*
X230500Y380500D02*
Y411500D01*
Y380500D02*
X261500D01*
Y411500D01*
X126351Y1152395D02*
Y1181605D01*
X97649D02*
X126351D01*
X97649Y1152395D02*
Y1181605D01*
X130649Y1152395D02*
X159351D01*
Y1181605D01*
X130649D02*
X159351D01*
X130649Y1152395D02*
Y1181605D01*
X73980Y168500D02*
X100980D01*
Y203500D01*
X73980D02*
X100980D01*
X73980Y168500D02*
Y203500D01*
X108980Y168500D02*
X135980D01*
Y203500D01*
X108980D02*
X135980D01*
X108980Y168500D02*
Y203500D01*
X89000Y627500D02*
Y777000D01*
X376649Y1095395D02*
X405351D01*
Y1124605D01*
X376649D02*
X405351D01*
X376649Y1095395D02*
Y1124605D01*
X337649Y544395D02*
X366351D01*
Y573605D01*
X337649D02*
X366351D01*
X337649Y544395D02*
Y573605D01*
X433649Y572395D02*
X462351D01*
Y601605D01*
X433649D02*
X462351D01*
X433649Y572395D02*
Y601605D01*
X69500Y498000D02*
X123500D01*
Y552000D01*
X69500D02*
X123500D01*
X69500Y498000D02*
Y552000D01*
X263000Y546000D02*
X317000D01*
X263000Y492000D02*
Y546000D01*
Y492000D02*
X317000D01*
Y546000D01*
X424649Y1124605D02*
X453351D01*
X424649Y1095395D02*
Y1124605D01*
Y1095395D02*
X453351D01*
Y1124605D01*
X97649Y1152395D02*
X126351D01*
X250750Y231000D02*
Y248000D01*
X241250Y231000D02*
X250750D01*
X241250D02*
Y248000D01*
X250750D01*
X208820Y252890D02*
Y269890D01*
X199820Y252890D02*
X208820D01*
X199820D02*
Y269890D01*
X208820D01*
X454000Y857750D02*
X476000D01*
X454000D02*
Y872250D01*
X476000D01*
Y857750D02*
Y872250D01*
X257000Y433750D02*
Y446250D01*
Y433750D02*
X277000D01*
Y446250D01*
X257000D02*
X277000D01*
X219500Y517500D02*
X248500D01*
X219500D02*
Y530500D01*
X176500Y519500D02*
Y532500D01*
X147500D02*
X176500D01*
X219500Y530500D02*
X248500D01*
X147500Y519500D02*
X176500D01*
X248500Y517500D02*
Y530500D01*
X147500Y519500D02*
Y532500D01*
M02*
