G04*
G04 #@! TF.GenerationSoftware,Altium Limited,Altium Designer,24.0.1 (36)*
G04*
G04 Layer_Color=32896*
%FSLAX44Y44*%
%MOMM*%
G71*
G04*
G04 #@! TF.SameCoordinates,7A80B53C-B2C1-45D1-8136-E7169236FAC4*
G04*
G04*
G04 #@! TF.FilePolarity,Positive*
G04*
G01*
G75*
%ADD10C,0.2500*%
%ADD11C,0.2000*%
%ADD12C,0.1000*%
%ADD14C,0.1270*%
%ADD15C,0.2540*%
%ADD16C,0.1500*%
%ADD97C,0.4000*%
%ADD99C,0.6000*%
%ADD102C,0.1700*%
G36*
X516197Y800198D02*
Y770048D01*
Y750833D01*
X331803D01*
Y770048D01*
Y800198D01*
X516197D01*
D02*
G37*
G36*
Y750833D02*
Y731363D01*
Y697802D01*
X331803D01*
Y731363D01*
Y750833D01*
X516197D01*
D02*
G37*
%LPC*%
G36*
X430791Y786338D02*
X428825D01*
Y784093D01*
X430791D01*
Y781941D01*
X428825D01*
D01*
Y770325D01*
X430791D01*
Y786338D01*
D02*
G37*
G36*
X375650Y786407D02*
X375072D01*
X374817Y786384D01*
X374516Y786338D01*
X374146Y786268D01*
X373730Y786153D01*
X373313Y786014D01*
X372897Y785829D01*
X372873D01*
X372850Y785806D01*
X372711Y785736D01*
X372503Y785597D01*
X372272Y785435D01*
X371994Y785204D01*
X371716Y784949D01*
X371439Y784649D01*
X371207Y784301D01*
X371184Y784255D01*
X371115Y784139D01*
X371022Y783931D01*
X370907Y783677D01*
X370791Y783376D01*
X370698Y783029D01*
X370629Y782635D01*
X370606Y782242D01*
Y782196D01*
Y782057D01*
X370629Y781872D01*
X370675Y781617D01*
X370745Y781316D01*
X370860Y780993D01*
X370999Y780668D01*
X371184Y780345D01*
X371207Y780298D01*
X371277Y780206D01*
X371416Y780044D01*
X371601Y779859D01*
X371832Y779650D01*
X372110Y779419D01*
X372434Y779211D01*
X372827Y779003D01*
X372804D01*
X372758Y778979D01*
X372688Y778956D01*
X372596Y778933D01*
X372341Y778840D01*
X372017Y778702D01*
X371647Y778517D01*
X371277Y778285D01*
X370930Y777984D01*
X370606Y777637D01*
X370583Y777591D01*
X370490Y777452D01*
X370351Y777221D01*
X370212Y776920D01*
X370074Y776550D01*
X369935Y776110D01*
X369842Y775601D01*
X369819Y775046D01*
Y773472D01*
Y774837D01*
X369842Y774699D01*
X369865Y774513D01*
X369912Y774305D01*
X369958Y774074D01*
X370004Y773819D01*
X370189Y773264D01*
X370328Y772963D01*
X370467Y772685D01*
X370652Y772385D01*
X370860Y772084D01*
X371092Y771783D01*
X371369Y771505D01*
X371393Y771482D01*
X371439Y771436D01*
X371531Y771367D01*
X371647Y771274D01*
X371786Y771158D01*
X371971Y771043D01*
X372179Y770904D01*
X372434Y770788D01*
X372688Y770649D01*
X372989Y770510D01*
X373290Y770395D01*
X373637Y770279D01*
X374007Y770186D01*
X374401Y770117D01*
X374794Y770071D01*
X375233Y770048D01*
X375442D01*
X375581Y770071D01*
X375766Y770094D01*
X375974Y770117D01*
X376205Y770163D01*
X376460Y770210D01*
X377015Y770348D01*
X377594Y770580D01*
X377895Y770719D01*
X378172Y770881D01*
X378450Y771089D01*
X378728Y771297D01*
X378751Y771320D01*
X378797Y771367D01*
X378867Y771436D01*
X378936Y771528D01*
X379052Y771644D01*
X379167Y771806D01*
X379306Y771968D01*
X379445Y772176D01*
X379584Y772408D01*
X379723Y772639D01*
X379977Y773195D01*
X380186Y773842D01*
X380255Y774190D01*
X380301Y774560D01*
X378334Y774814D01*
Y774791D01*
X378311Y774745D01*
X378288Y774652D01*
X378265Y774537D01*
X378242Y774398D01*
X378195Y774236D01*
X378080Y773889D01*
X377918Y773472D01*
X377710Y773079D01*
X377478Y772709D01*
X377201Y772385D01*
X377154Y772362D01*
X377062Y772269D01*
X376877Y772153D01*
X376645Y772038D01*
X376367Y771899D01*
X376020Y771783D01*
X375627Y771691D01*
X375211Y771667D01*
X375072D01*
X374979Y771691D01*
X374725Y771714D01*
X374401Y771783D01*
X374030Y771899D01*
X373637Y772061D01*
X373244Y772292D01*
X372873Y772616D01*
X372827Y772662D01*
X372711Y772801D01*
X372573Y773009D01*
X372388Y773287D01*
X372202Y773634D01*
X372064Y774027D01*
X371948Y774490D01*
X371902Y774999D01*
Y775023D01*
Y775069D01*
Y775138D01*
X371925Y775231D01*
X371948Y775485D01*
X372017Y775786D01*
X372110Y776156D01*
X372272Y776527D01*
X372503Y776897D01*
X372804Y777244D01*
X372850Y777290D01*
X372966Y777383D01*
X373151Y777522D01*
X373406Y777684D01*
X373730Y777846D01*
X374123Y777984D01*
X374563Y778077D01*
X375049Y778123D01*
X375257D01*
X375419Y778100D01*
X375627Y778077D01*
X375858Y778031D01*
X376136Y777984D01*
X376437Y777915D01*
X376205Y779650D01*
X376090D01*
X375997Y779627D01*
X375696D01*
X375442Y779673D01*
X375141Y779720D01*
X374794Y779789D01*
X374401Y779905D01*
X374030Y780067D01*
X373637Y780275D01*
X373614D01*
X373591Y780298D01*
X373475Y780391D01*
X373313Y780553D01*
X373128Y780761D01*
X372943Y781062D01*
X372781Y781409D01*
X372665Y781802D01*
X372619Y782034D01*
Y782288D01*
Y782311D01*
Y782335D01*
Y782473D01*
X372665Y782658D01*
X372711Y782913D01*
X372804Y783191D01*
X372920Y783492D01*
X373105Y783792D01*
X373359Y784070D01*
X373382Y784093D01*
X373498Y784186D01*
X373660Y784301D01*
X373868Y784440D01*
X374146Y784556D01*
X374470Y784672D01*
X374840Y784764D01*
X375257Y784787D01*
X375442D01*
X375650Y784741D01*
X375928Y784695D01*
X376229Y784602D01*
X376530Y784486D01*
X376853Y784301D01*
X377154Y784070D01*
X377177Y784047D01*
X377270Y783931D01*
X377409Y783769D01*
X377571Y783538D01*
X377733Y783237D01*
X377895Y782867D01*
X378034Y782427D01*
X378126Y781918D01*
X380093Y782265D01*
Y782288D01*
X380070Y782358D01*
X380047Y782450D01*
X380023Y782589D01*
X379977Y782751D01*
X379908Y782936D01*
X379769Y783376D01*
X379538Y783885D01*
X379260Y784394D01*
X378913Y784880D01*
X378473Y785320D01*
X378450Y785343D01*
X378404Y785366D01*
X378334Y785412D01*
X378242Y785481D01*
X378126Y785574D01*
X377964Y785667D01*
X377802Y785759D01*
X377594Y785875D01*
X377131Y786060D01*
X376599Y786245D01*
X375974Y786361D01*
X375650Y786407D01*
D02*
G37*
G36*
X413367Y782196D02*
Y781941D01*
X411609D01*
Y780275D01*
X411586Y780298D01*
X411539Y780368D01*
X411470Y780460D01*
X411377Y780576D01*
X411239Y780715D01*
X411077Y780877D01*
X410891Y781062D01*
X410660Y781247D01*
X410429Y781409D01*
X410151Y781594D01*
X409850Y781756D01*
X409526Y781895D01*
X409156Y782011D01*
X408786Y782103D01*
X408369Y782173D01*
X407930Y782196D01*
X407744D01*
X407559Y782173D01*
X407305Y782150D01*
X407004Y782103D01*
X406680Y782034D01*
X406333Y781941D01*
X406009Y781802D01*
X405963Y781779D01*
X405870Y781733D01*
X405708Y781664D01*
X405523Y781548D01*
X405292Y781409D01*
X405084Y781224D01*
X404875Y781039D01*
X404690Y780807D01*
X404667Y780784D01*
X404621Y780692D01*
X404551Y780576D01*
X404436Y780414D01*
X404343Y780183D01*
X404250Y779951D01*
X404135Y779673D01*
X404065Y779373D01*
Y779350D01*
X404042Y779257D01*
X404019Y779118D01*
X403996Y778933D01*
Y778655D01*
X403973Y778332D01*
X403950Y777938D01*
D01*
D01*
Y770325D01*
X408658D01*
X405916D01*
Y777360D01*
Y777383D01*
Y777406D01*
Y777568D01*
Y777776D01*
X405940Y778031D01*
X405963Y778332D01*
X406009Y778632D01*
X406078Y778910D01*
X406148Y779165D01*
Y779188D01*
X406194Y779257D01*
X406264Y779373D01*
X406333Y779512D01*
X406449Y779650D01*
X406588Y779812D01*
X406773Y779974D01*
X406981Y780113D01*
X407004Y780136D01*
X407074Y780183D01*
X407212Y780229D01*
X407374Y780298D01*
X407559Y780368D01*
X407791Y780437D01*
X408069Y780460D01*
X408346Y780483D01*
X408462D01*
X408554Y780460D01*
X408786Y780437D01*
X409087Y780391D01*
X409411Y780275D01*
X409781Y780136D01*
X410151Y779951D01*
X410498Y779673D01*
X410544Y779627D01*
X410637Y779512D01*
X410706Y779419D01*
X410776Y779303D01*
X410868Y779165D01*
X410938Y779003D01*
X411030Y778817D01*
X411123Y778586D01*
X411192Y778332D01*
X411262Y778054D01*
X411308Y777753D01*
X411354Y777429D01*
X411401Y777036D01*
Y776642D01*
Y770325D01*
X413367D01*
Y782196D01*
D02*
G37*
G36*
X449465Y782196D02*
Y781941D01*
X447683D01*
Y780183D01*
X447660Y780206D01*
X447567Y780368D01*
X447452Y780576D01*
X447267Y780831D01*
X447081Y781085D01*
X446873Y781363D01*
X446665Y781594D01*
X446457Y781779D01*
X446434Y781802D01*
X446364Y781849D01*
X446225Y781918D01*
X446087Y781988D01*
X445901Y782057D01*
X445670Y782126D01*
X445439Y782173D01*
X445184Y782196D01*
X449465D01*
X443171Y782196D01*
X445022Y782196D01*
X444814Y782173D01*
X444559Y782126D01*
X444258Y782034D01*
X443935Y781918D01*
X443564Y781756D01*
X443171Y781548D01*
D01*
X443888Y779743D01*
X443911Y779766D01*
X444004Y779812D01*
X444143Y779882D01*
X444328Y779951D01*
X444536Y780021D01*
X444791Y780090D01*
X445045Y780136D01*
X445300Y780160D01*
X445415D01*
X445531Y780136D01*
X445693Y780113D01*
X445855Y780067D01*
X446063Y779997D01*
X446272Y779905D01*
X446457Y779766D01*
X446480Y779743D01*
X446549Y779697D01*
X446619Y779604D01*
X446734Y779489D01*
X446850Y779326D01*
X446966Y779141D01*
X447081Y778933D01*
X447174Y778679D01*
X447197Y778632D01*
X447220Y778493D01*
X447267Y778285D01*
X447336Y778008D01*
X447406Y777660D01*
X447452Y777267D01*
X447475Y776851D01*
X447498Y776388D01*
Y770325D01*
X449465D01*
Y782196D01*
D02*
G37*
G36*
X403950Y782196D02*
D01*
Y778609D01*
Y782196D01*
D01*
D02*
G37*
G36*
X426557D02*
Y776272D01*
X426534Y776434D01*
Y776665D01*
X426511Y776920D01*
X426464Y777244D01*
X426418Y777568D01*
X426325Y777938D01*
X426233Y778308D01*
X426117Y778702D01*
X425978Y779118D01*
X425793Y779512D01*
X425608Y779882D01*
X425354Y780252D01*
X425099Y780599D01*
X424775Y780900D01*
X424752Y780923D01*
X424706Y780946D01*
X424613Y781016D01*
X424497Y781108D01*
X424359Y781201D01*
X424174Y781316D01*
X423988Y781432D01*
X423757Y781548D01*
X423503Y781664D01*
X423225Y781779D01*
X422600Y781988D01*
X421883Y782150D01*
X421512Y782173D01*
X421119Y782196D01*
X420888D01*
X420726Y782173D01*
X420518Y782150D01*
X420286Y782103D01*
X420032Y782057D01*
X419731Y782011D01*
X419106Y781802D01*
X418782Y781687D01*
X418458Y781525D01*
X418134Y781363D01*
X417810Y781131D01*
X417509Y780900D01*
X417209Y780622D01*
X417185Y780599D01*
X417139Y780553D01*
X417070Y780460D01*
X416977Y780345D01*
X416861Y780183D01*
X416723Y779974D01*
X416584Y779743D01*
X416445Y779488D01*
X416306Y779211D01*
X416167Y778864D01*
X416029Y778517D01*
X415913Y778123D01*
X415820Y777707D01*
X415751Y777267D01*
X415704Y776804D01*
X415681Y776295D01*
Y776504D01*
Y776295D01*
Y775925D01*
X415704Y775740D01*
X415728Y775508D01*
Y775277D01*
X415774Y775023D01*
X415843Y774444D01*
X415982Y773866D01*
X416144Y773287D01*
X416376Y772755D01*
Y772732D01*
X416399Y772709D01*
X416445Y772639D01*
X416491Y772547D01*
X416653Y772315D01*
X416861Y772038D01*
X417139Y771714D01*
X417486Y771390D01*
X417880Y771066D01*
X418342Y770765D01*
X418366D01*
X418389Y770742D01*
X418458Y770695D01*
X418574Y770649D01*
X418689Y770603D01*
X418828Y770557D01*
X419175Y770418D01*
X419569Y770302D01*
X420055Y770186D01*
X420564Y770094D01*
X421119Y770071D01*
X415681D01*
X421351D01*
X421536Y770094D01*
X421744Y770117D01*
X421975Y770163D01*
X422253Y770210D01*
X422531Y770256D01*
X423155Y770441D01*
X423503Y770580D01*
X423826Y770719D01*
X424150Y770904D01*
X424474Y771112D01*
X424775Y771343D01*
X425076Y771621D01*
X425099Y771644D01*
X425145Y771691D01*
X425215Y771783D01*
X425307Y771922D01*
X425423Y772084D01*
X425539Y772269D01*
X425678Y772500D01*
X425816Y772778D01*
X425955Y773079D01*
X426094Y773426D01*
X426210Y773796D01*
X426325Y774190D01*
X426418Y774629D01*
X426488Y775092D01*
X426534Y775601D01*
X426557Y776133D01*
Y770950D01*
Y782196D01*
D02*
G37*
G36*
X394532Y786338D02*
X388238D01*
X388076Y786315D01*
X387891D01*
X387474Y786268D01*
X387012Y786222D01*
X386526Y786129D01*
X386040Y786014D01*
X385600Y785852D01*
X385577D01*
X385554Y785829D01*
X385415Y785759D01*
X385207Y785643D01*
X384975Y785481D01*
X384698Y785273D01*
X384397Y785019D01*
X384119Y784695D01*
X383865Y784348D01*
X383842Y784301D01*
X383772Y784163D01*
X383656Y783978D01*
X383541Y783700D01*
X383425Y783376D01*
X383309Y783029D01*
X383240Y782635D01*
X383217Y782242D01*
Y782196D01*
Y782080D01*
X383240Y781872D01*
X383286Y781617D01*
X383356Y781316D01*
X383471Y780993D01*
X383610Y780668D01*
X383795Y780322D01*
X383818Y780275D01*
X383888Y780183D01*
X384027Y779997D01*
X384212Y779812D01*
X384443Y779581D01*
X384721Y779326D01*
X385068Y779095D01*
X385461Y778864D01*
X385438D01*
X385392Y778840D01*
X385322Y778817D01*
X385230Y778771D01*
X384952Y778679D01*
X384628Y778517D01*
X384281Y778308D01*
X383888Y778054D01*
X383541Y777753D01*
X383217Y777383D01*
X383194Y777337D01*
X383101Y777198D01*
X382962Y776989D01*
X382823Y776712D01*
X382685Y776341D01*
X382546Y775948D01*
X382453Y775485D01*
X382430Y774976D01*
D01*
D01*
Y774791D01*
X382453Y774560D01*
X382500Y774282D01*
X382546Y773958D01*
X382638Y773611D01*
X382754Y773241D01*
X382916Y772871D01*
X382939Y772824D01*
X383008Y772709D01*
X383101Y772547D01*
X383240Y772315D01*
X383425Y772084D01*
X383610Y771829D01*
X383842Y771575D01*
X384096Y771367D01*
X384119Y771343D01*
X384212Y771274D01*
X384374Y771181D01*
X384582Y771089D01*
X384837Y770950D01*
X385137Y770811D01*
X385461Y770695D01*
X385855Y770580D01*
X385901D01*
X386040Y770534D01*
X386271Y770510D01*
X386572Y770464D01*
X386942Y770418D01*
X387382Y770371D01*
X387868Y770348D01*
X388423Y770325D01*
X382430D01*
D01*
X394532D01*
Y786338D01*
D02*
G37*
G36*
X478227Y786338D02*
X475913D01*
X471748Y774699D01*
Y774676D01*
X471725Y774629D01*
X471702Y774560D01*
X471656Y774467D01*
X471632Y774328D01*
X471586Y774190D01*
X471470Y773842D01*
X471332Y773449D01*
X471193Y773009D01*
X470915Y772084D01*
Y772107D01*
X470892Y772153D01*
X470869Y772223D01*
X470846Y772315D01*
X470776Y772570D01*
X470661Y772917D01*
X470545Y773310D01*
X470406Y773750D01*
X470244Y774213D01*
X470059Y774699D01*
X465709Y786338D01*
X467958D01*
X463557D01*
X469804Y770325D01*
X463557D01*
X478227D01*
D01*
X472026D01*
X478227Y786338D01*
D02*
G37*
G36*
X462562Y782196D02*
X451848D01*
X456916D01*
X456754Y782173D01*
X456569Y782150D01*
X456337Y782103D01*
X456083Y782057D01*
X455782Y781988D01*
X455504Y781918D01*
X455180Y781802D01*
X454879Y781687D01*
X454556Y781525D01*
X454232Y781340D01*
X453908Y781131D01*
X453607Y780877D01*
X453329Y780599D01*
X453306Y780576D01*
X453260Y780530D01*
X453190Y780437D01*
X453098Y780298D01*
X452982Y780136D01*
X452866Y779951D01*
X452728Y779720D01*
X452589Y779442D01*
X452450Y779141D01*
X452311Y778817D01*
X452195Y778447D01*
X452080Y778054D01*
X451987Y777614D01*
X451918Y777151D01*
X451871Y776665D01*
X451848Y776133D01*
Y775856D01*
X451871Y775624D01*
X460549D01*
Y775601D01*
Y775532D01*
X460526Y775439D01*
Y775300D01*
X460502Y775138D01*
X460456Y774953D01*
X460387Y774537D01*
X460248Y774074D01*
X460063Y773565D01*
X459808Y773102D01*
X459484Y772685D01*
X459461D01*
X459438Y772639D01*
X459299Y772523D01*
X459091Y772362D01*
X458813Y772199D01*
X458443Y772014D01*
X458027Y771852D01*
X457564Y771737D01*
X457309Y771714D01*
X457032Y771691D01*
X456846D01*
X456638Y771714D01*
X456384Y771760D01*
X456106Y771829D01*
X455782Y771922D01*
X455481Y772061D01*
X455180Y772246D01*
X455157Y772269D01*
X455042Y772362D01*
X454903Y772500D01*
X454741Y772685D01*
X454556Y772940D01*
X454347Y773264D01*
X454139Y773634D01*
X453954Y774074D01*
X451918Y773819D01*
Y773796D01*
X451941Y773750D01*
X451964Y773657D01*
X452010Y773519D01*
X452080Y773380D01*
X452149Y773195D01*
X452334Y772801D01*
X452566Y772362D01*
X452890Y771899D01*
X453260Y771459D01*
X453722Y771043D01*
X453746D01*
X453792Y770996D01*
X453861Y770950D01*
X453954Y770881D01*
X454093Y770811D01*
X454232Y770742D01*
X454417Y770649D01*
X454625Y770557D01*
X454856Y770464D01*
X455088Y770371D01*
X455666Y770233D01*
X456314Y770117D01*
X457032Y770071D01*
X462562D01*
Y776295D01*
X462539Y776504D01*
X462515Y776758D01*
X462492Y777036D01*
X462446Y777360D01*
X462377Y777684D01*
X462192Y778424D01*
X462076Y778794D01*
X461937Y779188D01*
X461752Y779558D01*
X461544Y779905D01*
X461312Y780252D01*
X461058Y780576D01*
X461035Y780599D01*
X460988Y780645D01*
X460896Y780715D01*
X460780Y780831D01*
X460641Y780946D01*
X460456Y781085D01*
X460248Y781247D01*
X459993Y781386D01*
X459739Y781548D01*
X459438Y781687D01*
X459114Y781825D01*
X458767Y781941D01*
X458397Y782057D01*
X458003Y782126D01*
X457587Y782173D01*
X457147Y782196D01*
X462562D01*
D02*
G37*
G36*
X442778Y782196D02*
X433129D01*
X437965D01*
X437710Y782173D01*
X437363Y782150D01*
X436993Y782103D01*
X436599Y782011D01*
X436183Y781918D01*
X435789Y781779D01*
X435766D01*
X435743Y781756D01*
X435628Y781710D01*
X435442Y781617D01*
X435211Y781502D01*
X434957Y781340D01*
X434702Y781154D01*
X434471Y780946D01*
X434262Y780715D01*
X434239Y780692D01*
X434193Y780599D01*
X434100Y780437D01*
X433985Y780252D01*
X433869Y779974D01*
X433753Y779673D01*
X433661Y779326D01*
X433568Y778933D01*
X435489Y778679D01*
Y778725D01*
X435512Y778817D01*
X435558Y778979D01*
X435628Y779188D01*
X435743Y779396D01*
X435882Y779627D01*
X436044Y779859D01*
X436275Y780067D01*
X436299Y780090D01*
X436391Y780136D01*
X436530Y780229D01*
X436738Y780322D01*
X436970Y780414D01*
X437270Y780507D01*
X437641Y780553D01*
X438034Y780576D01*
X438265D01*
X438497Y780553D01*
X438798Y780530D01*
X439098Y780460D01*
X439422Y780391D01*
X439723Y780275D01*
X439978Y780113D01*
X440001Y780090D01*
X440070Y780044D01*
X440163Y779951D01*
X440255Y779812D01*
X440371Y779673D01*
X440464Y779488D01*
X440533Y779280D01*
X440556Y779072D01*
Y779049D01*
Y779003D01*
X440533Y778933D01*
Y778840D01*
X440464Y778609D01*
X440325Y778378D01*
X440302Y778355D01*
X440279Y778332D01*
X440232Y778262D01*
X440140Y778193D01*
X440047Y778123D01*
X439908Y778031D01*
X439746Y777961D01*
X439561Y777869D01*
X439538D01*
X439492Y777846D01*
X439399Y777822D01*
X439237Y777753D01*
X439006Y777684D01*
X438705Y777614D01*
X438520Y777545D01*
X438312Y777498D01*
X438080Y777429D01*
X437826Y777360D01*
X437803D01*
X437733Y777337D01*
X437617Y777313D01*
X437479Y777267D01*
X437317Y777221D01*
X437108Y777175D01*
X436669Y777036D01*
X436183Y776897D01*
X435697Y776735D01*
X435257Y776573D01*
X435072Y776504D01*
X434910Y776434D01*
X434864Y776411D01*
X434771Y776365D01*
X434632Y776295D01*
X434424Y776180D01*
X434216Y776041D01*
X434008Y775855D01*
X433800Y775647D01*
X433614Y775416D01*
X433591Y775393D01*
X433545Y775300D01*
X433452Y775161D01*
X433360Y774953D01*
X433290Y774699D01*
X433198Y774421D01*
X433152Y774097D01*
X433129Y773727D01*
Y773565D01*
X433152Y773380D01*
X433198Y773125D01*
X433267Y772847D01*
X433383Y772547D01*
X433522Y772199D01*
X433707Y771876D01*
X433730Y771829D01*
X433823Y771737D01*
X433938Y771575D01*
X434123Y771390D01*
X434378Y771181D01*
X434656Y770950D01*
X434980Y770742D01*
X435373Y770534D01*
X435396D01*
X435419Y770510D01*
X435558Y770464D01*
X435789Y770395D01*
X436090Y770302D01*
X436460Y770210D01*
X436877Y770140D01*
X437317Y770094D01*
X437826Y770071D01*
X438034D01*
X438196Y770094D01*
X438381D01*
X438613Y770117D01*
X438844Y770140D01*
X439098Y770186D01*
X439654Y770302D01*
X440232Y770464D01*
X440788Y770695D01*
X441042Y770834D01*
X441273Y770996D01*
X441297Y771019D01*
X441320Y771043D01*
X441459Y771181D01*
X441667Y771390D01*
X441898Y771714D01*
X442153Y772107D01*
X442407Y772570D01*
X442616Y773148D01*
X442778Y773796D01*
X440834Y774097D01*
Y774074D01*
Y774051D01*
X440788Y773912D01*
X440741Y773680D01*
X440649Y773426D01*
X440533Y773148D01*
X440394Y772847D01*
X440186Y772547D01*
X439931Y772292D01*
X439885Y772269D01*
X439793Y772199D01*
X439608Y772107D01*
X439376Y771991D01*
X439075Y771876D01*
X438728Y771783D01*
X438312Y771714D01*
X437826Y771691D01*
X437594D01*
X437363Y771714D01*
X437062Y771760D01*
X436738Y771829D01*
X436391Y771922D01*
X436090Y772038D01*
X435813Y772223D01*
X435789Y772246D01*
X435697Y772315D01*
X435604Y772431D01*
X435466Y772593D01*
X435350Y772778D01*
X435234Y773009D01*
X435165Y773241D01*
X435142Y773519D01*
Y773542D01*
Y773634D01*
X435165Y773750D01*
X435211Y773912D01*
X435280Y774074D01*
X435396Y774236D01*
X435535Y774421D01*
X435743Y774560D01*
X435766Y774583D01*
X435836Y774606D01*
X435951Y774675D01*
X436137Y774745D01*
X436414Y774837D01*
X436576Y774907D01*
X436761Y774953D01*
X436970Y775023D01*
X437201Y775092D01*
X437455Y775161D01*
X437756Y775231D01*
X437780D01*
X437849Y775254D01*
X437965Y775277D01*
X438103Y775323D01*
X438289Y775370D01*
X438497Y775439D01*
X438937Y775555D01*
X439445Y775717D01*
X439931Y775855D01*
X440394Y776018D01*
X440602Y776110D01*
X440765Y776180D01*
X440811Y776203D01*
X440903Y776249D01*
X441042Y776341D01*
X441227Y776457D01*
X441436Y776619D01*
X441644Y776804D01*
X441852Y777012D01*
X442037Y777267D01*
X442060Y777290D01*
X442107Y777383D01*
X442176Y777545D01*
X442245Y777730D01*
X442315Y777961D01*
X442384Y778239D01*
X442430Y778517D01*
X442454Y778840D01*
Y778887D01*
Y778979D01*
X442430Y779118D01*
X442407Y779326D01*
X442361Y779535D01*
X442315Y779789D01*
X442222Y780021D01*
X442107Y780275D01*
X442083Y780298D01*
X442037Y780391D01*
X441968Y780507D01*
X441852Y780668D01*
X441713Y780831D01*
X441551Y781039D01*
X441366Y781224D01*
X441135Y781386D01*
X441112Y781409D01*
X441042Y781432D01*
X440950Y781502D01*
X440811Y781571D01*
X440626Y781664D01*
X440417Y781756D01*
X440163Y781849D01*
X439885Y781941D01*
X439839Y781964D01*
X439746Y781988D01*
X439584Y782034D01*
X439376Y782080D01*
X439122Y782126D01*
X438844Y782150D01*
X438520Y782196D01*
X442778D01*
D02*
G37*
%LPD*%
G36*
X421374Y780553D02*
X421628Y780530D01*
X421975Y780437D01*
X422369Y780298D01*
X422785Y780113D01*
X423178Y779836D01*
X423387Y779650D01*
X423572Y779465D01*
Y779442D01*
X423618Y779419D01*
X423665Y779350D01*
X423734Y779257D01*
X423803Y779141D01*
X423873Y779003D01*
X423965Y778817D01*
X424058Y778632D01*
X424150Y778401D01*
X424243Y778169D01*
X424312Y777892D01*
X424382Y777591D01*
X424451Y777267D01*
X424497Y776920D01*
X424521Y776527D01*
X424544Y776133D01*
Y776110D01*
Y776041D01*
Y775925D01*
X424521Y775763D01*
Y775578D01*
X424497Y775370D01*
X424428Y774884D01*
X424312Y774328D01*
X424127Y773773D01*
X423896Y773241D01*
X423734Y773009D01*
X423572Y772778D01*
X423549D01*
X423526Y772732D01*
X423387Y772616D01*
X423178Y772431D01*
X422901Y772246D01*
X422554Y772038D01*
X422137Y771852D01*
X421651Y771737D01*
X421397Y771714D01*
X421119Y771691D01*
X420980D01*
X420865Y771714D01*
X420610Y771760D01*
X420263Y771829D01*
X419893Y771968D01*
X419476Y772153D01*
X419083Y772431D01*
X418875Y772616D01*
X418689Y772801D01*
X418666Y772824D01*
X418643Y772847D01*
X418597Y772917D01*
X418527Y773009D01*
X418458Y773125D01*
X418366Y773264D01*
X418273Y773449D01*
X418180Y773634D01*
X418088Y773866D01*
X418018Y774120D01*
X417926Y774398D01*
X417856Y774699D01*
X417787Y775046D01*
X417741Y775393D01*
X417695Y775786D01*
Y776203D01*
Y776226D01*
Y776295D01*
Y776411D01*
X417718Y776550D01*
Y776735D01*
X417741Y776943D01*
X417810Y777429D01*
X417926Y777938D01*
X418111Y778493D01*
X418366Y779003D01*
X418504Y779257D01*
X418689Y779465D01*
Y779488D01*
X418736Y779512D01*
X418875Y779650D01*
X419083Y779812D01*
X419361Y780021D01*
X419708Y780229D01*
X420124Y780414D01*
X420587Y780530D01*
X420841Y780553D01*
X421119Y780576D01*
X421258D01*
X421374Y780553D01*
D02*
G37*
G36*
X392403Y779627D02*
X388469D01*
X388169Y779650D01*
X387845Y779673D01*
X387521Y779697D01*
X387197Y779743D01*
X386942Y779789D01*
X386896Y779812D01*
X386803Y779836D01*
X386665Y779905D01*
X386479Y779997D01*
X386294Y780090D01*
X386086Y780229D01*
X385878Y780414D01*
X385716Y780599D01*
X385693Y780622D01*
X385646Y780692D01*
X385577Y780831D01*
X385508Y780993D01*
X385438Y781178D01*
X385369Y781409D01*
X385322Y781687D01*
X385299Y781988D01*
Y782034D01*
Y782126D01*
X385322Y782265D01*
X385346Y782450D01*
X385392Y782682D01*
X385461Y782913D01*
X385554Y783145D01*
X385693Y783376D01*
X385716Y783399D01*
X385762Y783468D01*
X385855Y783584D01*
X385970Y783700D01*
X386132Y783839D01*
X386317Y783978D01*
X386549Y784116D01*
X386803Y784209D01*
X386827D01*
X386942Y784255D01*
X387104Y784278D01*
X387359Y784325D01*
X387706Y784371D01*
X388099Y784394D01*
X388608Y784440D01*
X392403D01*
Y779627D01*
D02*
G37*
G36*
Y772223D02*
X387845D01*
X387359Y772246D01*
X387150Y772269D01*
X386965Y772292D01*
X386942D01*
X386850Y772315D01*
X386711Y772338D01*
X386549Y772385D01*
X386156Y772523D01*
X385762Y772709D01*
X385739Y772732D01*
X385670Y772778D01*
X385577Y772847D01*
X385461Y772940D01*
X385346Y773079D01*
X385184Y773218D01*
X385068Y773403D01*
X384929Y773611D01*
X384906Y773634D01*
X384883Y773704D01*
X384837Y773842D01*
X384767Y774004D01*
X384698Y774190D01*
X384651Y774421D01*
X384628Y774699D01*
X384605Y774976D01*
Y775023D01*
Y775115D01*
X384628Y775300D01*
X384675Y775508D01*
X384721Y775740D01*
X384813Y775994D01*
X384929Y776249D01*
X385091Y776504D01*
X385114Y776527D01*
X385184Y776619D01*
X385276Y776735D01*
X385415Y776874D01*
X385600Y777036D01*
X385831Y777198D01*
X386086Y777337D01*
X386387Y777452D01*
X386433Y777475D01*
X386526Y777498D01*
X386734Y777545D01*
X386988Y777591D01*
X387313Y777637D01*
X387706Y777684D01*
X388192Y777730D01*
X392403D01*
Y772223D01*
D02*
G37*
G36*
X457355Y780553D02*
X457610Y780530D01*
X457911Y780460D01*
X458281Y780345D01*
X458674Y780183D01*
X459045Y779951D01*
X459415Y779650D01*
X459461Y779604D01*
X459554Y779489D01*
X459716Y779280D01*
X459878Y779003D01*
X460063Y778679D01*
X460225Y778262D01*
X460364Y777776D01*
X460433Y777244D01*
X453931D01*
Y777267D01*
Y777313D01*
X453954Y777383D01*
Y777475D01*
X454000Y777753D01*
X454070Y778054D01*
X454185Y778424D01*
X454301Y778771D01*
X454486Y779118D01*
X454694Y779419D01*
Y779442D01*
X454741Y779465D01*
X454856Y779604D01*
X455065Y779789D01*
X455342Y779997D01*
X455689Y780206D01*
X456106Y780391D01*
X456592Y780530D01*
X456846Y780553D01*
X457124Y780576D01*
X457263D01*
X457355Y780553D01*
D02*
G37*
G36*
X462562Y770071D02*
X457286D01*
X457448Y770094D01*
X457656Y770117D01*
X457911Y770163D01*
X458188Y770210D01*
X458489Y770256D01*
X459137Y770441D01*
X459484Y770580D01*
X459808Y770719D01*
X460155Y770904D01*
X460479Y771112D01*
X460780Y771343D01*
X461081Y771621D01*
X461104Y771644D01*
X461150Y771691D01*
X461220Y771783D01*
X461312Y771922D01*
X461428Y772084D01*
X461544Y772269D01*
X461683Y772500D01*
X461821Y772755D01*
X461960Y773056D01*
X462099Y773380D01*
X462215Y773750D01*
X462330Y774143D01*
X462423Y774560D01*
X462492Y775023D01*
X462539Y775508D01*
X462562Y776018D01*
Y770071D01*
D02*
G37*
%LPC*%
G36*
X453410Y747630D02*
X451443D01*
Y745386D01*
X453410D01*
Y743234D01*
X451443D01*
Y743396D01*
Y731618D01*
X453410D01*
Y747630D01*
D02*
G37*
G36*
X429785Y747630D02*
X427818D01*
Y745386D01*
X429785D01*
Y743234D01*
X427818D01*
D01*
Y731618D01*
X429785D01*
Y747630D01*
D02*
G37*
G36*
X412986Y743234D02*
X403498D01*
Y741915D01*
X409792Y734556D01*
X411019Y733191D01*
X410880D01*
X410787Y733214D01*
X410533Y733237D01*
X410209Y733261D01*
X409815D01*
X409399Y733284D01*
X408520Y733307D01*
X403151D01*
Y733376D01*
Y731618D01*
X413425D01*
Y733191D01*
X406044Y741706D01*
X406252D01*
X406483Y741683D01*
X406784D01*
X407131Y741660D01*
X407502D01*
X407895Y741637D01*
X412986D01*
Y743234D01*
D02*
G37*
G36*
X401786D02*
X392299D01*
Y741915D01*
X398593Y734556D01*
X399819Y733191D01*
X399680D01*
X399588Y733214D01*
X399333Y733237D01*
X399009Y733261D01*
X398616D01*
X398200Y733284D01*
X397320Y733307D01*
X391952D01*
D01*
D01*
Y731618D01*
X402226D01*
Y733191D01*
X394844Y741706D01*
X395053D01*
X395284Y741683D01*
X395585D01*
X395932Y741660D01*
X396302D01*
X396696Y741637D01*
X401786D01*
Y743234D01*
D02*
G37*
G36*
X448458Y743488D02*
Y743234D01*
X446700D01*
Y741568D01*
X446677Y741614D01*
X446607Y741706D01*
X446468Y741868D01*
X446306Y742054D01*
X446098Y742285D01*
X445844Y742516D01*
X445566Y742748D01*
X445242Y742956D01*
X445196Y742979D01*
X445080Y743049D01*
X444895Y743118D01*
X444640Y743234D01*
X444339Y743326D01*
X443992Y743396D01*
X443599Y743465D01*
X443183Y743488D01*
X442974D01*
X442720Y743465D01*
X442442Y743419D01*
X442095Y743349D01*
X441748Y743257D01*
X441401Y743118D01*
X441077Y742933D01*
X441031Y742910D01*
X440938Y742840D01*
X440799Y742725D01*
X440614Y742540D01*
X440429Y742331D01*
X440221Y742077D01*
X440036Y741776D01*
X439897Y741429D01*
X439874Y741452D01*
X439827Y741521D01*
X439758Y741614D01*
X439642Y741753D01*
X439503Y741915D01*
X439341Y742077D01*
X439156Y742262D01*
X438925Y742470D01*
X438670Y742655D01*
X438416Y742840D01*
X438115Y743002D01*
X437791Y743164D01*
X437444Y743303D01*
X437074Y743396D01*
X436703Y743465D01*
X436287Y743488D01*
X436125D01*
X436009Y743465D01*
X435847D01*
X435685Y743442D01*
X435292Y743372D01*
X434875Y743257D01*
X434436Y743072D01*
X433996Y742840D01*
X433626Y742516D01*
X433580Y742470D01*
X433487Y742331D01*
X433325Y742123D01*
X433256Y741961D01*
X433163Y741799D01*
X433071Y741591D01*
X433001Y741383D01*
X432909Y741151D01*
X432839Y740873D01*
X432793Y740596D01*
X432747Y740272D01*
X432700Y739948D01*
Y731618D01*
X434667D01*
Y738907D01*
Y738930D01*
Y738953D01*
Y739092D01*
Y739300D01*
X434690Y739555D01*
X434714Y739832D01*
X434737Y740110D01*
X434783Y740387D01*
X434852Y740596D01*
Y740619D01*
X434899Y740688D01*
X434945Y740781D01*
X435014Y740897D01*
X435107Y741035D01*
X435223Y741174D01*
X435361Y741313D01*
X435547Y741452D01*
X435570Y741475D01*
X435639Y741498D01*
X435732Y741544D01*
X435894Y741614D01*
X436056Y741683D01*
X436264Y741730D01*
X436472Y741753D01*
X436727Y741776D01*
X436842D01*
X436935Y741753D01*
X437166Y741730D01*
X437444Y741683D01*
X437768Y741568D01*
X438115Y741429D01*
X438462Y741220D01*
X438786Y740943D01*
X438809Y740897D01*
X438902Y740781D01*
X439041Y740596D01*
X439179Y740318D01*
X439341Y739948D01*
X439457Y739508D01*
X439550Y738976D01*
X439596Y738351D01*
Y731618D01*
X441563D01*
Y739138D01*
Y739161D01*
Y739207D01*
Y739254D01*
Y739346D01*
X441586Y739601D01*
X441632Y739878D01*
X441679Y740202D01*
X441771Y740526D01*
X441887Y740827D01*
X442049Y741105D01*
X442072Y741128D01*
X442141Y741220D01*
X442257Y741313D01*
X442419Y741452D01*
X442627Y741568D01*
X442905Y741683D01*
X443229Y741753D01*
X443622Y741776D01*
X443761D01*
X443923Y741753D01*
X444108Y741730D01*
X444339Y741660D01*
X444617Y741591D01*
X444872Y741475D01*
X445149Y741336D01*
X445173Y741313D01*
X445265Y741244D01*
X445381Y741151D01*
X445543Y741012D01*
X445705Y740827D01*
X445867Y740596D01*
X446029Y740341D01*
X446167Y740040D01*
X446191Y739994D01*
X446214Y739878D01*
X446260Y739693D01*
X446329Y739439D01*
X446399Y739092D01*
X446445Y738675D01*
X446468Y738189D01*
X446492Y737634D01*
Y731618D01*
X443206Y731618D01*
X448458Y731618D01*
Y743488D01*
D02*
G37*
G36*
X468173Y747630D02*
X462879D01*
X466044D01*
Y739670D01*
X458131Y747630D01*
X455238D01*
X461949Y741128D01*
X454937Y731618D01*
X468173D01*
Y747630D01*
D02*
G37*
G36*
X390702Y743488D02*
X385033D01*
X384871Y743465D01*
X384663Y743442D01*
X384432Y743396D01*
X384177Y743349D01*
X383876Y743303D01*
X383251Y743095D01*
X382928Y742979D01*
X382604Y742817D01*
X382280Y742655D01*
X381956Y742424D01*
X381655Y742192D01*
X381354Y741915D01*
X381331Y741892D01*
X381285Y741845D01*
X381215Y741753D01*
X381123Y741637D01*
X381007Y741475D01*
X380868Y741267D01*
X380729Y741035D01*
X380591Y740781D01*
X380452Y740503D01*
X380313Y740156D01*
X380174Y739809D01*
X380058Y739416D01*
X379966Y738999D01*
X379896Y738559D01*
X379850Y738097D01*
X379827Y737588D01*
Y743488D01*
X379827D01*
X379827D01*
Y737217D01*
X379850Y737032D01*
X379873Y736801D01*
Y736570D01*
X379919Y736315D01*
X379989Y735736D01*
X380128Y735158D01*
X380290Y734579D01*
X380521Y734047D01*
Y734024D01*
X380544Y734001D01*
X380591Y733932D01*
X380637Y733839D01*
X380799Y733608D01*
X381007Y733330D01*
X381285Y733006D01*
X381632Y732682D01*
X382025Y732358D01*
X382488Y732057D01*
X382511D01*
X382534Y732034D01*
X382604Y731988D01*
X382719Y731942D01*
X382835Y731895D01*
X382974Y731849D01*
X383321Y731710D01*
X383714Y731594D01*
X384200Y731479D01*
X384709Y731386D01*
X385264Y731363D01*
X385496D01*
X385681Y731386D01*
X385889Y731409D01*
X386121Y731456D01*
X386399Y731502D01*
X386676Y731548D01*
X387301Y731733D01*
X387648Y731872D01*
X387972Y732011D01*
X388296Y732196D01*
X388620Y732404D01*
X388921Y732636D01*
X389221Y732914D01*
X389245Y732937D01*
X389291Y732983D01*
X389360Y733075D01*
X389453Y733214D01*
X389569Y733376D01*
X389684Y733561D01*
X389823Y733793D01*
X389962Y734070D01*
X390101Y734371D01*
X390240Y734718D01*
X390355Y735089D01*
X390471Y735482D01*
X390564Y735922D01*
X390633Y736384D01*
X390679Y736893D01*
X390702Y737426D01*
Y737564D01*
X390679Y737727D01*
Y737958D01*
X390656Y738212D01*
X390610Y738536D01*
X390564Y738860D01*
X390471Y739230D01*
X390378Y739601D01*
X390263Y739994D01*
X390124Y740411D01*
X389939Y740804D01*
X389754Y741174D01*
X389499Y741544D01*
X389245Y741892D01*
X388921Y742192D01*
X388898Y742215D01*
X388851Y742239D01*
X388759Y742308D01*
X388643Y742401D01*
X388504Y742493D01*
X388319Y742609D01*
X388134Y742725D01*
X387902Y742840D01*
X387648Y742956D01*
X387370Y743072D01*
X386746Y743280D01*
X386028Y743442D01*
X385658Y743465D01*
X385265Y743488D01*
X390702D01*
D01*
D02*
G37*
G36*
X417984Y747630D02*
X415855D01*
Y731618D01*
X417984D01*
Y747630D01*
D02*
G37*
G36*
X375789Y727952D02*
X375558D01*
X375396Y727929D01*
X375211Y727906D01*
X374979Y727883D01*
X374725Y727837D01*
X374470Y727790D01*
X373868Y727628D01*
X373267Y727397D01*
X372966Y727258D01*
X372665Y727096D01*
X372388Y726888D01*
X372133Y726657D01*
X372110Y726633D01*
X372064Y726610D01*
X372017Y726518D01*
X371925Y726425D01*
X371809Y726310D01*
X371693Y726148D01*
X371578Y725985D01*
X371439Y725777D01*
X371207Y725338D01*
X370976Y724782D01*
X370883Y724505D01*
X370837Y724181D01*
X370791Y723857D01*
X370768Y723510D01*
Y723463D01*
Y723348D01*
X370791Y723163D01*
X370814Y722908D01*
X370860Y722630D01*
X370953Y722306D01*
X371045Y721959D01*
X371184Y721612D01*
X371207Y721566D01*
X371254Y721450D01*
X371346Y721265D01*
X371485Y721011D01*
X371670Y720733D01*
X371902Y720386D01*
X372179Y720039D01*
X372503Y719645D01*
X372550Y719599D01*
X372665Y719460D01*
X372781Y719344D01*
X372897Y719229D01*
X373035Y719090D01*
X373221Y718905D01*
X373406Y718720D01*
X373637Y718512D01*
X373868Y718280D01*
X374146Y718026D01*
X374447Y717771D01*
X374771Y717470D01*
X375141Y717169D01*
X375511Y716845D01*
X375535Y716822D01*
X375581Y716776D01*
X375673Y716707D01*
X375789Y716614D01*
X375928Y716475D01*
X376090Y716336D01*
X376460Y716036D01*
X376853Y715688D01*
X377224Y715341D01*
X377548Y715041D01*
X377687Y714925D01*
X377802Y714809D01*
X377825Y714786D01*
X377895Y714717D01*
X377987Y714624D01*
X378103Y714485D01*
X378219Y714323D01*
X378358Y714161D01*
X378635Y713768D01*
X370745D01*
D01*
Y711870D01*
X381366D01*
Y712125D01*
X381343Y712310D01*
X381319Y712518D01*
X381273Y712750D01*
X381227Y712981D01*
X381134Y713236D01*
Y713259D01*
X381111Y713282D01*
X381065Y713421D01*
X380972Y713629D01*
X380833Y713907D01*
X380648Y714231D01*
X380417Y714601D01*
X380162Y714971D01*
X379838Y715365D01*
Y715388D01*
X379792Y715411D01*
X379677Y715550D01*
X379468Y715758D01*
X379167Y716059D01*
X378820Y716406D01*
X378381Y716822D01*
X377848Y717285D01*
X377270Y717771D01*
X377247Y717794D01*
X377154Y717864D01*
X377015Y717979D01*
X376853Y718118D01*
X376645Y718303D01*
X376391Y718512D01*
X376136Y718743D01*
X375835Y718997D01*
X375257Y719553D01*
X374678Y720108D01*
X374401Y720386D01*
X374146Y720664D01*
X373915Y720918D01*
X373730Y721172D01*
Y721196D01*
X373683Y721219D01*
X373637Y721288D01*
X373591Y721381D01*
X373429Y721635D01*
X373244Y721936D01*
X373082Y722306D01*
X372920Y722700D01*
X372827Y723139D01*
X372781Y723556D01*
Y723579D01*
Y723602D01*
X372804Y723741D01*
X372827Y723972D01*
X372897Y724227D01*
X372989Y724551D01*
X373151Y724875D01*
X373359Y725199D01*
X373637Y725523D01*
X373683Y725569D01*
X373799Y725662D01*
X373961Y725777D01*
X374216Y725939D01*
X374539Y726078D01*
X374910Y726217D01*
X375349Y726310D01*
X375835Y726333D01*
X375974D01*
X376067Y726310D01*
X376344Y726286D01*
X376668Y726217D01*
X377015Y726124D01*
X377409Y725962D01*
X377779Y725754D01*
X378126Y725477D01*
X378172Y725430D01*
X378265Y725314D01*
X378404Y725129D01*
X378543Y724852D01*
X378705Y724528D01*
X378843Y724111D01*
X378936Y723649D01*
X378982Y723116D01*
X380995Y723325D01*
Y723348D01*
X380972Y723417D01*
Y723533D01*
X380949Y723695D01*
X380903Y723880D01*
X380857Y724088D01*
X380787Y724343D01*
X380718Y724597D01*
X380533Y725153D01*
X380255Y725708D01*
X380093Y725985D01*
X379885Y726263D01*
X379677Y726518D01*
X379445Y726749D01*
X379422Y726772D01*
X379376Y726795D01*
X379306Y726865D01*
X379190Y726934D01*
X379052Y727027D01*
X378890Y727119D01*
X378705Y727235D01*
X378473Y727351D01*
X378219Y727467D01*
X377941Y727582D01*
X377640Y727675D01*
X377316Y727767D01*
X376969Y727837D01*
X376599Y727906D01*
X376205Y727929D01*
X375789Y727952D01*
D02*
G37*
G36*
X394740D02*
X394578D01*
X394463Y727929D01*
X394347D01*
X394185Y727906D01*
X393792Y727837D01*
X393352Y727744D01*
X392866Y727582D01*
X392380Y727374D01*
X391894Y727096D01*
X391871D01*
X391848Y727050D01*
X391778Y727004D01*
X391686Y726934D01*
X391454Y726749D01*
X391154Y726495D01*
X390853Y726148D01*
X390506Y725731D01*
X390205Y725245D01*
X389927Y724690D01*
Y724667D01*
X389904Y724620D01*
X389858Y724528D01*
X389812Y724412D01*
X389765Y724250D01*
X389696Y724042D01*
X389650Y723810D01*
X389580Y723556D01*
X389511Y723255D01*
X389441Y722908D01*
X389395Y722538D01*
X389349Y722144D01*
X389302Y721705D01*
X389256Y721242D01*
X389233Y720733D01*
Y727952D01*
Y719692D01*
X389256Y719437D01*
Y719136D01*
X389279Y718789D01*
X389326Y718442D01*
X389395Y717655D01*
X389511Y716822D01*
X389673Y716036D01*
X389788Y715642D01*
X389904Y715295D01*
Y715272D01*
X389927Y715226D01*
X389973Y715133D01*
X390020Y714994D01*
X390089Y714855D01*
X390182Y714670D01*
X390413Y714277D01*
X390691Y713837D01*
X391015Y713375D01*
X391431Y712935D01*
X391894Y712542D01*
X391917D01*
X391964Y712495D01*
X392033Y712449D01*
X392126Y712403D01*
X392264Y712333D01*
X392403Y712241D01*
X392588Y712148D01*
X392773Y712079D01*
X393213Y711894D01*
X393745Y711732D01*
X394324Y711639D01*
X394972Y711593D01*
X399762D01*
X395157D01*
X395272Y711616D01*
X395434D01*
X395620Y711639D01*
X396059Y711732D01*
X396545Y711847D01*
X397054Y712032D01*
X397563Y712287D01*
X397818Y712449D01*
X398049Y712634D01*
X398072Y712657D01*
X398095Y712680D01*
X398165Y712750D01*
X398234Y712819D01*
X398327Y712935D01*
X398442Y713074D01*
X398674Y713398D01*
X398905Y713814D01*
X399137Y714323D01*
X399322Y714902D01*
X399461Y715573D01*
X397563Y715735D01*
Y715712D01*
X397540Y715665D01*
Y715619D01*
X397517Y715527D01*
X397448Y715272D01*
X397355Y714994D01*
X397239Y714670D01*
X397077Y714346D01*
X396892Y714046D01*
X396661Y713791D01*
X396638Y713768D01*
X396545Y713699D01*
X396383Y713606D01*
X396198Y713513D01*
X395943Y713398D01*
X395643Y713305D01*
X395296Y713236D01*
X394925Y713213D01*
X394763D01*
X394601Y713236D01*
X394393Y713259D01*
X394139Y713305D01*
X393884Y713375D01*
X393606Y713467D01*
X393352Y713606D01*
X393329Y713629D01*
X393236Y713675D01*
X393097Y713768D01*
X392958Y713907D01*
X392773Y714069D01*
X392588Y714254D01*
X392403Y714462D01*
X392218Y714717D01*
X392195Y714740D01*
X392149Y714855D01*
X392056Y715017D01*
X391964Y715226D01*
X391848Y715503D01*
X391732Y715827D01*
X391616Y716198D01*
X391501Y716614D01*
Y716637D01*
X391478Y716660D01*
Y716730D01*
X391454Y716822D01*
X391408Y717054D01*
X391339Y717355D01*
X391292Y717725D01*
X391246Y718118D01*
X391223Y718558D01*
X391200Y719021D01*
Y719044D01*
Y719113D01*
Y719229D01*
Y719414D01*
X391223Y719368D01*
X391316Y719252D01*
X391454Y719090D01*
X391616Y718859D01*
X391848Y718627D01*
X392126Y718373D01*
X392449Y718118D01*
X392820Y717887D01*
X392866Y717864D01*
X393005Y717794D01*
X393213Y717702D01*
X393467Y717609D01*
X393815Y717493D01*
X394185Y717401D01*
X394601Y717331D01*
X395041Y717308D01*
X395226D01*
X395365Y717331D01*
X395550Y717355D01*
X395735Y717378D01*
X395967Y717424D01*
X396198Y717493D01*
X396730Y717655D01*
X397008Y717771D01*
X397285Y717910D01*
X397586Y718072D01*
X397864Y718280D01*
X398142Y718488D01*
X398396Y718743D01*
X398419Y718766D01*
X398466Y718812D01*
X398512Y718882D01*
X398605Y718997D01*
X398720Y719159D01*
X398836Y719321D01*
X398952Y719530D01*
X399067Y719761D01*
X399206Y720016D01*
X399322Y720293D01*
X399437Y720617D01*
X399553Y720941D01*
X399646Y721311D01*
X399692Y721705D01*
X399738Y722098D01*
X399762Y722538D01*
Y722769D01*
X399738Y722931D01*
X399715Y723139D01*
X399692Y723394D01*
X399646Y723649D01*
X399576Y723949D01*
X399414Y724551D01*
X399299Y724875D01*
X399160Y725222D01*
X398998Y725546D01*
X398790Y725847D01*
X398581Y726171D01*
X398327Y726448D01*
X398304Y726471D01*
X398257Y726518D01*
X398188Y726587D01*
X398072Y726680D01*
X397933Y726795D01*
X397748Y726934D01*
X397563Y727050D01*
X397332Y727212D01*
X397100Y727351D01*
X396823Y727467D01*
X396198Y727721D01*
X395874Y727814D01*
X395504Y727883D01*
X395134Y727929D01*
X394740Y727952D01*
D02*
G37*
G36*
X406981D02*
X401751D01*
X406773D01*
X406518Y727929D01*
X406217Y727883D01*
X405870Y727814D01*
X405500Y727721D01*
X405107Y727605D01*
X404736Y727420D01*
X404713D01*
X404690Y727397D01*
X404575Y727328D01*
X404389Y727212D01*
X404158Y727050D01*
X403903Y726819D01*
X403626Y726564D01*
X403371Y726263D01*
X403117Y725916D01*
X403093Y725870D01*
X403001Y725754D01*
X402908Y725546D01*
X402746Y725245D01*
X402608Y724898D01*
X402422Y724505D01*
X402261Y724042D01*
X402122Y723533D01*
Y723510D01*
X402099Y723463D01*
X402075Y723394D01*
X402052Y723278D01*
X402029Y723139D01*
X402006Y722977D01*
X401960Y722769D01*
X401937Y722538D01*
X401890Y722283D01*
X401867Y722006D01*
X401844Y721682D01*
X401798Y721358D01*
X401775Y720987D01*
Y720617D01*
X401751Y720201D01*
Y720478D01*
Y711593D01*
Y719298D01*
X401775Y719044D01*
Y718766D01*
X401798Y718465D01*
X401821Y718141D01*
X401890Y717401D01*
X402006Y716637D01*
X402145Y715897D01*
X402237Y715550D01*
X402353Y715203D01*
Y715179D01*
X402376Y715133D01*
X402422Y715041D01*
X402469Y714925D01*
X402515Y714763D01*
X402608Y714601D01*
X402793Y714208D01*
X403024Y713791D01*
X403325Y713328D01*
X403672Y712912D01*
X404089Y712518D01*
X404112D01*
X404135Y712472D01*
X404204Y712426D01*
X404297Y712380D01*
X404412Y712310D01*
X404528Y712218D01*
X404875Y712056D01*
X405292Y711894D01*
X405778Y711732D01*
X406356Y711639D01*
X406981Y711593D01*
X407212D01*
X407374Y711616D01*
X407559Y711639D01*
X407791Y711685D01*
X408045Y711732D01*
X408323Y711801D01*
X408601Y711894D01*
X408901Y711986D01*
X409202Y712125D01*
X409503Y712287D01*
X409804Y712472D01*
X410105Y712703D01*
X410382Y712958D01*
X410637Y713236D01*
X410660Y713259D01*
X410706Y713328D01*
X410776Y713444D01*
X410891Y713629D01*
X411007Y713837D01*
X411123Y714115D01*
X411285Y714439D01*
X411424Y714809D01*
X411563Y715226D01*
X411701Y715712D01*
X411840Y716244D01*
X411956Y716845D01*
X412072Y717493D01*
X412141Y718188D01*
X412187Y718951D01*
X412211Y719761D01*
Y720224D01*
X412187Y720478D01*
Y720756D01*
X412164Y721057D01*
X412141Y721404D01*
X412072Y722121D01*
X411956Y722885D01*
X411817Y723649D01*
X411725Y723996D01*
X411632Y724343D01*
Y724366D01*
X411609Y724412D01*
X411563Y724505D01*
X411516Y724620D01*
X411470Y724782D01*
X411377Y724944D01*
X411192Y725338D01*
X410961Y725754D01*
X410660Y726194D01*
X410313Y726633D01*
X409897Y727004D01*
X409873D01*
X409850Y727050D01*
X409781Y727096D01*
X409688Y727142D01*
X409573Y727235D01*
X409434Y727305D01*
X409087Y727490D01*
X408670Y727652D01*
X408184Y727814D01*
X407606Y727906D01*
X406981Y727952D01*
D02*
G37*
G36*
X489797Y727883D02*
X476561D01*
X483642D01*
X483225Y727860D01*
X482762Y727837D01*
X482300Y727790D01*
X481837Y727721D01*
X481443Y727652D01*
X481420D01*
X481374Y727628D01*
X481305D01*
X481212Y727582D01*
X480958Y727513D01*
X480634Y727397D01*
X480263Y727235D01*
X479870Y727027D01*
X479477Y726795D01*
X479106Y726495D01*
X479083Y726471D01*
X479060Y726448D01*
X478991Y726379D01*
X478898Y726310D01*
X478667Y726078D01*
X478389Y725754D01*
X478088Y725361D01*
X477764Y724898D01*
X477464Y724366D01*
X477209Y723764D01*
Y723741D01*
X477186Y723695D01*
X477140Y723602D01*
X477117Y723463D01*
X477047Y723301D01*
X477001Y723116D01*
X476954Y722908D01*
X476885Y722654D01*
X476816Y722399D01*
X476769Y722098D01*
X476654Y721450D01*
X476584Y720733D01*
X476561Y719946D01*
Y719992D01*
Y719946D01*
Y719645D01*
X476584Y719483D01*
Y719298D01*
X476607Y718859D01*
X476677Y718350D01*
X476746Y717817D01*
X476862Y717262D01*
X477001Y716707D01*
Y716684D01*
X477024Y716637D01*
X477047Y716568D01*
X477070Y716475D01*
X477163Y716221D01*
X477302Y715897D01*
X477440Y715527D01*
X477626Y715156D01*
X477857Y714763D01*
X478088Y714393D01*
X478111Y714346D01*
X478204Y714231D01*
X478343Y714069D01*
X478528Y713860D01*
X478736Y713629D01*
X478991Y713398D01*
X479245Y713143D01*
X479546Y712935D01*
X479592Y712912D01*
X479685Y712842D01*
X479847Y712750D01*
X480078Y712634D01*
X480356Y712495D01*
X480680Y712380D01*
X481050Y712241D01*
X481467Y712125D01*
X481513D01*
X481582Y712102D01*
X481652Y712079D01*
X481883Y712056D01*
X482207Y712009D01*
X482577Y711963D01*
X483017Y711917D01*
X483503Y711894D01*
X484035Y711870D01*
X489797D01*
Y727883D01*
D02*
G37*
G36*
X468994Y723741D02*
X468740D01*
X468485Y723718D01*
X468138Y723695D01*
X467745Y723649D01*
X467352Y723579D01*
X466958Y723486D01*
X466588Y723371D01*
X466542Y723348D01*
X466426Y723301D01*
X466264Y723232D01*
X466056Y723139D01*
X465824Y723001D01*
X465593Y722862D01*
X465385Y722677D01*
X465200Y722492D01*
X465177Y722468D01*
X465130Y722399D01*
X465061Y722283D01*
X464968Y722144D01*
X464853Y721936D01*
X464760Y721728D01*
X464668Y721473D01*
X464598Y721173D01*
Y721149D01*
X464575Y721080D01*
X464552Y720941D01*
X464529Y720756D01*
Y720501D01*
X464506Y720201D01*
X464482Y719807D01*
Y719368D01*
Y716730D01*
Y716707D01*
Y716614D01*
Y716475D01*
Y716290D01*
Y716082D01*
Y715827D01*
X464459Y715272D01*
Y714694D01*
X464436Y714115D01*
X464413Y713860D01*
Y713629D01*
X464390Y713421D01*
X464367Y713259D01*
Y713236D01*
X464343Y713143D01*
X464320Y713004D01*
X464251Y712819D01*
X464205Y712611D01*
X464112Y712380D01*
X463996Y712125D01*
X463881Y711870D01*
X465940D01*
X465963Y711894D01*
X465986Y711986D01*
X466033Y712102D01*
X466102Y712287D01*
X466171Y712495D01*
X466218Y712750D01*
X466264Y713027D01*
X466310Y713328D01*
X466334D01*
X466357Y713282D01*
X466496Y713166D01*
X466704Y713004D01*
X466981Y712796D01*
X467328Y712588D01*
X467676Y712356D01*
X468046Y712148D01*
X468439Y711986D01*
X468485Y711963D01*
X468624Y711940D01*
X468833Y711870D01*
X469087Y711801D01*
X469411Y711732D01*
X469781Y711685D01*
X470198Y711639D01*
X470614Y711616D01*
X463881D01*
X470799D01*
X470938Y711639D01*
X471100D01*
X471285Y711662D01*
X471702Y711732D01*
X472165Y711847D01*
X472674Y712009D01*
X473136Y712241D01*
X473553Y712542D01*
X473599Y712588D01*
X473715Y712704D01*
X473877Y712912D01*
X474062Y713189D01*
X474247Y713537D01*
X474409Y713930D01*
X474525Y714416D01*
X474548Y714647D01*
X474571Y714925D01*
Y711616D01*
X470918D01*
X474571D01*
Y715064D01*
X474548Y715226D01*
X474525Y715434D01*
X474479Y715688D01*
X474409Y715943D01*
X474317Y716221D01*
X474201Y716475D01*
X474178Y716498D01*
X474132Y716591D01*
X474039Y716730D01*
X473923Y716892D01*
X473784Y717077D01*
X473599Y717262D01*
X473414Y717447D01*
X473183Y717609D01*
X473160Y717632D01*
X473067Y717679D01*
X472951Y717771D01*
X472766Y717864D01*
X472558Y717956D01*
X472304Y718072D01*
X472049Y718165D01*
X471748Y718257D01*
X471725D01*
X471632Y718280D01*
X471494Y718326D01*
X471309Y718350D01*
X471077Y718396D01*
X470776Y718442D01*
X470429Y718512D01*
X470013Y718558D01*
X469990D01*
X469897Y718581D01*
X469781D01*
X469619Y718604D01*
X469434Y718627D01*
X469203Y718673D01*
X468948Y718697D01*
X468671Y718743D01*
X468115Y718859D01*
X467514Y718974D01*
X466981Y719113D01*
X466727Y719183D01*
X466496Y719252D01*
Y719275D01*
Y719321D01*
X466472Y719460D01*
Y719622D01*
Y719715D01*
Y719761D01*
Y719784D01*
Y719807D01*
Y719946D01*
X466496Y720178D01*
X466542Y720432D01*
X466611Y720710D01*
X466727Y720987D01*
X466866Y721242D01*
X467051Y721450D01*
X467074Y721473D01*
X467190Y721566D01*
X467375Y721658D01*
X467606Y721797D01*
X467930Y721913D01*
X468300Y722029D01*
X468763Y722098D01*
X469295Y722121D01*
X469527D01*
X469758Y722098D01*
X470082Y722052D01*
X470406Y722006D01*
X470753Y721913D01*
X471077Y721797D01*
X471355Y721635D01*
X471378Y721612D01*
X471470Y721543D01*
X471586Y721427D01*
X471725Y721242D01*
X471864Y721011D01*
X472026Y720710D01*
X472165Y720340D01*
X472304Y719923D01*
X474224Y720178D01*
Y720201D01*
X474201Y720224D01*
Y720293D01*
X474178Y720386D01*
X474108Y720594D01*
X474016Y720895D01*
X473900Y721196D01*
X473761Y721520D01*
X473576Y721844D01*
X473368Y722144D01*
X473345Y722168D01*
X473252Y722260D01*
X473113Y722399D01*
X472928Y722584D01*
X472674Y722769D01*
X472373Y722954D01*
X472026Y723163D01*
X471632Y723325D01*
X471609D01*
X471586Y723348D01*
X471517Y723371D01*
X471424Y723394D01*
X471193Y723463D01*
X470869Y723533D01*
X470499Y723602D01*
X470036Y723672D01*
X469550Y723718D01*
X468994Y723741D01*
D02*
G37*
G36*
X442245Y723486D02*
X440001D01*
Y721242D01*
X442245D01*
Y718072D01*
Y723486D01*
D02*
G37*
G36*
X369310Y727883D02*
X358203D01*
Y720478D01*
Y727883D01*
X360378D01*
Y717516D01*
X358203D01*
D01*
Y711870D01*
Y715712D01*
X360378D01*
Y711870D01*
X362345D01*
Y715712D01*
X369310D01*
Y717516D01*
X361975Y727883D01*
X369310D01*
D02*
G37*
G36*
X426210Y727952D02*
X425631D01*
X425377Y727929D01*
X425076Y727883D01*
X424706Y727814D01*
X424289Y727698D01*
X423873Y727559D01*
X423456Y727374D01*
X423433D01*
X423410Y727351D01*
X423271Y727281D01*
X423063Y727142D01*
X422831Y726981D01*
X422554Y726749D01*
X422276Y726495D01*
X421998Y726194D01*
X421767Y725847D01*
X421744Y725800D01*
X421674Y725685D01*
X421582Y725477D01*
X421466Y725222D01*
X421351Y724921D01*
X421258Y724574D01*
X421189Y724181D01*
X421165Y723787D01*
Y723741D01*
Y723602D01*
X421189Y723417D01*
X421235Y723163D01*
X421304Y722862D01*
X421420Y722538D01*
X421559Y722214D01*
X421744Y721890D01*
X421767Y721844D01*
X421836Y721751D01*
X421975Y721589D01*
X422160Y721404D01*
X422392Y721196D01*
X422669Y720964D01*
X422993Y720756D01*
X423387Y720548D01*
X423364D01*
X423317Y720525D01*
X423248Y720501D01*
X423155Y720478D01*
X422901Y720386D01*
X422577Y720247D01*
X422207Y720062D01*
X421836Y719830D01*
X421489Y719530D01*
X421165Y719183D01*
X421142Y719136D01*
X421050Y718997D01*
X420911Y718766D01*
X420772Y718465D01*
X420633Y718095D01*
X420494Y717655D01*
X420402Y717146D01*
X420379Y716591D01*
Y727952D01*
Y711593D01*
X430861D01*
X426002D01*
X426140Y711616D01*
X426325Y711639D01*
X426534Y711662D01*
X426765Y711709D01*
X427020Y711755D01*
X427575Y711894D01*
X428153Y712125D01*
X428454Y712264D01*
X428732Y712426D01*
X429010Y712634D01*
X429287Y712842D01*
X429310Y712866D01*
X429357Y712912D01*
X429426Y712981D01*
X429496Y713074D01*
X429611Y713189D01*
X429727Y713351D01*
X429866Y713513D01*
X430005Y713722D01*
X430144Y713953D01*
X430282Y714184D01*
X430537Y714740D01*
X430745Y715388D01*
X430815Y715735D01*
X430861Y716105D01*
X428894Y716360D01*
Y716336D01*
X428871Y716290D01*
X428848Y716198D01*
X428825Y716082D01*
X428801Y715943D01*
X428755Y715781D01*
X428639Y715434D01*
X428478Y715017D01*
X428269Y714624D01*
X428038Y714254D01*
X427760Y713930D01*
X427714Y713907D01*
X427621Y713814D01*
X427436Y713699D01*
X427205Y713583D01*
X426927Y713444D01*
X426580Y713328D01*
X426187Y713236D01*
X425770Y713213D01*
X425631D01*
X425539Y713236D01*
X425284Y713259D01*
X424960Y713328D01*
X424590Y713444D01*
X424197Y713606D01*
X423803Y713837D01*
X423433Y714161D01*
X423387Y714208D01*
X423271Y714346D01*
X423132Y714555D01*
X422947Y714832D01*
X422762Y715179D01*
X422623Y715573D01*
X422508Y716036D01*
X422461Y716545D01*
Y716568D01*
Y716614D01*
Y716684D01*
X422484Y716776D01*
X422508Y717031D01*
X422577Y717331D01*
X422669Y717702D01*
X422831Y718072D01*
X423063Y718442D01*
X423364Y718789D01*
X423410Y718836D01*
X423526Y718928D01*
X423711Y719067D01*
X423965Y719229D01*
X424289Y719391D01*
X424683Y719530D01*
X425122Y719622D01*
X425608Y719669D01*
X425816D01*
X425978Y719645D01*
X426187Y719622D01*
X426418Y719576D01*
X426696Y719530D01*
X426996Y719460D01*
X426765Y721196D01*
X426649D01*
X426557Y721172D01*
X426256D01*
X426002Y721219D01*
X425701Y721265D01*
X425354Y721335D01*
X424960Y721450D01*
X424590Y721612D01*
X424197Y721821D01*
X424174D01*
X424150Y721844D01*
X424035Y721936D01*
X423873Y722098D01*
X423688Y722306D01*
X423503Y722607D01*
X423340Y722954D01*
X423225Y723348D01*
X423178Y723579D01*
Y723834D01*
Y723857D01*
Y723880D01*
Y724019D01*
X423225Y724204D01*
X423271Y724458D01*
X423364Y724736D01*
X423479Y725037D01*
X423665Y725338D01*
X423919Y725615D01*
X423942Y725639D01*
X424058Y725731D01*
X424220Y725847D01*
X424428Y725985D01*
X424706Y726101D01*
X425030Y726217D01*
X425400Y726310D01*
X425816Y726333D01*
X426002D01*
X426210Y726286D01*
X426488Y726240D01*
X426788Y726148D01*
X427089Y726032D01*
X427413Y725847D01*
X427714Y725615D01*
X427737Y725592D01*
X427830Y725477D01*
X427968Y725314D01*
X428130Y725083D01*
X428292Y724782D01*
X428454Y724412D01*
X428593Y723972D01*
X428686Y723463D01*
X430653Y723810D01*
Y723834D01*
X430629Y723903D01*
X430606Y723996D01*
X430583Y724134D01*
X430537Y724296D01*
X430467Y724482D01*
X430329Y724921D01*
X430097Y725430D01*
X429819Y725939D01*
X429472Y726425D01*
X429033Y726865D01*
X429010Y726888D01*
X428963Y726911D01*
X428894Y726957D01*
X428801Y727027D01*
X428686Y727119D01*
X428524Y727212D01*
X428362Y727305D01*
X428153Y727420D01*
X427691Y727605D01*
X427159Y727790D01*
X426534Y727906D01*
X426210Y727952D01*
D02*
G37*
G36*
X459160Y727536D02*
Y723486D01*
X457170D01*
Y721959D01*
X459160D01*
Y715133D01*
Y715087D01*
Y714994D01*
Y714855D01*
X459137Y714694D01*
X459114Y714323D01*
X459091Y714161D01*
X459068Y714046D01*
X459045Y713999D01*
X458975Y713907D01*
X458883Y713791D01*
X458721Y713675D01*
X458674Y713652D01*
X458559Y713606D01*
X458350Y713560D01*
X458050Y713537D01*
X457818D01*
X457702Y713560D01*
X457541D01*
X457355Y713583D01*
X457170Y713606D01*
X456916Y711870D01*
X456962D01*
X457055Y711847D01*
X457217Y711824D01*
X457425Y711801D01*
X457656Y711755D01*
X457911Y711732D01*
X458420Y711709D01*
X462585D01*
Y723510D01*
Y723486D01*
X461127D01*
Y726356D01*
X459160Y727536D01*
D02*
G37*
G36*
X455898Y723741D02*
X445184D01*
D01*
X450252D01*
X450090Y723718D01*
X449905Y723695D01*
X449673Y723649D01*
X449419Y723602D01*
X449118Y723533D01*
X448840Y723463D01*
X448516Y723348D01*
X448215Y723232D01*
X447891Y723070D01*
X447567Y722885D01*
X447243Y722677D01*
X446943Y722422D01*
X446665Y722144D01*
X446642Y722121D01*
X446596Y722075D01*
X446526Y721982D01*
X446434Y721844D01*
X446318Y721682D01*
X446202Y721497D01*
X446063Y721265D01*
X445925Y720987D01*
X445786Y720687D01*
X445647Y720363D01*
X445531Y719993D01*
X445415Y719599D01*
X445323Y719159D01*
X445253Y718697D01*
X445207Y718211D01*
X445184Y717679D01*
Y717401D01*
X445207Y717169D01*
X453885D01*
Y717146D01*
Y717077D01*
X453861Y716984D01*
Y716845D01*
X453838Y716684D01*
X453792Y716498D01*
X453722Y716082D01*
X453584Y715619D01*
X453399Y715110D01*
X453144Y714647D01*
X452820Y714231D01*
X452797D01*
X452774Y714184D01*
X452635Y714069D01*
X452427Y713907D01*
X452149Y713745D01*
X451779Y713560D01*
X451362Y713398D01*
X450900Y713282D01*
X450645Y713259D01*
X450367Y713236D01*
X450182D01*
X449974Y713259D01*
X449719Y713305D01*
X449442Y713375D01*
X449118Y713467D01*
X448817Y713606D01*
X448516Y713791D01*
X448493Y713814D01*
X448377Y713907D01*
X448238Y714046D01*
X448077Y714231D01*
X447891Y714485D01*
X447683Y714809D01*
X447475Y715180D01*
X447290Y715619D01*
X445253Y715365D01*
Y715341D01*
X445277Y715295D01*
X445300Y715203D01*
X445346Y715064D01*
X445415Y714925D01*
X445485Y714740D01*
X445670Y714346D01*
X445901Y713907D01*
X446225Y713444D01*
X446596Y713004D01*
X447058Y712588D01*
X447081D01*
X447128Y712542D01*
X447197Y712495D01*
X447290Y712426D01*
X447429Y712356D01*
X447567Y712287D01*
X447753Y712195D01*
X447961Y712102D01*
X448192Y712009D01*
X448424Y711917D01*
X449002Y711778D01*
X449650Y711662D01*
X450367Y711616D01*
X450622D01*
X450784Y711639D01*
X450992Y711662D01*
X451247Y711709D01*
X451524Y711755D01*
X451825Y711801D01*
X452473Y711986D01*
X452820Y712125D01*
X453144Y712264D01*
X453491Y712449D01*
X453815Y712657D01*
X454116Y712889D01*
X454417Y713166D01*
X454440Y713189D01*
X454486Y713236D01*
X454556Y713328D01*
X454648Y713467D01*
X454764Y713629D01*
X454879Y713814D01*
X455018Y714046D01*
X455157Y714300D01*
X455296Y714601D01*
X455435Y714925D01*
X455550Y715295D01*
X455666Y715688D01*
X455759Y716105D01*
X455828Y716568D01*
X455874Y717054D01*
X455898Y717563D01*
Y712009D01*
Y717840D01*
X455874Y718049D01*
X455851Y718303D01*
X455828Y718581D01*
X455782Y718905D01*
X455713Y719229D01*
X455527Y719969D01*
X455412Y720340D01*
X455273Y720733D01*
X455088Y721103D01*
X454879Y721450D01*
X454648Y721797D01*
X454394Y722121D01*
X454370Y722144D01*
X454324Y722191D01*
X454232Y722260D01*
X454116Y722376D01*
X453977Y722492D01*
X453792Y722630D01*
X453584Y722792D01*
X453329Y722931D01*
X453075Y723093D01*
X452774Y723232D01*
X452450Y723371D01*
X452103Y723486D01*
X451732Y723602D01*
X451339Y723672D01*
X450923Y723718D01*
X450483Y723741D01*
X455898D01*
D02*
G37*
G36*
X442245Y714138D02*
Y714115D01*
X440001D01*
Y711870D01*
X442245D01*
Y714138D01*
D02*
G37*
G36*
X414710Y728161D02*
X413136D01*
X417787Y711593D01*
X419361D01*
X414710Y728161D01*
D02*
G37*
G36*
X383587D02*
X382014D01*
X386665Y711593D01*
X388238D01*
X383587Y728161D01*
D02*
G37*
%LPD*%
G36*
X466044Y737171D02*
Y731618D01*
X457737D01*
X463429Y739693D01*
X466044Y737171D01*
D02*
G37*
G36*
X385519Y741845D02*
X385774Y741822D01*
X386121Y741730D01*
X386514Y741591D01*
X386931Y741406D01*
X387324Y741128D01*
X387532Y740943D01*
X387717Y740758D01*
Y740735D01*
X387764Y740711D01*
X387810Y740642D01*
X387879Y740549D01*
X387949Y740434D01*
X388018Y740295D01*
X388111Y740110D01*
X388203Y739925D01*
X388296Y739693D01*
X388388Y739462D01*
X388458Y739184D01*
X388527Y738883D01*
X388597Y738559D01*
X388643Y738212D01*
X388666Y737819D01*
X388689Y737426D01*
Y737402D01*
Y737333D01*
Y737217D01*
X388666Y737055D01*
Y736870D01*
X388643Y736662D01*
X388574Y736176D01*
X388458Y735621D01*
X388273Y735065D01*
X388041Y734533D01*
X387879Y734302D01*
X387717Y734070D01*
X387694D01*
X387671Y734024D01*
X387532Y733908D01*
X387324Y733723D01*
X387046Y733538D01*
X386699Y733330D01*
X386283Y733145D01*
X385797Y733029D01*
X385542Y733006D01*
X385265Y732983D01*
X385126D01*
X385010Y733006D01*
X384756Y733052D01*
X384408Y733122D01*
X384038Y733261D01*
X383622Y733446D01*
X383228Y733723D01*
X383020Y733908D01*
X382835Y734094D01*
X382812Y734117D01*
X382789Y734140D01*
X382742Y734209D01*
X382673Y734302D01*
X382604Y734417D01*
X382511Y734556D01*
X382419Y734742D01*
X382326Y734927D01*
X382233Y735158D01*
X382164Y735413D01*
X382071Y735690D01*
X382002Y735991D01*
X381933Y736338D01*
X381886Y736685D01*
X381840Y737079D01*
Y737495D01*
Y737518D01*
Y737588D01*
Y737703D01*
X381863Y737842D01*
Y738027D01*
X381886Y738235D01*
X381956Y738721D01*
X382071Y739230D01*
X382257Y739786D01*
X382511Y740295D01*
X382650Y740549D01*
X382835Y740758D01*
Y740781D01*
X382881Y740804D01*
X383020Y740943D01*
X383228Y741105D01*
X383506Y741313D01*
X383853Y741521D01*
X384270Y741706D01*
X384732Y741822D01*
X384987Y741845D01*
X385265Y741868D01*
X385404D01*
X385519Y741845D01*
D02*
G37*
G36*
X394717Y726310D02*
X394972Y726286D01*
X395272Y726194D01*
X395643Y726078D01*
X396036Y725870D01*
X396429Y725615D01*
X396614Y725430D01*
X396800Y725245D01*
Y725222D01*
X396846Y725199D01*
X396892Y725129D01*
X396938Y725060D01*
X397100Y724829D01*
X397262Y724505D01*
X397448Y724111D01*
X397609Y723625D01*
X397702Y723070D01*
X397748Y722468D01*
Y722445D01*
Y722399D01*
Y722329D01*
X397725Y722214D01*
Y722075D01*
X397702Y721936D01*
X397633Y721589D01*
X397517Y721196D01*
X397378Y720779D01*
X397147Y720363D01*
X396846Y719992D01*
X396800Y719946D01*
X396684Y719854D01*
X396476Y719692D01*
X396221Y719530D01*
X395874Y719344D01*
X395481Y719183D01*
X395041Y719090D01*
X394555Y719044D01*
X394416D01*
X394324Y719067D01*
X394069Y719090D01*
X393768Y719159D01*
X393398Y719275D01*
X393028Y719437D01*
X392658Y719669D01*
X392311Y719992D01*
X392264Y720039D01*
X392172Y720178D01*
X392033Y720386D01*
X391848Y720687D01*
X391686Y721057D01*
X391547Y721497D01*
X391454Y722029D01*
X391408Y722630D01*
Y722654D01*
Y722700D01*
Y722792D01*
X391431Y722908D01*
Y723070D01*
X391454Y723232D01*
X391524Y723602D01*
X391616Y724042D01*
X391778Y724505D01*
X392010Y724944D01*
X392311Y725338D01*
Y725361D01*
X392357Y725384D01*
X392472Y725500D01*
X392658Y725662D01*
X392912Y725847D01*
X393236Y726009D01*
X393606Y726171D01*
X394023Y726286D01*
X394254Y726333D01*
X394624D01*
X394717Y726310D01*
D02*
G37*
G36*
X407235D02*
X407490Y726263D01*
X407791Y726194D01*
X408138Y726055D01*
X408508Y725847D01*
X408693Y725708D01*
X408878Y725569D01*
X409040Y725384D01*
X409202Y725176D01*
Y725153D01*
X409249Y725106D01*
X409295Y725014D01*
X409364Y724898D01*
X409434Y724713D01*
X409526Y724505D01*
X409596Y724250D01*
X409688Y723949D01*
X409781Y723602D01*
X409873Y723209D01*
X409966Y722769D01*
X410035Y722283D01*
X410105Y721728D01*
X410151Y721126D01*
X410174Y720478D01*
X410197Y719761D01*
Y719715D01*
Y719599D01*
Y719391D01*
X410174Y719113D01*
Y718812D01*
X410151Y718442D01*
X410128Y718049D01*
X410082Y717632D01*
X409966Y716730D01*
X409897Y716290D01*
X409804Y715874D01*
X409711Y715480D01*
X409573Y715110D01*
X409434Y714786D01*
X409272Y714508D01*
Y714485D01*
X409226Y714462D01*
X409110Y714300D01*
X408901Y714092D01*
X408647Y713860D01*
X408300Y713629D01*
X407906Y713421D01*
X407467Y713259D01*
X407235Y713236D01*
X406981Y713213D01*
X406842D01*
X406750Y713236D01*
X406518Y713282D01*
X406194Y713375D01*
X405847Y713537D01*
X405454Y713768D01*
X405269Y713907D01*
X405084Y714092D01*
X404898Y714277D01*
X404713Y714508D01*
Y714531D01*
X404667Y714578D01*
X404621Y714647D01*
X404575Y714763D01*
X404482Y714925D01*
X404412Y715133D01*
X404320Y715365D01*
X404227Y715642D01*
X404158Y715989D01*
X404065Y716360D01*
X403973Y716799D01*
X403903Y717262D01*
X403857Y717817D01*
X403811Y718396D01*
X403765Y719044D01*
Y719761D01*
Y719784D01*
Y719807D01*
Y719923D01*
Y720131D01*
X403788Y720409D01*
Y720710D01*
X403811Y721080D01*
X403834Y721473D01*
X403880Y721913D01*
X403996Y722792D01*
X404065Y723232D01*
X404158Y723649D01*
X404250Y724042D01*
X404389Y724412D01*
X404528Y724736D01*
X404690Y725014D01*
Y725037D01*
X404736Y725060D01*
X404783Y725129D01*
X404852Y725222D01*
X405060Y725430D01*
X405315Y725685D01*
X405662Y725916D01*
X406055Y726124D01*
X406264Y726217D01*
X406495Y726286D01*
X406750Y726310D01*
X407004Y726333D01*
X407143D01*
X407235Y726310D01*
D02*
G37*
G36*
X487668Y713768D02*
X483873D01*
X483711Y713791D01*
X483364Y713814D01*
X482971Y713837D01*
X482554Y713884D01*
X482138Y713953D01*
X481791Y714046D01*
X481744Y714069D01*
X481629Y714092D01*
X481467Y714161D01*
X481258Y714254D01*
X481027Y714393D01*
X480796Y714532D01*
X480564Y714694D01*
X480333Y714879D01*
X480310Y714925D01*
X480217Y715017D01*
X480078Y715180D01*
X479916Y715411D01*
X479731Y715712D01*
X479523Y716059D01*
X479338Y716452D01*
X479176Y716892D01*
Y716915D01*
X479153Y716961D01*
X479130Y717031D01*
X479106Y717123D01*
X479083Y717239D01*
X479037Y717401D01*
X478991Y717563D01*
X478945Y717748D01*
X478875Y718211D01*
X478806Y718743D01*
X478759Y719345D01*
X478736Y719993D01*
Y720016D01*
Y720108D01*
Y720224D01*
X478759Y720409D01*
Y720617D01*
X478783Y720849D01*
X478806Y721126D01*
X478829Y721404D01*
X478945Y722029D01*
X479083Y722677D01*
X479292Y723278D01*
X479430Y723579D01*
X479569Y723834D01*
Y723857D01*
X479616Y723903D01*
X479662Y723972D01*
X479708Y724065D01*
X479893Y724296D01*
X480125Y724574D01*
X480425Y724875D01*
X480773Y725176D01*
X481166Y725430D01*
X481582Y725639D01*
X481629Y725662D01*
X481744Y725685D01*
X481953Y725754D01*
X482253Y725824D01*
X482624Y725870D01*
X483086Y725939D01*
X483364Y725962D01*
X483665D01*
X483966Y725986D01*
X487668D01*
Y713768D01*
D02*
G37*
G36*
X466519Y717679D02*
X466588Y717655D01*
X466681Y717632D01*
X466796Y717586D01*
X466935Y717540D01*
X467097Y717493D01*
X467282Y717447D01*
X467491Y717378D01*
X467745Y717331D01*
X467999Y717262D01*
X468300Y717193D01*
X468624Y717123D01*
X468948Y717054D01*
X469319Y717008D01*
X469712Y716938D01*
X469758D01*
X469897Y716915D01*
X470128Y716869D01*
X470383Y716822D01*
X470661Y716776D01*
X470938Y716707D01*
X471193Y716637D01*
X471424Y716545D01*
X471447D01*
X471517Y716498D01*
X471609Y716452D01*
X471702Y716383D01*
X471979Y716198D01*
X472211Y715920D01*
Y715897D01*
X472257Y715851D01*
X472280Y715758D01*
X472327Y715642D01*
X472373Y715503D01*
X472419Y715365D01*
X472442Y715180D01*
X472466Y714994D01*
Y714971D01*
Y714855D01*
X472442Y714717D01*
X472396Y714532D01*
X472327Y714323D01*
X472211Y714115D01*
X472072Y713884D01*
X471887Y713675D01*
X471864Y713652D01*
X471771Y713606D01*
X471632Y713513D01*
X471447Y713421D01*
X471193Y713328D01*
X470892Y713236D01*
X470545Y713189D01*
X470128Y713166D01*
X469943D01*
X469712Y713189D01*
X469457Y713236D01*
X469133Y713282D01*
X468809Y713375D01*
X468462Y713490D01*
X468115Y713652D01*
X468069Y713675D01*
X467976Y713745D01*
X467814Y713860D01*
X467629Y714023D01*
X467421Y714208D01*
X467190Y714439D01*
X467005Y714717D01*
X466819Y715017D01*
X466796Y715041D01*
X466773Y715133D01*
X466727Y715295D01*
X466657Y715503D01*
X466588Y715781D01*
X466542Y716105D01*
X466519Y716498D01*
X466496Y716961D01*
X466472Y717702D01*
X466496D01*
X466519Y717679D01*
D02*
G37*
G36*
X367389Y717516D02*
X362345D01*
Y724690D01*
X367389Y717516D01*
D02*
G37*
G36*
X420402Y716244D02*
X420425Y716059D01*
X420471Y715851D01*
X420518Y715619D01*
X420564Y715365D01*
X420749Y714809D01*
X420888Y714508D01*
X421027Y714231D01*
X421212Y713930D01*
X421420Y713629D01*
X421651Y713328D01*
X421929Y713051D01*
X421952Y713027D01*
X421998Y712981D01*
X422091Y712912D01*
X422207Y712819D01*
X422346Y712703D01*
X422531Y712588D01*
X422739Y712449D01*
X422993Y712333D01*
X423248Y712195D01*
X423549Y712056D01*
X423850Y711940D01*
X424197Y711824D01*
X424567Y711732D01*
X424960Y711662D01*
X425354Y711616D01*
X425793Y711593D01*
X420379D01*
Y716383D01*
X420402Y716244D01*
D02*
G37*
G36*
X462585Y711709D02*
X458605D01*
X458790Y711732D01*
X459021Y711755D01*
X459299Y711778D01*
X459577Y711847D01*
X459831Y711917D01*
X460086Y712032D01*
X460109Y712056D01*
X460178Y712102D01*
X460271Y712171D01*
X460410Y712287D01*
X460526Y712403D01*
X460664Y712565D01*
X460803Y712727D01*
X460896Y712935D01*
Y712958D01*
X460942Y713051D01*
X460965Y713213D01*
X461011Y713444D01*
X461058Y713745D01*
X461081Y713930D01*
Y714138D01*
X461104Y714393D01*
X461127Y714647D01*
Y714925D01*
Y715249D01*
Y721959D01*
X462585D01*
Y711709D01*
D02*
G37*
G36*
X450691Y722098D02*
X450946Y722075D01*
X451247Y722006D01*
X451617Y721890D01*
X452010Y721728D01*
X452380Y721497D01*
X452751Y721196D01*
X452797Y721149D01*
X452890Y721034D01*
X453051Y720826D01*
X453214Y720548D01*
X453399Y720224D01*
X453561Y719807D01*
X453699Y719321D01*
X453769Y718789D01*
X447267D01*
Y718812D01*
Y718859D01*
X447290Y718928D01*
Y719021D01*
X447336Y719298D01*
X447406Y719599D01*
X447521Y719969D01*
X447637Y720316D01*
X447822Y720664D01*
X448030Y720964D01*
Y720987D01*
X448077Y721011D01*
X448192Y721149D01*
X448400Y721335D01*
X448678Y721543D01*
X449025Y721751D01*
X449442Y721936D01*
X449928Y722075D01*
X450182Y722098D01*
X450460Y722121D01*
X450599D01*
X450691Y722098D01*
D02*
G37*
D10*
X95880Y141530D02*
G03*
X95880Y141530I-1250J0D01*
G01*
X211000Y779000D02*
G03*
X211000Y779000I-1250J0D01*
G01*
X131000Y825750D02*
G03*
X131000Y825750I-1250J0D01*
G01*
X293250Y1005750D02*
G03*
X293250Y1005750I-1250J0D01*
G01*
X270500Y916750D02*
G03*
X270500Y916750I-1250J0D01*
G01*
X294000Y1315500D02*
G03*
X294000Y1315500I-1250J0D01*
G01*
D11*
X470780Y970430D02*
G03*
X470780Y970430I-1000J0D01*
G01*
X63000Y557000D02*
X73000D01*
X68000Y232000D02*
Y242000D01*
Y552000D02*
Y562000D01*
X46630Y133530D02*
X68880D01*
X120880D02*
X140880D01*
X46630Y121530D02*
Y133530D01*
X45880Y42530D02*
Y66530D01*
X140880Y44530D02*
Y133530D01*
X312459Y1069791D02*
X329541D01*
X312459Y1052209D02*
X329541D01*
X219459Y1049209D02*
X236541D01*
X219459Y1066791D02*
X236541D01*
X294791Y1080459D02*
Y1097541D01*
X277209Y1080459D02*
Y1097541D01*
X270791Y1080459D02*
Y1097541D01*
X253209Y1080459D02*
Y1097541D01*
X359459Y434791D02*
X376541D01*
X359459Y417209D02*
X376541D01*
X482459Y296791D02*
X499541D01*
X482459Y279209D02*
X499541D01*
X506209Y535459D02*
Y552541D01*
X523791Y535459D02*
Y552541D01*
X497791Y535459D02*
Y552541D01*
X480209Y535459D02*
Y552541D01*
X482459Y274791D02*
X499541D01*
X482459Y257209D02*
X499541D01*
X482459Y317791D02*
X499541D01*
X482459Y300209D02*
X499541D01*
X219209Y1073910D02*
X236291D01*
X219209Y1091492D02*
X236291D01*
X306491Y1091945D02*
X323573D01*
X306491Y1074362D02*
X323573D01*
X73459Y861209D02*
X90541D01*
X73459Y878791D02*
X90541D01*
X491469Y991501D02*
X508551D01*
X491469Y973919D02*
X508551D01*
X210791Y1293459D02*
Y1310541D01*
X193209Y1293459D02*
Y1310541D01*
X183459Y874209D02*
X200541D01*
X183459Y891791D02*
X200541D01*
X191500Y776500D02*
X200500D01*
X191500Y745500D02*
X200500D01*
Y776500D01*
X191500Y745500D02*
Y776500D01*
X442000Y958750D02*
Y961250D01*
X428000Y958750D02*
Y961250D01*
X264500Y1297500D02*
X285500D01*
X264500Y1320500D02*
X285500D01*
X258500Y883500D02*
Y914500D01*
X235500Y883500D02*
Y914500D01*
X258500D01*
X235500Y883500D02*
X258500D01*
X259500Y1016500D02*
Y1039500D01*
X290500Y1016500D02*
Y1039500D01*
X259500D02*
X290500D01*
X259500Y1016500D02*
X290500D01*
X232750Y984000D02*
X235250D01*
X232750Y998000D02*
X235250D01*
X315750Y997000D02*
X318250D01*
X315750Y983000D02*
X318250D01*
X96500Y836500D02*
X127500D01*
X96500Y859500D02*
X127500D01*
Y836500D02*
Y859500D01*
X96500Y836500D02*
Y859500D01*
X79750Y909000D02*
X82250D01*
X79750Y923000D02*
X82250D01*
X391480Y464000D02*
Y471250D01*
Y405750D02*
Y439250D01*
Y331250D02*
Y381500D01*
X545980Y345750D02*
Y471250D01*
X539230D02*
X545980D01*
X391480D02*
X514230D01*
X391480Y331250D02*
Y331250D01*
Y331250D02*
X524230D01*
X79750Y945000D02*
X82250D01*
X79750Y931000D02*
X82250D01*
X152000Y1035195D02*
X148001D01*
X150001D01*
Y1047191D01*
X152000Y1045192D01*
X122010Y1047191D02*
X130007D01*
Y1041193D01*
X126008Y1043193D01*
X124009D01*
X122010Y1041193D01*
Y1037195D01*
X124009Y1035195D01*
X128008D01*
X130007Y1037195D01*
X98018Y1047191D02*
X102016Y1045192D01*
X106015Y1041193D01*
Y1037195D01*
X104016Y1035195D01*
X100017D01*
X98018Y1037195D01*
Y1039194D01*
X100017Y1041193D01*
X106015D01*
X82023Y1047191D02*
X74025D01*
Y1045192D01*
X82023Y1037195D01*
Y1035195D01*
X144003Y1016000D02*
X152000D01*
X144003Y1023997D01*
Y1025997D01*
X146002Y1027996D01*
X150001D01*
X152000Y1025997D01*
X128008D02*
X126008Y1027996D01*
X122010D01*
X120010Y1025997D01*
Y1023997D01*
X122010Y1021998D01*
X124009D01*
X122010D01*
X120010Y1019999D01*
Y1017999D01*
X122010Y1016000D01*
X126008D01*
X128008Y1017999D01*
X98018Y1016000D02*
Y1027996D01*
X104016Y1021998D01*
X96018D01*
X80023Y1025997D02*
X78024Y1027996D01*
X74025D01*
X72026Y1025997D01*
Y1023997D01*
X74025Y1021998D01*
X72026Y1019999D01*
Y1017999D01*
X74025Y1016000D01*
X78024D01*
X80023Y1017999D01*
Y1019999D01*
X78024Y1021998D01*
X80023Y1023997D01*
Y1025997D01*
X78024Y1021998D02*
X74025D01*
X73880Y157196D02*
X68548D01*
X71214Y159862D02*
Y154530D01*
X124880Y157530D02*
X119548D01*
D12*
X213300Y1104750D02*
G03*
X213300Y1104750I-500J0D01*
G01*
X244900Y1115250D02*
G03*
X244900Y1115250I-500J0D01*
G01*
X268555Y1105590D02*
G03*
X268555Y1105590I-500J0D01*
G01*
X299300Y1104750D02*
G03*
X299300Y1104750I-500J0D01*
G01*
X330700Y1115250D02*
G03*
X330700Y1115250I-500J0D01*
G01*
X237000Y756000D02*
X237000Y778000D01*
X223000Y756000D02*
Y778000D01*
X135000Y819000D02*
X157000Y819000D01*
X135000Y833000D02*
X157000D01*
X146000Y867000D02*
X146000Y889000D01*
X132000Y867000D02*
Y889000D01*
X309000Y1034000D02*
X331000Y1034000D01*
X309000Y1048000D02*
X331000D01*
X328000Y1296000D02*
X328000Y1318000D01*
X342000Y1296000D02*
Y1318000D01*
X445000Y910000D02*
X445000Y932000D01*
X459000Y910000D02*
Y932000D01*
X274000Y922500D02*
X274000Y944500D01*
X260000Y922500D02*
Y944500D01*
X212000Y919000D02*
X212000Y941000D01*
X198000Y919000D02*
Y941000D01*
X311000Y1009000D02*
X333000Y1009000D01*
X311000Y1023000D02*
X333000D01*
D14*
X463430Y933895D02*
Y966194D01*
X503817D01*
Y933895D02*
Y966194D01*
X463430Y933895D02*
X503817D01*
D15*
X129385Y158030D02*
G03*
X129385Y158030I-6755J0D01*
G01*
X77635Y157530D02*
G03*
X77635Y157530I-6755J0D01*
G01*
X93570Y151183D02*
G03*
X93570Y163877I2310J6347D01*
G01*
X77880Y157530D02*
X93880D01*
X102880D02*
X115880D01*
X522455Y420975D02*
X536080Y407350D01*
X522455Y420975D02*
X536426Y434946D01*
X410039Y498592D02*
X415117D01*
X412578D01*
Y485897D01*
X415117Y483357D01*
X417657D01*
X420196Y485897D01*
X397343Y483357D02*
Y498592D01*
X404961Y490975D01*
X394804D01*
D16*
X186999Y387671D02*
X179001D01*
Y391670D01*
X180334Y393003D01*
X181667D01*
X183000Y391670D01*
Y387671D01*
Y391670D01*
X184333Y393003D01*
X185666D01*
X186999Y391670D01*
Y387671D01*
X179001Y395668D02*
X184333D01*
X186999Y398334D01*
X184333Y401000D01*
X179001D01*
X183000D01*
Y395668D01*
X186999Y403666D02*
Y408997D01*
Y406332D01*
X179001D01*
Y411663D02*
Y414329D01*
Y412996D01*
X186999D01*
X185666Y411663D01*
X515332Y212999D02*
X520663D01*
Y209000D01*
X517997D01*
X520663D01*
Y205001D01*
X512666D02*
Y212999D01*
X510000Y210333D01*
X507334Y212999D01*
Y205001D01*
X500670D02*
Y212999D01*
X504668Y209000D01*
X499337D01*
X36332Y259999D02*
X41663D01*
Y256000D01*
X38997D01*
X41663D01*
Y252001D01*
X33666D02*
Y259999D01*
X31000Y257333D01*
X28334Y259999D01*
Y252001D01*
X20337Y259999D02*
X23003Y258666D01*
X25668Y256000D01*
Y253334D01*
X24335Y252001D01*
X21670D01*
X20337Y253334D01*
Y254667D01*
X21670Y256000D01*
X25668D01*
X149999Y1319668D02*
Y1314337D01*
X146000D01*
Y1317003D01*
Y1314337D01*
X142001D01*
Y1322334D02*
X149999D01*
X147333Y1325000D01*
X149999Y1327666D01*
X142001D01*
X149999Y1335663D02*
Y1330332D01*
X146000D01*
X147333Y1332997D01*
Y1334330D01*
X146000Y1335663D01*
X143334D01*
X142001Y1334330D01*
Y1331664D01*
X143334Y1330332D01*
X202997Y796999D02*
Y790334D01*
X201664Y789001D01*
X198998D01*
X197665Y790334D01*
Y796999D01*
X194999Y789001D02*
X192334D01*
X193666D01*
Y796999D01*
X194999Y795666D01*
X188335D02*
X187002Y796999D01*
X184336D01*
X183003Y795666D01*
Y794333D01*
X184336Y793000D01*
X185669D01*
X184336D01*
X183003Y791667D01*
Y790334D01*
X184336Y789001D01*
X187002D01*
X188335Y790334D01*
X253666Y761668D02*
X254999Y760335D01*
Y757670D01*
X253666Y756337D01*
X248334D01*
X247001Y757670D01*
Y760335D01*
X248334Y761668D01*
X253666Y764334D02*
X254999Y765667D01*
Y768333D01*
X253666Y769666D01*
X252333D01*
X251000Y768333D01*
Y767000D01*
Y768333D01*
X249667Y769666D01*
X248334D01*
X247001Y768333D01*
Y765667D01*
X248334Y764334D01*
X254999Y777663D02*
X253666Y774997D01*
X251000Y772332D01*
X248334D01*
X247001Y773664D01*
Y776330D01*
X248334Y777663D01*
X249667D01*
X251000Y776330D01*
Y772332D01*
X146999Y840336D02*
X140334D01*
X139001Y841669D01*
Y844335D01*
X140334Y845668D01*
X146999D01*
X139001Y848334D02*
Y850999D01*
Y849667D01*
X146999D01*
X145666Y848334D01*
X139001Y854998D02*
Y857664D01*
Y856331D01*
X146999D01*
X145666Y854998D01*
X91663Y953001D02*
Y960999D01*
X87664D01*
X86332Y959666D01*
Y957000D01*
X87664Y955667D01*
X91663D01*
X88997D02*
X86332Y953001D01*
X79667D02*
Y960999D01*
X83666Y957000D01*
X78334D01*
X71670Y953001D02*
Y960999D01*
X75668Y957000D01*
X70337D01*
X56663Y912001D02*
Y919999D01*
X52664D01*
X51332Y918666D01*
Y916000D01*
X52664Y914667D01*
X56663D01*
X53997D02*
X51332Y912001D01*
X44667D02*
Y919999D01*
X48666Y916000D01*
X43334D01*
X40668Y918666D02*
X39335Y919999D01*
X36670D01*
X35337Y918666D01*
Y917333D01*
X36670Y916000D01*
X38003D01*
X36670D01*
X35337Y914667D01*
Y913334D01*
X36670Y912001D01*
X39335D01*
X40668Y913334D01*
X40337Y873999D02*
Y866001D01*
X44335D01*
X45668Y867334D01*
Y870000D01*
X44335Y871333D01*
X40337D01*
X43003D02*
X45668Y873999D01*
X48334Y867334D02*
X49667Y866001D01*
X52333D01*
X53666Y867334D01*
Y868667D01*
X52333Y870000D01*
X51000D01*
X52333D01*
X53666Y871333D01*
Y872666D01*
X52333Y873999D01*
X49667D01*
X48334Y872666D01*
X56332Y867334D02*
X57664Y866001D01*
X60330D01*
X61663Y867334D01*
Y868667D01*
X60330Y870000D01*
X58997D01*
X60330D01*
X61663Y871333D01*
Y872666D01*
X60330Y873999D01*
X57664D01*
X56332Y872666D01*
X180332Y828666D02*
X181665Y829999D01*
X184330D01*
X185663Y828666D01*
Y823334D01*
X184330Y822001D01*
X181665D01*
X180332Y823334D01*
X177666Y828666D02*
X176333Y829999D01*
X173667D01*
X172334Y828666D01*
Y827333D01*
X173667Y826000D01*
X175000D01*
X173667D01*
X172334Y824667D01*
Y823334D01*
X173667Y822001D01*
X176333D01*
X177666Y823334D01*
X165670Y822001D02*
Y829999D01*
X169668Y826000D01*
X164337D01*
X160666Y872668D02*
X161999Y871336D01*
Y868670D01*
X160666Y867337D01*
X155334D01*
X154001Y868670D01*
Y871336D01*
X155334Y872668D01*
X160666Y875334D02*
X161999Y876667D01*
Y879333D01*
X160666Y880666D01*
X159333D01*
X158000Y879333D01*
Y878000D01*
Y879333D01*
X156667Y880666D01*
X155334D01*
X154001Y879333D01*
Y876667D01*
X155334Y875334D01*
X160666Y883332D02*
X161999Y884665D01*
Y887330D01*
X160666Y888663D01*
X159333D01*
X158000Y887330D01*
Y885997D01*
Y887330D01*
X156667Y888663D01*
X155334D01*
X154001Y887330D01*
Y884665D01*
X155334Y883332D01*
X361332Y1044666D02*
X362664Y1045999D01*
X365330D01*
X366663Y1044666D01*
Y1039334D01*
X365330Y1038001D01*
X362664D01*
X361332Y1039334D01*
X358666Y1044666D02*
X357333Y1045999D01*
X354667D01*
X353334Y1044666D01*
Y1043333D01*
X354667Y1042000D01*
X356000D01*
X354667D01*
X353334Y1040667D01*
Y1039334D01*
X354667Y1038001D01*
X357333D01*
X358666Y1039334D01*
X345337Y1038001D02*
X350668D01*
X345337Y1043333D01*
Y1044666D01*
X346670Y1045999D01*
X349336D01*
X350668Y1044666D01*
X281665Y1337999D02*
Y1331334D01*
X280332Y1330001D01*
X277666D01*
X276333Y1331334D01*
Y1337999D01*
X269668Y1330001D02*
Y1337999D01*
X273667Y1334000D01*
X268335D01*
X214664Y1126999D02*
Y1119001D01*
X210666D01*
X209333Y1120334D01*
Y1125666D01*
X210666Y1126999D01*
X214664D01*
X201336Y1119001D02*
X206667D01*
X201336Y1124333D01*
Y1125666D01*
X202668Y1126999D01*
X205334D01*
X206667Y1125666D01*
X437999Y1006997D02*
X430001D01*
Y1002998D01*
X431334Y1001665D01*
X434000D01*
X435333Y1002998D01*
Y1006997D01*
Y1004331D02*
X437999Y1001665D01*
Y998999D02*
Y996334D01*
Y997666D01*
X430001D01*
X431334Y998999D01*
Y992335D02*
X430001Y991002D01*
Y988336D01*
X431334Y987003D01*
X432667D01*
X434000Y988336D01*
Y989669D01*
Y988336D01*
X435333Y987003D01*
X436666D01*
X437999Y988336D01*
Y991002D01*
X436666Y992335D01*
X180665Y1262000D02*
X183330D01*
X181997D01*
Y1255335D01*
X183330Y1254003D01*
X184663D01*
X185996Y1255335D01*
X177999Y1254003D02*
X175333D01*
X176666D01*
Y1262000D01*
X177999Y1260667D01*
X322664Y1124999D02*
Y1117001D01*
X318666D01*
X317333Y1118334D01*
Y1123666D01*
X318666Y1124999D01*
X322664D01*
X309335D02*
X314667D01*
Y1121000D01*
X312001Y1122333D01*
X310668D01*
X309335Y1121000D01*
Y1118334D01*
X310668Y1117001D01*
X313334D01*
X314667Y1118334D01*
X347664Y1124999D02*
Y1117001D01*
X343666D01*
X342333Y1118334D01*
Y1123666D01*
X343666Y1124999D01*
X347664D01*
X335668Y1117001D02*
Y1124999D01*
X339667Y1121000D01*
X334336D01*
X279919Y1125838D02*
Y1117841D01*
X275921D01*
X274588Y1119174D01*
Y1124506D01*
X275921Y1125838D01*
X279919D01*
X271922Y1124506D02*
X270589Y1125838D01*
X267923D01*
X266590Y1124506D01*
Y1123173D01*
X267923Y1121840D01*
X269256D01*
X267923D01*
X266590Y1120507D01*
Y1119174D01*
X267923Y1117841D01*
X270589D01*
X271922Y1119174D01*
X235332Y1126999D02*
Y1119001D01*
X231333D01*
X230000Y1120334D01*
Y1125666D01*
X231333Y1126999D01*
X235332D01*
X227334Y1119001D02*
X224668D01*
X226001D01*
Y1126999D01*
X227334Y1125666D01*
X135014Y180701D02*
X137680D01*
X136347D01*
Y174037D01*
X137680Y172704D01*
X139013D01*
X140346Y174037D01*
X127017Y180701D02*
X132349D01*
Y176703D01*
X129683Y178036D01*
X128350D01*
X127017Y176703D01*
Y174037D01*
X128350Y172704D01*
X131016D01*
X132349Y174037D01*
X337666Y1279667D02*
X338999Y1278334D01*
Y1275668D01*
X337666Y1274335D01*
X332334D01*
X331002Y1275668D01*
Y1278334D01*
X332334Y1279667D01*
X338999Y1282333D02*
Y1287664D01*
X337666D01*
X332334Y1282333D01*
X331002D01*
X263334Y962333D02*
X262001Y963666D01*
Y966332D01*
X263334Y967664D01*
X268666D01*
X269999Y966332D01*
Y963666D01*
X268666Y962333D01*
X262001Y954335D02*
Y959667D01*
X266000D01*
X264667Y957001D01*
Y955668D01*
X266000Y954335D01*
X268666D01*
X269999Y955668D01*
Y958334D01*
X268666Y959667D01*
X223666Y929667D02*
X224999Y928334D01*
Y925668D01*
X223666Y924335D01*
X218334D01*
X217001Y925668D01*
Y928334D01*
X218334Y929667D01*
X217001Y936332D02*
X224999D01*
X221000Y932333D01*
Y937664D01*
X523999Y944335D02*
X517334D01*
X516001Y945668D01*
Y948334D01*
X517334Y949667D01*
X523999D01*
Y957664D02*
Y952333D01*
X520000D01*
X521333Y954999D01*
Y956332D01*
X520000Y957664D01*
X517334D01*
X516001Y956332D01*
Y953666D01*
X517334Y952333D01*
X253664Y931999D02*
Y925334D01*
X252332Y924001D01*
X249666D01*
X248333Y925334D01*
Y931999D01*
X245667Y930666D02*
X244334Y931999D01*
X241668D01*
X240335Y930666D01*
Y929333D01*
X241668Y928000D01*
X243001D01*
X241668D01*
X240335Y926667D01*
Y925334D01*
X241668Y924001D01*
X244334D01*
X245667Y925334D01*
X253664Y1035999D02*
Y1029334D01*
X252332Y1028001D01*
X249666D01*
X248333Y1029334D01*
Y1035999D01*
X240336Y1028001D02*
X245667D01*
X240336Y1033333D01*
Y1034666D01*
X241668Y1035999D01*
X244334D01*
X245667Y1034666D01*
X506997Y998001D02*
Y1005999D01*
X502998D01*
X501665Y1004666D01*
Y1002000D01*
X502998Y1000667D01*
X506997D01*
X504331D02*
X501665Y998001D01*
X498999D02*
X496334D01*
X497666D01*
Y1005999D01*
X498999Y1004666D01*
X488336Y998001D02*
Y1005999D01*
X492335Y1002000D01*
X487003D01*
X187099Y1312097D02*
X179101D01*
Y1308098D01*
X180434Y1306765D01*
X183100D01*
X184433Y1308098D01*
Y1312097D01*
Y1309431D02*
X187099Y1306765D01*
Y1304099D02*
Y1301434D01*
Y1302766D01*
X179101D01*
X180434Y1304099D01*
X187099Y1292103D02*
Y1297435D01*
X181767Y1292103D01*
X180434D01*
X179101Y1293436D01*
Y1296102D01*
X180434Y1297435D01*
X201664Y899001D02*
Y906999D01*
X197665D01*
X196332Y905666D01*
Y903000D01*
X197665Y901667D01*
X201664D01*
X198998D02*
X196332Y899001D01*
X193666D02*
X191001D01*
X192334D01*
Y906999D01*
X193666Y905666D01*
X187002Y899001D02*
X184336D01*
X185669D01*
Y906999D01*
X187002Y905666D01*
X197665Y1054001D02*
Y1061999D01*
X193666D01*
X192333Y1060666D01*
Y1058000D01*
X193666Y1056667D01*
X197665D01*
X194999D02*
X192333Y1054001D01*
X189667Y1060666D02*
X188334Y1061999D01*
X185668D01*
X184335Y1060666D01*
Y1059333D01*
X185668Y1058000D01*
X184335Y1056667D01*
Y1055334D01*
X185668Y1054001D01*
X188334D01*
X189667Y1055334D01*
Y1056667D01*
X188334Y1058000D01*
X189667Y1059333D01*
Y1060666D01*
X188334Y1058000D02*
X185668D01*
X361665Y1057001D02*
Y1064999D01*
X357666D01*
X356333Y1063666D01*
Y1061000D01*
X357666Y1059667D01*
X361665D01*
X358999D02*
X356333Y1057001D01*
X353667Y1058334D02*
X352334Y1057001D01*
X349668D01*
X348335Y1058334D01*
Y1063666D01*
X349668Y1064999D01*
X352334D01*
X353667Y1063666D01*
Y1062333D01*
X352334Y1061000D01*
X348335D01*
X208414Y1078702D02*
Y1086699D01*
X204416D01*
X203083Y1085366D01*
Y1082701D01*
X204416Y1081368D01*
X208414D01*
X205749D02*
X203083Y1078702D01*
X200417Y1086699D02*
X195085D01*
Y1085366D01*
X200417Y1080035D01*
Y1078702D01*
X346697Y1080155D02*
Y1088152D01*
X342698D01*
X341365Y1086819D01*
Y1084153D01*
X342698Y1082821D01*
X346697D01*
X344031D02*
X341365Y1080155D01*
X333367Y1088152D02*
X336033Y1086819D01*
X338699Y1084153D01*
Y1081488D01*
X337366Y1080155D01*
X334700D01*
X333367Y1081488D01*
Y1082821D01*
X334700Y1084153D01*
X338699D01*
X353665Y984001D02*
Y991999D01*
X349666D01*
X348333Y990666D01*
Y988000D01*
X349666Y986667D01*
X353665D01*
X350999D02*
X348333Y984001D01*
X340336Y991999D02*
X345667D01*
Y988000D01*
X343001Y989333D01*
X341668D01*
X340336Y988000D01*
Y985334D01*
X341668Y984001D01*
X344334D01*
X345667Y985334D01*
X207665Y987001D02*
Y994999D01*
X203666D01*
X202333Y993666D01*
Y991000D01*
X203666Y989667D01*
X207665D01*
X204999D02*
X202333Y987001D01*
X195668D02*
Y994999D01*
X199667Y991000D01*
X194335D01*
X286336Y1072999D02*
Y1065001D01*
X290334D01*
X291667Y1066334D01*
Y1069000D01*
X290334Y1070333D01*
X286336D01*
X289001D02*
X291667Y1072999D01*
X294333Y1066334D02*
X295666Y1065001D01*
X298332D01*
X299664Y1066334D01*
Y1067667D01*
X298332Y1069000D01*
X296999D01*
X298332D01*
X299664Y1070333D01*
Y1071666D01*
X298332Y1072999D01*
X295666D01*
X294333Y1071666D01*
X254335Y1071999D02*
Y1064001D01*
X258334D01*
X259667Y1065334D01*
Y1068000D01*
X258334Y1069333D01*
X254335D01*
X257001D02*
X259667Y1071999D01*
X267665D02*
X262333D01*
X267665Y1066667D01*
Y1065334D01*
X266332Y1064001D01*
X263666D01*
X262333Y1065334D01*
X376663Y443001D02*
Y450999D01*
X372664D01*
X371332Y449666D01*
Y447000D01*
X372664Y445667D01*
X376663D01*
X373997D02*
X371332Y443001D01*
X363334D02*
X368666D01*
X363334Y448333D01*
Y449666D01*
X364667Y450999D01*
X367333D01*
X368666Y449666D01*
X355337Y450999D02*
X358003Y449666D01*
X360668Y447000D01*
Y444334D01*
X359336Y443001D01*
X356670D01*
X355337Y444334D01*
Y445667D01*
X356670Y447000D01*
X360668D01*
X530663Y284001D02*
Y291999D01*
X526665D01*
X525332Y290666D01*
Y288000D01*
X526665Y286667D01*
X530663D01*
X527997D02*
X525332Y284001D01*
X517334D02*
X522666D01*
X517334Y289333D01*
Y290666D01*
X518667Y291999D01*
X521333D01*
X522666Y290666D01*
X509337Y291999D02*
X514668D01*
Y288000D01*
X512003Y289333D01*
X510670D01*
X509337Y288000D01*
Y285334D01*
X510670Y284001D01*
X513335D01*
X514668Y285334D01*
X518999Y583663D02*
X511001D01*
Y579664D01*
X512334Y578332D01*
X515000D01*
X516333Y579664D01*
Y583663D01*
Y580997D02*
X518999Y578332D01*
Y570334D02*
Y575666D01*
X513667Y570334D01*
X512334D01*
X511001Y571667D01*
Y574333D01*
X512334Y575666D01*
X518999Y563670D02*
X511001D01*
X515000Y567668D01*
Y562337D01*
X491999Y583663D02*
X484001D01*
Y579664D01*
X485334Y578332D01*
X488000D01*
X489333Y579664D01*
Y583663D01*
Y580997D02*
X491999Y578332D01*
Y570334D02*
Y575666D01*
X486667Y570334D01*
X485334D01*
X484001Y571667D01*
Y574333D01*
X485334Y575666D01*
Y567668D02*
X484001Y566335D01*
Y563670D01*
X485334Y562337D01*
X486667D01*
X488000Y563670D01*
Y565003D01*
Y563670D01*
X489333Y562337D01*
X490666D01*
X491999Y563670D01*
Y566335D01*
X490666Y567668D01*
X530663Y263001D02*
Y270999D01*
X526665D01*
X525332Y269666D01*
Y267000D01*
X526665Y265667D01*
X530663D01*
X527997D02*
X525332Y263001D01*
X517334D02*
X522666D01*
X517334Y268333D01*
Y269666D01*
X518667Y270999D01*
X521333D01*
X522666Y269666D01*
X509337Y263001D02*
X514668D01*
X509337Y268333D01*
Y269666D01*
X510670Y270999D01*
X513335D01*
X514668Y269666D01*
X529330Y306001D02*
Y313999D01*
X525332D01*
X523999Y312666D01*
Y310000D01*
X525332Y308667D01*
X529330D01*
X526665D02*
X523999Y306001D01*
X516001D02*
X521333D01*
X516001Y311333D01*
Y312666D01*
X517334Y313999D01*
X520000D01*
X521333Y312666D01*
X513335Y306001D02*
X510670D01*
X512003D01*
Y313999D01*
X513335Y312666D01*
X454666Y892667D02*
X455999Y891334D01*
Y888668D01*
X454666Y887336D01*
X449334D01*
X448001Y888668D01*
Y891334D01*
X449334Y892667D01*
X455999Y900665D02*
X454666Y897999D01*
X452000Y895333D01*
X449334D01*
X448001Y896666D01*
Y899332D01*
X449334Y900665D01*
X450667D01*
X452000Y899332D01*
Y895333D01*
X355333Y1018666D02*
X356666Y1019999D01*
X359332D01*
X360664Y1018666D01*
Y1013334D01*
X359332Y1012001D01*
X356666D01*
X355333Y1013334D01*
X352667Y1018666D02*
X351334Y1019999D01*
X348668D01*
X347336Y1018666D01*
Y1017333D01*
X348668Y1016000D01*
X350001D01*
X348668D01*
X347336Y1014667D01*
Y1013334D01*
X348668Y1012001D01*
X351334D01*
X352667Y1013334D01*
D97*
X96880Y157530D02*
G03*
X96880Y157530I-1000J0D01*
G01*
D99*
X120500Y846500D02*
G03*
X120500Y846500I-3000J0D01*
G01*
X283500Y1026500D02*
G03*
X283500Y1026500I-3000J0D01*
G01*
X251500Y904500D02*
G03*
X251500Y904500I-3000J0D01*
G01*
D102*
X102534Y311714D02*
G03*
X150104Y355304I-34509J85412D01*
G01*
Y438696D02*
G03*
X102534Y482286I-82079J-41821D01*
G01*
X102500Y482300D02*
Y520000D01*
Y274000D02*
Y311700D01*
X150000Y355100D02*
Y438900D01*
M02*
