G04*
G04 #@! TF.GenerationSoftware,Altium Limited,Altium Designer,24.0.1 (36)*
G04*
G04 Layer_Color=16711935*
%FSLAX44Y44*%
%MOMM*%
G71*
G04*
G04 #@! TF.SameCoordinates,7A80B53C-B2C1-45D1-8136-E7169236FAC4*
G04*
G04*
G04 #@! TF.FilePolarity,Negative*
G04*
G01*
G75*
%ADD22R,0.8000X0.9000*%
%ADD23R,0.9000X0.6500*%
%ADD24R,0.9000X0.8000*%
%ADD28R,0.6500X0.9000*%
G04:AMPARAMS|DCode=31|XSize=1mm|YSize=1.3mm|CornerRadius=0.25mm|HoleSize=0mm|Usage=FLASHONLY|Rotation=0.000|XOffset=0mm|YOffset=0mm|HoleType=Round|Shape=RoundedRectangle|*
%AMROUNDEDRECTD31*
21,1,1.0000,0.8000,0,0,0.0*
21,1,0.5000,1.3000,0,0,0.0*
1,1,0.5000,0.2500,-0.4000*
1,1,0.5000,-0.2500,-0.4000*
1,1,0.5000,-0.2500,0.4000*
1,1,0.5000,0.2500,0.4000*
%
%ADD31ROUNDEDRECTD31*%
G04:AMPARAMS|DCode=34|XSize=1mm|YSize=1.3mm|CornerRadius=0.25mm|HoleSize=0mm|Usage=FLASHONLY|Rotation=270.000|XOffset=0mm|YOffset=0mm|HoleType=Round|Shape=RoundedRectangle|*
%AMROUNDEDRECTD34*
21,1,1.0000,0.8000,0,0,270.0*
21,1,0.5000,1.3000,0,0,270.0*
1,1,0.5000,-0.4000,-0.2500*
1,1,0.5000,-0.4000,0.2500*
1,1,0.5000,0.4000,0.2500*
1,1,0.5000,0.4000,-0.2500*
%
%ADD34ROUNDEDRECTD34*%
%ADD60C,3.0000*%
%ADD64R,0.4616X0.3516*%
%ADD80O,1.5700X2.0000*%
%ADD81C,1.8300*%
G04:AMPARAMS|DCode=82|XSize=1.8mm|YSize=3.8mm|CornerRadius=0.9mm|HoleSize=0mm|Usage=FLASHONLY|Rotation=0.000|XOffset=0mm|YOffset=0mm|HoleType=Round|Shape=RoundedRectangle|*
%AMROUNDEDRECTD82*
21,1,1.8000,2.0000,0,0,0.0*
21,1,0.0000,3.8000,0,0,0.0*
1,1,1.8000,0.0000,-1.0000*
1,1,1.8000,0.0000,-1.0000*
1,1,1.8000,0.0000,1.0000*
1,1,1.8000,0.0000,1.0000*
%
%ADD82ROUNDEDRECTD82*%
G04:AMPARAMS|DCode=83|XSize=3.7mm|YSize=1.8mm|CornerRadius=0.9mm|HoleSize=0mm|Usage=FLASHONLY|Rotation=0.000|XOffset=0mm|YOffset=0mm|HoleType=Round|Shape=RoundedRectangle|*
%AMROUNDEDRECTD83*
21,1,3.7000,0.0000,0,0,0.0*
21,1,1.9000,1.8000,0,0,0.0*
1,1,1.8000,0.9500,0.0000*
1,1,1.8000,-0.9500,0.0000*
1,1,1.8000,-0.9500,0.0000*
1,1,1.8000,0.9500,0.0000*
%
%ADD83ROUNDEDRECTD83*%
G04:AMPARAMS|DCode=84|XSize=3.8mm|YSize=1.8mm|CornerRadius=0.45mm|HoleSize=0mm|Usage=FLASHONLY|Rotation=0.000|XOffset=0mm|YOffset=0mm|HoleType=Round|Shape=RoundedRectangle|*
%AMROUNDEDRECTD84*
21,1,3.8000,0.9000,0,0,0.0*
21,1,2.9000,1.8000,0,0,0.0*
1,1,0.9000,1.4500,-0.4500*
1,1,0.9000,-1.4500,-0.4500*
1,1,0.9000,-1.4500,0.4500*
1,1,0.9000,1.4500,0.4500*
%
%ADD84ROUNDEDRECTD84*%
%ADD85C,0.6716*%
%ADD86O,1.5016X1.2516*%
%ADD87O,2.0000X1.5700*%
%ADD88C,3.3016*%
%ADD89O,1.9016X1.6016*%
G04:AMPARAMS|DCode=90|XSize=2.1016mm|YSize=2.1016mm|CornerRadius=0.5508mm|HoleSize=0mm|Usage=FLASHONLY|Rotation=270.000|XOffset=0mm|YOffset=0mm|HoleType=Round|Shape=RoundedRectangle|*
%AMROUNDEDRECTD90*
21,1,2.1016,1.0000,0,0,270.0*
21,1,1.0000,2.1016,0,0,270.0*
1,1,1.1016,-0.5000,-0.5000*
1,1,1.1016,-0.5000,0.5000*
1,1,1.1016,0.5000,0.5000*
1,1,1.1016,0.5000,-0.5000*
%
%ADD90ROUNDEDRECTD90*%
%ADD91O,1.6016X1.6256*%
%ADD92C,3.8016*%
%ADD93C,0.6616*%
%ADD94C,0.6566*%
G04:AMPARAMS|DCode=121|XSize=0.45mm|YSize=1.45mm|CornerRadius=0.1125mm|HoleSize=0mm|Usage=FLASHONLY|Rotation=0.000|XOffset=0mm|YOffset=0mm|HoleType=Round|Shape=RoundedRectangle|*
%AMROUNDEDRECTD121*
21,1,0.4500,1.2250,0,0,0.0*
21,1,0.2250,1.4500,0,0,0.0*
1,1,0.2250,0.1125,-0.6125*
1,1,0.2250,-0.1125,-0.6125*
1,1,0.2250,-0.1125,0.6125*
1,1,0.2250,0.1125,0.6125*
%
%ADD121ROUNDEDRECTD121*%
G04:AMPARAMS|DCode=122|XSize=0.3mm|YSize=1.35mm|CornerRadius=0.075mm|HoleSize=0mm|Usage=FLASHONLY|Rotation=0.000|XOffset=0mm|YOffset=0mm|HoleType=Round|Shape=RoundedRectangle|*
%AMROUNDEDRECTD122*
21,1,0.3000,1.2000,0,0,0.0*
21,1,0.1500,1.3500,0,0,0.0*
1,1,0.1500,0.0750,-0.6000*
1,1,0.1500,-0.0750,-0.6000*
1,1,0.1500,-0.0750,0.6000*
1,1,0.1500,0.0750,0.6000*
%
%ADD122ROUNDEDRECTD122*%
G04:AMPARAMS|DCode=123|XSize=0.45mm|YSize=1.45mm|CornerRadius=0.1125mm|HoleSize=0mm|Usage=FLASHONLY|Rotation=90.000|XOffset=0mm|YOffset=0mm|HoleType=Round|Shape=RoundedRectangle|*
%AMROUNDEDRECTD123*
21,1,0.4500,1.2250,0,0,90.0*
21,1,0.2250,1.4500,0,0,90.0*
1,1,0.2250,0.6125,0.1125*
1,1,0.2250,0.6125,-0.1125*
1,1,0.2250,-0.6125,-0.1125*
1,1,0.2250,-0.6125,0.1125*
%
%ADD123ROUNDEDRECTD123*%
G04:AMPARAMS|DCode=124|XSize=0.5mm|YSize=0.25mm|CornerRadius=0.125mm|HoleSize=0mm|Usage=FLASHONLY|Rotation=180.000|XOffset=0mm|YOffset=0mm|HoleType=Round|Shape=RoundedRectangle|*
%AMROUNDEDRECTD124*
21,1,0.5000,0.0000,0,0,180.0*
21,1,0.2500,0.2500,0,0,180.0*
1,1,0.2500,-0.1250,0.0000*
1,1,0.2500,0.1250,0.0000*
1,1,0.2500,0.1250,0.0000*
1,1,0.2500,-0.1250,0.0000*
%
%ADD124ROUNDEDRECTD124*%
%ADD125R,0.6500X1.3500*%
%ADD129R,4.6016X3.6016*%
%ADD130R,0.6236X0.7016*%
%ADD131R,1.1516X0.7016*%
%ADD132R,2.1016X0.9016*%
%ADD133R,2.0016X1.5016*%
%ADD134R,1.5016X1.9016*%
D22*
X153500Y826000D02*
D03*
X138500D02*
D03*
X327500Y1041000D02*
D03*
X312500D02*
D03*
X329500Y1016000D02*
D03*
X314500D02*
D03*
D23*
X286000Y1096250D02*
D03*
Y1081750D02*
D03*
X262000Y1096250D02*
D03*
Y1081750D02*
D03*
X515000Y536750D02*
D03*
Y551250D02*
D03*
X489000D02*
D03*
Y536750D02*
D03*
X202000Y1309250D02*
D03*
Y1294750D02*
D03*
D24*
X230000Y774500D02*
D03*
Y759500D02*
D03*
X139000Y885500D02*
D03*
Y870500D02*
D03*
X335000Y1299500D02*
D03*
Y1314500D02*
D03*
X452000Y913500D02*
D03*
Y928500D02*
D03*
X267000Y941000D02*
D03*
Y926000D02*
D03*
X205000Y937500D02*
D03*
Y922500D02*
D03*
D28*
X313750Y1061000D02*
D03*
X328250D02*
D03*
X235250Y1058000D02*
D03*
X220750D02*
D03*
X360750Y426000D02*
D03*
X375250D02*
D03*
X483750Y288000D02*
D03*
X498250D02*
D03*
X483750Y266000D02*
D03*
X498250D02*
D03*
X483750Y309000D02*
D03*
X498250D02*
D03*
X235000Y1082701D02*
D03*
X220500D02*
D03*
X307782Y1083153D02*
D03*
X322282D02*
D03*
X89250Y870000D02*
D03*
X74750D02*
D03*
X492760Y982710D02*
D03*
X507260D02*
D03*
X199250Y883000D02*
D03*
X184750D02*
D03*
D31*
X71000Y938000D02*
D03*
X91000D02*
D03*
Y916000D02*
D03*
X71000D02*
D03*
X307000Y990000D02*
D03*
X327000D02*
D03*
X244000Y991000D02*
D03*
X224000D02*
D03*
D34*
X435000Y970000D02*
D03*
Y950000D02*
D03*
D60*
X31000Y229000D02*
D03*
X117000Y1323000D02*
D03*
X509000Y183000D02*
D03*
D64*
X221200Y1110000D02*
D03*
X212800D02*
D03*
X236000D02*
D03*
X244400D02*
D03*
X276455Y1110840D02*
D03*
X268055D02*
D03*
X307200Y1110000D02*
D03*
X298800D02*
D03*
X321800D02*
D03*
X330200D02*
D03*
D80*
X112000Y1128000D02*
D03*
X145000D02*
D03*
X439000Y1147000D02*
D03*
X391000D02*
D03*
X145000Y1167000D02*
D03*
X112000D02*
D03*
X439000Y1110000D02*
D03*
X448000Y587000D02*
D03*
X352000Y559000D02*
D03*
X391000Y1110000D02*
D03*
D81*
X490520Y950000D02*
D03*
D82*
X47880Y95530D02*
D03*
D83*
X94880Y65530D02*
D03*
D84*
Y125530D02*
D03*
D85*
X435685Y151398D02*
D03*
X360755D02*
D03*
D86*
X374255Y172898D02*
D03*
X422255D02*
D03*
X374255Y129898D02*
D03*
X422255D02*
D03*
D87*
X325000Y133000D02*
D03*
X247000Y679000D02*
D03*
Y729000D02*
D03*
D88*
X510179Y142308D02*
D03*
Y1061508D02*
D03*
X40979D02*
D03*
Y190308D02*
D03*
D89*
X125000Y979000D02*
D03*
Y939000D02*
D03*
Y959000D02*
D03*
Y919000D02*
D03*
D90*
X353470Y1200320D02*
D03*
X196970D02*
D03*
D91*
X281570Y1164320D02*
D03*
X243470Y1138920D02*
D03*
X268870D02*
D03*
X294270D02*
D03*
X319670D02*
D03*
X230770Y1164320D02*
D03*
X256170D02*
D03*
X306970D02*
D03*
D92*
X332370Y1227820D02*
D03*
X218070D02*
D03*
D93*
X73000Y476000D02*
D03*
X93000Y496000D02*
D03*
X78000Y569000D02*
D03*
X219000Y786000D02*
D03*
X235000Y797000D02*
D03*
X169000Y1295000D02*
D03*
X437000Y923000D02*
D03*
X71000Y452000D02*
D03*
X66000Y290000D02*
D03*
X127000Y402000D02*
D03*
X64000Y439000D02*
D03*
Y427000D02*
D03*
X94276Y475724D02*
D03*
X311000Y967000D02*
D03*
X170278Y669775D02*
D03*
X339000Y1053320D02*
D03*
X249000Y1016000D02*
D03*
X341000Y1035680D02*
D03*
X209362Y1056035D02*
D03*
X170000Y702000D02*
D03*
X374000Y1001000D02*
D03*
X336693Y856285D02*
D03*
X356000Y933000D02*
D03*
X455000Y978000D02*
D03*
X249000Y822000D02*
D03*
X222000Y860000D02*
D03*
X54887Y435111D02*
D03*
X506000Y950000D02*
D03*
X390536Y211312D02*
D03*
X390460Y224655D02*
D03*
X446167Y224025D02*
D03*
X446727Y211078D02*
D03*
X322000Y550000D02*
D03*
X437000Y174000D02*
D03*
Y129000D02*
D03*
X361000Y130000D02*
D03*
X360000Y173000D02*
D03*
X329000Y845000D02*
D03*
X311453Y796547D02*
D03*
X240000Y760000D02*
D03*
X378000Y953000D02*
D03*
X358000Y921000D02*
D03*
X374000Y990000D02*
D03*
X345000Y845000D02*
D03*
X217000Y840000D02*
D03*
X248000Y489000D02*
D03*
X163000Y580000D02*
D03*
X336000Y186000D02*
D03*
X318000Y206000D02*
D03*
X537000Y321000D02*
D03*
X381239Y299649D02*
D03*
X362000Y347000D02*
D03*
X464000Y187000D02*
D03*
X304000Y297000D02*
D03*
X284000D02*
D03*
X191000Y439000D02*
D03*
X248000Y811000D02*
D03*
X285000Y889000D02*
D03*
X292000Y440000D02*
D03*
X168000Y774000D02*
D03*
X178000Y858000D02*
D03*
X77000Y856000D02*
D03*
X154000Y815000D02*
D03*
X169000Y761000D02*
D03*
X320000Y773000D02*
D03*
X218000Y870000D02*
D03*
X154000Y883000D02*
D03*
X139000Y894000D02*
D03*
X159000Y708000D02*
D03*
Y696000D02*
D03*
X177000Y366000D02*
D03*
X70270Y331000D02*
D03*
X335000Y674000D02*
D03*
X531865Y483350D02*
D03*
X504000Y490000D02*
D03*
X50000Y938000D02*
D03*
X224000Y412000D02*
D03*
X434000Y981000D02*
D03*
X126000Y994000D02*
D03*
X184000Y894000D02*
D03*
X321000Y488000D02*
D03*
X527000Y436000D02*
D03*
X472690Y843781D02*
D03*
X349622Y622421D02*
D03*
X345593Y632791D02*
D03*
X472703Y633161D02*
D03*
X279000Y953000D02*
D03*
X195000Y938000D02*
D03*
X244700Y1116700D02*
D03*
X258000Y1128000D02*
D03*
X430000Y904000D02*
D03*
X466630Y912920D02*
D03*
X406000Y872000D02*
D03*
X307444Y1298342D02*
D03*
X422000Y918000D02*
D03*
X347000Y674000D02*
D03*
X328000Y494000D02*
D03*
X403000Y593000D02*
D03*
X309070Y629831D02*
D03*
X359000Y491000D02*
D03*
X183000Y126000D02*
D03*
X204000Y1110000D02*
D03*
X259255Y1110840D02*
D03*
X299000Y1118000D02*
D03*
X338000Y1110000D02*
D03*
X484000Y865000D02*
D03*
X245000Y567000D02*
D03*
D94*
X191000Y1294000D02*
D03*
X351000Y1315000D02*
D03*
X208000Y509000D02*
D03*
X304000Y1030000D02*
D03*
X422866Y927969D02*
D03*
X478000Y420000D02*
D03*
X180142Y137685D02*
D03*
X223000Y273000D02*
D03*
X381000Y310000D02*
D03*
X455000Y296000D02*
D03*
X404000Y283315D02*
D03*
X362000Y336000D02*
D03*
X348000Y416000D02*
D03*
X336000Y401000D02*
D03*
X312000Y943000D02*
D03*
X320000Y783000D02*
D03*
X403000Y582000D02*
D03*
X185000Y537000D02*
D03*
X336000Y486000D02*
D03*
X366000Y466000D02*
D03*
X212000Y1036000D02*
D03*
X275019Y1309450D02*
D03*
X409000Y740000D02*
D03*
X395000D02*
D03*
X381000D02*
D03*
Y754000D02*
D03*
X395000D02*
D03*
X409000D02*
D03*
Y768000D02*
D03*
X395000D02*
D03*
X381000D02*
D03*
X455000Y966000D02*
D03*
X358163Y632791D02*
D03*
X459911Y633383D02*
D03*
X320000Y630000D02*
D03*
X489000Y521000D02*
D03*
X406000Y604000D02*
D03*
X349000Y485000D02*
D03*
X169000Y281000D02*
D03*
X523755Y982741D02*
D03*
D121*
X102250Y870250D02*
D03*
X108750D02*
D03*
X115250D02*
D03*
X121750D02*
D03*
X102250Y825750D02*
D03*
X108750D02*
D03*
X115250D02*
D03*
X121750D02*
D03*
D122*
X270000Y1005750D02*
D03*
X285000D02*
D03*
X280000D02*
D03*
X275000D02*
D03*
X265000D02*
D03*
X285000Y1050250D02*
D03*
X280000D02*
D03*
X275000D02*
D03*
X270000D02*
D03*
X265000D02*
D03*
D123*
X224750Y889250D02*
D03*
Y895750D02*
D03*
Y902250D02*
D03*
Y908750D02*
D03*
X269250Y889250D02*
D03*
Y895750D02*
D03*
Y902250D02*
D03*
Y908750D02*
D03*
D124*
X284500Y1315500D02*
D03*
Y1309000D02*
D03*
Y1302500D02*
D03*
X265500D02*
D03*
Y1309000D02*
D03*
Y1315500D02*
D03*
D125*
X275000Y1309000D02*
D03*
D129*
X68000Y527000D02*
D03*
Y267000D02*
D03*
D130*
X469780Y959000D02*
D03*
X478000D02*
D03*
Y941000D02*
D03*
X469780D02*
D03*
Y950000D02*
D03*
D131*
X209750Y770500D02*
D03*
Y761000D02*
D03*
Y751500D02*
D03*
X182250D02*
D03*
Y761000D02*
D03*
Y770500D02*
D03*
D132*
X502980Y414850D02*
D03*
X500980Y403850D02*
D03*
Y381850D02*
D03*
X496980Y392850D02*
D03*
X502980Y436850D02*
D03*
X500980Y425850D02*
D03*
Y447850D02*
D03*
Y458850D02*
D03*
D133*
X536980Y335250D02*
D03*
X526980Y466750D02*
D03*
D134*
X395480Y393750D02*
D03*
Y450750D02*
D03*
M02*
