G04*
G04 #@! TF.GenerationSoftware,Altium Limited,Altium Designer,24.0.1 (36)*
G04*
G04 Layer_Color=32896*
%FSLAX44Y44*%
%MOMM*%
G71*
G04*
G04 #@! TF.SameCoordinates,7A80B53C-B2C1-45D1-8136-E7169236FAC4*
G04*
G04*
G04 #@! TF.FilePolarity,Positive*
G04*
G01*
G75*
%ADD11C,0.2000*%
G36*
X313030Y1067527D02*
X313178Y1067509D01*
X313326Y1067481D01*
X313456Y1067444D01*
X313705Y1067342D01*
X313816Y1067296D01*
X313909Y1067241D01*
X314001Y1067176D01*
X314075Y1067130D01*
X314149Y1067074D01*
X314205Y1067028D01*
X314251Y1066991D01*
X314279Y1066963D01*
X314297Y1066945D01*
X314306Y1066936D01*
X314408Y1066825D01*
X314491Y1066695D01*
X314574Y1066575D01*
X314639Y1066445D01*
X314695Y1066307D01*
X314741Y1066177D01*
X314806Y1065937D01*
X314833Y1065817D01*
X314852Y1065715D01*
X314861Y1065613D01*
X314870Y1065530D01*
X314879Y1065465D01*
Y1065419D01*
Y1065382D01*
Y1065373D01*
X314870Y1065197D01*
X314852Y1065040D01*
X314833Y1064883D01*
X314796Y1064735D01*
X314750Y1064606D01*
X314704Y1064476D01*
X314658Y1064365D01*
X314602Y1064264D01*
X314556Y1064171D01*
X314510Y1064088D01*
X314464Y1064023D01*
X314417Y1063959D01*
X314380Y1063912D01*
X314362Y1063885D01*
X314343Y1063866D01*
X314334Y1063857D01*
X314232Y1063755D01*
X314121Y1063672D01*
X314010Y1063589D01*
X313890Y1063524D01*
X313779Y1063468D01*
X313668Y1063422D01*
X313456Y1063357D01*
X313363Y1063330D01*
X313271Y1063311D01*
X313197Y1063302D01*
X313123Y1063293D01*
X313067Y1063283D01*
X312993D01*
X312818Y1063293D01*
X312651Y1063320D01*
X312503Y1063357D01*
X312365Y1063404D01*
X312263Y1063441D01*
X312180Y1063478D01*
X312124Y1063505D01*
X312106Y1063515D01*
X311958Y1063607D01*
X311828Y1063709D01*
X311717Y1063811D01*
X311625Y1063903D01*
X311560Y1063995D01*
X311505Y1064060D01*
X311468Y1064106D01*
X311459Y1064125D01*
Y1064051D01*
Y1064005D01*
Y1063977D01*
Y1063968D01*
X311468Y1063783D01*
X311477Y1063607D01*
X311496Y1063450D01*
X311514Y1063302D01*
X311542Y1063182D01*
X311560Y1063089D01*
X311570Y1063052D01*
Y1063025D01*
X311579Y1063015D01*
Y1063006D01*
X311625Y1062840D01*
X311671Y1062692D01*
X311717Y1062562D01*
X311764Y1062451D01*
X311801Y1062368D01*
X311838Y1062303D01*
X311856Y1062257D01*
X311866Y1062248D01*
X311939Y1062146D01*
X312013Y1062063D01*
X312087Y1061989D01*
X312161Y1061924D01*
X312217Y1061869D01*
X312272Y1061832D01*
X312309Y1061814D01*
X312318Y1061804D01*
X312420Y1061749D01*
X312531Y1061712D01*
X312633Y1061684D01*
X312735Y1061665D01*
X312818Y1061656D01*
X312882Y1061647D01*
X312947D01*
X313095Y1061656D01*
X313234Y1061684D01*
X313354Y1061721D01*
X313456Y1061767D01*
X313530Y1061804D01*
X313594Y1061841D01*
X313631Y1061869D01*
X313641Y1061878D01*
X313733Y1061980D01*
X313807Y1062100D01*
X313872Y1062230D01*
X313918Y1062359D01*
X313955Y1062470D01*
X313983Y1062572D01*
X313992Y1062609D01*
Y1062627D01*
X314001Y1062646D01*
Y1062655D01*
X314759Y1062590D01*
X314704Y1062322D01*
X314630Y1062091D01*
X314537Y1061887D01*
X314445Y1061721D01*
X314352Y1061592D01*
X314306Y1061536D01*
X314269Y1061490D01*
X314242Y1061462D01*
X314214Y1061434D01*
X314205Y1061425D01*
X314195Y1061416D01*
X314103Y1061342D01*
X314001Y1061277D01*
X313798Y1061176D01*
X313594Y1061102D01*
X313400Y1061055D01*
X313225Y1061018D01*
X313151Y1061009D01*
X313086D01*
X313040Y1061000D01*
X312966D01*
X312707Y1061018D01*
X312476Y1061055D01*
X312263Y1061120D01*
X312087Y1061194D01*
X312013Y1061222D01*
X311939Y1061259D01*
X311884Y1061296D01*
X311828Y1061323D01*
X311791Y1061342D01*
X311764Y1061360D01*
X311745Y1061379D01*
X311736D01*
X311551Y1061536D01*
X311385Y1061712D01*
X311255Y1061897D01*
X311144Y1062072D01*
X311052Y1062230D01*
X311015Y1062303D01*
X310987Y1062359D01*
X310969Y1062414D01*
X310950Y1062451D01*
X310941Y1062470D01*
Y1062479D01*
X310895Y1062618D01*
X310849Y1062775D01*
X310784Y1063089D01*
X310737Y1063422D01*
X310710Y1063737D01*
X310691Y1063875D01*
X310682Y1064014D01*
Y1064134D01*
X310673Y1064236D01*
Y1064319D01*
Y1064384D01*
Y1064430D01*
Y1064439D01*
Y1064652D01*
X310682Y1064855D01*
X310700Y1065040D01*
X310719Y1065216D01*
X310737Y1065373D01*
X310756Y1065521D01*
X310784Y1065660D01*
X310812Y1065780D01*
X310839Y1065882D01*
X310858Y1065974D01*
X310885Y1066057D01*
X310904Y1066122D01*
X310922Y1066168D01*
X310941Y1066205D01*
X310950Y1066224D01*
Y1066233D01*
X311061Y1066455D01*
X311181Y1066649D01*
X311320Y1066815D01*
X311440Y1066954D01*
X311560Y1067056D01*
X311653Y1067130D01*
X311690Y1067157D01*
X311717Y1067176D01*
X311727Y1067194D01*
X311736D01*
X311930Y1067305D01*
X312124Y1067389D01*
X312318Y1067453D01*
X312494Y1067490D01*
X312651Y1067518D01*
X312716Y1067527D01*
X312762D01*
X312808Y1067536D01*
X312873D01*
X313030Y1067527D01*
D02*
G37*
G36*
X321000Y1061111D02*
X320149D01*
Y1063949D01*
X319058D01*
X318957Y1063940D01*
X318883D01*
X318818Y1063931D01*
X318772Y1063922D01*
X318735D01*
X318717Y1063912D01*
X318707D01*
X318559Y1063866D01*
X318495Y1063838D01*
X318439Y1063811D01*
X318384Y1063783D01*
X318347Y1063764D01*
X318328Y1063755D01*
X318319Y1063746D01*
X318245Y1063690D01*
X318171Y1063626D01*
X318032Y1063487D01*
X317968Y1063422D01*
X317921Y1063367D01*
X317894Y1063330D01*
X317884Y1063320D01*
X317792Y1063191D01*
X317690Y1063052D01*
X317589Y1062905D01*
X317487Y1062766D01*
X317404Y1062636D01*
X317339Y1062535D01*
X317311Y1062498D01*
X317293Y1062470D01*
X317274Y1062451D01*
Y1062442D01*
X316433Y1061111D01*
X315379D01*
X316479Y1062849D01*
X316609Y1063034D01*
X316729Y1063200D01*
X316849Y1063339D01*
X316950Y1063468D01*
X317043Y1063561D01*
X317117Y1063635D01*
X317163Y1063681D01*
X317182Y1063700D01*
X317256Y1063755D01*
X317339Y1063820D01*
X317505Y1063922D01*
X317579Y1063959D01*
X317635Y1063995D01*
X317672Y1064014D01*
X317690Y1064023D01*
X317524Y1064051D01*
X317367Y1064079D01*
X317228Y1064125D01*
X317089Y1064162D01*
X316969Y1064208D01*
X316858Y1064264D01*
X316756Y1064310D01*
X316664Y1064356D01*
X316590Y1064411D01*
X316516Y1064458D01*
X316460Y1064495D01*
X316414Y1064532D01*
X316377Y1064559D01*
X316350Y1064587D01*
X316340Y1064596D01*
X316331Y1064606D01*
X316257Y1064698D01*
X316183Y1064791D01*
X316072Y1064985D01*
X315998Y1065179D01*
X315943Y1065364D01*
X315906Y1065521D01*
X315896Y1065586D01*
Y1065650D01*
X315887Y1065697D01*
Y1065734D01*
Y1065752D01*
Y1065761D01*
X315896Y1065956D01*
X315924Y1066131D01*
X315970Y1066298D01*
X316017Y1066436D01*
X316072Y1066556D01*
X316109Y1066649D01*
X316146Y1066704D01*
X316155Y1066714D01*
Y1066723D01*
X316266Y1066871D01*
X316377Y1067000D01*
X316497Y1067111D01*
X316609Y1067194D01*
X316710Y1067259D01*
X316793Y1067296D01*
X316849Y1067324D01*
X316858Y1067333D01*
X316867D01*
X316950Y1067361D01*
X317052Y1067389D01*
X317256Y1067435D01*
X317477Y1067462D01*
X317681Y1067490D01*
X317875Y1067499D01*
X317958D01*
X318032Y1067509D01*
X321000D01*
Y1061111D01*
D02*
G37*
G36*
X232521Y1056151D02*
X232391Y1055966D01*
X232271Y1055800D01*
X232151Y1055661D01*
X232049Y1055531D01*
X231957Y1055439D01*
X231883Y1055365D01*
X231837Y1055319D01*
X231818Y1055300D01*
X231744Y1055245D01*
X231661Y1055180D01*
X231495Y1055079D01*
X231421Y1055042D01*
X231365Y1055005D01*
X231328Y1054986D01*
X231310Y1054977D01*
X231476Y1054949D01*
X231633Y1054921D01*
X231772Y1054875D01*
X231911Y1054838D01*
X232031Y1054792D01*
X232142Y1054736D01*
X232244Y1054690D01*
X232336Y1054644D01*
X232410Y1054588D01*
X232484Y1054542D01*
X232540Y1054505D01*
X232586Y1054468D01*
X232623Y1054441D01*
X232650Y1054413D01*
X232660Y1054404D01*
X232669Y1054394D01*
X232743Y1054302D01*
X232817Y1054209D01*
X232928Y1054015D01*
X233002Y1053821D01*
X233057Y1053636D01*
X233094Y1053479D01*
X233103Y1053414D01*
Y1053350D01*
X233113Y1053303D01*
Y1053266D01*
Y1053248D01*
Y1053239D01*
X233103Y1053045D01*
X233076Y1052869D01*
X233029Y1052702D01*
X232983Y1052564D01*
X232928Y1052443D01*
X232891Y1052351D01*
X232854Y1052296D01*
X232845Y1052286D01*
Y1052277D01*
X232734Y1052129D01*
X232623Y1052000D01*
X232502Y1051889D01*
X232391Y1051806D01*
X232290Y1051741D01*
X232207Y1051704D01*
X232151Y1051676D01*
X232142Y1051667D01*
X232133D01*
X232049Y1051639D01*
X231948Y1051611D01*
X231744Y1051565D01*
X231522Y1051537D01*
X231319Y1051510D01*
X231125Y1051500D01*
X231042D01*
X230968Y1051491D01*
X228000D01*
Y1057889D01*
X228850D01*
Y1055051D01*
X229942D01*
X230043Y1055060D01*
X230117D01*
X230182Y1055069D01*
X230228Y1055079D01*
X230265D01*
X230284Y1055088D01*
X230293D01*
X230441Y1055134D01*
X230505Y1055162D01*
X230561Y1055190D01*
X230616Y1055217D01*
X230653Y1055236D01*
X230672Y1055245D01*
X230681Y1055254D01*
X230755Y1055310D01*
X230829Y1055374D01*
X230968Y1055513D01*
X231032Y1055578D01*
X231079Y1055633D01*
X231106Y1055670D01*
X231116Y1055679D01*
X231208Y1055809D01*
X231310Y1055948D01*
X231411Y1056096D01*
X231513Y1056234D01*
X231596Y1056364D01*
X231661Y1056465D01*
X231689Y1056502D01*
X231707Y1056530D01*
X231726Y1056549D01*
Y1056558D01*
X232567Y1057889D01*
X233621D01*
X232521Y1056151D01*
D02*
G37*
G36*
X236395Y1057991D02*
X236552Y1057972D01*
X236709Y1057945D01*
X236857Y1057917D01*
X236987Y1057871D01*
X237116Y1057824D01*
X237236Y1057778D01*
X237338Y1057723D01*
X237430Y1057667D01*
X237514Y1057621D01*
X237578Y1057575D01*
X237643Y1057529D01*
X237689Y1057501D01*
X237717Y1057473D01*
X237736Y1057455D01*
X237745Y1057445D01*
X237846Y1057334D01*
X237939Y1057224D01*
X238013Y1057113D01*
X238078Y1056992D01*
X238142Y1056881D01*
X238188Y1056761D01*
X238253Y1056549D01*
X238281Y1056447D01*
X238300Y1056354D01*
X238309Y1056271D01*
X238318Y1056207D01*
X238327Y1056151D01*
Y1056105D01*
Y1056077D01*
Y1056068D01*
X238318Y1055855D01*
X238281Y1055661D01*
X238225Y1055485D01*
X238170Y1055337D01*
X238115Y1055217D01*
X238059Y1055125D01*
X238022Y1055069D01*
X238013Y1055060D01*
Y1055051D01*
X237883Y1054903D01*
X237745Y1054773D01*
X237597Y1054672D01*
X237458Y1054579D01*
X237329Y1054514D01*
X237218Y1054468D01*
X237181Y1054450D01*
X237153Y1054441D01*
X237134Y1054431D01*
X237125D01*
X237292Y1054357D01*
X237430Y1054274D01*
X237551Y1054191D01*
X237652Y1054108D01*
X237726Y1054034D01*
X237782Y1053978D01*
X237819Y1053941D01*
X237828Y1053923D01*
X237911Y1053793D01*
X237967Y1053664D01*
X238013Y1053534D01*
X238041Y1053405D01*
X238059Y1053303D01*
X238068Y1053220D01*
Y1053165D01*
Y1053155D01*
Y1053146D01*
X238059Y1053017D01*
X238050Y1052896D01*
X237985Y1052665D01*
X237902Y1052462D01*
X237810Y1052286D01*
X237717Y1052148D01*
X237671Y1052092D01*
X237634Y1052037D01*
X237597Y1052000D01*
X237569Y1051972D01*
X237560Y1051963D01*
X237551Y1051954D01*
X237449Y1051870D01*
X237347Y1051787D01*
X237236Y1051722D01*
X237125Y1051667D01*
X236903Y1051584D01*
X236681Y1051528D01*
X236589Y1051500D01*
X236497Y1051491D01*
X236413Y1051482D01*
X236339Y1051473D01*
X236284Y1051463D01*
X236201D01*
X236053Y1051473D01*
X235905Y1051482D01*
X235646Y1051537D01*
X235526Y1051574D01*
X235415Y1051611D01*
X235313Y1051658D01*
X235221Y1051704D01*
X235147Y1051750D01*
X235073Y1051796D01*
X235008Y1051833D01*
X234962Y1051870D01*
X234925Y1051898D01*
X234897Y1051926D01*
X234879Y1051935D01*
X234869Y1051944D01*
X234786Y1052037D01*
X234703Y1052129D01*
X234638Y1052231D01*
X234583Y1052333D01*
X234490Y1052527D01*
X234435Y1052712D01*
X234398Y1052869D01*
X234389Y1052943D01*
X234379Y1052998D01*
X234370Y1053054D01*
Y1053091D01*
Y1053109D01*
Y1053118D01*
X234379Y1053285D01*
X234407Y1053442D01*
X234444Y1053581D01*
X234490Y1053701D01*
X234527Y1053793D01*
X234564Y1053867D01*
X234592Y1053904D01*
X234601Y1053923D01*
X234703Y1054034D01*
X234814Y1054136D01*
X234934Y1054228D01*
X235054Y1054302D01*
X235165Y1054357D01*
X235248Y1054394D01*
X235285Y1054413D01*
X235313Y1054422D01*
X235322Y1054431D01*
X235332D01*
X235119Y1054496D01*
X234943Y1054579D01*
X234786Y1054681D01*
X234657Y1054773D01*
X234555Y1054866D01*
X234481Y1054940D01*
X234444Y1054986D01*
X234426Y1054995D01*
Y1055005D01*
X234324Y1055171D01*
X234241Y1055347D01*
X234185Y1055513D01*
X234148Y1055679D01*
X234130Y1055827D01*
X234121Y1055892D01*
Y1055948D01*
X234111Y1055985D01*
Y1056022D01*
Y1056040D01*
Y1056049D01*
X234121Y1056197D01*
X234139Y1056345D01*
X234167Y1056484D01*
X234204Y1056622D01*
X234296Y1056854D01*
X234342Y1056965D01*
X234398Y1057057D01*
X234453Y1057150D01*
X234499Y1057224D01*
X234555Y1057288D01*
X234592Y1057344D01*
X234629Y1057390D01*
X234657Y1057418D01*
X234675Y1057436D01*
X234684Y1057445D01*
X234795Y1057547D01*
X234916Y1057630D01*
X235045Y1057704D01*
X235175Y1057769D01*
X235295Y1057815D01*
X235424Y1057861D01*
X235674Y1057926D01*
X235785Y1057954D01*
X235886Y1057972D01*
X235979Y1057982D01*
X236062Y1057991D01*
X236127Y1058000D01*
X236219D01*
X236395Y1057991D01*
D02*
G37*
G36*
X288219Y1099309D02*
X288422Y1099272D01*
X288598Y1099216D01*
X288746Y1099161D01*
X288866Y1099105D01*
X288958Y1099050D01*
X289014Y1099013D01*
X289032Y1099004D01*
X289171Y1098874D01*
X289291Y1098736D01*
X289384Y1098587D01*
X289458Y1098440D01*
X289513Y1098310D01*
X289550Y1098208D01*
X289559Y1098171D01*
X289569Y1098144D01*
X289578Y1098125D01*
Y1098116D01*
X289661Y1098273D01*
X289744Y1098403D01*
X289837Y1098514D01*
X289920Y1098606D01*
X289994Y1098680D01*
X290059Y1098736D01*
X290096Y1098763D01*
X290114Y1098773D01*
X290244Y1098846D01*
X290373Y1098902D01*
X290502Y1098948D01*
X290623Y1098976D01*
X290724Y1098994D01*
X290798Y1099004D01*
X290854D01*
X290872D01*
X291029Y1098994D01*
X291187Y1098967D01*
X291325Y1098930D01*
X291446Y1098883D01*
X291547Y1098837D01*
X291630Y1098800D01*
X291677Y1098773D01*
X291695Y1098763D01*
X291834Y1098671D01*
X291954Y1098560D01*
X292056Y1098449D01*
X292148Y1098338D01*
X292213Y1098245D01*
X292268Y1098162D01*
X292296Y1098107D01*
X292305Y1098098D01*
Y1098088D01*
X292379Y1097922D01*
X292435Y1097755D01*
X292481Y1097589D01*
X292509Y1097441D01*
X292527Y1097321D01*
X292537Y1097219D01*
Y1096988D01*
X292518Y1096859D01*
X292472Y1096609D01*
X292398Y1096396D01*
X292324Y1096211D01*
X292278Y1096128D01*
X292241Y1096064D01*
X292204Y1095999D01*
X292167Y1095953D01*
X292139Y1095916D01*
X292120Y1095888D01*
X292111Y1095869D01*
X292102Y1095860D01*
X291926Y1095684D01*
X291732Y1095546D01*
X291529Y1095435D01*
X291325Y1095342D01*
X291150Y1095287D01*
X291076Y1095259D01*
X291011Y1095241D01*
X290956Y1095231D01*
X290919Y1095222D01*
X290891Y1095213D01*
X290882D01*
X290743Y1095999D01*
X290946Y1096036D01*
X291122Y1096091D01*
X291270Y1096156D01*
X291390Y1096221D01*
X291483Y1096285D01*
X291547Y1096341D01*
X291593Y1096378D01*
X291603Y1096387D01*
X291695Y1096507D01*
X291769Y1096637D01*
X291815Y1096757D01*
X291852Y1096877D01*
X291871Y1096988D01*
X291889Y1097071D01*
Y1097145D01*
X291880Y1097312D01*
X291843Y1097460D01*
X291797Y1097589D01*
X291751Y1097700D01*
X291695Y1097783D01*
X291649Y1097848D01*
X291612Y1097894D01*
X291603Y1097903D01*
X291492Y1098005D01*
X291371Y1098079D01*
X291251Y1098125D01*
X291140Y1098162D01*
X291039Y1098181D01*
X290965Y1098199D01*
X290909D01*
X290900D01*
X290891D01*
X290789D01*
X290697Y1098181D01*
X290539Y1098135D01*
X290401Y1098070D01*
X290280Y1097996D01*
X290197Y1097922D01*
X290133Y1097857D01*
X290096Y1097811D01*
X290086Y1097802D01*
Y1097792D01*
X290003Y1097635D01*
X289939Y1097487D01*
X289892Y1097330D01*
X289865Y1097191D01*
X289846Y1097071D01*
X289827Y1096970D01*
Y1096849D01*
X289837Y1096812D01*
Y1096766D01*
X289143Y1096674D01*
X289171Y1096794D01*
X289190Y1096905D01*
X289208Y1096997D01*
X289217Y1097081D01*
X289226Y1097145D01*
Y1097228D01*
X289208Y1097423D01*
X289171Y1097598D01*
X289116Y1097755D01*
X289051Y1097885D01*
X288986Y1097987D01*
X288931Y1098061D01*
X288894Y1098107D01*
X288875Y1098125D01*
X288736Y1098245D01*
X288589Y1098338D01*
X288441Y1098403D01*
X288293Y1098440D01*
X288173Y1098467D01*
X288071Y1098477D01*
X288034Y1098486D01*
X288006D01*
X287988D01*
X287978D01*
X287775Y1098467D01*
X287590Y1098421D01*
X287433Y1098366D01*
X287294Y1098292D01*
X287183Y1098218D01*
X287100Y1098162D01*
X287045Y1098116D01*
X287026Y1098098D01*
X286897Y1097950D01*
X286804Y1097792D01*
X286740Y1097635D01*
X286693Y1097487D01*
X286665Y1097358D01*
X286656Y1097256D01*
X286647Y1097219D01*
Y1097164D01*
X286656Y1096997D01*
X286693Y1096840D01*
X286740Y1096701D01*
X286795Y1096590D01*
X286841Y1096498D01*
X286887Y1096424D01*
X286924Y1096387D01*
X286934Y1096369D01*
X287063Y1096258D01*
X287211Y1096165D01*
X287368Y1096082D01*
X287535Y1096017D01*
X287673Y1095971D01*
X287738Y1095953D01*
X287794Y1095943D01*
X287840Y1095934D01*
X287877Y1095925D01*
X287895Y1095916D01*
X287904D01*
X287803Y1095130D01*
X287655Y1095148D01*
X287516Y1095176D01*
X287257Y1095259D01*
X287035Y1095361D01*
X286943Y1095416D01*
X286850Y1095472D01*
X286767Y1095527D01*
X286702Y1095583D01*
X286638Y1095629D01*
X286592Y1095675D01*
X286555Y1095703D01*
X286527Y1095731D01*
X286508Y1095749D01*
X286499Y1095758D01*
X286416Y1095869D01*
X286333Y1095980D01*
X286268Y1096091D01*
X286213Y1096211D01*
X286120Y1096443D01*
X286065Y1096665D01*
X286046Y1096766D01*
X286028Y1096859D01*
X286018Y1096942D01*
X286009Y1097016D01*
X286000Y1097071D01*
Y1097154D01*
X286009Y1097330D01*
X286028Y1097487D01*
X286055Y1097645D01*
X286092Y1097792D01*
X286138Y1097931D01*
X286185Y1098051D01*
X286240Y1098171D01*
X286296Y1098273D01*
X286342Y1098375D01*
X286397Y1098458D01*
X286444Y1098532D01*
X286490Y1098587D01*
X286527Y1098634D01*
X286555Y1098671D01*
X286573Y1098689D01*
X286582Y1098699D01*
X286693Y1098809D01*
X286813Y1098902D01*
X286934Y1098985D01*
X287054Y1099059D01*
X287165Y1099115D01*
X287285Y1099170D01*
X287507Y1099244D01*
X287609Y1099262D01*
X287701Y1099281D01*
X287784Y1099299D01*
X287858Y1099309D01*
X287914Y1099318D01*
X287960D01*
X287988D01*
X287997D01*
X288219Y1099309D01*
D02*
G37*
G36*
X287849Y1093521D02*
X288034Y1093391D01*
X288200Y1093271D01*
X288339Y1093151D01*
X288468Y1093049D01*
X288561Y1092957D01*
X288635Y1092883D01*
X288681Y1092837D01*
X288699Y1092818D01*
X288755Y1092744D01*
X288820Y1092661D01*
X288921Y1092495D01*
X288958Y1092421D01*
X288995Y1092365D01*
X289014Y1092328D01*
X289023Y1092310D01*
X289051Y1092476D01*
X289079Y1092633D01*
X289125Y1092772D01*
X289162Y1092911D01*
X289208Y1093031D01*
X289263Y1093142D01*
X289310Y1093244D01*
X289356Y1093336D01*
X289412Y1093410D01*
X289458Y1093484D01*
X289495Y1093539D01*
X289532Y1093586D01*
X289559Y1093623D01*
X289587Y1093650D01*
X289596Y1093660D01*
X289606Y1093669D01*
X289698Y1093743D01*
X289790Y1093817D01*
X289985Y1093928D01*
X290179Y1094002D01*
X290364Y1094057D01*
X290521Y1094094D01*
X290586Y1094103D01*
X290650D01*
X290697Y1094113D01*
X290734D01*
X290752D01*
X290761D01*
X290956Y1094103D01*
X291131Y1094076D01*
X291298Y1094029D01*
X291436Y1093983D01*
X291556Y1093928D01*
X291649Y1093891D01*
X291704Y1093854D01*
X291714Y1093845D01*
X291723D01*
X291871Y1093734D01*
X292000Y1093623D01*
X292111Y1093503D01*
X292194Y1093391D01*
X292259Y1093290D01*
X292296Y1093207D01*
X292324Y1093151D01*
X292333Y1093142D01*
Y1093133D01*
X292361Y1093049D01*
X292388Y1092948D01*
X292435Y1092744D01*
X292463Y1092522D01*
X292490Y1092319D01*
X292500Y1092125D01*
Y1092042D01*
X292509Y1091968D01*
Y1089000D01*
X286111D01*
Y1089850D01*
X288949D01*
Y1090941D01*
X288940Y1091043D01*
Y1091117D01*
X288931Y1091182D01*
X288921Y1091228D01*
Y1091265D01*
X288912Y1091283D01*
Y1091293D01*
X288866Y1091441D01*
X288838Y1091505D01*
X288811Y1091561D01*
X288783Y1091616D01*
X288764Y1091653D01*
X288755Y1091672D01*
X288746Y1091681D01*
X288690Y1091755D01*
X288626Y1091829D01*
X288487Y1091968D01*
X288422Y1092032D01*
X288367Y1092079D01*
X288330Y1092106D01*
X288321Y1092116D01*
X288191Y1092208D01*
X288052Y1092310D01*
X287904Y1092411D01*
X287766Y1092513D01*
X287636Y1092596D01*
X287535Y1092661D01*
X287498Y1092689D01*
X287470Y1092707D01*
X287451Y1092726D01*
X287442D01*
X286111Y1093567D01*
Y1094621D01*
X287849Y1093521D01*
D02*
G37*
G36*
X262758Y1096100D02*
X262915Y1096211D01*
X262980Y1096267D01*
X263045Y1096313D01*
X263100Y1096359D01*
X263137Y1096396D01*
X263165Y1096424D01*
X263174Y1096433D01*
X263220Y1096479D01*
X263267Y1096535D01*
X263387Y1096664D01*
X263525Y1096812D01*
X263664Y1096970D01*
X263784Y1097117D01*
X263840Y1097182D01*
X263895Y1097238D01*
X263932Y1097284D01*
X263960Y1097321D01*
X263978Y1097339D01*
X263988Y1097349D01*
X264117Y1097496D01*
X264237Y1097645D01*
X264357Y1097774D01*
X264459Y1097894D01*
X264561Y1098005D01*
X264653Y1098098D01*
X264737Y1098190D01*
X264811Y1098264D01*
X264884Y1098338D01*
X264940Y1098393D01*
X264986Y1098440D01*
X265032Y1098486D01*
X265088Y1098532D01*
X265106Y1098550D01*
X265264Y1098680D01*
X265402Y1098791D01*
X265541Y1098883D01*
X265652Y1098957D01*
X265754Y1099013D01*
X265828Y1099050D01*
X265874Y1099068D01*
X265892Y1099078D01*
X266031Y1099133D01*
X266170Y1099170D01*
X266299Y1099207D01*
X266410Y1099225D01*
X266512Y1099235D01*
X266586Y1099244D01*
X266632D01*
X266650D01*
X266789Y1099235D01*
X266919Y1099216D01*
X267048Y1099198D01*
X267159Y1099161D01*
X267381Y1099068D01*
X267556Y1098976D01*
X267640Y1098920D01*
X267704Y1098874D01*
X267769Y1098828D01*
X267815Y1098782D01*
X267852Y1098745D01*
X267889Y1098726D01*
X267899Y1098708D01*
X267908Y1098699D01*
X268000Y1098597D01*
X268083Y1098486D01*
X268148Y1098366D01*
X268204Y1098245D01*
X268296Y1098005D01*
X268361Y1097765D01*
X268379Y1097663D01*
X268398Y1097561D01*
X268407Y1097469D01*
X268416Y1097395D01*
X268426Y1097330D01*
Y1097238D01*
X268416Y1097071D01*
X268407Y1096914D01*
X268379Y1096766D01*
X268352Y1096627D01*
X268315Y1096498D01*
X268278Y1096378D01*
X268231Y1096267D01*
X268185Y1096165D01*
X268139Y1096073D01*
X268093Y1095999D01*
X268056Y1095934D01*
X268019Y1095879D01*
X267991Y1095832D01*
X267963Y1095805D01*
X267954Y1095786D01*
X267945Y1095777D01*
X267852Y1095684D01*
X267751Y1095601D01*
X267640Y1095518D01*
X267529Y1095453D01*
X267307Y1095342D01*
X267085Y1095268D01*
X266983Y1095241D01*
X266882Y1095213D01*
X266798Y1095194D01*
X266724Y1095176D01*
X266660Y1095167D01*
X266613D01*
X266586Y1095157D01*
X266576D01*
X266493Y1095962D01*
X266706Y1095980D01*
X266891Y1096017D01*
X267057Y1096073D01*
X267187Y1096137D01*
X267298Y1096193D01*
X267372Y1096248D01*
X267418Y1096285D01*
X267436Y1096304D01*
X267547Y1096442D01*
X267631Y1096590D01*
X267695Y1096748D01*
X267732Y1096886D01*
X267760Y1097016D01*
X267769Y1097127D01*
X267778Y1097164D01*
Y1097219D01*
X267769Y1097413D01*
X267732Y1097589D01*
X267677Y1097737D01*
X267621Y1097866D01*
X267556Y1097968D01*
X267510Y1098033D01*
X267473Y1098079D01*
X267455Y1098098D01*
X267325Y1098208D01*
X267196Y1098292D01*
X267066Y1098356D01*
X266937Y1098393D01*
X266835Y1098421D01*
X266743Y1098430D01*
X266687Y1098440D01*
X266678D01*
X266669D01*
X266502Y1098421D01*
X266327Y1098384D01*
X266170Y1098319D01*
X266022Y1098255D01*
X265902Y1098181D01*
X265800Y1098116D01*
X265763Y1098098D01*
X265735Y1098079D01*
X265726Y1098061D01*
X265717D01*
X265615Y1097987D01*
X265513Y1097894D01*
X265402Y1097792D01*
X265291Y1097681D01*
X265069Y1097450D01*
X264848Y1097219D01*
X264746Y1097099D01*
X264653Y1096997D01*
X264570Y1096896D01*
X264496Y1096812D01*
X264441Y1096748D01*
X264394Y1096692D01*
X264367Y1096655D01*
X264357Y1096646D01*
X264163Y1096415D01*
X263978Y1096202D01*
X263812Y1096027D01*
X263673Y1095888D01*
X263553Y1095768D01*
X263470Y1095684D01*
X263414Y1095638D01*
X263405Y1095620D01*
X263396D01*
X263239Y1095490D01*
X263091Y1095388D01*
X262943Y1095296D01*
X262813Y1095222D01*
X262703Y1095167D01*
X262619Y1095130D01*
X262564Y1095111D01*
X262555Y1095102D01*
X262545D01*
X262444Y1095065D01*
X262351Y1095046D01*
X262259Y1095028D01*
X262176Y1095019D01*
X262102Y1095010D01*
X262046D01*
X262009D01*
X262000D01*
Y1099253D01*
X262758D01*
Y1096100D01*
D02*
G37*
G36*
X263738Y1093521D02*
X263923Y1093391D01*
X264089Y1093271D01*
X264228Y1093151D01*
X264357Y1093049D01*
X264450Y1092957D01*
X264524Y1092883D01*
X264570Y1092837D01*
X264589Y1092818D01*
X264644Y1092744D01*
X264709Y1092661D01*
X264811Y1092495D01*
X264848Y1092421D01*
X264884Y1092365D01*
X264903Y1092328D01*
X264912Y1092310D01*
X264940Y1092476D01*
X264968Y1092633D01*
X265014Y1092772D01*
X265051Y1092911D01*
X265097Y1093031D01*
X265153Y1093142D01*
X265199Y1093244D01*
X265245Y1093336D01*
X265301Y1093410D01*
X265347Y1093484D01*
X265384Y1093539D01*
X265421Y1093586D01*
X265448Y1093623D01*
X265476Y1093650D01*
X265485Y1093660D01*
X265495Y1093669D01*
X265587Y1093743D01*
X265680Y1093817D01*
X265874Y1093928D01*
X266068Y1094002D01*
X266253Y1094057D01*
X266410Y1094094D01*
X266475Y1094103D01*
X266539D01*
X266586Y1094113D01*
X266623D01*
X266641D01*
X266650D01*
X266845Y1094103D01*
X267020Y1094076D01*
X267187Y1094029D01*
X267325Y1093983D01*
X267446Y1093928D01*
X267538Y1093891D01*
X267593Y1093854D01*
X267603Y1093845D01*
X267612D01*
X267760Y1093734D01*
X267889Y1093623D01*
X268000Y1093502D01*
X268083Y1093391D01*
X268148Y1093290D01*
X268185Y1093207D01*
X268213Y1093151D01*
X268222Y1093142D01*
Y1093133D01*
X268250Y1093049D01*
X268278Y1092948D01*
X268324Y1092744D01*
X268352Y1092522D01*
X268379Y1092319D01*
X268389Y1092125D01*
Y1092042D01*
X268398Y1091968D01*
Y1089000D01*
X262000D01*
Y1089850D01*
X264838D01*
Y1090941D01*
X264829Y1091043D01*
Y1091117D01*
X264820Y1091182D01*
X264811Y1091228D01*
Y1091265D01*
X264801Y1091283D01*
Y1091293D01*
X264755Y1091441D01*
X264727Y1091505D01*
X264700Y1091561D01*
X264672Y1091616D01*
X264653Y1091653D01*
X264644Y1091672D01*
X264635Y1091681D01*
X264579Y1091755D01*
X264515Y1091829D01*
X264376Y1091968D01*
X264311Y1092032D01*
X264256Y1092079D01*
X264219Y1092106D01*
X264210Y1092116D01*
X264080Y1092208D01*
X263941Y1092310D01*
X263794Y1092411D01*
X263655Y1092513D01*
X263525Y1092596D01*
X263424Y1092661D01*
X263387Y1092689D01*
X263359Y1092707D01*
X263340Y1092726D01*
X263331D01*
X262000Y1093567D01*
Y1094621D01*
X263738Y1093521D01*
D02*
G37*
G36*
X359929Y432527D02*
X360086Y432518D01*
X360234Y432490D01*
X360373Y432463D01*
X360502Y432426D01*
X360622Y432389D01*
X360733Y432342D01*
X360835Y432296D01*
X360927Y432250D01*
X361001Y432204D01*
X361066Y432167D01*
X361121Y432130D01*
X361168Y432102D01*
X361195Y432074D01*
X361214Y432065D01*
X361223Y432056D01*
X361316Y431963D01*
X361399Y431862D01*
X361482Y431751D01*
X361547Y431640D01*
X361658Y431418D01*
X361732Y431196D01*
X361759Y431094D01*
X361787Y430993D01*
X361806Y430909D01*
X361824Y430835D01*
X361833Y430771D01*
Y430724D01*
X361843Y430697D01*
Y430687D01*
X361038Y430604D01*
X361020Y430817D01*
X360983Y431002D01*
X360927Y431168D01*
X360863Y431298D01*
X360807Y431409D01*
X360752Y431483D01*
X360715Y431529D01*
X360696Y431547D01*
X360557Y431658D01*
X360410Y431741D01*
X360252Y431806D01*
X360114Y431843D01*
X359984Y431871D01*
X359873Y431880D01*
X359836Y431889D01*
X359781D01*
X359587Y431880D01*
X359411Y431843D01*
X359263Y431788D01*
X359134Y431732D01*
X359032Y431667D01*
X358967Y431621D01*
X358921Y431584D01*
X358903Y431566D01*
X358792Y431436D01*
X358708Y431307D01*
X358644Y431177D01*
X358607Y431048D01*
X358579Y430946D01*
X358570Y430854D01*
X358560Y430798D01*
Y430789D01*
Y430780D01*
X358579Y430613D01*
X358616Y430438D01*
X358681Y430281D01*
X358745Y430133D01*
X358819Y430012D01*
X358884Y429911D01*
X358903Y429874D01*
X358921Y429846D01*
X358939Y429837D01*
Y429827D01*
X359013Y429726D01*
X359106Y429624D01*
X359208Y429513D01*
X359319Y429402D01*
X359550Y429180D01*
X359781Y428959D01*
X359901Y428857D01*
X360003Y428764D01*
X360104Y428681D01*
X360188Y428607D01*
X360252Y428552D01*
X360308Y428505D01*
X360345Y428478D01*
X360354Y428468D01*
X360585Y428274D01*
X360798Y428089D01*
X360974Y427923D01*
X361112Y427784D01*
X361232Y427664D01*
X361316Y427581D01*
X361362Y427525D01*
X361380Y427516D01*
Y427507D01*
X361510Y427350D01*
X361611Y427202D01*
X361704Y427054D01*
X361778Y426924D01*
X361833Y426814D01*
X361870Y426730D01*
X361889Y426675D01*
X361898Y426665D01*
Y426656D01*
X361935Y426555D01*
X361954Y426462D01*
X361972Y426370D01*
X361981Y426287D01*
X361991Y426213D01*
Y426157D01*
Y426120D01*
Y426111D01*
X357747D01*
Y426869D01*
X360900D01*
X360789Y427026D01*
X360733Y427091D01*
X360687Y427156D01*
X360641Y427211D01*
X360604Y427248D01*
X360576Y427276D01*
X360567Y427285D01*
X360520Y427331D01*
X360465Y427378D01*
X360336Y427498D01*
X360188Y427636D01*
X360030Y427775D01*
X359883Y427895D01*
X359818Y427951D01*
X359762Y428006D01*
X359716Y428043D01*
X359679Y428071D01*
X359661Y428089D01*
X359651Y428099D01*
X359503Y428228D01*
X359356Y428348D01*
X359226Y428468D01*
X359106Y428570D01*
X358995Y428672D01*
X358903Y428764D01*
X358810Y428848D01*
X358736Y428922D01*
X358662Y428995D01*
X358607Y429051D01*
X358560Y429097D01*
X358514Y429143D01*
X358468Y429199D01*
X358449Y429217D01*
X358320Y429375D01*
X358209Y429513D01*
X358117Y429652D01*
X358043Y429763D01*
X357987Y429865D01*
X357950Y429939D01*
X357932Y429985D01*
X357922Y430003D01*
X357867Y430142D01*
X357830Y430281D01*
X357793Y430410D01*
X357775Y430521D01*
X357765Y430623D01*
X357756Y430697D01*
Y430743D01*
Y430761D01*
X357765Y430900D01*
X357784Y431030D01*
X357802Y431159D01*
X357839Y431270D01*
X357932Y431492D01*
X358024Y431667D01*
X358080Y431751D01*
X358126Y431815D01*
X358172Y431880D01*
X358218Y431926D01*
X358255Y431963D01*
X358274Y432000D01*
X358292Y432010D01*
X358302Y432019D01*
X358403Y432111D01*
X358514Y432194D01*
X358634Y432259D01*
X358755Y432315D01*
X358995Y432407D01*
X359235Y432472D01*
X359337Y432490D01*
X359439Y432509D01*
X359531Y432518D01*
X359605Y432527D01*
X359670Y432537D01*
X359762D01*
X359929Y432527D01*
D02*
G37*
G36*
X354825D02*
X355001Y432509D01*
X355167Y432472D01*
X355324Y432426D01*
X355463Y432361D01*
X355602Y432305D01*
X355722Y432231D01*
X355833Y432167D01*
X355925Y432102D01*
X356018Y432028D01*
X356092Y431973D01*
X356147Y431917D01*
X356194Y431862D01*
X356231Y431825D01*
X356249Y431806D01*
X356258Y431797D01*
X356378Y431630D01*
X356480Y431436D01*
X356573Y431233D01*
X356656Y431020D01*
X356721Y430798D01*
X356776Y430576D01*
X356822Y430345D01*
X356859Y430133D01*
X356887Y429920D01*
X356905Y429726D01*
X356924Y429550D01*
X356933Y429402D01*
Y429273D01*
X356942Y429180D01*
Y429143D01*
Y429116D01*
Y429106D01*
Y429097D01*
X356933Y428801D01*
X356915Y428524D01*
X356887Y428265D01*
X356841Y428025D01*
X356795Y427812D01*
X356748Y427618D01*
X356693Y427442D01*
X356628Y427285D01*
X356573Y427156D01*
X356517Y427035D01*
X356471Y426943D01*
X356415Y426860D01*
X356378Y426795D01*
X356351Y426758D01*
X356332Y426730D01*
X356323Y426721D01*
X356203Y426592D01*
X356073Y426481D01*
X355944Y426388D01*
X355814Y426305D01*
X355676Y426231D01*
X355546Y426175D01*
X355417Y426129D01*
X355287Y426092D01*
X355177Y426065D01*
X355065Y426037D01*
X354973Y426018D01*
X354890Y426009D01*
X354816D01*
X354770Y426000D01*
X354723D01*
X354511Y426009D01*
X354317Y426046D01*
X354141Y426083D01*
X353984Y426138D01*
X353864Y426185D01*
X353771Y426231D01*
X353734Y426240D01*
X353706Y426259D01*
X353697Y426268D01*
X353688D01*
X353531Y426379D01*
X353383Y426508D01*
X353263Y426638D01*
X353161Y426767D01*
X353078Y426887D01*
X353022Y426980D01*
X353004Y427017D01*
X352985Y427045D01*
X352976Y427054D01*
Y427063D01*
X352884Y427257D01*
X352819Y427461D01*
X352773Y427646D01*
X352745Y427821D01*
X352717Y427969D01*
Y428025D01*
X352708Y428080D01*
Y428126D01*
Y428154D01*
Y428173D01*
Y428182D01*
X352717Y428348D01*
X352736Y428505D01*
X352763Y428663D01*
X352791Y428801D01*
X352837Y428931D01*
X352884Y429060D01*
X352930Y429171D01*
X352985Y429273D01*
X353041Y429365D01*
X353087Y429449D01*
X353133Y429513D01*
X353179Y429578D01*
X353207Y429624D01*
X353235Y429652D01*
X353253Y429670D01*
X353263Y429680D01*
X353364Y429781D01*
X353475Y429874D01*
X353596Y429948D01*
X353706Y430012D01*
X353817Y430077D01*
X353928Y430123D01*
X354141Y430188D01*
X354233Y430216D01*
X354326Y430234D01*
X354400Y430244D01*
X354474Y430253D01*
X354529Y430262D01*
X354603D01*
X354770Y430253D01*
X354927Y430225D01*
X355075Y430197D01*
X355204Y430160D01*
X355315Y430114D01*
X355398Y430086D01*
X355454Y430059D01*
X355463Y430049D01*
X355472D01*
X355620Y429957D01*
X355750Y429855D01*
X355870Y429754D01*
X355962Y429643D01*
X356046Y429550D01*
X356110Y429476D01*
X356147Y429421D01*
X356157Y429412D01*
Y429578D01*
X356147Y429744D01*
X356138Y429892D01*
X356119Y430040D01*
X356110Y430170D01*
X356092Y430290D01*
X356073Y430401D01*
X356046Y430503D01*
X356027Y430595D01*
X356009Y430669D01*
X355990Y430734D01*
X355981Y430789D01*
X355962Y430826D01*
X355953Y430854D01*
X355944Y430872D01*
Y430882D01*
X355851Y431066D01*
X355759Y431233D01*
X355657Y431362D01*
X355565Y431473D01*
X355482Y431566D01*
X355417Y431630D01*
X355371Y431667D01*
X355352Y431677D01*
X355241Y431751D01*
X355130Y431797D01*
X355019Y431834D01*
X354908Y431862D01*
X354825Y431880D01*
X354751Y431889D01*
X354687D01*
X354520Y431871D01*
X354363Y431834D01*
X354233Y431778D01*
X354113Y431723D01*
X354021Y431658D01*
X353956Y431603D01*
X353919Y431566D01*
X353901Y431547D01*
X353836Y431464D01*
X353771Y431362D01*
X353716Y431251D01*
X353679Y431140D01*
X353642Y431039D01*
X353614Y430956D01*
X353605Y430900D01*
X353596Y430891D01*
Y430882D01*
X352810Y430946D01*
X352865Y431205D01*
X352948Y431436D01*
X353041Y431640D01*
X353142Y431806D01*
X353244Y431936D01*
X353281Y431991D01*
X353327Y432037D01*
X353355Y432065D01*
X353383Y432093D01*
X353392Y432102D01*
X353401Y432111D01*
X353494Y432185D01*
X353596Y432250D01*
X353799Y432361D01*
X354002Y432435D01*
X354196Y432481D01*
X354372Y432518D01*
X354446Y432527D01*
X354511D01*
X354566Y432537D01*
X354640D01*
X354825Y432527D01*
D02*
G37*
G36*
X368000Y426111D02*
X367150D01*
Y428949D01*
X366059D01*
X365957Y428940D01*
X365883D01*
X365818Y428931D01*
X365772Y428922D01*
X365735D01*
X365717Y428912D01*
X365707D01*
X365559Y428866D01*
X365495Y428838D01*
X365439Y428811D01*
X365384Y428783D01*
X365347Y428764D01*
X365328Y428755D01*
X365319Y428746D01*
X365245Y428690D01*
X365171Y428626D01*
X365032Y428487D01*
X364968Y428422D01*
X364921Y428367D01*
X364894Y428330D01*
X364884Y428321D01*
X364792Y428191D01*
X364690Y428052D01*
X364589Y427905D01*
X364487Y427766D01*
X364404Y427636D01*
X364339Y427535D01*
X364311Y427498D01*
X364293Y427470D01*
X364274Y427451D01*
Y427442D01*
X363433Y426111D01*
X362379D01*
X363479Y427849D01*
X363609Y428034D01*
X363729Y428200D01*
X363849Y428339D01*
X363951Y428468D01*
X364043Y428561D01*
X364117Y428635D01*
X364163Y428681D01*
X364182Y428700D01*
X364256Y428755D01*
X364339Y428820D01*
X364505Y428922D01*
X364579Y428959D01*
X364635Y428995D01*
X364672Y429014D01*
X364690Y429023D01*
X364524Y429051D01*
X364367Y429079D01*
X364228Y429125D01*
X364089Y429162D01*
X363969Y429208D01*
X363858Y429264D01*
X363756Y429310D01*
X363664Y429356D01*
X363590Y429412D01*
X363516Y429458D01*
X363461Y429495D01*
X363414Y429532D01*
X363377Y429559D01*
X363350Y429587D01*
X363340Y429596D01*
X363331Y429606D01*
X363257Y429698D01*
X363183Y429791D01*
X363072Y429985D01*
X362998Y430179D01*
X362943Y430364D01*
X362906Y430521D01*
X362897Y430586D01*
Y430650D01*
X362887Y430697D01*
Y430734D01*
Y430752D01*
Y430761D01*
X362897Y430956D01*
X362924Y431131D01*
X362971Y431298D01*
X363017Y431436D01*
X363072Y431557D01*
X363109Y431649D01*
X363146Y431704D01*
X363155Y431714D01*
Y431723D01*
X363266Y431871D01*
X363377Y432000D01*
X363498Y432111D01*
X363609Y432194D01*
X363710Y432259D01*
X363793Y432296D01*
X363849Y432324D01*
X363858Y432333D01*
X363867D01*
X363951Y432361D01*
X364052Y432389D01*
X364256Y432435D01*
X364478Y432463D01*
X364681Y432490D01*
X364875Y432500D01*
X364958D01*
X365032Y432509D01*
X368000D01*
Y426111D01*
D02*
G37*
G36*
X482929Y294527D02*
X483086Y294518D01*
X483234Y294490D01*
X483372Y294463D01*
X483502Y294426D01*
X483622Y294389D01*
X483733Y294342D01*
X483835Y294296D01*
X483927Y294250D01*
X484001Y294204D01*
X484066Y294167D01*
X484121Y294130D01*
X484168Y294102D01*
X484195Y294074D01*
X484214Y294065D01*
X484223Y294056D01*
X484316Y293963D01*
X484399Y293862D01*
X484482Y293751D01*
X484547Y293640D01*
X484658Y293418D01*
X484732Y293196D01*
X484759Y293094D01*
X484787Y292992D01*
X484806Y292909D01*
X484824Y292835D01*
X484833Y292771D01*
Y292724D01*
X484843Y292697D01*
Y292687D01*
X484038Y292604D01*
X484020Y292817D01*
X483983Y293002D01*
X483927Y293168D01*
X483862Y293298D01*
X483807Y293409D01*
X483752Y293482D01*
X483715Y293529D01*
X483696Y293547D01*
X483557Y293658D01*
X483410Y293741D01*
X483252Y293806D01*
X483114Y293843D01*
X482984Y293871D01*
X482873Y293880D01*
X482836Y293889D01*
X482781D01*
X482587Y293880D01*
X482411Y293843D01*
X482263Y293788D01*
X482134Y293732D01*
X482032Y293667D01*
X481967Y293621D01*
X481921Y293584D01*
X481903Y293566D01*
X481791Y293436D01*
X481708Y293307D01*
X481644Y293177D01*
X481607Y293048D01*
X481579Y292946D01*
X481570Y292854D01*
X481560Y292798D01*
Y292789D01*
Y292780D01*
X481579Y292613D01*
X481616Y292438D01*
X481681Y292281D01*
X481745Y292133D01*
X481819Y292013D01*
X481884Y291911D01*
X481903Y291874D01*
X481921Y291846D01*
X481939Y291837D01*
Y291828D01*
X482013Y291726D01*
X482106Y291624D01*
X482208Y291513D01*
X482318Y291402D01*
X482550Y291180D01*
X482781Y290958D01*
X482901Y290857D01*
X483003Y290764D01*
X483104Y290681D01*
X483188Y290607D01*
X483252Y290552D01*
X483308Y290505D01*
X483345Y290478D01*
X483354Y290469D01*
X483585Y290274D01*
X483798Y290089D01*
X483974Y289923D01*
X484112Y289784D01*
X484232Y289664D01*
X484316Y289581D01*
X484362Y289525D01*
X484380Y289516D01*
Y289507D01*
X484510Y289350D01*
X484611Y289202D01*
X484704Y289054D01*
X484778Y288924D01*
X484833Y288813D01*
X484870Y288730D01*
X484889Y288675D01*
X484898Y288666D01*
Y288656D01*
X484935Y288555D01*
X484953Y288462D01*
X484972Y288370D01*
X484981Y288286D01*
X484991Y288213D01*
Y288157D01*
Y288120D01*
Y288111D01*
X480747D01*
Y288869D01*
X483899D01*
X483789Y289026D01*
X483733Y289091D01*
X483687Y289156D01*
X483641Y289211D01*
X483604Y289248D01*
X483576Y289276D01*
X483567Y289285D01*
X483520Y289331D01*
X483465Y289377D01*
X483335Y289498D01*
X483188Y289636D01*
X483030Y289775D01*
X482882Y289895D01*
X482818Y289951D01*
X482762Y290006D01*
X482716Y290043D01*
X482679Y290071D01*
X482661Y290089D01*
X482651Y290099D01*
X482503Y290228D01*
X482355Y290348D01*
X482226Y290469D01*
X482106Y290570D01*
X481995Y290672D01*
X481903Y290764D01*
X481810Y290847D01*
X481736Y290921D01*
X481662Y290996D01*
X481607Y291051D01*
X481560Y291097D01*
X481514Y291143D01*
X481468Y291199D01*
X481449Y291217D01*
X481320Y291374D01*
X481209Y291513D01*
X481117Y291652D01*
X481043Y291763D01*
X480987Y291864D01*
X480950Y291938D01*
X480932Y291985D01*
X480922Y292003D01*
X480867Y292142D01*
X480830Y292281D01*
X480793Y292410D01*
X480774Y292521D01*
X480765Y292623D01*
X480756Y292697D01*
Y292743D01*
Y292761D01*
X480765Y292900D01*
X480784Y293029D01*
X480802Y293159D01*
X480839Y293270D01*
X480932Y293492D01*
X481024Y293667D01*
X481080Y293751D01*
X481126Y293815D01*
X481172Y293880D01*
X481218Y293926D01*
X481255Y293963D01*
X481274Y294000D01*
X481292Y294009D01*
X481301Y294019D01*
X481403Y294111D01*
X481514Y294194D01*
X481634Y294259D01*
X481754Y294315D01*
X481995Y294407D01*
X482235Y294472D01*
X482337Y294490D01*
X482439Y294509D01*
X482531Y294518D01*
X482605Y294527D01*
X482670Y294536D01*
X482762D01*
X482929Y294527D01*
D02*
G37*
G36*
X479767Y291134D02*
X479027Y291032D01*
X478962Y291134D01*
X478879Y291217D01*
X478805Y291301D01*
X478731Y291365D01*
X478657Y291411D01*
X478602Y291458D01*
X478565Y291476D01*
X478556Y291486D01*
X478435Y291541D01*
X478315Y291587D01*
X478204Y291615D01*
X478093Y291643D01*
X478001Y291652D01*
X477927Y291661D01*
X477751D01*
X477640Y291643D01*
X477446Y291596D01*
X477280Y291532D01*
X477132Y291467D01*
X477021Y291393D01*
X476938Y291328D01*
X476891Y291282D01*
X476873Y291273D01*
Y291264D01*
X476743Y291106D01*
X476651Y290940D01*
X476586Y290764D01*
X476540Y290589D01*
X476512Y290441D01*
X476503Y290376D01*
Y290320D01*
X476494Y290274D01*
Y290237D01*
Y290219D01*
Y290210D01*
Y290080D01*
X476512Y289960D01*
X476558Y289729D01*
X476623Y289535D01*
X476688Y289377D01*
X476762Y289248D01*
X476827Y289146D01*
X476854Y289119D01*
X476873Y289091D01*
X476882Y289082D01*
X476891Y289072D01*
X476965Y288998D01*
X477039Y288934D01*
X477206Y288823D01*
X477363Y288749D01*
X477520Y288703D01*
X477649Y288666D01*
X477760Y288656D01*
X477797Y288647D01*
X477853D01*
X478029Y288656D01*
X478186Y288693D01*
X478324Y288739D01*
X478435Y288795D01*
X478537Y288850D01*
X478611Y288897D01*
X478648Y288934D01*
X478666Y288943D01*
X478778Y289072D01*
X478870Y289211D01*
X478944Y289368D01*
X478999Y289507D01*
X479036Y289646D01*
X479064Y289747D01*
X479073Y289793D01*
X479083Y289821D01*
Y289840D01*
Y289849D01*
X479905Y289784D01*
X479887Y289636D01*
X479859Y289498D01*
X479776Y289239D01*
X479674Y289017D01*
X479619Y288915D01*
X479563Y288832D01*
X479517Y288749D01*
X479462Y288675D01*
X479415Y288619D01*
X479369Y288573D01*
X479332Y288536D01*
X479314Y288499D01*
X479295Y288490D01*
X479286Y288481D01*
X479175Y288397D01*
X479064Y288323D01*
X478944Y288259D01*
X478824Y288203D01*
X478592Y288120D01*
X478361Y288065D01*
X478260Y288037D01*
X478158Y288028D01*
X478075Y288018D01*
X478001Y288009D01*
X477936Y288000D01*
X477853D01*
X477659Y288009D01*
X477474Y288037D01*
X477298Y288074D01*
X477141Y288120D01*
X476993Y288185D01*
X476854Y288249D01*
X476725Y288314D01*
X476614Y288388D01*
X476512Y288462D01*
X476420Y288527D01*
X476346Y288601D01*
X476281Y288656D01*
X476235Y288703D01*
X476198Y288739D01*
X476179Y288767D01*
X476170Y288776D01*
X476078Y288897D01*
X476004Y289026D01*
X475930Y289146D01*
X475874Y289276D01*
X475782Y289525D01*
X475726Y289766D01*
X475708Y289867D01*
X475689Y289969D01*
X475680Y290052D01*
X475671Y290126D01*
X475662Y290191D01*
Y290237D01*
Y290265D01*
Y290274D01*
X475671Y290441D01*
X475689Y290598D01*
X475717Y290755D01*
X475754Y290894D01*
X475800Y291023D01*
X475847Y291153D01*
X475902Y291264D01*
X475948Y291365D01*
X476004Y291458D01*
X476059Y291541D01*
X476105Y291606D01*
X476152Y291670D01*
X476189Y291717D01*
X476216Y291744D01*
X476235Y291763D01*
X476244Y291772D01*
X476355Y291874D01*
X476466Y291966D01*
X476586Y292040D01*
X476706Y292105D01*
X476827Y292170D01*
X476947Y292216D01*
X477169Y292281D01*
X477270Y292308D01*
X477363Y292327D01*
X477446Y292336D01*
X477520Y292345D01*
X477575Y292355D01*
X477779D01*
X477890Y292336D01*
X478112Y292290D01*
X478315Y292225D01*
X478500Y292151D01*
X478648Y292077D01*
X478713Y292040D01*
X478768Y292013D01*
X478814Y291985D01*
X478842Y291966D01*
X478861Y291957D01*
X478870Y291948D01*
X478528Y293677D01*
X475967D01*
Y294426D01*
X479147D01*
X479767Y291134D01*
D02*
G37*
G36*
X491000Y288111D02*
X490149D01*
Y290949D01*
X489059D01*
X488957Y290940D01*
X488883D01*
X488818Y290931D01*
X488772Y290921D01*
X488735D01*
X488717Y290912D01*
X488707D01*
X488559Y290866D01*
X488495Y290838D01*
X488439Y290811D01*
X488384Y290783D01*
X488347Y290764D01*
X488328Y290755D01*
X488319Y290746D01*
X488245Y290690D01*
X488171Y290626D01*
X488032Y290487D01*
X487968Y290422D01*
X487921Y290367D01*
X487894Y290330D01*
X487884Y290320D01*
X487792Y290191D01*
X487690Y290052D01*
X487589Y289904D01*
X487487Y289766D01*
X487404Y289636D01*
X487339Y289535D01*
X487311Y289498D01*
X487293Y289470D01*
X487274Y289451D01*
Y289442D01*
X486433Y288111D01*
X485379D01*
X486479Y289849D01*
X486609Y290034D01*
X486729Y290200D01*
X486849Y290339D01*
X486951Y290469D01*
X487043Y290561D01*
X487117Y290635D01*
X487163Y290681D01*
X487182Y290700D01*
X487256Y290755D01*
X487339Y290820D01*
X487505Y290921D01*
X487579Y290958D01*
X487635Y290996D01*
X487672Y291014D01*
X487690Y291023D01*
X487524Y291051D01*
X487367Y291079D01*
X487228Y291125D01*
X487089Y291162D01*
X486969Y291208D01*
X486858Y291264D01*
X486756Y291310D01*
X486664Y291356D01*
X486590Y291411D01*
X486516Y291458D01*
X486460Y291495D01*
X486414Y291532D01*
X486377Y291559D01*
X486350Y291587D01*
X486340Y291596D01*
X486331Y291606D01*
X486257Y291698D01*
X486183Y291791D01*
X486072Y291985D01*
X485998Y292179D01*
X485943Y292364D01*
X485906Y292521D01*
X485897Y292586D01*
Y292650D01*
X485887Y292697D01*
Y292734D01*
Y292752D01*
Y292761D01*
X485897Y292955D01*
X485924Y293131D01*
X485970Y293298D01*
X486017Y293436D01*
X486072Y293556D01*
X486109Y293649D01*
X486146Y293704D01*
X486155Y293714D01*
Y293723D01*
X486266Y293871D01*
X486377Y294000D01*
X486497Y294111D01*
X486609Y294194D01*
X486710Y294259D01*
X486793Y294296D01*
X486849Y294324D01*
X486858Y294333D01*
X486867D01*
X486951Y294361D01*
X487052Y294389D01*
X487256Y294435D01*
X487478Y294463D01*
X487681Y294490D01*
X487875Y294499D01*
X487958D01*
X488032Y294509D01*
X491000D01*
Y288111D01*
D02*
G37*
G36*
X515000Y543149D02*
X512162D01*
Y542059D01*
X512171Y541957D01*
Y541883D01*
X512180Y541818D01*
X512189Y541772D01*
Y541735D01*
X512199Y541716D01*
Y541707D01*
X512245Y541559D01*
X512273Y541495D01*
X512300Y541439D01*
X512328Y541384D01*
X512347Y541347D01*
X512356Y541328D01*
X512365Y541319D01*
X512421Y541245D01*
X512485Y541171D01*
X512624Y541032D01*
X512689Y540968D01*
X512744Y540921D01*
X512781Y540894D01*
X512790Y540884D01*
X512920Y540792D01*
X513059Y540690D01*
X513206Y540588D01*
X513345Y540487D01*
X513475Y540404D01*
X513576Y540339D01*
X513613Y540311D01*
X513641Y540293D01*
X513660Y540274D01*
X513669D01*
X515000Y539433D01*
Y538379D01*
X513262Y539479D01*
X513077Y539608D01*
X512911Y539729D01*
X512772Y539849D01*
X512643Y539951D01*
X512550Y540043D01*
X512476Y540117D01*
X512430Y540163D01*
X512411Y540182D01*
X512356Y540256D01*
X512291Y540339D01*
X512189Y540505D01*
X512152Y540579D01*
X512116Y540635D01*
X512097Y540672D01*
X512088Y540690D01*
X512060Y540524D01*
X512032Y540367D01*
X511986Y540228D01*
X511949Y540089D01*
X511903Y539969D01*
X511847Y539858D01*
X511801Y539756D01*
X511755Y539664D01*
X511699Y539590D01*
X511653Y539516D01*
X511616Y539460D01*
X511579Y539414D01*
X511552Y539377D01*
X511524Y539350D01*
X511515Y539340D01*
X511505Y539331D01*
X511413Y539257D01*
X511320Y539183D01*
X511126Y539072D01*
X510932Y538998D01*
X510747Y538943D01*
X510590Y538906D01*
X510525Y538897D01*
X510461D01*
X510414Y538887D01*
X510377D01*
X510359D01*
X510350D01*
X510155Y538897D01*
X509980Y538924D01*
X509813Y538970D01*
X509675Y539017D01*
X509554Y539072D01*
X509462Y539109D01*
X509407Y539146D01*
X509397Y539155D01*
X509388D01*
X509240Y539266D01*
X509111Y539377D01*
X509000Y539497D01*
X508917Y539608D01*
X508852Y539710D01*
X508815Y539793D01*
X508787Y539849D01*
X508778Y539858D01*
Y539867D01*
X508750Y539951D01*
X508722Y540052D01*
X508676Y540256D01*
X508648Y540478D01*
X508621Y540681D01*
X508611Y540875D01*
Y540958D01*
X508602Y541032D01*
Y544000D01*
X515000D01*
Y543149D01*
D02*
G37*
G36*
Y533747D02*
X514242D01*
Y536899D01*
X514085Y536789D01*
X514020Y536733D01*
X513955Y536687D01*
X513900Y536641D01*
X513863Y536604D01*
X513835Y536576D01*
X513826Y536567D01*
X513780Y536520D01*
X513733Y536465D01*
X513613Y536335D01*
X513475Y536188D01*
X513336Y536030D01*
X513216Y535882D01*
X513160Y535818D01*
X513105Y535762D01*
X513068Y535716D01*
X513040Y535679D01*
X513022Y535661D01*
X513012Y535651D01*
X512883Y535503D01*
X512763Y535355D01*
X512643Y535226D01*
X512541Y535106D01*
X512439Y534995D01*
X512347Y534902D01*
X512263Y534810D01*
X512189Y534736D01*
X512116Y534662D01*
X512060Y534607D01*
X512014Y534560D01*
X511968Y534514D01*
X511912Y534468D01*
X511894Y534449D01*
X511736Y534320D01*
X511598Y534209D01*
X511459Y534117D01*
X511348Y534043D01*
X511246Y533987D01*
X511172Y533950D01*
X511126Y533932D01*
X511108Y533922D01*
X510969Y533867D01*
X510830Y533830D01*
X510701Y533793D01*
X510590Y533774D01*
X510488Y533765D01*
X510414Y533756D01*
X510368D01*
X510350D01*
X510211Y533765D01*
X510081Y533784D01*
X509952Y533802D01*
X509841Y533839D01*
X509619Y533932D01*
X509444Y534024D01*
X509360Y534080D01*
X509296Y534126D01*
X509231Y534172D01*
X509185Y534218D01*
X509148Y534255D01*
X509111Y534274D01*
X509101Y534292D01*
X509092Y534301D01*
X509000Y534403D01*
X508917Y534514D01*
X508852Y534634D01*
X508796Y534754D01*
X508704Y534995D01*
X508639Y535235D01*
X508621Y535337D01*
X508602Y535439D01*
X508593Y535531D01*
X508584Y535605D01*
X508574Y535670D01*
Y535762D01*
X508584Y535929D01*
X508593Y536086D01*
X508621Y536234D01*
X508648Y536372D01*
X508685Y536502D01*
X508722Y536622D01*
X508769Y536733D01*
X508815Y536835D01*
X508861Y536927D01*
X508907Y537001D01*
X508944Y537066D01*
X508981Y537121D01*
X509009Y537168D01*
X509037Y537195D01*
X509046Y537214D01*
X509055Y537223D01*
X509148Y537316D01*
X509249Y537399D01*
X509360Y537482D01*
X509471Y537547D01*
X509693Y537658D01*
X509915Y537732D01*
X510017Y537759D01*
X510118Y537787D01*
X510202Y537806D01*
X510276Y537824D01*
X510340Y537833D01*
X510387D01*
X510414Y537843D01*
X510424D01*
X510507Y537038D01*
X510294Y537020D01*
X510109Y536983D01*
X509943Y536927D01*
X509813Y536862D01*
X509702Y536807D01*
X509628Y536752D01*
X509582Y536715D01*
X509564Y536696D01*
X509453Y536557D01*
X509370Y536409D01*
X509305Y536252D01*
X509268Y536114D01*
X509240Y535984D01*
X509231Y535873D01*
X509222Y535836D01*
Y535781D01*
X509231Y535587D01*
X509268Y535411D01*
X509323Y535263D01*
X509379Y535134D01*
X509444Y535032D01*
X509490Y534967D01*
X509527Y534921D01*
X509545Y534902D01*
X509675Y534791D01*
X509804Y534708D01*
X509934Y534644D01*
X510063Y534607D01*
X510165Y534579D01*
X510257Y534570D01*
X510313Y534560D01*
X510322D01*
X510331D01*
X510498Y534579D01*
X510673Y534616D01*
X510830Y534681D01*
X510978Y534745D01*
X511099Y534819D01*
X511200Y534884D01*
X511237Y534902D01*
X511265Y534921D01*
X511274Y534939D01*
X511283D01*
X511385Y535013D01*
X511487Y535106D01*
X511598Y535208D01*
X511709Y535318D01*
X511931Y535550D01*
X512152Y535781D01*
X512254Y535901D01*
X512347Y536003D01*
X512430Y536104D01*
X512504Y536188D01*
X512559Y536252D01*
X512606Y536308D01*
X512633Y536345D01*
X512643Y536354D01*
X512837Y536585D01*
X513022Y536798D01*
X513188Y536973D01*
X513327Y537112D01*
X513447Y537232D01*
X513530Y537316D01*
X513586Y537362D01*
X513595Y537380D01*
X513604D01*
X513761Y537510D01*
X513909Y537611D01*
X514057Y537704D01*
X514187Y537778D01*
X514297Y537833D01*
X514381Y537870D01*
X514436Y537889D01*
X514445Y537898D01*
X514455D01*
X514556Y537935D01*
X514649Y537953D01*
X514741Y537972D01*
X514824Y537981D01*
X514898Y537990D01*
X514954D01*
X514991D01*
X515000D01*
Y533747D01*
D02*
G37*
G36*
X513465Y530391D02*
X515000D01*
Y529605D01*
X513465D01*
Y528736D01*
X512744D01*
Y529605D01*
X508602D01*
Y530243D01*
X512744Y533173D01*
X513465D01*
Y530391D01*
D02*
G37*
G36*
X491219Y559283D02*
X491422Y559246D01*
X491598Y559190D01*
X491746Y559135D01*
X491866Y559080D01*
X491959Y559024D01*
X492014Y558987D01*
X492032Y558978D01*
X492171Y558848D01*
X492291Y558710D01*
X492384Y558562D01*
X492458Y558414D01*
X492513Y558284D01*
X492550Y558183D01*
X492559Y558146D01*
X492569Y558118D01*
X492578Y558099D01*
Y558090D01*
X492661Y558247D01*
X492744Y558377D01*
X492837Y558488D01*
X492920Y558580D01*
X492994Y558654D01*
X493059Y558710D01*
X493096Y558737D01*
X493114Y558747D01*
X493244Y558821D01*
X493373Y558876D01*
X493503Y558922D01*
X493623Y558950D01*
X493724Y558969D01*
X493798Y558978D01*
X493854D01*
X493872D01*
X494030Y558969D01*
X494187Y558941D01*
X494325Y558904D01*
X494445Y558858D01*
X494547Y558811D01*
X494630Y558774D01*
X494677Y558747D01*
X494695Y558737D01*
X494834Y558645D01*
X494954Y558534D01*
X495056Y558423D01*
X495148Y558312D01*
X495213Y558220D01*
X495268Y558136D01*
X495296Y558081D01*
X495305Y558072D01*
Y558062D01*
X495379Y557896D01*
X495435Y557730D01*
X495481Y557563D01*
X495509Y557415D01*
X495527Y557295D01*
X495536Y557193D01*
Y556962D01*
X495518Y556833D01*
X495472Y556583D01*
X495398Y556371D01*
X495324Y556186D01*
X495278Y556102D01*
X495241Y556038D01*
X495204Y555973D01*
X495167Y555927D01*
X495139Y555890D01*
X495120Y555862D01*
X495111Y555844D01*
X495102Y555834D01*
X494926Y555659D01*
X494732Y555520D01*
X494529Y555409D01*
X494325Y555317D01*
X494150Y555261D01*
X494076Y555233D01*
X494011Y555215D01*
X493955Y555205D01*
X493918Y555196D01*
X493891Y555187D01*
X493881D01*
X493743Y555973D01*
X493946Y556010D01*
X494122Y556065D01*
X494270Y556130D01*
X494390Y556195D01*
X494482Y556259D01*
X494547Y556315D01*
X494593Y556352D01*
X494603Y556361D01*
X494695Y556481D01*
X494769Y556611D01*
X494815Y556731D01*
X494852Y556851D01*
X494871Y556962D01*
X494889Y557045D01*
Y557119D01*
X494880Y557286D01*
X494843Y557434D01*
X494797Y557563D01*
X494751Y557674D01*
X494695Y557757D01*
X494649Y557822D01*
X494612Y557868D01*
X494603Y557878D01*
X494492Y557979D01*
X494372Y558053D01*
X494251Y558099D01*
X494140Y558136D01*
X494039Y558155D01*
X493965Y558173D01*
X493909D01*
X493900D01*
X493891D01*
X493789D01*
X493697Y558155D01*
X493539Y558109D01*
X493401Y558044D01*
X493281Y557970D01*
X493197Y557896D01*
X493133Y557831D01*
X493096Y557785D01*
X493086Y557776D01*
Y557767D01*
X493003Y557609D01*
X492938Y557462D01*
X492892Y557304D01*
X492864Y557166D01*
X492846Y557045D01*
X492827Y556944D01*
Y556824D01*
X492837Y556786D01*
Y556740D01*
X492143Y556648D01*
X492171Y556768D01*
X492190Y556879D01*
X492208Y556972D01*
X492217Y557055D01*
X492227Y557119D01*
Y557203D01*
X492208Y557397D01*
X492171Y557572D01*
X492116Y557730D01*
X492051Y557859D01*
X491986Y557961D01*
X491931Y558035D01*
X491894Y558081D01*
X491875Y558099D01*
X491737Y558220D01*
X491589Y558312D01*
X491441Y558377D01*
X491293Y558414D01*
X491173Y558442D01*
X491071Y558451D01*
X491034Y558460D01*
X491006D01*
X490988D01*
X490978D01*
X490775Y558442D01*
X490590Y558395D01*
X490433Y558340D01*
X490294Y558266D01*
X490183Y558192D01*
X490100Y558136D01*
X490045Y558090D01*
X490026Y558072D01*
X489897Y557924D01*
X489804Y557767D01*
X489739Y557609D01*
X489693Y557462D01*
X489665Y557332D01*
X489656Y557230D01*
X489647Y557193D01*
Y557138D01*
X489656Y556972D01*
X489693Y556814D01*
X489739Y556676D01*
X489795Y556565D01*
X489841Y556472D01*
X489887Y556398D01*
X489924Y556361D01*
X489934Y556343D01*
X490063Y556232D01*
X490211Y556139D01*
X490368Y556056D01*
X490535Y555991D01*
X490673Y555945D01*
X490738Y555927D01*
X490793Y555918D01*
X490840Y555908D01*
X490877Y555899D01*
X490895Y555890D01*
X490905D01*
X490803Y555104D01*
X490655Y555122D01*
X490516Y555150D01*
X490257Y555233D01*
X490035Y555335D01*
X489943Y555391D01*
X489851Y555446D01*
X489767Y555501D01*
X489702Y555557D01*
X489638Y555603D01*
X489592Y555649D01*
X489555Y555677D01*
X489527Y555705D01*
X489508Y555723D01*
X489499Y555732D01*
X489416Y555844D01*
X489333Y555954D01*
X489268Y556065D01*
X489212Y556186D01*
X489120Y556417D01*
X489065Y556639D01*
X489046Y556740D01*
X489028Y556833D01*
X489018Y556916D01*
X489009Y556990D01*
X489000Y557045D01*
Y557129D01*
X489009Y557304D01*
X489028Y557462D01*
X489055Y557619D01*
X489092Y557767D01*
X489138Y557905D01*
X489185Y558026D01*
X489240Y558146D01*
X489296Y558247D01*
X489342Y558349D01*
X489397Y558432D01*
X489444Y558506D01*
X489490Y558562D01*
X489527Y558608D01*
X489555Y558645D01*
X489573Y558663D01*
X489582Y558673D01*
X489693Y558784D01*
X489813Y558876D01*
X489934Y558959D01*
X490054Y559033D01*
X490165Y559089D01*
X490285Y559144D01*
X490507Y559218D01*
X490609Y559237D01*
X490701Y559255D01*
X490784Y559274D01*
X490858Y559283D01*
X490914Y559292D01*
X490960D01*
X490988D01*
X490997D01*
X491219Y559283D01*
D02*
G37*
G36*
X489869Y551101D02*
X490026Y551211D01*
X490091Y551267D01*
X490156Y551313D01*
X490211Y551359D01*
X490248Y551396D01*
X490276Y551424D01*
X490285Y551433D01*
X490331Y551480D01*
X490378Y551535D01*
X490498Y551665D01*
X490636Y551812D01*
X490775Y551970D01*
X490895Y552118D01*
X490951Y552182D01*
X491006Y552238D01*
X491043Y552284D01*
X491071Y552321D01*
X491089Y552339D01*
X491099Y552349D01*
X491228Y552497D01*
X491348Y552645D01*
X491468Y552774D01*
X491570Y552894D01*
X491672Y553005D01*
X491764Y553097D01*
X491847Y553190D01*
X491922Y553264D01*
X491995Y553338D01*
X492051Y553393D01*
X492097Y553440D01*
X492143Y553486D01*
X492199Y553532D01*
X492217Y553551D01*
X492374Y553680D01*
X492513Y553791D01*
X492652Y553883D01*
X492763Y553957D01*
X492864Y554013D01*
X492938Y554050D01*
X492985Y554068D01*
X493003Y554078D01*
X493142Y554133D01*
X493281Y554170D01*
X493410Y554207D01*
X493521Y554226D01*
X493623Y554235D01*
X493697Y554244D01*
X493743D01*
X493761D01*
X493900Y554235D01*
X494030Y554216D01*
X494159Y554198D01*
X494270Y554161D01*
X494492Y554068D01*
X494667Y553976D01*
X494751Y553920D01*
X494815Y553874D01*
X494880Y553828D01*
X494926Y553782D01*
X494963Y553745D01*
X495000Y553726D01*
X495009Y553708D01*
X495019Y553699D01*
X495111Y553597D01*
X495194Y553486D01*
X495259Y553366D01*
X495315Y553246D01*
X495407Y553005D01*
X495472Y552765D01*
X495490Y552663D01*
X495509Y552561D01*
X495518Y552469D01*
X495527Y552395D01*
X495536Y552330D01*
Y552238D01*
X495527Y552071D01*
X495518Y551914D01*
X495490Y551766D01*
X495462Y551628D01*
X495426Y551498D01*
X495389Y551378D01*
X495342Y551267D01*
X495296Y551165D01*
X495250Y551073D01*
X495204Y550999D01*
X495167Y550934D01*
X495130Y550879D01*
X495102Y550832D01*
X495074Y550805D01*
X495065Y550786D01*
X495056Y550777D01*
X494963Y550684D01*
X494862Y550601D01*
X494751Y550518D01*
X494640Y550453D01*
X494418Y550342D01*
X494196Y550268D01*
X494094Y550241D01*
X493993Y550213D01*
X493909Y550194D01*
X493835Y550176D01*
X493771Y550167D01*
X493724D01*
X493697Y550157D01*
X493687D01*
X493604Y550962D01*
X493817Y550980D01*
X494002Y551017D01*
X494168Y551073D01*
X494298Y551138D01*
X494408Y551193D01*
X494482Y551248D01*
X494529Y551285D01*
X494547Y551304D01*
X494658Y551443D01*
X494741Y551590D01*
X494806Y551748D01*
X494843Y551886D01*
X494871Y552016D01*
X494880Y552127D01*
X494889Y552164D01*
Y552219D01*
X494880Y552413D01*
X494843Y552589D01*
X494788Y552737D01*
X494732Y552866D01*
X494667Y552968D01*
X494621Y553033D01*
X494584Y553079D01*
X494566Y553097D01*
X494436Y553209D01*
X494307Y553292D01*
X494177Y553356D01*
X494048Y553393D01*
X493946Y553421D01*
X493854Y553430D01*
X493798Y553440D01*
X493789D01*
X493780D01*
X493613Y553421D01*
X493438Y553384D01*
X493281Y553319D01*
X493133Y553255D01*
X493013Y553181D01*
X492911Y553116D01*
X492874Y553097D01*
X492846Y553079D01*
X492837Y553061D01*
X492827D01*
X492726Y552987D01*
X492624Y552894D01*
X492513Y552792D01*
X492402Y552682D01*
X492180Y552450D01*
X491959Y552219D01*
X491857Y552099D01*
X491764Y551997D01*
X491681Y551896D01*
X491607Y551812D01*
X491552Y551748D01*
X491505Y551692D01*
X491478Y551655D01*
X491468Y551646D01*
X491274Y551415D01*
X491089Y551202D01*
X490923Y551026D01*
X490784Y550888D01*
X490664Y550768D01*
X490581Y550684D01*
X490525Y550638D01*
X490516Y550620D01*
X490507D01*
X490350Y550490D01*
X490202Y550389D01*
X490054Y550296D01*
X489924Y550222D01*
X489813Y550167D01*
X489730Y550130D01*
X489675Y550111D01*
X489665Y550102D01*
X489656D01*
X489555Y550065D01*
X489462Y550047D01*
X489370Y550028D01*
X489286Y550019D01*
X489212Y550009D01*
X489157D01*
X489120D01*
X489111D01*
Y554253D01*
X489869D01*
Y551101D01*
D02*
G37*
G36*
X490849Y548521D02*
X491034Y548391D01*
X491200Y548271D01*
X491339Y548151D01*
X491468Y548049D01*
X491561Y547957D01*
X491635Y547883D01*
X491681Y547837D01*
X491700Y547818D01*
X491755Y547744D01*
X491820Y547661D01*
X491922Y547495D01*
X491959Y547421D01*
X491995Y547365D01*
X492014Y547328D01*
X492023Y547310D01*
X492051Y547476D01*
X492079Y547633D01*
X492125Y547772D01*
X492162Y547911D01*
X492208Y548031D01*
X492264Y548142D01*
X492310Y548244D01*
X492356Y548336D01*
X492411Y548410D01*
X492458Y548484D01*
X492495Y548540D01*
X492532Y548586D01*
X492559Y548623D01*
X492587Y548650D01*
X492596Y548660D01*
X492606Y548669D01*
X492698Y548743D01*
X492791Y548817D01*
X492985Y548928D01*
X493179Y549002D01*
X493364Y549057D01*
X493521Y549094D01*
X493586Y549103D01*
X493650D01*
X493697Y549113D01*
X493734D01*
X493752D01*
X493761D01*
X493955Y549103D01*
X494131Y549076D01*
X494298Y549030D01*
X494436Y548983D01*
X494557Y548928D01*
X494649Y548891D01*
X494704Y548854D01*
X494714Y548845D01*
X494723D01*
X494871Y548734D01*
X495000Y548623D01*
X495111Y548503D01*
X495194Y548391D01*
X495259Y548290D01*
X495296Y548207D01*
X495324Y548151D01*
X495333Y548142D01*
Y548133D01*
X495361Y548049D01*
X495389Y547948D01*
X495435Y547744D01*
X495462Y547523D01*
X495490Y547319D01*
X495499Y547125D01*
Y547042D01*
X495509Y546968D01*
Y544000D01*
X489111D01*
Y544851D01*
X491949D01*
Y545942D01*
X491940Y546043D01*
Y546117D01*
X491931Y546182D01*
X491922Y546228D01*
Y546265D01*
X491912Y546283D01*
Y546293D01*
X491866Y546441D01*
X491838Y546505D01*
X491810Y546561D01*
X491783Y546616D01*
X491764Y546653D01*
X491755Y546672D01*
X491746Y546681D01*
X491690Y546755D01*
X491626Y546829D01*
X491487Y546968D01*
X491422Y547032D01*
X491367Y547079D01*
X491330Y547106D01*
X491320Y547116D01*
X491191Y547208D01*
X491052Y547310D01*
X490905Y547411D01*
X490766Y547513D01*
X490636Y547596D01*
X490535Y547661D01*
X490498Y547689D01*
X490470Y547707D01*
X490451Y547726D01*
X490442D01*
X489111Y548567D01*
Y549621D01*
X490849Y548521D01*
D02*
G37*
G36*
X482929Y272416D02*
X483086Y272407D01*
X483234Y272379D01*
X483372Y272352D01*
X483502Y272315D01*
X483622Y272278D01*
X483733Y272231D01*
X483835Y272185D01*
X483927Y272139D01*
X484001Y272093D01*
X484066Y272056D01*
X484121Y272019D01*
X484168Y271991D01*
X484195Y271963D01*
X484214Y271954D01*
X484223Y271945D01*
X484316Y271852D01*
X484399Y271751D01*
X484482Y271640D01*
X484547Y271529D01*
X484658Y271307D01*
X484732Y271085D01*
X484759Y270983D01*
X484787Y270882D01*
X484806Y270798D01*
X484824Y270724D01*
X484833Y270660D01*
Y270613D01*
X484843Y270586D01*
Y270576D01*
X484038Y270493D01*
X484020Y270706D01*
X483983Y270891D01*
X483927Y271057D01*
X483862Y271187D01*
X483807Y271298D01*
X483752Y271372D01*
X483715Y271418D01*
X483696Y271436D01*
X483557Y271547D01*
X483410Y271630D01*
X483252Y271695D01*
X483114Y271732D01*
X482984Y271760D01*
X482873Y271769D01*
X482836Y271778D01*
X482781D01*
X482587Y271769D01*
X482411Y271732D01*
X482263Y271677D01*
X482134Y271621D01*
X482032Y271556D01*
X481967Y271510D01*
X481921Y271473D01*
X481903Y271455D01*
X481791Y271325D01*
X481708Y271196D01*
X481644Y271066D01*
X481607Y270937D01*
X481579Y270835D01*
X481570Y270743D01*
X481560Y270687D01*
Y270678D01*
Y270669D01*
X481579Y270502D01*
X481616Y270327D01*
X481681Y270170D01*
X481745Y270022D01*
X481819Y269902D01*
X481884Y269800D01*
X481903Y269763D01*
X481921Y269735D01*
X481939Y269726D01*
Y269717D01*
X482013Y269615D01*
X482106Y269513D01*
X482208Y269402D01*
X482318Y269291D01*
X482550Y269069D01*
X482781Y268848D01*
X482901Y268746D01*
X483003Y268653D01*
X483104Y268570D01*
X483188Y268496D01*
X483252Y268441D01*
X483308Y268395D01*
X483345Y268367D01*
X483354Y268358D01*
X483585Y268163D01*
X483798Y267978D01*
X483974Y267812D01*
X484112Y267673D01*
X484232Y267553D01*
X484316Y267470D01*
X484362Y267414D01*
X484380Y267405D01*
Y267396D01*
X484510Y267239D01*
X484611Y267091D01*
X484704Y266943D01*
X484778Y266814D01*
X484833Y266702D01*
X484870Y266619D01*
X484889Y266564D01*
X484898Y266555D01*
Y266545D01*
X484935Y266444D01*
X484953Y266351D01*
X484972Y266259D01*
X484981Y266175D01*
X484991Y266102D01*
Y266046D01*
Y266009D01*
Y266000D01*
X480747D01*
Y266758D01*
X483899D01*
X483789Y266915D01*
X483733Y266980D01*
X483687Y267045D01*
X483641Y267100D01*
X483604Y267137D01*
X483576Y267165D01*
X483567Y267174D01*
X483520Y267220D01*
X483465Y267267D01*
X483335Y267387D01*
X483188Y267525D01*
X483030Y267664D01*
X482882Y267784D01*
X482818Y267840D01*
X482762Y267895D01*
X482716Y267932D01*
X482679Y267960D01*
X482661Y267978D01*
X482651Y267988D01*
X482503Y268117D01*
X482355Y268237D01*
X482226Y268358D01*
X482106Y268459D01*
X481995Y268561D01*
X481903Y268653D01*
X481810Y268737D01*
X481736Y268811D01*
X481662Y268885D01*
X481607Y268940D01*
X481560Y268986D01*
X481514Y269032D01*
X481468Y269088D01*
X481449Y269106D01*
X481320Y269264D01*
X481209Y269402D01*
X481117Y269541D01*
X481043Y269652D01*
X480987Y269754D01*
X480950Y269828D01*
X480932Y269874D01*
X480922Y269892D01*
X480867Y270031D01*
X480830Y270170D01*
X480793Y270299D01*
X480774Y270410D01*
X480765Y270512D01*
X480756Y270586D01*
Y270632D01*
Y270650D01*
X480765Y270789D01*
X480784Y270919D01*
X480802Y271048D01*
X480839Y271159D01*
X480932Y271381D01*
X481024Y271556D01*
X481080Y271640D01*
X481126Y271704D01*
X481172Y271769D01*
X481218Y271815D01*
X481255Y271852D01*
X481274Y271889D01*
X481292Y271899D01*
X481301Y271908D01*
X481403Y272000D01*
X481514Y272083D01*
X481634Y272148D01*
X481754Y272204D01*
X481995Y272296D01*
X482235Y272361D01*
X482337Y272379D01*
X482439Y272398D01*
X482531Y272407D01*
X482605Y272416D01*
X482670Y272426D01*
X482762D01*
X482929Y272416D01*
D02*
G37*
G36*
X477955D02*
X478112Y272407D01*
X478260Y272379D01*
X478398Y272352D01*
X478528Y272315D01*
X478648Y272278D01*
X478759Y272231D01*
X478861Y272185D01*
X478953Y272139D01*
X479027Y272093D01*
X479092Y272056D01*
X479147Y272019D01*
X479193Y271991D01*
X479221Y271963D01*
X479240Y271954D01*
X479249Y271945D01*
X479341Y271852D01*
X479425Y271751D01*
X479508Y271640D01*
X479573Y271529D01*
X479683Y271307D01*
X479757Y271085D01*
X479785Y270983D01*
X479813Y270882D01*
X479832Y270798D01*
X479850Y270724D01*
X479859Y270660D01*
Y270613D01*
X479868Y270586D01*
Y270576D01*
X479064Y270493D01*
X479046Y270706D01*
X479009Y270891D01*
X478953Y271057D01*
X478888Y271187D01*
X478833Y271298D01*
X478778Y271372D01*
X478741Y271418D01*
X478722Y271436D01*
X478583Y271547D01*
X478435Y271630D01*
X478278Y271695D01*
X478139Y271732D01*
X478010Y271760D01*
X477899Y271769D01*
X477862Y271778D01*
X477807D01*
X477612Y271769D01*
X477437Y271732D01*
X477289Y271677D01*
X477160Y271621D01*
X477058Y271556D01*
X476993Y271510D01*
X476947Y271473D01*
X476928Y271455D01*
X476817Y271325D01*
X476734Y271196D01*
X476670Y271066D01*
X476632Y270937D01*
X476605Y270835D01*
X476595Y270743D01*
X476586Y270687D01*
Y270678D01*
Y270669D01*
X476605Y270502D01*
X476642Y270327D01*
X476706Y270170D01*
X476771Y270022D01*
X476845Y269902D01*
X476910Y269800D01*
X476928Y269763D01*
X476947Y269735D01*
X476965Y269726D01*
Y269717D01*
X477039Y269615D01*
X477132Y269513D01*
X477233Y269402D01*
X477344Y269291D01*
X477575Y269069D01*
X477807Y268848D01*
X477927Y268746D01*
X478029Y268653D01*
X478130Y268570D01*
X478214Y268496D01*
X478278Y268441D01*
X478334Y268395D01*
X478371Y268367D01*
X478380Y268358D01*
X478611Y268163D01*
X478824Y267978D01*
X478999Y267812D01*
X479138Y267673D01*
X479258Y267553D01*
X479341Y267470D01*
X479388Y267414D01*
X479406Y267405D01*
Y267396D01*
X479536Y267239D01*
X479637Y267091D01*
X479730Y266943D01*
X479804Y266814D01*
X479859Y266702D01*
X479896Y266619D01*
X479915Y266564D01*
X479924Y266555D01*
Y266545D01*
X479961Y266444D01*
X479979Y266351D01*
X479998Y266259D01*
X480007Y266175D01*
X480016Y266102D01*
Y266046D01*
Y266009D01*
Y266000D01*
X475773D01*
Y266758D01*
X478925D01*
X478814Y266915D01*
X478759Y266980D01*
X478713Y267045D01*
X478666Y267100D01*
X478629Y267137D01*
X478602Y267165D01*
X478592Y267174D01*
X478546Y267220D01*
X478491Y267267D01*
X478361Y267387D01*
X478214Y267525D01*
X478056Y267664D01*
X477908Y267784D01*
X477844Y267840D01*
X477788Y267895D01*
X477742Y267932D01*
X477705Y267960D01*
X477687Y267978D01*
X477677Y267988D01*
X477529Y268117D01*
X477381Y268237D01*
X477252Y268358D01*
X477132Y268459D01*
X477021Y268561D01*
X476928Y268653D01*
X476836Y268737D01*
X476762Y268811D01*
X476688Y268885D01*
X476632Y268940D01*
X476586Y268986D01*
X476540Y269032D01*
X476494Y269088D01*
X476475Y269106D01*
X476346Y269264D01*
X476235Y269402D01*
X476143Y269541D01*
X476068Y269652D01*
X476013Y269754D01*
X475976Y269828D01*
X475957Y269874D01*
X475948Y269892D01*
X475893Y270031D01*
X475856Y270170D01*
X475819Y270299D01*
X475800Y270410D01*
X475791Y270512D01*
X475782Y270586D01*
Y270632D01*
Y270650D01*
X475791Y270789D01*
X475810Y270919D01*
X475828Y271048D01*
X475865Y271159D01*
X475957Y271381D01*
X476050Y271556D01*
X476105Y271640D01*
X476152Y271704D01*
X476198Y271769D01*
X476244Y271815D01*
X476281Y271852D01*
X476300Y271889D01*
X476318Y271899D01*
X476327Y271908D01*
X476429Y272000D01*
X476540Y272083D01*
X476660Y272148D01*
X476780Y272204D01*
X477021Y272296D01*
X477261Y272361D01*
X477363Y272379D01*
X477465Y272398D01*
X477557Y272407D01*
X477631Y272416D01*
X477696Y272426D01*
X477788D01*
X477955Y272416D01*
D02*
G37*
G36*
X491000Y266000D02*
X490149D01*
Y268838D01*
X489059D01*
X488957Y268829D01*
X488883D01*
X488818Y268820D01*
X488772Y268811D01*
X488735D01*
X488717Y268801D01*
X488707D01*
X488559Y268755D01*
X488495Y268727D01*
X488439Y268700D01*
X488384Y268672D01*
X488347Y268653D01*
X488328Y268644D01*
X488319Y268635D01*
X488245Y268579D01*
X488171Y268515D01*
X488032Y268376D01*
X487968Y268311D01*
X487921Y268256D01*
X487894Y268219D01*
X487884Y268210D01*
X487792Y268080D01*
X487690Y267941D01*
X487589Y267794D01*
X487487Y267655D01*
X487404Y267525D01*
X487339Y267424D01*
X487311Y267387D01*
X487293Y267359D01*
X487274Y267341D01*
Y267331D01*
X486433Y266000D01*
X485379D01*
X486479Y267738D01*
X486609Y267923D01*
X486729Y268089D01*
X486849Y268228D01*
X486951Y268358D01*
X487043Y268450D01*
X487117Y268524D01*
X487163Y268570D01*
X487182Y268589D01*
X487256Y268644D01*
X487339Y268709D01*
X487505Y268811D01*
X487579Y268848D01*
X487635Y268885D01*
X487672Y268903D01*
X487690Y268912D01*
X487524Y268940D01*
X487367Y268968D01*
X487228Y269014D01*
X487089Y269051D01*
X486969Y269097D01*
X486858Y269153D01*
X486756Y269199D01*
X486664Y269245D01*
X486590Y269301D01*
X486516Y269347D01*
X486460Y269384D01*
X486414Y269421D01*
X486377Y269449D01*
X486350Y269476D01*
X486340Y269485D01*
X486331Y269495D01*
X486257Y269587D01*
X486183Y269680D01*
X486072Y269874D01*
X485998Y270068D01*
X485943Y270253D01*
X485906Y270410D01*
X485897Y270475D01*
Y270539D01*
X485887Y270586D01*
Y270623D01*
Y270641D01*
Y270650D01*
X485897Y270845D01*
X485924Y271020D01*
X485970Y271187D01*
X486017Y271325D01*
X486072Y271446D01*
X486109Y271538D01*
X486146Y271593D01*
X486155Y271603D01*
Y271612D01*
X486266Y271760D01*
X486377Y271889D01*
X486497Y272000D01*
X486609Y272083D01*
X486710Y272148D01*
X486793Y272185D01*
X486849Y272213D01*
X486858Y272222D01*
X486867D01*
X486951Y272250D01*
X487052Y272278D01*
X487256Y272324D01*
X487478Y272352D01*
X487681Y272379D01*
X487875Y272389D01*
X487958D01*
X488032Y272398D01*
X491000D01*
Y266000D01*
D02*
G37*
G36*
X482929Y315416D02*
X483086Y315407D01*
X483234Y315379D01*
X483372Y315352D01*
X483502Y315315D01*
X483622Y315278D01*
X483733Y315231D01*
X483835Y315185D01*
X483927Y315139D01*
X484001Y315093D01*
X484066Y315056D01*
X484121Y315019D01*
X484168Y314991D01*
X484195Y314963D01*
X484214Y314954D01*
X484223Y314945D01*
X484316Y314852D01*
X484399Y314751D01*
X484482Y314640D01*
X484547Y314529D01*
X484658Y314307D01*
X484732Y314085D01*
X484759Y313983D01*
X484787Y313881D01*
X484806Y313798D01*
X484824Y313724D01*
X484833Y313660D01*
Y313613D01*
X484843Y313586D01*
Y313576D01*
X484038Y313493D01*
X484020Y313706D01*
X483983Y313891D01*
X483927Y314057D01*
X483862Y314187D01*
X483807Y314298D01*
X483752Y314372D01*
X483715Y314418D01*
X483696Y314436D01*
X483557Y314547D01*
X483410Y314630D01*
X483252Y314695D01*
X483114Y314732D01*
X482984Y314760D01*
X482873Y314769D01*
X482836Y314778D01*
X482781D01*
X482587Y314769D01*
X482411Y314732D01*
X482263Y314677D01*
X482134Y314621D01*
X482032Y314557D01*
X481967Y314510D01*
X481921Y314473D01*
X481903Y314455D01*
X481791Y314325D01*
X481708Y314196D01*
X481644Y314067D01*
X481607Y313937D01*
X481579Y313835D01*
X481570Y313743D01*
X481560Y313687D01*
Y313678D01*
Y313669D01*
X481579Y313503D01*
X481616Y313327D01*
X481681Y313170D01*
X481745Y313022D01*
X481819Y312901D01*
X481884Y312800D01*
X481903Y312763D01*
X481921Y312735D01*
X481939Y312726D01*
Y312717D01*
X482013Y312615D01*
X482106Y312513D01*
X482208Y312402D01*
X482318Y312291D01*
X482550Y312069D01*
X482781Y311847D01*
X482901Y311746D01*
X483003Y311653D01*
X483104Y311570D01*
X483188Y311496D01*
X483252Y311441D01*
X483308Y311395D01*
X483345Y311367D01*
X483354Y311357D01*
X483585Y311163D01*
X483798Y310978D01*
X483974Y310812D01*
X484112Y310673D01*
X484232Y310553D01*
X484316Y310470D01*
X484362Y310414D01*
X484380Y310405D01*
Y310396D01*
X484510Y310239D01*
X484611Y310091D01*
X484704Y309943D01*
X484778Y309813D01*
X484833Y309702D01*
X484870Y309619D01*
X484889Y309564D01*
X484898Y309555D01*
Y309545D01*
X484935Y309444D01*
X484953Y309351D01*
X484972Y309259D01*
X484981Y309175D01*
X484991Y309102D01*
Y309046D01*
Y309009D01*
Y309000D01*
X480747D01*
Y309758D01*
X483899D01*
X483789Y309915D01*
X483733Y309980D01*
X483687Y310045D01*
X483641Y310100D01*
X483604Y310137D01*
X483576Y310165D01*
X483567Y310174D01*
X483520Y310220D01*
X483465Y310266D01*
X483335Y310387D01*
X483188Y310525D01*
X483030Y310664D01*
X482882Y310784D01*
X482818Y310840D01*
X482762Y310895D01*
X482716Y310932D01*
X482679Y310960D01*
X482661Y310978D01*
X482651Y310988D01*
X482503Y311117D01*
X482355Y311237D01*
X482226Y311357D01*
X482106Y311459D01*
X481995Y311561D01*
X481903Y311653D01*
X481810Y311737D01*
X481736Y311810D01*
X481662Y311884D01*
X481607Y311940D01*
X481560Y311986D01*
X481514Y312032D01*
X481468Y312088D01*
X481449Y312106D01*
X481320Y312264D01*
X481209Y312402D01*
X481117Y312541D01*
X481043Y312652D01*
X480987Y312754D01*
X480950Y312827D01*
X480932Y312874D01*
X480922Y312892D01*
X480867Y313031D01*
X480830Y313170D01*
X480793Y313299D01*
X480774Y313410D01*
X480765Y313512D01*
X480756Y313586D01*
Y313632D01*
Y313650D01*
X480765Y313789D01*
X480784Y313918D01*
X480802Y314048D01*
X480839Y314159D01*
X480932Y314381D01*
X481024Y314557D01*
X481080Y314640D01*
X481126Y314704D01*
X481172Y314769D01*
X481218Y314815D01*
X481255Y314852D01*
X481274Y314889D01*
X481292Y314899D01*
X481301Y314908D01*
X481403Y315000D01*
X481514Y315084D01*
X481634Y315148D01*
X481754Y315204D01*
X481995Y315296D01*
X482235Y315361D01*
X482337Y315379D01*
X482439Y315398D01*
X482531Y315407D01*
X482605Y315416D01*
X482670Y315426D01*
X482762D01*
X482929Y315416D01*
D02*
G37*
G36*
X477548Y315268D02*
X477649Y315121D01*
X477770Y314972D01*
X477881Y314843D01*
X477992Y314732D01*
X478075Y314640D01*
X478112Y314612D01*
X478139Y314584D01*
X478149Y314575D01*
X478158Y314566D01*
X478352Y314408D01*
X478546Y314261D01*
X478731Y314131D01*
X478916Y314030D01*
X479073Y313937D01*
X479138Y313900D01*
X479193Y313872D01*
X479240Y313845D01*
X479277Y313835D01*
X479295Y313817D01*
X479305D01*
Y313059D01*
X479166Y313114D01*
X479027Y313179D01*
X478888Y313244D01*
X478759Y313308D01*
X478648Y313364D01*
X478556Y313410D01*
X478500Y313447D01*
X478491Y313456D01*
X478482D01*
X478315Y313558D01*
X478167Y313660D01*
X478038Y313752D01*
X477936Y313835D01*
X477844Y313900D01*
X477788Y313955D01*
X477742Y313993D01*
X477733Y314002D01*
Y309000D01*
X476947D01*
Y315426D01*
X477455D01*
X477548Y315268D01*
D02*
G37*
G36*
X491000Y309000D02*
X490149D01*
Y311838D01*
X489059D01*
X488957Y311829D01*
X488883D01*
X488818Y311820D01*
X488772Y311810D01*
X488735D01*
X488717Y311801D01*
X488707D01*
X488559Y311755D01*
X488495Y311727D01*
X488439Y311700D01*
X488384Y311672D01*
X488347Y311653D01*
X488328Y311644D01*
X488319Y311635D01*
X488245Y311579D01*
X488171Y311515D01*
X488032Y311376D01*
X487968Y311311D01*
X487921Y311256D01*
X487894Y311219D01*
X487884Y311210D01*
X487792Y311080D01*
X487690Y310941D01*
X487589Y310793D01*
X487487Y310655D01*
X487404Y310525D01*
X487339Y310424D01*
X487311Y310387D01*
X487293Y310359D01*
X487274Y310340D01*
Y310331D01*
X486433Y309000D01*
X485379D01*
X486479Y310738D01*
X486609Y310923D01*
X486729Y311089D01*
X486849Y311228D01*
X486951Y311357D01*
X487043Y311450D01*
X487117Y311524D01*
X487163Y311570D01*
X487182Y311589D01*
X487256Y311644D01*
X487339Y311709D01*
X487505Y311810D01*
X487579Y311847D01*
X487635Y311884D01*
X487672Y311903D01*
X487690Y311912D01*
X487524Y311940D01*
X487367Y311968D01*
X487228Y312014D01*
X487089Y312051D01*
X486969Y312097D01*
X486858Y312153D01*
X486756Y312199D01*
X486664Y312245D01*
X486590Y312300D01*
X486516Y312347D01*
X486460Y312384D01*
X486414Y312421D01*
X486377Y312449D01*
X486350Y312476D01*
X486340Y312486D01*
X486331Y312495D01*
X486257Y312587D01*
X486183Y312680D01*
X486072Y312874D01*
X485998Y313068D01*
X485943Y313253D01*
X485906Y313410D01*
X485897Y313475D01*
Y313540D01*
X485887Y313586D01*
Y313623D01*
Y313641D01*
Y313650D01*
X485897Y313845D01*
X485924Y314020D01*
X485970Y314187D01*
X486017Y314325D01*
X486072Y314445D01*
X486109Y314538D01*
X486146Y314594D01*
X486155Y314603D01*
Y314612D01*
X486266Y314760D01*
X486377Y314889D01*
X486497Y315000D01*
X486609Y315084D01*
X486710Y315148D01*
X486793Y315185D01*
X486849Y315213D01*
X486858Y315222D01*
X486867D01*
X486951Y315250D01*
X487052Y315278D01*
X487256Y315324D01*
X487478Y315352D01*
X487681Y315379D01*
X487875Y315389D01*
X487958D01*
X488032Y315398D01*
X491000D01*
Y309000D01*
D02*
G37*
G36*
X232271Y1080963D02*
X232141Y1080778D01*
X232021Y1080611D01*
X231901Y1080472D01*
X231799Y1080343D01*
X231707Y1080250D01*
X231633Y1080177D01*
X231587Y1080130D01*
X231568Y1080112D01*
X231494Y1080056D01*
X231411Y1079992D01*
X231245Y1079890D01*
X231171Y1079853D01*
X231115Y1079816D01*
X231078Y1079798D01*
X231060Y1079788D01*
X231226Y1079761D01*
X231383Y1079733D01*
X231522Y1079687D01*
X231661Y1079650D01*
X231781Y1079603D01*
X231892Y1079548D01*
X231994Y1079502D01*
X232086Y1079455D01*
X232160Y1079400D01*
X232234Y1079354D01*
X232289Y1079317D01*
X232336Y1079280D01*
X232373Y1079252D01*
X232400Y1079224D01*
X232409Y1079215D01*
X232419Y1079206D01*
X232493Y1079113D01*
X232567Y1079021D01*
X232678Y1078827D01*
X232752Y1078633D01*
X232807Y1078448D01*
X232844Y1078290D01*
X232853Y1078226D01*
Y1078161D01*
X232863Y1078115D01*
Y1078078D01*
Y1078059D01*
Y1078050D01*
X232853Y1077856D01*
X232826Y1077680D01*
X232779Y1077514D01*
X232733Y1077375D01*
X232678Y1077255D01*
X232641Y1077162D01*
X232604Y1077107D01*
X232595Y1077098D01*
Y1077088D01*
X232484Y1076941D01*
X232373Y1076811D01*
X232252Y1076700D01*
X232141Y1076617D01*
X232040Y1076552D01*
X231957Y1076515D01*
X231901Y1076488D01*
X231892Y1076478D01*
X231882D01*
X231799Y1076451D01*
X231698Y1076423D01*
X231494Y1076377D01*
X231272Y1076349D01*
X231069Y1076321D01*
X230875Y1076312D01*
X230792D01*
X230718Y1076303D01*
X227750D01*
Y1082701D01*
X228600D01*
Y1079862D01*
X229691D01*
X229793Y1079872D01*
X229867D01*
X229932Y1079881D01*
X229978Y1079890D01*
X230015D01*
X230033Y1079899D01*
X230043D01*
X230191Y1079945D01*
X230255Y1079973D01*
X230311Y1080001D01*
X230366Y1080029D01*
X230403Y1080047D01*
X230422Y1080056D01*
X230431Y1080066D01*
X230505Y1080121D01*
X230579Y1080186D01*
X230718Y1080324D01*
X230782Y1080389D01*
X230828Y1080445D01*
X230856Y1080482D01*
X230865Y1080491D01*
X230958Y1080620D01*
X231060Y1080759D01*
X231161Y1080907D01*
X231263Y1081046D01*
X231346Y1081175D01*
X231411Y1081277D01*
X231439Y1081314D01*
X231457Y1081341D01*
X231476Y1081360D01*
Y1081369D01*
X232317Y1082701D01*
X233371D01*
X232271Y1080963D01*
D02*
G37*
G36*
X235655Y1082349D02*
X235701Y1082026D01*
X235747Y1081730D01*
X235775Y1081591D01*
X235803Y1081462D01*
X235821Y1081351D01*
X235849Y1081249D01*
X235867Y1081157D01*
X235886Y1081083D01*
X235904Y1081027D01*
X235914Y1080981D01*
X235923Y1080953D01*
Y1080944D01*
X236062Y1080519D01*
X236210Y1080121D01*
X236283Y1079927D01*
X236357Y1079742D01*
X236441Y1079576D01*
X236515Y1079409D01*
X236579Y1079261D01*
X236644Y1079132D01*
X236700Y1079021D01*
X236746Y1078919D01*
X236792Y1078836D01*
X236820Y1078781D01*
X236838Y1078744D01*
X236847Y1078734D01*
X236958Y1078540D01*
X237069Y1078346D01*
X237180Y1078170D01*
X237291Y1078004D01*
X237393Y1077856D01*
X237495Y1077708D01*
X237596Y1077579D01*
X237680Y1077468D01*
X237763Y1077357D01*
X237837Y1077264D01*
X237911Y1077190D01*
X237966Y1077125D01*
X238003Y1077070D01*
X238040Y1077033D01*
X238059Y1077015D01*
X238068Y1077005D01*
Y1076386D01*
X233926D01*
Y1077144D01*
X237060D01*
X236838Y1077412D01*
X236625Y1077699D01*
X236441Y1077976D01*
X236265Y1078244D01*
X236191Y1078364D01*
X236126Y1078475D01*
X236062Y1078577D01*
X236015Y1078660D01*
X235978Y1078734D01*
X235951Y1078781D01*
X235932Y1078818D01*
X235923Y1078827D01*
X235738Y1079196D01*
X235571Y1079566D01*
X235433Y1079918D01*
X235377Y1080075D01*
X235322Y1080232D01*
X235266Y1080371D01*
X235229Y1080500D01*
X235193Y1080611D01*
X235165Y1080704D01*
X235137Y1080787D01*
X235119Y1080842D01*
X235109Y1080879D01*
Y1080889D01*
X235017Y1081268D01*
X234980Y1081452D01*
X234952Y1081619D01*
X234924Y1081776D01*
X234897Y1081933D01*
X234878Y1082063D01*
X234860Y1082192D01*
X234850Y1082303D01*
X234841Y1082405D01*
X234832Y1082497D01*
Y1082571D01*
X234823Y1082627D01*
Y1082664D01*
Y1082691D01*
Y1082701D01*
X235627D01*
X235655Y1082349D01*
D02*
G37*
G36*
X306831Y1089681D02*
X307007Y1089662D01*
X307173Y1089625D01*
X307330Y1089579D01*
X307469Y1089514D01*
X307608Y1089459D01*
X307728Y1089385D01*
X307839Y1089320D01*
X307931Y1089255D01*
X308024Y1089181D01*
X308098Y1089126D01*
X308153Y1089070D01*
X308200Y1089015D01*
X308237Y1088978D01*
X308255Y1088960D01*
X308264Y1088950D01*
X308384Y1088784D01*
X308486Y1088590D01*
X308579Y1088386D01*
X308662Y1088174D01*
X308727Y1087952D01*
X308782Y1087730D01*
X308828Y1087499D01*
X308865Y1087286D01*
X308893Y1087073D01*
X308911Y1086879D01*
X308930Y1086704D01*
X308939Y1086556D01*
Y1086426D01*
X308948Y1086334D01*
Y1086297D01*
Y1086269D01*
Y1086260D01*
Y1086251D01*
X308939Y1085955D01*
X308921Y1085677D01*
X308893Y1085418D01*
X308847Y1085178D01*
X308801Y1084965D01*
X308754Y1084771D01*
X308699Y1084596D01*
X308634Y1084438D01*
X308579Y1084309D01*
X308523Y1084189D01*
X308477Y1084096D01*
X308421Y1084013D01*
X308384Y1083948D01*
X308357Y1083911D01*
X308338Y1083884D01*
X308329Y1083874D01*
X308209Y1083745D01*
X308079Y1083634D01*
X307950Y1083542D01*
X307820Y1083458D01*
X307682Y1083384D01*
X307552Y1083329D01*
X307423Y1083283D01*
X307293Y1083246D01*
X307183Y1083218D01*
X307072Y1083190D01*
X306979Y1083172D01*
X306896Y1083163D01*
X306822D01*
X306776Y1083153D01*
X306730D01*
X306517Y1083163D01*
X306323Y1083199D01*
X306147Y1083236D01*
X305990Y1083292D01*
X305870Y1083338D01*
X305777Y1083384D01*
X305740Y1083394D01*
X305713Y1083412D01*
X305703Y1083421D01*
X305694D01*
X305537Y1083532D01*
X305389Y1083662D01*
X305269Y1083791D01*
X305167Y1083921D01*
X305084Y1084041D01*
X305028Y1084133D01*
X305010Y1084170D01*
X304991Y1084198D01*
X304982Y1084207D01*
Y1084217D01*
X304890Y1084411D01*
X304825Y1084614D01*
X304779Y1084799D01*
X304751Y1084975D01*
X304723Y1085123D01*
Y1085178D01*
X304714Y1085234D01*
Y1085280D01*
Y1085307D01*
Y1085326D01*
Y1085335D01*
X304723Y1085502D01*
X304742Y1085659D01*
X304769Y1085816D01*
X304797Y1085955D01*
X304843Y1086084D01*
X304890Y1086214D01*
X304936Y1086324D01*
X304991Y1086426D01*
X305047Y1086519D01*
X305093Y1086602D01*
X305139Y1086667D01*
X305186Y1086731D01*
X305213Y1086777D01*
X305241Y1086805D01*
X305259Y1086824D01*
X305269Y1086833D01*
X305370Y1086935D01*
X305481Y1087027D01*
X305602Y1087101D01*
X305713Y1087166D01*
X305823Y1087231D01*
X305934Y1087277D01*
X306147Y1087342D01*
X306239Y1087369D01*
X306332Y1087388D01*
X306406Y1087397D01*
X306480Y1087406D01*
X306535Y1087415D01*
X306609D01*
X306776Y1087406D01*
X306933Y1087378D01*
X307081Y1087351D01*
X307210Y1087314D01*
X307321Y1087268D01*
X307404Y1087240D01*
X307460Y1087212D01*
X307469Y1087203D01*
X307478D01*
X307626Y1087110D01*
X307756Y1087009D01*
X307876Y1086907D01*
X307968Y1086796D01*
X308052Y1086704D01*
X308116Y1086630D01*
X308153Y1086574D01*
X308163Y1086565D01*
Y1086731D01*
X308153Y1086898D01*
X308144Y1087046D01*
X308126Y1087194D01*
X308116Y1087323D01*
X308098Y1087443D01*
X308079Y1087554D01*
X308052Y1087656D01*
X308033Y1087748D01*
X308015Y1087822D01*
X307996Y1087887D01*
X307987Y1087943D01*
X307968Y1087980D01*
X307959Y1088007D01*
X307950Y1088026D01*
Y1088035D01*
X307857Y1088220D01*
X307765Y1088386D01*
X307663Y1088516D01*
X307571Y1088627D01*
X307488Y1088719D01*
X307423Y1088784D01*
X307377Y1088821D01*
X307358Y1088830D01*
X307247Y1088904D01*
X307136Y1088950D01*
X307025Y1088987D01*
X306914Y1089015D01*
X306831Y1089034D01*
X306757Y1089043D01*
X306693D01*
X306526Y1089024D01*
X306369Y1088987D01*
X306239Y1088932D01*
X306119Y1088876D01*
X306027Y1088812D01*
X305962Y1088756D01*
X305925Y1088719D01*
X305907Y1088701D01*
X305842Y1088617D01*
X305777Y1088516D01*
X305722Y1088405D01*
X305685Y1088294D01*
X305648Y1088192D01*
X305620Y1088109D01*
X305611Y1088053D01*
X305602Y1088044D01*
Y1088035D01*
X304816Y1088100D01*
X304871Y1088359D01*
X304954Y1088590D01*
X305047Y1088793D01*
X305149Y1088960D01*
X305250Y1089089D01*
X305287Y1089144D01*
X305333Y1089191D01*
X305361Y1089218D01*
X305389Y1089246D01*
X305398Y1089255D01*
X305407Y1089265D01*
X305500Y1089339D01*
X305602Y1089403D01*
X305805Y1089514D01*
X306008Y1089588D01*
X306203Y1089634D01*
X306378Y1089671D01*
X306452Y1089681D01*
X306517D01*
X306572Y1089690D01*
X306646D01*
X306831Y1089681D01*
D02*
G37*
G36*
X315032Y1083264D02*
X314181D01*
Y1086103D01*
X313090D01*
X312989Y1086093D01*
X312915D01*
X312850Y1086084D01*
X312804Y1086075D01*
X312767D01*
X312748Y1086066D01*
X312739D01*
X312591Y1086019D01*
X312526Y1085992D01*
X312471Y1085964D01*
X312416Y1085936D01*
X312379Y1085918D01*
X312360Y1085908D01*
X312351Y1085899D01*
X312277Y1085844D01*
X312203Y1085779D01*
X312064Y1085640D01*
X311999Y1085576D01*
X311953Y1085520D01*
X311926Y1085483D01*
X311916Y1085474D01*
X311824Y1085344D01*
X311722Y1085206D01*
X311621Y1085058D01*
X311519Y1084919D01*
X311436Y1084790D01*
X311371Y1084688D01*
X311343Y1084651D01*
X311325Y1084623D01*
X311306Y1084605D01*
Y1084596D01*
X310465Y1083264D01*
X309411D01*
X310511Y1085002D01*
X310640Y1085187D01*
X310761Y1085354D01*
X310881Y1085492D01*
X310982Y1085622D01*
X311075Y1085714D01*
X311149Y1085788D01*
X311195Y1085835D01*
X311214Y1085853D01*
X311288Y1085908D01*
X311371Y1085973D01*
X311537Y1086075D01*
X311611Y1086112D01*
X311667Y1086149D01*
X311704Y1086167D01*
X311722Y1086177D01*
X311556Y1086204D01*
X311399Y1086232D01*
X311260Y1086278D01*
X311121Y1086315D01*
X311001Y1086361D01*
X310890Y1086417D01*
X310788Y1086463D01*
X310696Y1086509D01*
X310622Y1086565D01*
X310548Y1086611D01*
X310492Y1086648D01*
X310446Y1086685D01*
X310409Y1086713D01*
X310382Y1086740D01*
X310372Y1086750D01*
X310363Y1086759D01*
X310289Y1086852D01*
X310215Y1086944D01*
X310104Y1087138D01*
X310030Y1087332D01*
X309975Y1087517D01*
X309938Y1087674D01*
X309928Y1087739D01*
Y1087804D01*
X309919Y1087850D01*
Y1087887D01*
Y1087906D01*
Y1087915D01*
X309928Y1088109D01*
X309956Y1088285D01*
X310002Y1088451D01*
X310049Y1088590D01*
X310104Y1088710D01*
X310141Y1088802D01*
X310178Y1088858D01*
X310187Y1088867D01*
Y1088876D01*
X310298Y1089024D01*
X310409Y1089154D01*
X310529Y1089265D01*
X310640Y1089348D01*
X310742Y1089413D01*
X310825Y1089449D01*
X310881Y1089477D01*
X310890Y1089486D01*
X310899D01*
X310982Y1089514D01*
X311084Y1089542D01*
X311288Y1089588D01*
X311509Y1089616D01*
X311713Y1089644D01*
X311907Y1089653D01*
X311990D01*
X312064Y1089662D01*
X315032D01*
Y1083264D01*
D02*
G37*
G36*
X86521Y868151D02*
X86391Y867966D01*
X86271Y867800D01*
X86151Y867661D01*
X86049Y867532D01*
X85957Y867439D01*
X85883Y867365D01*
X85837Y867319D01*
X85818Y867300D01*
X85744Y867245D01*
X85661Y867180D01*
X85495Y867078D01*
X85421Y867041D01*
X85365Y867004D01*
X85328Y866986D01*
X85310Y866977D01*
X85476Y866949D01*
X85633Y866921D01*
X85772Y866875D01*
X85911Y866838D01*
X86031Y866792D01*
X86142Y866736D01*
X86244Y866690D01*
X86336Y866644D01*
X86410Y866588D01*
X86484Y866542D01*
X86539Y866505D01*
X86586Y866468D01*
X86623Y866441D01*
X86650Y866413D01*
X86660Y866404D01*
X86669Y866394D01*
X86743Y866302D01*
X86817Y866209D01*
X86928Y866015D01*
X87002Y865821D01*
X87057Y865636D01*
X87094Y865479D01*
X87103Y865414D01*
Y865350D01*
X87113Y865303D01*
Y865266D01*
Y865248D01*
Y865239D01*
X87103Y865044D01*
X87076Y864869D01*
X87029Y864702D01*
X86983Y864564D01*
X86928Y864444D01*
X86891Y864351D01*
X86854Y864296D01*
X86845Y864286D01*
Y864277D01*
X86734Y864129D01*
X86623Y864000D01*
X86503Y863889D01*
X86391Y863805D01*
X86290Y863741D01*
X86207Y863704D01*
X86151Y863676D01*
X86142Y863667D01*
X86133D01*
X86049Y863639D01*
X85948Y863611D01*
X85744Y863565D01*
X85522Y863537D01*
X85319Y863510D01*
X85125Y863500D01*
X85042D01*
X84968Y863491D01*
X82000D01*
Y869889D01*
X82851D01*
Y867051D01*
X83941D01*
X84043Y867060D01*
X84117D01*
X84182Y867069D01*
X84228Y867078D01*
X84265D01*
X84284Y867088D01*
X84293D01*
X84441Y867134D01*
X84505Y867162D01*
X84561Y867189D01*
X84616Y867217D01*
X84653Y867236D01*
X84672Y867245D01*
X84681Y867254D01*
X84755Y867310D01*
X84829Y867374D01*
X84968Y867513D01*
X85032Y867578D01*
X85079Y867633D01*
X85106Y867670D01*
X85116Y867679D01*
X85208Y867809D01*
X85310Y867947D01*
X85412Y868095D01*
X85513Y868234D01*
X85596Y868364D01*
X85661Y868465D01*
X85689Y868502D01*
X85707Y868530D01*
X85726Y868549D01*
Y868558D01*
X86567Y869889D01*
X87621D01*
X86521Y868151D01*
D02*
G37*
G36*
X95304Y869991D02*
X95462Y869972D01*
X95619Y869945D01*
X95767Y869908D01*
X95905Y869861D01*
X96025Y869815D01*
X96146Y869760D01*
X96247Y869704D01*
X96349Y869658D01*
X96432Y869603D01*
X96506Y869556D01*
X96562Y869510D01*
X96608Y869473D01*
X96645Y869445D01*
X96663Y869427D01*
X96673Y869418D01*
X96784Y869307D01*
X96876Y869186D01*
X96959Y869066D01*
X97033Y868946D01*
X97089Y868835D01*
X97144Y868715D01*
X97218Y868493D01*
X97237Y868391D01*
X97255Y868299D01*
X97274Y868216D01*
X97283Y868142D01*
X97292Y868086D01*
Y868040D01*
Y868012D01*
Y868003D01*
X97283Y867781D01*
X97246Y867578D01*
X97190Y867402D01*
X97135Y867254D01*
X97079Y867134D01*
X97024Y867041D01*
X96987Y866986D01*
X96978Y866967D01*
X96848Y866829D01*
X96710Y866709D01*
X96562Y866616D01*
X96414Y866542D01*
X96284Y866487D01*
X96183Y866450D01*
X96146Y866441D01*
X96118Y866431D01*
X96099Y866422D01*
X96090D01*
X96247Y866339D01*
X96377Y866256D01*
X96488Y866163D01*
X96580Y866080D01*
X96654Y866006D01*
X96710Y865941D01*
X96737Y865904D01*
X96747Y865886D01*
X96821Y865756D01*
X96876Y865627D01*
X96922Y865498D01*
X96950Y865377D01*
X96968Y865276D01*
X96978Y865202D01*
Y865146D01*
Y865128D01*
X96968Y864970D01*
X96941Y864813D01*
X96904Y864675D01*
X96858Y864554D01*
X96811Y864453D01*
X96774Y864370D01*
X96747Y864323D01*
X96737Y864305D01*
X96645Y864166D01*
X96534Y864046D01*
X96423Y863944D01*
X96312Y863852D01*
X96220Y863787D01*
X96136Y863732D01*
X96081Y863704D01*
X96072Y863695D01*
X96062D01*
X95896Y863621D01*
X95730Y863565D01*
X95563Y863519D01*
X95415Y863491D01*
X95295Y863473D01*
X95193Y863463D01*
X94962D01*
X94833Y863482D01*
X94583Y863528D01*
X94370Y863602D01*
X94186Y863676D01*
X94102Y863722D01*
X94038Y863759D01*
X93973Y863796D01*
X93927Y863833D01*
X93890Y863861D01*
X93862Y863879D01*
X93843Y863889D01*
X93834Y863898D01*
X93659Y864074D01*
X93520Y864268D01*
X93409Y864471D01*
X93316Y864675D01*
X93261Y864850D01*
X93233Y864924D01*
X93215Y864989D01*
X93205Y865044D01*
X93196Y865081D01*
X93187Y865109D01*
Y865118D01*
X93973Y865257D01*
X94010Y865054D01*
X94065Y864878D01*
X94130Y864730D01*
X94195Y864610D01*
X94260Y864517D01*
X94315Y864453D01*
X94352Y864407D01*
X94361Y864397D01*
X94481Y864305D01*
X94611Y864231D01*
X94731Y864185D01*
X94851Y864148D01*
X94962Y864129D01*
X95045Y864111D01*
X95119D01*
X95286Y864120D01*
X95434Y864157D01*
X95563Y864203D01*
X95674Y864249D01*
X95757Y864305D01*
X95822Y864351D01*
X95868Y864388D01*
X95878Y864397D01*
X95979Y864508D01*
X96053Y864628D01*
X96099Y864749D01*
X96136Y864859D01*
X96155Y864961D01*
X96173Y865035D01*
Y865091D01*
Y865100D01*
Y865109D01*
Y865211D01*
X96155Y865303D01*
X96109Y865461D01*
X96044Y865599D01*
X95970Y865719D01*
X95896Y865803D01*
X95831Y865867D01*
X95785Y865904D01*
X95776Y865913D01*
X95767D01*
X95609Y865997D01*
X95462Y866061D01*
X95304Y866108D01*
X95166Y866135D01*
X95045Y866154D01*
X94944Y866172D01*
X94824D01*
X94787Y866163D01*
X94740D01*
X94648Y866857D01*
X94768Y866829D01*
X94879Y866810D01*
X94971Y866792D01*
X95055Y866783D01*
X95119Y866773D01*
X95203D01*
X95397Y866792D01*
X95572Y866829D01*
X95730Y866884D01*
X95859Y866949D01*
X95961Y867014D01*
X96035Y867069D01*
X96081Y867106D01*
X96099Y867125D01*
X96220Y867263D01*
X96312Y867411D01*
X96377Y867559D01*
X96414Y867707D01*
X96441Y867827D01*
X96451Y867929D01*
X96460Y867966D01*
Y867994D01*
Y868012D01*
Y868021D01*
X96441Y868225D01*
X96395Y868410D01*
X96340Y868567D01*
X96266Y868706D01*
X96192Y868817D01*
X96136Y868900D01*
X96090Y868955D01*
X96072Y868974D01*
X95924Y869103D01*
X95767Y869196D01*
X95609Y869260D01*
X95462Y869307D01*
X95332Y869334D01*
X95230Y869344D01*
X95193Y869353D01*
X95138D01*
X94971Y869344D01*
X94814Y869307D01*
X94676Y869260D01*
X94565Y869205D01*
X94472Y869159D01*
X94398Y869112D01*
X94361Y869075D01*
X94343Y869066D01*
X94232Y868937D01*
X94139Y868789D01*
X94056Y868632D01*
X93991Y868465D01*
X93945Y868327D01*
X93927Y868262D01*
X93917Y868206D01*
X93908Y868160D01*
X93899Y868123D01*
X93890Y868105D01*
Y868095D01*
X93104Y868197D01*
X93122Y868345D01*
X93150Y868484D01*
X93233Y868743D01*
X93335Y868965D01*
X93390Y869057D01*
X93446Y869149D01*
X93501Y869233D01*
X93557Y869297D01*
X93603Y869362D01*
X93649Y869408D01*
X93677Y869445D01*
X93705Y869473D01*
X93723Y869492D01*
X93733Y869501D01*
X93843Y869584D01*
X93954Y869667D01*
X94065Y869732D01*
X94186Y869787D01*
X94417Y869880D01*
X94639Y869935D01*
X94740Y869954D01*
X94833Y869972D01*
X94916Y869982D01*
X94990Y869991D01*
X95045Y870000D01*
X95129D01*
X95304Y869991D01*
D02*
G37*
G36*
X90330D02*
X90487Y869972D01*
X90645Y869945D01*
X90792Y869908D01*
X90931Y869861D01*
X91051Y869815D01*
X91172Y869760D01*
X91273Y869704D01*
X91375Y869658D01*
X91458Y869603D01*
X91532Y869556D01*
X91587Y869510D01*
X91634Y869473D01*
X91671Y869445D01*
X91689Y869427D01*
X91699Y869418D01*
X91809Y869307D01*
X91902Y869186D01*
X91985Y869066D01*
X92059Y868946D01*
X92114Y868835D01*
X92170Y868715D01*
X92244Y868493D01*
X92262Y868391D01*
X92281Y868299D01*
X92299Y868216D01*
X92309Y868142D01*
X92318Y868086D01*
Y868040D01*
Y868012D01*
Y868003D01*
X92309Y867781D01*
X92272Y867578D01*
X92216Y867402D01*
X92161Y867254D01*
X92105Y867134D01*
X92050Y867041D01*
X92013Y866986D01*
X92004Y866967D01*
X91874Y866829D01*
X91735Y866709D01*
X91587Y866616D01*
X91440Y866542D01*
X91310Y866487D01*
X91208Y866450D01*
X91172Y866441D01*
X91144Y866431D01*
X91125Y866422D01*
X91116D01*
X91273Y866339D01*
X91403Y866256D01*
X91514Y866163D01*
X91606Y866080D01*
X91680Y866006D01*
X91735Y865941D01*
X91763Y865904D01*
X91772Y865886D01*
X91846Y865756D01*
X91902Y865627D01*
X91948Y865498D01*
X91976Y865377D01*
X91994Y865276D01*
X92004Y865202D01*
Y865146D01*
Y865128D01*
X91994Y864970D01*
X91967Y864813D01*
X91930Y864675D01*
X91883Y864554D01*
X91837Y864453D01*
X91800Y864370D01*
X91772Y864323D01*
X91763Y864305D01*
X91671Y864166D01*
X91560Y864046D01*
X91449Y863944D01*
X91338Y863852D01*
X91245Y863787D01*
X91162Y863732D01*
X91107Y863704D01*
X91097Y863695D01*
X91088D01*
X90922Y863621D01*
X90755Y863565D01*
X90589Y863519D01*
X90441Y863491D01*
X90321Y863473D01*
X90219Y863463D01*
X89988D01*
X89859Y863482D01*
X89609Y863528D01*
X89396Y863602D01*
X89211Y863676D01*
X89128Y863722D01*
X89064Y863759D01*
X88999Y863796D01*
X88953Y863833D01*
X88916Y863861D01*
X88888Y863879D01*
X88869Y863889D01*
X88860Y863898D01*
X88684Y864074D01*
X88546Y864268D01*
X88435Y864471D01*
X88342Y864675D01*
X88287Y864850D01*
X88259Y864924D01*
X88241Y864989D01*
X88231Y865044D01*
X88222Y865081D01*
X88213Y865109D01*
Y865118D01*
X88999Y865257D01*
X89036Y865054D01*
X89091Y864878D01*
X89156Y864730D01*
X89221Y864610D01*
X89285Y864517D01*
X89341Y864453D01*
X89378Y864407D01*
X89387Y864397D01*
X89507Y864305D01*
X89637Y864231D01*
X89757Y864185D01*
X89877Y864148D01*
X89988Y864129D01*
X90071Y864111D01*
X90145D01*
X90312Y864120D01*
X90460Y864157D01*
X90589Y864203D01*
X90700Y864249D01*
X90783Y864305D01*
X90848Y864351D01*
X90894Y864388D01*
X90903Y864397D01*
X91005Y864508D01*
X91079Y864628D01*
X91125Y864749D01*
X91162Y864859D01*
X91181Y864961D01*
X91199Y865035D01*
Y865091D01*
Y865100D01*
Y865109D01*
Y865211D01*
X91181Y865303D01*
X91135Y865461D01*
X91070Y865599D01*
X90996Y865719D01*
X90922Y865803D01*
X90857Y865867D01*
X90811Y865904D01*
X90802Y865913D01*
X90792D01*
X90635Y865997D01*
X90487Y866061D01*
X90330Y866108D01*
X90191Y866135D01*
X90071Y866154D01*
X89970Y866172D01*
X89849D01*
X89812Y866163D01*
X89766D01*
X89674Y866857D01*
X89794Y866829D01*
X89905Y866810D01*
X89997Y866792D01*
X90080Y866783D01*
X90145Y866773D01*
X90228D01*
X90423Y866792D01*
X90598Y866829D01*
X90755Y866884D01*
X90885Y866949D01*
X90987Y867014D01*
X91060Y867069D01*
X91107Y867106D01*
X91125Y867125D01*
X91245Y867263D01*
X91338Y867411D01*
X91403Y867559D01*
X91440Y867707D01*
X91467Y867827D01*
X91477Y867929D01*
X91486Y867966D01*
Y867994D01*
Y868012D01*
Y868021D01*
X91467Y868225D01*
X91421Y868410D01*
X91366Y868567D01*
X91292Y868706D01*
X91218Y868817D01*
X91162Y868900D01*
X91116Y868955D01*
X91097Y868974D01*
X90950Y869103D01*
X90792Y869196D01*
X90635Y869260D01*
X90487Y869307D01*
X90358Y869334D01*
X90256Y869344D01*
X90219Y869353D01*
X90164D01*
X89997Y869344D01*
X89840Y869307D01*
X89701Y869260D01*
X89591Y869205D01*
X89498Y869159D01*
X89424Y869112D01*
X89387Y869075D01*
X89369Y869066D01*
X89258Y868937D01*
X89165Y868789D01*
X89082Y868632D01*
X89017Y868465D01*
X88971Y868327D01*
X88953Y868262D01*
X88943Y868206D01*
X88934Y868160D01*
X88925Y868123D01*
X88916Y868105D01*
Y868095D01*
X88130Y868197D01*
X88148Y868345D01*
X88176Y868484D01*
X88259Y868743D01*
X88361Y868965D01*
X88416Y869057D01*
X88472Y869149D01*
X88527Y869233D01*
X88583Y869297D01*
X88629Y869362D01*
X88675Y869408D01*
X88703Y869445D01*
X88731Y869473D01*
X88749Y869492D01*
X88758Y869501D01*
X88869Y869584D01*
X88980Y869667D01*
X89091Y869732D01*
X89211Y869787D01*
X89443Y869880D01*
X89664Y869935D01*
X89766Y869954D01*
X89859Y869972D01*
X89942Y869982D01*
X90016Y869991D01*
X90071Y870000D01*
X90154D01*
X90330Y869991D01*
D02*
G37*
G36*
X491532Y988978D02*
X491634Y988830D01*
X491754Y988682D01*
X491865Y988553D01*
X491976Y988442D01*
X492059Y988350D01*
X492096Y988322D01*
X492124Y988294D01*
X492133Y988285D01*
X492142Y988276D01*
X492336Y988119D01*
X492530Y987971D01*
X492715Y987841D01*
X492900Y987739D01*
X493057Y987647D01*
X493122Y987610D01*
X493178Y987582D01*
X493224Y987555D01*
X493261Y987545D01*
X493279Y987527D01*
X493289D01*
Y986769D01*
X493150Y986824D01*
X493011Y986889D01*
X492873Y986954D01*
X492743Y987018D01*
X492632Y987074D01*
X492540Y987120D01*
X492484Y987157D01*
X492475Y987166D01*
X492466D01*
X492299Y987268D01*
X492151Y987370D01*
X492022Y987462D01*
X491920Y987545D01*
X491828Y987610D01*
X491772Y987665D01*
X491726Y987702D01*
X491717Y987712D01*
Y982710D01*
X490931D01*
Y989136D01*
X491440D01*
X491532Y988978D01*
D02*
G37*
G36*
X500010Y982710D02*
X499160D01*
Y985548D01*
X498069D01*
X497967Y985539D01*
X497893D01*
X497828Y985530D01*
X497782Y985520D01*
X497745D01*
X497727Y985511D01*
X497717D01*
X497569Y985465D01*
X497505Y985437D01*
X497449Y985410D01*
X497394Y985382D01*
X497357Y985363D01*
X497338Y985354D01*
X497329Y985345D01*
X497255Y985289D01*
X497181Y985225D01*
X497042Y985086D01*
X496978Y985021D01*
X496931Y984966D01*
X496904Y984929D01*
X496894Y984920D01*
X496802Y984790D01*
X496700Y984651D01*
X496599Y984503D01*
X496497Y984365D01*
X496414Y984235D01*
X496349Y984134D01*
X496321Y984097D01*
X496303Y984069D01*
X496284Y984051D01*
Y984041D01*
X495443Y982710D01*
X494389D01*
X495489Y984448D01*
X495619Y984633D01*
X495739Y984799D01*
X495859Y984938D01*
X495961Y985068D01*
X496053Y985160D01*
X496127Y985234D01*
X496173Y985280D01*
X496192Y985299D01*
X496266Y985354D01*
X496349Y985419D01*
X496515Y985520D01*
X496589Y985557D01*
X496645Y985594D01*
X496682Y985613D01*
X496700Y985622D01*
X496534Y985650D01*
X496377Y985678D01*
X496238Y985724D01*
X496099Y985761D01*
X495979Y985807D01*
X495868Y985863D01*
X495766Y985909D01*
X495674Y985955D01*
X495600Y986011D01*
X495526Y986057D01*
X495471Y986094D01*
X495424Y986131D01*
X495387Y986159D01*
X495360Y986186D01*
X495350Y986196D01*
X495341Y986205D01*
X495267Y986297D01*
X495193Y986390D01*
X495082Y986584D01*
X495008Y986778D01*
X494953Y986963D01*
X494916Y987120D01*
X494907Y987185D01*
Y987250D01*
X494897Y987296D01*
Y987333D01*
Y987351D01*
Y987360D01*
X494907Y987555D01*
X494934Y987730D01*
X494981Y987897D01*
X495027Y988035D01*
X495082Y988156D01*
X495119Y988248D01*
X495156Y988304D01*
X495165Y988313D01*
Y988322D01*
X495276Y988470D01*
X495387Y988599D01*
X495508Y988710D01*
X495619Y988793D01*
X495720Y988858D01*
X495803Y988895D01*
X495859Y988923D01*
X495868Y988932D01*
X495877D01*
X495961Y988960D01*
X496062Y988988D01*
X496266Y989034D01*
X496488Y989062D01*
X496691Y989089D01*
X496885Y989099D01*
X496968D01*
X497042Y989108D01*
X500010D01*
Y982710D01*
D02*
G37*
G36*
X489184Y984966D02*
Y984245D01*
X486401D01*
Y982710D01*
X485615D01*
Y984245D01*
X484746D01*
Y984966D01*
X485615D01*
Y989108D01*
X486253D01*
X489184Y984966D01*
D02*
G37*
G36*
X202758Y1314075D02*
X202915Y1314185D01*
X202980Y1314241D01*
X203045Y1314287D01*
X203100Y1314333D01*
X203137Y1314370D01*
X203165Y1314398D01*
X203174Y1314407D01*
X203220Y1314454D01*
X203267Y1314509D01*
X203387Y1314639D01*
X203525Y1314787D01*
X203664Y1314944D01*
X203784Y1315092D01*
X203840Y1315156D01*
X203895Y1315212D01*
X203932Y1315258D01*
X203960Y1315295D01*
X203978Y1315314D01*
X203988Y1315323D01*
X204117Y1315471D01*
X204237Y1315619D01*
X204357Y1315748D01*
X204459Y1315868D01*
X204561Y1315979D01*
X204653Y1316072D01*
X204736Y1316164D01*
X204811Y1316238D01*
X204884Y1316312D01*
X204940Y1316367D01*
X204986Y1316414D01*
X205032Y1316460D01*
X205088Y1316506D01*
X205106Y1316525D01*
X205264Y1316654D01*
X205402Y1316765D01*
X205541Y1316857D01*
X205652Y1316931D01*
X205754Y1316987D01*
X205828Y1317024D01*
X205874Y1317042D01*
X205892Y1317052D01*
X206031Y1317107D01*
X206170Y1317144D01*
X206299Y1317181D01*
X206410Y1317200D01*
X206512Y1317209D01*
X206586Y1317218D01*
X206632D01*
X206650D01*
X206789Y1317209D01*
X206919Y1317190D01*
X207048Y1317172D01*
X207159Y1317135D01*
X207381Y1317042D01*
X207556Y1316950D01*
X207640Y1316895D01*
X207704Y1316848D01*
X207769Y1316802D01*
X207815Y1316756D01*
X207852Y1316719D01*
X207889Y1316700D01*
X207899Y1316682D01*
X207908Y1316673D01*
X208000Y1316571D01*
X208083Y1316460D01*
X208148Y1316340D01*
X208204Y1316220D01*
X208296Y1315979D01*
X208361Y1315739D01*
X208379Y1315637D01*
X208398Y1315535D01*
X208407Y1315443D01*
X208416Y1315369D01*
X208426Y1315304D01*
Y1315212D01*
X208416Y1315045D01*
X208407Y1314888D01*
X208379Y1314740D01*
X208352Y1314602D01*
X208315Y1314472D01*
X208278Y1314352D01*
X208231Y1314241D01*
X208185Y1314139D01*
X208139Y1314047D01*
X208093Y1313973D01*
X208056Y1313908D01*
X208019Y1313853D01*
X207991Y1313806D01*
X207963Y1313779D01*
X207954Y1313760D01*
X207945Y1313751D01*
X207852Y1313658D01*
X207751Y1313575D01*
X207640Y1313492D01*
X207529Y1313427D01*
X207307Y1313316D01*
X207085Y1313242D01*
X206983Y1313215D01*
X206882Y1313187D01*
X206798Y1313168D01*
X206724Y1313150D01*
X206660Y1313141D01*
X206613D01*
X206586Y1313132D01*
X206576D01*
X206493Y1313936D01*
X206706Y1313954D01*
X206891Y1313991D01*
X207057Y1314047D01*
X207187Y1314112D01*
X207298Y1314167D01*
X207372Y1314223D01*
X207418Y1314259D01*
X207436Y1314278D01*
X207547Y1314417D01*
X207630Y1314565D01*
X207695Y1314722D01*
X207732Y1314861D01*
X207760Y1314990D01*
X207769Y1315101D01*
X207778Y1315138D01*
Y1315193D01*
X207769Y1315388D01*
X207732Y1315563D01*
X207677Y1315711D01*
X207621Y1315840D01*
X207556Y1315942D01*
X207510Y1316007D01*
X207473Y1316053D01*
X207455Y1316072D01*
X207325Y1316183D01*
X207196Y1316266D01*
X207066Y1316331D01*
X206937Y1316367D01*
X206835Y1316395D01*
X206743Y1316405D01*
X206687Y1316414D01*
X206678D01*
X206669D01*
X206502Y1316395D01*
X206327Y1316358D01*
X206170Y1316293D01*
X206022Y1316229D01*
X205902Y1316155D01*
X205800Y1316090D01*
X205763Y1316072D01*
X205735Y1316053D01*
X205726Y1316035D01*
X205717D01*
X205615Y1315961D01*
X205513Y1315868D01*
X205402Y1315766D01*
X205291Y1315656D01*
X205069Y1315424D01*
X204848Y1315193D01*
X204746Y1315073D01*
X204653Y1314971D01*
X204570Y1314870D01*
X204496Y1314787D01*
X204441Y1314722D01*
X204394Y1314666D01*
X204367Y1314629D01*
X204357Y1314620D01*
X204163Y1314389D01*
X203978Y1314176D01*
X203812Y1314001D01*
X203673Y1313862D01*
X203553Y1313742D01*
X203470Y1313658D01*
X203414Y1313612D01*
X203405Y1313594D01*
X203396D01*
X203239Y1313464D01*
X203091Y1313363D01*
X202943Y1313270D01*
X202813Y1313196D01*
X202703Y1313141D01*
X202619Y1313104D01*
X202564Y1313085D01*
X202555Y1313076D01*
X202545D01*
X202444Y1313039D01*
X202351Y1313021D01*
X202259Y1313002D01*
X202176Y1312993D01*
X202102Y1312984D01*
X202046D01*
X202009D01*
X202000D01*
Y1317227D01*
X202758D01*
Y1314075D01*
D02*
G37*
G36*
X208426Y1310571D02*
X208268Y1310478D01*
X208120Y1310376D01*
X207973Y1310256D01*
X207843Y1310145D01*
X207732Y1310034D01*
X207640Y1309951D01*
X207612Y1309914D01*
X207584Y1309886D01*
X207575Y1309877D01*
X207566Y1309868D01*
X207409Y1309674D01*
X207261Y1309480D01*
X207131Y1309295D01*
X207029Y1309110D01*
X206937Y1308952D01*
X206900Y1308888D01*
X206872Y1308832D01*
X206845Y1308786D01*
X206835Y1308749D01*
X206817Y1308731D01*
Y1308721D01*
X206059D01*
X206114Y1308860D01*
X206179Y1308999D01*
X206244Y1309137D01*
X206308Y1309267D01*
X206364Y1309378D01*
X206410Y1309470D01*
X206447Y1309526D01*
X206456Y1309535D01*
Y1309544D01*
X206558Y1309711D01*
X206660Y1309859D01*
X206752Y1309988D01*
X206835Y1310090D01*
X206900Y1310182D01*
X206956Y1310238D01*
X206992Y1310284D01*
X207002Y1310293D01*
X202000D01*
Y1311079D01*
X208426D01*
Y1310571D01*
D02*
G37*
G36*
X203738Y1306521D02*
X203923Y1306391D01*
X204089Y1306271D01*
X204228Y1306151D01*
X204357Y1306049D01*
X204450Y1305957D01*
X204524Y1305883D01*
X204570Y1305837D01*
X204589Y1305818D01*
X204644Y1305744D01*
X204709Y1305661D01*
X204811Y1305495D01*
X204848Y1305421D01*
X204884Y1305365D01*
X204903Y1305328D01*
X204912Y1305310D01*
X204940Y1305476D01*
X204968Y1305633D01*
X205014Y1305772D01*
X205051Y1305911D01*
X205097Y1306031D01*
X205153Y1306142D01*
X205199Y1306244D01*
X205245Y1306336D01*
X205301Y1306410D01*
X205347Y1306484D01*
X205384Y1306539D01*
X205421Y1306586D01*
X205448Y1306623D01*
X205476Y1306650D01*
X205485Y1306660D01*
X205495Y1306669D01*
X205587Y1306743D01*
X205680Y1306817D01*
X205874Y1306928D01*
X206068Y1307002D01*
X206253Y1307057D01*
X206410Y1307094D01*
X206475Y1307103D01*
X206539D01*
X206586Y1307113D01*
X206623D01*
X206641D01*
X206650D01*
X206845Y1307103D01*
X207020Y1307076D01*
X207187Y1307029D01*
X207325Y1306983D01*
X207446Y1306928D01*
X207538Y1306891D01*
X207593Y1306854D01*
X207603Y1306844D01*
X207612D01*
X207760Y1306734D01*
X207889Y1306623D01*
X208000Y1306502D01*
X208083Y1306391D01*
X208148Y1306290D01*
X208185Y1306207D01*
X208213Y1306151D01*
X208222Y1306142D01*
Y1306133D01*
X208250Y1306049D01*
X208278Y1305948D01*
X208324Y1305744D01*
X208352Y1305522D01*
X208379Y1305319D01*
X208389Y1305125D01*
Y1305042D01*
X208398Y1304968D01*
Y1302000D01*
X202000D01*
Y1302850D01*
X204838D01*
Y1303941D01*
X204829Y1304043D01*
Y1304117D01*
X204820Y1304182D01*
X204811Y1304228D01*
Y1304265D01*
X204801Y1304283D01*
Y1304293D01*
X204755Y1304441D01*
X204727Y1304505D01*
X204700Y1304561D01*
X204672Y1304616D01*
X204653Y1304653D01*
X204644Y1304672D01*
X204635Y1304681D01*
X204579Y1304755D01*
X204515Y1304829D01*
X204376Y1304968D01*
X204311Y1305032D01*
X204256Y1305079D01*
X204219Y1305106D01*
X204209Y1305116D01*
X204080Y1305208D01*
X203941Y1305310D01*
X203794Y1305412D01*
X203655Y1305513D01*
X203525Y1305596D01*
X203424Y1305661D01*
X203387Y1305689D01*
X203359Y1305707D01*
X203340Y1305726D01*
X203331D01*
X202000Y1306567D01*
Y1307621D01*
X203738Y1306521D01*
D02*
G37*
G36*
X196521Y881262D02*
X196392Y881077D01*
X196271Y880911D01*
X196151Y880772D01*
X196049Y880642D01*
X195957Y880550D01*
X195883Y880476D01*
X195837Y880430D01*
X195818Y880411D01*
X195744Y880356D01*
X195661Y880291D01*
X195495Y880190D01*
X195421Y880153D01*
X195365Y880116D01*
X195328Y880097D01*
X195310Y880088D01*
X195476Y880060D01*
X195633Y880032D01*
X195772Y879986D01*
X195911Y879949D01*
X196031Y879903D01*
X196142Y879847D01*
X196243Y879801D01*
X196336Y879755D01*
X196410Y879699D01*
X196484Y879653D01*
X196539Y879616D01*
X196586Y879579D01*
X196623Y879551D01*
X196650Y879524D01*
X196660Y879514D01*
X196669Y879505D01*
X196743Y879413D01*
X196817Y879320D01*
X196928Y879126D01*
X197002Y878932D01*
X197057Y878747D01*
X197094Y878590D01*
X197103Y878525D01*
Y878460D01*
X197113Y878414D01*
Y878377D01*
Y878359D01*
Y878350D01*
X197103Y878155D01*
X197076Y877980D01*
X197029Y877813D01*
X196983Y877675D01*
X196928Y877554D01*
X196891Y877462D01*
X196854Y877406D01*
X196845Y877397D01*
Y877388D01*
X196734Y877240D01*
X196623Y877111D01*
X196502Y877000D01*
X196392Y876917D01*
X196290Y876852D01*
X196207Y876815D01*
X196151Y876787D01*
X196142Y876778D01*
X196133D01*
X196049Y876750D01*
X195948Y876722D01*
X195744Y876676D01*
X195522Y876648D01*
X195319Y876621D01*
X195125Y876611D01*
X195042D01*
X194968Y876602D01*
X192000D01*
Y883000D01*
X192850D01*
Y880162D01*
X193941D01*
X194043Y880171D01*
X194117D01*
X194182Y880180D01*
X194228Y880190D01*
X194265D01*
X194284Y880199D01*
X194293D01*
X194441Y880245D01*
X194505Y880273D01*
X194561Y880300D01*
X194616Y880328D01*
X194653Y880347D01*
X194672Y880356D01*
X194681Y880365D01*
X194755Y880421D01*
X194829Y880485D01*
X194968Y880624D01*
X195032Y880689D01*
X195079Y880744D01*
X195106Y880781D01*
X195116Y880790D01*
X195208Y880920D01*
X195310Y881059D01*
X195411Y881207D01*
X195513Y881345D01*
X195596Y881475D01*
X195661Y881576D01*
X195689Y881613D01*
X195707Y881641D01*
X195726Y881659D01*
Y881669D01*
X196567Y883000D01*
X197621D01*
X196521Y881262D01*
D02*
G37*
G36*
X206053Y876574D02*
X205545D01*
X205452Y876732D01*
X205350Y876880D01*
X205230Y877028D01*
X205119Y877157D01*
X205008Y877268D01*
X204925Y877360D01*
X204888Y877388D01*
X204860Y877416D01*
X204851Y877425D01*
X204842Y877434D01*
X204648Y877591D01*
X204454Y877739D01*
X204269Y877869D01*
X204084Y877971D01*
X203927Y878063D01*
X203862Y878100D01*
X203806Y878128D01*
X203760Y878155D01*
X203723Y878165D01*
X203705Y878183D01*
X203696D01*
Y878941D01*
X203834Y878886D01*
X203973Y878821D01*
X204112Y878756D01*
X204241Y878692D01*
X204352Y878636D01*
X204444Y878590D01*
X204500Y878553D01*
X204509Y878544D01*
X204518D01*
X204685Y878442D01*
X204833Y878340D01*
X204962Y878248D01*
X205064Y878165D01*
X205156Y878100D01*
X205212Y878045D01*
X205258Y878008D01*
X205267Y877998D01*
Y883000D01*
X206053D01*
Y876574D01*
D02*
G37*
G36*
X201079D02*
X200571D01*
X200478Y876732D01*
X200376Y876880D01*
X200256Y877028D01*
X200145Y877157D01*
X200034Y877268D01*
X199951Y877360D01*
X199914Y877388D01*
X199886Y877416D01*
X199877Y877425D01*
X199868Y877434D01*
X199674Y877591D01*
X199480Y877739D01*
X199295Y877869D01*
X199110Y877971D01*
X198953Y878063D01*
X198888Y878100D01*
X198832Y878128D01*
X198786Y878155D01*
X198749Y878165D01*
X198731Y878183D01*
X198721D01*
Y878941D01*
X198860Y878886D01*
X198999Y878821D01*
X199137Y878756D01*
X199267Y878692D01*
X199378Y878636D01*
X199470Y878590D01*
X199526Y878553D01*
X199535Y878544D01*
X199544D01*
X199711Y878442D01*
X199859Y878340D01*
X199988Y878248D01*
X200090Y878165D01*
X200182Y878100D01*
X200238Y878045D01*
X200284Y878008D01*
X200293Y877998D01*
Y883000D01*
X201079D01*
Y876574D01*
D02*
G37*
G36*
X275000Y1309928D02*
Y1309743D01*
X274991Y1309568D01*
X274981Y1309401D01*
X274963Y1309244D01*
X274944Y1309105D01*
X274926Y1308976D01*
X274898Y1308856D01*
X274880Y1308745D01*
X274861Y1308643D01*
X274834Y1308560D01*
X274815Y1308486D01*
X274797Y1308430D01*
X274778Y1308384D01*
X274769Y1308347D01*
X274760Y1308329D01*
Y1308320D01*
X274658Y1308116D01*
X274529Y1307931D01*
X274399Y1307783D01*
X274260Y1307654D01*
X274140Y1307552D01*
X274039Y1307478D01*
X274002Y1307460D01*
X273974Y1307441D01*
X273955Y1307423D01*
X273946D01*
X273715Y1307321D01*
X273475Y1307247D01*
X273225Y1307191D01*
X272994Y1307155D01*
X272892Y1307145D01*
X272790Y1307136D01*
X272698Y1307127D01*
X272624D01*
X272559Y1307118D01*
X272476D01*
X272143Y1307136D01*
X271995Y1307155D01*
X271856Y1307173D01*
X271718Y1307201D01*
X271598Y1307229D01*
X271487Y1307256D01*
X271385Y1307293D01*
X271292Y1307330D01*
X271219Y1307358D01*
X271145Y1307386D01*
X271089Y1307413D01*
X271043Y1307441D01*
X271015Y1307450D01*
X270997Y1307469D01*
X270987D01*
X270784Y1307608D01*
X270618Y1307765D01*
X270488Y1307913D01*
X270377Y1308061D01*
X270294Y1308190D01*
X270238Y1308292D01*
X270220Y1308329D01*
X270201Y1308356D01*
X270192Y1308375D01*
Y1308384D01*
X270155Y1308495D01*
X270118Y1308615D01*
X270063Y1308865D01*
X270026Y1309124D01*
X269998Y1309373D01*
X269989Y1309484D01*
X269980Y1309595D01*
Y1309688D01*
X269970Y1309771D01*
Y1309836D01*
Y1309882D01*
Y1309919D01*
Y1309928D01*
Y1313627D01*
X270821D01*
Y1309928D01*
Y1309716D01*
X270840Y1309512D01*
X270858Y1309337D01*
X270886Y1309170D01*
X270914Y1309022D01*
X270950Y1308884D01*
X270978Y1308763D01*
X271015Y1308662D01*
X271052Y1308578D01*
X271089Y1308495D01*
X271126Y1308440D01*
X271154Y1308384D01*
X271182Y1308347D01*
X271200Y1308320D01*
X271209Y1308310D01*
X271219Y1308301D01*
X271302Y1308227D01*
X271394Y1308162D01*
X271598Y1308061D01*
X271810Y1307987D01*
X272032Y1307940D01*
X272236Y1307903D01*
X272319Y1307894D01*
X272402D01*
X272458Y1307885D01*
X272550D01*
X272744Y1307894D01*
X272920Y1307922D01*
X273086Y1307950D01*
X273216Y1307996D01*
X273327Y1308033D01*
X273410Y1308061D01*
X273456Y1308088D01*
X273475Y1308098D01*
X273604Y1308181D01*
X273715Y1308282D01*
X273807Y1308384D01*
X273872Y1308477D01*
X273927Y1308569D01*
X273974Y1308634D01*
X273992Y1308680D01*
X274002Y1308699D01*
X274029Y1308782D01*
X274048Y1308865D01*
X274085Y1309059D01*
X274112Y1309263D01*
X274131Y1309466D01*
X274140Y1309642D01*
Y1309725D01*
X274149Y1309789D01*
Y1309845D01*
Y1309891D01*
Y1309919D01*
Y1309928D01*
Y1313627D01*
X275000D01*
Y1309928D01*
D02*
G37*
G36*
X269147Y1309484D02*
Y1308763D01*
X266365D01*
Y1307229D01*
X265579D01*
Y1308763D01*
X264710D01*
Y1309484D01*
X265579D01*
Y1313627D01*
X266217D01*
X269147Y1309484D01*
D02*
G37*
%LPC*%
G36*
X312827Y1066889D02*
X312679D01*
X312587Y1066871D01*
X312420Y1066825D01*
X312272Y1066760D01*
X312143Y1066695D01*
X312041Y1066621D01*
X311967Y1066556D01*
X311921Y1066510D01*
X311902Y1066501D01*
Y1066492D01*
X311782Y1066335D01*
X311690Y1066159D01*
X311625Y1065974D01*
X311588Y1065798D01*
X311560Y1065650D01*
X311551Y1065586D01*
Y1065521D01*
X311542Y1065475D01*
Y1065438D01*
Y1065419D01*
Y1065410D01*
X311560Y1065170D01*
X311597Y1064957D01*
X311653Y1064781D01*
X311717Y1064633D01*
X311791Y1064513D01*
X311847Y1064430D01*
X311884Y1064374D01*
X311902Y1064356D01*
X312041Y1064227D01*
X312189Y1064134D01*
X312337Y1064069D01*
X312485Y1064023D01*
X312605Y1063995D01*
X312707Y1063986D01*
X312744Y1063977D01*
X312799D01*
X312993Y1063995D01*
X313169Y1064032D01*
X313326Y1064097D01*
X313465Y1064171D01*
X313567Y1064236D01*
X313650Y1064301D01*
X313696Y1064337D01*
X313715Y1064356D01*
X313835Y1064504D01*
X313927Y1064670D01*
X313983Y1064837D01*
X314029Y1064994D01*
X314057Y1065133D01*
X314066Y1065188D01*
Y1065244D01*
X314075Y1065290D01*
Y1065318D01*
Y1065336D01*
Y1065345D01*
X314057Y1065586D01*
X314020Y1065808D01*
X313955Y1066002D01*
X313881Y1066159D01*
X313816Y1066288D01*
X313752Y1066381D01*
X313733Y1066408D01*
X313715Y1066436D01*
X313696Y1066445D01*
Y1066455D01*
X313622Y1066529D01*
X313548Y1066603D01*
X313391Y1066704D01*
X313234Y1066788D01*
X313086Y1066834D01*
X312966Y1066871D01*
X312864Y1066880D01*
X312827Y1066889D01*
D02*
G37*
G36*
X320149Y1066797D02*
X318134D01*
X317884Y1066788D01*
X317672Y1066751D01*
X317487Y1066704D01*
X317348Y1066649D01*
X317228Y1066593D01*
X317154Y1066547D01*
X317108Y1066510D01*
X317089Y1066501D01*
X316978Y1066381D01*
X316895Y1066261D01*
X316840Y1066131D01*
X316793Y1066020D01*
X316775Y1065909D01*
X316766Y1065826D01*
X316756Y1065771D01*
Y1065761D01*
Y1065752D01*
X316766Y1065641D01*
X316784Y1065530D01*
X316812Y1065438D01*
X316840Y1065355D01*
X316877Y1065281D01*
X316904Y1065225D01*
X316923Y1065188D01*
X316932Y1065179D01*
X316997Y1065086D01*
X317080Y1065003D01*
X317163Y1064939D01*
X317246Y1064883D01*
X317320Y1064846D01*
X317376Y1064818D01*
X317413Y1064800D01*
X317431Y1064791D01*
X317561Y1064754D01*
X317709Y1064726D01*
X317857Y1064707D01*
X318004Y1064698D01*
X318134Y1064689D01*
X318245Y1064680D01*
X320149D01*
Y1066797D01*
D02*
G37*
G36*
X230755Y1054320D02*
X228850D01*
Y1052203D01*
X230866D01*
X231116Y1052212D01*
X231328Y1052249D01*
X231513Y1052296D01*
X231652Y1052351D01*
X231772Y1052406D01*
X231846Y1052453D01*
X231892Y1052490D01*
X231911Y1052499D01*
X232022Y1052619D01*
X232105Y1052739D01*
X232160Y1052869D01*
X232207Y1052980D01*
X232225Y1053091D01*
X232234Y1053174D01*
X232244Y1053229D01*
Y1053239D01*
Y1053248D01*
X232234Y1053359D01*
X232216Y1053470D01*
X232188Y1053562D01*
X232160Y1053645D01*
X232123Y1053719D01*
X232096Y1053775D01*
X232077Y1053812D01*
X232068Y1053821D01*
X232003Y1053914D01*
X231920Y1053997D01*
X231837Y1054062D01*
X231754Y1054117D01*
X231680Y1054154D01*
X231624Y1054182D01*
X231587Y1054200D01*
X231569Y1054209D01*
X231439Y1054246D01*
X231291Y1054274D01*
X231143Y1054293D01*
X230995Y1054302D01*
X230866Y1054311D01*
X230755Y1054320D01*
D02*
G37*
G36*
X236275Y1057353D02*
X236219D01*
X236090Y1057344D01*
X235960Y1057325D01*
X235840Y1057298D01*
X235738Y1057270D01*
X235655Y1057242D01*
X235590Y1057214D01*
X235553Y1057196D01*
X235535Y1057187D01*
X235424Y1057113D01*
X235332Y1057039D01*
X235248Y1056955D01*
X235184Y1056872D01*
X235128Y1056807D01*
X235091Y1056752D01*
X235073Y1056706D01*
X235063Y1056696D01*
X235017Y1056576D01*
X234980Y1056465D01*
X234953Y1056354D01*
X234934Y1056253D01*
X234925Y1056170D01*
X234916Y1056105D01*
Y1056068D01*
Y1056049D01*
X234934Y1055855D01*
X234971Y1055679D01*
X235026Y1055522D01*
X235100Y1055384D01*
X235165Y1055282D01*
X235221Y1055199D01*
X235258Y1055153D01*
X235276Y1055134D01*
X235415Y1055014D01*
X235572Y1054921D01*
X235720Y1054857D01*
X235868Y1054810D01*
X235997Y1054783D01*
X236099Y1054773D01*
X236136Y1054764D01*
X236192D01*
X236395Y1054783D01*
X236580Y1054820D01*
X236746Y1054884D01*
X236885Y1054949D01*
X236996Y1055023D01*
X237079Y1055088D01*
X237125Y1055125D01*
X237144Y1055143D01*
X237273Y1055291D01*
X237366Y1055448D01*
X237430Y1055605D01*
X237477Y1055744D01*
X237504Y1055883D01*
X237514Y1055985D01*
X237523Y1056022D01*
Y1056049D01*
Y1056068D01*
Y1056077D01*
X237504Y1056271D01*
X237467Y1056456D01*
X237403Y1056613D01*
X237338Y1056743D01*
X237273Y1056844D01*
X237208Y1056928D01*
X237171Y1056974D01*
X237153Y1056992D01*
X237005Y1057113D01*
X236857Y1057205D01*
X236700Y1057261D01*
X236552Y1057307D01*
X236423Y1057334D01*
X236312Y1057344D01*
X236275Y1057353D01*
D02*
G37*
G36*
X236238Y1054126D02*
X236219D01*
X236053Y1054117D01*
X235905Y1054080D01*
X235775Y1054034D01*
X235665Y1053978D01*
X235581Y1053932D01*
X235516Y1053886D01*
X235470Y1053849D01*
X235461Y1053840D01*
X235369Y1053729D01*
X235295Y1053599D01*
X235248Y1053479D01*
X235211Y1053359D01*
X235193Y1053257D01*
X235184Y1053174D01*
X235175Y1053118D01*
Y1053109D01*
Y1053100D01*
X235184Y1052952D01*
X235221Y1052823D01*
X235267Y1052702D01*
X235322Y1052601D01*
X235369Y1052517D01*
X235415Y1052453D01*
X235452Y1052416D01*
X235461Y1052406D01*
X235581Y1052305D01*
X235702Y1052231D01*
X235831Y1052185D01*
X235951Y1052148D01*
X236062Y1052129D01*
X236145Y1052111D01*
X236219D01*
X236376Y1052120D01*
X236524Y1052157D01*
X236644Y1052203D01*
X236756Y1052259D01*
X236839Y1052314D01*
X236903Y1052360D01*
X236950Y1052397D01*
X236959Y1052406D01*
X237061Y1052527D01*
X237134Y1052647D01*
X237190Y1052767D01*
X237227Y1052878D01*
X237246Y1052980D01*
X237264Y1053063D01*
Y1053118D01*
Y1053128D01*
Y1053137D01*
X237255Y1053285D01*
X237218Y1053423D01*
X237171Y1053544D01*
X237116Y1053645D01*
X237061Y1053729D01*
X237014Y1053784D01*
X236977Y1053830D01*
X236968Y1053840D01*
X236857Y1053932D01*
X236728Y1054006D01*
X236607Y1054052D01*
X236487Y1054089D01*
X236376Y1054108D01*
X236293Y1054117D01*
X236238Y1054126D01*
D02*
G37*
G36*
X290771Y1093244D02*
X290761D01*
X290752D01*
X290641Y1093234D01*
X290530Y1093216D01*
X290438Y1093188D01*
X290354Y1093160D01*
X290280Y1093123D01*
X290225Y1093096D01*
X290188Y1093077D01*
X290179Y1093068D01*
X290086Y1093003D01*
X290003Y1092920D01*
X289939Y1092837D01*
X289883Y1092754D01*
X289846Y1092680D01*
X289818Y1092624D01*
X289800Y1092587D01*
X289790Y1092569D01*
X289753Y1092439D01*
X289726Y1092291D01*
X289707Y1092143D01*
X289698Y1091995D01*
X289689Y1091866D01*
X289680Y1091755D01*
Y1089850D01*
X291797D01*
Y1091866D01*
X291788Y1092116D01*
X291751Y1092328D01*
X291704Y1092513D01*
X291649Y1092652D01*
X291593Y1092772D01*
X291547Y1092846D01*
X291510Y1092892D01*
X291501Y1092911D01*
X291381Y1093022D01*
X291261Y1093105D01*
X291131Y1093160D01*
X291020Y1093207D01*
X290909Y1093225D01*
X290826Y1093234D01*
X290771Y1093244D01*
D02*
G37*
G36*
X266660Y1093244D02*
X266650D01*
X266641D01*
X266530Y1093234D01*
X266419Y1093216D01*
X266327Y1093188D01*
X266244Y1093160D01*
X266170Y1093123D01*
X266114Y1093096D01*
X266077Y1093077D01*
X266068Y1093068D01*
X265975Y1093003D01*
X265892Y1092920D01*
X265828Y1092837D01*
X265772Y1092754D01*
X265735Y1092680D01*
X265707Y1092624D01*
X265689Y1092587D01*
X265680Y1092569D01*
X265643Y1092439D01*
X265615Y1092291D01*
X265596Y1092143D01*
X265587Y1091995D01*
X265578Y1091866D01*
X265569Y1091755D01*
Y1089850D01*
X267686D01*
Y1091866D01*
X267677Y1092116D01*
X267640Y1092328D01*
X267593Y1092513D01*
X267538Y1092652D01*
X267482Y1092772D01*
X267436Y1092846D01*
X267399Y1092892D01*
X267390Y1092911D01*
X267270Y1093022D01*
X267150Y1093105D01*
X267020Y1093160D01*
X266909Y1093207D01*
X266798Y1093225D01*
X266715Y1093234D01*
X266660Y1093244D01*
D02*
G37*
G36*
X354816Y429569D02*
X354760D01*
X354566Y429550D01*
X354391Y429504D01*
X354243Y429449D01*
X354113Y429375D01*
X354011Y429300D01*
X353938Y429245D01*
X353891Y429199D01*
X353873Y429180D01*
X353753Y429023D01*
X353660Y428857D01*
X353596Y428681D01*
X353559Y428515D01*
X353531Y428367D01*
X353521Y428302D01*
Y428246D01*
X353512Y428200D01*
Y428163D01*
Y428145D01*
Y428136D01*
X353531Y427886D01*
X353568Y427673D01*
X353623Y427488D01*
X353688Y427331D01*
X353762Y427211D01*
X353817Y427119D01*
X353854Y427063D01*
X353873Y427054D01*
Y427045D01*
X353938Y426971D01*
X354011Y426915D01*
X354160Y426814D01*
X354307Y426749D01*
X354437Y426693D01*
X354557Y426665D01*
X354650Y426656D01*
X354687Y426647D01*
X354733D01*
X354862Y426656D01*
X354982Y426675D01*
X355093Y426712D01*
X355186Y426749D01*
X355269Y426777D01*
X355334Y426814D01*
X355371Y426832D01*
X355389Y426841D01*
X355500Y426924D01*
X355592Y427008D01*
X355676Y427109D01*
X355741Y427192D01*
X355796Y427276D01*
X355833Y427341D01*
X355861Y427387D01*
X355870Y427405D01*
X355925Y427544D01*
X355962Y427683D01*
X355999Y427812D01*
X356018Y427932D01*
X356027Y428034D01*
X356036Y428117D01*
Y428163D01*
Y428182D01*
X356018Y428404D01*
X355981Y428598D01*
X355916Y428773D01*
X355851Y428912D01*
X355787Y429032D01*
X355722Y429116D01*
X355685Y429162D01*
X355667Y429180D01*
X355519Y429310D01*
X355371Y429402D01*
X355214Y429476D01*
X355075Y429522D01*
X354945Y429550D01*
X354853Y429559D01*
X354816Y429569D01*
D02*
G37*
G36*
X367150Y431797D02*
X365134D01*
X364884Y431788D01*
X364672Y431751D01*
X364487Y431704D01*
X364348Y431649D01*
X364228Y431593D01*
X364154Y431547D01*
X364108Y431510D01*
X364089Y431501D01*
X363978Y431381D01*
X363895Y431261D01*
X363840Y431131D01*
X363793Y431020D01*
X363775Y430909D01*
X363766Y430826D01*
X363756Y430771D01*
Y430761D01*
Y430752D01*
X363766Y430641D01*
X363784Y430530D01*
X363812Y430438D01*
X363840Y430354D01*
X363877Y430281D01*
X363904Y430225D01*
X363923Y430188D01*
X363932Y430179D01*
X363997Y430086D01*
X364080Y430003D01*
X364163Y429939D01*
X364246Y429883D01*
X364320Y429846D01*
X364376Y429818D01*
X364413Y429800D01*
X364431Y429791D01*
X364561Y429754D01*
X364709Y429726D01*
X364857Y429707D01*
X365005Y429698D01*
X365134Y429689D01*
X365245Y429680D01*
X367150D01*
Y431797D01*
D02*
G37*
G36*
X490149Y293797D02*
X488134D01*
X487884Y293788D01*
X487672Y293751D01*
X487487Y293704D01*
X487348Y293649D01*
X487228Y293594D01*
X487154Y293547D01*
X487108Y293510D01*
X487089Y293501D01*
X486978Y293381D01*
X486895Y293261D01*
X486840Y293131D01*
X486793Y293020D01*
X486775Y292909D01*
X486766Y292826D01*
X486756Y292771D01*
Y292761D01*
Y292752D01*
X486766Y292641D01*
X486784Y292530D01*
X486812Y292438D01*
X486840Y292355D01*
X486877Y292281D01*
X486904Y292225D01*
X486923Y292188D01*
X486932Y292179D01*
X486997Y292086D01*
X487080Y292003D01*
X487163Y291938D01*
X487246Y291883D01*
X487320Y291846D01*
X487376Y291818D01*
X487413Y291800D01*
X487431Y291791D01*
X487561Y291754D01*
X487709Y291726D01*
X487857Y291707D01*
X488005Y291698D01*
X488134Y291689D01*
X488245Y291680D01*
X490149D01*
Y293797D01*
D02*
G37*
G36*
X511431Y543149D02*
X509314D01*
Y541134D01*
X509323Y540884D01*
X509360Y540672D01*
X509407Y540487D01*
X509462Y540348D01*
X509518Y540228D01*
X509564Y540154D01*
X509601Y540108D01*
X509610Y540089D01*
X509730Y539978D01*
X509850Y539895D01*
X509980Y539840D01*
X510091Y539793D01*
X510202Y539775D01*
X510285Y539766D01*
X510340Y539756D01*
X510350D01*
X510359D01*
X510470Y539766D01*
X510581Y539784D01*
X510673Y539812D01*
X510756Y539840D01*
X510830Y539877D01*
X510886Y539904D01*
X510923Y539923D01*
X510932Y539932D01*
X511025Y539997D01*
X511108Y540080D01*
X511172Y540163D01*
X511228Y540246D01*
X511265Y540320D01*
X511293Y540376D01*
X511311Y540413D01*
X511320Y540431D01*
X511357Y540561D01*
X511385Y540709D01*
X511404Y540857D01*
X511413Y541005D01*
X511422Y541134D01*
X511431Y541245D01*
Y543149D01*
D02*
G37*
G36*
X512744Y532406D02*
X509878Y530391D01*
X512744D01*
Y532406D01*
D02*
G37*
G36*
X493771Y548244D02*
X493761D01*
X493752D01*
X493641Y548234D01*
X493530Y548216D01*
X493438Y548188D01*
X493354Y548160D01*
X493281Y548123D01*
X493225Y548096D01*
X493188Y548077D01*
X493179Y548068D01*
X493086Y548003D01*
X493003Y547920D01*
X492938Y547837D01*
X492883Y547754D01*
X492846Y547680D01*
X492818Y547624D01*
X492800Y547587D01*
X492791Y547569D01*
X492754Y547439D01*
X492726Y547291D01*
X492707Y547143D01*
X492698Y546996D01*
X492689Y546866D01*
X492680Y546755D01*
Y544851D01*
X494797D01*
Y546866D01*
X494788Y547116D01*
X494751Y547328D01*
X494704Y547513D01*
X494649Y547652D01*
X494593Y547772D01*
X494547Y547846D01*
X494510Y547892D01*
X494501Y547911D01*
X494381Y548022D01*
X494261Y548105D01*
X494131Y548160D01*
X494020Y548207D01*
X493909Y548225D01*
X493826Y548234D01*
X493771Y548244D01*
D02*
G37*
G36*
X490149Y271686D02*
X488134D01*
X487884Y271677D01*
X487672Y271640D01*
X487487Y271593D01*
X487348Y271538D01*
X487228Y271483D01*
X487154Y271436D01*
X487108Y271399D01*
X487089Y271390D01*
X486978Y271270D01*
X486895Y271150D01*
X486840Y271020D01*
X486793Y270909D01*
X486775Y270798D01*
X486766Y270715D01*
X486756Y270660D01*
Y270650D01*
Y270641D01*
X486766Y270530D01*
X486784Y270419D01*
X486812Y270327D01*
X486840Y270244D01*
X486877Y270170D01*
X486904Y270114D01*
X486923Y270077D01*
X486932Y270068D01*
X486997Y269975D01*
X487080Y269892D01*
X487163Y269828D01*
X487246Y269772D01*
X487320Y269735D01*
X487376Y269707D01*
X487413Y269689D01*
X487431Y269680D01*
X487561Y269643D01*
X487709Y269615D01*
X487857Y269596D01*
X488005Y269587D01*
X488134Y269578D01*
X488245Y269569D01*
X490149D01*
Y271686D01*
D02*
G37*
G36*
Y314686D02*
X488134D01*
X487884Y314677D01*
X487672Y314640D01*
X487487Y314594D01*
X487348Y314538D01*
X487228Y314482D01*
X487154Y314436D01*
X487108Y314399D01*
X487089Y314390D01*
X486978Y314270D01*
X486895Y314150D01*
X486840Y314020D01*
X486793Y313909D01*
X486775Y313798D01*
X486766Y313715D01*
X486756Y313660D01*
Y313650D01*
Y313641D01*
X486766Y313530D01*
X486784Y313419D01*
X486812Y313327D01*
X486840Y313244D01*
X486877Y313170D01*
X486904Y313114D01*
X486923Y313077D01*
X486932Y313068D01*
X486997Y312976D01*
X487080Y312892D01*
X487163Y312827D01*
X487246Y312772D01*
X487320Y312735D01*
X487376Y312707D01*
X487413Y312689D01*
X487431Y312680D01*
X487561Y312643D01*
X487709Y312615D01*
X487857Y312596D01*
X488005Y312587D01*
X488134Y312578D01*
X488245Y312569D01*
X490149D01*
Y314686D01*
D02*
G37*
G36*
X230505Y1079132D02*
X228600D01*
Y1077015D01*
X230616D01*
X230865Y1077024D01*
X231078Y1077061D01*
X231263Y1077107D01*
X231402Y1077162D01*
X231522Y1077218D01*
X231596Y1077264D01*
X231642Y1077301D01*
X231661Y1077310D01*
X231772Y1077431D01*
X231855Y1077551D01*
X231910Y1077680D01*
X231957Y1077791D01*
X231975Y1077902D01*
X231984Y1077985D01*
X231994Y1078041D01*
Y1078050D01*
Y1078059D01*
X231984Y1078170D01*
X231966Y1078281D01*
X231938Y1078374D01*
X231910Y1078457D01*
X231873Y1078531D01*
X231846Y1078586D01*
X231827Y1078623D01*
X231818Y1078633D01*
X231753Y1078725D01*
X231670Y1078808D01*
X231587Y1078873D01*
X231504Y1078928D01*
X231430Y1078965D01*
X231374Y1078993D01*
X231337Y1079012D01*
X231319Y1079021D01*
X231189Y1079058D01*
X231041Y1079086D01*
X230893Y1079104D01*
X230745Y1079113D01*
X230616Y1079123D01*
X230505Y1079132D01*
D02*
G37*
G36*
X306822Y1086722D02*
X306766D01*
X306572Y1086704D01*
X306397Y1086657D01*
X306249Y1086602D01*
X306119Y1086528D01*
X306018Y1086454D01*
X305944Y1086398D01*
X305897Y1086352D01*
X305879Y1086334D01*
X305759Y1086177D01*
X305666Y1086010D01*
X305602Y1085835D01*
X305565Y1085668D01*
X305537Y1085520D01*
X305528Y1085455D01*
Y1085400D01*
X305518Y1085354D01*
Y1085317D01*
Y1085298D01*
Y1085289D01*
X305537Y1085039D01*
X305574Y1084827D01*
X305629Y1084642D01*
X305694Y1084485D01*
X305768Y1084364D01*
X305823Y1084272D01*
X305861Y1084217D01*
X305879Y1084207D01*
Y1084198D01*
X305944Y1084124D01*
X306018Y1084069D01*
X306166Y1083967D01*
X306313Y1083902D01*
X306443Y1083847D01*
X306563Y1083819D01*
X306656Y1083810D01*
X306693Y1083800D01*
X306739D01*
X306868Y1083810D01*
X306988Y1083828D01*
X307099Y1083865D01*
X307192Y1083902D01*
X307275Y1083930D01*
X307340Y1083967D01*
X307377Y1083985D01*
X307395Y1083995D01*
X307506Y1084078D01*
X307599Y1084161D01*
X307682Y1084263D01*
X307747Y1084346D01*
X307802Y1084429D01*
X307839Y1084494D01*
X307867Y1084540D01*
X307876Y1084559D01*
X307931Y1084697D01*
X307968Y1084836D01*
X308005Y1084965D01*
X308024Y1085086D01*
X308033Y1085187D01*
X308042Y1085270D01*
Y1085317D01*
Y1085335D01*
X308024Y1085557D01*
X307987Y1085751D01*
X307922Y1085927D01*
X307857Y1086066D01*
X307793Y1086186D01*
X307728Y1086269D01*
X307691Y1086315D01*
X307673Y1086334D01*
X307525Y1086463D01*
X307377Y1086556D01*
X307220Y1086630D01*
X307081Y1086676D01*
X306951Y1086704D01*
X306859Y1086713D01*
X306822Y1086722D01*
D02*
G37*
G36*
X314181Y1088950D02*
X312166D01*
X311916Y1088941D01*
X311704Y1088904D01*
X311519Y1088858D01*
X311380Y1088802D01*
X311260Y1088747D01*
X311186Y1088701D01*
X311140Y1088664D01*
X311121Y1088654D01*
X311010Y1088534D01*
X310927Y1088414D01*
X310872Y1088285D01*
X310825Y1088174D01*
X310807Y1088063D01*
X310798Y1087980D01*
X310788Y1087924D01*
Y1087915D01*
Y1087906D01*
X310798Y1087794D01*
X310816Y1087684D01*
X310844Y1087591D01*
X310872Y1087508D01*
X310909Y1087434D01*
X310936Y1087378D01*
X310955Y1087342D01*
X310964Y1087332D01*
X311029Y1087240D01*
X311112Y1087157D01*
X311195Y1087092D01*
X311278Y1087036D01*
X311352Y1086999D01*
X311408Y1086972D01*
X311445Y1086953D01*
X311463Y1086944D01*
X311593Y1086907D01*
X311741Y1086879D01*
X311889Y1086861D01*
X312036Y1086852D01*
X312166Y1086842D01*
X312277Y1086833D01*
X314181D01*
Y1088950D01*
D02*
G37*
G36*
X84755Y866320D02*
X82851D01*
Y864203D01*
X84866D01*
X85116Y864212D01*
X85328Y864249D01*
X85513Y864296D01*
X85652Y864351D01*
X85772Y864407D01*
X85846Y864453D01*
X85892Y864490D01*
X85911Y864499D01*
X86022Y864619D01*
X86105Y864739D01*
X86160Y864869D01*
X86207Y864980D01*
X86225Y865091D01*
X86234Y865174D01*
X86244Y865229D01*
Y865239D01*
Y865248D01*
X86234Y865359D01*
X86216Y865470D01*
X86188Y865562D01*
X86160Y865645D01*
X86123Y865719D01*
X86096Y865775D01*
X86077Y865812D01*
X86068Y865821D01*
X86003Y865913D01*
X85920Y865997D01*
X85837Y866061D01*
X85754Y866117D01*
X85680Y866154D01*
X85624Y866182D01*
X85587Y866200D01*
X85569Y866209D01*
X85439Y866246D01*
X85291Y866274D01*
X85143Y866293D01*
X84995Y866302D01*
X84866Y866311D01*
X84755Y866320D01*
D02*
G37*
G36*
X499160Y988396D02*
X497144D01*
X496894Y988387D01*
X496682Y988350D01*
X496497Y988304D01*
X496358Y988248D01*
X496238Y988193D01*
X496164Y988146D01*
X496118Y988109D01*
X496099Y988100D01*
X495988Y987980D01*
X495905Y987860D01*
X495850Y987730D01*
X495803Y987619D01*
X495785Y987508D01*
X495776Y987425D01*
X495766Y987370D01*
Y987360D01*
Y987351D01*
X495776Y987240D01*
X495794Y987129D01*
X495822Y987037D01*
X495850Y986954D01*
X495887Y986880D01*
X495914Y986824D01*
X495933Y986787D01*
X495942Y986778D01*
X496007Y986685D01*
X496090Y986602D01*
X496173Y986537D01*
X496256Y986482D01*
X496330Y986445D01*
X496386Y986417D01*
X496423Y986399D01*
X496441Y986390D01*
X496571Y986353D01*
X496719Y986325D01*
X496867Y986306D01*
X497015Y986297D01*
X497144Y986288D01*
X497255Y986279D01*
X499160D01*
Y988396D01*
D02*
G37*
G36*
X486401Y987832D02*
Y984966D01*
X488416D01*
X486401Y987832D01*
D02*
G37*
G36*
X206660Y1306244D02*
X206650D01*
X206641D01*
X206530Y1306234D01*
X206419Y1306216D01*
X206327Y1306188D01*
X206244Y1306160D01*
X206170Y1306123D01*
X206114Y1306096D01*
X206077Y1306077D01*
X206068Y1306068D01*
X205975Y1306003D01*
X205892Y1305920D01*
X205828Y1305837D01*
X205772Y1305753D01*
X205735Y1305680D01*
X205707Y1305624D01*
X205689Y1305587D01*
X205680Y1305569D01*
X205643Y1305439D01*
X205615Y1305291D01*
X205596Y1305143D01*
X205587Y1304995D01*
X205578Y1304866D01*
X205569Y1304755D01*
Y1302850D01*
X207686D01*
Y1304866D01*
X207677Y1305116D01*
X207640Y1305328D01*
X207593Y1305513D01*
X207538Y1305652D01*
X207482Y1305772D01*
X207436Y1305846D01*
X207399Y1305892D01*
X207390Y1305911D01*
X207270Y1306022D01*
X207150Y1306105D01*
X207020Y1306160D01*
X206909Y1306207D01*
X206798Y1306225D01*
X206715Y1306234D01*
X206660Y1306244D01*
D02*
G37*
G36*
X194755Y879431D02*
X192850D01*
Y877314D01*
X194866D01*
X195116Y877323D01*
X195328Y877360D01*
X195513Y877406D01*
X195652Y877462D01*
X195772Y877517D01*
X195846Y877564D01*
X195892Y877601D01*
X195911Y877610D01*
X196022Y877730D01*
X196105Y877850D01*
X196160Y877980D01*
X196207Y878091D01*
X196225Y878202D01*
X196234Y878285D01*
X196243Y878340D01*
Y878350D01*
Y878359D01*
X196234Y878470D01*
X196216Y878581D01*
X196188Y878673D01*
X196160Y878756D01*
X196123Y878830D01*
X196096Y878886D01*
X196077Y878923D01*
X196068Y878932D01*
X196003Y879025D01*
X195920Y879108D01*
X195837Y879172D01*
X195753Y879228D01*
X195680Y879265D01*
X195624Y879293D01*
X195587Y879311D01*
X195569Y879320D01*
X195439Y879357D01*
X195291Y879385D01*
X195143Y879404D01*
X194995Y879413D01*
X194866Y879422D01*
X194755Y879431D01*
D02*
G37*
G36*
X266365Y1312351D02*
Y1309484D01*
X268380D01*
X266365Y1312351D01*
D02*
G37*
%LPD*%
D11*
X332500Y1055250D02*
Y1066750D01*
X309500Y1055250D02*
X332500D01*
X309500D02*
Y1066750D01*
X332500D01*
X216500Y1052250D02*
Y1063750D01*
X239500D01*
Y1052250D02*
Y1063750D01*
X216500Y1052250D02*
X239500D01*
X280250Y1077500D02*
X291750D01*
X280250D02*
Y1100500D01*
X291750D01*
Y1077500D02*
Y1100500D01*
X256250Y1077500D02*
X267750D01*
X256250D02*
Y1100500D01*
X267750D01*
Y1077500D02*
Y1100500D01*
X379500Y420250D02*
Y431750D01*
X356500Y420250D02*
X379500D01*
X356500D02*
Y431750D01*
X379500D01*
X502500Y282250D02*
Y293750D01*
X479500Y282250D02*
X502500D01*
X479500D02*
Y293750D01*
X502500D01*
X509250Y555500D02*
X520750D01*
Y532500D02*
Y555500D01*
X509250Y532500D02*
X520750D01*
X509250D02*
Y555500D01*
X483250Y532500D02*
X494750D01*
X483250D02*
Y555500D01*
X494750D01*
Y532500D02*
Y555500D01*
X502500Y260250D02*
Y271750D01*
X479500Y260250D02*
X502500D01*
X479500D02*
Y271750D01*
X502500D01*
Y303250D02*
Y314750D01*
X479500Y303250D02*
X502500D01*
X479500D02*
Y314750D01*
X502500D01*
X216250Y1076951D02*
Y1088451D01*
X239250D01*
Y1076951D02*
Y1088451D01*
X216250Y1076951D02*
X239250D01*
X326532Y1077403D02*
Y1088903D01*
X303532Y1077403D02*
X326532D01*
X303532D02*
Y1088903D01*
X326532D01*
X70500Y864250D02*
Y875750D01*
X93500D01*
Y864250D02*
Y875750D01*
X70500Y864250D02*
X93500D01*
X511510Y976960D02*
Y988460D01*
X488510Y976960D02*
X511510D01*
X488510D02*
Y988460D01*
X511510D01*
X196250Y1290500D02*
X207750D01*
X196250D02*
Y1313500D01*
X207750D01*
Y1290500D02*
Y1313500D01*
X180500Y877250D02*
Y888750D01*
X203500D01*
Y877250D02*
Y888750D01*
X180500Y877250D02*
X203500D01*
X288000Y1297500D02*
Y1320500D01*
X262000Y1297500D02*
X288000D01*
X262000D02*
Y1320500D01*
X288000D01*
M02*
