G04*
G04 #@! TF.GenerationSoftware,Altium Limited,Altium Designer,24.0.1 (36)*
G04*
G04 Layer_Color=32768*
%FSLAX44Y44*%
%MOMM*%
G71*
G04*
G04 #@! TF.SameCoordinates,7A80B53C-B2C1-45D1-8136-E7169236FAC4*
G04*
G04*
G04 #@! TF.FilePolarity,Positive*
G04*
G01*
G75*
%ADD11C,0.2000*%
%ADD137C,0.0500*%
D11*
X451250Y378500D02*
X462750D01*
X451250Y355500D02*
Y378500D01*
Y355500D02*
X462750D01*
Y378500D01*
X127351Y1112395D02*
Y1143605D01*
X96649Y1112395D02*
X127351D01*
X96649D02*
Y1143605D01*
X127351D01*
X129649Y1112395D02*
Y1143605D01*
X160351D01*
Y1112395D02*
Y1143605D01*
X129649Y1112395D02*
X160351D01*
X136905Y328780D02*
Y361780D01*
X103905Y328780D02*
X136905D01*
X103905D02*
Y361780D01*
X136905D01*
X503500Y348250D02*
Y359750D01*
X480500D02*
X503500D01*
X480500Y348250D02*
Y359750D01*
Y348250D02*
X503500D01*
X505500Y269250D02*
Y280750D01*
X482500D02*
X505500D01*
X482500Y269250D02*
Y280750D01*
Y269250D02*
X505500D01*
X482500Y472250D02*
Y483750D01*
Y472250D02*
X505500D01*
Y483750D01*
X482500D02*
X505500D01*
X503500Y326250D02*
Y337750D01*
X480500D02*
X503500D01*
X480500Y326250D02*
Y337750D01*
Y326250D02*
X503500D01*
X279500Y303250D02*
Y314750D01*
Y303250D02*
X302500D01*
Y314750D01*
X279500D02*
X302500D01*
X279500Y326250D02*
Y337750D01*
Y326250D02*
X302500D01*
Y337750D01*
X279500D02*
X302500D01*
X479996Y427484D02*
Y438984D01*
Y427484D02*
X502996D01*
Y438984D01*
X479996D02*
X502996D01*
X189250Y556500D02*
X200750D01*
X189250Y533500D02*
Y556500D01*
Y533500D02*
X200750D01*
Y556500D01*
X189250Y490500D02*
X200750D01*
Y513500D01*
X189250D02*
X200750D01*
X189250Y490500D02*
Y513500D01*
X190250Y164000D02*
X201750D01*
X190250Y141000D02*
Y164000D01*
Y141000D02*
X201750D01*
Y164000D01*
X481500Y529001D02*
Y540501D01*
Y529001D02*
X504500D01*
Y540501D01*
X481500D02*
X504500D01*
X435500Y878250D02*
Y889750D01*
Y878250D02*
X458500D01*
Y889750D01*
X435500D02*
X458500D01*
X187500Y677250D02*
Y688750D01*
X164500D02*
X187500D01*
X164500Y677250D02*
Y688750D01*
Y677250D02*
X187500D01*
X340605Y117649D02*
Y148351D01*
X309395D02*
X340605D01*
X309395Y117649D02*
Y148351D01*
Y117649D02*
X340605D01*
X386044Y295269D02*
X445544D01*
Y354769D01*
X386044D02*
X445544D01*
X386044Y295269D02*
Y354769D01*
X296029Y346459D02*
Y371541D01*
X253447D02*
X296029D01*
X253447Y346459D02*
Y371541D01*
Y346459D02*
X296029D01*
X241000Y469750D02*
Y486250D01*
X213000D02*
X241000D01*
X213000Y469750D02*
Y486250D01*
Y469750D02*
X241000D01*
X231395Y694351D02*
X262605D01*
Y663649D02*
Y694351D01*
X231395Y663649D02*
X262605D01*
X231395D02*
Y694351D01*
Y713649D02*
X262605D01*
X231395D02*
Y744351D01*
X262605D01*
Y713649D02*
Y744351D01*
X423649Y1131395D02*
Y1162605D01*
X454351D01*
Y1131395D02*
Y1162605D01*
X423649Y1131395D02*
X454351D01*
X375649D02*
Y1162605D01*
X406351D01*
Y1131395D02*
Y1162605D01*
X375649Y1131395D02*
X406351D01*
X101980Y159000D02*
Y213000D01*
X72980Y159000D02*
X101980D01*
X72980Y213000D02*
X101980D01*
X72980Y159000D02*
Y213000D01*
X136980Y159000D02*
Y213000D01*
X107980Y159000D02*
X136980D01*
X107980Y213000D02*
X136980D01*
X107980Y159000D02*
Y213000D01*
X88000Y621500D02*
Y783000D01*
X149000D01*
Y621500D02*
Y783000D01*
X88000Y621500D02*
X149000D01*
X375649Y1094395D02*
X406351D01*
Y1125605D01*
X375649D02*
X406351D01*
X375649Y1094395D02*
Y1125605D01*
X336649Y543395D02*
X367351D01*
Y574605D01*
X336649D02*
X367351D01*
X336649Y543395D02*
Y574605D01*
X432649Y571395D02*
X463351D01*
Y602605D01*
X432649D02*
X463351D01*
X432649Y571395D02*
Y602605D01*
X68500Y489000D02*
X124500D01*
Y561000D01*
X68500D02*
X124500D01*
X68500Y489000D02*
Y561000D01*
X262000Y555000D02*
X318000D01*
X262000Y483000D02*
Y555000D01*
Y483000D02*
X318000D01*
Y555000D01*
X423649Y1125605D02*
X454351D01*
X423649Y1094395D02*
Y1125605D01*
Y1094395D02*
X454351D01*
Y1125605D01*
X96649Y1151395D02*
X127351D01*
Y1182605D01*
X96649D02*
X127351D01*
X96649Y1151395D02*
Y1182605D01*
X129649Y1151395D02*
X160351D01*
Y1182605D01*
X129649D02*
X160351D01*
X129649Y1151395D02*
Y1182605D01*
X229500Y412500D02*
X262500D01*
Y379500D02*
Y412500D01*
X229500Y379500D02*
X262500D01*
X229500D02*
Y412500D01*
X252000Y227250D02*
Y251750D01*
X240000Y227250D02*
X252000D01*
X240000D02*
Y251750D01*
X252000D01*
X209820Y250390D02*
Y272390D01*
X198820Y250390D02*
X209820D01*
X198820D02*
Y272390D01*
X209820D01*
X451000Y856750D02*
X479000D01*
X451000D02*
Y873250D01*
X479000D01*
Y856750D02*
Y873250D01*
X288291Y427459D02*
Y452541D01*
X245709Y427459D02*
Y452541D01*
X288291D01*
X245709Y427459D02*
X288291D01*
X218500Y508709D02*
X249500D01*
Y539291D01*
X218500D02*
X249500D01*
X218500Y508709D02*
Y539291D01*
X177500Y510709D02*
Y541291D01*
X146500D02*
X177500D01*
X146500Y510709D02*
X177500D01*
X146500D02*
Y541291D01*
D137*
X396644Y219918D02*
X414644D01*
X396644Y228918D02*
X414644D01*
Y219918D02*
Y228918D01*
X396644Y219918D02*
Y228918D01*
X422446Y228379D02*
X440446D01*
X422446Y219379D02*
X440446D01*
X422446D02*
Y228379D01*
X440446Y219379D02*
Y228379D01*
X214830Y196670D02*
X226830D01*
X214830Y220670D02*
X226830D01*
X214830Y196670D02*
Y220670D01*
X226830Y196670D02*
Y220670D01*
X220830Y203920D02*
Y213420D01*
X216080Y208670D02*
X225580D01*
M02*
