G04*
G04 #@! TF.GenerationSoftware,Altium Limited,Altium Designer,24.0.1 (36)*
G04*
G04 Layer_Physical_Order=4*
G04 Layer_Color=16711680*
%FSLAX44Y44*%
%MOMM*%
G71*
G04*
G04 #@! TF.SameCoordinates,7A80B53C-B2C1-45D1-8136-E7169236FAC4*
G04*
G04*
G04 #@! TF.FilePolarity,Positive*
G04*
G01*
G75*
%ADD10C,0.2500*%
%ADD11C,0.2000*%
%ADD22R,0.8000X0.9000*%
%ADD23R,0.9000X0.6500*%
%ADD24R,0.9000X0.8000*%
%ADD28R,0.6500X0.9000*%
G04:AMPARAMS|DCode=31|XSize=1mm|YSize=1.3mm|CornerRadius=0.25mm|HoleSize=0mm|Usage=FLASHONLY|Rotation=0.000|XOffset=0mm|YOffset=0mm|HoleType=Round|Shape=RoundedRectangle|*
%AMROUNDEDRECTD31*
21,1,1.0000,0.8000,0,0,0.0*
21,1,0.5000,1.3000,0,0,0.0*
1,1,0.5000,0.2500,-0.4000*
1,1,0.5000,-0.2500,-0.4000*
1,1,0.5000,-0.2500,0.4000*
1,1,0.5000,0.2500,0.4000*
%
%ADD31ROUNDEDRECTD31*%
%ADD32R,0.3600X0.2500*%
G04:AMPARAMS|DCode=34|XSize=1mm|YSize=1.3mm|CornerRadius=0.25mm|HoleSize=0mm|Usage=FLASHONLY|Rotation=270.000|XOffset=0mm|YOffset=0mm|HoleType=Round|Shape=RoundedRectangle|*
%AMROUNDEDRECTD34*
21,1,1.0000,0.8000,0,0,270.0*
21,1,0.5000,1.3000,0,0,270.0*
1,1,0.5000,-0.4000,-0.2500*
1,1,0.5000,-0.4000,0.2500*
1,1,0.5000,0.4000,0.2500*
1,1,0.5000,0.4000,-0.2500*
%
%ADD34ROUNDEDRECTD34*%
%ADD80O,1.5700X2.0000*%
G04:AMPARAMS|DCode=82|XSize=1.8mm|YSize=3.8mm|CornerRadius=0.9mm|HoleSize=0mm|Usage=FLASHONLY|Rotation=0.000|XOffset=0mm|YOffset=0mm|HoleType=Round|Shape=RoundedRectangle|*
%AMROUNDEDRECTD82*
21,1,1.8000,2.0000,0,0,0.0*
21,1,0.0000,3.8000,0,0,0.0*
1,1,1.8000,0.0000,-1.0000*
1,1,1.8000,0.0000,-1.0000*
1,1,1.8000,0.0000,1.0000*
1,1,1.8000,0.0000,1.0000*
%
%ADD82ROUNDEDRECTD82*%
G04:AMPARAMS|DCode=83|XSize=3.7mm|YSize=1.8mm|CornerRadius=0.9mm|HoleSize=0mm|Usage=FLASHONLY|Rotation=0.000|XOffset=0mm|YOffset=0mm|HoleType=Round|Shape=RoundedRectangle|*
%AMROUNDEDRECTD83*
21,1,3.7000,0.0000,0,0,0.0*
21,1,1.9000,1.8000,0,0,0.0*
1,1,1.8000,0.9500,0.0000*
1,1,1.8000,-0.9500,0.0000*
1,1,1.8000,-0.9500,0.0000*
1,1,1.8000,0.9500,0.0000*
%
%ADD83ROUNDEDRECTD83*%
G04:AMPARAMS|DCode=84|XSize=3.8mm|YSize=1.8mm|CornerRadius=0.45mm|HoleSize=0mm|Usage=FLASHONLY|Rotation=0.000|XOffset=0mm|YOffset=0mm|HoleType=Round|Shape=RoundedRectangle|*
%AMROUNDEDRECTD84*
21,1,3.8000,0.9000,0,0,0.0*
21,1,2.9000,1.8000,0,0,0.0*
1,1,0.9000,1.4500,-0.4500*
1,1,0.9000,-1.4500,-0.4500*
1,1,0.9000,-1.4500,0.4500*
1,1,0.9000,1.4500,0.4500*
%
%ADD84ROUNDEDRECTD84*%
%ADD87O,2.0000X1.5700*%
%ADD95C,1.5000*%
%ADD97C,0.4000*%
%ADD99C,0.6000*%
%ADD101C,0.1530*%
%ADD102C,0.1700*%
%ADD104C,0.5000*%
%ADD105C,0.5700*%
%ADD106O,1.4000X1.1500*%
%ADD107C,3.2000*%
%ADD108O,1.8000X1.5000*%
G04:AMPARAMS|DCode=109|XSize=2mm|YSize=2mm|CornerRadius=0.5mm|HoleSize=0mm|Usage=FLASHONLY|Rotation=270.000|XOffset=0mm|YOffset=0mm|HoleType=Round|Shape=RoundedRectangle|*
%AMROUNDEDRECTD109*
21,1,2.0000,1.0000,0,0,270.0*
21,1,1.0000,2.0000,0,0,270.0*
1,1,1.0000,-0.5000,-0.5000*
1,1,1.0000,-0.5000,0.5000*
1,1,1.0000,0.5000,0.5000*
1,1,1.0000,0.5000,-0.5000*
%
%ADD109ROUNDEDRECTD109*%
%ADD110O,1.5000X1.5240*%
%ADD111C,3.7000*%
%ADD112C,0.5600*%
%ADD113C,0.5550*%
%ADD114R,4.5000X3.5000*%
%ADD115R,0.5220X0.6000*%
%ADD116R,0.1000X0.1000*%
%ADD117R,1.0500X0.6000*%
%ADD118R,2.0000X0.8000*%
%ADD119R,1.9000X1.4000*%
%ADD120R,1.4000X1.8000*%
G04:AMPARAMS|DCode=121|XSize=0.45mm|YSize=1.45mm|CornerRadius=0.1125mm|HoleSize=0mm|Usage=FLASHONLY|Rotation=0.000|XOffset=0mm|YOffset=0mm|HoleType=Round|Shape=RoundedRectangle|*
%AMROUNDEDRECTD121*
21,1,0.4500,1.2250,0,0,0.0*
21,1,0.2250,1.4500,0,0,0.0*
1,1,0.2250,0.1125,-0.6125*
1,1,0.2250,-0.1125,-0.6125*
1,1,0.2250,-0.1125,0.6125*
1,1,0.2250,0.1125,0.6125*
%
%ADD121ROUNDEDRECTD121*%
G04:AMPARAMS|DCode=122|XSize=0.3mm|YSize=1.35mm|CornerRadius=0.075mm|HoleSize=0mm|Usage=FLASHONLY|Rotation=0.000|XOffset=0mm|YOffset=0mm|HoleType=Round|Shape=RoundedRectangle|*
%AMROUNDEDRECTD122*
21,1,0.3000,1.2000,0,0,0.0*
21,1,0.1500,1.3500,0,0,0.0*
1,1,0.1500,0.0750,-0.6000*
1,1,0.1500,-0.0750,-0.6000*
1,1,0.1500,-0.0750,0.6000*
1,1,0.1500,0.0750,0.6000*
%
%ADD122ROUNDEDRECTD122*%
G04:AMPARAMS|DCode=123|XSize=0.45mm|YSize=1.45mm|CornerRadius=0.1125mm|HoleSize=0mm|Usage=FLASHONLY|Rotation=90.000|XOffset=0mm|YOffset=0mm|HoleType=Round|Shape=RoundedRectangle|*
%AMROUNDEDRECTD123*
21,1,0.4500,1.2250,0,0,90.0*
21,1,0.2250,1.4500,0,0,90.0*
1,1,0.2250,0.6125,0.1125*
1,1,0.2250,0.6125,-0.1125*
1,1,0.2250,-0.6125,-0.1125*
1,1,0.2250,-0.6125,0.1125*
%
%ADD123ROUNDEDRECTD123*%
G04:AMPARAMS|DCode=124|XSize=0.5mm|YSize=0.25mm|CornerRadius=0.125mm|HoleSize=0mm|Usage=FLASHONLY|Rotation=180.000|XOffset=0mm|YOffset=0mm|HoleType=Round|Shape=RoundedRectangle|*
%AMROUNDEDRECTD124*
21,1,0.5000,0.0000,0,0,180.0*
21,1,0.2500,0.2500,0,0,180.0*
1,1,0.2500,-0.1250,0.0000*
1,1,0.2500,0.1250,0.0000*
1,1,0.2500,0.1250,0.0000*
1,1,0.2500,-0.1250,0.0000*
%
%ADD124ROUNDEDRECTD124*%
%ADD125R,0.6500X1.3500*%
%ADD126C,0.1880*%
%ADD127C,0.1885*%
%ADD128C,0.1596*%
G36*
X463541Y1110418D02*
X463551Y1110368D01*
X463544Y1110318D01*
X463592Y1109338D01*
X463629Y1109191D01*
Y1109040D01*
X464011Y1107117D01*
X464088Y1106932D01*
X464127Y1106735D01*
X464877Y1104923D01*
X464989Y1104756D01*
X465066Y1104571D01*
X466155Y1102941D01*
X466297Y1102799D01*
X466408Y1102632D01*
X467794Y1101246D01*
X467962Y1101134D01*
X468103Y1100992D01*
X469734Y1099903D01*
X469919Y1099826D01*
X470086Y1099715D01*
X471897Y1098964D01*
X472094Y1098925D01*
X472280Y1098848D01*
X474202Y1098466D01*
X474343D01*
X474480Y1098430D01*
X475460Y1098372D01*
X475520Y1098381D01*
X475580Y1098369D01*
X548541D01*
Y831650D01*
X547271Y830801D01*
X547082Y830880D01*
X485182D01*
X484003Y830391D01*
X483515Y829213D01*
Y649213D01*
X484003Y648034D01*
X485182Y647546D01*
X547082D01*
X547271Y647624D01*
X548541Y646776D01*
Y343822D01*
X547500Y343270D01*
X547271Y343270D01*
X537980D01*
Y335250D01*
Y327230D01*
X547271D01*
X547500Y327230D01*
X548541Y326678D01*
Y104831D01*
X547643Y103933D01*
X183280Y103947D01*
X183230Y103937D01*
X183180Y103944D01*
X182200Y103896D01*
X182054Y103860D01*
X181902D01*
X179980Y103477D01*
X179794Y103400D01*
X179597Y103361D01*
X177786Y102611D01*
X177619Y102499D01*
X177433Y102422D01*
X175804Y101333D01*
X175662Y101191D01*
X175494Y101080D01*
X174108Y99694D01*
X173997Y99527D01*
X173855Y99385D01*
X172766Y97755D01*
X172689Y97569D01*
X172577Y97402D01*
X171827Y95591D01*
X171788Y95394D01*
X171711Y95209D01*
X171329Y93286D01*
Y93135D01*
X171292Y92988D01*
X171244Y92008D01*
X171251Y91958D01*
X171241Y91908D01*
X171240Y2447D01*
X38863D01*
X2619Y77872D01*
Y1098369D01*
X75581Y1098379D01*
X75630Y1098389D01*
X75680Y1098381D01*
X76660Y1098429D01*
X76807Y1098466D01*
X76958D01*
X78881Y1098848D01*
X79067Y1098925D01*
X79264Y1098964D01*
X81075Y1099715D01*
X81242Y1099826D01*
X81427Y1099903D01*
X83057Y1100992D01*
X83199Y1101134D01*
X83366Y1101246D01*
X84752Y1102632D01*
X84864Y1102799D01*
X85006Y1102941D01*
X86095Y1104571D01*
X86172Y1104756D01*
X86283Y1104923D01*
X87034Y1106735D01*
X87073Y1106932D01*
X87150Y1107117D01*
X87532Y1109040D01*
Y1109191D01*
X87569Y1109337D01*
X87617Y1110318D01*
X87610Y1110368D01*
X87619Y1110418D01*
Y1348392D01*
X463541D01*
Y1110418D01*
D02*
G37*
%LPC*%
G36*
X373000Y1333845D02*
X266964D01*
X265876Y1333628D01*
X264953Y1333011D01*
X264953Y1333011D01*
X263489Y1331547D01*
X262872Y1330624D01*
X262655Y1329536D01*
Y1317790D01*
X262239Y1317511D01*
X261622Y1316589D01*
X261405Y1315500D01*
X261622Y1314411D01*
X262239Y1313488D01*
X262798Y1313115D01*
X262413Y1311845D01*
X208040D01*
Y1314040D01*
X195960D01*
Y1304460D01*
X208040D01*
Y1306155D01*
X262413D01*
X262798Y1304885D01*
X262239Y1304512D01*
X261622Y1303589D01*
X261405Y1302500D01*
X261622Y1301411D01*
X262239Y1300488D01*
X262655Y1300210D01*
Y1289500D01*
X262872Y1288411D01*
X263489Y1287489D01*
X276989Y1273988D01*
X277911Y1273372D01*
X279000Y1273155D01*
X369822D01*
X406155Y1236822D01*
Y1149350D01*
X400445D01*
X400148Y1151601D01*
X399202Y1153885D01*
X397697Y1155847D01*
X395736Y1157352D01*
X393451Y1158298D01*
X391000Y1158621D01*
X388549Y1158298D01*
X386264Y1157352D01*
X384303Y1155847D01*
X382798Y1153885D01*
X381852Y1151601D01*
X381529Y1149150D01*
Y1144850D01*
X381852Y1142399D01*
X382798Y1140115D01*
X384303Y1138153D01*
X386264Y1136648D01*
X388549Y1135702D01*
X391000Y1135379D01*
X393451Y1135702D01*
X395736Y1136648D01*
X397697Y1138153D01*
X399202Y1140115D01*
X400148Y1142399D01*
X400445Y1144650D01*
X406155D01*
Y1112350D01*
X400445D01*
X400148Y1114601D01*
X399202Y1116886D01*
X397697Y1118847D01*
X395736Y1120352D01*
X393451Y1121298D01*
X391000Y1121621D01*
X388549Y1121298D01*
X386264Y1120352D01*
X384303Y1118847D01*
X382798Y1116886D01*
X381852Y1114601D01*
X381529Y1112150D01*
Y1107850D01*
X381852Y1105399D01*
X382798Y1103114D01*
X384303Y1101153D01*
X386264Y1099648D01*
X388549Y1098702D01*
X391000Y1098379D01*
X393451Y1098702D01*
X395736Y1099648D01*
X397697Y1101153D01*
X399202Y1103114D01*
X400148Y1105399D01*
X400445Y1107650D01*
X406155D01*
Y992845D01*
X377293D01*
X376458Y993679D01*
X374863Y994340D01*
X373137D01*
X371542Y993679D01*
X370321Y992458D01*
X369660Y990863D01*
Y989137D01*
X370321Y987542D01*
X371542Y986321D01*
X373137Y985660D01*
X374863D01*
X376458Y986321D01*
X377293Y987155D01*
X406155D01*
Y973178D01*
X358317Y925340D01*
X357137D01*
X355542Y924679D01*
X354321Y923458D01*
X353660Y921863D01*
Y920683D01*
X338447Y905470D01*
X278667D01*
X278017Y906397D01*
X277916Y906740D01*
X278092Y907625D01*
Y909875D01*
X277885Y910915D01*
X277296Y911796D01*
X276415Y912385D01*
X275375Y912592D01*
X269590D01*
Y920460D01*
X273040D01*
Y923410D01*
X295000D01*
X295991Y923607D01*
X296831Y924169D01*
X311348Y938685D01*
X312858D01*
X314444Y939342D01*
X315658Y940556D01*
X316315Y942142D01*
Y943858D01*
X315658Y945444D01*
X314444Y946658D01*
X312858Y947315D01*
X311142D01*
X309556Y946658D01*
X308342Y945444D01*
X307685Y943858D01*
Y942347D01*
X293927Y928590D01*
X273040D01*
Y931540D01*
X260960D01*
Y920460D01*
X264410D01*
Y912592D01*
X263125D01*
X262085Y912385D01*
X261204Y911796D01*
X260615Y910915D01*
X260408Y909875D01*
Y907625D01*
X260615Y906585D01*
X260762Y906365D01*
X260083Y905095D01*
X253250D01*
X253250Y905095D01*
X252161Y904878D01*
X251238Y904261D01*
X251238Y904261D01*
X250238Y903261D01*
X249622Y902339D01*
X249405Y901250D01*
Y878428D01*
X243822Y872845D01*
X221293D01*
X220458Y873679D01*
X218863Y874340D01*
X217137D01*
X215542Y873679D01*
X214321Y872458D01*
X213660Y870863D01*
Y869683D01*
X193988Y850012D01*
X193372Y849089D01*
X193155Y848000D01*
Y821178D01*
X177822Y805845D01*
X128178D01*
X118298Y815725D01*
X118393Y816384D01*
X119416Y817011D01*
X119741Y817084D01*
X120625Y816908D01*
X122875D01*
X123915Y817115D01*
X124796Y817704D01*
X125385Y818585D01*
X125592Y819625D01*
Y823400D01*
X132960D01*
Y819960D01*
X144040D01*
Y832040D01*
X142845D01*
Y845822D01*
X152178Y855155D01*
X174707D01*
X175542Y854321D01*
X177137Y853660D01*
X178863D01*
X180458Y854321D01*
X181679Y855542D01*
X182340Y857137D01*
Y858863D01*
X181679Y860458D01*
X180458Y861679D01*
X178863Y862340D01*
X177137D01*
X175542Y861679D01*
X174707Y860845D01*
X151000D01*
X149911Y860628D01*
X148989Y860012D01*
X148988Y860011D01*
X137989Y849012D01*
X137372Y848089D01*
X137155Y847000D01*
Y832040D01*
X132960D01*
Y828100D01*
X125592D01*
Y831875D01*
X125385Y832915D01*
X124796Y833796D01*
X123915Y834385D01*
X122875Y834592D01*
X120625D01*
X119585Y834385D01*
X119099Y834061D01*
X117865Y834613D01*
X117845Y834633D01*
Y838000D01*
X117845Y838000D01*
X117628Y839089D01*
X117011Y840012D01*
X114011Y843011D01*
X113089Y843628D01*
X112000Y843845D01*
X79000D01*
X77911Y843628D01*
X76989Y843011D01*
X19988Y786012D01*
X19372Y785089D01*
X19155Y784000D01*
Y453000D01*
X19372Y451911D01*
X19988Y450989D01*
X45988Y424989D01*
X46911Y424372D01*
X48000Y424155D01*
X48000Y424155D01*
X60707D01*
X61542Y423321D01*
X63137Y422660D01*
X64863D01*
X66458Y423321D01*
X67679Y424542D01*
X68340Y426137D01*
Y427863D01*
X67679Y429458D01*
X66458Y430679D01*
X64863Y431340D01*
X63137D01*
X61542Y430679D01*
X60707Y429845D01*
X49178D01*
X24845Y454178D01*
Y782822D01*
X80178Y838155D01*
X110822D01*
X112155Y836822D01*
Y835084D01*
X110916Y834386D01*
X110885Y834391D01*
X109875Y834592D01*
X107625D01*
X106585Y834385D01*
X105704Y833796D01*
X104233Y833881D01*
X104212Y833895D01*
X103375Y834062D01*
X103250D01*
Y825750D01*
Y817438D01*
X103375D01*
X104212Y817605D01*
X104233Y817619D01*
X104770Y817650D01*
X105905Y816614D01*
Y811250D01*
X106122Y810161D01*
X106739Y809239D01*
X115959Y800018D01*
X115473Y798845D01*
X70000D01*
X68911Y798628D01*
X67989Y798011D01*
X27989Y758011D01*
X27372Y757089D01*
X27155Y756000D01*
Y473000D01*
X27372Y471911D01*
X27989Y470989D01*
X59660Y439317D01*
Y438137D01*
X60321Y436542D01*
X61542Y435321D01*
X63137Y434660D01*
X64863D01*
X66458Y435321D01*
X67679Y436542D01*
X68340Y438137D01*
Y439863D01*
X67679Y441458D01*
X66458Y442679D01*
X64863Y443340D01*
X63683D01*
X32845Y474178D01*
Y754822D01*
X71178Y793155D01*
X202000D01*
X203089Y793372D01*
X204011Y793988D01*
X266178Y856155D01*
X292000D01*
X293089Y856372D01*
X294011Y856989D01*
X324106Y887083D01*
X324106Y887083D01*
X324723Y888006D01*
X324939Y889095D01*
X324939Y889095D01*
Y892530D01*
X348155D01*
Y852178D01*
X345317Y849340D01*
X344137D01*
X342542Y848679D01*
X341321Y847458D01*
X340660Y845863D01*
Y844137D01*
X341321Y842542D01*
X342542Y841321D01*
X344137Y840660D01*
X345863D01*
X347458Y841321D01*
X348679Y842542D01*
X349340Y844137D01*
Y845317D01*
X353012Y848988D01*
X353628Y849911D01*
X353845Y851000D01*
Y895822D01*
X422011Y963988D01*
X422011Y963988D01*
X422628Y964911D01*
X422845Y966000D01*
X422845Y966000D01*
Y1107650D01*
X429555D01*
X429852Y1105399D01*
X430798Y1103114D01*
X432303Y1101153D01*
X434264Y1099648D01*
X436549Y1098702D01*
X439000Y1098379D01*
X441451Y1098702D01*
X443736Y1099648D01*
X445697Y1101153D01*
X447202Y1103114D01*
X448148Y1105399D01*
X448471Y1107850D01*
Y1112150D01*
X448148Y1114601D01*
X447202Y1116886D01*
X445697Y1118847D01*
X443736Y1120352D01*
X441451Y1121298D01*
X439000Y1121621D01*
X436549Y1121298D01*
X434264Y1120352D01*
X432303Y1118847D01*
X430798Y1116886D01*
X429852Y1114601D01*
X429555Y1112350D01*
X422845D01*
Y1144650D01*
X429555D01*
X429852Y1142399D01*
X430798Y1140115D01*
X432303Y1138153D01*
X434264Y1136648D01*
X436549Y1135702D01*
X439000Y1135379D01*
X441451Y1135702D01*
X443736Y1136648D01*
X445697Y1138153D01*
X447202Y1140115D01*
X448148Y1142399D01*
X448471Y1144850D01*
Y1149150D01*
X448148Y1151601D01*
X447202Y1153885D01*
X445697Y1155847D01*
X443736Y1157352D01*
X441451Y1158298D01*
X439000Y1158621D01*
X436549Y1158298D01*
X434264Y1157352D01*
X432303Y1155847D01*
X430798Y1153885D01*
X429852Y1151601D01*
X429555Y1149350D01*
X422845D01*
Y1284000D01*
X422628Y1285089D01*
X422011Y1286012D01*
X375011Y1333011D01*
X374089Y1333628D01*
X373000Y1333845D01*
D02*
G37*
G36*
X117000Y1340022D02*
X113679Y1339695D01*
X110486Y1338726D01*
X107543Y1337153D01*
X104964Y1335036D01*
X102847Y1332457D01*
X101274Y1329514D01*
X100305Y1326321D01*
X99978Y1323000D01*
X100305Y1319679D01*
X101274Y1316486D01*
X102847Y1313543D01*
X104964Y1310964D01*
X107543Y1308847D01*
X110486Y1307274D01*
X113679Y1306305D01*
X117000Y1305978D01*
X120321Y1306305D01*
X123514Y1307274D01*
X126457Y1308847D01*
X129036Y1310964D01*
X131153Y1313543D01*
X132726Y1316486D01*
X133695Y1319679D01*
X134022Y1323000D01*
X133695Y1326321D01*
X132726Y1329514D01*
X131153Y1332457D01*
X129036Y1335036D01*
X126457Y1337153D01*
X123514Y1338726D01*
X120321Y1339695D01*
X117000Y1340022D01*
D02*
G37*
G36*
X208040Y1299540D02*
X195960D01*
Y1297220D01*
X193883D01*
X193444Y1297658D01*
X191858Y1298315D01*
X190142D01*
X188556Y1297658D01*
X187342Y1296444D01*
X186685Y1294858D01*
Y1293142D01*
X187342Y1291556D01*
X188556Y1290342D01*
X190142Y1289685D01*
X191858D01*
X193444Y1290342D01*
X194633Y1291530D01*
X195960D01*
Y1289960D01*
X208040D01*
Y1299540D01*
D02*
G37*
G36*
X220044Y1247860D02*
X216096D01*
X212225Y1247090D01*
X208577Y1245579D01*
X205295Y1243386D01*
X202504Y1240595D01*
X200311Y1237312D01*
X198800Y1233665D01*
X198030Y1229794D01*
Y1225846D01*
X198800Y1221974D01*
X200311Y1218327D01*
X202504Y1215045D01*
X205052Y1212497D01*
X204333Y1211420D01*
X203677Y1211692D01*
X201970Y1211916D01*
X191970D01*
X190263Y1211692D01*
X188672Y1211033D01*
X187306Y1209984D01*
X186257Y1208618D01*
X185598Y1207027D01*
X185373Y1205320D01*
Y1195320D01*
X185598Y1193613D01*
X186257Y1192022D01*
X187306Y1190656D01*
X188672Y1189607D01*
X190263Y1188948D01*
X191970Y1188724D01*
X201970D01*
X203677Y1188948D01*
X205268Y1189607D01*
X206634Y1190656D01*
X207683Y1192022D01*
X208342Y1193613D01*
X208566Y1195320D01*
Y1205320D01*
X208342Y1207027D01*
X207683Y1208618D01*
X206875Y1209671D01*
X207755Y1210611D01*
X208577Y1210061D01*
X212225Y1208550D01*
X216096Y1207780D01*
X220044D01*
X223915Y1208550D01*
X227563Y1210061D01*
X230845Y1212254D01*
X233636Y1215045D01*
X235829Y1218327D01*
X237340Y1221974D01*
X238110Y1225846D01*
Y1229794D01*
X237340Y1233665D01*
X235829Y1237312D01*
X233636Y1240595D01*
X230845Y1243386D01*
X227563Y1245579D01*
X223915Y1247090D01*
X220044Y1247860D01*
D02*
G37*
G36*
X334344D02*
X330396D01*
X326525Y1247090D01*
X322877Y1245579D01*
X319595Y1243386D01*
X316804Y1240595D01*
X314611Y1237312D01*
X313100Y1233665D01*
X312330Y1229794D01*
Y1225846D01*
X313100Y1221974D01*
X314611Y1218327D01*
X316804Y1215045D01*
X319595Y1212254D01*
X322877Y1210061D01*
X326525Y1208550D01*
X330396Y1207780D01*
X334344D01*
X338215Y1208550D01*
X341862Y1210061D01*
X342685Y1210611D01*
X343565Y1209671D01*
X342757Y1208618D01*
X342098Y1207027D01*
X341874Y1205320D01*
Y1195320D01*
X342098Y1193613D01*
X342757Y1192022D01*
X343806Y1190656D01*
X345172Y1189607D01*
X346763Y1188948D01*
X348470Y1188724D01*
X358470D01*
X360177Y1188948D01*
X361768Y1189607D01*
X363134Y1190656D01*
X364183Y1192022D01*
X364842Y1193613D01*
X365066Y1195320D01*
Y1205320D01*
X364842Y1207027D01*
X364183Y1208618D01*
X363134Y1209984D01*
X361768Y1211033D01*
X360177Y1211692D01*
X358470Y1211916D01*
X348470D01*
X346763Y1211692D01*
X346107Y1211420D01*
X345387Y1212497D01*
X347936Y1215045D01*
X350129Y1218327D01*
X351640Y1221974D01*
X352410Y1225846D01*
Y1229794D01*
X351640Y1233665D01*
X350129Y1237312D01*
X347936Y1240595D01*
X345145Y1243386D01*
X341862Y1245579D01*
X338215Y1247090D01*
X334344Y1247860D01*
D02*
G37*
G36*
X169863Y1299340D02*
X168137D01*
X166542Y1298679D01*
X165321Y1297458D01*
X164660Y1295863D01*
Y1295764D01*
X142448Y1273552D01*
X141665Y1272381D01*
X141391Y1271000D01*
Y1177819D01*
X140265Y1177352D01*
X138303Y1175847D01*
X136798Y1173885D01*
X135852Y1171601D01*
X135529Y1169150D01*
Y1164850D01*
X135852Y1162399D01*
X136798Y1160115D01*
X138303Y1158153D01*
X140265Y1156648D01*
X142549Y1155702D01*
X145000Y1155379D01*
X147451Y1155702D01*
X149735Y1156648D01*
X151697Y1158153D01*
X153202Y1160115D01*
X154148Y1162399D01*
X154471Y1164850D01*
Y1169150D01*
X154148Y1171601D01*
X153202Y1173885D01*
X151697Y1175847D01*
X149735Y1177352D01*
X148609Y1177819D01*
Y1269505D01*
X169764Y1290660D01*
X169863D01*
X171458Y1291321D01*
X172679Y1292542D01*
X173340Y1294137D01*
Y1295863D01*
X172679Y1297458D01*
X171458Y1298679D01*
X169863Y1299340D01*
D02*
G37*
G36*
X112000Y1178621D02*
X109549Y1178298D01*
X107264Y1177352D01*
X105303Y1175847D01*
X103798Y1173885D01*
X102852Y1171601D01*
X102529Y1169150D01*
Y1164850D01*
X102852Y1162399D01*
X103798Y1160115D01*
X105303Y1158153D01*
X107264Y1156648D01*
X109549Y1155702D01*
X112000Y1155379D01*
X114451Y1155702D01*
X116735Y1156648D01*
X118697Y1158153D01*
X120202Y1160115D01*
X121148Y1162399D01*
X121471Y1164850D01*
Y1169150D01*
X121148Y1171601D01*
X120202Y1173885D01*
X118697Y1175847D01*
X116735Y1177352D01*
X114451Y1178298D01*
X112000Y1178621D01*
D02*
G37*
G36*
X256170Y1173558D02*
X253810Y1173247D01*
X251611Y1172336D01*
X249723Y1170887D01*
X248274Y1168999D01*
X247363Y1166800D01*
X247052Y1164440D01*
Y1164200D01*
X247363Y1161840D01*
X248274Y1159641D01*
X249723Y1157753D01*
X251611Y1156304D01*
X253810Y1155393D01*
X256170Y1155082D01*
X258530Y1155393D01*
X260729Y1156304D01*
X262617Y1157753D01*
X264066Y1159641D01*
X264977Y1161840D01*
X265288Y1164200D01*
Y1164440D01*
X264977Y1166800D01*
X264066Y1168999D01*
X262617Y1170887D01*
X260729Y1172336D01*
X258530Y1173247D01*
X256170Y1173558D01*
D02*
G37*
G36*
X306970D02*
X304610Y1173247D01*
X302411Y1172336D01*
X300523Y1170887D01*
X299074Y1168999D01*
X298163Y1166800D01*
X297852Y1164440D01*
Y1164200D01*
X298163Y1161840D01*
X299074Y1159641D01*
X300523Y1157753D01*
X302411Y1156304D01*
X304610Y1155393D01*
X305855Y1155229D01*
Y1152503D01*
X303143Y1149791D01*
X302595Y1148970D01*
X302402Y1148001D01*
Y1145378D01*
X301132Y1144947D01*
X300717Y1145487D01*
X298829Y1146936D01*
X296630Y1147847D01*
X294270Y1148158D01*
X291910Y1147847D01*
X289711Y1146936D01*
X287823Y1145487D01*
X286374Y1143599D01*
X285808Y1142233D01*
X284538Y1142485D01*
Y1155644D01*
X286129Y1156304D01*
X288017Y1157753D01*
X289466Y1159641D01*
X290377Y1161840D01*
X290688Y1164200D01*
Y1164440D01*
X290377Y1166800D01*
X289466Y1168999D01*
X288017Y1170887D01*
X286129Y1172336D01*
X283930Y1173247D01*
X281570Y1173558D01*
X279210Y1173247D01*
X277011Y1172336D01*
X275123Y1170887D01*
X273673Y1168999D01*
X272763Y1166800D01*
X272452Y1164440D01*
Y1164200D01*
X272763Y1161840D01*
X273673Y1159641D01*
X275123Y1157753D01*
X277011Y1156304D01*
X279210Y1155393D01*
X279480Y1155357D01*
Y1113630D01*
X273115D01*
Y1108050D01*
X279480D01*
Y1105415D01*
X279673Y1104447D01*
X280221Y1103627D01*
X281538Y1102310D01*
X281012Y1101040D01*
X279960D01*
Y1099529D01*
X268040D01*
Y1101040D01*
X255960D01*
Y1091460D01*
X268040D01*
Y1094471D01*
X279960D01*
Y1091460D01*
X292040D01*
Y1101040D01*
X287529D01*
Y1102424D01*
X287336Y1103392D01*
X286788Y1104212D01*
X284538Y1106462D01*
Y1111000D01*
Y1135355D01*
X285808Y1135607D01*
X286374Y1134241D01*
X287823Y1132353D01*
X289711Y1130904D01*
X291910Y1129993D01*
X294270Y1129682D01*
X296630Y1129993D01*
X298829Y1130904D01*
X300717Y1132353D01*
X301132Y1132893D01*
X302402Y1132462D01*
Y1131423D01*
X302595Y1130454D01*
X303143Y1129633D01*
X310469Y1122308D01*
Y1112790D01*
X303860D01*
Y1107210D01*
X310469D01*
Y1089193D01*
X302992D01*
Y1084737D01*
X292040D01*
Y1086540D01*
X279960D01*
Y1076960D01*
X282878D01*
X283111Y1075690D01*
X273274Y1065854D01*
X273168Y1065790D01*
X271832D01*
X271726Y1065854D01*
X264531Y1073048D01*
Y1076960D01*
X268040D01*
Y1086540D01*
X255960D01*
Y1084873D01*
X239790D01*
Y1088740D01*
X231531D01*
Y1106869D01*
X232660Y1107210D01*
X232660Y1107210D01*
Y1107210D01*
X232660Y1107210D01*
X239340D01*
Y1112790D01*
X232660D01*
X232660Y1112790D01*
Y1112790D01*
X232660Y1112790D01*
X231531Y1113131D01*
Y1142610D01*
X233925Y1145005D01*
X235503Y1143428D01*
X234663Y1141400D01*
X234352Y1139040D01*
Y1138800D01*
X234663Y1136440D01*
X235574Y1134241D01*
X237023Y1132353D01*
X238911Y1130904D01*
X241110Y1129993D01*
X243470Y1129682D01*
X245830Y1129993D01*
X248029Y1130904D01*
X249917Y1132353D01*
X251366Y1134241D01*
X252277Y1136440D01*
X252588Y1138800D01*
Y1139040D01*
X252277Y1141400D01*
X251366Y1143599D01*
X249917Y1145487D01*
X248029Y1146936D01*
X245830Y1147847D01*
X243470Y1148158D01*
X241110Y1147847D01*
X239082Y1147007D01*
X236496Y1149593D01*
X235675Y1150142D01*
X234706Y1150335D01*
X233301D01*
Y1155464D01*
X235329Y1156304D01*
X237217Y1157753D01*
X238666Y1159641D01*
X239577Y1161840D01*
X239888Y1164200D01*
Y1164440D01*
X239577Y1166800D01*
X238666Y1168999D01*
X237217Y1170887D01*
X235329Y1172336D01*
X233130Y1173247D01*
X230770Y1173558D01*
X228410Y1173247D01*
X226211Y1172336D01*
X224323Y1170887D01*
X222873Y1168999D01*
X221963Y1166800D01*
X221652Y1164440D01*
Y1164200D01*
X221963Y1161840D01*
X222873Y1159641D01*
X224323Y1157753D01*
X226211Y1156304D01*
X228239Y1155464D01*
Y1151321D01*
X223785Y1146867D01*
X223237Y1146046D01*
X223044Y1145078D01*
Y1112790D01*
X217860D01*
Y1107210D01*
X223044D01*
Y1088740D01*
X215710D01*
Y1076661D01*
X218088D01*
Y1076477D01*
X218281Y1075509D01*
X218829Y1074688D01*
X224395Y1069122D01*
X225216Y1068574D01*
X226185Y1068381D01*
X233469D01*
Y1064040D01*
X230460D01*
Y1051960D01*
X240040D01*
Y1055614D01*
X261911D01*
Y1050808D01*
X261915Y1050789D01*
Y1044250D01*
X262093Y1043356D01*
X262599Y1042599D01*
X263356Y1042093D01*
X264250Y1041915D01*
X265750D01*
X266644Y1042093D01*
X267401Y1042599D01*
X267599D01*
X268356Y1042093D01*
X269250Y1041915D01*
X270750D01*
X271644Y1042093D01*
X272500Y1042547D01*
X273356Y1042093D01*
X274250Y1041915D01*
X275750D01*
X276644Y1042093D01*
X277401Y1042599D01*
X277599D01*
X278356Y1042093D01*
X279250Y1041915D01*
X280750D01*
X281644Y1042093D01*
X282500Y1042547D01*
X283356Y1042093D01*
X284250Y1041915D01*
X285750D01*
X286644Y1042093D01*
X287401Y1042599D01*
X287907Y1043356D01*
X288085Y1044250D01*
Y1047900D01*
X304776D01*
X306960Y1045716D01*
Y1038983D01*
X302572Y1034595D01*
X302095Y1033882D01*
X301556Y1033658D01*
X300342Y1032444D01*
X299685Y1030858D01*
Y1029142D01*
X300342Y1027556D01*
X301556Y1026342D01*
X301739Y1026266D01*
Y1018671D01*
X301521Y1018628D01*
X300599Y1018011D01*
X291182Y1008595D01*
X288085D01*
Y1011750D01*
X287907Y1012644D01*
X287401Y1013401D01*
X287350Y1013435D01*
Y1017000D01*
X287350Y1017000D01*
X287171Y1017899D01*
X286662Y1018662D01*
X283662Y1021662D01*
X282899Y1022171D01*
X282000Y1022350D01*
X278000D01*
X278000Y1022350D01*
X277101Y1022171D01*
X276338Y1021662D01*
X273338Y1018662D01*
X272829Y1017899D01*
X272650Y1017000D01*
Y1014762D01*
X272274Y1014443D01*
X271380Y1013960D01*
X270750Y1014085D01*
X269250D01*
X268356Y1013907D01*
X267599Y1013401D01*
X266441Y1013417D01*
X266000Y1013505D01*
Y1005750D01*
Y997995D01*
X266441Y998083D01*
X267650Y997363D01*
Y993973D01*
X267027Y993350D01*
X250619D01*
Y995000D01*
X250306Y996576D01*
X249413Y997913D01*
X248076Y998806D01*
X246500Y999119D01*
X241500D01*
X239924Y998806D01*
X238587Y997913D01*
X237694Y996576D01*
X237381Y995000D01*
Y987000D01*
X237694Y985424D01*
X238587Y984087D01*
X239924Y983194D01*
X241500Y982881D01*
X241650D01*
Y912297D01*
X235012Y905660D01*
X233475Y905917D01*
X233249Y906382D01*
X233385Y906585D01*
X233592Y907625D01*
Y909875D01*
X233385Y910915D01*
X232796Y911796D01*
X231915Y912385D01*
X230875Y912592D01*
X219931D01*
X211040Y921483D01*
Y928040D01*
X198960D01*
Y925345D01*
X156845D01*
Y941000D01*
X156628Y942089D01*
X156011Y943011D01*
X139761Y959261D01*
X138839Y959878D01*
X137750Y960095D01*
X135474D01*
X135307Y961360D01*
X134396Y963559D01*
X132947Y965447D01*
X131059Y966896D01*
X128860Y967807D01*
X126500Y968118D01*
X123500D01*
X121140Y967807D01*
X118941Y966896D01*
X117053Y965447D01*
X115604Y963559D01*
X114894Y961845D01*
X81000D01*
X81000Y961845D01*
X79911Y961628D01*
X78988Y961012D01*
X68988Y951011D01*
X68372Y950089D01*
X68155Y949000D01*
Y946051D01*
X66924Y945806D01*
X65587Y944913D01*
X64694Y943576D01*
X64381Y942000D01*
Y940845D01*
X53293D01*
X52458Y941679D01*
X50863Y942340D01*
X49137D01*
X47542Y941679D01*
X46321Y940458D01*
X45660Y938863D01*
Y937137D01*
X46321Y935542D01*
X47542Y934321D01*
X49137Y933660D01*
X50863D01*
X52458Y934321D01*
X53293Y935155D01*
X64381D01*
Y934000D01*
X64694Y932424D01*
X65587Y931087D01*
X66924Y930194D01*
X68155Y929949D01*
Y924051D01*
X66924Y923806D01*
X65587Y922913D01*
X64694Y921576D01*
X64381Y920000D01*
Y912000D01*
X64694Y910424D01*
X65587Y909087D01*
X66924Y908194D01*
X68500Y907881D01*
X73500D01*
X75076Y908194D01*
X76413Y909087D01*
X77305Y910424D01*
X77619Y912000D01*
Y920000D01*
X77305Y921576D01*
X76413Y922913D01*
X75076Y923806D01*
X73845Y924051D01*
Y929949D01*
X75076Y930194D01*
X76413Y931087D01*
X77305Y932424D01*
X77619Y934000D01*
Y942000D01*
X77305Y943576D01*
X76413Y944913D01*
X75076Y945806D01*
X73845Y946051D01*
Y947822D01*
X82178Y956155D01*
X114894D01*
X115604Y954441D01*
X117053Y952553D01*
X118941Y951104D01*
X121140Y950193D01*
X123500Y949882D01*
X126500D01*
X128860Y950193D01*
X131059Y951104D01*
X132947Y952553D01*
X134369Y954405D01*
X136572D01*
X151155Y939822D01*
Y922000D01*
Y886293D01*
X150321Y885458D01*
X149660Y883863D01*
Y882137D01*
X150321Y880542D01*
X151155Y879707D01*
Y877178D01*
X147322Y873345D01*
X145040D01*
Y876040D01*
X132960D01*
Y872600D01*
X125592D01*
Y876375D01*
X125385Y877415D01*
X124796Y878296D01*
X123915Y878885D01*
X122875Y879092D01*
X120625D01*
X119585Y878885D01*
X118704Y878296D01*
X118371D01*
X117350Y879078D01*
Y884625D01*
X145662Y912936D01*
X146171Y913699D01*
X146350Y914598D01*
Y931000D01*
X146171Y931899D01*
X145662Y932662D01*
X137662Y940662D01*
X136899Y941171D01*
X136000Y941350D01*
X135309D01*
X135307Y941360D01*
X134396Y943559D01*
X132947Y945447D01*
X131059Y946896D01*
X128860Y947807D01*
X126500Y948118D01*
X123500D01*
X121140Y947807D01*
X118941Y946896D01*
X117053Y945447D01*
X115604Y943559D01*
X114693Y941360D01*
X114691Y941350D01*
X97619D01*
Y942000D01*
X97305Y943576D01*
X96413Y944913D01*
X95076Y945806D01*
X93500Y946119D01*
X88500D01*
X86924Y945806D01*
X85587Y944913D01*
X84694Y943576D01*
X84381Y942000D01*
Y934000D01*
X84694Y932424D01*
X85587Y931087D01*
X86924Y930194D01*
X88500Y929881D01*
X93500D01*
X95076Y930194D01*
X96413Y931087D01*
X97305Y932424D01*
X97619Y934000D01*
Y936650D01*
X114691D01*
X114693Y936640D01*
X115604Y934441D01*
X117053Y932553D01*
X118941Y931104D01*
X121140Y930193D01*
X123500Y929882D01*
X126500D01*
X128860Y930193D01*
X131059Y931104D01*
X132947Y932553D01*
X134396Y934441D01*
X134790Y935393D01*
X136036Y935640D01*
X141650Y930026D01*
Y915572D01*
X113338Y887260D01*
X112829Y886498D01*
X112650Y885598D01*
Y880565D01*
X112000Y880190D01*
X111350Y880565D01*
Y885000D01*
X111171Y885899D01*
X110662Y886662D01*
X93350Y903973D01*
Y907881D01*
X93500D01*
X95076Y908194D01*
X96413Y909087D01*
X97305Y910424D01*
X97619Y912000D01*
Y913650D01*
X116211D01*
X117053Y912553D01*
X118941Y911104D01*
X121140Y910193D01*
X123500Y909882D01*
X126500D01*
X128860Y910193D01*
X131059Y911104D01*
X132947Y912553D01*
X134396Y914441D01*
X135307Y916640D01*
X135618Y919000D01*
X135307Y921360D01*
X134396Y923559D01*
X132947Y925447D01*
X131059Y926896D01*
X128860Y927807D01*
X126500Y928118D01*
X123500D01*
X121140Y927807D01*
X118941Y926896D01*
X117053Y925447D01*
X115604Y923559D01*
X114693Y921360D01*
X114382Y919000D01*
X113812Y918350D01*
X97619D01*
Y920000D01*
X97305Y921576D01*
X96413Y922913D01*
X95076Y923806D01*
X93500Y924119D01*
X88500D01*
X86924Y923806D01*
X85587Y922913D01*
X84694Y921576D01*
X84381Y920000D01*
Y912000D01*
X84694Y910424D01*
X85587Y909087D01*
X86924Y908194D01*
X88500Y907881D01*
X88650D01*
Y903000D01*
X88829Y902101D01*
X89338Y901338D01*
X106650Y884026D01*
Y878898D01*
X106585Y878885D01*
X105704Y878296D01*
X105296D01*
X104415Y878885D01*
X103375Y879092D01*
X101125D01*
X100085Y878885D01*
X99204Y878296D01*
X98615Y877415D01*
X98408Y876375D01*
Y872600D01*
X94040D01*
Y876040D01*
X84460D01*
Y863960D01*
X94040D01*
Y867900D01*
X98408D01*
Y864125D01*
X98615Y863085D01*
X99204Y862204D01*
X100085Y861615D01*
X101125Y861408D01*
X103375D01*
X104415Y861615D01*
X105296Y862204D01*
X105704D01*
X106585Y861615D01*
X107625Y861408D01*
X109875D01*
X110915Y861615D01*
X111022Y861686D01*
X112000Y862114D01*
X112978Y861686D01*
X113085Y861615D01*
X114125Y861408D01*
X116375D01*
X117415Y861615D01*
X118296Y862204D01*
X118704D01*
X119585Y861615D01*
X120625Y861408D01*
X122875D01*
X123915Y861615D01*
X124796Y862204D01*
X125385Y863085D01*
X125592Y864125D01*
Y867900D01*
X132960D01*
Y864960D01*
X145040D01*
Y867655D01*
X148500D01*
X149589Y867872D01*
X150512Y868488D01*
X156011Y873988D01*
X156628Y874911D01*
X156845Y876000D01*
X156845Y876000D01*
Y879707D01*
X157679Y880542D01*
X158340Y882137D01*
Y883863D01*
X157679Y885458D01*
X156845Y886293D01*
Y919655D01*
X198960D01*
Y916960D01*
X207517D01*
X215908Y908569D01*
Y907625D01*
X216115Y906585D01*
X216704Y905704D01*
Y905296D01*
X216115Y904415D01*
X215908Y903375D01*
Y901125D01*
X216115Y900085D01*
X216186Y899978D01*
X216614Y899000D01*
X216186Y898022D01*
X216115Y897915D01*
X215908Y896875D01*
Y894625D01*
X216115Y893585D01*
X216262Y893365D01*
X215583Y892095D01*
X212250D01*
X211161Y891878D01*
X210238Y891262D01*
X206107Y887130D01*
X204040D01*
Y889040D01*
X194460D01*
Y876960D01*
X204040D01*
Y881441D01*
X207285D01*
X208374Y881657D01*
X209297Y882274D01*
X213428Y886405D01*
X216569D01*
X216704Y886204D01*
X217585Y885615D01*
X218625Y885408D01*
X230875D01*
X231915Y885615D01*
X232796Y886204D01*
X233385Y887085D01*
X233592Y888125D01*
Y890375D01*
X233385Y891415D01*
X232796Y892296D01*
Y892393D01*
X233698Y893400D01*
X235750D01*
X236649Y893579D01*
X237412Y894088D01*
X254662Y911338D01*
X254662Y911338D01*
X255171Y912101D01*
X255350Y913000D01*
X255350Y913000D01*
Y956027D01*
X280973Y981650D01*
X286000D01*
X286899Y981829D01*
X287662Y982338D01*
X292973Y987650D01*
X300381D01*
Y986000D01*
X300694Y984424D01*
X301587Y983087D01*
X302924Y982194D01*
X304500Y981881D01*
X309500D01*
X311076Y982194D01*
X312413Y983087D01*
X313306Y984424D01*
X313619Y986000D01*
Y994000D01*
X313306Y995576D01*
X312413Y996913D01*
X311076Y997806D01*
X309500Y998119D01*
X304500D01*
X302924Y997806D01*
X301587Y996913D01*
X300694Y995576D01*
X300381Y994000D01*
Y992350D01*
X292000D01*
X291101Y992171D01*
X290338Y991662D01*
X285027Y986350D01*
X282350D01*
Y996738D01*
X282726Y997057D01*
X283620Y997540D01*
X284250Y997415D01*
X285750D01*
X286644Y997593D01*
X287401Y998099D01*
X287907Y998857D01*
X288085Y999750D01*
Y1002905D01*
X292360D01*
X293449Y1003122D01*
X294372Y1003738D01*
X303788Y1013155D01*
X308960D01*
Y1009960D01*
X311655D01*
Y1008500D01*
X311872Y1007411D01*
X312488Y1006489D01*
X321630Y997347D01*
X321587Y996913D01*
X320695Y995576D01*
X320381Y994000D01*
Y986000D01*
X320695Y984424D01*
X321587Y983087D01*
X322924Y982194D01*
X324500Y981881D01*
X329500D01*
X331076Y982194D01*
X332413Y983087D01*
X333306Y984424D01*
X333619Y986000D01*
Y994000D01*
X333306Y995576D01*
X332413Y996913D01*
X331076Y997806D01*
X329500Y998119D01*
X327675D01*
Y998169D01*
X327459Y999258D01*
X326842Y1000181D01*
X318333Y1008690D01*
X318859Y1009960D01*
X320040D01*
Y1022040D01*
X308960D01*
Y1018845D01*
X307428D01*
Y1027326D01*
X307658Y1027556D01*
X308315Y1029142D01*
Y1030858D01*
X307895Y1031872D01*
X310983Y1034960D01*
X318040D01*
Y1047040D01*
X312284D01*
X307412Y1051912D01*
X306649Y1052421D01*
X305750Y1052600D01*
X288085D01*
Y1056250D01*
X287907Y1057143D01*
X287401Y1057901D01*
X286955Y1058199D01*
X287320Y1059469D01*
X308960D01*
Y1054960D01*
X318540D01*
Y1067040D01*
X317416D01*
X316889Y1068310D01*
X323720Y1075141D01*
X324269Y1075962D01*
X324461Y1076930D01*
Y1077113D01*
X327072D01*
Y1089193D01*
X318956D01*
Y1107210D01*
X325140D01*
Y1112790D01*
X318956D01*
Y1124774D01*
X318763Y1125743D01*
X318215Y1126564D01*
X318215Y1126564D01*
X315348Y1129431D01*
X316068Y1130507D01*
X317310Y1129993D01*
X319670Y1129682D01*
X322030Y1129993D01*
X324229Y1130904D01*
X326117Y1132353D01*
X327566Y1134241D01*
X328477Y1136440D01*
X328788Y1138800D01*
Y1139040D01*
X328477Y1141400D01*
X327566Y1143599D01*
X326117Y1145487D01*
X324229Y1146936D01*
X322030Y1147847D01*
X319670Y1148158D01*
X317310Y1147847D01*
X315282Y1147007D01*
X312813Y1149476D01*
X311992Y1150025D01*
X311835Y1150056D01*
X311010Y1150375D01*
X310917Y1151454D01*
Y1156050D01*
X311529Y1156304D01*
X313417Y1157753D01*
X314866Y1159641D01*
X315777Y1161840D01*
X316088Y1164200D01*
Y1164440D01*
X315777Y1166800D01*
X314866Y1168999D01*
X313417Y1170887D01*
X311529Y1172336D01*
X309330Y1173247D01*
X306970Y1173558D01*
D02*
G37*
G36*
X269870Y1148036D02*
Y1139920D01*
X277882D01*
X277687Y1141403D01*
X276775Y1143604D01*
X275324Y1145495D01*
X273434Y1146945D01*
X271232Y1147857D01*
X269870Y1148036D01*
D02*
G37*
G36*
X267870D02*
X266507Y1147857D01*
X264306Y1146945D01*
X262415Y1145495D01*
X260965Y1143604D01*
X260053Y1141403D01*
X259858Y1139920D01*
X267870D01*
Y1148036D01*
D02*
G37*
G36*
X277882Y1137920D02*
X269870D01*
Y1129804D01*
X271232Y1129983D01*
X273434Y1130895D01*
X275324Y1132346D01*
X276775Y1134236D01*
X277687Y1136438D01*
X277882Y1137920D01*
D02*
G37*
G36*
X267870D02*
X259858D01*
X260053Y1136438D01*
X260965Y1134236D01*
X262415Y1132346D01*
X264306Y1130895D01*
X266507Y1129983D01*
X267870Y1129804D01*
Y1137920D01*
D02*
G37*
G36*
X146000Y1139500D02*
Y1129000D01*
X154481D01*
Y1130150D01*
X154158Y1132604D01*
X153211Y1134891D01*
X151704Y1136854D01*
X149740Y1138361D01*
X147454Y1139308D01*
X146000Y1139500D01*
D02*
G37*
G36*
X113000D02*
Y1129000D01*
X121481D01*
Y1130150D01*
X121158Y1132604D01*
X120211Y1134891D01*
X118704Y1136854D01*
X116741Y1138361D01*
X114454Y1139308D01*
X113000Y1139500D01*
D02*
G37*
G36*
X111000D02*
X109546Y1139308D01*
X107260Y1138361D01*
X105296Y1136854D01*
X103789Y1134891D01*
X102842Y1132604D01*
X102519Y1130150D01*
Y1129000D01*
X111000D01*
Y1139500D01*
D02*
G37*
G36*
X144000D02*
X142546Y1139308D01*
X140259Y1138361D01*
X138296Y1136854D01*
X136789Y1134891D01*
X135842Y1132604D01*
X135519Y1130150D01*
Y1129000D01*
X144000D01*
Y1139500D01*
D02*
G37*
G36*
X154481Y1127000D02*
X146000D01*
Y1116500D01*
X147454Y1116692D01*
X149740Y1117639D01*
X151704Y1119146D01*
X153211Y1121109D01*
X154158Y1123396D01*
X154481Y1125850D01*
Y1127000D01*
D02*
G37*
G36*
X111000D02*
X102519D01*
Y1125850D01*
X102842Y1123396D01*
X103789Y1121109D01*
X105296Y1119146D01*
X107260Y1117639D01*
X109546Y1116692D01*
X111000Y1116500D01*
Y1127000D01*
D02*
G37*
G36*
X121481D02*
X113000D01*
Y1116500D01*
X114454Y1116692D01*
X116741Y1117639D01*
X118704Y1119146D01*
X120211Y1121109D01*
X121158Y1123396D01*
X121481Y1125850D01*
Y1127000D01*
D02*
G37*
G36*
X144000D02*
X135519D01*
Y1125850D01*
X135842Y1123396D01*
X136789Y1121109D01*
X138296Y1119146D01*
X140259Y1117639D01*
X142546Y1116692D01*
X144000Y1116500D01*
Y1127000D01*
D02*
G37*
G36*
X270875Y1113110D02*
X269055D01*
Y1111840D01*
X270875D01*
Y1113110D01*
D02*
G37*
G36*
X267055D02*
X265235D01*
Y1111840D01*
X267055D01*
Y1113110D01*
D02*
G37*
G36*
X301620Y1112270D02*
X299800D01*
Y1111000D01*
X301620D01*
Y1112270D01*
D02*
G37*
G36*
X297800D02*
X295980D01*
Y1111000D01*
X297800D01*
Y1112270D01*
D02*
G37*
G36*
X215620D02*
X213800D01*
Y1111000D01*
X215620D01*
Y1112270D01*
D02*
G37*
G36*
X211800D02*
X209980D01*
Y1111000D01*
X211800D01*
Y1112270D01*
D02*
G37*
G36*
X333020D02*
X331200D01*
Y1111000D01*
X333020D01*
Y1112270D01*
D02*
G37*
G36*
X247220D02*
X245400D01*
Y1111000D01*
X247220D01*
Y1112270D01*
D02*
G37*
G36*
X243400D02*
X241580D01*
Y1111000D01*
X243400D01*
Y1112270D01*
D02*
G37*
G36*
X329200D02*
X327380D01*
Y1111000D01*
X329200D01*
Y1112270D01*
D02*
G37*
G36*
X270875Y1109840D02*
X269055D01*
Y1108570D01*
X270875D01*
Y1109840D01*
D02*
G37*
G36*
X267055D02*
X265235D01*
Y1108570D01*
X267055D01*
Y1109840D01*
D02*
G37*
G36*
X333020Y1109000D02*
X331200D01*
Y1107730D01*
X333020D01*
Y1109000D01*
D02*
G37*
G36*
X329200D02*
X327380D01*
Y1107730D01*
X329200D01*
Y1109000D01*
D02*
G37*
G36*
X301620Y1109000D02*
X299800D01*
Y1107730D01*
X301620D01*
Y1109000D01*
D02*
G37*
G36*
X297800D02*
X295980D01*
Y1107730D01*
X297800D01*
Y1109000D01*
D02*
G37*
G36*
X247220Y1109000D02*
X245400D01*
Y1107730D01*
X247220D01*
Y1109000D01*
D02*
G37*
G36*
X243400D02*
X241580D01*
Y1107730D01*
X243400D01*
Y1109000D01*
D02*
G37*
G36*
X215620Y1109000D02*
X213800D01*
Y1107730D01*
X215620D01*
Y1109000D01*
D02*
G37*
G36*
X211800D02*
X209980D01*
Y1107730D01*
X211800D01*
Y1109000D01*
D02*
G37*
G36*
X332520Y1066520D02*
X329250D01*
Y1062000D01*
X332520D01*
Y1066520D01*
D02*
G37*
G36*
X327250D02*
X323980D01*
Y1062000D01*
X327250D01*
Y1066520D01*
D02*
G37*
G36*
X225020Y1063520D02*
X221750D01*
Y1059000D01*
X225020D01*
Y1063520D01*
D02*
G37*
G36*
X219750D02*
X216480D01*
Y1059000D01*
X219750D01*
Y1063520D01*
D02*
G37*
G36*
X332520Y1060000D02*
X329250D01*
Y1055480D01*
X332520D01*
Y1060000D01*
D02*
G37*
G36*
X327250D02*
X323980D01*
Y1055480D01*
X327250D01*
Y1060000D01*
D02*
G37*
G36*
X225020Y1057000D02*
X221750D01*
Y1052480D01*
X225020D01*
Y1057000D01*
D02*
G37*
G36*
X219750D02*
X216480D01*
Y1052480D01*
X219750D01*
Y1057000D01*
D02*
G37*
G36*
X511906Y1079048D02*
X508451D01*
X505062Y1078374D01*
X501870Y1077052D01*
X498997Y1075132D01*
X496554Y1072689D01*
X494635Y1069816D01*
X493313Y1066624D01*
X492639Y1063235D01*
Y1059780D01*
X493313Y1056392D01*
X494635Y1053200D01*
X496554Y1050327D01*
X498997Y1047884D01*
X501870Y1045964D01*
X505062Y1044642D01*
X508451Y1043968D01*
X511906D01*
X515295Y1044642D01*
X518487Y1045964D01*
X521360Y1047884D01*
X523803Y1050327D01*
X525722Y1053200D01*
X527044Y1056392D01*
X527719Y1059780D01*
Y1063235D01*
X527044Y1066624D01*
X525722Y1069816D01*
X523803Y1072689D01*
X521360Y1075132D01*
X518487Y1077052D01*
X515295Y1078374D01*
X511906Y1079048D01*
D02*
G37*
G36*
X42706D02*
X39251D01*
X35862Y1078374D01*
X32670Y1077052D01*
X29797Y1075132D01*
X27354Y1072689D01*
X25435Y1069816D01*
X24113Y1066624D01*
X23439Y1063235D01*
Y1059780D01*
X24113Y1056392D01*
X25435Y1053200D01*
X27354Y1050327D01*
X29797Y1047884D01*
X32670Y1045964D01*
X35862Y1044642D01*
X39251Y1043968D01*
X42706D01*
X46095Y1044642D01*
X49287Y1045964D01*
X52160Y1047884D01*
X54603Y1050327D01*
X56522Y1053200D01*
X57845Y1056392D01*
X58519Y1059780D01*
Y1063235D01*
X57845Y1066624D01*
X56522Y1069816D01*
X54603Y1072689D01*
X52160Y1075132D01*
X49287Y1077052D01*
X46095Y1078374D01*
X42706Y1079048D01*
D02*
G37*
G36*
X332520Y1046520D02*
X328500D01*
Y1042000D01*
X332520D01*
Y1046520D01*
D02*
G37*
G36*
X326500D02*
X322480D01*
Y1042000D01*
X326500D01*
Y1046520D01*
D02*
G37*
G36*
X332520Y1040000D02*
X328500D01*
Y1035480D01*
X332520D01*
Y1040000D01*
D02*
G37*
G36*
X326500D02*
X322480D01*
Y1035480D01*
X326500D01*
Y1040000D01*
D02*
G37*
G36*
X334520Y1021520D02*
X330500D01*
Y1017000D01*
X334520D01*
Y1021520D01*
D02*
G37*
G36*
X328500D02*
X324480D01*
Y1017000D01*
X328500D01*
Y1021520D01*
D02*
G37*
G36*
X334520Y1015000D02*
X330500D01*
Y1010480D01*
X334520D01*
Y1015000D01*
D02*
G37*
G36*
X328500D02*
X324480D01*
Y1010480D01*
X328500D01*
Y1015000D01*
D02*
G37*
G36*
X264000Y1013505D02*
X263559Y1013417D01*
X262974Y1013026D01*
X262583Y1012441D01*
X262445Y1011750D01*
Y1006750D01*
X264000D01*
Y1013505D01*
D02*
G37*
G36*
Y1004750D02*
X262445D01*
Y999750D01*
X262583Y999059D01*
X262974Y998474D01*
X263559Y998083D01*
X264000Y997995D01*
Y1004750D01*
D02*
G37*
G36*
X212858Y1040315D02*
X211142D01*
X209556Y1039658D01*
X208342Y1038444D01*
X207685Y1036858D01*
Y1035142D01*
X208342Y1033556D01*
X209556Y1032342D01*
X209650Y1032303D01*
Y996000D01*
X209829Y995101D01*
X210338Y994338D01*
X214338Y990338D01*
X215101Y989829D01*
X216000Y989650D01*
X216000Y989650D01*
X217381D01*
Y987000D01*
X217694Y985424D01*
X218587Y984087D01*
X219924Y983194D01*
X221500Y982881D01*
X226500D01*
X228076Y983194D01*
X229413Y984087D01*
X230306Y985424D01*
X230619Y987000D01*
Y995000D01*
X230306Y996576D01*
X229413Y997913D01*
X228076Y998806D01*
X226500Y999119D01*
X221500D01*
X219924Y998806D01*
X218587Y997913D01*
X217694Y996576D01*
X217503Y995616D01*
X216150Y995174D01*
X214350Y996973D01*
Y1032303D01*
X214444Y1032342D01*
X215658Y1033556D01*
X216315Y1035142D01*
Y1036858D01*
X215658Y1038444D01*
X214444Y1039658D01*
X212858Y1040315D01*
D02*
G37*
G36*
X126500Y988128D02*
X126000D01*
Y980000D01*
X135496D01*
X135317Y981363D01*
X134405Y983564D01*
X132955Y985454D01*
X131064Y986905D01*
X128862Y987817D01*
X126500Y988128D01*
D02*
G37*
G36*
X124000D02*
X123500D01*
X121138Y987817D01*
X118936Y986905D01*
X117045Y985454D01*
X115595Y983564D01*
X114683Y981363D01*
X114504Y980000D01*
X124000D01*
Y988128D01*
D02*
G37*
G36*
X512050Y988750D02*
X502470D01*
Y976670D01*
X512050D01*
Y979865D01*
X520528D01*
X521311Y979083D01*
X522896Y978426D01*
X524613D01*
X526199Y979083D01*
X527413Y980297D01*
X528070Y981883D01*
Y983599D01*
X527413Y985185D01*
X526199Y986399D01*
X524613Y987056D01*
X522896D01*
X521311Y986399D01*
X520466Y985555D01*
X512050D01*
Y988750D01*
D02*
G37*
G36*
X497550D02*
X487970D01*
Y985555D01*
X483710D01*
X482621Y985338D01*
X481698Y984722D01*
X475461Y978484D01*
X474844Y977561D01*
X474628Y976472D01*
Y963540D01*
X465630D01*
Y961916D01*
X459107D01*
X458581Y962442D01*
Y963479D01*
X458658Y963556D01*
X459315Y965142D01*
Y966858D01*
X458658Y968444D01*
X457444Y969658D01*
X455858Y970315D01*
X454142D01*
X452556Y969658D01*
X451342Y968444D01*
X450685Y966858D01*
Y965142D01*
X451342Y963556D01*
X452556Y962342D01*
X452892Y962203D01*
Y961263D01*
X453108Y960175D01*
X453725Y959252D01*
X455918Y957060D01*
X455918Y957060D01*
X456840Y956443D01*
X457929Y956226D01*
X457929Y956226D01*
X465630D01*
Y952526D01*
X443114D01*
X442806Y954076D01*
X441913Y955413D01*
X440576Y956306D01*
X439000Y956619D01*
X431000D01*
X429424Y956306D01*
X428087Y955413D01*
X427194Y954076D01*
X426881Y952500D01*
Y947500D01*
X427194Y945924D01*
X428087Y944587D01*
X429424Y943694D01*
X431000Y943381D01*
X432155D01*
Y941178D01*
X423261Y932284D01*
X422008D01*
X420422Y931627D01*
X419208Y930413D01*
X418551Y928827D01*
Y927111D01*
X419208Y925525D01*
X420422Y924311D01*
X422008Y923654D01*
X423724D01*
X425310Y924311D01*
X426524Y925525D01*
X427181Y927111D01*
Y928158D01*
X437011Y937989D01*
X437628Y938911D01*
X437845Y940000D01*
X437845Y940000D01*
Y943381D01*
X439000D01*
X440576Y943694D01*
X441913Y944587D01*
X442806Y945924D01*
X442987Y946836D01*
X465630D01*
Y936460D01*
X466408D01*
Y934326D01*
X463426Y931345D01*
X458040D01*
Y934040D01*
X445960D01*
Y931345D01*
X442531D01*
X442531Y931345D01*
X441442Y931128D01*
X440519Y930511D01*
X437348Y927340D01*
X436137D01*
X434542Y926679D01*
X433321Y925458D01*
X432660Y923863D01*
Y922137D01*
X433321Y920542D01*
X434542Y919321D01*
X436137Y918660D01*
X437863D01*
X439458Y919321D01*
X440679Y920542D01*
X441340Y922137D01*
Y923286D01*
X443709Y925655D01*
X445960D01*
Y922960D01*
X458040D01*
Y925655D01*
X464605D01*
X465693Y925872D01*
X466616Y926488D01*
X471264Y931136D01*
X471264Y931136D01*
X471880Y932059D01*
X472097Y933148D01*
X472097Y933148D01*
Y936460D01*
X474628D01*
Y934528D01*
X474844Y933439D01*
X475461Y932516D01*
X482155Y925822D01*
Y914178D01*
X353822Y785845D01*
X323258D01*
X322444Y786658D01*
X320858Y787315D01*
X319142D01*
X317556Y786658D01*
X316342Y785444D01*
X315685Y783858D01*
Y782142D01*
X316342Y780556D01*
X317556Y779342D01*
X319142Y778685D01*
X320858D01*
X322444Y779342D01*
X323258Y780155D01*
X355000D01*
X356089Y780372D01*
X357011Y780988D01*
X487011Y910988D01*
X487628Y911911D01*
X487845Y913000D01*
Y927000D01*
X487845Y927000D01*
X487628Y928089D01*
X487011Y929012D01*
X480833Y935190D01*
X481359Y936460D01*
X482150D01*
Y945540D01*
X473930D01*
Y954460D01*
X482150D01*
Y963540D01*
X480317D01*
Y975294D01*
X484888Y979865D01*
X487970D01*
Y976670D01*
X497550D01*
Y988750D01*
D02*
G37*
G36*
X439000Y976089D02*
X436000D01*
Y971000D01*
X442589D01*
Y972500D01*
X442316Y973873D01*
X441538Y975038D01*
X440373Y975816D01*
X439000Y976089D01*
D02*
G37*
G36*
X434000D02*
X431000D01*
X429627Y975816D01*
X428462Y975038D01*
X427684Y973873D01*
X427411Y972500D01*
Y971000D01*
X434000D01*
Y976089D01*
D02*
G37*
G36*
X135496Y978000D02*
X126000D01*
Y969872D01*
X126500D01*
X128862Y970183D01*
X131064Y971095D01*
X132955Y972545D01*
X134405Y974436D01*
X135317Y976637D01*
X135496Y978000D01*
D02*
G37*
G36*
X124000D02*
X114504D01*
X114683Y976637D01*
X115595Y974436D01*
X117045Y972545D01*
X118936Y971095D01*
X121138Y970183D01*
X123500Y969872D01*
X124000D01*
Y978000D01*
D02*
G37*
G36*
X442589Y969000D02*
X436000D01*
Y963911D01*
X439000D01*
X440373Y964184D01*
X441538Y964962D01*
X442316Y966127D01*
X442589Y967500D01*
Y969000D01*
D02*
G37*
G36*
X434000D02*
X427411D01*
Y967500D01*
X427684Y966127D01*
X428462Y964962D01*
X429627Y964184D01*
X431000Y963911D01*
X434000D01*
Y969000D01*
D02*
G37*
G36*
X498740Y951675D02*
X498535D01*
X498590Y951350D01*
X498619Y951155D01*
X498740D01*
Y951675D01*
D02*
G37*
G36*
X491324Y954040D02*
X489716D01*
X488232Y953425D01*
X487095Y952288D01*
X486480Y950804D01*
Y949196D01*
X487095Y947711D01*
X488232Y946575D01*
X489716Y945960D01*
X491324D01*
X492808Y946575D01*
X493945Y947711D01*
X494430Y948883D01*
X495534Y948667D01*
X495580Y948860D01*
X495630Y949120D01*
X495660Y949380D01*
X495680Y949640D01*
X495690Y949900D01*
Y950000D01*
X495680Y950270D01*
X495660Y950530D01*
X495630Y950800D01*
X495580Y951060D01*
X495520Y951320D01*
X495516Y951333D01*
X494430Y951117D01*
X493945Y952288D01*
X492808Y953425D01*
X491324Y954040D01*
D02*
G37*
G36*
X498740Y949155D02*
X498650D01*
X498650Y949150D01*
X498590Y948730D01*
X498572Y948635D01*
X498740D01*
Y949155D01*
D02*
G37*
G36*
X272520Y946020D02*
X268000D01*
Y942000D01*
X272520D01*
Y946020D01*
D02*
G37*
G36*
X266000D02*
X261480D01*
Y942000D01*
X266000D01*
Y946020D01*
D02*
G37*
G36*
X210520Y942520D02*
X206000D01*
Y938500D01*
X210520D01*
Y942520D01*
D02*
G37*
G36*
X204000D02*
X199480D01*
Y938500D01*
X204000D01*
Y942520D01*
D02*
G37*
G36*
X272520Y940000D02*
X268000D01*
Y935980D01*
X272520D01*
Y940000D01*
D02*
G37*
G36*
X266000D02*
X261480D01*
Y935980D01*
X266000D01*
Y940000D01*
D02*
G37*
G36*
X210520Y936500D02*
X206000D01*
Y932480D01*
X210520D01*
Y936500D01*
D02*
G37*
G36*
X204000D02*
X199480D01*
Y932480D01*
X204000D01*
Y936500D01*
D02*
G37*
G36*
X457520Y918520D02*
X453000D01*
Y914500D01*
X457520D01*
Y918520D01*
D02*
G37*
G36*
X451000D02*
X446480D01*
Y914500D01*
X451000D01*
Y918520D01*
D02*
G37*
G36*
X457520Y912500D02*
X453000D01*
Y908480D01*
X457520D01*
Y912500D01*
D02*
G37*
G36*
X451000D02*
X446480D01*
Y908480D01*
X451000D01*
Y912500D01*
D02*
G37*
G36*
X144520Y890520D02*
X140000D01*
Y886500D01*
X144520D01*
Y890520D01*
D02*
G37*
G36*
X138000D02*
X133480D01*
Y886500D01*
X138000D01*
Y890520D01*
D02*
G37*
G36*
X144520Y884500D02*
X140000D01*
Y880480D01*
X144520D01*
Y884500D01*
D02*
G37*
G36*
X138000D02*
X133480D01*
Y880480D01*
X138000D01*
Y884500D01*
D02*
G37*
G36*
X184863Y898340D02*
X183137D01*
X181542Y897679D01*
X180321Y896458D01*
X179660Y894863D01*
Y893137D01*
X180321Y891542D01*
X181155Y890707D01*
Y889040D01*
X179960D01*
Y876960D01*
X189540D01*
Y889040D01*
X186845D01*
Y890707D01*
X187679Y891542D01*
X188340Y893137D01*
Y894863D01*
X187679Y896458D01*
X186458Y897679D01*
X184863Y898340D01*
D02*
G37*
G36*
X79540Y876040D02*
X69960D01*
Y863960D01*
X71960D01*
Y859034D01*
X72176Y857946D01*
X72752Y857085D01*
X72660Y856863D01*
Y855137D01*
X73321Y853542D01*
X74542Y852321D01*
X76137Y851660D01*
X77863D01*
X79458Y852321D01*
X80679Y853542D01*
X81340Y855137D01*
Y856863D01*
X80679Y858458D01*
X79458Y859679D01*
X77863Y860340D01*
X77649D01*
Y863960D01*
X79540D01*
Y876040D01*
D02*
G37*
G36*
X329863Y849340D02*
X328137D01*
X326542Y848679D01*
X325707Y847845D01*
X288000D01*
X286911Y847628D01*
X285989Y847011D01*
X269988Y831011D01*
X269372Y830089D01*
X269155Y829000D01*
Y766178D01*
X249980Y747003D01*
X216540D01*
Y755925D01*
X216540Y756040D01*
X216020Y757095D01*
X216020Y757310D01*
Y760000D01*
X209750D01*
X203480D01*
X203480Y757095D01*
X202960Y756040D01*
X202960Y755925D01*
Y746960D01*
X206905D01*
Y745622D01*
X207122Y744534D01*
X207738Y743611D01*
X209203Y742147D01*
X209203Y742146D01*
X210126Y741530D01*
X211215Y741313D01*
X251158D01*
X252246Y741530D01*
X253169Y742146D01*
X274011Y762989D01*
X274628Y763911D01*
X274845Y765000D01*
Y827822D01*
X289178Y842155D01*
X325707D01*
X326542Y841321D01*
X328137Y840660D01*
X329863D01*
X331458Y841321D01*
X332679Y842542D01*
X333340Y844137D01*
Y845863D01*
X332679Y847458D01*
X331458Y848679D01*
X329863Y849340D01*
D02*
G37*
G36*
X158520Y831520D02*
X154500D01*
Y827000D01*
X158520D01*
Y831520D01*
D02*
G37*
G36*
X152500D02*
X148480D01*
Y827000D01*
X152500D01*
Y831520D01*
D02*
G37*
G36*
X101250Y834062D02*
X101125D01*
X100288Y833895D01*
X99579Y833421D01*
X99104Y832712D01*
X98938Y831875D01*
Y826750D01*
X101250D01*
Y834062D01*
D02*
G37*
G36*
X158520Y825000D02*
X154500D01*
Y820480D01*
X158520D01*
Y825000D01*
D02*
G37*
G36*
X152500D02*
X148480D01*
Y820480D01*
X152500D01*
Y825000D01*
D02*
G37*
G36*
X101250Y824750D02*
X98938D01*
Y819625D01*
X99104Y818788D01*
X99579Y818079D01*
X100288Y817605D01*
X101125Y817438D01*
X101250D01*
Y824750D01*
D02*
G37*
G36*
X248863Y815340D02*
X247137D01*
X245542Y814679D01*
X244321Y813458D01*
X244276Y813350D01*
X230000D01*
X229101Y813171D01*
X228338Y812662D01*
X195338Y779662D01*
X194829Y778899D01*
X194650Y778000D01*
Y757973D01*
X191008Y754332D01*
X189456D01*
X189040Y754748D01*
X189040Y756040D01*
X189040Y757310D01*
Y764690D01*
X189040Y765540D01*
X189040Y766810D01*
Y775040D01*
X175460D01*
Y773095D01*
X173767D01*
X172340Y774522D01*
Y774863D01*
X171679Y776458D01*
X170458Y777679D01*
X168863Y778340D01*
X167137D01*
X165542Y777679D01*
X164321Y776458D01*
X163660Y774863D01*
Y773137D01*
X164321Y771542D01*
X165542Y770321D01*
X167137Y769660D01*
X168863D01*
X169070Y769746D01*
X170577Y768239D01*
X170577Y768239D01*
X171500Y767622D01*
X172589Y767405D01*
X172589Y767405D01*
X174562D01*
X175460Y766507D01*
X175460Y764743D01*
X174562Y763845D01*
X172293D01*
X171458Y764679D01*
X169863Y765340D01*
X168137D01*
X166542Y764679D01*
X165321Y763458D01*
X164660Y761863D01*
Y760137D01*
X165321Y758542D01*
X166542Y757321D01*
X168137Y756660D01*
X169863D01*
X171458Y757321D01*
X172293Y758155D01*
X174562D01*
X175460Y757257D01*
Y756460D01*
X175460Y755190D01*
Y746960D01*
X189040D01*
Y749150D01*
X191500D01*
X192399Y749329D01*
X193162Y749838D01*
X198662Y755338D01*
X199171Y756101D01*
X199350Y757000D01*
Y777027D01*
X230973Y808650D01*
X244276D01*
X244321Y808542D01*
X245542Y807321D01*
X247137Y806660D01*
X248863D01*
X250458Y807321D01*
X251679Y808542D01*
X252340Y810137D01*
Y811863D01*
X251679Y813458D01*
X250458Y814679D01*
X248863Y815340D01*
D02*
G37*
G36*
X235863Y801340D02*
X234137D01*
X232542Y800679D01*
X231321Y799458D01*
X230660Y797863D01*
Y796683D01*
X227988Y794012D01*
X227372Y793089D01*
X227155Y792000D01*
Y780040D01*
X223960D01*
Y777278D01*
X215215D01*
X214126Y777062D01*
X213203Y776445D01*
X213203Y776445D01*
X211798Y775040D01*
X202960D01*
Y766075D01*
X202960Y765960D01*
X203480Y764905D01*
X203480Y764690D01*
Y762000D01*
X209750D01*
X216020D01*
X216020Y764905D01*
X216540Y765960D01*
X216540Y766075D01*
Y771589D01*
X223960D01*
Y768960D01*
X236040D01*
Y780040D01*
X232845D01*
Y790822D01*
X234683Y792660D01*
X235863D01*
X237458Y793321D01*
X238679Y794542D01*
X239340Y796137D01*
Y797863D01*
X238679Y799458D01*
X237458Y800679D01*
X235863Y801340D01*
D02*
G37*
G36*
X235520Y764520D02*
X231000D01*
Y760500D01*
X235520D01*
Y764520D01*
D02*
G37*
G36*
X229000D02*
X224480D01*
Y760500D01*
X229000D01*
Y764520D01*
D02*
G37*
G36*
X235520Y758500D02*
X231000D01*
Y754480D01*
X235520D01*
Y758500D01*
D02*
G37*
G36*
X229000D02*
X224480D01*
Y754480D01*
X229000D01*
Y758500D01*
D02*
G37*
G36*
X249150Y738471D02*
X244850D01*
X242399Y738148D01*
X240114Y737202D01*
X238153Y735697D01*
X236648Y733736D01*
X235702Y731451D01*
X235379Y729000D01*
X235702Y726549D01*
X236648Y724265D01*
X238153Y722303D01*
X240114Y720798D01*
X242399Y719852D01*
X244650Y719555D01*
Y710350D01*
X238974D01*
X234662Y714662D01*
X233899Y715171D01*
X233000Y715350D01*
X164000D01*
X163101Y715171D01*
X162338Y714662D01*
X159972Y712295D01*
X159863Y712340D01*
X158137D01*
X156542Y711679D01*
X155321Y710458D01*
X154660Y708863D01*
Y707137D01*
X155321Y705542D01*
X156542Y704321D01*
X158137Y703660D01*
X159863D01*
X161458Y704321D01*
X162679Y705542D01*
X163340Y707137D01*
Y708863D01*
X163295Y708971D01*
X164974Y710650D01*
X232027D01*
X236338Y706338D01*
X237101Y705829D01*
X238000Y705650D01*
X320027D01*
X332650Y693027D01*
Y677724D01*
X332542Y677679D01*
X331321Y676458D01*
X330660Y674863D01*
Y673137D01*
X331321Y671542D01*
X332542Y670321D01*
X334137Y669660D01*
X335863D01*
X337458Y670321D01*
X338679Y671542D01*
X339340Y673137D01*
Y674863D01*
X338679Y676458D01*
X337458Y677679D01*
X337350Y677724D01*
Y694000D01*
X337171Y694899D01*
X336662Y695662D01*
X322662Y709662D01*
X321899Y710171D01*
X321000Y710350D01*
X249350D01*
Y719555D01*
X251601Y719852D01*
X253885Y720798D01*
X255847Y722303D01*
X257352Y724265D01*
X258298Y726549D01*
X258621Y729000D01*
X258298Y731451D01*
X257352Y733736D01*
X255847Y735697D01*
X253885Y737202D01*
X251601Y738148D01*
X249150Y738471D01*
D02*
G37*
G36*
X159863Y700340D02*
X158137D01*
X156542Y699679D01*
X155321Y698458D01*
X154660Y696863D01*
Y695137D01*
X155321Y693542D01*
X156542Y692321D01*
X158137Y691660D01*
X159863D01*
X159972Y691705D01*
X162338Y689338D01*
X163101Y688829D01*
X164000Y688650D01*
X234000D01*
X234899Y688829D01*
X235662Y689338D01*
X240112Y693789D01*
X244650D01*
Y688445D01*
X242399Y688148D01*
X240114Y687202D01*
X238153Y685697D01*
X236648Y683736D01*
X235702Y681451D01*
X235379Y679000D01*
X235702Y676549D01*
X236648Y674265D01*
X238153Y672303D01*
X240114Y670798D01*
X242399Y669852D01*
X244850Y669529D01*
X249150D01*
X251601Y669852D01*
X253885Y670798D01*
X255847Y672303D01*
X257352Y674265D01*
X258298Y676549D01*
X258621Y679000D01*
X258298Y681451D01*
X257352Y683736D01*
X255847Y685697D01*
X253885Y687202D01*
X251601Y688148D01*
X249350Y688445D01*
Y693789D01*
X314888D01*
X322650Y686027D01*
Y645000D01*
X322829Y644101D01*
X323338Y643338D01*
X335547Y631129D01*
X336309Y630620D01*
X337209Y630441D01*
X341869D01*
X341913Y630333D01*
X343134Y629112D01*
X344729Y628451D01*
X346456D01*
X348051Y629112D01*
X349272Y630333D01*
X349933Y631928D01*
Y633655D01*
X349272Y635250D01*
X348051Y636470D01*
X346456Y637131D01*
X344729D01*
X343134Y636470D01*
X341913Y635250D01*
X341869Y635141D01*
X338182D01*
X327350Y645974D01*
Y687000D01*
X327171Y687899D01*
X326662Y688662D01*
X317523Y697801D01*
X316761Y698310D01*
X315861Y698489D01*
X239139D01*
X238239Y698310D01*
X237477Y697801D01*
X233027Y693350D01*
X164974D01*
X163295Y695029D01*
X163340Y695137D01*
Y696863D01*
X162679Y698458D01*
X161458Y699679D01*
X159863Y700340D01*
D02*
G37*
G36*
X448000Y598621D02*
X445549Y598298D01*
X443265Y597352D01*
X441303Y595847D01*
X439798Y593885D01*
X438852Y591601D01*
X438529Y589150D01*
Y584850D01*
X438852Y582399D01*
X439798Y580115D01*
X441303Y578153D01*
X443265Y576648D01*
X445549Y575702D01*
X448000Y575379D01*
X450451Y575702D01*
X452735Y576648D01*
X454697Y578153D01*
X456202Y580115D01*
X457148Y582399D01*
X457471Y584850D01*
Y589150D01*
X457148Y591601D01*
X456202Y593885D01*
X454697Y595847D01*
X452735Y597352D01*
X450451Y598298D01*
X448000Y598621D01*
D02*
G37*
G36*
X352000Y570621D02*
X349549Y570298D01*
X347265Y569352D01*
X345303Y567847D01*
X343798Y565886D01*
X342852Y563601D01*
X342529Y561150D01*
Y556850D01*
X342852Y554399D01*
X343798Y552114D01*
X345303Y550153D01*
X347265Y548648D01*
X349549Y547702D01*
X352000Y547379D01*
X354451Y547702D01*
X356735Y548648D01*
X358697Y550153D01*
X360202Y552114D01*
X361148Y554399D01*
X361471Y556850D01*
Y561150D01*
X361148Y563601D01*
X360202Y565886D01*
X358697Y567847D01*
X356735Y569352D01*
X354451Y570298D01*
X352000Y570621D01*
D02*
G37*
G36*
X495040Y556040D02*
X482960D01*
Y546460D01*
X495040D01*
Y549310D01*
X501425D01*
X502650Y548085D01*
Y540000D01*
X502829Y539101D01*
X503338Y538338D01*
X506303Y535373D01*
X507066Y534864D01*
X507965Y534685D01*
X508960Y533938D01*
Y531960D01*
X513442D01*
Y528465D01*
X508822Y523845D01*
X492258D01*
X491444Y524658D01*
X489858Y525315D01*
X488142D01*
X486556Y524658D01*
X485342Y523444D01*
X484685Y521858D01*
Y520142D01*
X485342Y518556D01*
X486556Y517342D01*
X488142Y516685D01*
X489858D01*
X491444Y517342D01*
X492258Y518155D01*
X510000D01*
X511089Y518372D01*
X512011Y518988D01*
X518298Y525275D01*
X518298Y525275D01*
X518915Y526198D01*
X519131Y527287D01*
Y531960D01*
X521040D01*
Y541540D01*
X508960D01*
Y541540D01*
X507723Y541619D01*
X507350Y541867D01*
Y549059D01*
X507171Y549958D01*
X506662Y550720D01*
X506662Y550720D01*
X504061Y553322D01*
X503298Y553831D01*
X502399Y554010D01*
X495040D01*
Y556040D01*
D02*
G37*
G36*
X537500Y474770D02*
X527980D01*
Y467750D01*
X537500D01*
Y474770D01*
D02*
G37*
G36*
X525980D02*
X516460D01*
Y467750D01*
X525980D01*
Y474770D01*
D02*
G37*
G36*
X537500Y465750D02*
X527980D01*
Y458730D01*
X537500D01*
Y465750D01*
D02*
G37*
G36*
X525980D02*
X516460D01*
Y458730D01*
X525980D01*
Y465750D01*
D02*
G37*
G36*
X92040Y546040D02*
X43960D01*
Y507960D01*
X51410D01*
Y470000D01*
X51607Y469009D01*
X52169Y468169D01*
X66898Y453439D01*
X66660Y452863D01*
Y451137D01*
X67321Y449542D01*
X68542Y448321D01*
X70137Y447660D01*
X71863D01*
X73458Y448321D01*
X74679Y449542D01*
X75340Y451137D01*
Y452863D01*
X74679Y454458D01*
X73458Y455679D01*
X71863Y456340D01*
X71322D01*
X56590Y471073D01*
Y507960D01*
X92040D01*
Y546040D01*
D02*
G37*
G36*
X406858Y608315D02*
X405142D01*
X403556Y607658D01*
X402342Y606444D01*
X401685Y604858D01*
Y603142D01*
X402342Y601556D01*
X403556Y600342D01*
X405142Y599685D01*
X406858D01*
X406952Y599724D01*
X468563Y538113D01*
Y458000D01*
X468749Y457067D01*
X469277Y456277D01*
X480277Y445277D01*
X481068Y444749D01*
X482000Y444563D01*
X482000Y444563D01*
X489440D01*
Y442310D01*
X490872D01*
X491960Y441870D01*
X491960Y441040D01*
Y437850D01*
X502980D01*
X514000D01*
Y441870D01*
X513608D01*
X512520Y442310D01*
X512520Y443140D01*
Y453310D01*
Y464390D01*
X504350D01*
Y468027D01*
X530662Y494338D01*
X531171Y495101D01*
X531350Y496000D01*
X531350Y496000D01*
Y547000D01*
X531171Y547899D01*
X530662Y548662D01*
X527162Y552162D01*
X526399Y552671D01*
X525500Y552850D01*
X521040D01*
Y556040D01*
X508960D01*
Y546460D01*
X521040D01*
Y548150D01*
X524526D01*
X526650Y546026D01*
Y496973D01*
X500338Y470662D01*
X499829Y469899D01*
X499650Y469000D01*
Y464390D01*
X489440D01*
Y453310D01*
Y449437D01*
X483009D01*
X473437Y459009D01*
Y535150D01*
X482960D01*
Y531960D01*
X495040D01*
Y541540D01*
X482960D01*
Y539850D01*
X473473D01*
X472970Y540354D01*
X472723Y540723D01*
X472354Y540970D01*
X410276Y603048D01*
X410315Y603142D01*
Y604858D01*
X409658Y606444D01*
X408444Y607658D01*
X406858Y608315D01*
D02*
G37*
G36*
X349858Y489315D02*
X348142D01*
X346556Y488658D01*
X345342Y487444D01*
X344685Y485858D01*
Y484142D01*
X345342Y482556D01*
X346150Y481748D01*
Y419904D01*
X345556Y419658D01*
X344342Y418444D01*
X343685Y416858D01*
Y415142D01*
X344342Y413556D01*
X345556Y412342D01*
X347142Y411685D01*
X348858D01*
X350444Y412342D01*
X351658Y413556D01*
X352315Y415142D01*
Y416858D01*
X351658Y418444D01*
X350850Y419252D01*
Y481096D01*
X351444Y481342D01*
X352658Y482556D01*
X353315Y484142D01*
Y485858D01*
X352658Y487444D01*
X351444Y488658D01*
X349858Y489315D01*
D02*
G37*
G36*
X320858Y634315D02*
X319142D01*
X317556Y633658D01*
X316342Y632444D01*
X315685Y630858D01*
Y629142D01*
X316342Y627556D01*
X317556Y626342D01*
X317650Y626303D01*
Y567000D01*
X317829Y566101D01*
X318338Y565338D01*
X394630Y489047D01*
Y461290D01*
X386940D01*
Y440210D01*
X394630D01*
Y404290D01*
X390963D01*
X378845Y416408D01*
Y419960D01*
X380040D01*
Y432040D01*
X370460D01*
Y419960D01*
X373155D01*
Y415230D01*
X373372Y414141D01*
X373988Y413219D01*
X386940Y400267D01*
Y383210D01*
X404020D01*
Y404290D01*
X399330D01*
Y440210D01*
X404020D01*
Y461290D01*
X399330D01*
Y490020D01*
X399151Y490919D01*
X398642Y491682D01*
X322350Y567974D01*
Y626303D01*
X322444Y626342D01*
X323658Y627556D01*
X324315Y629142D01*
Y630858D01*
X323658Y632444D01*
X322444Y633658D01*
X320858Y634315D01*
D02*
G37*
G36*
X336858Y490315D02*
X335142D01*
X333556Y489658D01*
X332342Y488444D01*
X331685Y486858D01*
Y485142D01*
X332342Y483556D01*
X333556Y482342D01*
X333650Y482303D01*
Y404697D01*
X333556Y404658D01*
X332342Y403444D01*
X331685Y401858D01*
Y400142D01*
X332342Y398556D01*
X333556Y397342D01*
X335142Y396685D01*
X336858D01*
X338444Y397342D01*
X339658Y398556D01*
X340315Y400142D01*
Y401858D01*
X339658Y403444D01*
X338444Y404658D01*
X338350Y404697D01*
Y482303D01*
X338444Y482342D01*
X339658Y483556D01*
X340315Y485142D01*
Y486858D01*
X339658Y488444D01*
X338444Y489658D01*
X336858Y490315D01*
D02*
G37*
G36*
X460769Y637698D02*
X459052D01*
X457466Y637041D01*
X456253Y635827D01*
X456250Y635820D01*
X407926D01*
X406994Y635634D01*
X406203Y635106D01*
X406203Y635106D01*
X381277Y610180D01*
X380749Y609389D01*
X380563Y608457D01*
Y581000D01*
X380749Y580067D01*
X381277Y579277D01*
X452563Y507991D01*
Y445000D01*
X452749Y444067D01*
X453277Y443277D01*
X465563Y430991D01*
Y407000D01*
X465749Y406068D01*
X466277Y405277D01*
X470277Y401277D01*
X470277Y401277D01*
X471068Y400749D01*
X472000Y400563D01*
X489440D01*
Y398390D01*
X485440D01*
Y395287D01*
X476850D01*
X475917Y395101D01*
X475127Y394573D01*
X473000Y392446D01*
X460437Y405009D01*
Y427000D01*
X460251Y427933D01*
X459723Y428723D01*
X459723Y428723D01*
X448437Y440009D01*
Y506000D01*
X448437Y506000D01*
X448251Y506932D01*
X447723Y507723D01*
X447723Y507723D01*
X360600Y594846D01*
Y629130D01*
X360607Y629133D01*
X361821Y630347D01*
X362478Y631933D01*
Y633650D01*
X361821Y635235D01*
X360607Y636449D01*
X359022Y637106D01*
X357305D01*
X355719Y636449D01*
X354505Y635235D01*
X353848Y633650D01*
Y631933D01*
X354505Y630347D01*
X355719Y629133D01*
X355727Y629130D01*
Y593837D01*
X355912Y592904D01*
X356440Y592114D01*
X443563Y504991D01*
Y439000D01*
X443749Y438068D01*
X444277Y437277D01*
X455563Y425991D01*
Y404000D01*
X455749Y403068D01*
X456277Y402277D01*
X470563Y387991D01*
Y365000D01*
X470749Y364067D01*
X471277Y363277D01*
X496563Y337991D01*
Y315040D01*
X493460D01*
Y302960D01*
X503040D01*
Y315040D01*
X501437D01*
Y339000D01*
X501251Y339933D01*
X500723Y340723D01*
X475437Y366009D01*
Y387991D01*
X477859Y390413D01*
X485440D01*
Y387310D01*
X489440D01*
Y376310D01*
X498543D01*
Y365020D01*
X498729Y364087D01*
X499257Y363297D01*
X507286Y355267D01*
Y291560D01*
X506164Y290437D01*
X503040D01*
Y294040D01*
X493460D01*
Y281960D01*
X503040D01*
Y285563D01*
X507173D01*
X508106Y285749D01*
X508896Y286277D01*
X511446Y288827D01*
X511974Y289618D01*
X512160Y290550D01*
X512160Y290550D01*
Y356277D01*
X511974Y357209D01*
X511446Y358000D01*
X503417Y366029D01*
Y376310D01*
X512520D01*
Y387390D01*
X508520D01*
Y398310D01*
X512520D01*
Y401500D01*
X515177D01*
X520650Y396026D01*
Y360973D01*
X515338Y355662D01*
X514829Y354899D01*
X514650Y354000D01*
Y272973D01*
X510027Y268350D01*
X503040D01*
Y272040D01*
X493460D01*
Y259960D01*
X503040D01*
Y263650D01*
X511000D01*
X511899Y263829D01*
X512662Y264338D01*
X518662Y270338D01*
X519171Y271101D01*
X519350Y272000D01*
Y353027D01*
X524662Y358338D01*
X524662Y358338D01*
X525171Y359101D01*
X525350Y360000D01*
X525350Y360000D01*
Y397000D01*
X525171Y397899D01*
X524662Y398662D01*
X517812Y405512D01*
X517049Y406021D01*
X516150Y406200D01*
X512520D01*
Y409310D01*
X514520D01*
Y420390D01*
X512520D01*
X512520Y431390D01*
X513608Y431830D01*
X514000D01*
Y435850D01*
X502980D01*
X491960D01*
X491960Y431830D01*
X490872Y431390D01*
X489440D01*
Y428350D01*
X487974D01*
X463350Y452974D01*
Y525000D01*
X463350Y525000D01*
X463171Y525899D01*
X462662Y526662D01*
X462662Y526662D01*
X407315Y582009D01*
Y582858D01*
X406658Y584444D01*
X405444Y585658D01*
X403858Y586315D01*
X402142D01*
X400556Y585658D01*
X399342Y584444D01*
X398685Y582858D01*
Y581142D01*
X399342Y579556D01*
X400556Y578342D01*
X402142Y577685D01*
X403858D01*
X404660Y578017D01*
X458650Y524026D01*
Y509412D01*
X457380Y509287D01*
X457251Y509933D01*
X456723Y510723D01*
X385437Y582009D01*
Y607447D01*
X408936Y630946D01*
X456250D01*
X456253Y630939D01*
X457466Y629725D01*
X459052Y629068D01*
X460769D01*
X462355Y629725D01*
X463569Y630939D01*
X464226Y632525D01*
Y634241D01*
X463569Y635827D01*
X462355Y637041D01*
X460769Y637698D01*
D02*
G37*
G36*
X437780Y472917D02*
X416979D01*
X415801Y472429D01*
X415313Y471251D01*
Y367551D01*
X415801Y366372D01*
X416979Y365884D01*
X437780D01*
X438958Y366372D01*
X439446Y367551D01*
Y471251D01*
X438958Y472429D01*
X437780Y472917D01*
D02*
G37*
G36*
X535980Y343270D02*
X526460D01*
Y336250D01*
X535980D01*
Y343270D01*
D02*
G37*
G36*
X185858Y541315D02*
X184142D01*
X182556Y540658D01*
X181342Y539444D01*
X180685Y537858D01*
Y536142D01*
X181342Y534556D01*
X182556Y533342D01*
X182650Y533303D01*
Y513000D01*
X182829Y512101D01*
X183338Y511338D01*
X357724Y336952D01*
X357685Y336858D01*
Y335142D01*
X358342Y333556D01*
X359556Y332342D01*
X361142Y331685D01*
X362858D01*
X364444Y332342D01*
X365658Y333556D01*
X366315Y335142D01*
Y336858D01*
X365658Y338444D01*
X364444Y339658D01*
X362858Y340315D01*
X361142D01*
X361048Y340276D01*
X187350Y513974D01*
Y533303D01*
X187444Y533342D01*
X188658Y534556D01*
X189315Y536142D01*
Y537858D01*
X188658Y539444D01*
X187444Y540658D01*
X185858Y541315D01*
D02*
G37*
G36*
X535980Y334250D02*
X526460D01*
Y327230D01*
X535980D01*
Y334250D01*
D02*
G37*
G36*
X208858Y513315D02*
X207142D01*
X205556Y512658D01*
X204342Y511444D01*
X203685Y509858D01*
Y508142D01*
X204342Y506556D01*
X205556Y505342D01*
X207142Y504685D01*
X208858D01*
X208952Y504724D01*
X370650Y343027D01*
Y318000D01*
X370829Y317101D01*
X371338Y316338D01*
X376724Y310952D01*
X376685Y310858D01*
Y309142D01*
X377342Y307556D01*
X378556Y306342D01*
X380142Y305685D01*
X381858D01*
X383444Y306342D01*
X384658Y307556D01*
X385315Y309142D01*
Y310858D01*
X384658Y312444D01*
X383444Y313658D01*
X381858Y314315D01*
X380142D01*
X380048Y314276D01*
X375350Y318974D01*
Y344000D01*
X375171Y344899D01*
X374662Y345662D01*
X374662Y345662D01*
X212276Y508048D01*
X212315Y508142D01*
Y509858D01*
X211658Y511444D01*
X210444Y512658D01*
X208858Y513315D01*
D02*
G37*
G36*
X71133Y335340D02*
X69407D01*
X67811Y334679D01*
X66591Y333458D01*
X65930Y331863D01*
Y330137D01*
X66391Y329025D01*
Y326000D01*
X66665Y324619D01*
X67448Y323448D01*
X77448Y313448D01*
X78619Y312665D01*
X80000Y312391D01*
X156505D01*
X165391Y303505D01*
Y283493D01*
X165342Y283444D01*
X164685Y281858D01*
Y280142D01*
X165342Y278556D01*
X166556Y277342D01*
X168142Y276685D01*
X168211D01*
X174448Y270448D01*
X175619Y269665D01*
X177000Y269391D01*
X220507D01*
X220556Y269342D01*
X222142Y268685D01*
X223858D01*
X225444Y269342D01*
X226658Y270556D01*
X227315Y272142D01*
Y272211D01*
X248495Y293391D01*
X281472D01*
X281542Y293321D01*
X283137Y292660D01*
X284863D01*
X286458Y293321D01*
X287679Y294542D01*
X288340Y296137D01*
Y296958D01*
X288348Y297000D01*
X288340Y297042D01*
Y297863D01*
X287679Y299458D01*
X286458Y300679D01*
X284863Y301340D01*
X283137D01*
X281542Y300679D01*
X281472Y300609D01*
X247000D01*
X245619Y300335D01*
X244448Y299552D01*
X222211Y277315D01*
X222142D01*
X220556Y276658D01*
X220507Y276609D01*
X178495D01*
X173315Y281789D01*
Y281858D01*
X172658Y283444D01*
X172609Y283493D01*
Y305000D01*
X172335Y306381D01*
X171552Y307552D01*
X160552Y318552D01*
X159381Y319335D01*
X158000Y319609D01*
X81495D01*
X73609Y327495D01*
Y328202D01*
X73949Y328542D01*
X74610Y330137D01*
Y331863D01*
X73949Y333458D01*
X72728Y334679D01*
X71133Y335340D01*
D02*
G37*
G36*
X91520Y285520D02*
X69000D01*
Y268000D01*
X91520D01*
Y285520D01*
D02*
G37*
G36*
X67000D02*
X44480D01*
Y268000D01*
X67000D01*
Y285520D01*
D02*
G37*
G36*
X366858Y470315D02*
X365142D01*
X363556Y469658D01*
X362342Y468444D01*
X361685Y466858D01*
Y465142D01*
X361745Y464997D01*
X358169Y461422D01*
X357607Y460581D01*
X357410Y459590D01*
Y432040D01*
X355960D01*
Y419960D01*
X357410D01*
Y387000D01*
X357607Y386009D01*
X358169Y385169D01*
X436460Y306878D01*
X437300Y306316D01*
X438291Y306119D01*
X478960D01*
Y302960D01*
X480410D01*
Y294040D01*
X478960D01*
Y281960D01*
X481160D01*
Y272040D01*
X478960D01*
Y259960D01*
X488540D01*
Y272040D01*
X486340D01*
Y281960D01*
X488540D01*
Y294040D01*
X485590D01*
Y302960D01*
X488540D01*
Y315040D01*
X478960D01*
Y311299D01*
X439364D01*
X362590Y388073D01*
Y419960D01*
X365540D01*
Y432040D01*
X362590D01*
Y458518D01*
X365757Y461685D01*
X366858D01*
X368444Y462342D01*
X369658Y463556D01*
X370315Y465142D01*
Y466858D01*
X369658Y468444D01*
X368444Y469658D01*
X366858Y470315D01*
D02*
G37*
G36*
X177863Y370340D02*
X176137D01*
X174542Y369679D01*
X173321Y368458D01*
X172660Y366863D01*
Y365137D01*
X173321Y363542D01*
X174542Y362321D01*
X176137Y361660D01*
X177863D01*
X179458Y362321D01*
X179528Y362391D01*
X289505D01*
X321391Y330505D01*
Y286000D01*
X321665Y284619D01*
X322448Y283448D01*
X346448Y259448D01*
X347619Y258665D01*
X349000Y258391D01*
X349000Y258391D01*
X442657D01*
X444038Y258665D01*
X445209Y259448D01*
X457552Y271791D01*
X458335Y272962D01*
X458609Y274343D01*
Y293507D01*
X458658Y293556D01*
X459315Y295142D01*
Y296858D01*
X458658Y298444D01*
X457444Y299658D01*
X455858Y300315D01*
X454142D01*
X452556Y299658D01*
X451342Y298444D01*
X450685Y296858D01*
Y295142D01*
X451342Y293556D01*
X451391Y293507D01*
Y275838D01*
X441162Y265609D01*
X350495D01*
X328609Y287495D01*
Y332000D01*
X328335Y333381D01*
X327552Y334552D01*
X293552Y368552D01*
X292381Y369335D01*
X291000Y369609D01*
X179528D01*
X179458Y369679D01*
X177863Y370340D01*
D02*
G37*
G36*
X91520Y266000D02*
X69000D01*
Y248480D01*
X91520D01*
Y266000D01*
D02*
G37*
G36*
X67000D02*
X44480D01*
Y248480D01*
X67000D01*
Y266000D01*
D02*
G37*
G36*
X31000Y246022D02*
X27679Y245695D01*
X24486Y244726D01*
X21543Y243153D01*
X18964Y241036D01*
X16847Y238457D01*
X15274Y235514D01*
X14305Y232321D01*
X13978Y229000D01*
X14305Y225679D01*
X15274Y222486D01*
X16847Y219543D01*
X18964Y216964D01*
X21543Y214847D01*
X24486Y213274D01*
X27679Y212305D01*
X31000Y211978D01*
X34321Y212305D01*
X37514Y213274D01*
X40457Y214847D01*
X43036Y216964D01*
X45153Y219543D01*
X46726Y222486D01*
X47695Y225679D01*
X48022Y229000D01*
X47695Y232321D01*
X46726Y235514D01*
X45153Y238457D01*
X43036Y241036D01*
X40457Y243153D01*
X37514Y244726D01*
X34321Y245695D01*
X31000Y246022D01*
D02*
G37*
G36*
X423505Y180261D02*
X423255D01*
Y173898D01*
X430736D01*
X430617Y174804D01*
X429882Y176580D01*
X428712Y178105D01*
X427187Y179275D01*
X425411Y180010D01*
X423505Y180261D01*
D02*
G37*
G36*
X421255D02*
X421005D01*
X419099Y180010D01*
X417323Y179275D01*
X415799Y178105D01*
X414628Y176580D01*
X413893Y174804D01*
X413774Y173898D01*
X421255D01*
Y180261D01*
D02*
G37*
G36*
X375505D02*
X375255D01*
Y173898D01*
X382736D01*
X382617Y174804D01*
X381882Y176580D01*
X380712Y178105D01*
X379187Y179275D01*
X377411Y180010D01*
X375505Y180261D01*
D02*
G37*
G36*
X373255D02*
X373005D01*
X371099Y180010D01*
X369324Y179275D01*
X367799Y178105D01*
X366628Y176580D01*
X365893Y174804D01*
X365774Y173898D01*
X373255D01*
Y180261D01*
D02*
G37*
G36*
X42706Y207848D02*
X39251D01*
X35862Y207174D01*
X32670Y205852D01*
X29797Y203932D01*
X27354Y201489D01*
X25435Y198616D01*
X24113Y195424D01*
X23439Y192035D01*
Y188580D01*
X24113Y185192D01*
X25435Y182000D01*
X27354Y179127D01*
X29797Y176684D01*
X32670Y174764D01*
X35862Y173442D01*
X39251Y172768D01*
X42706D01*
X46095Y173442D01*
X49287Y174764D01*
X52160Y176684D01*
X54603Y179127D01*
X56522Y182000D01*
X57845Y185192D01*
X58519Y188580D01*
Y192035D01*
X57845Y195424D01*
X56522Y198616D01*
X54603Y201489D01*
X52160Y203932D01*
X49287Y205852D01*
X46095Y207174D01*
X42706Y207848D01*
D02*
G37*
G36*
X509000Y200022D02*
X505679Y199695D01*
X502486Y198726D01*
X499543Y197153D01*
X496964Y195036D01*
X494847Y192457D01*
X493274Y189514D01*
X492305Y186321D01*
X491978Y183000D01*
X492305Y179679D01*
X493274Y176486D01*
X494847Y173543D01*
X496964Y170964D01*
X499543Y168847D01*
X502486Y167274D01*
X505679Y166305D01*
X509000Y165978D01*
X512321Y166305D01*
X515514Y167274D01*
X518457Y168847D01*
X521036Y170964D01*
X523153Y173543D01*
X524726Y176486D01*
X525695Y179679D01*
X526022Y183000D01*
X525695Y186321D01*
X524726Y189514D01*
X523153Y192457D01*
X521036Y195036D01*
X518457Y197153D01*
X515514Y198726D01*
X512321Y199695D01*
X509000Y200022D01*
D02*
G37*
G36*
X430736Y171898D02*
X423255D01*
Y165535D01*
X423505D01*
X425411Y165786D01*
X427187Y166522D01*
X428712Y167692D01*
X429882Y169217D01*
X430617Y170992D01*
X430736Y171898D01*
D02*
G37*
G36*
X421255D02*
X413774D01*
X413893Y170992D01*
X414628Y169217D01*
X415799Y167692D01*
X417323Y166522D01*
X419099Y165786D01*
X421005Y165535D01*
X421255D01*
Y171898D01*
D02*
G37*
G36*
X382736D02*
X375255D01*
Y165535D01*
X375505D01*
X377411Y165786D01*
X379187Y166522D01*
X380712Y167692D01*
X381882Y169217D01*
X382617Y170992D01*
X382736Y171898D01*
D02*
G37*
G36*
X373255D02*
X365774D01*
X365893Y170992D01*
X366628Y169217D01*
X367799Y167692D01*
X369324Y166522D01*
X371099Y165786D01*
X373005Y165535D01*
X373255D01*
Y171898D01*
D02*
G37*
G36*
X436558Y155788D02*
X434812D01*
X433198Y155120D01*
X431963Y153885D01*
X431295Y152271D01*
Y150525D01*
X431963Y148911D01*
X433198Y147676D01*
X434812Y147008D01*
X436558D01*
X438172Y147676D01*
X439407Y148911D01*
X440075Y150525D01*
Y152271D01*
X439407Y153885D01*
X438172Y155120D01*
X436558Y155788D01*
D02*
G37*
G36*
X361628D02*
X359882D01*
X358268Y155120D01*
X357033Y153885D01*
X356365Y152271D01*
Y150525D01*
X357033Y148911D01*
X358268Y147676D01*
X359882Y147008D01*
X361628D01*
X363242Y147676D01*
X364477Y148911D01*
X365145Y150525D01*
Y152271D01*
X364477Y153885D01*
X363242Y155120D01*
X361628Y155788D01*
D02*
G37*
G36*
X177195Y142590D02*
X109350D01*
X108359Y142393D01*
X107519Y141831D01*
X101876Y136188D01*
X80380D01*
X78023Y135719D01*
X76025Y134385D01*
X74690Y132387D01*
X74222Y130030D01*
Y121030D01*
X74690Y118673D01*
X76025Y116675D01*
X78023Y115340D01*
X80380Y114872D01*
X109380D01*
X111737Y115340D01*
X113735Y116675D01*
X115070Y118673D01*
X115538Y121030D01*
Y130030D01*
X115070Y132387D01*
X113735Y134385D01*
X111867Y135633D01*
X111702Y135847D01*
X111365Y137088D01*
X111604Y137410D01*
X175827D01*
Y136827D01*
X176484Y135241D01*
X177697Y134027D01*
X179283Y133370D01*
X181000D01*
X182586Y134027D01*
X183800Y135241D01*
X184457Y136827D01*
Y138543D01*
X183800Y140129D01*
X182586Y141343D01*
X181000Y142000D01*
X179283D01*
X178969Y141870D01*
X178186Y142393D01*
X177195Y142590D01*
D02*
G37*
G36*
X423505Y137261D02*
X423255D01*
Y130898D01*
X430736D01*
X430617Y131804D01*
X429882Y133580D01*
X428712Y135105D01*
X427187Y136275D01*
X425411Y137010D01*
X423505Y137261D01*
D02*
G37*
G36*
X421255D02*
X421005D01*
X419099Y137010D01*
X417323Y136275D01*
X415799Y135105D01*
X414628Y133580D01*
X413893Y131804D01*
X413774Y130898D01*
X421255D01*
Y137261D01*
D02*
G37*
G36*
X375505D02*
X375255D01*
Y130898D01*
X382736D01*
X382617Y131804D01*
X381882Y133580D01*
X380712Y135105D01*
X379187Y136275D01*
X377411Y137010D01*
X375505Y137261D01*
D02*
G37*
G36*
X373255D02*
X373005D01*
X371099Y137010D01*
X369324Y136275D01*
X367799Y135105D01*
X366628Y133580D01*
X365893Y131804D01*
X365774Y130898D01*
X373255D01*
Y137261D01*
D02*
G37*
G36*
X511906Y159848D02*
X508451D01*
X505062Y159174D01*
X501870Y157852D01*
X498997Y155932D01*
X496554Y153489D01*
X494635Y150616D01*
X493313Y147424D01*
X492639Y144035D01*
Y140580D01*
X493313Y137192D01*
X494635Y134000D01*
X496554Y131127D01*
X498997Y128684D01*
X501870Y126764D01*
X505062Y125442D01*
X508451Y124768D01*
X511906D01*
X515295Y125442D01*
X518487Y126764D01*
X521360Y128684D01*
X523803Y131127D01*
X525722Y134000D01*
X527044Y137192D01*
X527719Y140580D01*
Y144035D01*
X527044Y147424D01*
X525722Y150616D01*
X523803Y153489D01*
X521360Y155932D01*
X518487Y157852D01*
X515295Y159174D01*
X511906Y159848D01*
D02*
G37*
G36*
X327150Y142471D02*
X322850D01*
X320399Y142148D01*
X318114Y141202D01*
X316153Y139697D01*
X314648Y137736D01*
X313702Y135451D01*
X313379Y133000D01*
X313702Y130549D01*
X314648Y128265D01*
X316153Y126303D01*
X318114Y124798D01*
X320399Y123852D01*
X322850Y123529D01*
X327150D01*
X329601Y123852D01*
X331885Y124798D01*
X333847Y126303D01*
X335352Y128265D01*
X336298Y130549D01*
X336621Y133000D01*
X336298Y135451D01*
X335352Y137736D01*
X333847Y139697D01*
X331885Y141202D01*
X329601Y142148D01*
X327150Y142471D01*
D02*
G37*
G36*
X430736Y128898D02*
X423255D01*
Y122535D01*
X423505D01*
X425411Y122786D01*
X427187Y123522D01*
X428712Y124692D01*
X429882Y126217D01*
X430617Y127992D01*
X430736Y128898D01*
D02*
G37*
G36*
X421255D02*
X413774D01*
X413893Y127992D01*
X414628Y126217D01*
X415799Y124692D01*
X417323Y123522D01*
X419099Y122786D01*
X421005Y122535D01*
X421255D01*
Y128898D01*
D02*
G37*
G36*
X382736D02*
X375255D01*
Y122535D01*
X375505D01*
X377411Y122786D01*
X379187Y123522D01*
X380712Y124692D01*
X381882Y126217D01*
X382617Y127992D01*
X382736Y128898D01*
D02*
G37*
G36*
X373255D02*
X365774D01*
X365893Y127992D01*
X366628Y126217D01*
X367799Y124692D01*
X369324Y123522D01*
X371099Y122786D01*
X373005Y122535D01*
X373255D01*
Y128898D01*
D02*
G37*
G36*
X47880Y116161D02*
X45128Y115799D01*
X42565Y114737D01*
X40363Y113047D01*
X38673Y110845D01*
X37611Y108281D01*
X37249Y105530D01*
Y85530D01*
X37611Y82779D01*
X38673Y80215D01*
X40363Y78013D01*
X42565Y76323D01*
X45128Y75261D01*
X47880Y74899D01*
X50631Y75261D01*
X53195Y76323D01*
X55397Y78013D01*
X57087Y80215D01*
X58149Y82779D01*
X58511Y85530D01*
Y105530D01*
X58149Y108281D01*
X57087Y110845D01*
X55397Y113047D01*
X53195Y114737D01*
X50631Y115799D01*
X47880Y116161D01*
D02*
G37*
G36*
X104380Y76161D02*
X85380D01*
X82628Y75799D01*
X80064Y74737D01*
X77863Y73047D01*
X76173Y70845D01*
X75111Y68281D01*
X74749Y65530D01*
X75111Y62779D01*
X76173Y60215D01*
X77863Y58013D01*
X80064Y56323D01*
X82628Y55261D01*
X85380Y54899D01*
X104380D01*
X107132Y55261D01*
X109696Y56323D01*
X111897Y58013D01*
X113587Y60215D01*
X114649Y62779D01*
X115011Y65530D01*
X114649Y68281D01*
X113587Y70845D01*
X111897Y73047D01*
X109696Y74737D01*
X107132Y75799D01*
X104380Y76161D01*
D02*
G37*
%LPD*%
G36*
X417155Y1282822D02*
Y1148000D01*
Y1110000D01*
Y967178D01*
X348988Y899012D01*
X348197Y898220D01*
X278904D01*
X278447Y899000D01*
X278904Y899780D01*
X339625D01*
X340714Y899997D01*
X341637Y900613D01*
X357683Y916660D01*
X358863D01*
X360458Y917321D01*
X361679Y918542D01*
X362340Y920137D01*
Y921317D01*
X411011Y969988D01*
X411012Y969988D01*
X411628Y970911D01*
X411845Y972000D01*
X411845Y972000D01*
Y990000D01*
Y1111000D01*
Y1148000D01*
Y1238000D01*
X411628Y1239089D01*
X411012Y1240012D01*
X373012Y1278011D01*
X372089Y1278628D01*
X371000Y1278845D01*
X280178D01*
X268345Y1290678D01*
Y1300210D01*
X268762Y1300488D01*
X269378Y1301411D01*
X269460Y1301823D01*
X270730Y1301698D01*
Y1301230D01*
X274000D01*
Y1309000D01*
Y1316770D01*
X270730D01*
Y1316302D01*
X269460Y1316177D01*
X269378Y1316589D01*
X268762Y1317511D01*
X268345Y1317790D01*
Y1328155D01*
X371822D01*
X417155Y1282822D01*
D02*
G37*
G36*
X260748Y898162D02*
X260686Y898022D01*
X260615Y897915D01*
X260408Y896875D01*
Y894625D01*
X260615Y893585D01*
X261204Y892704D01*
X261119Y891233D01*
X261104Y891212D01*
X260938Y890375D01*
Y890250D01*
X269250D01*
X277562D01*
Y890375D01*
X277395Y891212D01*
X277381Y891233D01*
X277370Y891274D01*
X278042Y892530D01*
X319250D01*
Y890273D01*
X290822Y861845D01*
X265000D01*
X263911Y861628D01*
X262989Y861012D01*
X200822Y798845D01*
X125178D01*
X112337Y811686D01*
X112368Y811813D01*
X113775Y812202D01*
X124988Y800989D01*
X124988Y800988D01*
X125911Y800372D01*
X127000Y800155D01*
X179000D01*
X180089Y800372D01*
X181012Y800988D01*
X198011Y817989D01*
X198011Y817989D01*
X198628Y818911D01*
X198845Y820000D01*
Y846822D01*
X217683Y865660D01*
X218863D01*
X220458Y866321D01*
X221293Y867155D01*
X245000D01*
X246089Y867372D01*
X247011Y867989D01*
X254261Y875238D01*
X254261Y875238D01*
X254878Y876161D01*
X255095Y877250D01*
X255095Y877250D01*
Y899405D01*
X260083D01*
X260748Y898162D01*
D02*
G37*
%LPC*%
G36*
X341040Y1320040D02*
X328960D01*
Y1318037D01*
X286975D01*
X286839Y1318128D01*
X285750Y1318345D01*
X283250D01*
X282161Y1318128D01*
X281238Y1317511D01*
X280622Y1316589D01*
X280540Y1316177D01*
X279270Y1316302D01*
Y1316770D01*
X276000D01*
Y1309000D01*
Y1301230D01*
X279270D01*
Y1308198D01*
X280540Y1308323D01*
X280622Y1307911D01*
X281238Y1306989D01*
X282161Y1306372D01*
X283250Y1306155D01*
X285750D01*
X286839Y1306372D01*
X287125Y1306563D01*
X290000D01*
X290933Y1306749D01*
X291723Y1307277D01*
X293723Y1309277D01*
X294251Y1310067D01*
X294437Y1311000D01*
Y1313163D01*
X328960D01*
Y1308960D01*
X341040D01*
Y1312650D01*
X347303D01*
X347342Y1312556D01*
X348556Y1311342D01*
X350142Y1310685D01*
X351858D01*
X353444Y1311342D01*
X354658Y1312556D01*
X355315Y1314142D01*
Y1315858D01*
X354658Y1317444D01*
X353444Y1318658D01*
X351858Y1319315D01*
X350142D01*
X348556Y1318658D01*
X347342Y1317444D01*
X347303Y1317350D01*
X341040D01*
Y1320040D01*
D02*
G37*
G36*
X285750Y1304814D02*
X285500D01*
Y1303500D01*
X287812D01*
X287387Y1304137D01*
X286636Y1304638D01*
X285750Y1304814D01*
D02*
G37*
G36*
X283500D02*
X283250D01*
X282364Y1304638D01*
X281613Y1304137D01*
X281188Y1303500D01*
X283500D01*
Y1304814D01*
D02*
G37*
G36*
X340520Y1304520D02*
X336000D01*
Y1300500D01*
X340520D01*
Y1304520D01*
D02*
G37*
G36*
X334000D02*
X329480D01*
Y1300500D01*
X334000D01*
Y1304520D01*
D02*
G37*
G36*
X287812Y1301500D02*
X285500D01*
Y1300186D01*
X285750D01*
X286636Y1300362D01*
X287387Y1300863D01*
X287812Y1301500D01*
D02*
G37*
G36*
X283500D02*
X281188D01*
X281613Y1300863D01*
X282364Y1300362D01*
X283250Y1300186D01*
X283500D01*
Y1301500D01*
D02*
G37*
G36*
X340520Y1298500D02*
X336000D01*
Y1294480D01*
X340520D01*
Y1298500D01*
D02*
G37*
G36*
X334000D02*
X329480D01*
Y1294480D01*
X334000D01*
Y1298500D01*
D02*
G37*
G36*
X277562Y888250D02*
X270250D01*
Y885938D01*
X275375D01*
X276212Y886105D01*
X276921Y886579D01*
X277395Y887288D01*
X277562Y888125D01*
Y888250D01*
D02*
G37*
G36*
X268250D02*
X260938D01*
Y888125D01*
X261104Y887288D01*
X261579Y886579D01*
X262288Y886105D01*
X263125Y885938D01*
X268250D01*
Y888250D01*
D02*
G37*
%LPD*%
G36*
X314722Y1083768D02*
X315543Y1083219D01*
X316512Y1083027D01*
X317492D01*
Y1077113D01*
X317492D01*
X317797Y1076377D01*
X311960Y1070540D01*
X311412Y1069719D01*
X311219Y1068750D01*
Y1067040D01*
X308960D01*
Y1064531D01*
X282000D01*
X281031Y1064338D01*
X280210Y1063790D01*
X279857Y1063436D01*
X278479Y1063854D01*
X278471Y1063892D01*
X287596Y1073016D01*
X288144Y1073837D01*
X288337Y1074806D01*
Y1076960D01*
X292040D01*
Y1079675D01*
X302992D01*
Y1077113D01*
X312572D01*
Y1083027D01*
X312913D01*
X313882Y1083219D01*
X314703Y1083768D01*
X314713Y1083777D01*
X314722Y1083768D01*
D02*
G37*
G36*
X228031Y1082662D02*
X229000Y1082469D01*
X230210D01*
Y1076661D01*
X239790D01*
Y1079811D01*
X255960D01*
Y1076960D01*
X259469D01*
Y1072000D01*
X259662Y1071031D01*
X260210Y1070210D01*
X267469Y1062952D01*
Y1059383D01*
X267327Y1059215D01*
X266342Y1058869D01*
X266199Y1058864D01*
X265128Y1059934D01*
X264307Y1060483D01*
X263338Y1060676D01*
X240040D01*
Y1064040D01*
X238531D01*
Y1069808D01*
X238338Y1070776D01*
X237790Y1071598D01*
X236686Y1072702D01*
X235865Y1073250D01*
X234896Y1073443D01*
X227233D01*
X224917Y1075759D01*
X225290Y1076661D01*
X225290D01*
Y1082469D01*
X225575D01*
X226544Y1082662D01*
X227288Y1083159D01*
X228031Y1082662D01*
D02*
G37*
G36*
X274250Y997415D02*
X275750D01*
X276380Y997540D01*
X277274Y997057D01*
X277650Y996738D01*
Y984974D01*
X251338Y958662D01*
X250829Y957899D01*
X250650Y957000D01*
Y913973D01*
X247557Y910881D01*
X246693Y911198D01*
X246350Y911470D01*
Y982881D01*
X246500D01*
X248076Y983194D01*
X249413Y984087D01*
X250306Y985424D01*
X250619Y987000D01*
Y988650D01*
X268000D01*
X268899Y988829D01*
X269662Y989338D01*
X271662Y991338D01*
X272171Y992101D01*
X272350Y993000D01*
Y996738D01*
X272726Y997057D01*
X273620Y997540D01*
X274250Y997415D01*
D02*
G37*
G36*
X458829Y451101D02*
X459338Y450338D01*
X485338Y424338D01*
X485338Y424338D01*
X486101Y423829D01*
X487000Y423650D01*
X487000Y423650D01*
X489440D01*
Y420310D01*
X491440D01*
Y416845D01*
X485178D01*
X482315Y419708D01*
Y420858D01*
X481658Y422444D01*
X480444Y423658D01*
X478858Y424315D01*
X477142D01*
X475556Y423658D01*
X474342Y422444D01*
X473685Y420858D01*
Y419142D01*
X474342Y417556D01*
X475556Y416342D01*
X477142Y415685D01*
X478292D01*
X481988Y411989D01*
X481988Y411988D01*
X482911Y411372D01*
X484000Y411155D01*
X484000Y411155D01*
X491440D01*
Y409390D01*
X489440D01*
Y405437D01*
X473009D01*
X470437Y408009D01*
Y432000D01*
X470251Y432933D01*
X469723Y433723D01*
X457437Y446009D01*
Y451589D01*
X458707Y451714D01*
X458829Y451101D01*
D02*
G37*
D10*
X30000Y756000D02*
X70000Y796000D01*
X30000Y473000D02*
X64000Y439000D01*
X30000Y473000D02*
Y756000D01*
X22000Y453000D02*
X48000Y427000D01*
X22000Y784000D02*
X79000Y841000D01*
X22000Y453000D02*
Y784000D01*
X230000Y774500D02*
Y792000D01*
X235000Y797000D01*
X202000Y1309000D02*
X265500D01*
X191375Y1294375D02*
X201125D01*
X201500Y1294000D01*
X191000D02*
X191375Y1294375D01*
X420000Y1147000D02*
Y1148000D01*
X266964Y1331000D02*
X373000D01*
X420000Y1110000D02*
Y1147000D01*
Y1148000D02*
Y1284000D01*
X373000Y1331000D02*
X420000Y1284000D01*
X265500Y1315500D02*
Y1329536D01*
X266964Y1331000D01*
X442531Y928500D02*
X452000D01*
X437031Y923000D02*
X442531Y928500D01*
X437000Y923000D02*
X437031D01*
X48000Y427000D02*
X64000D01*
X434000Y972500D02*
X436500Y970000D01*
X154000Y815000D02*
Y826500D01*
X516287Y527287D02*
Y537249D01*
X304000Y1030000D02*
X304584Y1029416D01*
X312500Y1040500D02*
Y1041000D01*
X304000Y1030000D02*
X304584Y1030584D01*
Y1016000D02*
Y1029416D01*
Y1030584D02*
Y1032584D01*
X312500Y1040500D01*
X340407Y1018407D02*
Y1035087D01*
X341000Y1035680D01*
X335289Y1041000D02*
X340609Y1035680D01*
X327500Y1041000D02*
X335289D01*
X340609Y1035680D02*
X341000D01*
X338000Y1016000D02*
X340407Y1018407D01*
X74805Y859034D02*
Y869946D01*
Y859034D02*
X77000Y856839D01*
X422866Y927969D02*
X422969D01*
X435000Y940000D01*
Y950000D01*
X351000Y897000D02*
X420000Y966000D01*
X345000Y845000D02*
X351000Y851000D01*
Y897000D01*
X349375Y895375D02*
X351000Y897000D01*
X321720Y895375D02*
X349375D01*
X304584Y1016000D02*
X314500D01*
X302610D02*
X304584D01*
X292360Y1005750D02*
X302610Y1016000D01*
X285000Y1005750D02*
X292360D01*
X314500Y1008500D02*
X324831Y998169D01*
Y992169D02*
Y998169D01*
Y992169D02*
X327000Y990000D01*
X314500Y1008500D02*
Y1016000D01*
X228500Y761000D02*
X230000Y759500D01*
X209750Y761000D02*
X228500D01*
X213750Y772250D02*
Y772969D01*
X215215Y774434D01*
X209750Y770500D02*
X212000D01*
X213750Y772250D01*
X215215Y774434D02*
X229933D01*
X212250Y889250D02*
X224750D01*
X200500Y883000D02*
X201786Y884286D01*
X207285D01*
X212250Y889250D01*
X409000Y1111000D02*
Y1148000D01*
X374000Y990000D02*
X409000D01*
Y972000D02*
Y990000D01*
Y1111000D01*
X358000Y921000D02*
X409000Y972000D01*
X272000Y829000D02*
X288000Y845000D01*
X329000D01*
X272000Y765000D02*
Y829000D01*
X251158Y744158D02*
X272000Y765000D01*
X211215Y744158D02*
X251158D01*
X230500Y760000D02*
X240000D01*
X230000Y759500D02*
X230500Y760000D01*
X339625Y902625D02*
X358000Y921000D01*
X269625Y902625D02*
X339625D01*
X420000Y966000D02*
Y1110000D01*
X269250Y902250D02*
X269625Y902625D01*
X284875Y889125D02*
X285000Y889000D01*
X269250Y889250D02*
X269375Y889125D01*
X284875D01*
X376000Y415230D02*
Y426000D01*
X395480Y393750D02*
Y395750D01*
X376000Y415230D02*
X395480Y395750D01*
X179000Y803000D02*
X196000Y820000D01*
X184000Y883500D02*
Y894000D01*
X115000Y815000D02*
Y821000D01*
X127000Y803000D02*
X179000D01*
X245000Y870000D02*
X252250Y877250D01*
X218000Y870000D02*
X245000D01*
X115000Y815000D02*
X127000Y803000D01*
X102250Y870250D02*
Y871000D01*
X101250Y872000D02*
X102250Y871000D01*
X139000Y870500D02*
X148500D01*
X154000Y876000D01*
Y883000D01*
X139000Y885500D02*
Y894000D01*
X355000Y783000D02*
X485000Y913000D01*
X320000Y783000D02*
X355000D01*
X168000Y774000D02*
X168839D01*
X182000Y770250D02*
X182250Y770500D01*
X168839Y774000D02*
X172589Y770250D01*
X169000Y761000D02*
X182250D01*
X70000Y796000D02*
X124000D01*
X265500Y1289500D02*
X279000Y1276000D01*
X252250Y901250D02*
X253250Y902250D01*
X252250Y877250D02*
Y901250D01*
X253250Y902250D02*
X269250D01*
X50000Y938000D02*
X71000D01*
X537000Y321000D02*
Y335230D01*
X536980Y335250D02*
X537000Y335230D01*
X71000Y917000D02*
Y938000D01*
X485000Y913000D02*
Y927000D01*
X321720Y895375D02*
X322095Y895000D01*
X269625Y895375D02*
X321720D01*
X265000Y859000D02*
X292000D01*
X108750Y811250D02*
X124000Y796000D01*
X202000D02*
X265000Y859000D01*
X478000Y420000D02*
X484000Y414000D01*
X502130D02*
X502980Y414850D01*
X484000Y414000D02*
X502130D01*
X434000Y972500D02*
Y981000D01*
X329500Y1016000D02*
X338000D01*
X108750Y811250D02*
Y825750D01*
X138500Y826000D02*
X140000Y827500D01*
X196000Y820000D02*
Y848000D01*
X124000Y796000D02*
X202000D01*
X195000Y938000D02*
X204500D01*
X510000Y521000D02*
X516287Y527287D01*
X489000Y521000D02*
X510000D01*
X457929Y959071D02*
X468871D01*
X455737Y961263D02*
X457929Y959071D01*
X455737Y961263D02*
Y965263D01*
X219750Y908750D02*
X224750D01*
X265500Y1289500D02*
Y1302500D01*
X477472Y976472D02*
X483710Y982710D01*
X491510D01*
X477472Y958681D02*
Y976472D01*
X508510Y982710D02*
X523724D01*
X439000Y949681D02*
X469252D01*
X452000Y928500D02*
X464605D01*
X469252Y933148D01*
Y940681D01*
X477472Y934528D02*
Y940681D01*
X452580Y912920D02*
X466630D01*
X452000Y913500D02*
X452580Y912920D01*
X477472Y934528D02*
X485000Y927000D01*
X208250Y919750D02*
X208750D01*
X206000Y922000D02*
X208250Y919750D01*
X208750D02*
X219750Y908750D01*
X322095Y889095D02*
Y895000D01*
X77000Y856000D02*
Y856839D01*
X209750Y745622D02*
Y751500D01*
X292000Y859000D02*
X322095Y889095D01*
X279000Y1276000D02*
X371000D01*
X196000Y848000D02*
X218000Y870000D01*
X79000Y841000D02*
X112000D01*
X140000Y827500D02*
Y847000D01*
X115000Y832000D02*
Y838000D01*
X112000Y841000D02*
X115000Y838000D01*
X172589Y770250D02*
X182000D01*
X71000Y938000D02*
Y949000D01*
X154000Y883000D02*
Y922000D01*
X371000Y1276000D02*
X409000Y1238000D01*
X140000Y847000D02*
X151000Y858000D01*
X71000Y949000D02*
X81000Y959000D01*
X154000Y922000D02*
Y941000D01*
X81000Y959000D02*
X125000D01*
X154500Y922500D02*
X205000D01*
X151000Y858000D02*
X178000D01*
X154000Y922000D02*
X154500Y922500D01*
X126750Y957250D02*
X137750D01*
X409000Y1148000D02*
Y1238000D01*
X137750Y957250D02*
X154000Y941000D01*
X125000Y959000D02*
X126750Y957250D01*
X209750Y745622D02*
X211215Y744158D01*
D11*
X54000Y470000D02*
Y518000D01*
Y470000D02*
X71000Y453000D01*
X94880Y125530D02*
X109350Y140000D01*
X177195D01*
X179510Y137685D01*
X180142D01*
X71000Y452000D02*
Y453000D01*
X483750Y266000D02*
Y288000D01*
Y263701D02*
Y266000D01*
X483000Y288000D02*
Y308709D01*
X360000Y387000D02*
Y459590D01*
X505845Y950155D02*
X506000Y950000D01*
X497220Y950155D02*
X505845D01*
X482291Y309000D02*
X483750D01*
X438291Y308709D02*
X483000D01*
X360000Y387000D02*
X438291Y308709D01*
X268693Y942693D02*
Y948693D01*
X272780Y952780D02*
X278780D01*
X268693Y948693D02*
X272780Y952780D01*
X360000Y459590D02*
X366000Y465590D01*
X267000Y909000D02*
Y923000D01*
X295000Y926000D02*
X312000Y943000D01*
X267000Y926000D02*
X295000D01*
D22*
X153500Y826000D02*
D03*
X138500D02*
D03*
X327500Y1041000D02*
D03*
X312500D02*
D03*
X329500Y1016000D02*
D03*
X314500D02*
D03*
D23*
X286000Y1096250D02*
D03*
Y1081750D02*
D03*
X262000Y1096250D02*
D03*
Y1081750D02*
D03*
X515000Y536750D02*
D03*
Y551250D02*
D03*
X489000D02*
D03*
Y536750D02*
D03*
X202000Y1309250D02*
D03*
Y1294750D02*
D03*
D24*
X230000Y774500D02*
D03*
Y759500D02*
D03*
X139000Y885500D02*
D03*
Y870500D02*
D03*
X335000Y1299500D02*
D03*
Y1314500D02*
D03*
X452000Y913500D02*
D03*
Y928500D02*
D03*
X267000Y941000D02*
D03*
Y926000D02*
D03*
X205000Y937500D02*
D03*
Y922500D02*
D03*
D28*
X313750Y1061000D02*
D03*
X328250D02*
D03*
X235250Y1058000D02*
D03*
X220750D02*
D03*
X360750Y426000D02*
D03*
X375250D02*
D03*
X483750Y288000D02*
D03*
X498250D02*
D03*
X483750Y266000D02*
D03*
X498250D02*
D03*
X483750Y309000D02*
D03*
X498250D02*
D03*
X235000Y1082701D02*
D03*
X220500D02*
D03*
X307782Y1083153D02*
D03*
X322282D02*
D03*
X89250Y870000D02*
D03*
X74750D02*
D03*
X492760Y982710D02*
D03*
X507260D02*
D03*
X199250Y883000D02*
D03*
X184750D02*
D03*
D31*
X71000Y938000D02*
D03*
X91000D02*
D03*
Y916000D02*
D03*
X71000D02*
D03*
X307000Y990000D02*
D03*
X327000D02*
D03*
X244000Y991000D02*
D03*
X224000D02*
D03*
D32*
X221200Y1110000D02*
D03*
X212800D02*
D03*
X236000D02*
D03*
X244400D02*
D03*
X276455Y1110840D02*
D03*
X268055D02*
D03*
X307200Y1110000D02*
D03*
X298800D02*
D03*
X321800D02*
D03*
X330200D02*
D03*
D34*
X435000Y970000D02*
D03*
Y950000D02*
D03*
D80*
X112000Y1128000D02*
D03*
X145000D02*
D03*
X439000Y1147000D02*
D03*
X391000D02*
D03*
X145000Y1167000D02*
D03*
X112000D02*
D03*
X439000Y1110000D02*
D03*
X448000Y587000D02*
D03*
X352000Y559000D02*
D03*
X391000Y1110000D02*
D03*
D82*
X47880Y95530D02*
D03*
D83*
X94880Y65530D02*
D03*
D84*
Y125530D02*
D03*
D87*
X325000Y133000D02*
D03*
X247000Y679000D02*
D03*
Y729000D02*
D03*
D95*
X31000Y229000D02*
D03*
X117000Y1323000D02*
D03*
X509000Y183000D02*
D03*
D97*
X145000Y1271000D02*
X169000Y1295000D01*
X145000Y1167000D02*
Y1271000D01*
X223000Y273000D02*
X247000Y297000D01*
X284739D01*
X169000Y281000D02*
X177000Y273000D01*
X223000D01*
X70000Y326000D02*
Y330261D01*
Y326000D02*
X80000Y316000D01*
X325000Y286000D02*
X349000Y262000D01*
X442657D02*
X455000Y274343D01*
Y296000D01*
X325000Y133000D02*
X330316D01*
X366000Y465590D02*
Y466000D01*
X158000Y316000D02*
X169000Y305000D01*
Y281000D02*
Y305000D01*
X80000Y316000D02*
X158000D01*
X291000Y366000D02*
X325000Y332000D01*
Y286000D02*
Y332000D01*
X177000Y366000D02*
X291000D01*
X349000Y262000D02*
X442657D01*
D99*
X66000Y269000D02*
X68000Y267000D01*
X66000Y269000D02*
Y290000D01*
D101*
X197000Y757000D02*
Y778000D01*
X230000Y811000D02*
X248000D01*
X197000Y778000D02*
X230000Y811000D01*
X277872Y1302628D02*
X284372D01*
X275000Y1305500D02*
X277872Y1302628D01*
X284372D02*
X284500Y1302500D01*
X275000Y1305500D02*
Y1309000D01*
X289908Y1298342D02*
X307444D01*
X284500Y1302500D02*
X285750D01*
X289908Y1298342D01*
X307444D02*
X333842D01*
X335000Y1299500D01*
Y1314500D02*
X335500Y1315000D01*
X351000D01*
X498250Y266000D02*
X511000D01*
X517000Y272000D02*
Y354000D01*
X511000Y266000D02*
X517000Y272000D01*
X321000Y708000D02*
X335000Y694000D01*
X246750Y708000D02*
X321000D01*
X91000Y903000D02*
Y916000D01*
Y903000D02*
X109000Y885000D01*
Y875000D02*
Y885000D01*
X208000Y509000D02*
X373000Y344000D01*
Y318000D02*
Y344000D01*
X220015Y1058000D02*
X222604Y1060589D01*
X333320Y1059000D02*
X339000Y1053320D01*
X329000Y1059000D02*
X333320D01*
X259000Y1006000D02*
X264265D01*
X249000Y1016000D02*
X259000Y1006000D01*
X264265D02*
X264515Y1005750D01*
X265000D01*
X212428Y1058000D02*
X220015D01*
X209362Y1056035D02*
X210463D01*
X212428Y1058000D01*
X164000Y691000D02*
X234000D01*
X159000Y696000D02*
X164000Y691000D01*
X234000D02*
X239139Y696139D01*
X247000D01*
X159000Y708000D02*
X164000Y713000D01*
X246750Y708000D02*
X247000Y708250D01*
X238000Y708000D02*
X246750D01*
X233000Y713000D02*
X238000Y708000D01*
X164000Y713000D02*
X233000D01*
X247000Y679000D02*
Y696139D01*
X144000Y914598D02*
Y931000D01*
X115000Y875000D02*
Y885598D01*
X144000Y914598D01*
X472500Y537500D02*
X489000D01*
X216000Y992000D02*
X224000D01*
X292000Y990000D02*
X307000D01*
X286000Y984000D02*
X292000Y990000D01*
X280000Y984000D02*
X286000D01*
X280000D02*
Y1005750D01*
X320000Y567000D02*
Y630000D01*
Y567000D02*
X396980Y490020D01*
Y450750D02*
Y490020D01*
X185000Y513000D02*
Y537000D01*
X406000Y604000D02*
X471000Y539000D01*
X472500Y537500D01*
X487000Y426000D02*
X497000D01*
X461000Y452000D02*
X487000Y426000D01*
X503830Y436000D02*
X527000D01*
X502980Y436850D02*
X503830Y436000D01*
X527000D02*
Y466730D01*
X373000Y318000D02*
X381000Y310000D01*
X526980Y466750D02*
X527000Y466730D01*
X461000Y452000D02*
Y525000D01*
X404000Y582000D02*
X461000Y525000D01*
X396980Y393750D02*
Y450750D01*
X348500Y484500D02*
X349000Y485000D01*
X348500Y416500D02*
Y484500D01*
X348000Y416000D02*
X348500Y416500D01*
X119855Y919000D02*
X125000D01*
X116855Y916000D02*
X119855Y919000D01*
X91000Y916000D02*
X116855D01*
X92000Y939000D02*
X125000D01*
X91000Y938000D02*
X92000Y939000D01*
X125500Y993500D02*
X126000Y994000D01*
X125500Y979500D02*
Y993500D01*
X125000Y979000D02*
X125500Y979500D01*
X268000Y991000D02*
X270000Y993000D01*
X248000Y991000D02*
X268000D01*
X224750Y902250D02*
X234926D01*
X253000Y957000D02*
X280000Y984000D01*
X253000Y913000D02*
Y957000D01*
X235750Y895750D02*
X253000Y913000D01*
X224750Y895750D02*
X235750D01*
X138750Y870250D02*
X139000Y870500D01*
X121750Y870250D02*
X138750D01*
X121750Y825750D02*
X138250D01*
X244000Y911324D02*
Y992000D01*
X234926Y902250D02*
X244000Y911324D01*
X312500Y1043000D02*
Y1043500D01*
X305750Y1050250D02*
X312500Y1043500D01*
X285000Y1050250D02*
X305750D01*
X267000Y941000D02*
X268693Y942693D01*
X500980Y403850D02*
X516150D01*
X523000Y397000D01*
Y360000D02*
Y397000D01*
X515000Y550500D02*
X525500D01*
X182250Y751500D02*
X191500D01*
X197000Y757000D01*
X420000Y1110000D02*
X439000D01*
X517000Y354000D02*
X523000Y360000D01*
X529000Y496000D02*
Y547000D01*
X502000Y469000D02*
X529000Y496000D01*
X502000Y461000D02*
Y469000D01*
X526980Y466750D02*
X531865Y471635D01*
Y483350D01*
X336000Y401000D02*
Y486000D01*
X298800Y1117800D02*
X299000Y1118000D01*
X489000Y552000D02*
X489340Y551660D01*
X502399D01*
X505000Y549059D01*
Y540000D02*
Y549059D01*
Y540000D02*
X507965Y537035D01*
X514465D01*
X185000Y513000D02*
X362000Y336000D01*
X275000Y1005750D02*
Y1017000D01*
X204500Y938000D02*
X205000Y937500D01*
X525500Y550500D02*
X529000Y547000D01*
X278780Y952780D02*
X279000Y953000D01*
X337209Y632791D02*
X345593D01*
X335000Y674000D02*
Y694000D01*
X315861Y696139D02*
X325000Y687000D01*
Y645000D02*
X337209Y632791D01*
X325000Y645000D02*
Y687000D01*
X212000Y996000D02*
X216000Y992000D01*
X212000Y996000D02*
Y1036000D01*
X275000Y1017000D02*
X278000Y1020000D01*
X282000D01*
X285000Y1017000D01*
Y1011000D02*
Y1017000D01*
X270000Y1005750D02*
X270000Y1005750D01*
X270000Y993000D02*
Y1005750D01*
X334500Y1300000D02*
X335000Y1299500D01*
X244700Y1109900D02*
X245000Y1109600D01*
X90750Y870250D02*
X102250D01*
X90500Y870000D02*
X90750Y870250D01*
X408000Y1110000D02*
X409000Y1111000D01*
X391000Y1110000D02*
X408000D01*
X420000Y1148000D02*
X421000Y1147000D01*
X439000D01*
X403000Y582000D02*
X404000D01*
X125000Y939000D02*
X136000D01*
X144000Y931000D01*
X247000Y696139D02*
X315861D01*
X247000Y708250D02*
Y729000D01*
X408000Y1147000D02*
X409000Y1148000D01*
X391000Y1147000D02*
X408000D01*
D102*
X333900Y1315600D02*
X335000Y1314500D01*
X500980Y365020D02*
X509723Y356277D01*
X498250Y288000D02*
X507173D01*
X509723Y290550D02*
Y356277D01*
X507173Y288000D02*
X509723Y290550D01*
X292000Y1315600D02*
X333900D01*
X284720D02*
X292000D01*
Y1311000D02*
Y1315600D01*
X290000Y1309000D02*
X292000Y1311000D01*
X284500Y1309000D02*
X290000D01*
X473000Y365000D02*
X499000Y339000D01*
Y311000D02*
Y339000D01*
X473000Y365000D02*
Y389000D01*
X446000Y439000D02*
X458000Y427000D01*
X455000Y445000D02*
X468000Y432000D01*
X472000Y403000D02*
X498000D01*
X468000Y407000D02*
X472000Y403000D01*
X468000Y407000D02*
Y432000D01*
X471000Y458000D02*
Y539000D01*
Y458000D02*
X482000Y447000D01*
X499000D01*
X476850Y392850D02*
X496980D01*
X358163Y593837D02*
X446000Y506000D01*
Y439000D02*
Y506000D01*
X499000Y311000D02*
X499000Y311000D01*
X473000Y389000D02*
X476850Y392850D01*
X458000Y404000D02*
Y427000D01*
Y404000D02*
X473000Y389000D01*
X500980Y365020D02*
Y381850D01*
X383000Y581000D02*
Y608457D01*
X455000Y445000D02*
Y509000D01*
X383000Y581000D02*
X455000Y509000D01*
X468871Y959071D02*
X469252Y958690D01*
X383000Y608457D02*
X407926Y633383D01*
X459911D01*
X358163Y593837D02*
Y632791D01*
X455000Y966000D02*
X455737Y965263D01*
X497500Y309000D02*
X497750Y309250D01*
D104*
X490520Y950000D02*
D03*
D105*
X435685Y151398D02*
D03*
X360755D02*
D03*
D106*
X374255Y172898D02*
D03*
X422255D02*
D03*
X374255Y129898D02*
D03*
X422255D02*
D03*
D107*
X510179Y142308D02*
D03*
Y1061508D02*
D03*
X40979D02*
D03*
Y190308D02*
D03*
D108*
X125000Y979000D02*
D03*
Y939000D02*
D03*
Y959000D02*
D03*
Y919000D02*
D03*
D109*
X353470Y1200320D02*
D03*
X196970D02*
D03*
D110*
X281570Y1164320D02*
D03*
X243470Y1138920D02*
D03*
X268870D02*
D03*
X294270D02*
D03*
X319670D02*
D03*
X230770Y1164320D02*
D03*
X256170D02*
D03*
X306970D02*
D03*
D111*
X332370Y1227820D02*
D03*
X218070D02*
D03*
D112*
X73000Y476000D02*
D03*
X93000Y496000D02*
D03*
X78000Y569000D02*
D03*
X219000Y786000D02*
D03*
X235000Y797000D02*
D03*
X169000Y1295000D02*
D03*
X437000Y923000D02*
D03*
X71000Y452000D02*
D03*
X66000Y290000D02*
D03*
X127000Y402000D02*
D03*
X64000Y439000D02*
D03*
Y427000D02*
D03*
X94276Y475724D02*
D03*
X311000Y967000D02*
D03*
X170278Y669775D02*
D03*
X339000Y1053320D02*
D03*
X249000Y1016000D02*
D03*
X341000Y1035680D02*
D03*
X209362Y1056035D02*
D03*
X170000Y702000D02*
D03*
X374000Y1001000D02*
D03*
X336693Y856285D02*
D03*
X356000Y933000D02*
D03*
X455000Y978000D02*
D03*
X249000Y822000D02*
D03*
X222000Y860000D02*
D03*
X54887Y435111D02*
D03*
X506000Y950000D02*
D03*
X390536Y211312D02*
D03*
X390460Y224655D02*
D03*
X446167Y224025D02*
D03*
X446727Y211078D02*
D03*
X322000Y550000D02*
D03*
X437000Y174000D02*
D03*
Y129000D02*
D03*
X361000Y130000D02*
D03*
X360000Y173000D02*
D03*
X329000Y845000D02*
D03*
X311453Y796547D02*
D03*
X240000Y760000D02*
D03*
X378000Y953000D02*
D03*
X358000Y921000D02*
D03*
X374000Y990000D02*
D03*
X345000Y845000D02*
D03*
X217000Y840000D02*
D03*
X248000Y489000D02*
D03*
X163000Y580000D02*
D03*
X336000Y186000D02*
D03*
X318000Y206000D02*
D03*
X537000Y321000D02*
D03*
X381239Y299649D02*
D03*
X362000Y347000D02*
D03*
X464000Y187000D02*
D03*
X304000Y297000D02*
D03*
X284000D02*
D03*
X191000Y439000D02*
D03*
X248000Y811000D02*
D03*
X285000Y889000D02*
D03*
X292000Y440000D02*
D03*
X168000Y774000D02*
D03*
X178000Y858000D02*
D03*
X77000Y856000D02*
D03*
X154000Y815000D02*
D03*
X169000Y761000D02*
D03*
X320000Y773000D02*
D03*
X218000Y870000D02*
D03*
X154000Y883000D02*
D03*
X139000Y894000D02*
D03*
X159000Y708000D02*
D03*
Y696000D02*
D03*
X177000Y366000D02*
D03*
X70270Y331000D02*
D03*
X335000Y674000D02*
D03*
X531865Y483350D02*
D03*
X504000Y490000D02*
D03*
X50000Y938000D02*
D03*
X224000Y412000D02*
D03*
X434000Y981000D02*
D03*
X126000Y994000D02*
D03*
X184000Y894000D02*
D03*
X321000Y488000D02*
D03*
X527000Y436000D02*
D03*
X472690Y843781D02*
D03*
X349622Y622421D02*
D03*
X345593Y632791D02*
D03*
X472703Y633161D02*
D03*
X279000Y953000D02*
D03*
X195000Y938000D02*
D03*
X244700Y1116700D02*
D03*
X258000Y1128000D02*
D03*
X430000Y904000D02*
D03*
X466630Y912920D02*
D03*
X406000Y872000D02*
D03*
X307444Y1298342D02*
D03*
X422000Y918000D02*
D03*
X347000Y674000D02*
D03*
X328000Y494000D02*
D03*
X403000Y593000D02*
D03*
X309070Y629831D02*
D03*
X359000Y491000D02*
D03*
X183000Y126000D02*
D03*
X204000Y1110000D02*
D03*
X259255Y1110840D02*
D03*
X299000Y1118000D02*
D03*
X338000Y1110000D02*
D03*
X484000Y865000D02*
D03*
X245000Y567000D02*
D03*
D113*
X191000Y1294000D02*
D03*
X351000Y1315000D02*
D03*
X208000Y509000D02*
D03*
X304000Y1030000D02*
D03*
X422866Y927969D02*
D03*
X478000Y420000D02*
D03*
X180142Y137685D02*
D03*
X223000Y273000D02*
D03*
X381000Y310000D02*
D03*
X455000Y296000D02*
D03*
X404000Y283315D02*
D03*
X362000Y336000D02*
D03*
X348000Y416000D02*
D03*
X336000Y401000D02*
D03*
X312000Y943000D02*
D03*
X320000Y783000D02*
D03*
X403000Y582000D02*
D03*
X185000Y537000D02*
D03*
X336000Y486000D02*
D03*
X366000Y466000D02*
D03*
X212000Y1036000D02*
D03*
X275019Y1309450D02*
D03*
X409000Y740000D02*
D03*
X395000D02*
D03*
X381000D02*
D03*
Y754000D02*
D03*
X395000D02*
D03*
X409000D02*
D03*
Y768000D02*
D03*
X395000D02*
D03*
X381000D02*
D03*
X455000Y966000D02*
D03*
X358163Y632791D02*
D03*
X459911Y633383D02*
D03*
X320000Y630000D02*
D03*
X489000Y521000D02*
D03*
X406000Y604000D02*
D03*
X349000Y485000D02*
D03*
X169000Y281000D02*
D03*
X523755Y982741D02*
D03*
D114*
X68000Y527000D02*
D03*
Y267000D02*
D03*
D115*
X469780Y959000D02*
D03*
X478000D02*
D03*
Y941000D02*
D03*
X469780D02*
D03*
Y950000D02*
D03*
D116*
X497220Y950155D02*
D03*
D117*
X209750Y770500D02*
D03*
Y761000D02*
D03*
Y751500D02*
D03*
X182250D02*
D03*
Y761000D02*
D03*
Y770500D02*
D03*
D118*
X502980Y414850D02*
D03*
X500980Y403850D02*
D03*
Y381850D02*
D03*
X496980Y392850D02*
D03*
X502980Y436850D02*
D03*
X500980Y425850D02*
D03*
Y447850D02*
D03*
Y458850D02*
D03*
D119*
X536980Y335250D02*
D03*
X526980Y466750D02*
D03*
D120*
X395480Y393750D02*
D03*
Y450750D02*
D03*
D121*
X102250Y870250D02*
D03*
X108750D02*
D03*
X115250D02*
D03*
X121750D02*
D03*
X102250Y825750D02*
D03*
X108750D02*
D03*
X115250D02*
D03*
X121750D02*
D03*
D122*
X270000Y1005750D02*
D03*
X285000D02*
D03*
X280000D02*
D03*
X275000D02*
D03*
X265000D02*
D03*
X285000Y1050250D02*
D03*
X280000D02*
D03*
X275000D02*
D03*
X270000D02*
D03*
X265000D02*
D03*
D123*
X224750Y889250D02*
D03*
Y895750D02*
D03*
Y902250D02*
D03*
Y908750D02*
D03*
X269250Y889250D02*
D03*
Y895750D02*
D03*
Y902250D02*
D03*
Y908750D02*
D03*
D124*
X284500Y1315500D02*
D03*
Y1309000D02*
D03*
Y1302500D02*
D03*
X265500D02*
D03*
Y1309000D02*
D03*
Y1315500D02*
D03*
D125*
X275000Y1309000D02*
D03*
D126*
X244700Y1109900D02*
Y1116700D01*
X282009Y1111000D02*
Y1163881D01*
Y1105415D02*
Y1111000D01*
X281849Y1110840D02*
X282009Y1111000D01*
X276455Y1110840D02*
X281849D01*
X281570Y1164320D02*
X282009Y1163881D01*
Y1105415D02*
X285000Y1102424D01*
Y1097250D02*
Y1102424D01*
Y1097250D02*
X285375Y1096875D01*
X284750Y1096250D02*
X286000D01*
X316864Y1110000D02*
X321800D01*
X307200D02*
X312730D01*
X229000D02*
X236000D01*
X221200D02*
X225575D01*
X265000Y1097000D02*
X282000D01*
X330200Y1110000D02*
X338000D01*
X298800D02*
Y1117800D01*
X259255Y1110840D02*
X268055D01*
X204000Y1110000D02*
X212800D01*
D127*
X313750Y1062000D02*
Y1068750D01*
X321930Y1081680D02*
X322250Y1082000D01*
X321930Y1076930D02*
Y1081680D01*
X313750Y1068750D02*
X321930Y1076930D01*
X313750Y1061000D02*
Y1062000D01*
X322250Y1082000D02*
Y1083250D01*
X313000Y1061000D02*
X314750D01*
X234896Y1070912D02*
X236000Y1069808D01*
X226185Y1070912D02*
X234896D01*
X236000Y1057862D02*
Y1069808D01*
X235395Y1058145D02*
X263338D01*
X264442Y1057040D01*
Y1050808D02*
X265000Y1050250D01*
X235250Y1058000D02*
X235395Y1058145D01*
X264442Y1050808D02*
Y1057040D01*
X285806Y1082206D02*
X306834D01*
X285806Y1081556D02*
X286000Y1081750D01*
X285806Y1074806D02*
Y1081556D01*
X275000Y1064000D02*
X285806Y1074806D01*
X235250Y1082342D02*
X262000D01*
Y1072000D02*
X270000Y1064000D01*
X262000Y1072000D02*
Y1081750D01*
X219936Y1082692D02*
X220619Y1082010D01*
Y1076477D02*
X226185Y1070912D01*
X220619Y1076477D02*
Y1082010D01*
X308343Y1083843D02*
X310058Y1085558D01*
X306834Y1082206D02*
X307782Y1083153D01*
X219936Y1082692D02*
X222244Y1085000D01*
X282000Y1062000D02*
X313000D01*
X319670Y1138920D02*
Y1139040D01*
X316425Y1085644D02*
Y1110439D01*
Y1124774D01*
Y1110439D02*
X316864Y1110000D01*
X311023Y1147687D02*
X319670Y1139040D01*
X308358Y1132842D02*
X316425Y1124774D01*
X309462Y1147687D02*
X311023D01*
X308358Y1146582D02*
X309462Y1147687D01*
X308358Y1132842D02*
Y1146582D01*
X275000Y1050250D02*
Y1064000D01*
X313000Y1109730D02*
Y1123356D01*
X312730Y1110000D02*
X313000Y1109730D01*
X308386Y1151454D02*
Y1162904D01*
X306970Y1164320D02*
X308386Y1162904D01*
X313000Y1085644D02*
Y1109730D01*
X304933Y1131423D02*
X313000Y1123356D01*
X304933Y1131423D02*
Y1148001D01*
X308386Y1151454D01*
X319942Y1085558D02*
X322250Y1083250D01*
X316425Y1085644D02*
X316512Y1085558D01*
X312913D02*
X313000Y1085644D01*
X316512Y1085558D02*
X319942D01*
X310058D02*
X312913D01*
X270000Y1050250D02*
Y1064000D01*
Y1050250D02*
X270000Y1050250D01*
X234706Y1147804D02*
X243470Y1139040D01*
Y1138920D02*
Y1139040D01*
X233145Y1147804D02*
X234706D01*
X229000Y1143659D02*
X233145Y1147804D01*
X229000Y1110000D02*
Y1143659D01*
X229000Y1110000D02*
X229000D01*
Y1085000D02*
Y1110000D01*
X230770Y1150272D02*
Y1164320D01*
X225575Y1145078D02*
X230770Y1150272D01*
X225575Y1110000D02*
Y1145078D01*
Y1085000D02*
Y1110000D01*
X234436Y1082001D02*
Y1082692D01*
X232129Y1085000D02*
X234436Y1082692D01*
X229000Y1085000D02*
X232129D01*
X222244D02*
X225575D01*
X280000Y1050250D02*
Y1060000D01*
X282000Y1062000D01*
D128*
X307200Y1110000D02*
X307402Y1110202D01*
X278918Y1165649D02*
X280240D01*
X278426Y1165157D02*
X278918Y1165649D01*
X280240D02*
X281570Y1164320D01*
M02*
