G04*
G04 #@! TF.GenerationSoftware,Altium Limited,Altium Designer,24.0.1 (36)*
G04*
G04 Layer_Color=32768*
%FSLAX44Y44*%
%MOMM*%
G71*
G04*
G04 #@! TF.SameCoordinates,7A80B53C-B2C1-45D1-8136-E7169236FAC4*
G04*
G04*
G04 #@! TF.FilePolarity,Positive*
G04*
G01*
G75*
%ADD11C,0.2000*%
%ADD14C,0.1270*%
D11*
X329500Y1056250D02*
Y1065750D01*
X312500Y1056250D02*
X329500D01*
X312500D02*
Y1065750D01*
X329500D01*
X219500Y1053250D02*
Y1062750D01*
X236500D01*
Y1053250D02*
Y1062750D01*
X219500Y1053250D02*
X236500D01*
X281250Y1080500D02*
X290750D01*
X281250D02*
Y1097500D01*
X290750D01*
Y1080500D02*
Y1097500D01*
X257250Y1080500D02*
X266750D01*
X257250D02*
Y1097500D01*
X266750D01*
Y1080500D02*
Y1097500D01*
X376500Y421250D02*
Y430750D01*
X359500Y421250D02*
X376500D01*
X359500D02*
Y430750D01*
X376500D01*
X499500Y283250D02*
Y292750D01*
X482500Y283250D02*
X499500D01*
X482500D02*
Y292750D01*
X499500D01*
X510250Y552500D02*
X519750D01*
Y535500D02*
Y552500D01*
X510250Y535500D02*
X519750D01*
X510250D02*
Y552500D01*
X484250Y535500D02*
X493750D01*
X484250D02*
Y552500D01*
X493750D01*
Y535500D02*
Y552500D01*
X499500Y261250D02*
Y270750D01*
X482500Y261250D02*
X499500D01*
X482500D02*
Y270750D01*
X499500D01*
Y304250D02*
Y313750D01*
X482500Y304250D02*
X499500D01*
X482500D02*
Y313750D01*
X499500D01*
X219250Y1077951D02*
Y1087451D01*
X236250D01*
Y1077951D02*
Y1087451D01*
X219250Y1077951D02*
X236250D01*
X323532Y1078403D02*
Y1087903D01*
X306532Y1078403D02*
X323532D01*
X306532D02*
Y1087903D01*
X323532D01*
X73500Y865250D02*
Y874750D01*
X90500D01*
Y865250D02*
Y874750D01*
X73500Y865250D02*
X90500D01*
X508510Y977960D02*
Y987460D01*
X491510Y977960D02*
X508510D01*
X491510D02*
Y987460D01*
X508510D01*
X197250Y1293500D02*
X206750D01*
X197250D02*
Y1310500D01*
X206750D01*
Y1293500D02*
Y1310500D01*
X183500Y878250D02*
Y887750D01*
X200500D01*
Y878250D02*
Y887750D01*
X183500Y878250D02*
X200500D01*
X285500Y1298500D02*
Y1319500D01*
X264500Y1298500D02*
X285500D01*
X264500D02*
Y1319500D01*
X285500D01*
D14*
X465920Y963250D02*
X500920D01*
X465920Y936750D02*
Y963250D01*
X500920Y936750D02*
Y963250D01*
X465920Y936750D02*
X500920D01*
M02*
