G04*
G04 #@! TF.GenerationSoftware,Altium Limited,Altium Designer,24.0.1 (36)*
G04*
G04 Layer_Color=32896*
%FSLAX44Y44*%
%MOMM*%
G71*
G04*
G04 #@! TF.SameCoordinates,7A80B53C-B2C1-45D1-8136-E7169236FAC4*
G04*
G04*
G04 #@! TF.FilePolarity,Positive*
G04*
G01*
G75*
%ADD12C,0.1000*%
D12*
X452000Y367000D02*
X462000D01*
X457000Y362000D02*
Y372000D01*
X112000Y1123000D02*
Y1133000D01*
X107000Y1128000D02*
X117000D01*
X145000Y1123000D02*
Y1133000D01*
X140000Y1128000D02*
X150000D01*
X120405Y340280D02*
Y350280D01*
X115405Y345280D02*
X125405D01*
X492000Y349000D02*
Y359000D01*
X487000Y354000D02*
X497000D01*
X494000Y270000D02*
Y280000D01*
X489000Y275000D02*
X499000D01*
X494000Y473000D02*
Y483000D01*
X489000Y478000D02*
X499000D01*
X492000Y327000D02*
Y337000D01*
X487000Y332000D02*
X497000D01*
X291000Y304000D02*
Y314000D01*
X286000Y309000D02*
X296000D01*
X291000Y327000D02*
Y337000D01*
X286000Y332000D02*
X296000D01*
X491496Y428234D02*
Y438234D01*
X486496Y433234D02*
X496496D01*
X190000Y545000D02*
X200000D01*
X195000Y540000D02*
Y550000D01*
X190000Y502000D02*
X200000D01*
X195000Y497000D02*
Y507000D01*
X191000Y152500D02*
X201000D01*
X196000Y147500D02*
Y157500D01*
X493000Y529751D02*
Y539751D01*
X488000Y534751D02*
X498000D01*
X447000Y879000D02*
Y889000D01*
X442000Y884000D02*
X452000D01*
X176000Y678000D02*
Y688000D01*
X171000Y683000D02*
X181000D01*
X325000Y128000D02*
Y138000D01*
X320000Y133000D02*
X330000D01*
X410794Y325019D02*
X420794D01*
X415794Y320019D02*
Y330019D01*
X274738Y354000D02*
Y364000D01*
X269738Y359000D02*
X279737D01*
X227000Y473000D02*
Y483000D01*
X222000Y478000D02*
X232000D01*
X242000Y679000D02*
X252000D01*
X247000Y674000D02*
Y684000D01*
X242000Y729000D02*
X252000D01*
X247000Y724000D02*
Y734000D01*
X439000Y1142000D02*
Y1152000D01*
X434000Y1147000D02*
X444000D01*
X391000Y1142000D02*
Y1152000D01*
X386000Y1147000D02*
X396000D01*
X246000Y234500D02*
Y244500D01*
X241000Y239500D02*
X251000D01*
X204320Y256390D02*
Y266390D01*
X199320Y261390D02*
X209320D01*
X460000Y865000D02*
X470000D01*
X465000Y860000D02*
Y870000D01*
X241000Y396000D02*
X251000D01*
X246000Y391000D02*
Y401000D01*
X82480Y186000D02*
X92480D01*
X87480Y181000D02*
Y191000D01*
X117480Y186000D02*
X127480D01*
X122480Y181000D02*
Y191000D01*
X111000Y697250D02*
Y707250D01*
X106000Y702250D02*
X116000D01*
X386000Y1110000D02*
X396000D01*
X391000Y1105000D02*
Y1115000D01*
X347000Y559000D02*
X357000D01*
X352000Y554000D02*
Y564000D01*
X443000Y587000D02*
X453000D01*
X448000Y582000D02*
Y592000D01*
X91500Y525000D02*
X101500D01*
X96500Y520000D02*
Y530000D01*
X285000Y519000D02*
X295000D01*
X290000Y514000D02*
Y524000D01*
X434000Y1110000D02*
X444000D01*
X439000Y1105000D02*
Y1115000D01*
X107000Y1167000D02*
X117000D01*
X112000Y1162000D02*
Y1172000D01*
X140000Y1167000D02*
X150000D01*
X145000Y1162000D02*
Y1172000D01*
X267000Y435000D02*
Y445000D01*
X262000Y440000D02*
X272000D01*
X157000Y526000D02*
X167000D01*
X162000Y521000D02*
Y531000D01*
X229000Y524000D02*
X239000D01*
X234000Y519000D02*
Y529000D01*
M02*
