G04*
G04 #@! TF.GenerationSoftware,Altium Limited,Altium Designer,24.0.1 (36)*
G04*
G04 Layer_Physical_Order=1*
G04 Layer_Color=255*
%FSLAX44Y44*%
%MOMM*%
G71*
G04*
G04 #@! TF.SameCoordinates,3C6FB229-8EB3-43CD-B7CA-B0B301390D20*
G04*
G04*
G04 #@! TF.FilePolarity,Positive*
G04*
G01*
G75*
%ADD10C,0.2500*%
%ADD13C,0.5000*%
%ADD14C,0.2000*%
%ADD16R,0.9000X0.6500*%
%ADD17R,0.6500X0.9000*%
%ADD18R,0.9000X0.8000*%
%ADD19R,0.8000X0.9000*%
%ADD20R,0.7500X0.9000*%
%ADD21O,1.6000X0.3500*%
%ADD22R,1.8000X1.3000*%
%ADD23O,0.3500X1.6000*%
%ADD24R,0.3600X0.2500*%
G04:AMPARAMS|DCode=25|XSize=1.45mm|YSize=0.3mm|CornerRadius=0.0495mm|HoleSize=0mm|Usage=FLASHONLY|Rotation=180.000|XOffset=0mm|YOffset=0mm|HoleType=Round|Shape=RoundedRectangle|*
%AMROUNDEDRECTD25*
21,1,1.4500,0.2010,0,0,180.0*
21,1,1.3510,0.3000,0,0,180.0*
1,1,0.0990,-0.6755,0.1005*
1,1,0.0990,0.6755,0.1005*
1,1,0.0990,0.6755,-0.1005*
1,1,0.0990,-0.6755,-0.1005*
%
%ADD25ROUNDEDRECTD25*%
%ADD26R,0.8000X0.9500*%
%ADD27R,0.9500X0.8000*%
%ADD28R,0.9500X1.4500*%
%ADD29R,1.4500X0.9500*%
%ADD30R,0.6000X1.0500*%
G04:AMPARAMS|DCode=31|XSize=0.6mm|YSize=1mm|CornerRadius=0.15mm|HoleSize=0mm|Usage=FLASHONLY|Rotation=90.000|XOffset=0mm|YOffset=0mm|HoleType=Round|Shape=RoundedRectangle|*
%AMROUNDEDRECTD31*
21,1,0.6000,0.7000,0,0,90.0*
21,1,0.3000,1.0000,0,0,90.0*
1,1,0.3000,0.3500,0.1500*
1,1,0.3000,0.3500,-0.1500*
1,1,0.3000,-0.3500,-0.1500*
1,1,0.3000,-0.3500,0.1500*
%
%ADD31ROUNDEDRECTD31*%
%ADD32R,0.8000X1.0000*%
%ADD33R,1.4000X1.5000*%
%ADD34R,0.9000X0.7500*%
G04:AMPARAMS|DCode=35|XSize=0.65mm|YSize=1.2mm|CornerRadius=0.0488mm|HoleSize=0mm|Usage=FLASHONLY|Rotation=180.000|XOffset=0mm|YOffset=0mm|HoleType=Round|Shape=RoundedRectangle|*
%AMROUNDEDRECTD35*
21,1,0.6500,1.1025,0,0,180.0*
21,1,0.5525,1.2000,0,0,180.0*
1,1,0.0975,-0.2763,0.5513*
1,1,0.0975,0.2763,0.5513*
1,1,0.0975,0.2763,-0.5513*
1,1,0.0975,-0.2763,-0.5513*
%
%ADD35ROUNDEDRECTD35*%
%ADD36R,0.5000X0.4500*%
%ADD37R,0.8587X0.9121*%
%ADD38R,0.9121X0.8587*%
G04:AMPARAMS|DCode=39|XSize=0.6mm|YSize=1mm|CornerRadius=0.15mm|HoleSize=0mm|Usage=FLASHONLY|Rotation=180.000|XOffset=0mm|YOffset=0mm|HoleType=Round|Shape=RoundedRectangle|*
%AMROUNDEDRECTD39*
21,1,0.6000,0.7000,0,0,180.0*
21,1,0.3000,1.0000,0,0,180.0*
1,1,0.3000,-0.1500,0.3500*
1,1,0.3000,0.1500,0.3500*
1,1,0.3000,0.1500,-0.3500*
1,1,0.3000,-0.1500,-0.3500*
%
%ADD39ROUNDEDRECTD39*%
%ADD57O,2.0000X1.5700*%
%ADD62O,1.5700X2.0000*%
%ADD64C,1.5000*%
%ADD65C,0.3000*%
%ADD66C,0.1540*%
%ADD67C,0.4000*%
%ADD68C,0.1530*%
%ADD69C,0.7000*%
%ADD70C,0.2540*%
%ADD71O,1.0000X1.5240*%
G04:AMPARAMS|DCode=72|XSize=2mm|YSize=2mm|CornerRadius=0.5mm|HoleSize=0mm|Usage=FLASHONLY|Rotation=90.000|XOffset=0mm|YOffset=0mm|HoleType=Round|Shape=RoundedRectangle|*
%AMROUNDEDRECTD72*
21,1,2.0000,1.0000,0,0,90.0*
21,1,1.0000,2.0000,0,0,90.0*
1,1,1.0000,0.5000,0.5000*
1,1,1.0000,0.5000,-0.5000*
1,1,1.0000,-0.5000,-0.5000*
1,1,1.0000,-0.5000,0.5000*
%
%ADD72ROUNDEDRECTD72*%
%ADD73O,1.5000X1.5240*%
%ADD74C,3.7000*%
%ADD75C,0.6000*%
G36*
X817721Y356851D02*
X760860D01*
X760787Y356987D01*
X760348Y358121D01*
X760352Y358131D01*
X760463Y358298D01*
X761214Y360109D01*
X761253Y360306D01*
X761329Y360491D01*
X761712Y362414D01*
Y362565D01*
X761749Y362712D01*
X761797Y363692D01*
X761789Y363742D01*
X761799Y363792D01*
X761799Y744962D01*
X763069Y745488D01*
X764002Y744556D01*
X765870Y743782D01*
Y749252D01*
X768410D01*
Y743782D01*
X770278Y744556D01*
X771451Y745729D01*
X772721Y745203D01*
X772721Y698792D01*
X772731Y698742D01*
X772724Y698692D01*
X772772Y697712D01*
X772809Y697565D01*
Y697414D01*
X773191Y695491D01*
X773268Y695306D01*
X773307Y695109D01*
X774057Y693298D01*
X774169Y693131D01*
X774246Y692945D01*
X775335Y691315D01*
X775477Y691173D01*
X775588Y691006D01*
X776974Y689620D01*
X777141Y689509D01*
X777283Y689367D01*
X778913Y688278D01*
X779099Y688201D01*
X779266Y688089D01*
X781077Y687339D01*
X781274Y687300D01*
X781460Y687223D01*
X783382Y686841D01*
X783533D01*
X783680Y686804D01*
X784660Y686756D01*
X784710Y686763D01*
X784760Y686753D01*
X794760Y686753D01*
X794810Y686763D01*
X794860Y686756D01*
X795841Y686804D01*
X795987Y686841D01*
X796138D01*
X798061Y687223D01*
X798247Y687300D01*
X798444Y687339D01*
X800255Y688089D01*
X800422Y688201D01*
X800607Y688278D01*
X802237Y689367D01*
X802379Y689509D01*
X802546Y689620D01*
X803932Y691006D01*
X804044Y691173D01*
X804186Y691315D01*
X805275Y692945D01*
X805352Y693131D01*
X805463Y693298D01*
X806214Y695109D01*
X806253Y695306D01*
X806330Y695491D01*
X806712Y697414D01*
Y697565D01*
X806749Y697712D01*
X806797Y698692D01*
X806789Y698742D01*
X806799Y698792D01*
X806799Y756753D01*
X817721D01*
Y356851D01*
D02*
G37*
G36*
X77721Y363792D02*
X77731Y363742D01*
X77724Y363692D01*
X77772Y362712D01*
X77809Y362565D01*
Y362414D01*
X78191Y360491D01*
X78268Y360306D01*
X78307Y360109D01*
X79057Y358298D01*
X79169Y358131D01*
X79190Y358079D01*
X79193Y358054D01*
X79112Y357708D01*
X78548Y356703D01*
X78122Y356618D01*
X77129Y355955D01*
X76466Y354963D01*
X76234Y353792D01*
Y345415D01*
X64958D01*
Y345816D01*
X64722Y347002D01*
X64050Y348007D01*
X63045Y348679D01*
X61859Y348915D01*
X58859D01*
X57673Y348679D01*
X56667Y348007D01*
X55995Y347002D01*
X55759Y345816D01*
Y345415D01*
X47359D01*
X46173Y345179D01*
X45167Y344507D01*
X26917Y326257D01*
X26245Y325252D01*
X26009Y324066D01*
Y264066D01*
X26245Y262880D01*
X26917Y261874D01*
X57167Y231624D01*
X58173Y230952D01*
X59359Y230716D01*
X72819D01*
Y227776D01*
X83899D01*
Y239856D01*
X83221D01*
X82735Y241029D01*
X83682Y241976D01*
X86457D01*
X86819Y240856D01*
X86819Y240706D01*
Y235086D01*
X93359D01*
X99899D01*
Y240706D01*
X99899Y240856D01*
X100260Y241976D01*
X108819D01*
Y238526D01*
X118399D01*
Y250606D01*
X109981D01*
X103699Y256888D01*
Y274743D01*
X107432Y278476D01*
X113978D01*
X114263Y278120D01*
X114737Y276938D01*
X114010Y275849D01*
X113754Y274566D01*
X114010Y273282D01*
X114737Y272194D01*
X114908Y272079D01*
Y270552D01*
X114737Y270438D01*
X114010Y269349D01*
X113754Y268066D01*
X114010Y266782D01*
X114737Y265694D01*
X114908Y265579D01*
Y264052D01*
X114737Y263938D01*
X114010Y262849D01*
X113754Y261566D01*
X114010Y260282D01*
X114737Y259194D01*
X115825Y258467D01*
X117109Y258211D01*
X129609D01*
X130892Y258467D01*
X131981Y259194D01*
X132708Y260282D01*
X132963Y261566D01*
X132708Y262849D01*
X131981Y263938D01*
X131810Y264052D01*
Y265579D01*
X131981Y265694D01*
X132708Y266782D01*
X132963Y268066D01*
X132708Y269349D01*
X131981Y270438D01*
X131810Y270552D01*
Y272079D01*
X131981Y272194D01*
X132708Y273282D01*
X132963Y274566D01*
X132708Y275849D01*
X131981Y276938D01*
X131810Y277052D01*
Y278579D01*
X131981Y278694D01*
X132708Y279782D01*
X132963Y281066D01*
X132708Y282349D01*
X132142Y283196D01*
X132425Y284068D01*
X132705Y284466D01*
X134942D01*
X140009Y279398D01*
Y247155D01*
X132899D01*
Y250606D01*
X123319D01*
Y238526D01*
X132899D01*
Y241976D01*
X140009D01*
Y226165D01*
X100916D01*
X99899Y226776D01*
X99899Y227435D01*
Y232546D01*
X93359D01*
X86819D01*
Y227435D01*
X86819Y226776D01*
X85802Y226165D01*
X41643D01*
X18458Y249350D01*
Y332032D01*
X45551Y359124D01*
X46223Y360130D01*
X46458Y361316D01*
Y658671D01*
X46223Y659857D01*
X45551Y660863D01*
X30132Y676281D01*
Y729470D01*
X31060D01*
Y736072D01*
X31203Y736215D01*
X31632Y736320D01*
X32721Y735367D01*
Y698792D01*
X32731Y698742D01*
X32724Y698692D01*
X32772Y697712D01*
X32809Y697565D01*
Y697414D01*
X33191Y695491D01*
X33268Y695306D01*
X33307Y695109D01*
X34057Y693298D01*
X34169Y693131D01*
X34246Y692945D01*
X35335Y691315D01*
X35477Y691173D01*
X35588Y691006D01*
X36974Y689620D01*
X37142Y689509D01*
X37283Y689367D01*
X38914Y688278D01*
X39099Y688201D01*
X39266Y688089D01*
X41077Y687339D01*
X41274Y687300D01*
X41460Y687223D01*
X43382Y686841D01*
X43534D01*
X43680Y686804D01*
X44660Y686756D01*
X44710Y686763D01*
X44760Y686753D01*
X54760Y686753D01*
X54810Y686763D01*
X54860Y686756D01*
X55841Y686804D01*
X55987Y686841D01*
X56138D01*
X58061Y687223D01*
X58246Y687300D01*
X58443Y687339D01*
X60255Y688089D01*
X60422Y688201D01*
X60607Y688278D01*
X62237Y689367D01*
X62379Y689509D01*
X62546Y689620D01*
X63932Y691006D01*
X64044Y691173D01*
X64186Y691315D01*
X65275Y692945D01*
X65352Y693131D01*
X65463Y693298D01*
X66213Y695109D01*
X66253Y695306D01*
X66330Y695491D01*
X66712Y697414D01*
Y697565D01*
X66749Y697712D01*
X66797Y698692D01*
X66789Y698742D01*
X66799Y698792D01*
X66799Y756753D01*
X77721D01*
Y363792D01*
D02*
G37*
G36*
X452721Y189375D02*
X446449D01*
Y228316D01*
Y427588D01*
X446251Y428579D01*
X445690Y429420D01*
X444519Y430591D01*
X443678Y431153D01*
X442687Y431350D01*
X441810D01*
Y435550D01*
X439860D01*
Y449470D01*
X441810D01*
Y463050D01*
X432730D01*
Y449470D01*
X434680D01*
Y435550D01*
X433310D01*
Y436550D01*
X429040D01*
Y428760D01*
Y420970D01*
X433310D01*
Y421970D01*
X441269D01*
Y386483D01*
X441060Y385300D01*
X439768Y385300D01*
X438870Y386198D01*
Y391945D01*
X438870Y391945D01*
X438691Y392844D01*
X438182Y393607D01*
X435453Y396336D01*
X435899Y397413D01*
Y399219D01*
X435208Y400887D01*
X433931Y402164D01*
X432262Y402856D01*
X430456D01*
X428787Y402164D01*
X427510Y400887D01*
X426819Y399219D01*
Y397413D01*
X427510Y395744D01*
X428787Y394467D01*
X430456Y393776D01*
X431366D01*
X434170Y390971D01*
Y385300D01*
X431980D01*
Y371720D01*
X433930D01*
Y357800D01*
X432560D01*
Y358800D01*
X428290D01*
Y351010D01*
Y343220D01*
X432560D01*
Y344220D01*
X441060Y344220D01*
X441269Y343037D01*
Y231155D01*
X436772D01*
X436507Y233167D01*
X435561Y235451D01*
X434056Y237413D01*
X432094Y238918D01*
X429810Y239864D01*
X427359Y240187D01*
X424908Y239864D01*
X422623Y238918D01*
X420662Y237413D01*
X419157Y235451D01*
X418210Y233167D01*
X417888Y230716D01*
Y226416D01*
X418210Y223964D01*
X419157Y221680D01*
X420662Y219719D01*
X422623Y218214D01*
X424908Y217267D01*
X427359Y216945D01*
X429810Y217267D01*
X432094Y218214D01*
X434056Y219719D01*
X435561Y221680D01*
X436507Y223964D01*
X436772Y225976D01*
X441269D01*
Y189375D01*
X401699D01*
Y320026D01*
X404649D01*
Y333106D01*
X401699D01*
Y360993D01*
X403690Y362985D01*
X404252Y363825D01*
X404449Y364816D01*
Y375920D01*
X412980D01*
Y371720D01*
X422060D01*
Y384950D01*
X422060Y385300D01*
X422905Y386220D01*
X423310D01*
Y391990D01*
X416770D01*
X410230D01*
Y386220D01*
X412135D01*
X412980Y385300D01*
X412980Y384950D01*
Y381100D01*
X404449D01*
Y387220D01*
X407310D01*
Y399300D01*
X403699D01*
Y406316D01*
X403502Y407307D01*
X402940Y408147D01*
X397199Y413889D01*
Y460243D01*
X400981Y464026D01*
X405236D01*
X410583Y458679D01*
X411423Y458117D01*
X412415Y457920D01*
X413730D01*
Y449470D01*
X422810D01*
Y463050D01*
X416520D01*
X416270Y463100D01*
X413487D01*
X408899Y467688D01*
Y475106D01*
X396819D01*
Y467188D01*
X392778Y463147D01*
X392216Y462307D01*
X392019Y461316D01*
Y412816D01*
X392216Y411825D01*
X392778Y410984D01*
X398519Y405243D01*
Y399300D01*
X396230D01*
Y387220D01*
X399269D01*
Y378816D01*
Y365888D01*
X397278Y363897D01*
X396716Y363057D01*
X396519Y362066D01*
Y333106D01*
X393569D01*
Y320026D01*
X396519D01*
Y189375D01*
X386799D01*
X386799Y571753D01*
X452721D01*
Y189375D01*
D02*
G37*
G36*
X817721Y217831D02*
X774660D01*
X774611Y217821D01*
X774560Y217829D01*
X773580Y217781D01*
X773434Y217744D01*
X773282D01*
X771360Y217361D01*
X771174Y217285D01*
X770977Y217245D01*
X769166Y216495D01*
X768999Y216384D01*
X768813Y216307D01*
X767184Y215218D01*
X767042Y215076D01*
X766874Y214964D01*
X765488Y213578D01*
X765377Y213411D01*
X765235Y213269D01*
X764146Y211639D01*
X764069Y211453D01*
X763957Y211286D01*
X763207Y209475D01*
X763168Y209278D01*
X763091Y209093D01*
X762709Y207170D01*
Y207019D01*
X762672Y206872D01*
X762624Y205892D01*
X762631Y205842D01*
X762621Y205792D01*
X762621Y110781D01*
X735782Y83942D01*
X734609Y84428D01*
Y192932D01*
X783801Y242124D01*
X784473Y243130D01*
X784708Y244316D01*
Y256216D01*
X785109D01*
X786295Y256452D01*
X787301Y257124D01*
X787972Y258130D01*
X788208Y259316D01*
Y262316D01*
X787972Y263502D01*
X787301Y264507D01*
X786295Y265179D01*
X785109Y265415D01*
X778109D01*
X776923Y265179D01*
X775917Y264507D01*
X775245Y263502D01*
X775009Y262316D01*
Y259316D01*
X775245Y258130D01*
X775917Y257124D01*
X776923Y256452D01*
X778109Y256216D01*
X778509D01*
Y245600D01*
X735782Y202873D01*
X734609Y203358D01*
Y228726D01*
X742259D01*
X743250Y228923D01*
X744090Y229485D01*
X749012Y234406D01*
X751158Y233517D01*
X753609Y233195D01*
X756060Y233517D01*
X758344Y234464D01*
X760306Y235969D01*
X761811Y237930D01*
X762757Y240214D01*
X763080Y242666D01*
Y246966D01*
X762757Y249417D01*
X761811Y251701D01*
X760306Y253663D01*
X758344Y255168D01*
X756060Y256114D01*
X753609Y256437D01*
X751158Y256114D01*
X748873Y255168D01*
X746912Y253663D01*
X745407Y251701D01*
X744461Y249417D01*
X744138Y246966D01*
Y242666D01*
X744461Y240214D01*
X745349Y238069D01*
X741186Y233906D01*
X734609D01*
Y266442D01*
X738475D01*
X739466Y266639D01*
X740306Y267200D01*
X747468Y274362D01*
X748573Y273514D01*
X750858Y272567D01*
X753309Y272245D01*
X755760Y272567D01*
X758044Y273514D01*
X760006Y275019D01*
X761511Y276980D01*
X762457Y279264D01*
X762780Y281716D01*
Y286016D01*
X762457Y288467D01*
X761511Y290751D01*
X760006Y292713D01*
X758044Y294218D01*
X755760Y295164D01*
X753309Y295487D01*
X750858Y295164D01*
X748573Y294218D01*
X746612Y292713D01*
X745107Y290751D01*
X744161Y288467D01*
X743838Y286016D01*
Y281716D01*
X744161Y279264D01*
X744420Y278639D01*
X737402Y271621D01*
X734609D01*
Y275400D01*
X723749Y286260D01*
X712399D01*
Y288839D01*
X709458D01*
Y290532D01*
X722893Y303966D01*
X770825D01*
X778509Y296282D01*
Y284415D01*
X778109D01*
X776923Y284179D01*
X775917Y283507D01*
X775245Y282502D01*
X775009Y281316D01*
Y278316D01*
X775245Y277130D01*
X775917Y276124D01*
X776923Y275452D01*
X778109Y275216D01*
X785109D01*
X786295Y275452D01*
X787301Y276124D01*
X787972Y277130D01*
X788208Y278316D01*
Y281316D01*
X787972Y282502D01*
X787301Y283507D01*
X786295Y284179D01*
X785109Y284415D01*
X784708D01*
Y297566D01*
X784473Y298752D01*
X783801Y299757D01*
X774301Y309257D01*
X773295Y309929D01*
X772109Y310165D01*
X721609D01*
X720423Y309929D01*
X719417Y309257D01*
X704167Y294007D01*
X703495Y293002D01*
X703259Y291816D01*
Y288839D01*
X700319D01*
Y286260D01*
X688399D01*
Y288296D01*
X681359D01*
X674319D01*
Y286260D01*
X627738D01*
X615270Y273792D01*
Y268322D01*
X614287Y267915D01*
X613010Y266637D01*
X612319Y264969D01*
Y263163D01*
X613010Y261494D01*
X614287Y260217D01*
X615270Y259810D01*
Y236859D01*
X597899D01*
Y246856D01*
X592208D01*
Y255032D01*
X644087Y306910D01*
X679170D01*
X679483Y306502D01*
X681445Y304997D01*
X683729Y304051D01*
X686180Y303729D01*
X690480D01*
X692932Y304051D01*
X695216Y304997D01*
X697178Y306502D01*
X698683Y308464D01*
X699629Y310748D01*
X699952Y313200D01*
X699629Y315651D01*
X698683Y317935D01*
X697178Y319897D01*
X695216Y321402D01*
X692932Y322348D01*
X690480Y322671D01*
X686180D01*
X683729Y322348D01*
X681445Y321402D01*
X679483Y319897D01*
X677978Y317935D01*
X677032Y315651D01*
X676710Y313200D01*
X676631Y313110D01*
X642803D01*
X641617Y312874D01*
X640611Y312202D01*
X586917Y258507D01*
X586245Y257502D01*
X586009Y256316D01*
Y246856D01*
X580319D01*
Y234276D01*
X591015D01*
X593723Y231568D01*
X594728Y230896D01*
X595915Y230660D01*
X615270D01*
Y223165D01*
X597899D01*
Y227356D01*
X580319D01*
Y214776D01*
X597899D01*
Y216966D01*
X615270D01*
Y194977D01*
X543303Y123010D01*
Y108856D01*
X542956D01*
X541287Y108165D01*
X540010Y106887D01*
X539319Y105219D01*
Y103413D01*
X540010Y101744D01*
X541287Y100467D01*
X542956Y99776D01*
X543303D01*
Y14155D01*
X365109D01*
Y17631D01*
X368775Y18361D01*
X372422Y19871D01*
X375704Y22064D01*
X378495Y24856D01*
X380689Y28138D01*
X382199Y31785D01*
X382969Y35657D01*
Y39604D01*
X382199Y43476D01*
X380689Y47123D01*
X378495Y50405D01*
X375704Y53197D01*
X372422Y55390D01*
X368775Y56900D01*
X365109Y57630D01*
Y78007D01*
X412219D01*
Y73856D01*
X411469D01*
Y68276D01*
X418149D01*
Y73856D01*
X417399D01*
Y78007D01*
X447859D01*
X449029Y78240D01*
X450022Y78903D01*
X450685Y79895D01*
X450918Y81066D01*
Y93919D01*
X450898Y94018D01*
X450911Y94119D01*
X450782Y94600D01*
X450685Y95089D01*
X450628Y95174D01*
X450602Y95272D01*
X450299Y95667D01*
X450022Y96082D01*
X449937Y96138D01*
X449876Y96219D01*
X449444Y96468D01*
X449029Y96745D01*
X448930Y96764D01*
X448842Y96815D01*
X448587Y96902D01*
X447845Y98398D01*
X447855Y98454D01*
X447937Y98651D01*
X448247Y101010D01*
Y101250D01*
X447937Y103610D01*
X447026Y105809D01*
X445577Y107698D01*
X443688Y109147D01*
X441489Y110058D01*
X440247Y110221D01*
X439714Y110496D01*
X439080Y110998D01*
X439031Y111609D01*
X438987Y112350D01*
X438964Y112439D01*
X438971Y112531D01*
X438814Y113013D01*
X438685Y113505D01*
X439181Y114217D01*
X440458Y115494D01*
X441149Y117163D01*
Y118969D01*
X440458Y120637D01*
X439180Y121915D01*
X437512Y122606D01*
X436013D01*
X435052Y123605D01*
X435237Y124051D01*
X435547Y126410D01*
Y126650D01*
X435237Y129010D01*
X434326Y131209D01*
X432877Y133098D01*
X430988Y134547D01*
X428789Y135458D01*
X426429Y135768D01*
X424070Y135458D01*
X421870Y134547D01*
X419982Y133098D01*
X418573Y131262D01*
X418342Y131241D01*
X417247Y131423D01*
X417096Y132181D01*
X416433Y133173D01*
X409877Y139729D01*
X408885Y140392D01*
X407714Y140625D01*
X407714Y140625D01*
X404232D01*
X403937Y140566D01*
X403635D01*
X403357Y140450D01*
X403062Y140392D01*
X402811Y140224D01*
X402533Y140109D01*
X402320Y139896D01*
X402069Y139729D01*
X401902Y139478D01*
X401735Y139311D01*
X401581Y139240D01*
X401373Y139192D01*
X400686Y139192D01*
X400478Y139240D01*
X400324Y139311D01*
X400157Y139478D01*
X399990Y139729D01*
X399739Y139896D01*
X399526Y140109D01*
X399248Y140224D01*
X398997Y140392D01*
X398702Y140450D01*
X398424Y140566D01*
X398122D01*
X397827Y140625D01*
X279359D01*
X278188Y140392D01*
X277196Y139729D01*
X276533Y138736D01*
X276300Y137566D01*
Y135935D01*
X276303Y135920D01*
X276300Y135904D01*
X276420Y135334D01*
X276533Y134765D01*
X276542Y134752D01*
X276545Y134736D01*
X277005Y133657D01*
X277332Y133177D01*
X277656Y132693D01*
X277669Y132684D01*
X277678Y132671D01*
X278165Y132353D01*
X278648Y132030D01*
X278664Y132027D01*
X278677Y132018D01*
X279249Y131910D01*
X279819Y131797D01*
X280629Y131797D01*
X280819Y130563D01*
Y122260D01*
X264649D01*
Y126326D01*
X255109D01*
X245569D01*
Y122260D01*
X170359D01*
Y124276D01*
X176063D01*
Y130816D01*
Y137356D01*
X170359D01*
Y159722D01*
X241270D01*
Y273792D01*
X235145Y277130D01*
X226466Y281859D01*
Y284526D01*
X228149D01*
Y296606D01*
X218569D01*
Y287405D01*
X217477Y286756D01*
X213649Y288842D01*
Y296606D01*
X204069D01*
Y295306D01*
X202977Y294657D01*
X188096Y302765D01*
X187981Y302938D01*
X186893Y303665D01*
X186187Y303805D01*
X165288Y315192D01*
Y325476D01*
X165091Y326467D01*
X164530Y327307D01*
X152923Y338914D01*
X152083Y339475D01*
X151092Y339673D01*
X146709D01*
Y342916D01*
X134508D01*
Y339673D01*
X129876D01*
X128885Y339475D01*
X128045Y338914D01*
X114141Y325010D01*
X109459D01*
Y327649D01*
X97258D01*
Y325010D01*
X79292D01*
Y353792D01*
X83143D01*
X83913Y353278D01*
X84099Y353201D01*
X84266Y353089D01*
X86077Y352339D01*
X86274Y352300D01*
X86460Y352223D01*
X88382Y351841D01*
X88533D01*
X88680Y351804D01*
X89660Y351756D01*
X89711Y351763D01*
X89760Y351753D01*
X149201Y351753D01*
X282721Y272630D01*
Y163792D01*
X282731Y163742D01*
X282724Y163692D01*
X282772Y162712D01*
X282809Y162565D01*
Y162414D01*
X283191Y160492D01*
X283268Y160306D01*
X283307Y160109D01*
X284057Y158298D01*
X284169Y158131D01*
X284246Y157945D01*
X285335Y156315D01*
X285477Y156173D01*
X285588Y156006D01*
X286975Y154620D01*
X287142Y154509D01*
X287284Y154367D01*
X288913Y153278D01*
X289099Y153201D01*
X289266Y153089D01*
X291077Y152339D01*
X291274Y152300D01*
X291460Y152223D01*
X293382Y151840D01*
X293533D01*
X293680Y151804D01*
X294660Y151756D01*
X294711Y151763D01*
X294760Y151753D01*
X374760Y151753D01*
X374810Y151763D01*
X374860Y151756D01*
X375840Y151804D01*
X375987Y151840D01*
X376138D01*
X378061Y152223D01*
X378246Y152300D01*
X378443Y152339D01*
X380255Y153089D01*
X380421Y153201D01*
X380607Y153278D01*
X382237Y154367D01*
X382379Y154509D01*
X382546Y154620D01*
X383932Y156006D01*
X384044Y156173D01*
X384186Y156315D01*
X385275Y157945D01*
X385352Y158131D01*
X385463Y158298D01*
X386213Y160109D01*
X386253Y160306D01*
X386330Y160492D01*
X386712Y162414D01*
Y162565D01*
X386749Y162712D01*
X386797Y163692D01*
X386789Y163742D01*
X386799Y163792D01*
Y186316D01*
X441269D01*
Y158566D01*
X441466Y157575D01*
X442028Y156735D01*
X506028Y92734D01*
X506868Y92173D01*
X507859Y91976D01*
X530778D01*
X532037Y90717D01*
X533706Y90026D01*
X535512D01*
X537180Y90717D01*
X538458Y91994D01*
X539149Y93663D01*
Y95469D01*
X538458Y97137D01*
X537180Y98415D01*
X535512Y99106D01*
X533706D01*
X532037Y98415D01*
X530778Y97156D01*
X508932D01*
X446449Y159639D01*
Y186316D01*
X452721D01*
Y163792D01*
X452731Y163742D01*
X452724Y163692D01*
X452772Y162712D01*
X452809Y162565D01*
Y162414D01*
X453191Y160492D01*
X453268Y160306D01*
X453307Y160109D01*
X454057Y158298D01*
X454169Y158131D01*
X454246Y157945D01*
X455335Y156315D01*
X455477Y156173D01*
X455588Y156006D01*
X456974Y154620D01*
X457142Y154509D01*
X457284Y154367D01*
X458913Y153278D01*
X459099Y153201D01*
X459266Y153089D01*
X461077Y152339D01*
X461274Y152300D01*
X461460Y152223D01*
X463382Y151840D01*
X463534D01*
X463680Y151804D01*
X464660Y151756D01*
X464711Y151763D01*
X464760Y151753D01*
X544760Y151753D01*
X544810Y151763D01*
X544860Y151756D01*
X545840Y151804D01*
X545987Y151840D01*
X546138D01*
X548061Y152223D01*
X548246Y152300D01*
X548443Y152339D01*
X550255Y153089D01*
X550421Y153201D01*
X550607Y153278D01*
X552237Y154367D01*
X552379Y154509D01*
X552546Y154620D01*
X553932Y156006D01*
X554044Y156173D01*
X554186Y156315D01*
X555275Y157945D01*
X555352Y158131D01*
X555463Y158298D01*
X556213Y160109D01*
X556253Y160306D01*
X556329Y160492D01*
X556712Y162414D01*
Y162565D01*
X556749Y162712D01*
X556797Y163692D01*
X556789Y163742D01*
X556799Y163792D01*
X556799Y272630D01*
X690319Y351753D01*
X749760D01*
X749810Y351763D01*
X749860Y351756D01*
X750841Y351804D01*
X750987Y351840D01*
X751138D01*
X753061Y352223D01*
X753247Y352300D01*
X753444Y352339D01*
X755255Y353089D01*
X755422Y353201D01*
X755607Y353278D01*
X756377Y353792D01*
X817721D01*
Y217831D01*
D02*
G37*
G36*
X23933Y728689D02*
Y674997D01*
X23933Y674997D01*
X24169Y673811D01*
X24841Y672805D01*
X40259Y657387D01*
Y362600D01*
X13167Y335507D01*
X12495Y334502D01*
X12259Y333316D01*
Y248066D01*
X12495Y246880D01*
X13167Y245874D01*
X38167Y220874D01*
X39173Y220202D01*
X40359Y219966D01*
X140009D01*
Y216316D01*
X140245Y215130D01*
X140917Y214124D01*
X172417Y182624D01*
X173423Y181952D01*
X174609Y181716D01*
X176069D01*
Y176026D01*
X188649D01*
Y193606D01*
X176069D01*
Y189535D01*
X174799Y189009D01*
X146208Y217600D01*
Y223066D01*
Y244066D01*
Y280682D01*
X145972Y281868D01*
X145301Y282874D01*
X138417Y289757D01*
X137412Y290429D01*
X136225Y290665D01*
X132705D01*
X132425Y291063D01*
X132142Y291935D01*
X132708Y292782D01*
X132963Y294066D01*
X132708Y295349D01*
X131981Y296438D01*
X131810Y296552D01*
Y298079D01*
X131981Y298194D01*
X132708Y299282D01*
X132963Y300566D01*
X132848Y301147D01*
X134018Y301773D01*
X161225Y274566D01*
X155667Y269007D01*
X154995Y268002D01*
X154759Y266816D01*
Y226316D01*
X154995Y225130D01*
X155667Y224124D01*
X176917Y202874D01*
X177923Y202202D01*
X179109Y201966D01*
X192575D01*
X198759Y195782D01*
Y193606D01*
X195569D01*
Y176026D01*
X208149D01*
Y193606D01*
X204958D01*
Y197066D01*
X204722Y198252D01*
X204051Y199258D01*
X196051Y207257D01*
X195045Y207929D01*
X193859Y208165D01*
X180393D01*
X160958Y227600D01*
Y265532D01*
X166893Y271466D01*
X170013D01*
X170293Y271068D01*
X170576Y270196D01*
X170010Y269349D01*
X169754Y268066D01*
X170010Y266782D01*
X170737Y265694D01*
X170908Y265579D01*
Y264052D01*
X170737Y263938D01*
X170010Y262849D01*
X169754Y261566D01*
X170010Y260282D01*
X170737Y259194D01*
X171825Y258467D01*
X173109Y258211D01*
X176269D01*
Y241549D01*
X176466Y240558D01*
X177028Y239717D01*
X183844Y232901D01*
X184684Y232339D01*
X185675Y232142D01*
X192760D01*
Y229425D01*
X204840D01*
Y232142D01*
X233604D01*
X234595Y232339D01*
X235435Y232901D01*
X236607Y234072D01*
X236941Y234573D01*
X238211Y234188D01*
Y162781D01*
X170359D01*
X169189Y162548D01*
X168196Y161885D01*
X167533Y160893D01*
X167300Y159722D01*
Y137356D01*
X167533Y136185D01*
X168196Y135193D01*
X169189Y134530D01*
X170359Y134297D01*
X171294D01*
Y127334D01*
X170359D01*
X169189Y127102D01*
X168196Y126439D01*
X167533Y125446D01*
X167300Y124276D01*
Y122260D01*
X167533Y121089D01*
X168196Y120097D01*
X169189Y119434D01*
X170294Y119214D01*
Y117086D01*
X177334D01*
Y115816D01*
X178603D01*
Y109276D01*
X184373D01*
Y111891D01*
X191319D01*
Y109776D01*
X194740D01*
Y106856D01*
X193069D01*
Y105185D01*
X184399D01*
Y106856D01*
X178629D01*
Y101066D01*
Y95276D01*
X184399D01*
Y96947D01*
X193069D01*
Y95276D01*
X198839D01*
Y101066D01*
X200109D01*
Y102336D01*
X207149D01*
Y106856D01*
X202978D01*
Y109776D01*
X205399D01*
Y111891D01*
X212730D01*
Y109720D01*
X218500D01*
Y116010D01*
X219770D01*
Y117280D01*
X226810D01*
Y119201D01*
X245569D01*
X245741Y119235D01*
X246569Y118556D01*
Y118556D01*
X263649D01*
Y118556D01*
X264477Y119235D01*
X264649Y119201D01*
X276304D01*
X276348Y119169D01*
X277005Y117975D01*
X276545Y116895D01*
X276542Y116880D01*
X276533Y116867D01*
X276420Y116297D01*
X276300Y115727D01*
X276303Y115712D01*
X276300Y115696D01*
Y104113D01*
X276533Y102942D01*
X277196Y101950D01*
X278188Y101287D01*
X279359Y101054D01*
X280646D01*
X280819Y99856D01*
X280819Y99784D01*
Y94404D01*
X263649D01*
Y101076D01*
X246569D01*
Y82996D01*
X263649D01*
Y86166D01*
X280819D01*
Y83776D01*
X301899D01*
Y99784D01*
X301899Y99856D01*
X302072Y101054D01*
X356300D01*
Y81066D01*
X356533Y79895D01*
X357196Y78903D01*
X358188Y78240D01*
X359359Y78007D01*
X362050D01*
Y57670D01*
X360956D01*
X357084Y56900D01*
X353437Y55390D01*
X352614Y54840D01*
X351734Y55779D01*
X352542Y56832D01*
X353201Y58423D01*
X353426Y60130D01*
Y70131D01*
X353201Y71838D01*
X352542Y73429D01*
X351494Y74795D01*
X350128Y75843D01*
X348537Y76502D01*
X346829Y76727D01*
X336829D01*
X335122Y76502D01*
X333531Y75843D01*
X332165Y74795D01*
X331117Y73429D01*
X330458Y71838D01*
X330233Y70131D01*
Y60130D01*
X330458Y58423D01*
X331117Y56832D01*
X332165Y55466D01*
X333531Y54418D01*
X335122Y53759D01*
X336829Y53534D01*
X346829D01*
X348537Y53759D01*
X349193Y54030D01*
X349912Y52954D01*
X347363Y50405D01*
X345170Y47123D01*
X343660Y43476D01*
X342890Y39604D01*
Y35657D01*
X343660Y31785D01*
X345170Y28138D01*
X347363Y24856D01*
X350155Y22064D01*
X353437Y19871D01*
X357084Y18361D01*
X360956Y17591D01*
X362050D01*
Y14155D01*
X182182D01*
X62699Y133638D01*
Y181743D01*
X86682Y205726D01*
X133528D01*
X134787Y204467D01*
X136456Y203776D01*
X138262D01*
X139930Y204467D01*
X141208Y205744D01*
X141899Y207413D01*
Y209219D01*
X141208Y210887D01*
X139930Y212164D01*
X138262Y212856D01*
X136456D01*
X134787Y212164D01*
X133528Y210905D01*
X85609D01*
X84618Y210708D01*
X83778Y210147D01*
X58278Y184647D01*
X57716Y183807D01*
X57519Y182816D01*
Y132566D01*
X57716Y131575D01*
X58278Y130735D01*
X179278Y9735D01*
X180118Y9173D01*
X181109Y8976D01*
X638359D01*
X639350Y9173D01*
X640190Y9735D01*
X693940Y63485D01*
X694501Y64325D01*
X694699Y65316D01*
Y89566D01*
X694501Y90557D01*
X693940Y91397D01*
X688381Y96956D01*
X688907Y98226D01*
X707815D01*
X708061Y96364D01*
X709007Y94080D01*
X710512Y92119D01*
X712473Y90614D01*
X714758Y89667D01*
X717209Y89345D01*
X721509D01*
X723960Y89667D01*
X726244Y90614D01*
X728206Y92119D01*
X729711Y94080D01*
X730280Y95454D01*
X731550Y95202D01*
Y84428D01*
X731783Y83258D01*
X732197Y82637D01*
X732446Y82266D01*
X732525Y80685D01*
X654194Y2354D01*
X171007Y2355D01*
X164279Y7108D01*
X150165Y17905D01*
X136471Y29229D01*
X123217Y41065D01*
X110422Y53396D01*
X98103Y66204D01*
X86280Y79470D01*
X74969Y93175D01*
X64187Y107300D01*
X53948Y121823D01*
X44268Y136725D01*
X35161Y151984D01*
X26639Y167578D01*
X18716Y183483D01*
X11402Y199678D01*
X4708Y216139D01*
X1836Y224051D01*
X1798Y226386D01*
X1799Y351753D01*
X9760D01*
X9810Y351763D01*
X9860Y351756D01*
X10841Y351804D01*
X10987Y351840D01*
X11138D01*
X13061Y352223D01*
X13247Y352300D01*
X13443Y352339D01*
X15255Y353089D01*
X15422Y353201D01*
X15607Y353278D01*
X17237Y354367D01*
X17379Y354509D01*
X17546Y354620D01*
X18932Y356006D01*
X19044Y356173D01*
X19186Y356315D01*
X20275Y357945D01*
X20352Y358131D01*
X20463Y358298D01*
X21214Y360109D01*
X21253Y360306D01*
X21330Y360491D01*
X21712Y362414D01*
Y362565D01*
X21749Y362712D01*
X21797Y363692D01*
X21789Y363742D01*
X21799Y363792D01*
X21799Y728611D01*
X23069Y729181D01*
X23933Y728689D01*
D02*
G37*
G36*
X160109Y324403D02*
Y295726D01*
X160306Y294735D01*
X160867Y293895D01*
X168794Y285968D01*
X169634Y285407D01*
X169839Y284736D01*
X169944Y284050D01*
X169068Y282740D01*
X168987Y282336D01*
X179359D01*
X189730D01*
X189650Y282740D01*
X188702Y284159D01*
X187981Y284640D01*
Y285194D01*
X188708Y286282D01*
X188963Y287566D01*
X188708Y288849D01*
X187981Y289938D01*
X188455Y291120D01*
X188739Y291476D01*
X191786D01*
X194321Y288941D01*
X195161Y288379D01*
X196152Y288182D01*
X204069D01*
Y284526D01*
X213649D01*
Y284526D01*
X214380Y284960D01*
X216013Y284070D01*
X216377Y283957D01*
X216722Y283792D01*
X216942Y283780D01*
X217153Y283715D01*
X217533Y283749D01*
X217913Y283729D01*
X218121Y283802D01*
X218341Y283822D01*
X218679Y283999D01*
X219039Y284126D01*
X219711Y284526D01*
X221286D01*
Y279655D01*
X217770Y276139D01*
X217208Y275299D01*
X217011Y274308D01*
Y270106D01*
X213069D01*
Y266155D01*
X208432D01*
X204690Y269897D01*
X203850Y270458D01*
X202859Y270655D01*
X188739D01*
X188455Y271012D01*
X187981Y272194D01*
X188708Y273282D01*
X188963Y274566D01*
X188708Y275849D01*
X187981Y276938D01*
Y277491D01*
X188702Y277973D01*
X189650Y279392D01*
X189730Y279796D01*
X179359D01*
X168987D01*
X169068Y279392D01*
X169373Y278935D01*
X168694Y277665D01*
X166893D01*
X133301Y311257D01*
X132295Y311929D01*
X131109Y312165D01*
X91893D01*
X83551Y320507D01*
X83291Y320681D01*
X83676Y321951D01*
X97258D01*
Y315982D01*
X109459D01*
Y319226D01*
X114609D01*
X115600Y319423D01*
X116440Y319984D01*
X130949Y334493D01*
X134508D01*
Y331249D01*
X146709D01*
Y334493D01*
X150019D01*
X160109Y324403D01*
D02*
G37*
G36*
X686236Y284097D02*
X687228Y283434D01*
X688399Y283201D01*
X700319D01*
Y279259D01*
X712399D01*
Y283201D01*
X722482D01*
X731550Y274133D01*
Y271621D01*
X712399D01*
Y274339D01*
X700319D01*
Y264759D01*
X703769D01*
Y260638D01*
X693480Y250350D01*
X667875D01*
Y254010D01*
X667619Y255294D01*
X666892Y256382D01*
X665804Y257109D01*
X664520Y257365D01*
X663236Y257109D01*
X662148Y256382D01*
X662034Y256211D01*
X660506D01*
X660392Y256382D01*
X659304Y257109D01*
X658020Y257365D01*
X656736Y257109D01*
X655728Y256436D01*
X655302Y256529D01*
X654458Y256887D01*
Y259032D01*
X665393Y269966D01*
X683196D01*
X684383Y270202D01*
X684493Y270276D01*
X687399D01*
Y279856D01*
X675319D01*
Y276165D01*
X664109D01*
X662923Y275929D01*
X661917Y275257D01*
X658822Y272162D01*
X657649Y272649D01*
Y274546D01*
X651109D01*
Y277086D01*
X657649D01*
Y282856D01*
X658776Y283201D01*
X674319D01*
X675489Y283434D01*
X676482Y284097D01*
X676935Y284776D01*
X685782D01*
X686236Y284097D01*
D02*
G37*
G36*
X114293Y290568D02*
X114576Y289696D01*
X114010Y288849D01*
X113754Y287566D01*
X114010Y286282D01*
X114737Y285194D01*
X114263Y284011D01*
X113978Y283655D01*
X106359D01*
X105368Y283458D01*
X104528Y282897D01*
X99278Y277647D01*
X98716Y276807D01*
X98519Y275816D01*
Y255816D01*
X98716Y254825D01*
X99278Y253985D01*
X104933Y248329D01*
X104447Y247155D01*
X82609D01*
X81618Y246958D01*
X80778Y246397D01*
X76528Y242147D01*
X75966Y241307D01*
X75769Y240316D01*
Y239856D01*
X72819D01*
Y236915D01*
X60643D01*
X45552Y252006D01*
X46078Y253276D01*
X57399D01*
Y254405D01*
X67857D01*
Y251465D01*
X77438D01*
Y263545D01*
X67857D01*
Y260604D01*
X57399D01*
Y264356D01*
X51162D01*
X48416Y267102D01*
X48902Y268276D01*
X57399D01*
Y279356D01*
X54458D01*
Y281032D01*
X54893Y281466D01*
X67569D01*
Y276336D01*
X74109D01*
X80649D01*
Y280244D01*
X80799Y280377D01*
X82069Y279805D01*
Y268776D01*
X84276D01*
Y263545D01*
X82358D01*
Y251465D01*
X91938D01*
Y263545D01*
X90476D01*
Y268776D01*
X93149D01*
Y281356D01*
X90708D01*
Y283032D01*
X98643Y290966D01*
X114013D01*
X114293Y290568D01*
D02*
G37*
G36*
X731550Y251356D02*
X728629D01*
Y244816D01*
Y238276D01*
X731550D01*
Y236856D01*
X721069D01*
Y233906D01*
X719859D01*
X718868Y233708D01*
X718028Y233147D01*
X715028Y230147D01*
X714466Y229307D01*
X714269Y228316D01*
Y215856D01*
X710627D01*
Y212126D01*
X700149D01*
Y214856D01*
X696699D01*
Y230816D01*
X696501Y231807D01*
X695940Y232647D01*
X691996Y236591D01*
X691156Y237153D01*
X690165Y237350D01*
X666483D01*
X666116Y238620D01*
X666892Y239138D01*
X667619Y240226D01*
X667875Y241510D01*
Y245170D01*
X694553D01*
X695391Y244042D01*
X695098Y243336D01*
X699299D01*
Y248660D01*
X699236Y248780D01*
X708190Y257735D01*
X708752Y258575D01*
X708949Y259566D01*
Y264759D01*
X712399D01*
Y266442D01*
X731550D01*
Y251356D01*
D02*
G37*
G36*
X683167Y193374D02*
X684173Y192702D01*
X685359Y192466D01*
X688069D01*
Y190776D01*
X700149D01*
Y192216D01*
X710627D01*
Y189776D01*
X722707D01*
Y191696D01*
X731550D01*
Y148160D01*
X721460D01*
Y151416D01*
X709792D01*
Y139215D01*
X721460D01*
Y142471D01*
X731550D01*
Y102430D01*
X730280Y102177D01*
X729711Y103551D01*
X728206Y105513D01*
X726244Y107018D01*
X723960Y107964D01*
X721509Y108287D01*
X717209D01*
X714758Y107964D01*
X712473Y107018D01*
X710512Y105513D01*
X709007Y103551D01*
X708946Y103406D01*
X678336D01*
X678081Y103788D01*
X677408Y104238D01*
X676614Y104396D01*
X672449D01*
Y107566D01*
X672252Y108557D01*
X671690Y109397D01*
X647190Y133897D01*
X646350Y134458D01*
X645359Y134656D01*
X612431D01*
X604610Y142477D01*
Y146720D01*
X608060D01*
Y156300D01*
X595980D01*
Y146720D01*
X599430D01*
Y141404D01*
X599627Y140414D01*
X600189Y139573D01*
X609528Y130234D01*
X610368Y129673D01*
X611359Y129476D01*
X644286D01*
X667269Y106493D01*
Y104396D01*
X663104D01*
X662310Y104238D01*
X661637Y103788D01*
X661187Y103115D01*
X661029Y102321D01*
Y100311D01*
X661187Y99517D01*
X661637Y98844D01*
Y98788D01*
X661187Y98115D01*
X661029Y97321D01*
Y95311D01*
X661156Y94670D01*
X660916Y94509D01*
X660245Y93505D01*
X660062Y92586D01*
X669859D01*
X679788D01*
X680724Y93726D01*
X684286D01*
X689519Y88493D01*
Y66388D01*
X637286Y14155D01*
X546362D01*
Y99776D01*
X546240Y100388D01*
X546431Y100467D01*
X547708Y101744D01*
X548399Y103413D01*
Y105219D01*
X547708Y106887D01*
X546431Y108165D01*
X546240Y108243D01*
X546362Y108856D01*
Y121743D01*
X565894Y141276D01*
X584385D01*
X595862Y129799D01*
X595376Y128626D01*
X593169D01*
Y122856D01*
X598439D01*
Y125563D01*
X599612Y126049D01*
X601359Y124302D01*
Y115546D01*
X612439D01*
Y117726D01*
X627036D01*
X636325Y108437D01*
Y96551D01*
X635959Y96306D01*
X634689Y96985D01*
Y97321D01*
X634531Y98115D01*
X634081Y98788D01*
Y98844D01*
X634531Y99517D01*
X634689Y100311D01*
Y102321D01*
X634531Y103115D01*
X634081Y103788D01*
X633408Y104238D01*
X632614Y104396D01*
X619104D01*
X618310Y104238D01*
X617637Y103788D01*
X617559Y103671D01*
X582609D01*
X581707Y103492D01*
X580943Y102981D01*
X579253Y101291D01*
X578743Y100527D01*
X578564Y99626D01*
Y98383D01*
X578037Y98165D01*
X576760Y96887D01*
X576069Y95219D01*
Y93413D01*
X576760Y91744D01*
X578037Y90467D01*
X579706Y89776D01*
X581512D01*
X583181Y90467D01*
X584458Y91744D01*
X585149Y93413D01*
Y95219D01*
X584458Y96887D01*
X583655Y97690D01*
X584181Y98961D01*
X616225D01*
X616470Y98744D01*
X617103Y97690D01*
X617029Y97321D01*
Y95311D01*
X617187Y94517D01*
X617620Y93816D01*
X617187Y93115D01*
X617029Y92321D01*
Y90311D01*
X615939Y89281D01*
X600106D01*
X599958Y89637D01*
X598680Y90915D01*
X597012Y91606D01*
X595206D01*
X593537Y90915D01*
X592260Y89637D01*
X591569Y87969D01*
Y86163D01*
X592260Y84494D01*
X593537Y83217D01*
X595206Y82526D01*
X597012D01*
X598680Y83217D01*
X599565Y84101D01*
X616318D01*
X616626Y83752D01*
X617130Y82831D01*
X617029Y82321D01*
Y81898D01*
X613805Y78674D01*
X612762Y79106D01*
X610956D01*
X609287Y78415D01*
X608010Y77137D01*
X607319Y75469D01*
Y73663D01*
X608010Y71994D01*
X609287Y70717D01*
X610956Y70026D01*
X612762D01*
X614431Y70717D01*
X615708Y71994D01*
X616399Y73663D01*
Y73943D01*
X620691Y78236D01*
X632614D01*
X633408Y78394D01*
X634081Y78844D01*
X634162Y78966D01*
X661555D01*
X661637Y78844D01*
X662310Y78394D01*
X663104Y78236D01*
X676614D01*
X677408Y78394D01*
X678081Y78844D01*
X678531Y79517D01*
X678689Y80311D01*
Y82321D01*
X678531Y83115D01*
X678081Y83788D01*
Y83844D01*
X678531Y84517D01*
X678689Y85311D01*
Y87321D01*
X678561Y87962D01*
X678802Y88123D01*
X679473Y89127D01*
X679656Y90046D01*
X669859D01*
X660062D01*
X660245Y89127D01*
X660916Y88123D01*
X661156Y87962D01*
X661029Y87321D01*
Y85311D01*
X661104Y84936D01*
X660476Y83886D01*
X660228Y83666D01*
X635490D01*
X635242Y83886D01*
X634614Y84936D01*
X634689Y85311D01*
Y87321D01*
X634662Y87456D01*
X635533Y88726D01*
X635609D01*
X636600Y88923D01*
X637440Y89485D01*
X640746Y92790D01*
X641307Y93631D01*
X641504Y94622D01*
Y109510D01*
X641307Y110501D01*
X640746Y111341D01*
X629940Y122147D01*
X629100Y122708D01*
X628109Y122906D01*
X612439D01*
Y127626D01*
X604683D01*
X587021Y145288D01*
X586258Y145797D01*
X585359Y145976D01*
X572254D01*
X571768Y147149D01*
X594710Y170091D01*
X595980Y169565D01*
Y161220D01*
X608060D01*
X608060Y161220D01*
Y161220D01*
X609192Y160821D01*
X611769Y158243D01*
Y151066D01*
X611966Y150075D01*
X612528Y149235D01*
X616077Y145685D01*
X616917Y145124D01*
X617908Y144927D01*
X621319D01*
Y141776D01*
X633399D01*
Y144476D01*
X637569D01*
Y143026D01*
X650149D01*
Y154106D01*
X637569D01*
Y149656D01*
X633399D01*
Y152356D01*
X621319D01*
Y150106D01*
X618981D01*
X616949Y152138D01*
Y159316D01*
X616752Y160307D01*
X616190Y161147D01*
X610190Y167147D01*
X609350Y167708D01*
X608359Y167906D01*
X608060D01*
Y170800D01*
X605802D01*
X605276Y172070D01*
X620992Y187787D01*
X622166Y187301D01*
Y185510D01*
X622421Y184226D01*
X623148Y183138D01*
X624236Y182411D01*
X625520Y182156D01*
X626804Y182411D01*
X627892Y183138D01*
X629074Y182664D01*
X629430Y182379D01*
Y174550D01*
X626778Y171897D01*
X626216Y171057D01*
X626019Y170066D01*
Y167856D01*
X621319D01*
Y157276D01*
X633399D01*
Y159976D01*
X637569D01*
Y156026D01*
X650149D01*
X650149Y156026D01*
Y156026D01*
X651219Y155526D01*
X657319Y149426D01*
Y142776D01*
X669399D01*
Y152356D01*
X661686D01*
X661629Y152441D01*
X658064Y156006D01*
X658590Y157276D01*
X669399D01*
Y166856D01*
X667110D01*
Y183464D01*
X667619Y184226D01*
X667875Y185510D01*
Y197092D01*
X669145Y197618D01*
X675680Y191082D01*
Y177655D01*
X675877Y176663D01*
X676439Y175823D01*
X687278Y164984D01*
X688118Y164423D01*
X689109Y164226D01*
X693258D01*
Y160715D01*
X697242D01*
Y151416D01*
X694258D01*
Y139215D01*
X705925D01*
Y151416D01*
X701942D01*
Y160715D01*
X704925D01*
Y172916D01*
X693258D01*
Y169405D01*
X690182D01*
X680860Y178727D01*
Y192155D01*
X680663Y193146D01*
X680101Y193986D01*
X666746Y207341D01*
X665906Y207903D01*
X664915Y208100D01*
X653020D01*
X652029Y207903D01*
X651189Y207341D01*
X649439Y205591D01*
X648877Y204751D01*
X648680Y203760D01*
Y202251D01*
X647410Y201572D01*
X646694Y202051D01*
X646290Y202131D01*
Y191760D01*
Y181389D01*
X646694Y181469D01*
X648113Y182417D01*
X648595Y183138D01*
X649148D01*
X650236Y182411D01*
X651520Y182156D01*
X652804Y182411D01*
X653892Y183138D01*
X654006Y183309D01*
X655534D01*
X655648Y183138D01*
X656736Y182411D01*
X658020Y182156D01*
X659304Y182411D01*
X660392Y183138D01*
X661574Y182664D01*
X661930Y182379D01*
Y166856D01*
X657319D01*
Y158547D01*
X656049Y158021D01*
X652269Y161801D01*
X651428Y162363D01*
X650437Y162560D01*
X650149D01*
Y167106D01*
X637569D01*
Y165156D01*
X633399D01*
Y167856D01*
X631519D01*
X631331Y169126D01*
X633851Y171646D01*
X634413Y172486D01*
X634610Y173477D01*
Y182379D01*
X634966Y182664D01*
X636148Y183138D01*
X637236Y182411D01*
X638520Y182156D01*
X639804Y182411D01*
X640892Y183138D01*
X641445D01*
X641927Y182417D01*
X643346Y181469D01*
X643750Y181389D01*
Y191760D01*
Y202131D01*
X643346Y202051D01*
X642830Y201707D01*
X641560Y202385D01*
Y204319D01*
X641324Y205505D01*
X641054Y205910D01*
X648610Y213466D01*
X663075D01*
X683167Y193374D01*
D02*
G37*
G36*
X414270Y131010D02*
Y118260D01*
X435934Y112169D01*
X436014Y110827D01*
X434066Y110020D01*
X431969Y108411D01*
X430359Y106314D01*
X429348Y103871D01*
X429154Y102401D01*
X439129D01*
Y101131D01*
X440399D01*
Y91051D01*
X441750Y91229D01*
X444193Y92240D01*
X446290Y93850D01*
X446656Y94327D01*
X447859Y93919D01*
Y81066D01*
X359359D01*
Y104113D01*
X279359D01*
Y115696D01*
X279819Y116776D01*
X280629Y116776D01*
X290089D01*
Y125816D01*
Y134856D01*
X280629D01*
X279819Y134856D01*
X279359Y135935D01*
Y137566D01*
X397827D01*
X398079Y136296D01*
X395966Y135420D01*
X393869Y133811D01*
X392259Y131714D01*
X391248Y129271D01*
X391054Y127801D01*
X401029D01*
X411005D01*
X410811Y129271D01*
X409799Y131714D01*
X408190Y133811D01*
X406093Y135420D01*
X403980Y136296D01*
X404232Y137566D01*
X407714D01*
X414270Y131010D01*
D02*
G37*
%LPC*%
G36*
X791359Y627588D02*
X788038Y627261D01*
X784845Y626292D01*
X781902Y624719D01*
X779323Y622602D01*
X777206Y620023D01*
X775633Y617080D01*
X774664Y613887D01*
X774337Y610566D01*
X774664Y607245D01*
X775633Y604052D01*
X777206Y601109D01*
X779323Y598529D01*
X781902Y596413D01*
X784845Y594840D01*
X788038Y593871D01*
X791359Y593544D01*
X794680Y593871D01*
X797873Y594840D01*
X800816Y596413D01*
X803395Y598529D01*
X805512Y601109D01*
X807085Y604052D01*
X808054Y607245D01*
X808381Y610566D01*
X808054Y613887D01*
X807085Y617080D01*
X805512Y620023D01*
X803395Y622602D01*
X800816Y624719D01*
X797873Y626292D01*
X794680Y627261D01*
X791359Y627588D01*
D02*
G37*
G36*
X799379Y408528D02*
Y397336D01*
X808588D01*
Y398216D01*
X808231Y400928D01*
X807185Y403456D01*
X805519Y405626D01*
X803349Y407291D01*
X800821Y408338D01*
X799379Y408528D01*
D02*
G37*
G36*
X796839D02*
X795396Y408338D01*
X792869Y407291D01*
X790699Y405626D01*
X789033Y403456D01*
X787986Y400928D01*
X787629Y398216D01*
Y397336D01*
X796839D01*
Y408528D01*
D02*
G37*
G36*
X808588Y394796D02*
X799379D01*
Y383603D01*
X800821Y383793D01*
X803349Y384840D01*
X805519Y386506D01*
X807185Y388676D01*
X808231Y391203D01*
X808588Y393916D01*
Y394796D01*
D02*
G37*
G36*
X796839D02*
X787629D01*
Y393916D01*
X787986Y391203D01*
X789033Y388676D01*
X790699Y386506D01*
X792869Y384840D01*
X795396Y383793D01*
X796839Y383603D01*
Y394796D01*
D02*
G37*
G36*
X408109Y565938D02*
X406401Y565713D01*
X404811Y565054D01*
X403445Y564006D01*
X402396Y562639D01*
X401737Y561049D01*
X401512Y559341D01*
Y554101D01*
X401737Y552394D01*
X402396Y550803D01*
X403445Y549437D01*
X404811Y548388D01*
X406401Y547729D01*
X408109Y547505D01*
X409816Y547729D01*
X411407Y548388D01*
X412773Y549437D01*
X413821Y550803D01*
X414481Y552394D01*
X414705Y554101D01*
Y559341D01*
X414481Y561049D01*
X413821Y562639D01*
X412773Y564006D01*
X411407Y565054D01*
X409816Y565713D01*
X408109Y565938D01*
D02*
G37*
G36*
X433109Y566032D02*
X431402Y565807D01*
X429811Y565148D01*
X428445Y564100D01*
X427396Y562734D01*
X426737Y561143D01*
X426512Y559436D01*
Y554196D01*
X426737Y552488D01*
X427396Y550897D01*
X428445Y549531D01*
X429811Y548483D01*
X430519Y548190D01*
Y519856D01*
X428319D01*
Y518905D01*
X426609D01*
X425618Y518708D01*
X424778Y518147D01*
X419689Y513058D01*
X419127Y512218D01*
X418930Y511227D01*
Y471760D01*
X419127Y470769D01*
X419689Y469929D01*
X425019Y464598D01*
Y446671D01*
X416439Y438091D01*
X415877Y437251D01*
X415680Y436260D01*
Y435550D01*
X413730D01*
Y421970D01*
X422230D01*
Y420970D01*
X426500D01*
Y428760D01*
Y436550D01*
X424019D01*
X423492Y437820D01*
X429440Y443768D01*
X430001Y444608D01*
X430199Y445599D01*
Y465671D01*
X430001Y466662D01*
X429440Y467502D01*
X424110Y472833D01*
Y510154D01*
X427049Y513093D01*
X428319Y512567D01*
Y510276D01*
X440399D01*
Y519856D01*
X435699D01*
Y548190D01*
X436407Y548483D01*
X437773Y549531D01*
X438821Y550897D01*
X439481Y552488D01*
X439705Y554196D01*
Y559436D01*
X439481Y561143D01*
X438821Y562734D01*
X437773Y564100D01*
X436407Y565148D01*
X434816Y565807D01*
X433109Y566032D01*
D02*
G37*
G36*
X397879Y506286D02*
Y502086D01*
X402079D01*
X401305Y503954D01*
X399747Y505512D01*
X397879Y506286D01*
D02*
G37*
G36*
X395339D02*
X393471Y505512D01*
X391912Y503954D01*
X391138Y502086D01*
X395339D01*
Y506286D01*
D02*
G37*
G36*
X441399Y506356D02*
X435629D01*
Y501836D01*
X441399D01*
Y506356D01*
D02*
G37*
G36*
X433089D02*
X427319D01*
Y501836D01*
X433089D01*
Y506356D01*
D02*
G37*
G36*
X402079Y499546D02*
X397879D01*
Y495345D01*
X399747Y496119D01*
X401305Y497678D01*
X402079Y499546D01*
D02*
G37*
G36*
X395339D02*
X391138D01*
X391912Y497678D01*
X393471Y496119D01*
X395339Y495345D01*
Y499546D01*
D02*
G37*
G36*
X441399Y499296D02*
X435629D01*
Y494776D01*
X441399D01*
Y499296D01*
D02*
G37*
G36*
X433089D02*
X427319D01*
Y494776D01*
X433089D01*
Y499296D01*
D02*
G37*
G36*
X409899Y491106D02*
X404129D01*
Y485836D01*
X409899D01*
Y491106D01*
D02*
G37*
G36*
X401589D02*
X395819D01*
Y485836D01*
X401589D01*
Y491106D01*
D02*
G37*
G36*
X435129Y489036D02*
Y484836D01*
X439329D01*
X438555Y486704D01*
X436997Y488262D01*
X435129Y489036D01*
D02*
G37*
G36*
X432589D02*
X430721Y488262D01*
X429162Y486704D01*
X428388Y484836D01*
X432589D01*
Y489036D01*
D02*
G37*
G36*
X439329Y482296D02*
X435129D01*
Y478095D01*
X436997Y478869D01*
X438555Y480428D01*
X439329Y482296D01*
D02*
G37*
G36*
X432589D02*
X428388D01*
X429162Y480428D01*
X430721Y478869D01*
X432589Y478095D01*
Y482296D01*
D02*
G37*
G36*
X409899Y483296D02*
X404129D01*
Y478026D01*
X409899D01*
Y483296D01*
D02*
G37*
G36*
X401589D02*
X395819D01*
Y478026D01*
X401589D01*
Y483296D01*
D02*
G37*
G36*
X432948Y416514D02*
Y412313D01*
X437149D01*
X436375Y414182D01*
X434816Y415740D01*
X432948Y416514D01*
D02*
G37*
G36*
X430408D02*
X428540Y415740D01*
X426982Y414182D01*
X426208Y412313D01*
X430408D01*
Y416514D01*
D02*
G37*
G36*
X437149Y409773D02*
X432948D01*
Y405573D01*
X434816Y406347D01*
X436375Y407905D01*
X437149Y409773D01*
D02*
G37*
G36*
X430408D02*
X426208D01*
X426982Y407905D01*
X428540Y406347D01*
X430408Y405573D01*
Y409773D01*
D02*
G37*
G36*
X423310Y400300D02*
X418040D01*
Y394530D01*
X423310D01*
Y400300D01*
D02*
G37*
G36*
X415500D02*
X410230D01*
Y394530D01*
X415500D01*
Y400300D01*
D02*
G37*
G36*
X413379Y369786D02*
Y365586D01*
X417579D01*
X416805Y367454D01*
X415247Y369012D01*
X413379Y369786D01*
D02*
G37*
G36*
X410839D02*
X408971Y369012D01*
X407412Y367454D01*
X406638Y365586D01*
X410839D01*
Y369786D01*
D02*
G37*
G36*
X417579Y363046D02*
X406638D01*
X407412Y361178D01*
X408971Y359619D01*
X411007Y358776D01*
X412270D01*
X412868Y357954D01*
D01*
X412980Y357800D01*
X412980Y357506D01*
X412980D01*
Y344220D01*
X415170D01*
Y340450D01*
X412447Y337728D01*
X411938Y336965D01*
X411759Y336066D01*
Y333106D01*
X408569D01*
Y320026D01*
X411519D01*
Y290145D01*
X411346D01*
X410555Y289988D01*
X409885Y289540D01*
X409436Y288869D01*
X409279Y288078D01*
Y277053D01*
X409436Y276262D01*
X409885Y275592D01*
X410555Y275143D01*
X411346Y274986D01*
X416871D01*
X417662Y275143D01*
X418333Y275592D01*
X418781Y276262D01*
X418939Y277053D01*
Y288078D01*
X418781Y288869D01*
X418333Y289540D01*
X417662Y289988D01*
X416871Y290145D01*
X416699D01*
Y320026D01*
X419649D01*
Y333106D01*
X416459D01*
Y335092D01*
X419182Y337815D01*
X419691Y338577D01*
X419870Y339477D01*
X419870Y339477D01*
Y344220D01*
X421480D01*
Y343220D01*
X425750D01*
Y351010D01*
Y358800D01*
X421480D01*
Y357800D01*
X414250D01*
X414174Y357800D01*
X414104Y358154D01*
X414104Y358154D01*
X414104Y358154D01*
D01*
X414474Y359299D01*
X415247Y359619D01*
X416805Y361178D01*
X417579Y363046D01*
D02*
G37*
G36*
X433879Y333536D02*
Y329336D01*
X438079D01*
X437305Y331204D01*
X435747Y332762D01*
X433879Y333536D01*
D02*
G37*
G36*
X431339D02*
X429471Y332762D01*
X427912Y331204D01*
X427138Y329336D01*
X431339D01*
Y333536D01*
D02*
G37*
G36*
X438079Y326796D02*
X433879D01*
Y322595D01*
X435747Y323369D01*
X437305Y324928D01*
X438079Y326796D01*
D02*
G37*
G36*
X431339D02*
X427138D01*
X427912Y324928D01*
X429471Y323369D01*
X431339Y322595D01*
Y326796D01*
D02*
G37*
G36*
X426371Y316145D02*
X420846D01*
X420055Y315988D01*
X419385Y315540D01*
X418937Y314869D01*
X418779Y314078D01*
Y303053D01*
X418937Y302262D01*
X419385Y301591D01*
X420055Y301143D01*
X420846Y300986D01*
X426371D01*
X427162Y301143D01*
X427833Y301591D01*
X428281Y302262D01*
X428439Y303053D01*
Y314078D01*
X428281Y314869D01*
X427833Y315540D01*
X427162Y315988D01*
X426371Y316145D01*
D02*
G37*
G36*
X435871Y291165D02*
X434379D01*
Y283836D01*
X438958D01*
Y288078D01*
X438723Y289259D01*
X438054Y290261D01*
X437053Y290930D01*
X435871Y291165D01*
D02*
G37*
G36*
X431839D02*
X430346D01*
X429165Y290930D01*
X428164Y290261D01*
X427495Y289259D01*
X427259Y288078D01*
Y283836D01*
X431839D01*
Y291165D01*
D02*
G37*
G36*
X438958Y281296D02*
X434379D01*
Y273966D01*
X435871D01*
X437053Y274201D01*
X438054Y274870D01*
X438723Y275872D01*
X438958Y277053D01*
Y281296D01*
D02*
G37*
G36*
X431839D02*
X427259D01*
Y277053D01*
X427495Y275872D01*
X428164Y274870D01*
X429165Y274201D01*
X430346Y273966D01*
X431839D01*
Y281296D01*
D02*
G37*
G36*
X421129Y261036D02*
Y256836D01*
X425329D01*
X424555Y258704D01*
X422997Y260262D01*
X421129Y261036D01*
D02*
G37*
G36*
X418589D02*
X416721Y260262D01*
X415162Y258704D01*
X414388Y256836D01*
X418589D01*
Y261036D01*
D02*
G37*
G36*
X425329Y254296D02*
X421129D01*
Y250095D01*
X422997Y250869D01*
X424555Y252428D01*
X425329Y254296D01*
D02*
G37*
G36*
X418589D02*
X414388D01*
X415162Y252428D01*
X416721Y250869D01*
X418589Y250095D01*
Y254296D01*
D02*
G37*
G36*
X110459Y344183D02*
X104629D01*
Y338620D01*
X110459D01*
Y344183D01*
D02*
G37*
G36*
X102089D02*
X96258D01*
Y338620D01*
X102089D01*
Y344183D01*
D02*
G37*
G36*
X110459Y336080D02*
X104629D01*
Y330516D01*
X110459D01*
Y336080D01*
D02*
G37*
G36*
X102089D02*
X96258D01*
Y330516D01*
X102089D01*
Y336080D01*
D02*
G37*
G36*
X176012Y323856D02*
X174206D01*
X172537Y323165D01*
X171260Y321887D01*
X170569Y320219D01*
Y318413D01*
X171260Y316744D01*
X172537Y315467D01*
X174206Y314776D01*
X176012D01*
X177680Y315467D01*
X178958Y316744D01*
X179649Y318413D01*
Y320219D01*
X178958Y321887D01*
X177680Y323165D01*
X176012Y323856D01*
D02*
G37*
G36*
X688399Y295356D02*
X682629D01*
Y290836D01*
X688399D01*
Y295356D01*
D02*
G37*
G36*
X680089D02*
X674319D01*
Y290836D01*
X680089D01*
Y295356D01*
D02*
G37*
G36*
X809109Y275935D02*
X806879D01*
Y271586D01*
X813228D01*
Y271816D01*
X812914Y273392D01*
X812021Y274728D01*
X810685Y275621D01*
X809109Y275935D01*
D02*
G37*
G36*
X804339D02*
X802109D01*
X800533Y275621D01*
X799196Y274728D01*
X798303Y273392D01*
X797990Y271816D01*
Y271586D01*
X804339D01*
Y275935D01*
D02*
G37*
G36*
X253512Y276606D02*
X251706D01*
X250037Y275915D01*
X248760Y274637D01*
X248069Y272969D01*
Y271163D01*
X248760Y269494D01*
X250037Y268217D01*
X251706Y267526D01*
X253512D01*
X255180Y268217D01*
X256458Y269494D01*
X257149Y271163D01*
Y272969D01*
X256458Y274637D01*
X255180Y275915D01*
X253512Y276606D01*
D02*
G37*
G36*
X813228Y269046D02*
X806879D01*
Y264697D01*
X809109D01*
X810685Y265010D01*
X812021Y265903D01*
X812914Y267239D01*
X813228Y268816D01*
Y269046D01*
D02*
G37*
G36*
X804339D02*
X797990D01*
Y268816D01*
X798303Y267239D01*
X799196Y265903D01*
X800533Y265010D01*
X802109Y264697D01*
X804339D01*
Y269046D01*
D02*
G37*
G36*
X261129Y222028D02*
Y210836D01*
X270338D01*
Y211716D01*
X269981Y214428D01*
X268934Y216956D01*
X267269Y219126D01*
X265099Y220791D01*
X262571Y221838D01*
X261129Y222028D01*
D02*
G37*
G36*
X258589Y222028D02*
X257146Y221838D01*
X254619Y220791D01*
X252449Y219126D01*
X250783Y216956D01*
X249736Y214428D01*
X249379Y211716D01*
Y210836D01*
X258589D01*
Y222028D01*
D02*
G37*
G36*
X270338Y208296D02*
X261129D01*
Y197103D01*
X262571Y197293D01*
X265099Y198340D01*
X267269Y200005D01*
X268934Y202176D01*
X269981Y204703D01*
X270338Y207416D01*
Y208296D01*
D02*
G37*
G36*
X258589D02*
X249379D01*
Y207416D01*
X249736Y204703D01*
X250783Y202176D01*
X252449Y200005D01*
X254619Y198340D01*
X257146Y197293D01*
X258589Y197103D01*
Y208296D01*
D02*
G37*
G36*
X571262Y248106D02*
X569456D01*
X567787Y247415D01*
X566510Y246137D01*
X565819Y244469D01*
Y242663D01*
X566510Y240994D01*
X567769Y239735D01*
Y210066D01*
X567966Y209075D01*
X568528Y208235D01*
X580819Y195943D01*
Y194163D01*
X581510Y192494D01*
X582787Y191217D01*
X584456Y190526D01*
X586262D01*
X587930Y191217D01*
X589208Y192494D01*
X589899Y194163D01*
Y195969D01*
X589208Y197637D01*
X587930Y198915D01*
X586262Y199606D01*
X584481D01*
X572949Y211138D01*
Y239735D01*
X574208Y240994D01*
X574899Y242663D01*
Y244469D01*
X574208Y246137D01*
X572930Y247415D01*
X571262Y248106D01*
D02*
G37*
G36*
X414012Y166856D02*
X412206D01*
X410537Y166165D01*
X409260Y164887D01*
X408569Y163219D01*
Y161413D01*
X409260Y159744D01*
X410537Y158467D01*
X412206Y157776D01*
X414012D01*
X415681Y158467D01*
X416958Y159744D01*
X417649Y161413D01*
Y163219D01*
X416958Y164887D01*
X415681Y166165D01*
X414012Y166856D01*
D02*
G37*
G36*
X241512Y147356D02*
X239706D01*
X238037Y146665D01*
X236760Y145387D01*
X236069Y143719D01*
Y141913D01*
X236760Y140244D01*
X238037Y138967D01*
X239706Y138276D01*
X241512D01*
X243181Y138967D01*
X244458Y140244D01*
X245149Y141913D01*
Y143719D01*
X244458Y145387D01*
X243181Y146665D01*
X241512Y147356D01*
D02*
G37*
G36*
X226810Y137800D02*
X221040D01*
Y132780D01*
X226810D01*
Y137800D01*
D02*
G37*
G36*
X218500D02*
X212730D01*
Y132780D01*
X218500D01*
Y137800D01*
D02*
G37*
G36*
X205399Y137856D02*
X199629D01*
Y132586D01*
X205399D01*
Y137856D01*
D02*
G37*
G36*
X197089D02*
X191319D01*
Y132586D01*
X197089D01*
Y137856D01*
D02*
G37*
G36*
X184373Y137356D02*
X178603D01*
Y132086D01*
X184373D01*
Y137356D01*
D02*
G37*
G36*
X264649Y137636D02*
X256379D01*
Y128866D01*
X264649D01*
Y137636D01*
D02*
G37*
G36*
X253839D02*
X245569D01*
Y128866D01*
X253839D01*
Y137636D01*
D02*
G37*
G36*
X488012Y137856D02*
X486206D01*
X484537Y137164D01*
X483260Y135887D01*
X482569Y134219D01*
Y132413D01*
X483260Y130744D01*
X484537Y129467D01*
X486206Y128776D01*
X488012D01*
X489680Y129467D01*
X490958Y130744D01*
X491649Y132413D01*
Y134219D01*
X490958Y135887D01*
X489680Y137164D01*
X488012Y137856D01*
D02*
G37*
G36*
X226810Y130240D02*
X221040D01*
Y125220D01*
X226810D01*
Y130240D01*
D02*
G37*
G36*
X218500D02*
X212730D01*
Y125220D01*
X218500D01*
Y130240D01*
D02*
G37*
G36*
X527262Y134106D02*
X525456D01*
X523787Y133415D01*
X522510Y132137D01*
X521819Y130469D01*
Y128663D01*
X522510Y126994D01*
X523787Y125717D01*
X525456Y125026D01*
X527262D01*
X528931Y125717D01*
X530208Y126994D01*
X530899Y128663D01*
Y130469D01*
X530208Y132137D01*
X528931Y133415D01*
X527262Y134106D01*
D02*
G37*
G36*
X205399Y130046D02*
X199629D01*
Y124776D01*
X205399D01*
Y130046D01*
D02*
G37*
G36*
X197089D02*
X191319D01*
Y124776D01*
X197089D01*
Y130046D01*
D02*
G37*
G36*
X184373Y129546D02*
X178603D01*
Y124276D01*
X184373D01*
Y129546D01*
D02*
G37*
G36*
X451829Y135768D02*
X449469Y135458D01*
X447271Y134547D01*
X445382Y133098D01*
X443933Y131209D01*
X443022Y129010D01*
X442711Y126650D01*
Y126410D01*
X443022Y124051D01*
X443933Y121851D01*
X445382Y119963D01*
X447271Y118514D01*
X449469Y117603D01*
X451829Y117292D01*
X454189Y117603D01*
X456388Y118514D01*
X458277Y119963D01*
X459726Y121851D01*
X460637Y124051D01*
X460947Y126410D01*
Y126650D01*
X460637Y129010D01*
X459726Y131209D01*
X458277Y133098D01*
X456388Y134547D01*
X454189Y135458D01*
X451829Y135768D01*
D02*
G37*
G36*
X464529Y110368D02*
X462169Y110058D01*
X459971Y109147D01*
X458082Y107698D01*
X456633Y105809D01*
X455722Y103610D01*
X455411Y101250D01*
Y101010D01*
X455722Y98651D01*
X456633Y96451D01*
X458082Y94563D01*
X459971Y93114D01*
X462169Y92203D01*
X464529Y91892D01*
X466889Y92203D01*
X469088Y93114D01*
X470977Y94563D01*
X472426Y96451D01*
X473337Y98651D01*
X473647Y101010D01*
Y101250D01*
X473337Y103610D01*
X472426Y105809D01*
X470977Y107698D01*
X469088Y109147D01*
X466889Y110058D01*
X464529Y110368D01*
D02*
G37*
G36*
X503330Y76727D02*
X493329D01*
X491622Y76502D01*
X490031Y75843D01*
X488665Y74795D01*
X487617Y73429D01*
X486958Y71838D01*
X486733Y70131D01*
Y60130D01*
X486958Y58423D01*
X487617Y56832D01*
X488425Y55779D01*
X487545Y54840D01*
X486722Y55390D01*
X483075Y56900D01*
X479203Y57670D01*
X475256D01*
X471384Y56900D01*
X467737Y55390D01*
X464455Y53197D01*
X461663Y50405D01*
X459470Y47123D01*
X457960Y43476D01*
X457189Y39604D01*
Y35657D01*
X457960Y31785D01*
X459470Y28138D01*
X461663Y24856D01*
X464455Y22064D01*
X467737Y19871D01*
X471384Y18361D01*
X475256Y17591D01*
X479203D01*
X483075Y18361D01*
X486722Y19871D01*
X490004Y22064D01*
X492795Y24856D01*
X494989Y28138D01*
X496499Y31785D01*
X497269Y35657D01*
Y39604D01*
X496499Y43476D01*
X494989Y47123D01*
X492795Y50405D01*
X490247Y52954D01*
X490966Y54030D01*
X491622Y53759D01*
X493329Y53534D01*
X503330D01*
X505037Y53759D01*
X506628Y54418D01*
X507994Y55466D01*
X509042Y56832D01*
X509701Y58423D01*
X509926Y60130D01*
Y70131D01*
X509701Y71838D01*
X509042Y73429D01*
X507994Y74795D01*
X506628Y75843D01*
X505037Y76502D01*
X503330Y76727D01*
D02*
G37*
G36*
X409749Y73856D02*
X403069D01*
Y68276D01*
X403819D01*
Y62928D01*
X403787Y62915D01*
X402510Y61637D01*
X401819Y59969D01*
Y58163D01*
X402510Y56494D01*
X403787Y55217D01*
X405456Y54526D01*
X407262D01*
X408931Y55217D01*
X410208Y56494D01*
X410899Y58163D01*
Y59969D01*
X410208Y61637D01*
X408999Y62846D01*
Y68276D01*
X409749D01*
Y73856D01*
D02*
G37*
G36*
X204840Y224505D02*
X192760D01*
Y221788D01*
X186073D01*
X185082Y221591D01*
X184918Y221481D01*
X184012Y221856D01*
X182206D01*
X180537Y221165D01*
X179260Y219887D01*
X178569Y218219D01*
Y216413D01*
X179260Y214744D01*
X180537Y213467D01*
X182206Y212776D01*
X184012D01*
X185681Y213467D01*
X186958Y214744D01*
X187649Y216413D01*
Y216608D01*
X192760D01*
Y214925D01*
X204840D01*
Y224505D01*
D02*
G37*
G36*
X102223Y188224D02*
X96877Y188208D01*
X96698Y188172D01*
X96516Y188174D01*
X91257Y187213D01*
X91088Y187146D01*
X90908Y187116D01*
X85901Y185240D01*
X85747Y185144D01*
X85575Y185084D01*
X80979Y182352D01*
X80844Y182230D01*
X80686Y182140D01*
X76645Y178638D01*
X76533Y178495D01*
X76394Y178378D01*
X73036Y174217D01*
X72951Y174056D01*
X72834Y173917D01*
X70265Y169228D01*
X70210Y169055D01*
X70120Y168897D01*
X68420Y163827D01*
X68397Y163647D01*
X68336Y163475D01*
X67558Y158186D01*
X67568Y158004D01*
X67538Y157824D01*
X67708Y152480D01*
X67749Y152303D01*
X67752Y152121D01*
X68864Y146891D01*
X68936Y146724D01*
X68971Y146545D01*
X70990Y141595D01*
X71090Y141443D01*
X71156Y141273D01*
X74019Y136758D01*
X74145Y136626D01*
X74239Y136470D01*
X77855Y132532D01*
X78002Y132425D01*
X78123Y132288D01*
X82378Y129052D01*
X82542Y128972D01*
X82684Y128859D01*
X87445Y126425D01*
X87620Y126376D01*
X87781Y126290D01*
X92897Y124736D01*
X93078Y124718D01*
X93251Y124662D01*
X98561Y124037D01*
X98742Y124052D01*
X98923Y124027D01*
X104259Y124351D01*
X104436Y124397D01*
X104617Y124405D01*
X109813Y125667D01*
X109978Y125744D01*
X110155Y125784D01*
X115046Y127944D01*
X115195Y128049D01*
X115363Y128120D01*
X119794Y131111D01*
X119922Y131240D01*
X120075Y131339D01*
X123907Y135067D01*
X124011Y135217D01*
X124144Y135342D01*
X125700Y137515D01*
X125700Y137515D01*
X125927Y137832D01*
X125993Y137977D01*
X126091Y138103D01*
X126441Y138799D01*
X126483Y138952D01*
X126561Y139091D01*
X126799Y139833D01*
X126817Y139992D01*
X126872Y140141D01*
X126993Y140911D01*
X126986Y141070D01*
X127017Y141227D01*
X127017Y141616D01*
Y142411D01*
X126955Y142725D01*
X126917Y143042D01*
X126425Y144554D01*
X126268Y144833D01*
X126133Y145123D01*
X125197Y146408D01*
X124962Y146624D01*
X124744Y146859D01*
X123456Y147790D01*
X123165Y147923D01*
X122885Y148079D01*
X121371Y148565D01*
X121053Y148601D01*
X120739Y148662D01*
X119150Y148656D01*
X118836Y148592D01*
X118518Y148553D01*
X117009Y148054D01*
X116731Y147896D01*
X116441Y147760D01*
X115161Y146818D01*
X114945Y146582D01*
X114711Y146363D01*
X114280Y145761D01*
X113119Y144306D01*
X110342Y141760D01*
X107145Y139868D01*
X103628Y138674D01*
X99940Y138230D01*
X96240Y138554D01*
X92686Y139634D01*
X89430Y141421D01*
X86612Y143841D01*
X84353Y146789D01*
X82748Y150140D01*
X81868Y153748D01*
X81750Y157461D01*
X82399Y161118D01*
X83786Y164564D01*
X85853Y167650D01*
X88511Y170244D01*
X91647Y172236D01*
X95125Y173539D01*
X98797Y174099D01*
X102505Y173891D01*
X106092Y172923D01*
X109402Y171238D01*
X112336Y168874D01*
X113587Y167497D01*
X114043Y166938D01*
X114284Y166740D01*
X114507Y166522D01*
X115803Y165675D01*
X116093Y165559D01*
X116372Y165418D01*
X117864Y165003D01*
X118175Y164979D01*
X118483Y164929D01*
X120030Y164984D01*
X120334Y165056D01*
X120643Y165102D01*
X122101Y165622D01*
X122369Y165782D01*
X122650Y165919D01*
X123883Y166856D01*
X124090Y167089D01*
X124316Y167304D01*
X125208Y168570D01*
X125335Y168855D01*
X125485Y169129D01*
X125954Y170605D01*
X125988Y170915D01*
X126049Y171221D01*
X126049Y172425D01*
X126015Y172597D01*
X126019Y172773D01*
X125873Y173619D01*
X125809Y173783D01*
X125784Y173957D01*
X125495Y174766D01*
X125405Y174917D01*
X125350Y175084D01*
X124928Y175832D01*
X124813Y175965D01*
X124731Y176120D01*
X124459Y176453D01*
X124459Y176453D01*
X122767Y178523D01*
X122627Y178638D01*
X122514Y178781D01*
X118452Y182257D01*
X118293Y182347D01*
X118157Y182467D01*
X113544Y185171D01*
X113372Y185230D01*
X113217Y185325D01*
X108198Y187170D01*
X108019Y187199D01*
X107849Y187265D01*
X102584Y188193D01*
X102402Y188189D01*
X102223Y188224D01*
D02*
G37*
G36*
X157262Y191856D02*
X155456D01*
X153787Y191165D01*
X152510Y189887D01*
X151819Y188219D01*
Y186413D01*
X152510Y184744D01*
X153787Y183467D01*
X155456Y182776D01*
X157262D01*
X158931Y183467D01*
X160208Y184744D01*
X160899Y186413D01*
Y188219D01*
X160208Y189887D01*
X158931Y191165D01*
X157262Y191856D01*
D02*
G37*
G36*
X42859Y198437D02*
X40408Y198114D01*
X38123Y197168D01*
X36162Y195663D01*
X34657Y193701D01*
X33710Y191417D01*
X33388Y188966D01*
Y184666D01*
X33710Y182214D01*
X34657Y179930D01*
X36162Y177969D01*
X38123Y176464D01*
X40408Y175517D01*
X42859Y175195D01*
X45310Y175517D01*
X47594Y176464D01*
X49556Y177969D01*
X51061Y179930D01*
X52007Y182214D01*
X52330Y184666D01*
Y188966D01*
X52007Y191417D01*
X51061Y193701D01*
X49556Y195663D01*
X47594Y197168D01*
X45310Y198114D01*
X42859Y198437D01*
D02*
G37*
G36*
X99762Y172106D02*
X97956D01*
X96287Y171415D01*
X95010Y170137D01*
X94319Y168469D01*
Y166663D01*
X95010Y164994D01*
X96287Y163717D01*
X97956Y163026D01*
X99762D01*
X101431Y163717D01*
X102708Y164994D01*
X103399Y166663D01*
Y168469D01*
X102708Y170137D01*
X101431Y171415D01*
X99762Y172106D01*
D02*
G37*
G36*
X160262Y146856D02*
X158456D01*
X156787Y146165D01*
X155510Y144887D01*
X154819Y143219D01*
Y141413D01*
X155510Y139744D01*
X156787Y138467D01*
X158456Y137776D01*
X160262D01*
X161931Y138467D01*
X163208Y139744D01*
X163899Y141413D01*
Y143219D01*
X163208Y144887D01*
X161931Y146165D01*
X160262Y146856D01*
D02*
G37*
G36*
X226810Y114740D02*
X221040D01*
Y109720D01*
X226810D01*
Y114740D01*
D02*
G37*
G36*
X176063Y114546D02*
X170294D01*
Y109276D01*
X176063D01*
Y114546D01*
D02*
G37*
G36*
X112762Y112606D02*
X110956D01*
X109287Y111915D01*
X108010Y110637D01*
X107319Y108969D01*
Y107163D01*
X108010Y105494D01*
X109287Y104217D01*
X110956Y103526D01*
X112762D01*
X114431Y104217D01*
X115708Y105494D01*
X116399Y107163D01*
Y108969D01*
X115708Y110637D01*
X114431Y111915D01*
X112762Y112606D01*
D02*
G37*
G36*
X176089Y106856D02*
X170319D01*
Y102336D01*
X176089D01*
Y106856D01*
D02*
G37*
G36*
X207149Y99796D02*
X201379D01*
Y95276D01*
X207149D01*
Y99796D01*
D02*
G37*
G36*
X176089Y99796D02*
X170319D01*
Y95276D01*
X176089D01*
Y99796D01*
D02*
G37*
G36*
X206149Y91356D02*
X194069D01*
Y90685D01*
X183399D01*
Y91356D01*
X171319D01*
Y81776D01*
X173240D01*
Y78336D01*
X173319Y77938D01*
Y76663D01*
X174010Y74994D01*
X175287Y73717D01*
X176956Y73026D01*
X178762D01*
X180431Y73717D01*
X181708Y74994D01*
X182399Y76663D01*
Y78469D01*
X181708Y80137D01*
X181478Y80367D01*
Y81776D01*
X183399D01*
Y82447D01*
X194069D01*
Y81776D01*
X206149D01*
Y91356D01*
D02*
G37*
G36*
X184859Y59088D02*
X181538Y58761D01*
X178345Y57792D01*
X175402Y56219D01*
X172822Y54102D01*
X170706Y51523D01*
X169133Y48580D01*
X168164Y45387D01*
X167837Y42066D01*
X168164Y38745D01*
X169133Y35552D01*
X170706Y32609D01*
X172822Y30029D01*
X175402Y27912D01*
X178345Y26339D01*
X181538Y25371D01*
X184859Y25044D01*
X188180Y25371D01*
X191373Y26339D01*
X194316Y27912D01*
X196895Y30029D01*
X199012Y32609D01*
X200585Y35552D01*
X201554Y38745D01*
X201881Y42066D01*
X201554Y45387D01*
X200585Y48580D01*
X199012Y51523D01*
X196895Y54102D01*
X194316Y56219D01*
X191373Y57792D01*
X188180Y58761D01*
X184859Y59088D01*
D02*
G37*
G36*
X308359Y43937D02*
X305908Y43614D01*
X303623Y42668D01*
X301662Y41163D01*
X300157Y39201D01*
X299210Y36917D01*
X298888Y34466D01*
Y30166D01*
X299210Y27714D01*
X300157Y25430D01*
X301662Y23469D01*
X303623Y21964D01*
X305908Y21017D01*
X308359Y20695D01*
X310810Y21017D01*
X313094Y21964D01*
X315056Y23469D01*
X316561Y25430D01*
X317507Y27714D01*
X317830Y30166D01*
Y34466D01*
X317507Y36917D01*
X316561Y39201D01*
X315056Y41163D01*
X313094Y42668D01*
X310810Y43614D01*
X308359Y43937D01*
D02*
G37*
G36*
X250359Y42687D02*
X247908Y42364D01*
X245623Y41418D01*
X243662Y39913D01*
X242157Y37951D01*
X241210Y35667D01*
X240888Y33216D01*
Y28916D01*
X241210Y26464D01*
X242157Y24180D01*
X243662Y22219D01*
X245623Y20714D01*
X247908Y19767D01*
X250359Y19445D01*
X252810Y19767D01*
X255094Y20714D01*
X257056Y22219D01*
X258561Y24180D01*
X259507Y26464D01*
X259830Y28916D01*
Y33216D01*
X259507Y35667D01*
X258561Y37951D01*
X257056Y39913D01*
X255094Y41418D01*
X252810Y42364D01*
X250359Y42687D01*
D02*
G37*
G36*
X147710Y328382D02*
X141879D01*
Y322819D01*
X147710D01*
Y328382D01*
D02*
G37*
G36*
X139339D02*
X133508D01*
Y322819D01*
X139339D01*
Y328382D01*
D02*
G37*
G36*
X147710Y320279D02*
X141879D01*
Y314715D01*
X147710D01*
Y320279D01*
D02*
G37*
G36*
X139339D02*
X133508D01*
Y314715D01*
X139339D01*
Y320279D01*
D02*
G37*
G36*
X686879Y263786D02*
Y259586D01*
X691079D01*
X690305Y261454D01*
X688747Y263012D01*
X686879Y263786D01*
D02*
G37*
G36*
X684339D02*
X682471Y263012D01*
X680912Y261454D01*
X680138Y259586D01*
X684339D01*
Y263786D01*
D02*
G37*
G36*
X691079Y257046D02*
X686879D01*
Y252845D01*
X688747Y253619D01*
X690305Y255178D01*
X691079Y257046D01*
D02*
G37*
G36*
X684339D02*
X680138D01*
X680912Y255178D01*
X682471Y253619D01*
X684339Y252845D01*
Y257046D01*
D02*
G37*
G36*
X80649Y273796D02*
X75379D01*
Y267776D01*
X80649D01*
Y273796D01*
D02*
G37*
G36*
X72839D02*
X67569D01*
Y267776D01*
X72839D01*
Y273796D01*
D02*
G37*
G36*
X716512Y260356D02*
X714706D01*
X713037Y259665D01*
X711760Y258387D01*
X711069Y256719D01*
Y254913D01*
X711760Y253244D01*
X713037Y251967D01*
X714706Y251276D01*
X716512D01*
X718180Y251967D01*
X719458Y253244D01*
X720149Y254913D01*
Y256719D01*
X719458Y258387D01*
X718180Y259665D01*
X716512Y260356D01*
D02*
G37*
G36*
X726089Y251356D02*
X720069D01*
Y247155D01*
X704151D01*
X703210Y246968D01*
X701839Y247536D01*
Y242066D01*
Y236595D01*
X703707Y237369D01*
X705265Y238928D01*
X706109Y240964D01*
Y241976D01*
X720069D01*
Y238276D01*
X726089D01*
Y244816D01*
Y251356D01*
D02*
G37*
G36*
X699299Y240796D02*
X695098D01*
X695872Y238928D01*
X697431Y237369D01*
X699299Y236595D01*
Y240796D01*
D02*
G37*
G36*
X720075Y185924D02*
Y181724D01*
X724276D01*
X723502Y183592D01*
X721944Y185151D01*
X720075Y185924D01*
D02*
G37*
G36*
X717535D02*
X715667Y185151D01*
X714109Y183592D01*
X713335Y181724D01*
X717535D01*
Y185924D01*
D02*
G37*
G36*
X696262Y185606D02*
X694456D01*
X692787Y184915D01*
X691510Y183637D01*
X690819Y181969D01*
Y180163D01*
X691510Y178494D01*
X692787Y177217D01*
X694456Y176526D01*
X696262D01*
X697931Y177217D01*
X699208Y178494D01*
X699899Y180163D01*
Y181969D01*
X699208Y183637D01*
X697931Y184915D01*
X696262Y185606D01*
D02*
G37*
G36*
X724276Y179184D02*
X713335D01*
X714109Y177316D01*
X715667Y175757D01*
X717046Y175186D01*
X716793Y173916D01*
X715896D01*
Y168086D01*
X721460D01*
Y173916D01*
X720818D01*
X720565Y175186D01*
X721944Y175757D01*
X723502Y177316D01*
X724276Y179184D01*
D02*
G37*
G36*
X713356Y173916D02*
X707792D01*
Y168086D01*
X713356D01*
Y173916D01*
D02*
G37*
G36*
X721460Y165546D02*
X715896D01*
Y159715D01*
X721460D01*
Y165546D01*
D02*
G37*
G36*
X713356D02*
X707792D01*
Y159715D01*
X713356D01*
Y165546D01*
D02*
G37*
G36*
X590629Y128626D02*
X585359D01*
Y122856D01*
X590629D01*
Y128626D01*
D02*
G37*
G36*
X641762Y126106D02*
X639956D01*
X638287Y125415D01*
X637010Y124137D01*
X636319Y122469D01*
Y120663D01*
X637010Y118994D01*
X638287Y117717D01*
X639956Y117026D01*
X641762D01*
X643430Y117717D01*
X644708Y118994D01*
X645399Y120663D01*
Y122469D01*
X644708Y124137D01*
X643430Y125415D01*
X641762Y126106D01*
D02*
G37*
G36*
X598439Y120316D02*
X593169D01*
Y114546D01*
X598439D01*
Y120316D01*
D02*
G37*
G36*
X590629D02*
X585359D01*
Y114546D01*
X590629D01*
Y120316D01*
D02*
G37*
G36*
X572442Y108746D02*
X570636D01*
X568967Y108055D01*
X567690Y106778D01*
X566999Y105109D01*
Y103303D01*
X567690Y101634D01*
X568967Y100357D01*
X570636Y99666D01*
X572442D01*
X574110Y100357D01*
X575387Y101634D01*
X576079Y103303D01*
Y105109D01*
X575387Y106778D01*
X574110Y108055D01*
X572442Y108746D01*
D02*
G37*
G36*
X601762Y81606D02*
X599956D01*
X598287Y80915D01*
X597010Y79637D01*
X596319Y77969D01*
Y76163D01*
X597010Y74494D01*
X598287Y73217D01*
X599956Y72526D01*
X601762D01*
X603430Y73217D01*
X604708Y74494D01*
X605399Y76163D01*
Y77969D01*
X604708Y79637D01*
X603430Y80915D01*
X601762Y81606D01*
D02*
G37*
G36*
X623859Y53838D02*
X620538Y53511D01*
X617345Y52542D01*
X614402Y50969D01*
X611823Y48852D01*
X609706Y46273D01*
X608133Y43330D01*
X607164Y40136D01*
X606837Y36816D01*
X607164Y33495D01*
X608133Y30302D01*
X609706Y27359D01*
X611823Y24779D01*
X614402Y22662D01*
X617345Y21089D01*
X620538Y20121D01*
X623859Y19794D01*
X627180Y20121D01*
X630373Y21089D01*
X633316Y22662D01*
X635895Y24779D01*
X638012Y27359D01*
X639585Y30302D01*
X640554Y33495D01*
X640881Y36816D01*
X640554Y40136D01*
X639585Y43330D01*
X638012Y46273D01*
X635895Y48852D01*
X633316Y50969D01*
X630373Y52542D01*
X627180Y53511D01*
X623859Y53838D01*
D02*
G37*
G36*
X347553Y133571D02*
X341783D01*
Y128301D01*
X347553D01*
Y133571D01*
D02*
G37*
G36*
X339243D02*
X333473D01*
Y128301D01*
X339243D01*
Y133571D01*
D02*
G37*
G36*
X327399Y133356D02*
X321629D01*
Y128086D01*
X327399D01*
Y133356D01*
D02*
G37*
G36*
X319089D02*
X313319D01*
Y128086D01*
X319089D01*
Y133356D01*
D02*
G37*
G36*
X292629Y134856D02*
Y127086D01*
X302899D01*
Y134856D01*
X292629D01*
D02*
G37*
G36*
X347553Y125761D02*
X341783D01*
Y120491D01*
X347553D01*
Y125761D01*
D02*
G37*
G36*
X339243D02*
X333473D01*
Y120491D01*
X339243D01*
Y125761D01*
D02*
G37*
G36*
X327399Y125546D02*
X321629D01*
Y120276D01*
X327399D01*
Y125546D01*
D02*
G37*
G36*
X319089D02*
X313319D01*
Y120276D01*
X319089D01*
Y125546D01*
D02*
G37*
G36*
X375629Y135768D02*
X373270Y135458D01*
X371071Y134547D01*
X369182Y133098D01*
X367733Y131209D01*
X366822Y129010D01*
X366511Y126650D01*
Y126410D01*
X366822Y124051D01*
X367733Y121851D01*
X369182Y119963D01*
X371071Y118514D01*
X373270Y117603D01*
X375629Y117292D01*
X377989Y117603D01*
X380188Y118514D01*
X382077Y119963D01*
X383526Y121851D01*
X384437Y124051D01*
X384747Y126410D01*
Y126650D01*
X384437Y129010D01*
X383526Y131209D01*
X382077Y133098D01*
X380188Y134547D01*
X377989Y135458D01*
X375629Y135768D01*
D02*
G37*
G36*
X302899Y124546D02*
X292629D01*
Y116776D01*
X302899D01*
Y124546D01*
D02*
G37*
G36*
X411005Y125260D02*
X402299D01*
Y116451D01*
X403650Y116629D01*
X406093Y117640D01*
X408190Y119250D01*
X409799Y121347D01*
X410811Y123790D01*
X411005Y125260D01*
D02*
G37*
G36*
X399759D02*
X391054D01*
X391248Y123790D01*
X392259Y121347D01*
X393869Y119250D01*
X395966Y117640D01*
X398409Y116629D01*
X399759Y116451D01*
Y125260D01*
D02*
G37*
G36*
X346553Y117571D02*
X334473D01*
Y116082D01*
X326399D01*
Y117356D01*
X314319D01*
Y106276D01*
X326399D01*
Y107844D01*
X334473D01*
Y106491D01*
X346553D01*
Y108788D01*
X350720D01*
X351736Y108368D01*
X353542D01*
X355211Y109059D01*
X356488Y110336D01*
X357179Y112004D01*
Y113811D01*
X356488Y115479D01*
X355211Y116756D01*
X353542Y117448D01*
X351736D01*
X350720Y117027D01*
X346553D01*
Y117571D01*
D02*
G37*
G36*
X414999Y111210D02*
Y102401D01*
X423705D01*
X423511Y103871D01*
X422499Y106314D01*
X420890Y108411D01*
X418793Y110020D01*
X416350Y111032D01*
X414999Y111210D01*
D02*
G37*
G36*
X412459D02*
X411109Y111032D01*
X408666Y110020D01*
X406569Y108411D01*
X404959Y106314D01*
X403948Y103871D01*
X403754Y102401D01*
X412459D01*
Y111210D01*
D02*
G37*
G36*
X388329Y110368D02*
X385970Y110058D01*
X383770Y109147D01*
X381882Y107698D01*
X380433Y105809D01*
X379522Y103610D01*
X379212Y101250D01*
Y101010D01*
X379522Y98651D01*
X380433Y96451D01*
X381882Y94563D01*
X383770Y93114D01*
X385970Y92203D01*
X388329Y91892D01*
X390689Y92203D01*
X392888Y93114D01*
X394777Y94563D01*
X396226Y96451D01*
X397137Y98651D01*
X397447Y101010D01*
Y101250D01*
X397137Y103610D01*
X396226Y105809D01*
X394777Y107698D01*
X392888Y109147D01*
X390689Y110058D01*
X388329Y110368D01*
D02*
G37*
G36*
X423705Y99860D02*
X414999D01*
Y91051D01*
X416350Y91229D01*
X418793Y92240D01*
X420890Y93850D01*
X422499Y95947D01*
X423511Y98390D01*
X423705Y99860D01*
D02*
G37*
G36*
X437859D02*
X429154D01*
X429348Y98390D01*
X430359Y95947D01*
X431969Y93850D01*
X434066Y92240D01*
X436508Y91229D01*
X437859Y91051D01*
Y99860D01*
D02*
G37*
G36*
X412459D02*
X403754D01*
X403948Y98390D01*
X404959Y95947D01*
X406569Y93850D01*
X408666Y92240D01*
X411109Y91229D01*
X412459Y91051D01*
Y99860D01*
D02*
G37*
%LPD*%
D10*
X715626Y145316D02*
X736830D01*
X636109Y288816D02*
X636609Y289316D01*
X636109Y275816D02*
Y288816D01*
X645020Y247760D02*
Y259655D01*
X636109Y268566D02*
X645020Y259655D01*
X636109Y268566D02*
Y275816D01*
D13*
X320506Y111963D02*
X341331D01*
X177359Y78336D02*
Y86566D01*
Y78336D02*
X177859Y77836D01*
Y77566D02*
Y77836D01*
X177359Y101066D02*
X200109D01*
X177359Y86566D02*
X200109D01*
X251384Y131321D02*
X255109Y127596D01*
X219959Y131321D02*
X251384D01*
X198577Y131534D02*
X219746D01*
X197963Y130920D02*
X198359Y131316D01*
X177334Y130816D02*
X177438Y130920D01*
X197963D01*
X294760Y126937D02*
X337738D01*
X340867Y112907D02*
X352639D01*
X294139Y90285D02*
X295109Y89316D01*
X255109Y92036D02*
X256859Y90285D01*
X294139D01*
X198686Y116010D02*
X219770D01*
X178109D02*
X198686D01*
X198859Y101316D02*
Y115837D01*
D14*
X60109Y132566D02*
X181109Y11566D01*
X638359D01*
X60109Y132566D02*
Y182816D01*
X184191Y217316D02*
X186073Y219198D01*
X183109Y217316D02*
X184191D01*
X186073Y219198D02*
X198800D01*
X617908Y147517D02*
X626908D01*
X614359Y151066D02*
X617908Y147517D01*
X602714Y165316D02*
X608359D01*
X614359Y159316D01*
Y151066D02*
Y159316D01*
X602020Y166010D02*
X602714Y165316D01*
X642359Y147066D02*
X643859Y148566D01*
X627359Y147066D02*
X642359D01*
X626908Y147517D02*
X627359Y147066D01*
X653020Y205510D02*
X664915D01*
X678270Y177655D02*
Y192155D01*
X664915Y205510D02*
X678270Y192155D01*
X716080Y209536D02*
X716859Y210316D01*
X695155Y209536D02*
X716080D01*
X694109Y210583D02*
X695155Y209536D01*
X716859Y228316D02*
X719859Y231316D01*
X716859Y210316D02*
Y228316D01*
X727359Y231316D02*
X742259D01*
X320359Y111816D02*
X321120Y112577D01*
X645454Y159970D02*
X650437D01*
X663092Y147049D02*
X663359D01*
X659798Y150342D02*
X663092Y147049D01*
X650437Y159970D02*
X659798Y150609D01*
X642859Y162566D02*
X645454Y159970D01*
X659798Y150342D02*
Y150609D01*
X442687Y428760D02*
X443859Y427588D01*
X437270Y428760D02*
X442687D01*
X443859Y228316D02*
Y427588D01*
X437270Y428760D02*
Y456260D01*
X231609Y263816D02*
X233359Y262065D01*
Y248815D02*
Y262065D01*
Y248815D02*
X234775Y247399D01*
X602192Y172649D02*
X621303Y191760D01*
X625520D01*
X602192Y166699D02*
Y172649D01*
X719859Y231316D02*
X727359D01*
X742259D02*
X753609Y242666D01*
X694553Y247760D02*
X706359Y259566D01*
Y269032D01*
X436520Y351010D02*
Y378510D01*
X412415Y460510D02*
X416270D01*
X402859Y469566D02*
X403359D01*
X412415Y460510D01*
X416270D02*
X417739Y459041D01*
Y456791D02*
Y459041D01*
X433109Y517566D02*
X434359Y516316D01*
X433109Y517566D02*
Y556816D01*
X570359Y210066D02*
Y243566D01*
Y210066D02*
X585359Y195066D01*
X162699Y295726D02*
Y325476D01*
X60109Y182816D02*
X85609Y208316D01*
X137359D01*
X196152Y290772D02*
X208135D01*
X192859Y294066D02*
X196152Y290772D01*
X179359Y294066D02*
X192859D01*
X208135Y290772D02*
X208342Y290566D01*
X207359Y263566D02*
X218609D01*
X223876Y278583D02*
Y290566D01*
X219601Y274308D02*
X223876Y278583D01*
X142609Y244566D02*
X143109Y244066D01*
X129359Y244566D02*
X142609D01*
X101109Y275816D02*
X106359Y281066D01*
X101109Y255816D02*
Y275816D01*
X78359Y233816D02*
Y240316D01*
X82609Y244566D01*
X112359D01*
X101109Y255816D02*
X112359Y244566D01*
X69859Y318316D02*
Y320316D01*
X106359Y281066D02*
X123359D01*
X87359Y284566D02*
X87609Y284316D01*
X87376Y274833D02*
X87609Y275066D01*
X87665Y257505D02*
X88804Y258644D01*
X123072Y280779D02*
X123359Y281066D01*
X151092Y337083D02*
X162699Y325476D01*
Y295726D02*
X170625Y287799D01*
X179125D02*
X179359Y287566D01*
X170625Y287799D02*
X179125D01*
X233604Y234732D02*
X234775Y235904D01*
X198800Y234732D02*
X233604D01*
X234775Y235904D02*
Y247399D01*
X219601Y264808D02*
Y274308D01*
X218609Y263816D02*
X219601Y264808D01*
X218609Y263566D02*
Y263816D01*
Y248066D02*
Y263566D01*
X185675Y234732D02*
X198800D01*
X178859Y241549D02*
X185675Y234732D01*
X394609Y461316D02*
X402859Y469566D01*
X394609Y412816D02*
Y461316D01*
Y412816D02*
X401109Y406316D01*
Y393921D02*
Y406316D01*
Y393921D02*
X401770Y393260D01*
X418270Y436260D02*
X427609Y445599D01*
X421520Y471760D02*
X427609Y465671D01*
Y445599D02*
Y465671D01*
X398609Y181316D02*
X399109Y181816D01*
Y326566D01*
X507859Y94566D02*
X534609D01*
X443859Y158566D02*
X507859Y94566D01*
X596484Y86691D02*
X625484D01*
X625859Y86316D01*
X596109Y87066D02*
X596484Y86691D01*
X443859Y158566D02*
Y228316D01*
X443609Y228566D02*
X443859Y228316D01*
X427359Y228566D02*
X443609D01*
X670359Y100816D02*
X717359D01*
X719359Y98816D01*
X669859Y101316D02*
X670359Y100816D01*
X401859Y364816D02*
Y378816D01*
X402165Y378510D01*
X417520D01*
X401859Y378816D02*
Y393171D01*
X401770Y393260D02*
X401859Y393171D01*
X399109Y362066D02*
X401859Y364816D01*
X399109Y326566D02*
Y362066D01*
X414109Y282566D02*
Y326566D01*
X417109Y350599D02*
X417520Y351010D01*
X421520Y471760D02*
Y511227D01*
X426609Y516316D02*
X434359D01*
X421520Y511227D02*
X426609Y516316D01*
X406359Y59066D02*
X406409Y59116D01*
Y71066D01*
X704151Y244566D02*
X728126D01*
X638359Y11566D02*
X692109Y65316D01*
X614124Y75331D02*
X620109Y81316D01*
X611859Y74566D02*
X612624Y75331D01*
X614124D01*
X620109Y81316D02*
X625859D01*
X692109Y65316D02*
Y89566D01*
X685359Y96316D02*
X692109Y89566D01*
X669859Y96316D02*
X685359D01*
X179359Y268066D02*
X202859D01*
X207359Y263566D01*
X700569Y242066D02*
X701651D01*
X704151Y244566D01*
X678270Y177655D02*
X689109Y166816D01*
X699092D01*
X669859Y101316D02*
Y107566D01*
X611359Y132066D02*
X645359D01*
X669859Y107566D01*
X602020Y141404D02*
X611359Y132066D01*
X602020Y141404D02*
Y150993D01*
X607859Y120316D02*
X628109D01*
X638915Y109510D01*
X140609Y337083D02*
X151092D01*
X114609Y321816D02*
X129876Y337083D01*
X140609D01*
X103359Y321816D02*
X114609D01*
X179359Y294066D02*
Y300566D01*
X178859Y261066D02*
X179359Y261566D01*
X178859Y241549D02*
Y261066D01*
X625859Y91316D02*
X635609D01*
X638915Y94622D01*
Y109510D01*
X662359Y162333D02*
X664520Y164494D01*
X627359Y162566D02*
X642859D01*
X627359D02*
X628609Y163816D01*
Y170066D01*
X632020Y173477D02*
Y191760D01*
X628609Y170066D02*
X632020Y173477D01*
Y191760D02*
X632264Y191516D01*
X664520Y164494D02*
Y191760D01*
X753609Y242666D02*
Y244816D01*
X694109Y210583D02*
Y230816D01*
X690165Y234760D02*
X694109Y230816D01*
X738475Y269032D02*
X753309Y283866D01*
X706359Y269032D02*
X738475D01*
X755115Y282060D02*
X758915Y278260D01*
X664520Y247760D02*
X694553D01*
X706359Y284566D02*
X706626D01*
X651109Y275816D02*
Y276316D01*
X658020Y191760D02*
X664520D01*
X651270Y194760D02*
Y203760D01*
X653020Y205510D01*
X414809Y71066D02*
Y85016D01*
X418270Y428760D02*
Y436260D01*
X658020Y239260D02*
Y247760D01*
Y239260D02*
X662520Y234760D01*
X690165D01*
D16*
X198800Y234215D02*
D03*
Y219715D02*
D03*
X602020Y166010D02*
D03*
Y151510D02*
D03*
X663359Y162066D02*
D03*
Y147566D02*
D03*
X706359Y269549D02*
D03*
Y284049D02*
D03*
X694109Y195566D02*
D03*
Y210066D02*
D03*
X200109Y86566D02*
D03*
Y101066D02*
D03*
X177359Y86566D02*
D03*
Y101066D02*
D03*
X434359Y515066D02*
D03*
Y500566D02*
D03*
X681359Y289566D02*
D03*
Y275066D02*
D03*
D17*
X208859Y290566D02*
D03*
X223359D02*
D03*
X79109Y299316D02*
D03*
X64609D02*
D03*
X72648Y257505D02*
D03*
X87148D02*
D03*
X113609Y244566D02*
D03*
X128109D02*
D03*
D18*
X177334Y115816D02*
D03*
Y130816D02*
D03*
X340513Y112031D02*
D03*
Y127031D02*
D03*
X51359Y273816D02*
D03*
Y258816D02*
D03*
X716667Y210316D02*
D03*
Y195316D02*
D03*
X198359Y116316D02*
D03*
Y131316D02*
D03*
X320359Y111816D02*
D03*
Y126816D02*
D03*
X402859Y484566D02*
D03*
Y469566D02*
D03*
D19*
X416770Y393260D02*
D03*
X401770D02*
D03*
X591899Y121586D02*
D03*
X606899D02*
D03*
X93359Y233816D02*
D03*
X78359D02*
D03*
X651109Y275816D02*
D03*
X636109D02*
D03*
D20*
X218609Y248066D02*
D03*
X234109D02*
D03*
D21*
X123359Y300566D02*
D03*
Y294066D02*
D03*
Y287566D02*
D03*
Y281066D02*
D03*
Y274566D02*
D03*
Y268066D02*
D03*
Y261566D02*
D03*
X179359Y300566D02*
D03*
Y294066D02*
D03*
Y287566D02*
D03*
Y281066D02*
D03*
Y274566D02*
D03*
Y268066D02*
D03*
Y261566D02*
D03*
D22*
X291359Y91816D02*
D03*
Y125816D02*
D03*
D23*
X664520Y247760D02*
D03*
X658020D02*
D03*
X651520D02*
D03*
X645020D02*
D03*
X638520D02*
D03*
X632020D02*
D03*
X625520D02*
D03*
X664520Y191760D02*
D03*
X658020D02*
D03*
X651520D02*
D03*
X645020D02*
D03*
X638520D02*
D03*
X632020D02*
D03*
X625520D02*
D03*
D24*
X406409Y71066D02*
D03*
X414809D02*
D03*
D25*
X625859Y81316D02*
D03*
Y86316D02*
D03*
Y91316D02*
D03*
Y96316D02*
D03*
Y101316D02*
D03*
X669859D02*
D03*
Y96316D02*
D03*
Y91316D02*
D03*
Y86316D02*
D03*
Y81316D02*
D03*
D26*
X74109Y275066D02*
D03*
X87609D02*
D03*
X231609Y263816D02*
D03*
X218609D02*
D03*
D27*
X727359Y244816D02*
D03*
Y231316D02*
D03*
X643859Y148566D02*
D03*
Y161566D02*
D03*
D28*
X201859Y184816D02*
D03*
X182359D02*
D03*
D29*
X589109Y221066D02*
D03*
Y240566D02*
D03*
D30*
X418270Y428760D02*
D03*
X427770D02*
D03*
X437270D02*
D03*
Y456260D02*
D03*
X418270D02*
D03*
X417520Y351010D02*
D03*
X427020D02*
D03*
X436520D02*
D03*
Y378510D02*
D03*
X417520D02*
D03*
D31*
X805609Y270316D02*
D03*
X781609Y260816D02*
D03*
Y279816D02*
D03*
D32*
X399109Y326566D02*
D03*
X414109D02*
D03*
D33*
X255109Y127596D02*
D03*
Y92036D02*
D03*
D34*
X219770Y131510D02*
D03*
Y116010D02*
D03*
X627359Y147066D02*
D03*
Y162566D02*
D03*
D35*
X414109Y282566D02*
D03*
X433109D02*
D03*
X423609Y308566D02*
D03*
D36*
X27020Y733260D02*
D03*
Y741760D02*
D03*
D37*
X699092Y166816D02*
D03*
X714626D02*
D03*
X715626Y145316D02*
D03*
X700092D02*
D03*
D38*
X140609Y337083D02*
D03*
Y321549D02*
D03*
X103359Y337350D02*
D03*
Y321816D02*
D03*
D39*
X60359Y342316D02*
D03*
X69859Y318316D02*
D03*
X50859D02*
D03*
D57*
X688331Y313200D02*
D03*
X719359Y98816D02*
D03*
D62*
X250359Y31066D02*
D03*
X753609Y244816D02*
D03*
X753309Y283866D02*
D03*
X427359Y228566D02*
D03*
X42859Y186816D02*
D03*
X259859Y209566D02*
D03*
X308359Y32316D02*
D03*
X798109Y396066D02*
D03*
D64*
X791359Y610566D02*
D03*
X623859Y36816D02*
D03*
X184859Y42066D02*
D03*
D65*
X647326Y216566D02*
X664359D01*
X685359Y195566D02*
X694109D01*
X664359Y216566D02*
X685359Y195566D01*
X694109D02*
X694359Y195316D01*
X716667Y194796D02*
X732089D01*
X694359Y195316D02*
X716667D01*
X586859Y220066D02*
X622714D01*
X52670Y257505D02*
X72648D01*
X51359Y258816D02*
X52670Y257505D01*
X87376Y261205D02*
Y274833D01*
X64366Y299558D02*
X64609Y299316D01*
X50859Y307316D02*
X58616Y299558D01*
X64366D01*
X50859Y307316D02*
Y318316D01*
X664109Y273066D02*
X683196D01*
X651359Y254316D02*
Y260316D01*
X664109Y273066D01*
X143109Y216316D02*
Y223066D01*
Y216316D02*
X174609Y184816D01*
X182359D01*
X143109Y223066D02*
Y244066D01*
X781609Y244316D02*
Y260816D01*
X732089Y194796D02*
X781609Y244316D01*
X642803Y310010D02*
X685141D01*
X131109Y309066D02*
X165609Y274566D01*
X165609D02*
X179359D01*
X90609Y309066D02*
X131109D01*
X143109Y244066D02*
Y280682D01*
X59359Y233816D02*
X78359D01*
X40359Y223066D02*
X143109D01*
X15359Y248066D02*
X40359Y223066D01*
X29109Y264066D02*
X59359Y233816D01*
X40475Y270660D02*
Y320432D01*
Y270660D02*
X51069Y260066D01*
X40475Y320432D02*
X49359Y329316D01*
X60859D02*
X69859Y320316D01*
X49359Y329316D02*
X60859D01*
X15359Y248066D02*
Y333316D01*
X53609Y284566D02*
X87359D01*
X51359Y282316D02*
X53609Y284566D01*
X51359Y272586D02*
Y282316D01*
X87376Y260066D02*
Y261205D01*
X87609Y284316D02*
X97359Y294066D01*
X123359D01*
X87609Y275066D02*
Y284316D01*
X79376Y297772D02*
X82170Y300566D01*
X79376Y297566D02*
Y297772D01*
X82170Y300566D02*
X123359D01*
X43359Y361316D02*
Y658671D01*
X15359Y333316D02*
X43359Y361316D01*
X136225Y287566D02*
X143109Y280682D01*
X123359Y287566D02*
X136225D01*
X201859Y184816D02*
Y197066D01*
X193859Y205066D02*
X201859Y197066D01*
X157859Y226316D02*
X179109Y205066D01*
X157859Y226316D02*
Y266816D01*
X179109Y205066D02*
X193859D01*
X157859Y266816D02*
X165609Y274566D01*
X29109Y264066D02*
Y324066D01*
X47359Y342316D01*
X60359D01*
X85359D01*
X27033Y674997D02*
X43359Y658671D01*
X69859Y318316D02*
X81359D01*
X90609Y309066D01*
X26818Y733058D02*
X27020Y733260D01*
X27033Y674997D02*
Y733010D01*
X622714Y220066D02*
X636770Y206010D01*
X589109Y240566D02*
X595915Y233760D01*
X589109Y240566D02*
Y256316D01*
X781609Y279816D02*
Y297566D01*
X772109Y307066D02*
X781609Y297566D01*
X706359Y291816D02*
X721609Y307066D01*
X772109D01*
X706359Y284566D02*
Y291816D01*
X636770Y206010D02*
X647326Y216566D01*
X589109Y256316D02*
X642803Y310010D01*
X651520Y247760D02*
Y248525D01*
Y236260D02*
Y247760D01*
X27014Y741766D02*
Y750754D01*
X651520Y247760D02*
X651539Y247779D01*
X638461Y191819D02*
Y204319D01*
X636770Y206010D02*
X638461Y204319D01*
X649020Y233760D02*
X651520Y236260D01*
X595915Y233760D02*
X649020D01*
D66*
X259859Y203816D02*
Y209566D01*
X580919Y99626D02*
X582609Y101316D01*
X580609Y94316D02*
X580919Y94626D01*
Y99626D01*
X582609Y101316D02*
X625859D01*
D67*
X688331Y313200D02*
X691520Y316389D01*
Y316073D02*
Y316389D01*
X685141Y310010D02*
X688331Y313200D01*
D68*
X558799Y143626D02*
X585359D01*
X558359Y144066D02*
X558799Y143626D01*
X585359D02*
X606899Y122086D01*
X431359Y397106D02*
X436520Y391945D01*
Y378510D02*
Y391945D01*
X431359Y397106D02*
Y398316D01*
Y398493D01*
X414109Y326566D02*
Y336066D01*
X417520Y339477D02*
Y351010D01*
X414109Y336066D02*
X417520Y339477D01*
X625859Y81316D02*
X669859D01*
X140609Y321549D02*
X140876D01*
X606899Y121586D02*
Y122086D01*
X699592Y149066D02*
Y166316D01*
X699092Y166816D02*
X699592Y166316D01*
D69*
X198686Y116010D02*
X198859Y115837D01*
X219770Y116010D02*
X219770Y116010D01*
D70*
X27014Y741766D02*
X27020Y741760D01*
X27014Y750754D02*
X27270Y751010D01*
D71*
X433109Y556816D02*
D03*
X408109Y556721D02*
D03*
D72*
X341829Y65131D02*
D03*
X498330D02*
D03*
D73*
X413729Y101131D02*
D03*
X451829Y126531D02*
D03*
X426429D02*
D03*
X401029D02*
D03*
X375629D02*
D03*
X464529Y101131D02*
D03*
X439129D02*
D03*
X388329D02*
D03*
D74*
X362929Y37631D02*
D03*
X477229D02*
D03*
D75*
X111859Y108066D02*
D03*
X98859Y167566D02*
D03*
X177859Y77566D02*
D03*
X352639Y112907D02*
D03*
X611859Y74566D02*
D03*
X571539Y104206D02*
D03*
X159359Y142316D02*
D03*
X201258Y277394D02*
D03*
X252609Y272066D02*
D03*
X585359Y195066D02*
D03*
X570359Y243566D02*
D03*
X175109Y319316D02*
D03*
X137359Y208316D02*
D03*
X156359Y187316D02*
D03*
X240609Y142816D02*
D03*
X640859Y121566D02*
D03*
X526359Y129566D02*
D03*
X487109Y133316D02*
D03*
X715609Y255816D02*
D03*
X616859Y264066D02*
D03*
X695359Y181066D02*
D03*
X148758Y308144D02*
D03*
X117528Y232976D02*
D03*
X120028Y214726D02*
D03*
X62109Y274816D02*
D03*
X183109Y217316D02*
D03*
X436609Y118066D02*
D03*
X543859Y104316D02*
D03*
X396609Y500816D02*
D03*
X431359Y398316D02*
D03*
X433859Y483566D02*
D03*
X419859Y255566D02*
D03*
X431678Y411043D02*
D03*
X432609Y328066D02*
D03*
X534609Y94566D02*
D03*
X596109Y87066D02*
D03*
X580609Y94316D02*
D03*
X413109Y162316D02*
D03*
X406359Y59066D02*
D03*
X575109Y131816D02*
D03*
X600859Y77066D02*
D03*
X176609Y225816D02*
D03*
X700569Y242066D02*
D03*
X718805Y180454D02*
D03*
X685609Y258316D02*
D03*
X767140Y749252D02*
D03*
X412109Y364316D02*
D03*
X27270Y751010D02*
D03*
M02*
