G04*
G04 #@! TF.GenerationSoftware,Altium Limited,Altium Designer,24.0.1 (36)*
G04*
G04 Layer_Color=128*
%FSLAX44Y44*%
%MOMM*%
G71*
G04*
G04 #@! TF.SameCoordinates,3C6FB229-8EB3-43CD-B7CA-B0B301390D20*
G04*
G04*
G04 #@! TF.FilePolarity,Positive*
G04*
G01*
G75*
%ADD93C,0.1270*%
D93*
X683231Y313200D02*
X693430D01*
X688331Y308099D02*
Y318300D01*
X430359Y556816D02*
X435859D01*
X433109Y554066D02*
Y559566D01*
X405359Y556721D02*
X410859D01*
X408109Y553971D02*
Y559471D01*
X336829Y65131D02*
X346829D01*
X341829Y60131D02*
Y70130D01*
X493330Y65131D02*
X503329D01*
X498330Y60131D02*
Y70130D01*
X409230Y101131D02*
X418229D01*
X413729Y96630D02*
Y105630D01*
X447329Y126531D02*
X456329D01*
X451829Y122030D02*
Y131030D01*
X421930Y126531D02*
X430929D01*
X426429Y122030D02*
Y131030D01*
X396530Y126531D02*
X405529D01*
X401029Y122030D02*
Y131030D01*
X371129Y126531D02*
X380129D01*
X375629Y122030D02*
Y131030D01*
X460029Y101131D02*
X469029D01*
X464529Y96630D02*
Y105630D01*
X434630Y101131D02*
X443629D01*
X439129Y96630D02*
Y105630D01*
X383829Y101131D02*
X392829D01*
X388329Y96630D02*
Y105630D01*
X346429Y37631D02*
X379429D01*
X362929Y21130D02*
Y54130D01*
X460729Y37631D02*
X493729D01*
X477229Y21130D02*
Y54130D01*
X245259Y31066D02*
X255459D01*
X250359Y25966D02*
Y36166D01*
X714259Y98816D02*
X724459D01*
X719359Y93716D02*
Y103916D01*
X748509Y244816D02*
X758709D01*
X753609Y239716D02*
Y249916D01*
X748209Y283866D02*
X758409D01*
X753309Y278766D02*
Y288966D01*
X422259Y228566D02*
X432459D01*
X427359Y223466D02*
Y233666D01*
X37759Y186816D02*
X47959D01*
X42859Y181716D02*
Y191916D01*
X254759Y209566D02*
X264959D01*
X259859Y204466D02*
Y214666D01*
X303259Y32316D02*
X313459D01*
X308359Y27216D02*
Y37416D01*
X793009Y396066D02*
X803209D01*
X798109Y390966D02*
Y401166D01*
X110859Y108066D02*
X112859D01*
X111859Y107066D02*
Y109066D01*
X97859Y167566D02*
X99859D01*
X98859Y166566D02*
Y168566D01*
X176859Y77566D02*
X178859D01*
X177859Y76566D02*
Y78566D01*
X351639Y112907D02*
X353639D01*
X352639Y111908D02*
Y113907D01*
X610859Y74566D02*
X612859D01*
X611859Y73566D02*
Y75566D01*
X570539Y104206D02*
X572539D01*
X571539Y103206D02*
Y105206D01*
X158359Y142316D02*
X160359D01*
X159359Y141316D02*
Y143316D01*
X200258Y277394D02*
X202258D01*
X201258Y276394D02*
Y278394D01*
X251609Y272066D02*
X253609D01*
X252609Y271066D02*
Y273066D01*
X584359Y195066D02*
X586359D01*
X585359Y194066D02*
Y196066D01*
X569359Y243566D02*
X571359D01*
X570359Y242566D02*
Y244566D01*
X174109Y319316D02*
X176109D01*
X175109Y318316D02*
Y320316D01*
X136359Y208316D02*
X138359D01*
X137359Y207316D02*
Y209316D01*
X155359Y187316D02*
X157359D01*
X156359Y186316D02*
Y188316D01*
X239609Y142816D02*
X241609D01*
X240609Y141816D02*
Y143816D01*
X639859Y121566D02*
X641859D01*
X640859Y120566D02*
Y122566D01*
X525359Y129566D02*
X527359D01*
X526359Y128566D02*
Y130566D01*
X486109Y133316D02*
X488109D01*
X487109Y132316D02*
Y134316D01*
X714609Y255816D02*
X716609D01*
X715609Y254816D02*
Y256816D01*
X615859Y264066D02*
X617859D01*
X616859Y263066D02*
Y265066D01*
X694359Y181066D02*
X696359D01*
X695359Y180066D02*
Y182066D01*
X147758Y308144D02*
X149758D01*
X148758Y307144D02*
Y309144D01*
X116528Y232976D02*
X118528D01*
X117528Y231976D02*
Y233976D01*
X119028Y214726D02*
X121028D01*
X120028Y213726D02*
Y215726D01*
X61109Y274816D02*
X63109D01*
X62109Y273816D02*
Y275816D01*
X182109Y217316D02*
X184109D01*
X183109Y216316D02*
Y218316D01*
X435334Y118066D02*
X437884D01*
X436609Y116791D02*
Y119341D01*
X542859Y104316D02*
X544859D01*
X543859Y103316D02*
Y105316D01*
X395334Y500816D02*
X397884D01*
X396609Y499541D02*
Y502091D01*
X430084Y398316D02*
X432634D01*
X431359Y397041D02*
Y399591D01*
X432584Y483566D02*
X435134D01*
X433859Y482291D02*
Y484841D01*
X418584Y255566D02*
X421134D01*
X419859Y254291D02*
Y256841D01*
X430403Y411043D02*
X432953D01*
X431678Y409768D02*
Y412318D01*
X431334Y328066D02*
X433884D01*
X432609Y326791D02*
Y329341D01*
X533609Y94566D02*
X535609D01*
X534609Y93566D02*
Y95566D01*
X595109Y87066D02*
X597109D01*
X596109Y86066D02*
Y88066D01*
X579609Y94316D02*
X581609D01*
X580609Y93316D02*
Y95316D01*
X412109Y162316D02*
X414109D01*
X413109Y161316D02*
Y163316D01*
X405359Y59066D02*
X407359D01*
X406359Y58066D02*
Y60066D01*
X574109Y131816D02*
X576109D01*
X575109Y130816D02*
Y132816D01*
X599859Y77066D02*
X601859D01*
X600859Y76066D02*
Y78066D01*
X175609Y225816D02*
X177609D01*
X176609Y224816D02*
Y226816D01*
X699294Y242066D02*
X701844D01*
X700569Y240791D02*
Y243341D01*
X717530Y180454D02*
X720080D01*
X718805Y179179D02*
Y181729D01*
X684334Y258316D02*
X686884D01*
X685609Y257041D02*
Y259591D01*
X765865Y749252D02*
X768415D01*
X767140Y747977D02*
Y750527D01*
X410834Y364316D02*
X413384D01*
X412109Y363041D02*
Y365591D01*
X25995Y751010D02*
X28545D01*
X27270Y749735D02*
Y752285D01*
M02*
