G04*
G04 #@! TF.GenerationSoftware,Altium Limited,Altium Designer,24.0.1 (36)*
G04*
G04 Layer_Color=32896*
%FSLAX44Y44*%
%MOMM*%
G71*
G04*
G04 #@! TF.SameCoordinates,3C6FB229-8EB3-43CD-B7CA-B0B301390D20*
G04*
G04*
G04 #@! TF.FilePolarity,Positive*
G04*
G01*
G75*
%ADD10C,0.2500*%
%ADD11C,0.6000*%
%ADD12C,0.1000*%
%ADD14C,0.2000*%
%ADD15C,0.1500*%
%ADD70C,0.2540*%
G36*
X783639Y624151D02*
X815234D01*
Y492480D01*
X783639D01*
Y492480D01*
X765984D01*
Y624151D01*
X783639D01*
Y624151D01*
D02*
G37*
%LPC*%
G36*
X807376Y598401D02*
X797621D01*
Y594651D01*
X797635Y594397D01*
X797649Y594115D01*
X797677Y593833D01*
X797719Y593551D01*
X797762Y593312D01*
Y593297D01*
X797776Y593269D01*
Y593227D01*
X797804Y593171D01*
X797846Y593016D01*
X797917Y592818D01*
X798015Y592593D01*
X798142Y592353D01*
X798283Y592113D01*
X798466Y591888D01*
X798481Y591874D01*
X798495Y591860D01*
X798537Y591817D01*
X798579Y591761D01*
X798720Y591620D01*
X798917Y591451D01*
X799157Y591268D01*
X799439Y591070D01*
X799763Y590887D01*
X800130Y590732D01*
X800144D01*
X800172Y590718D01*
X800229Y590690D01*
X800313Y590675D01*
X800412Y590633D01*
X800525Y590605D01*
X800651Y590577D01*
X800807Y590534D01*
X800962Y590492D01*
X801145Y590464D01*
X801540Y590393D01*
X801977Y590351D01*
X802456Y590337D01*
X797621D01*
X807376D01*
Y598401D01*
D02*
G37*
G36*
X783470Y591352D02*
D01*
Y587574D01*
X773715Y591352D01*
Y589942D01*
X780806Y587405D01*
X780820D01*
X780848Y587391D01*
X780890Y587377D01*
X780947Y587349D01*
X781031Y587334D01*
X781116Y587306D01*
X781327Y587236D01*
X781567Y587151D01*
X781835Y587067D01*
X782399Y586897D01*
X782385D01*
X782356Y586883D01*
X782314Y586869D01*
X782258Y586855D01*
X782103Y586813D01*
X781891Y586742D01*
X781652Y586672D01*
X781384Y586587D01*
X781102Y586489D01*
X780806Y586376D01*
X773715Y583726D01*
Y582415D01*
X783470Y586221D01*
Y582415D01*
X773715D01*
X783470D01*
Y591352D01*
D02*
G37*
G36*
X807531Y589125D02*
D01*
Y586827D01*
X807517Y586912D01*
Y587010D01*
X807503Y587123D01*
X807460Y587377D01*
X807390Y587659D01*
X807291Y587969D01*
X807150Y588251D01*
X806967Y588504D01*
X806939Y588533D01*
X806868Y588603D01*
X806741Y588702D01*
X806572Y588815D01*
X806361Y588927D01*
X806121Y589026D01*
X805825Y589096D01*
X805684Y589111D01*
X805515Y589125D01*
X807531D01*
X800144D01*
X805430D01*
X805332Y589111D01*
X805205Y589096D01*
X805050Y589068D01*
X804895Y589026D01*
X804725Y588970D01*
X804570Y588899D01*
X804556Y588885D01*
X804500Y588857D01*
X804415Y588801D01*
X804317Y588730D01*
X804204Y588645D01*
X804091Y588533D01*
X803978Y588420D01*
X803880Y588279D01*
X803866Y588265D01*
X803837Y588208D01*
X803781Y588138D01*
X803725Y588025D01*
X803668Y587898D01*
X803598Y587743D01*
X803541Y587588D01*
X803485Y587405D01*
Y587391D01*
X803471Y587334D01*
X803443Y587250D01*
X803429Y587137D01*
X803400Y586996D01*
X803372Y586813D01*
X803330Y586601D01*
X803302Y586348D01*
Y586334D01*
X803288Y586277D01*
Y586207D01*
X803273Y586108D01*
X803259Y585995D01*
X803231Y585854D01*
X803217Y585699D01*
X803189Y585530D01*
X803118Y585192D01*
X803048Y584825D01*
X802963Y584501D01*
X802921Y584346D01*
X802879Y584205D01*
X802865D01*
X802837D01*
X802752Y584191D01*
X802653D01*
X802597D01*
X802569D01*
X802555D01*
X802541D01*
X802456D01*
X802315Y584205D01*
X802160Y584233D01*
X801991Y584275D01*
X801822Y584346D01*
X801666Y584430D01*
X801540Y584543D01*
X801525Y584557D01*
X801469Y584628D01*
X801413Y584741D01*
X801328Y584882D01*
X801258Y585079D01*
X801187Y585304D01*
X801145Y585586D01*
X801131Y585911D01*
Y586052D01*
X801145Y586193D01*
X801173Y586390D01*
X801201Y586587D01*
X801258Y586799D01*
X801328Y586996D01*
X801427Y587165D01*
X801441Y587179D01*
X801483Y587236D01*
X801554Y587306D01*
X801666Y587391D01*
X801807Y587475D01*
X801991Y587574D01*
X802216Y587659D01*
X802470Y587743D01*
X802315Y588913D01*
X802301D01*
X802287Y588899D01*
X802244D01*
X802188Y588885D01*
X802061Y588843D01*
X801878Y588786D01*
X801695Y588716D01*
X801497Y588631D01*
X801300Y588519D01*
X801117Y588392D01*
X801103Y588378D01*
X801046Y588321D01*
X800962Y588237D01*
X800849Y588124D01*
X800736Y587969D01*
X800623Y587785D01*
X800496Y587574D01*
X800398Y587334D01*
Y587320D01*
X800384Y587306D01*
X800369Y587264D01*
X800355Y587207D01*
X800313Y587067D01*
X800271Y586869D01*
X800229Y586644D01*
X800186Y586362D01*
X800158Y586066D01*
X800144Y585727D01*
Y585572D01*
X800158Y585417D01*
X800172Y585206D01*
X800200Y584966D01*
X800243Y584726D01*
X800299Y584487D01*
X800369Y584261D01*
X800384Y584233D01*
X800412Y584163D01*
X800454Y584064D01*
X800510Y583937D01*
X800595Y583796D01*
X800680Y583655D01*
X800792Y583528D01*
X800905Y583415D01*
X800919Y583401D01*
X800962Y583373D01*
X801032Y583331D01*
X801117Y583274D01*
X801244Y583204D01*
X801370Y583148D01*
X801525Y583091D01*
X801709Y583049D01*
X801723D01*
X801765Y583035D01*
X801850Y583021D01*
X801963Y583007D01*
X802117D01*
X802301Y582993D01*
X802541Y582978D01*
X802808D01*
X804415D01*
X804429D01*
X804486D01*
X804570D01*
X804683D01*
X804810D01*
X804965D01*
X805303Y582964D01*
X805656D01*
X806008Y582950D01*
X806163Y582936D01*
X806304D01*
X806431Y582922D01*
X806530Y582908D01*
X806544D01*
X806600Y582894D01*
X806685Y582880D01*
X806798Y582837D01*
X806925Y582809D01*
X807066Y582753D01*
X807221Y582682D01*
X807376Y582612D01*
Y583867D01*
X807362Y583881D01*
X807305Y583895D01*
X807235Y583923D01*
X807122Y583965D01*
X806995Y584007D01*
X806840Y584036D01*
X806671Y584064D01*
X806488Y584092D01*
Y584106D01*
X806516Y584120D01*
X806586Y584205D01*
X806685Y584332D01*
X806812Y584501D01*
X806939Y584712D01*
X807080Y584924D01*
X807207Y585149D01*
X807305Y585389D01*
X807319Y585417D01*
X807333Y585502D01*
X807376Y585629D01*
X807418Y585784D01*
X807460Y585981D01*
X807488Y586207D01*
X807517Y586460D01*
X807531Y586714D01*
Y582964D01*
Y589125D01*
D02*
G37*
G36*
X807474Y581823D02*
D01*
Y579398D01*
X807460Y579511D01*
X807446Y579651D01*
X807432Y579821D01*
X807390Y579990D01*
X807347Y580145D01*
X807277Y580300D01*
X807263Y580314D01*
X807235Y580356D01*
X807193Y580413D01*
X807122Y580497D01*
X807051Y580568D01*
X806953Y580652D01*
X806854Y580737D01*
X806727Y580793D01*
X806713D01*
X806657Y580822D01*
X806558Y580836D01*
X806417Y580864D01*
X806234Y580892D01*
X806121Y580906D01*
X805994D01*
X805839Y580920D01*
X805684Y580934D01*
X805515D01*
X805318D01*
X801229D01*
Y581823D01*
X807474D01*
X797832D01*
X800299D01*
Y580934D01*
X798551D01*
X797832Y579736D01*
X800299D01*
Y578524D01*
X801229D01*
Y579736D01*
X805388D01*
X805416D01*
X805473D01*
X805557D01*
X805656Y579722D01*
X805881Y579708D01*
X805980Y579694D01*
X806051Y579680D01*
X806079Y579666D01*
X806135Y579623D01*
X806206Y579567D01*
X806276Y579468D01*
X806290Y579440D01*
X806319Y579370D01*
X806347Y579243D01*
X806361Y579059D01*
Y578918D01*
X806347Y578848D01*
Y578749D01*
X806333Y578637D01*
X806319Y578524D01*
X807376Y578369D01*
D01*
Y578397D01*
X807390Y578453D01*
X807404Y578552D01*
X807418Y578679D01*
X807446Y578820D01*
X807460Y578975D01*
X807474Y579285D01*
Y578369D01*
X807376D01*
X807474D01*
Y581823D01*
D02*
G37*
G36*
X795345Y585227D02*
X785590D01*
Y583930D01*
X790440D01*
X785590Y579109D01*
Y579144D01*
Y577163D01*
Y577347D01*
X789551Y581435D01*
X795345Y577163D01*
Y578869D01*
X790425Y582337D01*
X791962Y583930D01*
X795345D01*
Y579059D01*
Y585227D01*
D02*
G37*
G36*
X783625Y581808D02*
D01*
Y578594D01*
X783611Y578693D01*
X783597Y578820D01*
X783569Y578975D01*
X783540Y579144D01*
X783512Y579327D01*
X783400Y579722D01*
X783315Y579934D01*
X783230Y580131D01*
X783118Y580342D01*
X782991Y580540D01*
X782850Y580723D01*
X782681Y580906D01*
X782666Y580920D01*
X782638Y580948D01*
X782582Y580991D01*
X782497Y581047D01*
X782399Y581118D01*
X782286Y581188D01*
X782145Y581273D01*
X781990Y581357D01*
X781807Y581442D01*
X781609Y581526D01*
X781384Y581597D01*
X781144Y581667D01*
X780890Y581724D01*
X780608Y581766D01*
X780312Y581794D01*
X780002Y581808D01*
X779833D01*
X779706Y581794D01*
X779551Y581780D01*
X779382Y581766D01*
X779184Y581738D01*
X778987Y581696D01*
X778536Y581583D01*
X778310Y581512D01*
X778071Y581428D01*
X777845Y581315D01*
X777634Y581188D01*
X777422Y581047D01*
X777225Y580892D01*
X777211Y580878D01*
X777183Y580850D01*
X777141Y580793D01*
X777070Y580723D01*
X777000Y580638D01*
X776915Y580526D01*
X776816Y580399D01*
X776732Y580244D01*
X776633Y580089D01*
X776548Y579905D01*
X776464Y579708D01*
X776393Y579496D01*
X776323Y579271D01*
X776281Y579031D01*
X776252Y578778D01*
X776238Y578510D01*
Y578369D01*
X776252Y578270D01*
X776266Y578157D01*
X776295Y578016D01*
X776323Y577861D01*
X776365Y577678D01*
X776407Y577509D01*
X776478Y577311D01*
X776548Y577128D01*
X776647Y576931D01*
X776760Y576734D01*
X776887Y576536D01*
X777042Y576353D01*
X777211Y576184D01*
X777225Y576170D01*
X777253Y576141D01*
X777310Y576099D01*
X777394Y576043D01*
X777493Y575972D01*
X777606Y575902D01*
X777747Y575817D01*
X777916Y575733D01*
X778099Y575648D01*
X778296Y575563D01*
X778522Y575493D01*
X778762Y575422D01*
X779029Y575366D01*
X779311Y575324D01*
X779607Y575296D01*
X779932Y575281D01*
X783625D01*
Y581808D01*
D02*
G37*
G36*
X795345Y576233D02*
X788269D01*
Y575035D01*
X786958D01*
Y576233D01*
X785590D01*
Y575035D01*
X795345D01*
Y576233D01*
D02*
G37*
G36*
X803908Y577748D02*
X803739D01*
X803612Y577734D01*
X803457Y577720D01*
X803288Y577706D01*
X803090Y577678D01*
X802893Y577636D01*
X802442Y577523D01*
X802216Y577452D01*
X801977Y577368D01*
X801751Y577255D01*
X801540Y577128D01*
X801328Y576987D01*
X801131Y576832D01*
X801117Y576818D01*
X801088Y576790D01*
X801046Y576734D01*
X800976Y576663D01*
X800905Y576578D01*
X800821Y576466D01*
X800722Y576339D01*
X800637Y576184D01*
X800539Y576029D01*
X800454Y575845D01*
X800369Y575648D01*
X800299Y575437D01*
X800229Y575211D01*
X800186Y574971D01*
X800158Y574718D01*
X800144Y574450D01*
Y571222D01*
D01*
Y574309D01*
X800158Y574210D01*
X800172Y574097D01*
X800200Y573956D01*
X800229Y573801D01*
X800271Y573618D01*
X800313Y573449D01*
X800384Y573251D01*
X800454Y573068D01*
X800553Y572871D01*
X800666Y572673D01*
X800792Y572476D01*
X800947Y572293D01*
X801117Y572124D01*
X801131Y572110D01*
X801159Y572081D01*
X801215Y572039D01*
X801300Y571983D01*
X801399Y571912D01*
X801511Y571842D01*
X801652Y571757D01*
X801822Y571673D01*
X802005Y571588D01*
X802202Y571503D01*
X802428Y571433D01*
X802667Y571362D01*
X802935Y571306D01*
X803217Y571264D01*
X803513Y571236D01*
X803837Y571222D01*
X807531D01*
X804007D01*
X804147Y571236D01*
Y576522D01*
X804162D01*
X804204D01*
X804260Y576508D01*
X804345D01*
X804444Y576494D01*
X804556Y576466D01*
X804810Y576423D01*
X805092Y576339D01*
X805402Y576226D01*
X805684Y576071D01*
X805938Y575873D01*
Y575859D01*
X805966Y575845D01*
X806037Y575761D01*
X806135Y575634D01*
X806234Y575465D01*
X806347Y575239D01*
X806445Y574985D01*
X806516Y574703D01*
X806530Y574548D01*
X806544Y574379D01*
Y574267D01*
X806530Y574140D01*
X806502Y573985D01*
X806459Y573815D01*
X806403Y573618D01*
X806319Y573435D01*
X806206Y573251D01*
X806192Y573237D01*
X806135Y573167D01*
X806051Y573082D01*
X805938Y572984D01*
X805783Y572871D01*
X805585Y572744D01*
X805360Y572617D01*
X805092Y572504D01*
X805247Y571264D01*
X805261D01*
X805289Y571278D01*
X805346Y571292D01*
X805430Y571320D01*
X805515Y571362D01*
X805628Y571405D01*
X805867Y571518D01*
X806135Y571659D01*
X806417Y571856D01*
X806685Y572081D01*
X806939Y572363D01*
Y572378D01*
X806967Y572406D01*
X806995Y572448D01*
X807037Y572504D01*
X807080Y572589D01*
X807122Y572673D01*
X807178Y572786D01*
X807235Y572913D01*
X807291Y573054D01*
X807347Y573195D01*
X807432Y573548D01*
X807503Y573942D01*
X807531Y574379D01*
Y574534D01*
X807517Y574633D01*
X807503Y574760D01*
X807474Y574915D01*
X807446Y575084D01*
X807418Y575267D01*
X807305Y575662D01*
X807221Y575873D01*
X807136Y576071D01*
X807023Y576282D01*
X806896Y576480D01*
X806756Y576663D01*
X806586Y576846D01*
X806572Y576860D01*
X806544Y576889D01*
X806488Y576931D01*
X806403Y576987D01*
X806304Y577058D01*
X806192Y577128D01*
X806051Y577213D01*
X805895Y577297D01*
X805712Y577382D01*
X805515Y577467D01*
X805289Y577537D01*
X805050Y577607D01*
X804796Y577664D01*
X804514Y577706D01*
X804218Y577734D01*
X803908Y577748D01*
D02*
G37*
G36*
X783470Y573829D02*
X776238D01*
X776393D01*
Y572744D01*
X777465D01*
X777451Y572730D01*
X777352Y572673D01*
X777225Y572603D01*
X777070Y572490D01*
X776915Y572378D01*
X776746Y572251D01*
X776605Y572124D01*
X776492Y571997D01*
X776478Y571983D01*
X776450Y571940D01*
X776407Y571856D01*
X776365Y571771D01*
X776323Y571659D01*
X776281Y571518D01*
X776252Y571377D01*
X776238Y571222D01*
Y571292D01*
Y571123D01*
X776252Y570996D01*
X776281Y570841D01*
X776337Y570658D01*
X776407Y570460D01*
X776506Y570235D01*
X776633Y569995D01*
D01*
X777733Y570432D01*
X777719Y570446D01*
X777690Y570503D01*
X777648Y570587D01*
X777606Y570700D01*
X777563Y570827D01*
X777521Y570982D01*
X777493Y571137D01*
X777479Y571292D01*
Y571362D01*
X777493Y571433D01*
X777507Y571532D01*
X777535Y571630D01*
X777578Y571757D01*
X777634Y571884D01*
X777719Y571997D01*
X777733Y572011D01*
X777761Y572053D01*
X777817Y572096D01*
X777888Y572166D01*
X777986Y572237D01*
X778099Y572307D01*
X778226Y572378D01*
X778381Y572434D01*
X778409Y572448D01*
X778494Y572462D01*
X778621Y572490D01*
X778790Y572533D01*
X779001Y572575D01*
X779241Y572603D01*
X779495Y572617D01*
X779777Y572631D01*
X783470D01*
Y573829D01*
D02*
G37*
G36*
X807376Y569431D02*
X800299D01*
Y568064D01*
X801666D01*
Y569431D01*
X806008D01*
Y568064D01*
X807376D01*
Y569431D01*
D02*
G37*
G36*
X795345Y573216D02*
X788114D01*
X788269D01*
Y572145D01*
X789284D01*
X789255Y572131D01*
X789199Y572089D01*
X789100Y572004D01*
X788988Y571905D01*
X788847Y571778D01*
X788706Y571623D01*
X788565Y571454D01*
X788438Y571257D01*
X788424Y571229D01*
X788381Y571158D01*
X788339Y571045D01*
X788269Y570890D01*
X788212Y570707D01*
X788170Y570496D01*
X788128Y570256D01*
X788114Y570002D01*
Y569875D01*
X788128Y569720D01*
X788156Y569551D01*
X788198Y569340D01*
X788255Y569128D01*
X788339Y568917D01*
X788452Y568719D01*
X788466Y568691D01*
X788508Y568635D01*
X788579Y568550D01*
X788692Y568437D01*
X788818Y568325D01*
X788973Y568198D01*
X789157Y568085D01*
X789368Y568000D01*
X789354Y567986D01*
X789312Y567958D01*
X789255Y567916D01*
X789171Y567845D01*
X789072Y567761D01*
X788973Y567662D01*
X788861Y567549D01*
X788734Y567408D01*
X788621Y567253D01*
X788508Y567098D01*
X788410Y566915D01*
X788311Y566718D01*
X788226Y566506D01*
X788170Y566281D01*
X788128Y566055D01*
X788114Y565801D01*
Y565703D01*
X788128Y565632D01*
Y565533D01*
X788142Y565435D01*
X788184Y565195D01*
X788255Y564941D01*
X788367Y564674D01*
X788508Y564406D01*
X788706Y564180D01*
X788734Y564152D01*
X788818Y564095D01*
X788945Y563997D01*
X789044Y563955D01*
X789143Y563898D01*
X789269Y563842D01*
X789396Y563800D01*
X789537Y563743D01*
X789706Y563701D01*
X789876Y563673D01*
X790073Y563644D01*
X790270Y563616D01*
X788114D01*
X795345D01*
Y564857D01*
Y564814D01*
X790905D01*
X790891D01*
X790877D01*
X790792D01*
X790665D01*
X790510Y564829D01*
X790341Y564843D01*
X790172Y564857D01*
X790003Y564885D01*
X789876Y564927D01*
X789862D01*
X789819Y564955D01*
X789763Y564984D01*
X789693Y565026D01*
X789608Y565082D01*
X789523Y565153D01*
X789439Y565237D01*
X789354Y565350D01*
X789340Y565364D01*
X789326Y565406D01*
X789298Y565463D01*
X789255Y565562D01*
X789213Y565660D01*
X789185Y565787D01*
X789171Y565914D01*
X789157Y566069D01*
Y566140D01*
X789171Y566196D01*
X789185Y566337D01*
X789213Y566506D01*
X789284Y566703D01*
X789368Y566915D01*
X789495Y567126D01*
X789664Y567324D01*
X789693Y567338D01*
X789763Y567394D01*
X789876Y567479D01*
X790045Y567563D01*
X790270Y567662D01*
X790538Y567733D01*
X790863Y567789D01*
X791243Y567817D01*
X795345D01*
Y567415D01*
Y573216D01*
D02*
G37*
G36*
X781356Y569756D02*
X781172Y568571D01*
X781186D01*
X781200D01*
X781285Y568543D01*
X781426Y568515D01*
X781581Y568459D01*
X781750Y568388D01*
X781934Y568303D01*
X782117Y568177D01*
X782272Y568022D01*
X782286Y567993D01*
X782328Y567937D01*
X782385Y567824D01*
X782455Y567683D01*
X782525Y567500D01*
X782582Y567289D01*
X782624Y567035D01*
X782638Y566739D01*
Y566598D01*
X782624Y566457D01*
X782596Y566273D01*
X782554Y566076D01*
X782497Y565865D01*
X782427Y565681D01*
X782314Y565512D01*
X782300Y565498D01*
X782258Y565442D01*
X782187Y565385D01*
X782088Y565301D01*
X781976Y565230D01*
X781835Y565160D01*
X781694Y565117D01*
X781525Y565103D01*
X781511D01*
X781454D01*
X781384Y565117D01*
X781285Y565146D01*
X781186Y565188D01*
X781088Y565258D01*
X780975Y565343D01*
X780890Y565470D01*
X780876Y565484D01*
X780862Y565526D01*
X780820Y565597D01*
X780778Y565710D01*
X780721Y565879D01*
X780679Y565978D01*
X780651Y566090D01*
X780608Y566217D01*
X780566Y566358D01*
X780524Y566513D01*
X780481Y566696D01*
Y566711D01*
X780467Y566753D01*
X780453Y566823D01*
X780425Y566908D01*
X780397Y567021D01*
X780355Y567147D01*
X780284Y567415D01*
X780185Y567725D01*
X780101Y568022D01*
X780002Y568303D01*
X779946Y568430D01*
X779903Y568529D01*
X779889Y568557D01*
X779861Y568614D01*
X779805Y568698D01*
X779734Y568811D01*
X779636Y568938D01*
X779523Y569065D01*
X779396Y569192D01*
X779241Y569304D01*
X779227Y569318D01*
X779171Y569347D01*
X779072Y569389D01*
X778959Y569431D01*
X778818Y569473D01*
X778649Y569516D01*
X778480Y569544D01*
X778282Y569558D01*
X778254D01*
X778198D01*
X778113Y569544D01*
X777986Y569530D01*
X777859Y569502D01*
X777704Y569473D01*
X777563Y569417D01*
X777408Y569347D01*
X777394Y569333D01*
X777338Y569304D01*
X777267Y569262D01*
X777169Y569192D01*
X777070Y569107D01*
X776943Y569008D01*
X776830Y568895D01*
X776732Y568755D01*
X776718Y568741D01*
X776703Y568698D01*
X776661Y568642D01*
X776619Y568557D01*
X776562Y568444D01*
X776506Y568318D01*
X776450Y568162D01*
X776393Y567993D01*
X776379Y567965D01*
X776365Y567909D01*
X776337Y567810D01*
X776309Y567683D01*
X776281Y567528D01*
X776266Y567359D01*
X776238Y567162D01*
Y567218D01*
Y566823D01*
X776252Y566668D01*
X776266Y566457D01*
X776295Y566231D01*
X776351Y565992D01*
X776407Y565738D01*
X776492Y565498D01*
Y565484D01*
X776506Y565470D01*
X776534Y565400D01*
X776591Y565287D01*
X776661Y565146D01*
X776760Y564991D01*
X776873Y564836D01*
X777000Y564695D01*
X777141Y564568D01*
X777155Y564554D01*
X777211Y564525D01*
X777310Y564469D01*
X777422Y564399D01*
X777592Y564328D01*
X777775Y564258D01*
X777986Y564201D01*
X778226Y564145D01*
X778381Y565315D01*
X778353D01*
X778296Y565329D01*
X778198Y565357D01*
X778071Y565400D01*
X777944Y565470D01*
X777803Y565555D01*
X777662Y565653D01*
X777535Y565794D01*
X777521Y565808D01*
X777493Y565865D01*
X777437Y565949D01*
X777380Y566076D01*
X777324Y566217D01*
X777267Y566400D01*
X777239Y566626D01*
X777225Y566866D01*
Y567006D01*
X777239Y567147D01*
X777253Y567331D01*
X777296Y567514D01*
X777338Y567711D01*
X777408Y567895D01*
X777507Y568050D01*
X777521Y568064D01*
X777549Y568106D01*
X777606Y568162D01*
X777690Y568219D01*
X777775Y568289D01*
X777888Y568346D01*
X778015Y568388D01*
X778141Y568402D01*
X778156D01*
X778184D01*
X778226Y568388D01*
X778282D01*
X778423Y568346D01*
X778564Y568261D01*
X778578Y568247D01*
X778593Y568233D01*
X778635Y568205D01*
X778677Y568148D01*
X778719Y568092D01*
X778776Y568007D01*
X778818Y567909D01*
X778874Y567796D01*
Y567782D01*
X778888Y567754D01*
X778903Y567697D01*
X778945Y567599D01*
X778987Y567458D01*
X779029Y567274D01*
X779072Y567162D01*
X779100Y567035D01*
X779142Y566894D01*
X779184Y566739D01*
Y566725D01*
X779199Y566682D01*
X779213Y566612D01*
X779241Y566527D01*
X779269Y566429D01*
X779297Y566302D01*
X779382Y566034D01*
X779466Y565738D01*
X779565Y565442D01*
X779664Y565174D01*
X779706Y565061D01*
X779748Y564963D01*
X779762Y564934D01*
X779791Y564878D01*
X779833Y564793D01*
X779903Y564666D01*
X779988Y564540D01*
X780101Y564413D01*
X780228Y564286D01*
X780369Y564173D01*
X780383Y564159D01*
X780439Y564131D01*
X780524Y564074D01*
X780651Y564018D01*
X780806Y563976D01*
X780975Y563919D01*
X781172Y563891D01*
X781398Y563877D01*
X776238D01*
X781497D01*
X781609Y563891D01*
X781764Y563919D01*
X781934Y563962D01*
X782117Y564032D01*
X782328Y564117D01*
X782525Y564229D01*
X782554Y564244D01*
X782610Y564300D01*
X782709Y564370D01*
X782822Y564483D01*
X782948Y564638D01*
X783089Y564807D01*
X783216Y565005D01*
X783343Y565244D01*
Y565258D01*
X783357Y565273D01*
X783385Y565357D01*
X783428Y565498D01*
X783484Y565681D01*
X783540Y565907D01*
X783583Y566161D01*
X783611Y566429D01*
X783625Y566739D01*
Y566866D01*
X783611Y566964D01*
Y567077D01*
X783597Y567218D01*
X783583Y567359D01*
X783555Y567514D01*
X783484Y567852D01*
X783385Y568205D01*
X783244Y568543D01*
X783160Y568698D01*
X783061Y568839D01*
X783047Y568853D01*
X783033Y568867D01*
X782948Y568952D01*
X782822Y569079D01*
X782624Y569220D01*
X782385Y569375D01*
X782103Y569530D01*
X781750Y569657D01*
X781356Y569756D01*
D02*
G37*
G36*
X783470Y562453D02*
X776393D01*
Y561255D01*
X775082D01*
Y562453D01*
X773715D01*
Y561255D01*
X783470D01*
Y562453D01*
D02*
G37*
G36*
X795345Y561840D02*
X788269D01*
Y560642D01*
X786958D01*
Y561840D01*
X785590D01*
Y560642D01*
X795345D01*
Y561840D01*
D02*
G37*
G36*
X804796Y562495D02*
X804641Y561297D01*
X804655D01*
X804683Y561283D01*
X804740Y561269D01*
X804810Y561255D01*
X804895Y561241D01*
X804993Y561213D01*
X805205Y561142D01*
X805459Y561044D01*
X805698Y560917D01*
X805924Y560776D01*
X806121Y560606D01*
X806135Y560578D01*
X806192Y560522D01*
X806262Y560409D01*
X806333Y560268D01*
X806417Y560099D01*
X806488Y559888D01*
X806544Y559648D01*
X806558Y559394D01*
Y559310D01*
X806544Y559253D01*
X806530Y559098D01*
X806488Y558901D01*
X806417Y558675D01*
X806319Y558436D01*
X806178Y558196D01*
X805980Y557970D01*
X805952Y557942D01*
X805867Y557872D01*
X805741Y557787D01*
X805571Y557674D01*
X805360Y557561D01*
X805120Y557477D01*
X804838Y557407D01*
X804528Y557378D01*
X804514D01*
X804486D01*
X804444D01*
X804387Y557392D01*
X804232Y557407D01*
X804049Y557449D01*
X803823Y557505D01*
X803598Y557604D01*
X803372Y557745D01*
X803161Y557928D01*
X803132Y557956D01*
X803076Y558027D01*
X802992Y558139D01*
X802893Y558295D01*
X802794Y558492D01*
X802710Y558732D01*
X802653Y558999D01*
X802625Y559296D01*
Y559422D01*
X802639Y559521D01*
X802653Y559648D01*
X802681Y559789D01*
X802710Y559958D01*
X802752Y560141D01*
X801695Y560000D01*
Y559930D01*
X801709Y559874D01*
Y559690D01*
X801681Y559535D01*
X801652Y559352D01*
X801610Y559140D01*
X801540Y558901D01*
X801441Y558675D01*
X801314Y558436D01*
Y558422D01*
X801300Y558407D01*
X801244Y558337D01*
X801145Y558238D01*
X801018Y558125D01*
X800835Y558013D01*
X800623Y557914D01*
X800384Y557844D01*
X800243Y557815D01*
X800088D01*
X800073D01*
X800059D01*
X799975D01*
X799862Y557844D01*
X799707Y557872D01*
X799538Y557928D01*
X799354Y557999D01*
X799171Y558111D01*
X799002Y558266D01*
X798988Y558280D01*
X798932Y558351D01*
X798861Y558450D01*
X798777Y558577D01*
X798706Y558746D01*
X798636Y558943D01*
X798579Y559169D01*
X798565Y559422D01*
Y559535D01*
X798593Y559662D01*
X798622Y559831D01*
X798678Y560014D01*
X798748Y560198D01*
X798861Y560395D01*
X799002Y560578D01*
X799016Y560592D01*
X799087Y560649D01*
X799185Y560733D01*
X799326Y560832D01*
X799510Y560931D01*
X799735Y561029D01*
X800003Y561114D01*
X800313Y561170D01*
X800102Y562369D01*
X800088D01*
X800045Y562355D01*
X799989Y562340D01*
X799904Y562326D01*
X799806Y562298D01*
X799693Y562256D01*
X799425Y562171D01*
X799115Y562030D01*
X798805Y561861D01*
X798509Y561650D01*
X798241Y561382D01*
X798227Y561368D01*
X798213Y561339D01*
X798185Y561297D01*
X798142Y561241D01*
X798086Y561170D01*
X798029Y561072D01*
X797973Y560973D01*
X797903Y560846D01*
X797790Y560564D01*
X797677Y560240D01*
X797607Y559859D01*
X797578Y559662D01*
Y559310D01*
X797592Y559155D01*
X797621Y558971D01*
X797663Y558746D01*
X797733Y558492D01*
X797818Y558238D01*
X797931Y557985D01*
Y557970D01*
X797945Y557956D01*
X797987Y557872D01*
X798072Y557745D01*
X798170Y557604D01*
X798311Y557435D01*
X798466Y557266D01*
X798650Y557096D01*
X798861Y556955D01*
X798889Y556941D01*
X798960Y556899D01*
X799087Y556843D01*
X799242Y556772D01*
X799425Y556702D01*
X799637Y556645D01*
X799876Y556603D01*
X800116Y556589D01*
X800144D01*
X800229D01*
X800341Y556603D01*
X800496Y556631D01*
X800680Y556673D01*
X800877Y556744D01*
X801074Y556828D01*
X801272Y556941D01*
X801300Y556955D01*
X801356Y556998D01*
X801455Y557082D01*
X801568Y557195D01*
X801695Y557336D01*
X801836Y557505D01*
X801963Y557702D01*
X802089Y557942D01*
Y557928D01*
X802104Y557900D01*
X802117Y557858D01*
X802132Y557801D01*
X802188Y557646D01*
X802273Y557449D01*
X802385Y557223D01*
X802526Y556998D01*
X802710Y556786D01*
X802921Y556589D01*
X802949Y556575D01*
X803034Y556518D01*
X803175Y556434D01*
X803358Y556349D01*
X803584Y556265D01*
X803851Y556180D01*
X804162Y556124D01*
X804500Y556110D01*
X797578D01*
X807545D01*
X804627D01*
X804711Y556124D01*
X804824Y556138D01*
X804951Y556166D01*
X805092Y556194D01*
X805247Y556222D01*
X805585Y556335D01*
X805769Y556420D01*
X805938Y556504D01*
X806121Y556617D01*
X806304Y556744D01*
X806488Y556885D01*
X806657Y557054D01*
X806671Y557068D01*
X806699Y557096D01*
X806741Y557153D01*
X806798Y557223D01*
X806868Y557308D01*
X806939Y557421D01*
X807023Y557547D01*
X807094Y557702D01*
X807178Y557858D01*
X807263Y558041D01*
X807333Y558224D01*
X807404Y558436D01*
X807460Y558661D01*
X807503Y558901D01*
X807531Y559140D01*
X807545Y559408D01*
Y559535D01*
X807531Y559620D01*
X807517Y559733D01*
X807503Y559859D01*
X807474Y560000D01*
X807446Y560155D01*
X807362Y560494D01*
X807221Y560846D01*
X807136Y561029D01*
X807037Y561199D01*
X806910Y561368D01*
X806784Y561537D01*
X806770Y561551D01*
X806741Y561579D01*
X806699Y561622D01*
X806643Y561664D01*
X806572Y561734D01*
X806473Y561805D01*
X806375Y561889D01*
X806248Y561974D01*
X806107Y562058D01*
X805966Y562143D01*
X805628Y562298D01*
X805233Y562425D01*
X805022Y562467D01*
X804796Y562495D01*
D02*
G37*
G36*
X795345Y554650D02*
X785590D01*
Y553354D01*
X795345D01*
Y554650D01*
D02*
G37*
G36*
X783625Y559874D02*
X779847D01*
X779748Y559859D01*
X779607D01*
X779452Y559845D01*
X779255Y559817D01*
X779058Y559789D01*
X778832Y559733D01*
X778607Y559676D01*
X778367Y559606D01*
X778113Y559521D01*
X777874Y559408D01*
X777648Y559296D01*
X777422Y559140D01*
X777211Y558985D01*
X777028Y558788D01*
X777014Y558774D01*
X777000Y558746D01*
X776957Y558689D01*
X776901Y558619D01*
X776844Y558534D01*
X776774Y558422D01*
X776703Y558309D01*
X776633Y558168D01*
X776562Y558013D01*
X776492Y557844D01*
X776365Y557463D01*
X776266Y557026D01*
X776252Y556800D01*
X776238Y556561D01*
Y553248D01*
Y556420D01*
X776252Y556321D01*
X776266Y556194D01*
X776295Y556053D01*
X776323Y555898D01*
X776351Y555715D01*
X776478Y555334D01*
X776548Y555137D01*
X776647Y554939D01*
X776746Y554742D01*
X776887Y554545D01*
X777028Y554361D01*
X777197Y554178D01*
X777211Y554164D01*
X777239Y554136D01*
X777296Y554094D01*
X777366Y554037D01*
X777465Y553967D01*
X777592Y553882D01*
X777733Y553798D01*
X777888Y553713D01*
X778057Y553629D01*
X778268Y553544D01*
X778480Y553459D01*
X778719Y553389D01*
X778973Y553332D01*
X779241Y553290D01*
X779523Y553262D01*
X779833Y553248D01*
X776238D01*
X780059D01*
X780171Y553262D01*
X780312Y553276D01*
X780453D01*
X780608Y553304D01*
X780961Y553346D01*
X781313Y553431D01*
X781666Y553530D01*
X781990Y553671D01*
X782004D01*
X782018Y553685D01*
X782060Y553713D01*
X782117Y553741D01*
X782258Y553840D01*
X782427Y553967D01*
X782624Y554136D01*
X782822Y554347D01*
X783019Y554587D01*
X783202Y554869D01*
Y554883D01*
X783216Y554897D01*
X783244Y554939D01*
X783273Y555010D01*
X783301Y555080D01*
X783329Y555165D01*
X783414Y555377D01*
X783484Y555616D01*
X783555Y555912D01*
X783611Y556222D01*
X783625Y556561D01*
Y556702D01*
X783611Y556814D01*
X783597Y556941D01*
X783569Y557082D01*
X783540Y557251D01*
X783512Y557421D01*
X783400Y557801D01*
X783315Y558013D01*
X783230Y558210D01*
X783118Y558407D01*
X782991Y558605D01*
X782850Y558788D01*
X782681Y558971D01*
X782666Y558985D01*
X782638Y559013D01*
X782582Y559056D01*
X782497Y559112D01*
X782399Y559183D01*
X782286Y559253D01*
X782145Y559338D01*
X781976Y559422D01*
X781793Y559507D01*
X781581Y559591D01*
X781356Y559662D01*
X781116Y559733D01*
X780848Y559789D01*
X780566Y559831D01*
X780256Y559859D01*
X779932Y559874D01*
X783625D01*
D02*
G37*
G36*
X807545Y555489D02*
X797451Y552656D01*
Y555489D01*
Y551697D01*
X807545Y554531D01*
Y555489D01*
D02*
G37*
G36*
X783470Y551838D02*
X776238D01*
X776393D01*
Y550767D01*
X777408D01*
X777394Y550753D01*
X777352Y550724D01*
X777296Y550682D01*
X777225Y550626D01*
X777141Y550541D01*
X777042Y550443D01*
X776929Y550330D01*
X776816Y550189D01*
X776718Y550048D01*
X776605Y549879D01*
X776506Y549695D01*
X776422Y549498D01*
X776351Y549272D01*
X776295Y549047D01*
X776252Y548793D01*
X776238Y548525D01*
D01*
D01*
Y546101D01*
Y548413D01*
X776252Y548300D01*
X776266Y548145D01*
X776295Y547962D01*
X776337Y547764D01*
X776393Y547553D01*
X776478Y547355D01*
X776492Y547327D01*
X776520Y547271D01*
X776562Y547172D01*
X776633Y547059D01*
X776718Y546918D01*
X776830Y546791D01*
X776943Y546665D01*
X777084Y546552D01*
X777098Y546538D01*
X777155Y546510D01*
X777225Y546467D01*
X777324Y546397D01*
X777465Y546340D01*
X777606Y546284D01*
X777775Y546213D01*
X777958Y546171D01*
X777972D01*
X778029Y546157D01*
X778113Y546143D01*
X778226Y546129D01*
X778395D01*
X778593Y546115D01*
X778832Y546101D01*
X776238D01*
X783470D01*
Y547327D01*
Y547299D01*
X779184D01*
X779171D01*
X779156D01*
X779058D01*
X778931D01*
X778776Y547313D01*
X778593Y547327D01*
X778409Y547355D01*
X778240Y547398D01*
X778085Y547440D01*
X778071D01*
X778029Y547468D01*
X777958Y547510D01*
X777874Y547553D01*
X777789Y547623D01*
X777690Y547708D01*
X777592Y547821D01*
X777507Y547947D01*
X777493Y547962D01*
X777465Y548004D01*
X777437Y548088D01*
X777394Y548187D01*
X777352Y548300D01*
X777310Y548441D01*
X777296Y548610D01*
X777281Y548779D01*
Y548850D01*
X777296Y548906D01*
X777310Y549047D01*
X777338Y549230D01*
X777408Y549428D01*
X777493Y549653D01*
X777606Y549879D01*
X777775Y550090D01*
X777803Y550118D01*
X777874Y550175D01*
X777930Y550217D01*
X778000Y550259D01*
X778085Y550316D01*
X778184Y550358D01*
X778296Y550414D01*
X778437Y550471D01*
X778593Y550513D01*
X778762Y550555D01*
X778945Y550583D01*
X779142Y550612D01*
X779382Y550640D01*
X779622D01*
X783470D01*
Y551838D01*
D02*
G37*
G36*
X795345Y551873D02*
X788269D01*
X794387D01*
X789199Y547377D01*
Y547503D01*
X789213Y547644D01*
Y547828D01*
X789227Y548039D01*
Y548265D01*
X789241Y548504D01*
Y551606D01*
X788269D01*
Y545826D01*
X789072D01*
X793555Y549660D01*
X794387Y550407D01*
Y550323D01*
X794373Y550266D01*
X794359Y550111D01*
X794344Y549914D01*
Y549674D01*
X794330Y549421D01*
X794316Y548885D01*
Y545614D01*
X788269D01*
X795345D01*
Y551873D01*
D02*
G37*
G36*
X802569Y551133D02*
X802287D01*
X802132Y551119D01*
X801963D01*
X801779Y551105D01*
X801568Y551091D01*
X801131Y551049D01*
X800666Y550978D01*
X800200Y550894D01*
X799989Y550837D01*
X799777Y550781D01*
X799763D01*
X799735Y550767D01*
X799679Y550739D01*
X799608Y550710D01*
X799510Y550682D01*
X799411Y550626D01*
X799171Y550513D01*
X798917Y550372D01*
X798650Y550189D01*
X798382Y549977D01*
X798156Y549724D01*
Y549710D01*
X798128Y549695D01*
X798100Y549653D01*
X798072Y549597D01*
X798015Y549526D01*
X797973Y549442D01*
X797860Y549230D01*
X797762Y548977D01*
X797663Y548680D01*
X797607Y548328D01*
X797578Y547947D01*
Y544762D01*
Y547821D01*
X797592Y547665D01*
X797621Y547482D01*
X797663Y547271D01*
X797719Y547045D01*
X797790Y546805D01*
X797903Y546580D01*
Y546566D01*
X797917Y546552D01*
X797959Y546481D01*
X798029Y546368D01*
X798128Y546228D01*
X798269Y546073D01*
X798424Y545903D01*
X798607Y545748D01*
X798819Y545593D01*
X798847Y545579D01*
X798917Y545523D01*
X799044Y545466D01*
X799228Y545368D01*
X799439Y545283D01*
X799679Y545170D01*
X799961Y545072D01*
X800271Y544987D01*
X800285D01*
X800313Y544973D01*
X800355Y544959D01*
X800426Y544945D01*
X800510Y544931D01*
X800609Y544916D01*
X800736Y544888D01*
X800877Y544874D01*
X801032Y544846D01*
X801201Y544832D01*
X801399Y544818D01*
X801596Y544790D01*
X801822Y544776D01*
X802047D01*
X802301Y544762D01*
X797578D01*
X807545D01*
X802851D01*
X803006Y544776D01*
X803175D01*
X803358Y544790D01*
X803555Y544804D01*
X804007Y544846D01*
X804472Y544916D01*
X804923Y545001D01*
X805134Y545057D01*
X805346Y545128D01*
X805360D01*
X805388Y545142D01*
X805444Y545170D01*
X805515Y545199D01*
X805614Y545227D01*
X805712Y545283D01*
X805952Y545396D01*
X806206Y545537D01*
X806488Y545720D01*
X806741Y545932D01*
X806981Y546185D01*
Y546199D01*
X807009Y546213D01*
X807037Y546256D01*
X807066Y546312D01*
X807108Y546383D01*
X807164Y546453D01*
X807263Y546665D01*
X807362Y546918D01*
X807460Y547214D01*
X807517Y547567D01*
X807545Y547947D01*
Y548088D01*
X807531Y548187D01*
X807517Y548300D01*
X807488Y548441D01*
X807460Y548596D01*
X807418Y548765D01*
X807362Y548934D01*
X807305Y549117D01*
X807221Y549301D01*
X807122Y549484D01*
X807009Y549667D01*
X806868Y549851D01*
X806713Y550020D01*
X806544Y550175D01*
X806530Y550189D01*
X806488Y550217D01*
X806417Y550259D01*
X806304Y550330D01*
X806178Y550400D01*
X806008Y550471D01*
X805811Y550569D01*
X805585Y550654D01*
X805332Y550739D01*
X805036Y550823D01*
X804711Y550908D01*
X804345Y550978D01*
X803950Y551049D01*
X803527Y551091D01*
X803062Y551119D01*
X802569Y551133D01*
D02*
G37*
G36*
X795345Y545051D02*
X788269D01*
Y538791D01*
Y539003D01*
X789072D01*
X793555Y542837D01*
X794387Y543584D01*
Y543500D01*
X794373Y543443D01*
X794359Y543288D01*
X794344Y543091D01*
Y542851D01*
X794330Y542598D01*
X794316Y542062D01*
Y538791D01*
X788269D01*
X795345D01*
Y545051D01*
D02*
G37*
G36*
X800877Y543549D02*
X800736D01*
X800637Y543535D01*
X800510Y543521D01*
X800355Y543507D01*
X800200Y543479D01*
X800017Y543436D01*
X799651Y543338D01*
X799453Y543267D01*
X799242Y543183D01*
X799044Y543084D01*
X798861Y542957D01*
X798664Y542830D01*
X798495Y542675D01*
X798481Y542661D01*
X798452Y542633D01*
X798410Y542590D01*
X798354Y542520D01*
X798283Y542435D01*
X798199Y542323D01*
X798128Y542210D01*
X798029Y542069D01*
X797945Y541928D01*
X797874Y541759D01*
X797719Y541378D01*
X797663Y541181D01*
X797621Y540955D01*
X797592Y540730D01*
X797578Y540490D01*
Y537135D01*
D01*
Y540391D01*
X797592Y540321D01*
Y540250D01*
X797607Y540152D01*
X797649Y539912D01*
X797705Y539644D01*
X797804Y539348D01*
X797931Y539052D01*
X798100Y538756D01*
Y538742D01*
X798128Y538728D01*
X798156Y538686D01*
X798199Y538629D01*
X798311Y538488D01*
X798466Y538305D01*
X798678Y538122D01*
X798932Y537910D01*
X799228Y537727D01*
X799566Y537558D01*
X799580D01*
X799608Y537544D01*
X799665Y537516D01*
X799735Y537487D01*
X799834Y537459D01*
X799961Y537417D01*
X800102Y537389D01*
X800257Y537346D01*
X800440Y537304D01*
X800651Y537262D01*
X800877Y537234D01*
X801117Y537206D01*
X801385Y537177D01*
X801666Y537149D01*
X801977Y537135D01*
X807545D01*
X802611D01*
X802766Y537149D01*
X802949D01*
X803161Y537163D01*
X803372Y537191D01*
X803851Y537234D01*
X804359Y537304D01*
X804838Y537403D01*
X805078Y537473D01*
X805289Y537544D01*
X805303D01*
X805332Y537558D01*
X805388Y537586D01*
X805473Y537614D01*
X805557Y537657D01*
X805670Y537713D01*
X805910Y537854D01*
X806178Y538023D01*
X806459Y538220D01*
X806727Y538474D01*
X806967Y538756D01*
Y538770D01*
X806995Y538798D01*
X807023Y538841D01*
X807051Y538897D01*
X807094Y538982D01*
X807150Y539066D01*
X807207Y539179D01*
X807249Y539292D01*
X807362Y539560D01*
X807460Y539884D01*
X807517Y540236D01*
X807545Y540631D01*
Y540744D01*
X807531Y540814D01*
Y540913D01*
X807517Y541026D01*
X807460Y541294D01*
X807390Y541590D01*
X807277Y541900D01*
X807122Y542210D01*
X807023Y542365D01*
X806910Y542506D01*
X806896Y542520D01*
X806882Y542534D01*
X806840Y542576D01*
X806798Y542619D01*
X806727Y542675D01*
X806643Y542746D01*
X806445Y542887D01*
X806192Y543027D01*
X805881Y543168D01*
X805529Y543281D01*
X805120Y543366D01*
X805022Y542210D01*
X805036D01*
X805064Y542196D01*
X805092D01*
X805148Y542182D01*
X805303Y542139D01*
X805473Y542083D01*
X805670Y542013D01*
X805867Y541914D01*
X806051Y541801D01*
X806206Y541660D01*
X806220Y541646D01*
X806262Y541590D01*
X806319Y541491D01*
X806375Y541378D01*
X806445Y541223D01*
X806502Y541040D01*
X806544Y540828D01*
X806558Y540603D01*
Y540504D01*
X806544Y540406D01*
X806530Y540279D01*
X806502Y540124D01*
X806459Y539968D01*
X806403Y539799D01*
X806319Y539644D01*
X806304Y539630D01*
X806276Y539574D01*
X806220Y539489D01*
X806135Y539405D01*
X806037Y539292D01*
X805924Y539179D01*
X805797Y539066D01*
X805642Y538954D01*
X805628Y538939D01*
X805557Y538911D01*
X805459Y538855D01*
X805332Y538798D01*
X805163Y538728D01*
X804965Y538657D01*
X804740Y538587D01*
X804486Y538517D01*
X804472D01*
X804458Y538502D01*
X804415D01*
X804359Y538488D01*
X804218Y538460D01*
X804035Y538418D01*
X803809Y538390D01*
X803569Y538361D01*
X803302Y538347D01*
X803020Y538333D01*
X803006D01*
X802963D01*
X802893D01*
X802780D01*
X802808Y538347D01*
X802879Y538404D01*
X802978Y538488D01*
X803118Y538587D01*
X803259Y538728D01*
X803415Y538897D01*
X803569Y539095D01*
X803710Y539320D01*
X803725Y539348D01*
X803767Y539433D01*
X803823Y539560D01*
X803880Y539715D01*
X803950Y539926D01*
X804007Y540152D01*
X804049Y540406D01*
X804063Y540673D01*
Y540786D01*
X804049Y540871D01*
X804035Y540984D01*
X804021Y541096D01*
X803992Y541237D01*
X803950Y541378D01*
X803851Y541702D01*
X803781Y541872D01*
X803696Y542041D01*
X803598Y542224D01*
X803471Y542393D01*
X803344Y542562D01*
X803189Y542717D01*
X803175Y542732D01*
X803147Y542760D01*
X803104Y542788D01*
X803034Y542844D01*
X802935Y542915D01*
X802837Y542985D01*
X802710Y543056D01*
X802569Y543126D01*
X802414Y543211D01*
X802244Y543281D01*
X802047Y543352D01*
X801850Y543422D01*
X801624Y543479D01*
X801385Y543507D01*
X801145Y543535D01*
X800877Y543549D01*
D02*
G37*
G36*
X807545Y536529D02*
X797451Y533695D01*
Y536529D01*
Y532737D01*
X807545Y535570D01*
Y536529D01*
D02*
G37*
G36*
X783470Y540363D02*
X773715D01*
Y532990D01*
Y536529D01*
X773729Y536430D01*
Y536317D01*
X773757Y536064D01*
X773785Y535782D01*
X773842Y535486D01*
X773912Y535190D01*
X774011Y534922D01*
Y534908D01*
X774025Y534894D01*
X774067Y534809D01*
X774138Y534682D01*
X774237Y534541D01*
X774363Y534372D01*
X774518Y534189D01*
X774716Y534020D01*
X774927Y533865D01*
X774955Y533850D01*
X775040Y533808D01*
X775153Y533738D01*
X775322Y533667D01*
X775519Y533597D01*
X775731Y533526D01*
X775970Y533484D01*
X776210Y533470D01*
X776238D01*
X776309D01*
X776436Y533484D01*
X776591Y533512D01*
X776774Y533554D01*
X776971Y533625D01*
X777169Y533709D01*
X777380Y533822D01*
X777408Y533836D01*
X777465Y533879D01*
X777578Y533963D01*
X777690Y534076D01*
X777831Y534217D01*
X777986Y534386D01*
X778127Y534598D01*
X778268Y534837D01*
Y534823D01*
X778282Y534795D01*
X778296Y534753D01*
X778325Y534696D01*
X778381Y534527D01*
X778480Y534330D01*
X778607Y534118D01*
X778762Y533879D01*
X778945Y533667D01*
X779171Y533470D01*
X779199Y533456D01*
X779283Y533399D01*
X779410Y533315D01*
X779579Y533230D01*
X779805Y533145D01*
X780044Y533061D01*
X780326Y533005D01*
X780637Y532990D01*
X780749D01*
X780890Y533005D01*
X781059Y533033D01*
X781257Y533061D01*
X781468Y533117D01*
X781694Y533188D01*
X781919Y533287D01*
X781948Y533301D01*
X782018Y533343D01*
X782117Y533399D01*
X782258Y533484D01*
X782399Y533597D01*
X782554Y533709D01*
X782709Y533850D01*
X782836Y534006D01*
X782850Y534020D01*
X782892Y534076D01*
X782948Y534175D01*
X783005Y534301D01*
X783089Y534457D01*
X783174Y534640D01*
X783244Y534837D01*
X783315Y535077D01*
Y535105D01*
X783343Y535190D01*
X783357Y535331D01*
X783385Y535514D01*
X783414Y535739D01*
X783442Y536007D01*
X783456Y536303D01*
X783470Y536642D01*
Y540363D01*
D02*
G37*
G36*
X794648Y538030D02*
X791722D01*
X791624Y538016D01*
X791483D01*
X791328Y538002D01*
X791130Y537974D01*
X790933Y537946D01*
X790707Y537889D01*
X790482Y537833D01*
X790242Y537762D01*
X789988Y537678D01*
X789749Y537565D01*
X789523Y537452D01*
X789298Y537297D01*
X789086Y537142D01*
X788903Y536945D01*
X788889Y536931D01*
X788875Y536902D01*
X788832Y536846D01*
X788776Y536776D01*
X788720Y536691D01*
X788649Y536578D01*
X788579Y536465D01*
X788508Y536324D01*
X788438Y536169D01*
X788367Y536000D01*
X788241Y535620D01*
X788142Y535183D01*
X788128Y534957D01*
X788114Y534717D01*
Y531405D01*
Y534576D01*
X788128Y534478D01*
X788142Y534351D01*
X788170Y534210D01*
X788198Y534055D01*
X788226Y533872D01*
X788353Y533491D01*
X788424Y533294D01*
X788522Y533096D01*
X788621Y532899D01*
X788762Y532701D01*
X788903Y532518D01*
X789072Y532335D01*
X789086Y532321D01*
X789115Y532293D01*
X789171Y532250D01*
X789241Y532194D01*
X789340Y532123D01*
X789467Y532039D01*
X789608Y531954D01*
X789763Y531870D01*
X789932Y531785D01*
X790144Y531701D01*
X790355Y531616D01*
X790595Y531545D01*
X790848Y531489D01*
X791116Y531447D01*
X791398Y531419D01*
X791708Y531405D01*
X788114D01*
X791934D01*
X792047Y531419D01*
X792188Y531433D01*
X792329D01*
X792484Y531461D01*
X792836Y531503D01*
X793188Y531588D01*
X793541Y531687D01*
X793865Y531828D01*
X793879D01*
X793893Y531842D01*
X793936Y531870D01*
X793992Y531898D01*
X794133Y531997D01*
X794302Y532123D01*
X794500Y532293D01*
X794697Y532504D01*
X794894Y532744D01*
X795078Y533026D01*
Y533040D01*
X795092Y533054D01*
X795120Y533096D01*
X795148Y533167D01*
X795176Y533237D01*
X795204Y533322D01*
X795289Y533533D01*
X795359Y533773D01*
X795430Y534069D01*
X795486Y534379D01*
X795500Y534717D01*
Y534858D01*
X795486Y534971D01*
X795472Y535098D01*
X795444Y535239D01*
X795416Y535408D01*
X795388Y535577D01*
X795275Y535958D01*
X795190Y536169D01*
X795106Y536367D01*
X794993Y536564D01*
X794866Y536761D01*
X794725Y536945D01*
X794556Y537128D01*
X794542Y537142D01*
X794514Y537170D01*
X794457Y537212D01*
X794373Y537269D01*
X794274Y537339D01*
X794161Y537410D01*
X794020Y537495D01*
X793851Y537579D01*
X793668Y537664D01*
X793456Y537748D01*
X793231Y537819D01*
X792991Y537889D01*
X792723Y537946D01*
X792441Y537988D01*
X792131Y538016D01*
X791807Y538030D01*
X794648D01*
D02*
G37*
G36*
X807376Y532342D02*
X807221D01*
X807108Y532328D01*
X806981Y532314D01*
X806840Y532286D01*
X806699Y532257D01*
X806544Y532201D01*
X806530D01*
X806516Y532187D01*
X806431Y532159D01*
X806304Y532102D01*
X806135Y532018D01*
X805938Y531905D01*
X805712Y531764D01*
X805487Y531609D01*
X805247Y531412D01*
X805233D01*
X805219Y531383D01*
X805134Y531313D01*
X805007Y531186D01*
X804824Y531003D01*
X804613Y530791D01*
X804359Y530523D01*
X804077Y530199D01*
X803781Y529847D01*
X803767Y529833D01*
X803725Y529776D01*
X803654Y529692D01*
X803569Y529593D01*
X803457Y529466D01*
X803330Y529311D01*
X803189Y529156D01*
X803034Y528973D01*
X802695Y528620D01*
X802357Y528268D01*
X802188Y528099D01*
X802019Y527944D01*
X801864Y527803D01*
X801709Y527690D01*
X801695D01*
X801681Y527662D01*
X801638Y527634D01*
X801582Y527605D01*
X801427Y527507D01*
X801244Y527394D01*
X801018Y527295D01*
X800778Y527197D01*
X800510Y527140D01*
X800257Y527112D01*
X800243D01*
X800229D01*
X800144Y527126D01*
X800003Y527140D01*
X799848Y527183D01*
X799651Y527239D01*
X799453Y527338D01*
X799256Y527464D01*
X799059Y527634D01*
X799030Y527662D01*
X798974Y527732D01*
X798903Y527831D01*
X798805Y527986D01*
X798720Y528183D01*
X798636Y528409D01*
X798579Y528677D01*
X798565Y528973D01*
Y529057D01*
X798579Y529114D01*
X798593Y529283D01*
X798636Y529480D01*
X798692Y529692D01*
X798791Y529931D01*
X798917Y530157D01*
X799087Y530368D01*
X799115Y530397D01*
X799185Y530453D01*
X799298Y530538D01*
X799467Y530622D01*
X799665Y530721D01*
X799918Y530805D01*
X800200Y530862D01*
X800525Y530890D01*
X800398Y532117D01*
X800384D01*
X800341Y532102D01*
X800271D01*
X800172Y532088D01*
X800059Y532060D01*
X799932Y532032D01*
X799777Y531990D01*
X799622Y531947D01*
X799284Y531834D01*
X798946Y531665D01*
X798777Y531567D01*
X798607Y531440D01*
X798452Y531313D01*
X798311Y531172D01*
X798297Y531158D01*
X798283Y531130D01*
X798241Y531087D01*
X798199Y531017D01*
X798142Y530932D01*
X798086Y530834D01*
X798015Y530721D01*
X797945Y530580D01*
X797874Y530425D01*
X797804Y530256D01*
X797747Y530072D01*
X797691Y529875D01*
X797649Y529664D01*
X797607Y529438D01*
X797592Y529198D01*
X797578Y528945D01*
Y528804D01*
X797592Y528705D01*
X797607Y528592D01*
X797621Y528451D01*
X797649Y528296D01*
X797677Y528141D01*
X797776Y527775D01*
X797917Y527408D01*
X798001Y527225D01*
X798100Y527042D01*
X798227Y526872D01*
X798368Y526717D01*
X798382Y526703D01*
X798396Y526675D01*
X798452Y526647D01*
X798509Y526590D01*
X798579Y526520D01*
X798678Y526450D01*
X798777Y526379D01*
X798903Y526294D01*
X799171Y526153D01*
X799510Y526012D01*
X799679Y525956D01*
X799876Y525928D01*
X800073Y525900D01*
X800285Y525886D01*
X800313D01*
X800384D01*
X800496Y525900D01*
X800651Y525914D01*
X800821Y525942D01*
X801018Y525998D01*
X801229Y526055D01*
X801441Y526139D01*
X801469Y526153D01*
X801540Y526182D01*
X801652Y526238D01*
X801807Y526323D01*
X801977Y526435D01*
X802188Y526576D01*
X802400Y526745D01*
X802639Y526943D01*
X802667Y526971D01*
X802752Y527042D01*
X802822Y527112D01*
X802893Y527183D01*
X802978Y527267D01*
X803090Y527380D01*
X803203Y527493D01*
X803330Y527634D01*
X803471Y527775D01*
X803626Y527944D01*
X803781Y528127D01*
X803964Y528324D01*
X804147Y528550D01*
X804345Y528775D01*
X804359Y528790D01*
X804387Y528818D01*
X804429Y528874D01*
X804486Y528945D01*
X804570Y529029D01*
X804655Y529128D01*
X804838Y529353D01*
X805050Y529593D01*
X805261Y529819D01*
X805444Y530016D01*
X805515Y530101D01*
X805585Y530171D01*
X805600Y530185D01*
X805642Y530228D01*
X805698Y530284D01*
X805783Y530354D01*
X805881Y530425D01*
X805980Y530509D01*
X806220Y530679D01*
Y525872D01*
X797578D01*
X807376D01*
Y532342D01*
D02*
G37*
G36*
X780890Y531694D02*
X780735Y530495D01*
X780749D01*
X780778Y530481D01*
X780834Y530467D01*
X780904Y530453D01*
X780989Y530439D01*
X781088Y530411D01*
X781299Y530340D01*
X781553Y530242D01*
X781793Y530115D01*
X782018Y529974D01*
X782215Y529805D01*
X782230Y529776D01*
X782286Y529720D01*
X782356Y529607D01*
X782427Y529466D01*
X782511Y529297D01*
X782582Y529086D01*
X782638Y528846D01*
X782652Y528592D01*
Y528508D01*
X782638Y528451D01*
X782624Y528296D01*
X782582Y528099D01*
X782511Y527873D01*
X782413Y527634D01*
X782272Y527394D01*
X782074Y527168D01*
X782046Y527140D01*
X781962Y527070D01*
X781835Y526985D01*
X781666Y526872D01*
X781454Y526760D01*
X781215Y526675D01*
X780933Y526604D01*
X780622Y526576D01*
X780608D01*
X780580D01*
X780538D01*
X780481Y526590D01*
X780326Y526604D01*
X780143Y526647D01*
X779918Y526703D01*
X779692Y526802D01*
X779466Y526943D01*
X779255Y527126D01*
X779227Y527154D01*
X779171Y527225D01*
X779086Y527338D01*
X778987Y527493D01*
X778888Y527690D01*
X778804Y527930D01*
X778747Y528198D01*
X778719Y528493D01*
Y528620D01*
X778733Y528719D01*
X778747Y528846D01*
X778776Y528987D01*
X778804Y529156D01*
X778846Y529339D01*
X777789Y529198D01*
Y529128D01*
X777803Y529072D01*
Y528888D01*
X777775Y528733D01*
X777747Y528550D01*
X777704Y528339D01*
X777634Y528099D01*
X777535Y527873D01*
X777408Y527634D01*
Y527620D01*
X777394Y527605D01*
X777338Y527535D01*
X777239Y527436D01*
X777112Y527323D01*
X776929Y527211D01*
X776718Y527112D01*
X776478Y527042D01*
X776337Y527013D01*
X776182D01*
X776168D01*
X776154D01*
X776069D01*
X775956Y527042D01*
X775801Y527070D01*
X775632Y527126D01*
X775449Y527197D01*
X775266Y527309D01*
X775096Y527464D01*
X775082Y527478D01*
X775026Y527549D01*
X774955Y527648D01*
X774871Y527775D01*
X774800Y527944D01*
X774730Y528141D01*
X774673Y528367D01*
X774659Y528620D01*
Y528733D01*
X774688Y528860D01*
X774716Y529029D01*
X774772Y529212D01*
X774843Y529396D01*
X774955Y529593D01*
X775096Y529776D01*
X775110Y529790D01*
X775181Y529847D01*
X775280Y529931D01*
X775421Y530030D01*
X775604Y530129D01*
X775829Y530228D01*
X776097Y530312D01*
X776407Y530368D01*
X776196Y531567D01*
X776182D01*
X776140Y531553D01*
X776083Y531539D01*
X775999Y531524D01*
X775900Y531496D01*
X775787Y531454D01*
X775519Y531369D01*
X775209Y531228D01*
X774899Y531059D01*
X774603Y530848D01*
X774335Y530580D01*
X774321Y530566D01*
X774307Y530538D01*
X774279Y530495D01*
X774237Y530439D01*
X774180Y530368D01*
X774124Y530270D01*
X774067Y530171D01*
X773997Y530044D01*
X773884Y529762D01*
X773771Y529438D01*
X773701Y529057D01*
X773673Y528860D01*
Y528508D01*
X773687Y528353D01*
X773715Y528169D01*
X773757Y527944D01*
X773828Y527690D01*
X773912Y527436D01*
X774025Y527183D01*
Y527168D01*
X774039Y527154D01*
X774081Y527070D01*
X774166Y526943D01*
X774265Y526802D01*
X774406Y526633D01*
X774561Y526464D01*
X774744Y526294D01*
X774955Y526153D01*
X774984Y526139D01*
X775054Y526097D01*
X775181Y526041D01*
X775336Y525970D01*
X775519Y525900D01*
X775731Y525843D01*
X775970Y525801D01*
X776210Y525787D01*
X776238D01*
X776323D01*
X776436Y525801D01*
X776591Y525829D01*
X776774Y525872D01*
X776971Y525942D01*
X777169Y526027D01*
X777366Y526139D01*
X777394Y526153D01*
X777451Y526196D01*
X777549Y526280D01*
X777662Y526393D01*
X777789Y526534D01*
X777930Y526703D01*
X778057Y526901D01*
X778184Y527140D01*
Y527126D01*
X778198Y527098D01*
X778212Y527056D01*
X778226Y526999D01*
X778282Y526844D01*
X778367Y526647D01*
X778480Y526421D01*
X778621Y526196D01*
X778804Y525984D01*
X779015Y525787D01*
X779044Y525773D01*
X779128Y525716D01*
X779269Y525632D01*
X779452Y525547D01*
X779678Y525463D01*
X779946Y525378D01*
X780256Y525322D01*
X780594Y525308D01*
X773673D01*
X783610D01*
X780721D01*
X780806Y525322D01*
X780919Y525336D01*
X781045Y525364D01*
X781186Y525392D01*
X781341Y525420D01*
X781680Y525533D01*
X781863Y525618D01*
X782032Y525702D01*
X782215Y525815D01*
X782399Y525942D01*
X782582Y526083D01*
X782751Y526252D01*
X782765Y526266D01*
X782793Y526294D01*
X782836Y526351D01*
X782892Y526421D01*
X782962Y526506D01*
X783033Y526619D01*
X783118Y526745D01*
X783188Y526901D01*
X783273Y527056D01*
X783357Y527239D01*
X783428Y527422D01*
X783498Y527634D01*
X783555Y527859D01*
X783597Y528099D01*
X783625Y528339D01*
X783639Y528606D01*
Y528733D01*
X783625Y528818D01*
X783611Y528931D01*
X783597Y529057D01*
X783569Y529198D01*
X783540Y529353D01*
X783456Y529692D01*
X783315Y530044D01*
X783230Y530228D01*
X783132Y530397D01*
X783005Y530566D01*
X782878Y530735D01*
X782864Y530749D01*
X782836Y530777D01*
X782793Y530820D01*
X782737Y530862D01*
X782666Y530932D01*
X782568Y531003D01*
X782469Y531087D01*
X782342Y531172D01*
X782201Y531256D01*
X782060Y531341D01*
X781722Y531496D01*
X781327Y531623D01*
X781116Y531665D01*
X780890Y531694D01*
D02*
G37*
G36*
X805036Y524997D02*
X797621D01*
Y518231D01*
Y519556D01*
X803936D01*
Y518231D01*
X807376D01*
Y520754D01*
X805036D01*
Y524997D01*
D02*
G37*
%LPD*%
G36*
X806220Y594792D02*
X806206Y594693D01*
X806192Y594482D01*
X806178Y594242D01*
X806149Y593988D01*
X806107Y593734D01*
X806051Y593523D01*
X806037Y593495D01*
X806022Y593424D01*
X805980Y593326D01*
X805924Y593199D01*
X805839Y593058D01*
X805755Y592917D01*
X805656Y592776D01*
X805543Y592635D01*
X805515Y592621D01*
X805459Y592564D01*
X805360Y592480D01*
X805219Y592381D01*
X805036Y592268D01*
X804824Y592141D01*
X804585Y592029D01*
X804317Y591930D01*
X804303D01*
X804274Y591916D01*
X804232Y591902D01*
X804176Y591888D01*
X804105Y591874D01*
X804007Y591846D01*
X803908Y591817D01*
X803795Y591789D01*
X803513Y591747D01*
X803189Y591704D01*
X802822Y591676D01*
X802428Y591662D01*
X802414D01*
X802357D01*
X802287D01*
X802174Y591676D01*
X802047D01*
X801906Y591690D01*
X801737Y591704D01*
X801568Y591719D01*
X801187Y591789D01*
X800792Y591874D01*
X800426Y592001D01*
X800243Y592085D01*
X800088Y592170D01*
X800073D01*
X800045Y592198D01*
X800003Y592226D01*
X799947Y592254D01*
X799806Y592367D01*
X799637Y592508D01*
X799453Y592691D01*
X799270Y592903D01*
X799115Y593142D01*
X798988Y593396D01*
X798974Y593424D01*
X798960Y593495D01*
X798917Y593622D01*
X798875Y593805D01*
X798847Y594030D01*
X798805Y594312D01*
X798791Y594482D01*
Y594665D01*
X798777Y594848D01*
Y597104D01*
X806220D01*
Y594792D01*
D02*
G37*
G36*
X807376Y590337D02*
X802639D01*
X802738Y590351D01*
X802851D01*
X803118Y590365D01*
X803429Y590408D01*
X803753Y590450D01*
X804091Y590520D01*
X804429Y590605D01*
X804444D01*
X804472Y590619D01*
X804514Y590633D01*
X804570Y590647D01*
X804725Y590704D01*
X804923Y590788D01*
X805148Y590873D01*
X805374Y590985D01*
X805614Y591127D01*
X805839Y591268D01*
X805867Y591282D01*
X805938Y591338D01*
X806037Y591423D01*
X806163Y591535D01*
X806304Y591662D01*
X806445Y591817D01*
X806600Y591972D01*
X806727Y592156D01*
X806741Y592184D01*
X806784Y592240D01*
X806840Y592339D01*
X806910Y592480D01*
X806995Y592649D01*
X807066Y592846D01*
X807150Y593072D01*
X807221Y593326D01*
Y593354D01*
X807235Y593396D01*
X807249Y593438D01*
X807263Y593579D01*
X807291Y593777D01*
X807319Y594002D01*
X807347Y594270D01*
X807362Y594566D01*
X807376Y594890D01*
Y590337D01*
D02*
G37*
G36*
X805642Y587828D02*
X805755Y587800D01*
X805881Y587757D01*
X806008Y587687D01*
X806149Y587602D01*
X806276Y587490D01*
X806290Y587475D01*
X806319Y587419D01*
X806375Y587334D01*
X806431Y587222D01*
X806488Y587067D01*
X806544Y586883D01*
X806572Y586672D01*
X806586Y586418D01*
Y586305D01*
X806572Y586164D01*
X806544Y586009D01*
X806516Y585812D01*
X806459Y585615D01*
X806389Y585403D01*
X806290Y585192D01*
X806276Y585163D01*
X806234Y585107D01*
X806163Y585008D01*
X806065Y584896D01*
X805952Y584769D01*
X805811Y584628D01*
X805642Y584515D01*
X805459Y584402D01*
X805444Y584388D01*
X805388Y584374D01*
X805289Y584346D01*
X805163Y584304D01*
X804993Y584261D01*
X804796Y584233D01*
X804556Y584219D01*
X804274Y584205D01*
X803823Y584191D01*
Y584205D01*
X803837Y584219D01*
X803851Y584261D01*
X803866Y584318D01*
X803894Y584388D01*
X803922Y584473D01*
X803950Y584571D01*
X803978Y584684D01*
X804021Y584811D01*
X804049Y584966D01*
X804091Y585121D01*
X804133Y585304D01*
X804176Y585502D01*
X804218Y585699D01*
X804246Y585925D01*
X804288Y586164D01*
Y586193D01*
X804303Y586277D01*
X804331Y586418D01*
X804359Y586573D01*
X804387Y586742D01*
X804429Y586912D01*
X804472Y587067D01*
X804528Y587207D01*
Y587222D01*
X804556Y587264D01*
X804585Y587320D01*
X804627Y587377D01*
X804740Y587546D01*
X804909Y587687D01*
X804923D01*
X804951Y587715D01*
X805007Y587729D01*
X805078Y587757D01*
X805163Y587785D01*
X805247Y587814D01*
X805360Y587828D01*
X805473Y587842D01*
X805487D01*
X805557D01*
X805642Y587828D01*
D02*
G37*
G36*
X779255Y576550D02*
X779241D01*
X779213D01*
X779171Y576564D01*
X779114D01*
X778945Y576592D01*
X778762Y576635D01*
X778536Y576705D01*
X778325Y576776D01*
X778113Y576889D01*
X777930Y577015D01*
X777916D01*
X777902Y577044D01*
X777817Y577114D01*
X777704Y577241D01*
X777578Y577410D01*
X777451Y577622D01*
X777338Y577875D01*
X777253Y578171D01*
X777239Y578326D01*
X777225Y578496D01*
Y578580D01*
X777239Y578637D01*
X777253Y578792D01*
X777296Y578975D01*
X777366Y579200D01*
X777465Y579440D01*
X777606Y579666D01*
X777789Y579891D01*
X777817Y579919D01*
X777888Y579976D01*
X778015Y580075D01*
X778184Y580173D01*
X778381Y580286D01*
X778635Y580385D01*
X778931Y580469D01*
X779255Y580512D01*
Y576550D01*
D02*
G37*
G36*
X780355Y580568D02*
X780439D01*
X780538Y580554D01*
X780651Y580526D01*
X780904Y580483D01*
X781186Y580399D01*
X781497Y580286D01*
X781778Y580131D01*
X782032Y579934D01*
Y579919D01*
X782060Y579905D01*
X782131Y579821D01*
X782230Y579694D01*
X782328Y579525D01*
X782441Y579299D01*
X782540Y579045D01*
X782610Y578763D01*
X782624Y578608D01*
X782638Y578439D01*
Y578326D01*
X782624Y578200D01*
X782596Y578045D01*
X782554Y577875D01*
X782497Y577678D01*
X782413Y577495D01*
X782300Y577311D01*
X782286Y577297D01*
X782230Y577227D01*
X782145Y577142D01*
X782032Y577044D01*
X781877Y576931D01*
X781680Y576804D01*
X781454Y576677D01*
X781186Y576564D01*
X781341Y575324D01*
X781356D01*
X781384Y575338D01*
X781440Y575352D01*
X781525Y575380D01*
X781609Y575422D01*
X781722Y575465D01*
X781962Y575578D01*
X782230Y575718D01*
X782511Y575916D01*
X782779Y576141D01*
X783033Y576423D01*
Y576437D01*
X783061Y576466D01*
X783089Y576508D01*
X783132Y576564D01*
X783174Y576649D01*
X783216Y576734D01*
X783273Y576846D01*
X783329Y576973D01*
X783385Y577114D01*
X783442Y577255D01*
X783526Y577607D01*
X783597Y578002D01*
X783625Y578439D01*
Y575281D01*
X780101D01*
X780242Y575296D01*
Y580582D01*
X780256D01*
X780298D01*
X780355Y580568D01*
D02*
G37*
G36*
X803161Y572490D02*
X803147D01*
X803118D01*
X803076Y572504D01*
X803020D01*
X802851Y572533D01*
X802667Y572575D01*
X802442Y572645D01*
X802230Y572716D01*
X802019Y572829D01*
X801836Y572956D01*
X801822D01*
X801807Y572984D01*
X801723Y573054D01*
X801610Y573181D01*
X801483Y573350D01*
X801356Y573562D01*
X801244Y573815D01*
X801159Y574111D01*
X801145Y574267D01*
X801131Y574436D01*
Y574520D01*
X801145Y574577D01*
X801159Y574732D01*
X801201Y574915D01*
X801272Y575140D01*
X801370Y575380D01*
X801511Y575606D01*
X801695Y575831D01*
X801723Y575859D01*
X801793Y575916D01*
X801920Y576015D01*
X802089Y576113D01*
X802287Y576226D01*
X802541Y576325D01*
X802837Y576409D01*
X803161Y576451D01*
Y572490D01*
D02*
G37*
G36*
X795345Y569015D02*
X790764D01*
X790750D01*
X790722D01*
X790693D01*
X790637D01*
X790482Y569030D01*
X790313Y569058D01*
X790115Y569086D01*
X789918Y569142D01*
X789735Y569213D01*
X789566Y569311D01*
X789551Y569325D01*
X789495Y569368D01*
X789439Y569438D01*
X789354Y569537D01*
X789284Y569664D01*
X789213Y569833D01*
X789171Y570030D01*
X789157Y570270D01*
Y570355D01*
X789171Y570453D01*
X789185Y570566D01*
X789227Y570707D01*
X789269Y570876D01*
X789340Y571031D01*
X789425Y571200D01*
X789439Y571214D01*
X789481Y571271D01*
X789537Y571341D01*
X789622Y571440D01*
X789735Y571539D01*
X789876Y571637D01*
X790031Y571736D01*
X790214Y571821D01*
X790242Y571835D01*
X790313Y571849D01*
X790425Y571877D01*
X790581Y571919D01*
X790792Y571962D01*
X791046Y571990D01*
X791342Y572004D01*
X791680Y572018D01*
X795345D01*
Y569015D01*
D02*
G37*
G36*
X780157Y558633D02*
X780270D01*
X780397Y558619D01*
X780693Y558577D01*
X781031Y558506D01*
X781370Y558393D01*
X781694Y558252D01*
X781835Y558154D01*
X781976Y558055D01*
Y558041D01*
X782004Y558027D01*
X782074Y557942D01*
X782187Y557815D01*
X782300Y557646D01*
X782427Y557435D01*
X782540Y557181D01*
X782610Y556885D01*
X782624Y556730D01*
X782638Y556561D01*
Y556476D01*
X782624Y556406D01*
X782596Y556250D01*
X782554Y556039D01*
X782469Y555813D01*
X782356Y555560D01*
X782187Y555320D01*
X782074Y555193D01*
X781962Y555080D01*
X781948Y555066D01*
X781934Y555052D01*
X781891Y555024D01*
X781835Y554982D01*
X781764Y554939D01*
X781680Y554883D01*
X781567Y554827D01*
X781454Y554770D01*
X781313Y554714D01*
X781158Y554672D01*
X780989Y554615D01*
X780806Y554573D01*
X780594Y554531D01*
X780383Y554502D01*
X780143Y554474D01*
X779889D01*
X779875D01*
X779833D01*
X779762D01*
X779678Y554488D01*
X779565D01*
X779438Y554502D01*
X779142Y554545D01*
X778832Y554615D01*
X778494Y554728D01*
X778184Y554883D01*
X778029Y554968D01*
X777902Y555080D01*
X777888D01*
X777874Y555109D01*
X777789Y555193D01*
X777690Y555320D01*
X777563Y555489D01*
X777437Y555701D01*
X777324Y555955D01*
X777253Y556236D01*
X777239Y556391D01*
X777225Y556561D01*
Y556645D01*
X777239Y556716D01*
X777253Y556871D01*
X777310Y557082D01*
X777394Y557322D01*
X777507Y557576D01*
X777676Y557815D01*
X777789Y557942D01*
X777902Y558055D01*
X777916D01*
X777930Y558083D01*
X777972Y558111D01*
X778029Y558154D01*
X778099Y558196D01*
X778184Y558238D01*
X778296Y558295D01*
X778409Y558351D01*
X778550Y558407D01*
X778691Y558464D01*
X778860Y558506D01*
X779044Y558548D01*
X779241Y558591D01*
X779452Y558619D01*
X779692Y558633D01*
X779932Y558647D01*
X779946D01*
X779988D01*
X780059D01*
X780157Y558633D01*
D02*
G37*
G36*
X802963Y549893D02*
X803147D01*
X803372Y549879D01*
X803612Y549865D01*
X803866Y549836D01*
X804415Y549766D01*
X804683Y549724D01*
X804937Y549667D01*
X805177Y549611D01*
X805402Y549526D01*
X805600Y549442D01*
X805769Y549343D01*
X805783D01*
X805797Y549315D01*
X805895Y549244D01*
X806022Y549117D01*
X806163Y548962D01*
X806304Y548751D01*
X806431Y548511D01*
X806530Y548243D01*
X806544Y548102D01*
X806558Y547947D01*
Y547863D01*
X806544Y547806D01*
X806516Y547665D01*
X806459Y547468D01*
X806361Y547257D01*
X806220Y547017D01*
X806135Y546904D01*
X806022Y546791D01*
X805910Y546679D01*
X805769Y546566D01*
X805755D01*
X805726Y546538D01*
X805684Y546510D01*
X805614Y546481D01*
X805515Y546425D01*
X805388Y546383D01*
X805247Y546326D01*
X805078Y546270D01*
X804866Y546228D01*
X804641Y546171D01*
X804373Y546115D01*
X804091Y546073D01*
X803753Y546044D01*
X803400Y546016D01*
X803006Y545988D01*
X802569D01*
X802555D01*
X802541D01*
X802470D01*
X802343D01*
X802174Y546002D01*
X801991D01*
X801765Y546016D01*
X801525Y546030D01*
X801258Y546058D01*
X800722Y546129D01*
X800454Y546171D01*
X800200Y546228D01*
X799961Y546284D01*
X799735Y546368D01*
X799538Y546453D01*
X799369Y546552D01*
X799354D01*
X799340Y546580D01*
X799298Y546608D01*
X799242Y546651D01*
X799115Y546777D01*
X798960Y546932D01*
X798819Y547144D01*
X798692Y547383D01*
X798636Y547510D01*
X798593Y547651D01*
X798579Y547806D01*
X798565Y547962D01*
Y548046D01*
X798579Y548102D01*
X798607Y548257D01*
X798650Y548441D01*
X798734Y548652D01*
X798861Y548878D01*
X798946Y548991D01*
X799030Y549103D01*
X799143Y549202D01*
X799270Y549301D01*
X799284D01*
X799312Y549329D01*
X799369Y549357D01*
X799439Y549399D01*
X799552Y549442D01*
X799679Y549498D01*
X799834Y549540D01*
X800017Y549597D01*
X800229Y549653D01*
X800468Y549710D01*
X800736Y549766D01*
X801032Y549808D01*
X801370Y549851D01*
X801737Y549879D01*
X802132Y549893D01*
X802569Y549907D01*
X802597D01*
X802667D01*
X802794D01*
X802963Y549893D01*
D02*
G37*
G36*
X789199Y540554D02*
Y540680D01*
X789213Y540821D01*
Y541005D01*
X789227Y541216D01*
Y541442D01*
X789241Y541681D01*
Y544783D01*
X788269D01*
Y545051D01*
X794387D01*
X789199Y540554D01*
D02*
G37*
G36*
X801074Y542309D02*
X801159D01*
X801244Y542295D01*
X801455Y542252D01*
X801695Y542182D01*
X801948Y542097D01*
X802202Y541956D01*
X802428Y541773D01*
X802456Y541745D01*
X802512Y541674D01*
X802611Y541547D01*
X802710Y541392D01*
X802822Y541181D01*
X802921Y540941D01*
X802978Y540673D01*
X803006Y540377D01*
Y540293D01*
X802992Y540236D01*
X802978Y540081D01*
X802935Y539898D01*
X802865Y539673D01*
X802766Y539447D01*
X802625Y539221D01*
X802428Y539010D01*
X802400Y538982D01*
X802315Y538925D01*
X802188Y538841D01*
X802005Y538728D01*
X801779Y538629D01*
X801511Y538545D01*
X801187Y538488D01*
X800821Y538460D01*
X800807D01*
X800778D01*
X800722D01*
X800651Y538474D01*
X800553D01*
X800454Y538488D01*
X800229Y538531D01*
X799961Y538587D01*
X799679Y538686D01*
X799411Y538827D01*
X799171Y539010D01*
X799157D01*
X799143Y539038D01*
X799073Y539109D01*
X798974Y539221D01*
X798861Y539376D01*
X798763Y539574D01*
X798664Y539799D01*
X798593Y540053D01*
X798565Y540194D01*
Y540420D01*
X798579Y540476D01*
X798593Y540631D01*
X798650Y540814D01*
X798720Y541040D01*
X798847Y541279D01*
X799002Y541519D01*
X799115Y541632D01*
X799228Y541745D01*
X799242D01*
X799256Y541773D01*
X799298Y541801D01*
X799340Y541829D01*
X799481Y541928D01*
X799679Y542027D01*
X799918Y542139D01*
X800214Y542238D01*
X800553Y542295D01*
X800919Y542323D01*
X800933D01*
X800962D01*
X801004D01*
X801074Y542309D01*
D02*
G37*
G36*
X777803Y536670D02*
X777789Y536487D01*
X777775Y536289D01*
X777761Y536092D01*
X777733Y535895D01*
X777704Y535739D01*
X777690Y535711D01*
X777676Y535655D01*
X777634Y535570D01*
X777578Y535457D01*
X777521Y535345D01*
X777437Y535218D01*
X777324Y535091D01*
X777211Y534992D01*
X777197Y534978D01*
X777155Y534950D01*
X777070Y534908D01*
X776971Y534865D01*
X776859Y534823D01*
X776718Y534781D01*
X776548Y534753D01*
X776365Y534739D01*
X776337D01*
X776281D01*
X776196Y534753D01*
X776083Y534767D01*
X775942Y534795D01*
X775801Y534837D01*
X775660Y534894D01*
X775519Y534978D01*
X775505Y534992D01*
X775463Y535020D01*
X775393Y535077D01*
X775322Y535147D01*
X775237Y535246D01*
X775153Y535359D01*
X775068Y535500D01*
X775012Y535655D01*
Y535669D01*
X774984Y535739D01*
X774969Y535838D01*
X774941Y535993D01*
X774913Y536205D01*
X774899Y536444D01*
X774871Y536754D01*
Y539066D01*
X777803D01*
Y536670D01*
D02*
G37*
G36*
X782314Y536289D02*
X782300Y535993D01*
X782286Y535866D01*
X782272Y535754D01*
Y535739D01*
X782258Y535683D01*
X782244Y535598D01*
X782215Y535500D01*
X782131Y535260D01*
X782018Y535020D01*
X782004Y535006D01*
X781976Y534964D01*
X781934Y534908D01*
X781877Y534837D01*
X781793Y534767D01*
X781708Y534668D01*
X781595Y534598D01*
X781468Y534513D01*
X781454Y534499D01*
X781412Y534485D01*
X781327Y534457D01*
X781229Y534414D01*
X781116Y534372D01*
X780975Y534344D01*
X780806Y534330D01*
X780637Y534316D01*
X780608D01*
X780552D01*
X780439Y534330D01*
X780312Y534358D01*
X780171Y534386D01*
X780016Y534442D01*
X779861Y534513D01*
X779706Y534612D01*
X779692Y534626D01*
X779636Y534668D01*
X779565Y534724D01*
X779481Y534809D01*
X779382Y534922D01*
X779283Y535063D01*
X779199Y535218D01*
X779128Y535401D01*
X779114Y535429D01*
X779100Y535486D01*
X779072Y535612D01*
X779044Y535768D01*
X779015Y535965D01*
X778987Y536205D01*
X778959Y536501D01*
Y539066D01*
X782314D01*
Y536289D01*
D02*
G37*
G36*
X792033Y536790D02*
X792145D01*
X792272Y536776D01*
X792568Y536733D01*
X792907Y536663D01*
X793245Y536550D01*
X793569Y536409D01*
X793710Y536310D01*
X793851Y536212D01*
Y536198D01*
X793879Y536184D01*
X793950Y536099D01*
X794062Y535972D01*
X794175Y535803D01*
X794302Y535591D01*
X794415Y535338D01*
X794485Y535042D01*
X794500Y534887D01*
X794514Y534717D01*
Y534633D01*
X794500Y534562D01*
X794471Y534407D01*
X794429Y534196D01*
X794344Y533970D01*
X794232Y533717D01*
X794062Y533477D01*
X793950Y533350D01*
X793837Y533237D01*
X793823Y533223D01*
X793809Y533209D01*
X793766Y533181D01*
X793710Y533139D01*
X793640Y533096D01*
X793555Y533040D01*
X793442Y532983D01*
X793329Y532927D01*
X793188Y532871D01*
X793033Y532828D01*
X792864Y532772D01*
X792681Y532730D01*
X792470Y532687D01*
X792258Y532659D01*
X792019Y532631D01*
X791765D01*
X791751D01*
X791708D01*
X791638D01*
X791553Y532645D01*
X791441D01*
X791314Y532659D01*
X791018Y532701D01*
X790707Y532772D01*
X790369Y532885D01*
X790059Y533040D01*
X789904Y533124D01*
X789777Y533237D01*
X789763D01*
X789749Y533265D01*
X789664Y533350D01*
X789566Y533477D01*
X789439Y533646D01*
X789312Y533857D01*
X789199Y534111D01*
X789129Y534393D01*
X789115Y534548D01*
X789100Y534717D01*
Y534802D01*
X789115Y534872D01*
X789129Y535028D01*
X789185Y535239D01*
X789269Y535479D01*
X789382Y535732D01*
X789551Y535972D01*
X789664Y536099D01*
X789777Y536212D01*
X789791D01*
X789805Y536240D01*
X789847Y536268D01*
X789904Y536310D01*
X789974Y536353D01*
X790059Y536395D01*
X790172Y536451D01*
X790285Y536508D01*
X790425Y536564D01*
X790566Y536620D01*
X790736Y536663D01*
X790919Y536705D01*
X791116Y536747D01*
X791328Y536776D01*
X791567Y536790D01*
X791807Y536804D01*
X791821D01*
X791863D01*
X791934D01*
X792033Y536790D01*
D02*
G37*
G36*
X803936Y520754D02*
X799566D01*
X803936Y523827D01*
Y520754D01*
D02*
G37*
G36*
X797621Y520529D02*
Y524997D01*
X803936D01*
X797621Y520529D01*
D02*
G37*
G36*
X807376Y518231D02*
X805036D01*
Y519556D01*
X807376D01*
Y518231D01*
D02*
G37*
D10*
X186823Y159746D02*
G03*
X186823Y159746I-1250J0D01*
G01*
X163229Y244596D02*
G03*
X163229Y244596I-1250J0D01*
G01*
X697109Y215816D02*
G03*
X697109Y215816I-1250J0D01*
G01*
D11*
X209323Y171996D02*
G03*
X209323Y171996I-3000J0D01*
G01*
X678109Y204316D02*
G03*
X678109Y204316I-3000J0D01*
G01*
D12*
X496570Y128510D02*
G03*
X496570Y128510I-500J0D01*
G01*
X537320Y124510D02*
G03*
X537320Y124510I-500J0D01*
G01*
X532109Y104616D02*
G03*
X532109Y104616I-500J0D01*
G01*
X400609Y162266D02*
G03*
X400609Y162266I-500J0D01*
G01*
X658609Y222316D02*
X658609Y244316D01*
X644609Y222316D02*
Y244316D01*
X720609Y222316D02*
X720609Y244316D01*
X706609Y222316D02*
Y244316D01*
X174359Y149066D02*
X196359Y149066D01*
X174359Y135066D02*
X196359D01*
X219109D02*
X219109Y157066D01*
X233109Y135066D02*
Y157066D01*
X116609Y103816D02*
X116609Y125816D01*
X130609Y103816D02*
Y125816D01*
D14*
X629536Y122060D02*
X641615Y134139D01*
X617103Y134493D02*
X629182Y146571D01*
X596818Y244525D02*
X613900D01*
X596818Y262107D02*
X613900D01*
X594818Y213607D02*
X611900D01*
X594818Y196025D02*
X611900D01*
X594568Y190107D02*
X611650D01*
X594568Y172525D02*
X611650D01*
X618286Y169821D02*
X630365Y157743D01*
X605853Y157389D02*
X617932Y145310D01*
X602818Y220025D02*
Y237107D01*
X620400Y220025D02*
Y237107D01*
X238650Y204275D02*
Y221357D01*
X221068Y204275D02*
Y221357D01*
X139068Y112275D02*
Y129357D01*
X156650Y112275D02*
Y129357D01*
X144650Y180525D02*
Y197607D01*
X127068Y180525D02*
Y197607D01*
X125568Y260262D02*
Y292844D01*
X148650Y260262D02*
Y292844D01*
X225068Y245775D02*
Y278357D01*
X248150Y245775D02*
Y278357D01*
X196323Y161996D02*
Y192996D01*
X219323Y161996D02*
Y192996D01*
X196323Y161996D02*
X219323D01*
X196323Y192996D02*
X219323D01*
X170609Y241066D02*
X201609D01*
X170609Y276066D02*
X201609D01*
X256109Y112566D02*
X258609D01*
X256109Y98566D02*
X258609D01*
X685109Y183316D02*
Y214316D01*
X662109Y183316D02*
Y214316D01*
X685109D01*
X662109Y183316D02*
X685109D01*
X302109Y123566D02*
Y126066D01*
X288109Y123566D02*
Y126066D01*
D15*
X550306Y20066D02*
Y22731D01*
Y21399D01*
X558303D01*
X556970Y20066D01*
X558303Y40059D02*
Y34728D01*
X554304D01*
X555637Y37393D01*
Y38726D01*
X554304Y40059D01*
X551638D01*
X550306Y38726D01*
Y36061D01*
X551638Y34728D01*
X558303Y56054D02*
X556970Y53388D01*
X554304Y50722D01*
X551638D01*
X550306Y52055D01*
Y54721D01*
X551638Y56054D01*
X552971D01*
X554304Y54721D01*
Y50722D01*
X558303Y66717D02*
Y72049D01*
X556970D01*
X551638Y66717D01*
X550306D01*
X537109Y25397D02*
Y20066D01*
X542440Y25397D01*
X543773D01*
X545106Y24064D01*
Y21399D01*
X543773Y20066D01*
Y36061D02*
X545106Y37393D01*
Y40059D01*
X543773Y41392D01*
X542440D01*
X541107Y40059D01*
Y38726D01*
Y40059D01*
X539775Y41392D01*
X538442D01*
X537109Y40059D01*
Y37393D01*
X538442Y36061D01*
X537109Y56054D02*
X545106D01*
X541107Y52055D01*
Y57387D01*
X543773Y68050D02*
X545106Y69383D01*
Y72049D01*
X543773Y73382D01*
X542440D01*
X541107Y72049D01*
X539775Y73382D01*
X538442D01*
X537109Y72049D01*
Y69383D01*
X538442Y68050D01*
X539775D01*
X541107Y69383D01*
X542440Y68050D01*
X543773D01*
X541107Y69383D02*
Y72049D01*
X52690Y669814D02*
X58022D01*
Y665816D01*
X55356D01*
X58022D01*
Y661817D01*
X50025D02*
Y669814D01*
X47359Y667149D01*
X44693Y669814D01*
Y661817D01*
X36696Y669814D02*
X39361Y668482D01*
X42027Y665816D01*
Y663150D01*
X40694Y661817D01*
X38029D01*
X36696Y663150D01*
Y664483D01*
X38029Y665816D01*
X42027D01*
X212108Y29484D02*
Y24153D01*
X208109D01*
Y26818D01*
Y24153D01*
X204110D01*
Y32150D02*
X212108D01*
X209442Y34816D01*
X212108Y37482D01*
X204110D01*
X212108Y45479D02*
Y40147D01*
X208109D01*
X209442Y42813D01*
Y44146D01*
X208109Y45479D01*
X205443D01*
X204110Y44146D01*
Y41480D01*
X205443Y40147D01*
X645191Y61064D02*
X650522D01*
Y57066D01*
X647856D01*
X650522D01*
Y53067D01*
X642525D02*
Y61064D01*
X639859Y58399D01*
X637193Y61064D01*
Y53067D01*
X630528D02*
Y61064D01*
X634527Y57066D01*
X629196D01*
X208773Y209314D02*
Y202650D01*
X207440Y201317D01*
X204775D01*
X203442Y202650D01*
Y209314D01*
X195444D02*
X200776D01*
Y205316D01*
X198110Y206649D01*
X196777D01*
X195444Y205316D01*
Y202650D01*
X196777Y201317D01*
X199443D01*
X200776Y202650D01*
X598396Y156933D02*
X592741Y151278D01*
X595569Y148451D01*
X597454D01*
X599339Y150336D01*
X599339Y152221D01*
X596511Y155048D01*
X598396Y153163D02*
X602166D01*
X606879Y148451D02*
X601224Y142796D01*
X601224Y148451D01*
X604994Y144681D01*
X607821Y136198D02*
X606879Y139026D01*
Y142796D01*
X608764Y144681D01*
X610649D01*
X612534Y142796D01*
X612534Y140911D01*
X611591Y139968D01*
X609706Y139968D01*
X606879Y142796D01*
X651821Y134198D02*
X657476Y139853D01*
X654649Y142681D01*
X652764D01*
X650879Y140796D01*
X650879Y138911D01*
X653706Y136083D01*
X651821Y137968D02*
X648051D01*
X643339Y142681D02*
X648994Y148336D01*
X648994Y142681D01*
X645224Y146451D01*
Y150221D02*
X645224Y152106D01*
X643339Y153991D01*
X641454D01*
X640511Y153048D01*
Y151163D01*
X638626Y151163D01*
X637684Y150221D01*
X637684Y148336D01*
X639569Y146451D01*
X641454D01*
X642396Y147393D01*
Y149278D01*
X644281Y149278D01*
X645224Y150221D01*
X642396Y149278D02*
X640511Y151163D01*
X585022Y203817D02*
Y211814D01*
X581023D01*
X579690Y210481D01*
Y207816D01*
X581023Y206483D01*
X585022D01*
X582356D02*
X579690Y203817D01*
X573026D02*
Y211814D01*
X577025Y207816D01*
X571693D01*
X565028Y203817D02*
Y211814D01*
X569027Y207816D01*
X563696D01*
X585272Y175067D02*
Y183064D01*
X581273D01*
X579940Y181731D01*
Y179066D01*
X581273Y177733D01*
X585272D01*
X582606D02*
X579940Y175067D01*
X573276D02*
Y183064D01*
X577275Y179066D01*
X571943D01*
X569277Y181731D02*
X567944Y183064D01*
X565279D01*
X563946Y181731D01*
Y180399D01*
X565279Y179066D01*
X566611D01*
X565279D01*
X563946Y177733D01*
Y176400D01*
X565279Y175067D01*
X567944D01*
X569277Y176400D01*
X195219Y292528D02*
Y285863D01*
X193886Y284530D01*
X191220D01*
X189887Y285863D01*
Y292528D01*
X187222Y284530D02*
X184556D01*
X185889D01*
Y292528D01*
X187222Y291195D01*
X180557D02*
X179224Y292528D01*
X176558D01*
X175225Y291195D01*
Y285863D01*
X176558Y284530D01*
X179224D01*
X180557Y285863D01*
Y291195D01*
X686023Y229814D02*
Y223150D01*
X684690Y221817D01*
X682025D01*
X680692Y223150D01*
Y229814D01*
X678026Y223150D02*
X676693Y221817D01*
X674027D01*
X672694Y223150D01*
Y228482D01*
X674027Y229814D01*
X676693D01*
X678026Y228482D01*
Y227149D01*
X676693Y225816D01*
X672694D01*
X613772Y269317D02*
Y277314D01*
X609773D01*
X608441Y275982D01*
Y273316D01*
X609773Y271983D01*
X613772D01*
X611106D02*
X608441Y269317D01*
X601776D02*
Y277314D01*
X605775Y273316D01*
X600443D01*
X597777Y277314D02*
X592446D01*
Y275982D01*
X597777Y270650D01*
Y269317D01*
X596608Y238229D02*
X588610D01*
Y234230D01*
X589943Y232897D01*
X592609D01*
X593942Y234230D01*
Y238229D01*
Y235563D02*
X596608Y232897D01*
Y226233D02*
X588610D01*
X592609Y230231D01*
Y224900D01*
X588610Y216903D02*
Y222234D01*
X592609D01*
X591276Y219568D01*
Y218235D01*
X592609Y216903D01*
X595275D01*
X596608Y218235D01*
Y220901D01*
X595275Y222234D01*
X240772Y230067D02*
Y238064D01*
X236773D01*
X235440Y236732D01*
Y234066D01*
X236773Y232733D01*
X240772D01*
X238106D02*
X235440Y230067D01*
X228776D02*
Y238064D01*
X232775Y234066D01*
X227443D01*
X224777Y236732D02*
X223444Y238064D01*
X220779D01*
X219446Y236732D01*
Y231400D01*
X220779Y230067D01*
X223444D01*
X224777Y231400D01*
Y236732D01*
X309110Y117153D02*
X317108D01*
Y121151D01*
X315775Y122484D01*
X313109D01*
X311776Y121151D01*
Y117153D01*
Y119818D02*
X309110Y122484D01*
X315775Y125150D02*
X317108Y126483D01*
Y129149D01*
X315775Y130482D01*
X314442D01*
X313109Y129149D01*
Y127816D01*
Y129149D01*
X311776Y130482D01*
X310443D01*
X309110Y129149D01*
Y126483D01*
X310443Y125150D01*
Y133147D02*
X309110Y134480D01*
Y137146D01*
X310443Y138479D01*
X315775D01*
X317108Y137146D01*
Y134480D01*
X315775Y133147D01*
X314442D01*
X313109Y134480D01*
Y138479D01*
X267022Y120567D02*
Y128564D01*
X263023D01*
X261691Y127232D01*
Y124566D01*
X263023Y123233D01*
X267022D01*
X264356D02*
X261691Y120567D01*
X253693D02*
X259025D01*
X253693Y125899D01*
Y127232D01*
X255026Y128564D01*
X257692D01*
X259025Y127232D01*
X251027D02*
X249694Y128564D01*
X247029D01*
X245696Y127232D01*
Y125899D01*
X247029Y124566D01*
X245696Y123233D01*
Y121900D01*
X247029Y120567D01*
X249694D01*
X251027Y121900D01*
Y123233D01*
X249694Y124566D01*
X251027Y125899D01*
Y127232D01*
X249694Y124566D02*
X247029D01*
X109693Y285123D02*
X108360Y286455D01*
Y289121D01*
X109693Y290454D01*
X115025D01*
X116357Y289121D01*
Y286455D01*
X115025Y285123D01*
X116357Y277125D02*
Y282457D01*
X111026Y277125D01*
X109693D01*
X108360Y278458D01*
Y281124D01*
X109693Y282457D01*
Y274459D02*
X108360Y273126D01*
Y270460D01*
X109693Y269128D01*
X115025D01*
X116357Y270460D01*
Y273126D01*
X115025Y274459D01*
X109693D01*
X265275Y256150D02*
X266607Y254818D01*
Y252152D01*
X265275Y250819D01*
X259943D01*
X258610Y252152D01*
Y254818D01*
X259943Y256150D01*
X258610Y258816D02*
Y261482D01*
Y260149D01*
X266607D01*
X265275Y258816D01*
X259943Y265481D02*
X258610Y266814D01*
Y269480D01*
X259943Y270812D01*
X265275D01*
X266607Y269480D01*
Y266814D01*
X265275Y265481D01*
X263942D01*
X262609Y266814D01*
Y270812D01*
X130023Y161064D02*
Y154400D01*
X128690Y153067D01*
X126025D01*
X124692Y154400D01*
Y161064D01*
X116694Y153067D02*
X122026D01*
X116694Y158399D01*
Y159732D01*
X118027Y161064D01*
X120693D01*
X122026Y159732D01*
X126025Y88483D02*
X127358Y87150D01*
Y84484D01*
X126025Y83151D01*
X120693D01*
X119360Y84484D01*
Y87150D01*
X120693Y88483D01*
X119360Y96480D02*
Y91149D01*
X124692Y96480D01*
X126025D01*
X127358Y95147D01*
Y92482D01*
X126025Y91149D01*
X768860Y661901D02*
X776858D01*
Y665900D01*
X775525Y667233D01*
X772859D01*
X771526Y665900D01*
Y661901D01*
Y664567D02*
X768860Y667233D01*
X770193Y669899D02*
X768860Y671232D01*
Y673897D01*
X770193Y675230D01*
X775525D01*
X776858Y673897D01*
Y671232D01*
X775525Y669899D01*
X774192D01*
X772859Y671232D01*
Y675230D01*
X152273Y139317D02*
Y147314D01*
X148274D01*
X146941Y145982D01*
Y143316D01*
X148274Y141983D01*
X152273D01*
X149607D02*
X146941Y139317D01*
X144275D02*
X141609D01*
X142942D01*
Y147314D01*
X144275Y145982D01*
X137611Y139317D02*
X134945D01*
X136278D01*
Y147314D01*
X137611Y145982D01*
X98862Y203314D02*
Y195317D01*
X102861D01*
X104194Y196650D01*
Y199316D01*
X102861Y200649D01*
X98862D01*
X101528D02*
X104194Y203314D01*
X106860D02*
X109525D01*
X108192D01*
Y195317D01*
X106860Y196650D01*
X113524D02*
X114857Y195317D01*
X117523D01*
X118856Y196650D01*
Y201982D01*
X117523Y203314D01*
X114857D01*
X113524Y201982D01*
Y196650D01*
X525523Y145814D02*
Y137817D01*
X521525D01*
X520192Y139150D01*
Y144481D01*
X521525Y145814D01*
X525523D01*
X512194D02*
X514860Y144481D01*
X517526Y141816D01*
Y139150D01*
X516193Y137817D01*
X513527D01*
X512194Y139150D01*
Y140483D01*
X513527Y141816D01*
X517526D01*
X411773Y178314D02*
Y170317D01*
X407775D01*
X406442Y171650D01*
Y176982D01*
X407775Y178314D01*
X411773D01*
X398444D02*
X403776D01*
Y174316D01*
X401110Y175649D01*
X399777D01*
X398444Y174316D01*
Y171650D01*
X399777Y170317D01*
X402443D01*
X403776Y171650D01*
X514612Y112370D02*
Y104373D01*
X510614D01*
X509281Y105706D01*
Y111037D01*
X510614Y112370D01*
X514612D01*
X506615Y111037D02*
X505282Y112370D01*
X502616D01*
X501283Y111037D01*
Y109704D01*
X502616Y108371D01*
X503949D01*
X502616D01*
X501283Y107039D01*
Y105706D01*
X502616Y104373D01*
X505282D01*
X506615Y105706D01*
X550523Y146565D02*
Y138567D01*
X546525D01*
X545192Y139900D01*
Y145232D01*
X546525Y146565D01*
X550523D01*
X537194Y138567D02*
X542526D01*
X537194Y143899D01*
Y145232D01*
X538527Y146565D01*
X541193D01*
X542526Y145232D01*
X180944Y120650D02*
X179611Y119317D01*
X176945D01*
X175612Y120650D01*
Y125982D01*
X176945Y127314D01*
X179611D01*
X180944Y125982D01*
X183610Y127314D02*
X186275D01*
X184942D01*
Y119317D01*
X183610Y120650D01*
X190274D02*
X191607Y119317D01*
X194273D01*
X195606Y120650D01*
Y125982D01*
X194273Y127314D01*
X191607D01*
X190274Y125982D01*
Y120650D01*
X249025Y154233D02*
X250358Y152900D01*
Y150234D01*
X249025Y148901D01*
X243693D01*
X242360Y150234D01*
Y152900D01*
X243693Y154233D01*
Y156899D02*
X242360Y158232D01*
Y160897D01*
X243693Y162230D01*
X249025D01*
X250358Y160897D01*
Y158232D01*
X249025Y156899D01*
X247692D01*
X246359Y158232D01*
Y162230D01*
X429522Y530317D02*
Y538314D01*
X425523D01*
X424190Y536982D01*
Y534316D01*
X425523Y532983D01*
X429522D01*
X426856D02*
X424190Y530317D01*
X421525Y536982D02*
X420192Y538314D01*
X417526D01*
X416193Y536982D01*
Y535649D01*
X417526Y534316D01*
X418859D01*
X417526D01*
X416193Y532983D01*
Y531650D01*
X417526Y530317D01*
X420192D01*
X421525Y531650D01*
X413527Y536982D02*
X412194Y538314D01*
X409529D01*
X408196Y536982D01*
Y531650D01*
X409529Y530317D01*
X412194D01*
X413527Y531650D01*
Y536982D01*
X309609Y91564D02*
X312275D01*
X310942D01*
Y84900D01*
X312275Y83567D01*
X313608D01*
X314940Y84900D01*
X306943Y83567D02*
X304277D01*
X305610D01*
Y91564D01*
X306943Y90232D01*
X648443Y266231D02*
X647110Y267564D01*
Y270230D01*
X648443Y271562D01*
X653775D01*
X655107Y270230D01*
Y267564D01*
X653775Y266231D01*
X655107Y263565D02*
Y260899D01*
Y262232D01*
X647110D01*
X648443Y263565D01*
X647110Y251569D02*
X648443Y254235D01*
X651109Y256901D01*
X653775D01*
X655107Y255568D01*
Y252902D01*
X653775Y251569D01*
X652442D01*
X651109Y252902D01*
Y256901D01*
X734775Y229650D02*
X736107Y228318D01*
Y225652D01*
X734775Y224319D01*
X729443D01*
X728110Y225652D01*
Y228318D01*
X729443Y229650D01*
X728110Y232316D02*
Y234982D01*
Y233649D01*
X736107D01*
X734775Y232316D01*
X736107Y244312D02*
Y238981D01*
X732109D01*
X733442Y241647D01*
Y242980D01*
X732109Y244312D01*
X729443D01*
X728110Y242980D01*
Y240314D01*
X729443Y238981D01*
D70*
X111119Y166079D02*
G03*
X111119Y166079I-250J0D01*
G01*
X25506Y245816D02*
X134756D01*
X164859Y52816D02*
Y211066D01*
M02*
