G04*
G04 #@! TF.GenerationSoftware,Altium Limited,Altium Designer,24.0.1 (36)*
G04*
G04 Layer_Color=8388736*
%FSLAX44Y44*%
%MOMM*%
G71*
G04*
G04 #@! TF.SameCoordinates,3C6FB229-8EB3-43CD-B7CA-B0B301390D20*
G04*
G04*
G04 #@! TF.FilePolarity,Positive*
G04*
G01*
G75*
%ADD14C,0.2000*%
D14*
X193050Y215465D02*
X204550D01*
Y238465D01*
X193050D02*
X204550D01*
X193050Y215465D02*
Y238465D01*
X227609Y284816D02*
Y296316D01*
X204609D02*
X227609D01*
X204609Y284816D02*
Y296316D01*
Y284816D02*
X227609D01*
X60359Y293566D02*
Y305066D01*
Y293566D02*
X83359D01*
Y305066D01*
X60359D02*
X83359D01*
X91397Y251755D02*
Y263255D01*
X68397D02*
X91397D01*
X68397Y251755D02*
Y263255D01*
Y251755D02*
X91397D01*
X596270Y147260D02*
X607770D01*
Y170260D01*
X596270D02*
X607770D01*
X596270Y147260D02*
Y170260D01*
X657609Y143316D02*
X669109D01*
Y166316D01*
X657609D02*
X669109D01*
X657609Y143316D02*
Y166316D01*
X700609Y288299D02*
X712109D01*
X700609Y265299D02*
Y288299D01*
Y265299D02*
X712109D01*
Y288299D01*
X688359Y214316D02*
X699859D01*
X688359Y191316D02*
Y214316D01*
Y191316D02*
X699859D01*
Y214316D01*
X194359Y105316D02*
X205859D01*
X194359Y82316D02*
Y105316D01*
Y82316D02*
X205859D01*
Y105316D01*
X171609D02*
X183109D01*
X171609Y82316D02*
Y105316D01*
Y82316D02*
X183109D01*
Y105316D01*
X428609Y496316D02*
X440109D01*
Y519316D01*
X428609D02*
X440109D01*
X428609Y496316D02*
Y519316D01*
X132359Y238816D02*
Y250316D01*
X109359D02*
X132359D01*
X109359Y238816D02*
Y250316D01*
Y238816D02*
X132359D01*
X675609Y270816D02*
X687109D01*
Y293816D01*
X675609D02*
X687109D01*
X675609Y270816D02*
Y293816D01*
X672726Y328550D02*
X703935D01*
Y297848D02*
Y328550D01*
X672726Y297848D02*
X703935D01*
X672726D02*
Y328550D01*
X678109Y73316D02*
Y109316D01*
X617609D02*
X678109D01*
X617609Y73316D02*
Y109316D01*
Y73316D02*
X678109D01*
X235008Y46671D02*
X265710D01*
X235008Y15461D02*
Y46671D01*
Y15461D02*
X265710D01*
Y46671D01*
X703754Y83465D02*
Y114167D01*
Y83465D02*
X734964D01*
Y114167D01*
X703754D02*
X734964D01*
X738258Y229211D02*
X768960D01*
Y260421D01*
X738258D02*
X768960D01*
X738258Y229211D02*
Y260421D01*
X737958Y268261D02*
X768660D01*
Y299471D01*
X737958D02*
X768660D01*
X737958Y268261D02*
Y299471D01*
X412008Y212961D02*
Y244171D01*
X442710D01*
Y212961D02*
Y244171D01*
X412008Y212961D02*
X442710D01*
X721420Y159755D02*
Y173876D01*
X692298D02*
X721420D01*
X692298Y159755D02*
Y173876D01*
Y159755D02*
X721420D01*
X133548Y314755D02*
X147669D01*
Y343876D01*
X133548D02*
X147669D01*
X133548Y314755D02*
Y343876D01*
X693298Y138255D02*
Y152376D01*
Y138255D02*
X722420D01*
Y152376D01*
X693298D02*
X722420D01*
X96298Y315022D02*
X110420D01*
Y344143D01*
X96298D02*
X110420D01*
X96298Y315022D02*
Y344143D01*
X27508Y171211D02*
X58210D01*
Y202421D01*
X27508D02*
X58210D01*
X27508Y171211D02*
Y202421D01*
X244508Y225171D02*
X275210D01*
X244508Y193961D02*
Y225171D01*
Y193961D02*
X275210D01*
Y225171D01*
X293008Y16711D02*
X323710D01*
Y47921D01*
X293008D02*
X323710D01*
X293008Y16711D02*
Y47921D01*
X782758Y380461D02*
X813460D01*
Y411671D01*
X782758D02*
X813460D01*
X782758Y380461D02*
Y411671D01*
M02*
