G04*
G04 #@! TF.GenerationSoftware,Altium Limited,Altium Designer,24.0.1 (36)*
G04*
G04 Layer_Physical_Order=2*
G04 Layer_Color=36540*
%FSLAX44Y44*%
%MOMM*%
G71*
G04*
G04 #@! TF.SameCoordinates,3C6FB229-8EB3-43CD-B7CA-B0B301390D20*
G04*
G04*
G04 #@! TF.FilePolarity,Positive*
G04*
G01*
G75*
%ADD57O,2.0000X1.5700*%
%ADD62O,1.5700X2.0000*%
%ADD71O,1.0000X1.5240*%
G04:AMPARAMS|DCode=72|XSize=2mm|YSize=2mm|CornerRadius=0.5mm|HoleSize=0mm|Usage=FLASHONLY|Rotation=90.000|XOffset=0mm|YOffset=0mm|HoleType=Round|Shape=RoundedRectangle|*
%AMROUNDEDRECTD72*
21,1,2.0000,1.0000,0,0,90.0*
21,1,1.0000,2.0000,0,0,90.0*
1,1,1.0000,0.5000,0.5000*
1,1,1.0000,0.5000,-0.5000*
1,1,1.0000,-0.5000,-0.5000*
1,1,1.0000,-0.5000,0.5000*
%
%ADD72ROUNDEDRECTD72*%
%ADD73O,1.5000X1.5240*%
%ADD74C,3.7000*%
%ADD75C,0.6000*%
G36*
X817721Y217831D02*
X774660D01*
X774611Y217821D01*
X774560Y217829D01*
X773580Y217781D01*
X773434Y217744D01*
X773282D01*
X771360Y217361D01*
X771174Y217285D01*
X770977Y217245D01*
X769166Y216495D01*
X768999Y216384D01*
X768813Y216307D01*
X767184Y215218D01*
X767042Y215076D01*
X766874Y214964D01*
X765488Y213578D01*
X765377Y213411D01*
X765235Y213269D01*
X764146Y211639D01*
X764069Y211453D01*
X763957Y211286D01*
X763207Y209475D01*
X763168Y209278D01*
X763091Y209093D01*
X762709Y207170D01*
Y207019D01*
X762672Y206872D01*
X762624Y205892D01*
X762631Y205842D01*
X762621Y205792D01*
X762621Y110781D01*
X655350Y3510D01*
X169372D01*
X164279Y7108D01*
X150165Y17905D01*
X136471Y29229D01*
X123217Y41065D01*
X110422Y53396D01*
X98103Y66204D01*
X86280Y79470D01*
X74969Y93175D01*
X64187Y107300D01*
X53948Y121823D01*
X44268Y136725D01*
X35161Y151984D01*
X26639Y167578D01*
X18716Y183483D01*
X11402Y199678D01*
X4708Y216139D01*
X1798Y224153D01*
X1799Y351753D01*
X9760D01*
X9810Y351763D01*
X9860Y351756D01*
X10841Y351804D01*
X10987Y351840D01*
X11138D01*
X13061Y352223D01*
X13247Y352300D01*
X13443Y352339D01*
X15255Y353089D01*
X15422Y353201D01*
X15607Y353278D01*
X17237Y354367D01*
X17379Y354509D01*
X17546Y354620D01*
X18932Y356006D01*
X19044Y356173D01*
X19186Y356315D01*
X20275Y357945D01*
X20352Y358131D01*
X20463Y358298D01*
X21214Y360109D01*
X21253Y360306D01*
X21330Y360491D01*
X21712Y362414D01*
Y362565D01*
X21749Y362712D01*
X21797Y363692D01*
X21789Y363742D01*
X21799Y363792D01*
X21799Y756753D01*
X32721D01*
Y698792D01*
X32731Y698742D01*
X32724Y698692D01*
X32772Y697712D01*
X32809Y697565D01*
Y697414D01*
X33191Y695491D01*
X33268Y695306D01*
X33307Y695109D01*
X34057Y693298D01*
X34169Y693131D01*
X34246Y692945D01*
X35335Y691315D01*
X35477Y691173D01*
X35588Y691006D01*
X36974Y689620D01*
X37142Y689509D01*
X37283Y689367D01*
X38914Y688278D01*
X39099Y688201D01*
X39266Y688089D01*
X41077Y687339D01*
X41274Y687300D01*
X41460Y687223D01*
X43382Y686841D01*
X43534D01*
X43680Y686804D01*
X44660Y686756D01*
X44710Y686763D01*
X44760Y686753D01*
X54760Y686753D01*
X54810Y686763D01*
X54860Y686756D01*
X55841Y686804D01*
X55987Y686841D01*
X56138D01*
X58061Y687223D01*
X58246Y687300D01*
X58443Y687339D01*
X60255Y688089D01*
X60422Y688201D01*
X60607Y688278D01*
X62237Y689367D01*
X62379Y689509D01*
X62546Y689620D01*
X63932Y691006D01*
X64044Y691173D01*
X64186Y691315D01*
X65275Y692945D01*
X65352Y693131D01*
X65463Y693298D01*
X66213Y695109D01*
X66253Y695306D01*
X66330Y695491D01*
X66712Y697414D01*
Y697565D01*
X66749Y697712D01*
X66797Y698692D01*
X66789Y698742D01*
X66799Y698792D01*
X66799Y756753D01*
X77721D01*
Y363792D01*
X77731Y363742D01*
X77724Y363692D01*
X77772Y362712D01*
X77809Y362565D01*
Y362414D01*
X78191Y360491D01*
X78268Y360306D01*
X78307Y360109D01*
X79057Y358298D01*
X79169Y358131D01*
X79246Y357945D01*
X80335Y356315D01*
X80477Y356173D01*
X80588Y356006D01*
X81974Y354620D01*
X82142Y354509D01*
X82284Y354367D01*
X83913Y353278D01*
X84099Y353201D01*
X84266Y353089D01*
X86077Y352339D01*
X86274Y352300D01*
X86460Y352223D01*
X88382Y351841D01*
X88533D01*
X88680Y351804D01*
X89660Y351756D01*
X89711Y351763D01*
X89760Y351753D01*
X149201Y351753D01*
X282721Y272630D01*
Y163792D01*
X282731Y163742D01*
X282724Y163692D01*
X282772Y162712D01*
X282809Y162565D01*
Y162414D01*
X283191Y160492D01*
X283268Y160306D01*
X283307Y160109D01*
X284057Y158298D01*
X284169Y158131D01*
X284246Y157945D01*
X285335Y156315D01*
X285477Y156173D01*
X285588Y156006D01*
X286975Y154620D01*
X287142Y154509D01*
X287284Y154367D01*
X288913Y153278D01*
X289099Y153201D01*
X289266Y153089D01*
X291077Y152339D01*
X291274Y152300D01*
X291460Y152223D01*
X293382Y151840D01*
X293533D01*
X293680Y151804D01*
X294660Y151756D01*
X294711Y151763D01*
X294760Y151753D01*
X374760Y151753D01*
X374810Y151763D01*
X374860Y151756D01*
X375840Y151804D01*
X375987Y151840D01*
X376138D01*
X378061Y152223D01*
X378246Y152300D01*
X378443Y152339D01*
X380255Y153089D01*
X380421Y153201D01*
X380607Y153278D01*
X382237Y154367D01*
X382379Y154509D01*
X382546Y154620D01*
X383932Y156006D01*
X384044Y156173D01*
X384186Y156315D01*
X385275Y157945D01*
X385352Y158131D01*
X385463Y158298D01*
X386213Y160109D01*
X386253Y160306D01*
X386330Y160492D01*
X386712Y162414D01*
Y162565D01*
X386749Y162712D01*
X386797Y163692D01*
X386789Y163742D01*
X386799Y163792D01*
X386799Y571753D01*
X452721D01*
Y163792D01*
X452731Y163742D01*
X452724Y163692D01*
X452772Y162712D01*
X452809Y162565D01*
Y162414D01*
X453191Y160492D01*
X453268Y160306D01*
X453307Y160109D01*
X454057Y158298D01*
X454169Y158131D01*
X454246Y157945D01*
X455335Y156315D01*
X455477Y156173D01*
X455588Y156006D01*
X456974Y154620D01*
X457142Y154509D01*
X457284Y154367D01*
X458913Y153278D01*
X459099Y153201D01*
X459266Y153089D01*
X461077Y152339D01*
X461274Y152300D01*
X461460Y152223D01*
X463382Y151840D01*
X463534D01*
X463680Y151804D01*
X464660Y151756D01*
X464711Y151763D01*
X464760Y151753D01*
X544760Y151753D01*
X544810Y151763D01*
X544860Y151756D01*
X545840Y151804D01*
X545987Y151840D01*
X546138D01*
X548061Y152223D01*
X548246Y152300D01*
X548443Y152339D01*
X550255Y153089D01*
X550421Y153201D01*
X550607Y153278D01*
X552237Y154367D01*
X552379Y154509D01*
X552546Y154620D01*
X553932Y156006D01*
X554044Y156173D01*
X554186Y156315D01*
X555275Y157945D01*
X555352Y158131D01*
X555463Y158298D01*
X556213Y160109D01*
X556253Y160306D01*
X556329Y160492D01*
X556712Y162414D01*
Y162565D01*
X556749Y162712D01*
X556797Y163692D01*
X556789Y163742D01*
X556799Y163792D01*
X556799Y272630D01*
X690319Y351753D01*
X749760D01*
X749810Y351763D01*
X749860Y351756D01*
X750841Y351804D01*
X750987Y351840D01*
X751138D01*
X753061Y352223D01*
X753247Y352300D01*
X753444Y352339D01*
X755255Y353089D01*
X755422Y353201D01*
X755607Y353278D01*
X757237Y354367D01*
X757379Y354509D01*
X757546Y354620D01*
X758932Y356006D01*
X759044Y356173D01*
X759186Y356315D01*
X760275Y357945D01*
X760352Y358131D01*
X760463Y358298D01*
X761214Y360109D01*
X761253Y360306D01*
X761329Y360491D01*
X761712Y362414D01*
Y362565D01*
X761749Y362712D01*
X761797Y363692D01*
X761789Y363742D01*
X761799Y363792D01*
X761799Y756753D01*
X772721D01*
X772721Y698792D01*
X772731Y698742D01*
X772724Y698692D01*
X772772Y697712D01*
X772809Y697565D01*
Y697414D01*
X773191Y695491D01*
X773268Y695306D01*
X773307Y695109D01*
X774057Y693298D01*
X774169Y693131D01*
X774246Y692945D01*
X775335Y691315D01*
X775477Y691173D01*
X775588Y691006D01*
X776974Y689620D01*
X777141Y689509D01*
X777283Y689367D01*
X778913Y688278D01*
X779099Y688201D01*
X779266Y688089D01*
X781077Y687339D01*
X781274Y687300D01*
X781460Y687223D01*
X783382Y686841D01*
X783533D01*
X783680Y686804D01*
X784660Y686756D01*
X784710Y686763D01*
X784760Y686753D01*
X794760Y686753D01*
X794810Y686763D01*
X794860Y686756D01*
X795841Y686804D01*
X795987Y686841D01*
X796138D01*
X798061Y687223D01*
X798247Y687300D01*
X798444Y687339D01*
X800255Y688089D01*
X800422Y688201D01*
X800607Y688278D01*
X802237Y689367D01*
X802379Y689509D01*
X802546Y689620D01*
X803932Y691006D01*
X804044Y691173D01*
X804186Y691315D01*
X805275Y692945D01*
X805352Y693131D01*
X805463Y693298D01*
X806214Y695109D01*
X806253Y695306D01*
X806330Y695491D01*
X806712Y697414D01*
Y697565D01*
X806749Y697712D01*
X806797Y698692D01*
X806789Y698742D01*
X806799Y698792D01*
X806799Y756753D01*
X817721D01*
Y217831D01*
D02*
G37*
%LPC*%
G36*
X433109Y566032D02*
X431402Y565807D01*
X429811Y565148D01*
X428445Y564100D01*
X427396Y562734D01*
X426737Y561143D01*
X426512Y559436D01*
Y554196D01*
X426737Y552488D01*
X427396Y550897D01*
X428445Y549531D01*
X429811Y548483D01*
X431402Y547824D01*
X433109Y547599D01*
X434816Y547824D01*
X436407Y548483D01*
X437773Y549531D01*
X438821Y550897D01*
X439481Y552488D01*
X439705Y554196D01*
Y559436D01*
X439481Y561143D01*
X438821Y562734D01*
X437773Y564100D01*
X436407Y565148D01*
X434816Y565807D01*
X433109Y566032D01*
D02*
G37*
G36*
X408109Y565938D02*
X406401Y565713D01*
X404811Y565054D01*
X403445Y564006D01*
X402396Y562639D01*
X401737Y561049D01*
X401512Y559341D01*
Y554101D01*
X401737Y552394D01*
X402396Y550803D01*
X403445Y549437D01*
X404811Y548388D01*
X406401Y547729D01*
X408109Y547505D01*
X409816Y547729D01*
X411407Y548388D01*
X412773Y549437D01*
X413821Y550803D01*
X414481Y552394D01*
X414705Y554101D01*
Y559341D01*
X414481Y561049D01*
X413821Y562639D01*
X412773Y564006D01*
X411407Y565054D01*
X409816Y565713D01*
X408109Y565938D01*
D02*
G37*
G36*
X799379Y408528D02*
Y397336D01*
X808588D01*
Y398216D01*
X808231Y400928D01*
X807185Y403456D01*
X805519Y405626D01*
X803349Y407291D01*
X800821Y408338D01*
X799379Y408528D01*
D02*
G37*
G36*
X796839D02*
X795396Y408338D01*
X792869Y407291D01*
X790699Y405626D01*
X789033Y403456D01*
X787986Y400928D01*
X787629Y398216D01*
Y397336D01*
X796839D01*
Y408528D01*
D02*
G37*
G36*
X432262Y402856D02*
X430456D01*
X428787Y402164D01*
X427510Y400887D01*
X426819Y399219D01*
Y397413D01*
X427510Y395744D01*
X428787Y394467D01*
X430456Y393776D01*
X432262D01*
X433931Y394467D01*
X435208Y395744D01*
X435899Y397413D01*
Y399219D01*
X435208Y400887D01*
X433931Y402164D01*
X432262Y402856D01*
D02*
G37*
G36*
X808588Y394796D02*
X799379D01*
Y383603D01*
X800821Y383793D01*
X803349Y384840D01*
X805519Y386506D01*
X807185Y388676D01*
X808231Y391203D01*
X808588Y393916D01*
Y394796D01*
D02*
G37*
G36*
X796839D02*
X787629D01*
Y393916D01*
X787986Y391203D01*
X789033Y388676D01*
X790699Y386506D01*
X792869Y384840D01*
X795396Y383793D01*
X796839Y383603D01*
Y394796D01*
D02*
G37*
G36*
X176012Y323856D02*
X174206D01*
X172537Y323165D01*
X171260Y321887D01*
X170569Y320219D01*
Y318413D01*
X171260Y316744D01*
X172537Y315467D01*
X174206Y314776D01*
X176012D01*
X177680Y315467D01*
X178958Y316744D01*
X179649Y318413D01*
Y320219D01*
X178958Y321887D01*
X177680Y323165D01*
X176012Y323856D01*
D02*
G37*
G36*
X690480Y322671D02*
X686180D01*
X683729Y322348D01*
X681445Y321402D01*
X679483Y319897D01*
X677978Y317935D01*
X677032Y315651D01*
X676710Y313200D01*
X677032Y310748D01*
X677978Y308464D01*
X679483Y306502D01*
X681445Y304997D01*
X683729Y304051D01*
X686180Y303729D01*
X690480D01*
X692932Y304051D01*
X695216Y304997D01*
X697178Y306502D01*
X698683Y308464D01*
X699629Y310748D01*
X699952Y313200D01*
X699629Y315651D01*
X698683Y317935D01*
X697178Y319897D01*
X695216Y321402D01*
X692932Y322348D01*
X690480Y322671D01*
D02*
G37*
G36*
X753309Y295487D02*
X750858Y295164D01*
X748573Y294218D01*
X746612Y292713D01*
X745107Y290751D01*
X744161Y288467D01*
X743838Y286016D01*
Y281716D01*
X744161Y279264D01*
X745107Y276980D01*
X746612Y275019D01*
X748573Y273514D01*
X750858Y272567D01*
X753309Y272245D01*
X755760Y272567D01*
X758044Y273514D01*
X760006Y275019D01*
X761511Y276980D01*
X762457Y279264D01*
X762780Y281716D01*
Y286016D01*
X762457Y288467D01*
X761511Y290751D01*
X760006Y292713D01*
X758044Y294218D01*
X755760Y295164D01*
X753309Y295487D01*
D02*
G37*
G36*
X253512Y276606D02*
X251706D01*
X250037Y275915D01*
X248760Y274637D01*
X248069Y272969D01*
Y271163D01*
X248760Y269494D01*
X250037Y268217D01*
X251706Y267526D01*
X253512D01*
X255180Y268217D01*
X256458Y269494D01*
X257149Y271163D01*
Y272969D01*
X256458Y274637D01*
X255180Y275915D01*
X253512Y276606D01*
D02*
G37*
G36*
X617762Y268606D02*
X615956D01*
X614287Y267915D01*
X613010Y266637D01*
X612319Y264969D01*
Y263163D01*
X613010Y261494D01*
X614287Y260217D01*
X615956Y259526D01*
X617762D01*
X619431Y260217D01*
X620708Y261494D01*
X621399Y263163D01*
Y264969D01*
X620708Y266637D01*
X619431Y267915D01*
X617762Y268606D01*
D02*
G37*
G36*
X716512Y260356D02*
X714706D01*
X713037Y259665D01*
X711760Y258387D01*
X711069Y256719D01*
Y254913D01*
X711760Y253244D01*
X713037Y251967D01*
X714706Y251276D01*
X716512D01*
X718180Y251967D01*
X719458Y253244D01*
X720149Y254913D01*
Y256719D01*
X719458Y258387D01*
X718180Y259665D01*
X716512Y260356D01*
D02*
G37*
G36*
X571262Y248106D02*
X569456D01*
X567787Y247415D01*
X566510Y246137D01*
X565819Y244469D01*
Y242663D01*
X566510Y240994D01*
X567787Y239717D01*
X569456Y239026D01*
X571262D01*
X572930Y239717D01*
X574208Y240994D01*
X574899Y242663D01*
Y244469D01*
X574208Y246137D01*
X572930Y247415D01*
X571262Y248106D01*
D02*
G37*
G36*
X753609Y256437D02*
X751158Y256114D01*
X748873Y255168D01*
X746912Y253663D01*
X745407Y251701D01*
X744461Y249417D01*
X744138Y246966D01*
Y242666D01*
X744461Y240214D01*
X745407Y237930D01*
X746912Y235969D01*
X748873Y234464D01*
X751158Y233517D01*
X753609Y233195D01*
X756060Y233517D01*
X758344Y234464D01*
X760306Y235969D01*
X761811Y237930D01*
X762757Y240214D01*
X763080Y242666D01*
Y246966D01*
X762757Y249417D01*
X761811Y251701D01*
X760306Y253663D01*
X758344Y255168D01*
X756060Y256114D01*
X753609Y256437D01*
D02*
G37*
G36*
X427359Y240187D02*
X424908Y239864D01*
X422623Y238918D01*
X420662Y237413D01*
X419157Y235451D01*
X418210Y233167D01*
X417888Y230716D01*
Y226416D01*
X418210Y223964D01*
X419157Y221680D01*
X420662Y219719D01*
X422623Y218214D01*
X424908Y217267D01*
X427359Y216945D01*
X429810Y217267D01*
X432094Y218214D01*
X434056Y219719D01*
X435561Y221680D01*
X436507Y223964D01*
X436830Y226416D01*
Y230716D01*
X436507Y233167D01*
X435561Y235451D01*
X434056Y237413D01*
X432094Y238918D01*
X429810Y239864D01*
X427359Y240187D01*
D02*
G37*
G36*
X184012Y221856D02*
X182206D01*
X180537Y221165D01*
X179260Y219887D01*
X178569Y218219D01*
Y216413D01*
X179260Y214744D01*
X180537Y213467D01*
X182206Y212776D01*
X184012D01*
X185681Y213467D01*
X186958Y214744D01*
X187649Y216413D01*
Y218219D01*
X186958Y219887D01*
X185681Y221165D01*
X184012Y221856D01*
D02*
G37*
G36*
X138262Y212856D02*
X136456D01*
X134787Y212164D01*
X133510Y210887D01*
X132819Y209219D01*
Y207413D01*
X133510Y205744D01*
X134787Y204467D01*
X136456Y203776D01*
X138262D01*
X139930Y204467D01*
X141208Y205744D01*
X141899Y207413D01*
Y209219D01*
X141208Y210887D01*
X139930Y212164D01*
X138262Y212856D01*
D02*
G37*
G36*
X259859Y221187D02*
X257408Y220864D01*
X255123Y219918D01*
X253162Y218413D01*
X251657Y216451D01*
X250711Y214167D01*
X250388Y211716D01*
Y207416D01*
X250711Y204964D01*
X251657Y202680D01*
X253162Y200719D01*
X255123Y199214D01*
X257408Y198267D01*
X259859Y197945D01*
X262310Y198267D01*
X264594Y199214D01*
X266556Y200719D01*
X268061Y202680D01*
X269007Y204964D01*
X269330Y207416D01*
Y211716D01*
X269007Y214167D01*
X268061Y216451D01*
X266556Y218413D01*
X264594Y219918D01*
X262310Y220864D01*
X259859Y221187D01*
D02*
G37*
G36*
X586262Y199606D02*
X584456D01*
X582787Y198915D01*
X581510Y197637D01*
X580819Y195969D01*
Y194163D01*
X581510Y192494D01*
X582787Y191217D01*
X584456Y190526D01*
X586262D01*
X587930Y191217D01*
X589208Y192494D01*
X589899Y194163D01*
Y195969D01*
X589208Y197637D01*
X587930Y198915D01*
X586262Y199606D01*
D02*
G37*
G36*
X102223Y188224D02*
X96877Y188208D01*
X96698Y188172D01*
X96516Y188174D01*
X91257Y187213D01*
X91088Y187146D01*
X90908Y187116D01*
X85901Y185240D01*
X85747Y185144D01*
X85575Y185084D01*
X80979Y182352D01*
X80844Y182230D01*
X80686Y182140D01*
X76645Y178638D01*
X76533Y178495D01*
X76394Y178378D01*
X73036Y174217D01*
X72951Y174056D01*
X72834Y173917D01*
X70265Y169228D01*
X70210Y169055D01*
X70120Y168897D01*
X68420Y163827D01*
X68397Y163647D01*
X68336Y163475D01*
X67558Y158186D01*
X67568Y158004D01*
X67538Y157824D01*
X67708Y152480D01*
X67749Y152303D01*
X67752Y152121D01*
X68864Y146891D01*
X68936Y146724D01*
X68971Y146545D01*
X70990Y141595D01*
X71090Y141443D01*
X71156Y141273D01*
X74019Y136758D01*
X74145Y136626D01*
X74239Y136470D01*
X77855Y132532D01*
X78002Y132425D01*
X78123Y132288D01*
X82378Y129052D01*
X82542Y128972D01*
X82684Y128859D01*
X87445Y126425D01*
X87620Y126376D01*
X87781Y126290D01*
X92897Y124736D01*
X93078Y124718D01*
X93251Y124662D01*
X98561Y124037D01*
X98742Y124052D01*
X98923Y124027D01*
X104259Y124351D01*
X104436Y124397D01*
X104617Y124405D01*
X109813Y125667D01*
X109978Y125744D01*
X110155Y125784D01*
X115046Y127944D01*
X115195Y128049D01*
X115363Y128120D01*
X119794Y131111D01*
X119922Y131240D01*
X120075Y131339D01*
X123907Y135067D01*
X124011Y135217D01*
X124144Y135342D01*
X125700Y137515D01*
X125700Y137515D01*
X125927Y137832D01*
X125993Y137977D01*
X126091Y138103D01*
X126441Y138799D01*
X126483Y138952D01*
X126561Y139091D01*
X126799Y139833D01*
X126817Y139992D01*
X126872Y140141D01*
X126993Y140911D01*
X126986Y141070D01*
X127017Y141227D01*
X127017Y141616D01*
Y142411D01*
X126955Y142725D01*
X126917Y143042D01*
X126425Y144554D01*
X126268Y144833D01*
X126133Y145123D01*
X125197Y146408D01*
X124962Y146624D01*
X124744Y146859D01*
X123456Y147790D01*
X123165Y147923D01*
X122885Y148079D01*
X121371Y148565D01*
X121053Y148601D01*
X120739Y148662D01*
X119150Y148656D01*
X118836Y148592D01*
X118518Y148553D01*
X117009Y148054D01*
X116731Y147896D01*
X116441Y147760D01*
X115161Y146818D01*
X114945Y146582D01*
X114711Y146363D01*
X114280Y145761D01*
X113119Y144306D01*
X110342Y141760D01*
X107145Y139868D01*
X103628Y138674D01*
X99940Y138230D01*
X96240Y138554D01*
X92686Y139634D01*
X89430Y141421D01*
X86612Y143841D01*
X84353Y146789D01*
X82748Y150140D01*
X81868Y153748D01*
X81750Y157461D01*
X82399Y161118D01*
X83786Y164564D01*
X85853Y167650D01*
X88511Y170244D01*
X91647Y172236D01*
X95125Y173539D01*
X98797Y174099D01*
X102505Y173891D01*
X106092Y172923D01*
X109402Y171238D01*
X112336Y168874D01*
X113587Y167497D01*
X114043Y166938D01*
X114284Y166740D01*
X114507Y166522D01*
X115803Y165675D01*
X116093Y165559D01*
X116372Y165418D01*
X117864Y165003D01*
X118175Y164979D01*
X118483Y164929D01*
X120030Y164984D01*
X120334Y165056D01*
X120643Y165102D01*
X122101Y165622D01*
X122369Y165782D01*
X122650Y165919D01*
X123883Y166856D01*
X124090Y167089D01*
X124316Y167304D01*
X125208Y168570D01*
X125335Y168855D01*
X125485Y169129D01*
X125954Y170605D01*
X125988Y170915D01*
X126049Y171221D01*
X126049Y172425D01*
X126015Y172597D01*
X126019Y172773D01*
X125873Y173619D01*
X125809Y173783D01*
X125784Y173957D01*
X125495Y174766D01*
X125405Y174917D01*
X125350Y175084D01*
X124928Y175832D01*
X124813Y175965D01*
X124731Y176120D01*
X124459Y176453D01*
X124459Y176453D01*
X122767Y178523D01*
X122627Y178638D01*
X122514Y178781D01*
X118452Y182257D01*
X118293Y182347D01*
X118157Y182467D01*
X113544Y185171D01*
X113372Y185230D01*
X113217Y185325D01*
X108198Y187170D01*
X108019Y187199D01*
X107849Y187265D01*
X102584Y188193D01*
X102402Y188189D01*
X102223Y188224D01*
D02*
G37*
G36*
X157262Y191856D02*
X155456D01*
X153787Y191165D01*
X152510Y189887D01*
X151819Y188219D01*
Y186413D01*
X152510Y184744D01*
X153787Y183467D01*
X155456Y182776D01*
X157262D01*
X158931Y183467D01*
X160208Y184744D01*
X160899Y186413D01*
Y188219D01*
X160208Y189887D01*
X158931Y191165D01*
X157262Y191856D01*
D02*
G37*
G36*
X696262Y185606D02*
X694456D01*
X692787Y184915D01*
X691510Y183637D01*
X690819Y181969D01*
Y180163D01*
X691510Y178494D01*
X692787Y177217D01*
X694456Y176526D01*
X696262D01*
X697931Y177217D01*
X699208Y178494D01*
X699899Y180163D01*
Y181969D01*
X699208Y183637D01*
X697931Y184915D01*
X696262Y185606D01*
D02*
G37*
G36*
X42859Y198437D02*
X40408Y198114D01*
X38123Y197168D01*
X36162Y195663D01*
X34657Y193701D01*
X33710Y191417D01*
X33388Y188966D01*
Y184666D01*
X33710Y182214D01*
X34657Y179930D01*
X36162Y177969D01*
X38123Y176464D01*
X40408Y175517D01*
X42859Y175195D01*
X45310Y175517D01*
X47594Y176464D01*
X49556Y177969D01*
X51061Y179930D01*
X52007Y182214D01*
X52330Y184666D01*
Y188966D01*
X52007Y191417D01*
X51061Y193701D01*
X49556Y195663D01*
X47594Y197168D01*
X45310Y198114D01*
X42859Y198437D01*
D02*
G37*
G36*
X99762Y172106D02*
X97956D01*
X96287Y171415D01*
X95010Y170137D01*
X94319Y168469D01*
Y166663D01*
X95010Y164994D01*
X96287Y163717D01*
X97956Y163026D01*
X99762D01*
X101431Y163717D01*
X102708Y164994D01*
X103399Y166663D01*
Y168469D01*
X102708Y170137D01*
X101431Y171415D01*
X99762Y172106D01*
D02*
G37*
G36*
X414012Y166856D02*
X412206D01*
X410537Y166165D01*
X409260Y164887D01*
X408569Y163219D01*
Y161413D01*
X409260Y159744D01*
X410537Y158467D01*
X412206Y157776D01*
X414012D01*
X415681Y158467D01*
X416958Y159744D01*
X417649Y161413D01*
Y163219D01*
X416958Y164887D01*
X415681Y166165D01*
X414012Y166856D01*
D02*
G37*
G36*
X241512Y147356D02*
X239706D01*
X238037Y146665D01*
X236760Y145387D01*
X236069Y143719D01*
Y141913D01*
X236760Y140244D01*
X238037Y138967D01*
X239706Y138276D01*
X241512D01*
X243181Y138967D01*
X244458Y140244D01*
X245149Y141913D01*
Y143719D01*
X244458Y145387D01*
X243181Y146665D01*
X241512Y147356D01*
D02*
G37*
G36*
X160262Y146856D02*
X158456D01*
X156787Y146165D01*
X155510Y144887D01*
X154819Y143219D01*
Y141413D01*
X155510Y139744D01*
X156787Y138467D01*
X158456Y137776D01*
X160262D01*
X161931Y138467D01*
X163208Y139744D01*
X163899Y141413D01*
Y143219D01*
X163208Y144887D01*
X161931Y146165D01*
X160262Y146856D01*
D02*
G37*
G36*
X488012Y137856D02*
X486206D01*
X484537Y137164D01*
X483260Y135887D01*
X482569Y134219D01*
Y132413D01*
X483260Y130744D01*
X484537Y129467D01*
X486206Y128776D01*
X488012D01*
X489680Y129467D01*
X490958Y130744D01*
X491649Y132413D01*
Y134219D01*
X490958Y135887D01*
X489680Y137164D01*
X488012Y137856D01*
D02*
G37*
G36*
X527262Y134106D02*
X525456D01*
X523787Y133415D01*
X522510Y132137D01*
X521819Y130469D01*
Y128663D01*
X522510Y126994D01*
X523787Y125717D01*
X525456Y125026D01*
X527262D01*
X528931Y125717D01*
X530208Y126994D01*
X530899Y128663D01*
Y130469D01*
X530208Y132137D01*
X528931Y133415D01*
X527262Y134106D01*
D02*
G37*
G36*
X451829Y135768D02*
X449469Y135458D01*
X447271Y134547D01*
X445382Y133098D01*
X443933Y131209D01*
X443022Y129010D01*
X442711Y126650D01*
Y126410D01*
X443022Y124051D01*
X443933Y121851D01*
X445382Y119963D01*
X447271Y118514D01*
X449469Y117603D01*
X451829Y117292D01*
X454189Y117603D01*
X456388Y118514D01*
X458277Y119963D01*
X459726Y121851D01*
X460637Y124051D01*
X460947Y126410D01*
Y126650D01*
X460637Y129010D01*
X459726Y131209D01*
X458277Y133098D01*
X456388Y134547D01*
X454189Y135458D01*
X451829Y135768D01*
D02*
G37*
G36*
X401029D02*
X398670Y135458D01*
X396470Y134547D01*
X394582Y133098D01*
X393133Y131209D01*
X392222Y129010D01*
X391912Y126650D01*
Y126410D01*
X392222Y124051D01*
X393133Y121851D01*
X394582Y119963D01*
X396470Y118514D01*
X398670Y117603D01*
X401029Y117292D01*
X403389Y117603D01*
X405588Y118514D01*
X407477Y119963D01*
X408926Y121851D01*
X409837Y124051D01*
X410147Y126410D01*
Y126650D01*
X409837Y129010D01*
X408926Y131209D01*
X407477Y133098D01*
X405588Y134547D01*
X403389Y135458D01*
X401029Y135768D01*
D02*
G37*
G36*
X375629D02*
X373270Y135458D01*
X371071Y134547D01*
X369182Y133098D01*
X367733Y131209D01*
X366822Y129010D01*
X366511Y126650D01*
Y126410D01*
X366822Y124051D01*
X367733Y121851D01*
X369182Y119963D01*
X371071Y118514D01*
X373270Y117603D01*
X375629Y117292D01*
X377989Y117603D01*
X380188Y118514D01*
X382077Y119963D01*
X383526Y121851D01*
X384437Y124051D01*
X384747Y126410D01*
Y126650D01*
X384437Y129010D01*
X383526Y131209D01*
X382077Y133098D01*
X380188Y134547D01*
X377989Y135458D01*
X375629Y135768D01*
D02*
G37*
G36*
X641762Y126106D02*
X639956D01*
X638287Y125415D01*
X637010Y124137D01*
X636319Y122469D01*
Y120663D01*
X637010Y118994D01*
X638287Y117717D01*
X639956Y117026D01*
X641762D01*
X643430Y117717D01*
X644708Y118994D01*
X645399Y120663D01*
Y122469D01*
X644708Y124137D01*
X643430Y125415D01*
X641762Y126106D01*
D02*
G37*
G36*
X426429Y135768D02*
X424070Y135458D01*
X421870Y134547D01*
X419982Y133098D01*
X418533Y131209D01*
X417622Y129010D01*
X417312Y126650D01*
Y126410D01*
X417622Y124051D01*
X418533Y121851D01*
X419982Y119963D01*
X421870Y118514D01*
X424070Y117603D01*
X426429Y117292D01*
X428789Y117603D01*
X430799Y118435D01*
X431467Y118172D01*
X432069Y117742D01*
Y117163D01*
X432760Y115494D01*
X434037Y114217D01*
X435706Y113526D01*
X437512D01*
X439180Y114217D01*
X440458Y115494D01*
X441149Y117163D01*
Y118969D01*
X440458Y120637D01*
X439180Y121915D01*
X437512Y122606D01*
X436013D01*
X435052Y123605D01*
X435237Y124051D01*
X435547Y126410D01*
Y126650D01*
X435237Y129010D01*
X434326Y131209D01*
X432877Y133098D01*
X430988Y134547D01*
X428789Y135458D01*
X426429Y135768D01*
D02*
G37*
G36*
X353542Y117448D02*
X351736D01*
X350067Y116756D01*
X348790Y115479D01*
X348099Y113811D01*
Y112004D01*
X348790Y110336D01*
X350067Y109059D01*
X351736Y108368D01*
X353542D01*
X355211Y109059D01*
X356488Y110336D01*
X357179Y112004D01*
Y113811D01*
X356488Y115479D01*
X355211Y116756D01*
X353542Y117448D01*
D02*
G37*
G36*
X112762Y112606D02*
X110956D01*
X109287Y111915D01*
X108010Y110637D01*
X107319Y108969D01*
Y107163D01*
X108010Y105494D01*
X109287Y104217D01*
X110956Y103526D01*
X112762D01*
X114431Y104217D01*
X115708Y105494D01*
X116399Y107163D01*
Y108969D01*
X115708Y110637D01*
X114431Y111915D01*
X112762Y112606D01*
D02*
G37*
G36*
X544762Y108856D02*
X542956D01*
X541287Y108165D01*
X540010Y106887D01*
X539319Y105219D01*
Y103413D01*
X540010Y101744D01*
X541287Y100467D01*
X542956Y99776D01*
X544762D01*
X546431Y100467D01*
X547708Y101744D01*
X548399Y103413D01*
Y105219D01*
X547708Y106887D01*
X546431Y108165D01*
X544762Y108856D01*
D02*
G37*
G36*
X572442Y108746D02*
X570636D01*
X568967Y108055D01*
X567690Y106778D01*
X566999Y105109D01*
Y103303D01*
X567690Y101634D01*
X568967Y100357D01*
X570636Y99666D01*
X572442D01*
X574110Y100357D01*
X575387Y101634D01*
X576079Y103303D01*
Y105109D01*
X575387Y106778D01*
X574110Y108055D01*
X572442Y108746D01*
D02*
G37*
G36*
X464529Y110368D02*
X462169Y110058D01*
X459971Y109147D01*
X458082Y107698D01*
X456633Y105809D01*
X455722Y103610D01*
X455411Y101250D01*
Y101010D01*
X455722Y98651D01*
X456633Y96451D01*
X458082Y94563D01*
X459971Y93114D01*
X462169Y92203D01*
X464529Y91892D01*
X466889Y92203D01*
X469088Y93114D01*
X470977Y94563D01*
X472426Y96451D01*
X473337Y98651D01*
X473647Y101010D01*
Y101250D01*
X473337Y103610D01*
X472426Y105809D01*
X470977Y107698D01*
X469088Y109147D01*
X466889Y110058D01*
X464529Y110368D01*
D02*
G37*
G36*
X439129D02*
X436769Y110058D01*
X434571Y109147D01*
X432682Y107698D01*
X431233Y105809D01*
X430322Y103610D01*
X430011Y101250D01*
Y101010D01*
X430322Y98651D01*
X431233Y96451D01*
X432682Y94563D01*
X434571Y93114D01*
X436769Y92203D01*
X439129Y91892D01*
X441489Y92203D01*
X443688Y93114D01*
X445577Y94563D01*
X447026Y96451D01*
X447937Y98651D01*
X448247Y101010D01*
Y101250D01*
X447937Y103610D01*
X447026Y105809D01*
X445577Y107698D01*
X443688Y109147D01*
X441489Y110058D01*
X439129Y110368D01*
D02*
G37*
G36*
X413729D02*
X411370Y110058D01*
X409170Y109147D01*
X407282Y107698D01*
X405833Y105809D01*
X404922Y103610D01*
X404612Y101250D01*
Y101010D01*
X404922Y98651D01*
X405833Y96451D01*
X407282Y94563D01*
X409170Y93114D01*
X411370Y92203D01*
X413729Y91892D01*
X416089Y92203D01*
X418288Y93114D01*
X420177Y94563D01*
X421626Y96451D01*
X422537Y98651D01*
X422847Y101010D01*
Y101250D01*
X422537Y103610D01*
X421626Y105809D01*
X420177Y107698D01*
X418288Y109147D01*
X416089Y110058D01*
X413729Y110368D01*
D02*
G37*
G36*
X388329D02*
X385970Y110058D01*
X383770Y109147D01*
X381882Y107698D01*
X380433Y105809D01*
X379522Y103610D01*
X379212Y101250D01*
Y101010D01*
X379522Y98651D01*
X380433Y96451D01*
X381882Y94563D01*
X383770Y93114D01*
X385970Y92203D01*
X388329Y91892D01*
X390689Y92203D01*
X392888Y93114D01*
X394777Y94563D01*
X396226Y96451D01*
X397137Y98651D01*
X397447Y101010D01*
Y101250D01*
X397137Y103610D01*
X396226Y105809D01*
X394777Y107698D01*
X392888Y109147D01*
X390689Y110058D01*
X388329Y110368D01*
D02*
G37*
G36*
X535512Y99106D02*
X533706D01*
X532037Y98415D01*
X530760Y97137D01*
X530069Y95469D01*
Y93663D01*
X530760Y91994D01*
X532037Y90717D01*
X533706Y90026D01*
X535512D01*
X537180Y90717D01*
X538458Y91994D01*
X539149Y93663D01*
Y95469D01*
X538458Y97137D01*
X537180Y98415D01*
X535512Y99106D01*
D02*
G37*
G36*
X581512Y98856D02*
X579706D01*
X578037Y98165D01*
X576760Y96887D01*
X576069Y95219D01*
Y93413D01*
X576760Y91744D01*
X578037Y90467D01*
X579706Y89776D01*
X581512D01*
X583181Y90467D01*
X584458Y91744D01*
X585149Y93413D01*
Y95219D01*
X584458Y96887D01*
X583181Y98165D01*
X581512Y98856D01*
D02*
G37*
G36*
X721509Y108287D02*
X717209D01*
X714758Y107964D01*
X712473Y107018D01*
X710512Y105513D01*
X709007Y103551D01*
X708061Y101267D01*
X707738Y98816D01*
X708061Y96364D01*
X709007Y94080D01*
X710512Y92119D01*
X712473Y90614D01*
X714758Y89667D01*
X717209Y89345D01*
X721509D01*
X723960Y89667D01*
X726244Y90614D01*
X728206Y92119D01*
X729711Y94080D01*
X730657Y96364D01*
X730980Y98816D01*
X730657Y101267D01*
X729711Y103551D01*
X728206Y105513D01*
X726244Y107018D01*
X723960Y107964D01*
X721509Y108287D01*
D02*
G37*
G36*
X597012Y91606D02*
X595206D01*
X593537Y90915D01*
X592260Y89637D01*
X591569Y87969D01*
Y86163D01*
X592260Y84494D01*
X593537Y83217D01*
X595206Y82526D01*
X597012D01*
X598680Y83217D01*
X599958Y84494D01*
X600649Y86163D01*
Y87969D01*
X599958Y89637D01*
X598680Y90915D01*
X597012Y91606D01*
D02*
G37*
G36*
X178762Y82106D02*
X176956D01*
X175287Y81415D01*
X174010Y80137D01*
X173319Y78469D01*
Y76663D01*
X174010Y74994D01*
X175287Y73717D01*
X176956Y73026D01*
X178762D01*
X180431Y73717D01*
X181708Y74994D01*
X182399Y76663D01*
Y78469D01*
X181708Y80137D01*
X180431Y81415D01*
X178762Y82106D01*
D02*
G37*
G36*
X601762Y81606D02*
X599956D01*
X598287Y80915D01*
X597010Y79637D01*
X596319Y77969D01*
Y76163D01*
X597010Y74494D01*
X598287Y73217D01*
X599956Y72526D01*
X601762D01*
X603430Y73217D01*
X604708Y74494D01*
X605399Y76163D01*
Y77969D01*
X604708Y79637D01*
X603430Y80915D01*
X601762Y81606D01*
D02*
G37*
G36*
X612762Y79106D02*
X610956D01*
X609287Y78415D01*
X608010Y77137D01*
X607319Y75469D01*
Y73663D01*
X608010Y71994D01*
X609287Y70717D01*
X610956Y70026D01*
X612762D01*
X614431Y70717D01*
X615708Y71994D01*
X616399Y73663D01*
Y75469D01*
X615708Y77137D01*
X614431Y78415D01*
X612762Y79106D01*
D02*
G37*
G36*
X503330Y76727D02*
X493329D01*
X491622Y76502D01*
X490031Y75843D01*
X488665Y74795D01*
X487617Y73429D01*
X486958Y71838D01*
X486733Y70131D01*
Y60130D01*
X486958Y58423D01*
X487617Y56832D01*
X488425Y55779D01*
X487545Y54840D01*
X486722Y55390D01*
X483075Y56900D01*
X479203Y57670D01*
X475256D01*
X471384Y56900D01*
X467737Y55390D01*
X464455Y53197D01*
X461663Y50405D01*
X459470Y47123D01*
X457960Y43476D01*
X457189Y39604D01*
Y35657D01*
X457960Y31785D01*
X459470Y28138D01*
X461663Y24856D01*
X464455Y22064D01*
X467737Y19871D01*
X471384Y18361D01*
X475256Y17591D01*
X479203D01*
X483075Y18361D01*
X486722Y19871D01*
X490004Y22064D01*
X492795Y24856D01*
X494989Y28138D01*
X496499Y31785D01*
X497269Y35657D01*
Y39604D01*
X496499Y43476D01*
X494989Y47123D01*
X492795Y50405D01*
X490247Y52954D01*
X490966Y54030D01*
X491622Y53759D01*
X493329Y53534D01*
X503330D01*
X505037Y53759D01*
X506628Y54418D01*
X507994Y55466D01*
X509042Y56832D01*
X509701Y58423D01*
X509926Y60130D01*
Y70131D01*
X509701Y71838D01*
X509042Y73429D01*
X507994Y74795D01*
X506628Y75843D01*
X505037Y76502D01*
X503330Y76727D01*
D02*
G37*
G36*
X407262Y63606D02*
X405456D01*
X403787Y62915D01*
X402510Y61637D01*
X401819Y59969D01*
Y58163D01*
X402510Y56494D01*
X403787Y55217D01*
X405456Y54526D01*
X407262D01*
X408931Y55217D01*
X410208Y56494D01*
X410899Y58163D01*
Y59969D01*
X410208Y61637D01*
X408931Y62915D01*
X407262Y63606D01*
D02*
G37*
G36*
X308359Y43937D02*
X305908Y43614D01*
X303623Y42668D01*
X301662Y41163D01*
X300157Y39201D01*
X299210Y36917D01*
X298888Y34466D01*
Y30166D01*
X299210Y27714D01*
X300157Y25430D01*
X301662Y23469D01*
X303623Y21964D01*
X305908Y21017D01*
X308359Y20695D01*
X310810Y21017D01*
X313094Y21964D01*
X315056Y23469D01*
X316561Y25430D01*
X317507Y27714D01*
X317830Y30166D01*
Y34466D01*
X317507Y36917D01*
X316561Y39201D01*
X315056Y41163D01*
X313094Y42668D01*
X310810Y43614D01*
X308359Y43937D01*
D02*
G37*
G36*
X250359Y42687D02*
X247908Y42364D01*
X245623Y41418D01*
X243662Y39913D01*
X242157Y37951D01*
X241210Y35667D01*
X240888Y33216D01*
Y28916D01*
X241210Y26464D01*
X242157Y24180D01*
X243662Y22219D01*
X245623Y20714D01*
X247908Y19767D01*
X250359Y19445D01*
X252810Y19767D01*
X255094Y20714D01*
X257056Y22219D01*
X258561Y24180D01*
X259507Y26464D01*
X259830Y28916D01*
Y33216D01*
X259507Y35667D01*
X258561Y37951D01*
X257056Y39913D01*
X255094Y41418D01*
X252810Y42364D01*
X250359Y42687D01*
D02*
G37*
G36*
X346829Y76727D02*
X336829D01*
X335122Y76502D01*
X333531Y75843D01*
X332165Y74795D01*
X331117Y73429D01*
X330458Y71838D01*
X330233Y70131D01*
Y60130D01*
X330458Y58423D01*
X331117Y56832D01*
X332165Y55466D01*
X333531Y54418D01*
X335122Y53759D01*
X336829Y53534D01*
X346829D01*
X348537Y53759D01*
X349193Y54030D01*
X349912Y52954D01*
X347363Y50405D01*
X345170Y47123D01*
X343660Y43476D01*
X342890Y39604D01*
Y35657D01*
X343660Y31785D01*
X345170Y28138D01*
X347363Y24856D01*
X350155Y22064D01*
X353437Y19871D01*
X357084Y18361D01*
X360956Y17591D01*
X364903D01*
X368775Y18361D01*
X372422Y19871D01*
X375704Y22064D01*
X378495Y24856D01*
X380689Y28138D01*
X382199Y31785D01*
X382969Y35657D01*
Y39604D01*
X382199Y43476D01*
X380689Y47123D01*
X378495Y50405D01*
X375704Y53197D01*
X372422Y55390D01*
X368775Y56900D01*
X364903Y57670D01*
X360956D01*
X357084Y56900D01*
X353437Y55390D01*
X352614Y54840D01*
X351734Y55779D01*
X352542Y56832D01*
X353201Y58423D01*
X353426Y60130D01*
Y70131D01*
X353201Y71838D01*
X352542Y73429D01*
X351494Y74795D01*
X350128Y75843D01*
X348537Y76502D01*
X346829Y76727D01*
D02*
G37*
%LPD*%
D57*
X688331Y313200D02*
D03*
X719359Y98816D02*
D03*
D62*
X250359Y31066D02*
D03*
X753609Y244816D02*
D03*
X753309Y283866D02*
D03*
X427359Y228566D02*
D03*
X42859Y186816D02*
D03*
X259859Y209566D02*
D03*
X308359Y32316D02*
D03*
X798109Y396066D02*
D03*
D71*
X433109Y556816D02*
D03*
X408109Y556721D02*
D03*
D72*
X341829Y65131D02*
D03*
X498330D02*
D03*
D73*
X413729Y101131D02*
D03*
X451829Y126531D02*
D03*
X426429D02*
D03*
X401029D02*
D03*
X375629D02*
D03*
X464529Y101131D02*
D03*
X439129D02*
D03*
X388329D02*
D03*
D74*
X362929Y37631D02*
D03*
X477229D02*
D03*
D75*
X111859Y108066D02*
D03*
X98859Y167566D02*
D03*
X177859Y77566D02*
D03*
X352639Y112907D02*
D03*
X611859Y74566D02*
D03*
X571539Y104206D02*
D03*
X159359Y142316D02*
D03*
X201258Y277394D02*
D03*
X252609Y272066D02*
D03*
X585359Y195066D02*
D03*
X570359Y243566D02*
D03*
X175109Y319316D02*
D03*
X137359Y208316D02*
D03*
X156359Y187316D02*
D03*
X240609Y142816D02*
D03*
X640859Y121566D02*
D03*
X526359Y129566D02*
D03*
X487109Y133316D02*
D03*
X715609Y255816D02*
D03*
X616859Y264066D02*
D03*
X695359Y181066D02*
D03*
X148758Y308144D02*
D03*
X117528Y232976D02*
D03*
X120028Y214726D02*
D03*
X62109Y274816D02*
D03*
X183109Y217316D02*
D03*
X436609Y118066D02*
D03*
X543859Y104316D02*
D03*
X396609Y500816D02*
D03*
X431359Y398316D02*
D03*
X433859Y483566D02*
D03*
X419859Y255566D02*
D03*
X431678Y411043D02*
D03*
X432609Y328066D02*
D03*
X534609Y94566D02*
D03*
X596109Y87066D02*
D03*
X580609Y94316D02*
D03*
X413109Y162316D02*
D03*
X406359Y59066D02*
D03*
X575109Y131816D02*
D03*
X600859Y77066D02*
D03*
X176609Y225816D02*
D03*
X700569Y242066D02*
D03*
X718805Y180454D02*
D03*
X685609Y258316D02*
D03*
X767140Y749252D02*
D03*
X412109Y364316D02*
D03*
X27270Y751010D02*
D03*
M02*
