G04*
G04 #@! TF.GenerationSoftware,Altium Limited,Altium Designer,24.0.1 (36)*
G04*
G04 Layer_Color=0*
%FSLAX44Y44*%
%MOMM*%
G71*
G04*
G04 #@! TF.SameCoordinates,3C6FB229-8EB3-43CD-B7CA-B0B301390D20*
G04*
G04*
G04 #@! TF.FilePolarity,Positive*
G04*
G01*
G75*
%ADD65C,0.3000*%
D65*
X-241Y223795D02*
G03*
X170359Y316I441784J160395D01*
G01*
X794760Y688792D02*
G03*
X804760Y698792I0J10000D01*
G01*
X774760D02*
G03*
X784760Y688792I10000J0D01*
G01*
X774660Y215792D02*
G03*
X764660Y205792I0J-10000D01*
G01*
X750110Y353842D02*
G03*
X759760Y363493I0J9650D01*
G01*
X544760Y153792D02*
G03*
X554760Y163792I0J10000D01*
G01*
X454760D02*
G03*
X464760Y153792I10000J0D01*
G01*
X284760Y163792D02*
G03*
X294760Y153792I10000J0D01*
G01*
X374760D02*
G03*
X384760Y163792I0J10000D01*
G01*
X34760Y698792D02*
G03*
X44760Y688792I10000J0D01*
G01*
X54760D02*
G03*
X64760Y698792I0J10000D01*
G01*
X79760Y363792D02*
G03*
X89760Y353792I10000J0D01*
G01*
X9760D02*
G03*
X19760Y363792I0J10000D01*
G01*
X170360Y315D02*
X655039D01*
X764660Y109937D01*
X804760Y758792D02*
X819760D01*
X759760D02*
X774760D01*
X804760Y698792D02*
Y758792D01*
X774760Y698792D02*
Y758792D01*
X784760Y688792D02*
X794760D01*
X774660Y215792D02*
X819760D01*
X764660Y109937D02*
Y205792D01*
X819760Y215792D02*
Y758792D01*
X759760Y363493D02*
Y758792D01*
X689760Y353792D02*
X750110Y353842D01*
X554760Y273792D02*
X689760Y353792D01*
X384760Y573792D02*
X454760D01*
Y163792D02*
Y573792D01*
X554760Y163792D02*
Y273792D01*
X464760Y153792D02*
X544760D01*
X384760Y163792D02*
Y573792D01*
X284760Y163792D02*
Y273792D01*
X294760Y153792D02*
X374760D01*
X149760Y353792D02*
X284760Y273792D01*
X19760Y758792D02*
X34760D01*
X64760D02*
X79760D01*
X64760Y698792D02*
Y758792D01*
X34760Y698792D02*
Y758792D01*
X44760Y688792D02*
X54760D01*
X79760Y363792D02*
Y758792D01*
X19760Y363792D02*
Y758792D01*
X89760Y353792D02*
X149760D01*
X-240D02*
X9760D01*
X-240Y223792D02*
Y353792D01*
M02*
