G04*
G04 #@! TF.GenerationSoftware,Altium Limited,Altium Designer,24.0.1 (36)*
G04*
G04 Layer_Color=16711935*
%FSLAX44Y44*%
%MOMM*%
G71*
G04*
G04 #@! TF.SameCoordinates,3C6FB229-8EB3-43CD-B7CA-B0B301390D20*
G04*
G04*
G04 #@! TF.FilePolarity,Negative*
G04*
G01*
G75*
%ADD16R,0.9000X0.6500*%
%ADD17R,0.6500X0.9000*%
%ADD18R,0.9000X0.8000*%
%ADD19R,0.8000X0.9000*%
%ADD36R,0.5000X0.4500*%
%ADD44C,3.0000*%
%ADD46R,0.4616X0.3516*%
%ADD57O,2.0000X1.5700*%
%ADD58O,1.1016X1.6256*%
G04:AMPARAMS|DCode=59|XSize=2.1016mm|YSize=2.1016mm|CornerRadius=0.5508mm|HoleSize=0mm|Usage=FLASHONLY|Rotation=90.000|XOffset=0mm|YOffset=0mm|HoleType=Round|Shape=RoundedRectangle|*
%AMROUNDEDRECTD59*
21,1,2.1016,1.0000,0,0,90.0*
21,1,1.0000,2.1016,0,0,90.0*
1,1,1.1016,0.5000,0.5000*
1,1,1.1016,0.5000,-0.5000*
1,1,1.1016,-0.5000,-0.5000*
1,1,1.1016,-0.5000,0.5000*
%
%ADD59ROUNDEDRECTD59*%
%ADD60O,1.6016X1.6256*%
%ADD61C,3.8016*%
%ADD62O,1.5700X2.0000*%
%ADD63C,0.7016*%
G04:AMPARAMS|DCode=77|XSize=0.65mm|YSize=0.9mm|CornerRadius=0mm|HoleSize=0mm|Usage=FLASHONLY|Rotation=45.000|XOffset=0mm|YOffset=0mm|HoleType=Round|Shape=Rectangle|*
%AMROTATEDRECTD77*
4,1,4,0.0884,-0.5480,-0.5480,0.0884,-0.0884,0.5480,0.5480,-0.0884,0.0884,-0.5480,0.0*
%
%ADD77ROTATEDRECTD77*%

G04:AMPARAMS|DCode=78|XSize=0.65mm|YSize=0.9mm|CornerRadius=0mm|HoleSize=0mm|Usage=FLASHONLY|Rotation=135.000|XOffset=0mm|YOffset=0mm|HoleType=Round|Shape=Rectangle|*
%AMROTATEDRECTD78*
4,1,4,0.5480,0.0884,-0.0884,-0.5480,-0.5480,-0.0884,0.0884,0.5480,0.5480,0.0884,0.0*
%
%ADD78ROTATEDRECTD78*%

%ADD79R,1.5082X1.4057*%
G04:AMPARAMS|DCode=80|XSize=0.45mm|YSize=1.45mm|CornerRadius=0.1125mm|HoleSize=0mm|Usage=FLASHONLY|Rotation=270.000|XOffset=0mm|YOffset=0mm|HoleType=Round|Shape=RoundedRectangle|*
%AMROUNDEDRECTD80*
21,1,0.4500,1.2250,0,0,270.0*
21,1,0.2250,1.4500,0,0,270.0*
1,1,0.2250,-0.6125,-0.1125*
1,1,0.2250,-0.6125,0.1125*
1,1,0.2250,0.6125,0.1125*
1,1,0.2250,0.6125,-0.1125*
%
%ADD80ROUNDEDRECTD80*%
%ADD81C,0.4050*%
%ADD82R,1.7500X2.5000*%
G04:AMPARAMS|DCode=83|XSize=1mm|YSize=1.3mm|CornerRadius=0.25mm|HoleSize=0mm|Usage=FLASHONLY|Rotation=180.000|XOffset=0mm|YOffset=0mm|HoleType=Round|Shape=RoundedRectangle|*
%AMROUNDEDRECTD83*
21,1,1.0000,0.8000,0,0,180.0*
21,1,0.5000,1.3000,0,0,180.0*
1,1,0.5000,-0.2500,0.4000*
1,1,0.5000,0.2500,0.4000*
1,1,0.5000,0.2500,-0.4000*
1,1,0.5000,-0.2500,-0.4000*
%
%ADD83ROUNDEDRECTD83*%
G04:AMPARAMS|DCode=84|XSize=0.3mm|YSize=1.35mm|CornerRadius=0.075mm|HoleSize=0mm|Usage=FLASHONLY|Rotation=90.000|XOffset=0mm|YOffset=0mm|HoleType=Round|Shape=RoundedRectangle|*
%AMROUNDEDRECTD84*
21,1,0.3000,1.2000,0,0,90.0*
21,1,0.1500,1.3500,0,0,90.0*
1,1,0.1500,0.6000,0.0750*
1,1,0.1500,0.6000,-0.0750*
1,1,0.1500,-0.6000,-0.0750*
1,1,0.1500,-0.6000,0.0750*
%
%ADD84ROUNDEDRECTD84*%
G04:AMPARAMS|DCode=85|XSize=1mm|YSize=1.3mm|CornerRadius=0.25mm|HoleSize=0mm|Usage=FLASHONLY|Rotation=90.000|XOffset=0mm|YOffset=0mm|HoleType=Round|Shape=RoundedRectangle|*
%AMROUNDEDRECTD85*
21,1,1.0000,0.8000,0,0,90.0*
21,1,0.5000,1.3000,0,0,90.0*
1,1,0.5000,0.4000,0.2500*
1,1,0.5000,0.4000,-0.2500*
1,1,0.5000,-0.4000,-0.2500*
1,1,0.5000,-0.4000,0.2500*
%
%ADD85ROUNDEDRECTD85*%
G04:AMPARAMS|DCode=89|XSize=0.7016mm|YSize=0.5516mm|CornerRadius=0.1633mm|HoleSize=0mm|Usage=FLASHONLY|Rotation=0.000|XOffset=0mm|YOffset=0mm|HoleType=Round|Shape=RoundedRectangle|*
%AMROUNDEDRECTD89*
21,1,0.7016,0.2250,0,0,0.0*
21,1,0.3750,0.5516,0,0,0.0*
1,1,0.3266,0.1875,-0.1125*
1,1,0.3266,-0.1875,-0.1125*
1,1,0.3266,-0.1875,0.1125*
1,1,0.3266,0.1875,0.1125*
%
%ADD89ROUNDEDRECTD89*%
%ADD90R,0.3516X0.4616*%
G36*
X174633Y250973D02*
X175266Y250340D01*
X175609Y249513D01*
X175609Y249066D01*
X175609Y249066D01*
X175609Y248618D01*
X175266Y247791D01*
X174633Y247158D01*
X173806Y246816D01*
X173359D01*
X167059Y246816D01*
Y251316D01*
X173359D01*
X173359Y251316D01*
X173806Y251316D01*
X174633Y250973D01*
D02*
G37*
G36*
Y260473D02*
X175266Y259840D01*
X175609Y259013D01*
X175609Y258566D01*
X175609Y258566D01*
X175609Y258118D01*
X175266Y257291D01*
X174633Y256658D01*
X173806Y256316D01*
X173359Y256316D01*
X167059Y256316D01*
Y260816D01*
X173359D01*
X173359Y260816D01*
X173806Y260816D01*
X174633Y260473D01*
D02*
G37*
G36*
Y269973D02*
X175266Y269340D01*
X175609Y268513D01*
X175609Y268066D01*
X175609Y268066D01*
X175609Y267618D01*
X175266Y266791D01*
X174633Y266158D01*
X173806Y265816D01*
X173359Y265816D01*
X167059Y265816D01*
Y270316D01*
X173359D01*
X173359Y270316D01*
X173806Y270316D01*
X174633Y269973D01*
D02*
G37*
G36*
X205159Y246816D02*
X198859D01*
X198859Y246816D01*
X198411Y246816D01*
X197584Y247158D01*
X196951Y247791D01*
X196609Y248618D01*
X196609Y249066D01*
X196609Y249513D01*
X196951Y250340D01*
X197584Y250973D01*
X198411Y251316D01*
X198859Y251316D01*
X205159Y251316D01*
Y246816D01*
D02*
G37*
G36*
Y256316D02*
X198859D01*
X198859Y256316D01*
X198411Y256316D01*
X197584Y256658D01*
X196951Y257291D01*
X196609Y258118D01*
X196609Y258566D01*
X196609Y259013D01*
X196951Y259840D01*
X197584Y260473D01*
X198411Y260816D01*
X198859Y260816D01*
X205159Y260816D01*
Y256316D01*
D02*
G37*
G36*
Y265816D02*
X198859D01*
X198859Y265816D01*
X198411Y265816D01*
X197584Y266158D01*
X196951Y266791D01*
X196609Y267618D01*
X196609Y268066D01*
Y268513D01*
X196951Y269340D01*
X197584Y269973D01*
X198411Y270316D01*
X198859Y270316D01*
X205159Y270316D01*
Y265816D01*
D02*
G37*
D16*
X611609Y221316D02*
D03*
Y235816D02*
D03*
X229859Y220066D02*
D03*
Y205566D02*
D03*
X147859Y113566D02*
D03*
Y128066D02*
D03*
X135859Y196316D02*
D03*
Y181816D02*
D03*
D17*
X612609Y253316D02*
D03*
X598109D02*
D03*
X596109Y204816D02*
D03*
X610609D02*
D03*
X595859Y181316D02*
D03*
X610359D02*
D03*
D18*
X651609Y240816D02*
D03*
Y225816D02*
D03*
X713609Y240816D02*
D03*
Y225816D02*
D03*
X226109Y138566D02*
D03*
Y153566D02*
D03*
X123609Y107316D02*
D03*
Y122316D02*
D03*
D19*
X177859Y142066D02*
D03*
X192859D02*
D03*
D36*
X766859Y731816D02*
D03*
Y740316D02*
D03*
D44*
X46859Y638566D02*
D03*
X181109Y30816D02*
D03*
X634109Y31066D02*
D03*
D46*
X504470Y133760D02*
D03*
X496070D02*
D03*
X545220Y129760D02*
D03*
X536820D02*
D03*
D57*
X688331Y313200D02*
D03*
X719359Y98816D02*
D03*
D58*
X433109Y556816D02*
D03*
X408109Y556721D02*
D03*
D59*
X341829Y65131D02*
D03*
X498330D02*
D03*
D60*
X413729Y101131D02*
D03*
X451829Y126531D02*
D03*
X426429D02*
D03*
X401029D02*
D03*
X375629D02*
D03*
X464529Y101131D02*
D03*
X439129D02*
D03*
X388329D02*
D03*
D61*
X362929Y37631D02*
D03*
X477229D02*
D03*
D62*
X250359Y31066D02*
D03*
X753609Y244816D02*
D03*
X753309Y283866D02*
D03*
X427359Y228566D02*
D03*
X42859Y186816D02*
D03*
X259859Y209566D02*
D03*
X308359Y32316D02*
D03*
X798109Y396066D02*
D03*
D63*
X111859Y108066D02*
D03*
X98859Y167566D02*
D03*
X177859Y77566D02*
D03*
X352639Y112907D02*
D03*
X611859Y74566D02*
D03*
X571539Y104206D02*
D03*
X159359Y142316D02*
D03*
X201258Y277394D02*
D03*
X252609Y272066D02*
D03*
X585359Y195066D02*
D03*
X570359Y243566D02*
D03*
X175109Y319316D02*
D03*
X137359Y208316D02*
D03*
X156359Y187316D02*
D03*
X240609Y142816D02*
D03*
X640859Y121566D02*
D03*
X526359Y129566D02*
D03*
X487109Y133316D02*
D03*
X715609Y255816D02*
D03*
X616859Y264066D02*
D03*
X695359Y181066D02*
D03*
X148758Y308144D02*
D03*
X117528Y232976D02*
D03*
X120028Y214726D02*
D03*
X62109Y274816D02*
D03*
X183109Y217316D02*
D03*
X436609Y118066D02*
D03*
X543859Y104316D02*
D03*
X396609Y500816D02*
D03*
X431359Y398316D02*
D03*
X433859Y483566D02*
D03*
X419859Y255566D02*
D03*
X431678Y411043D02*
D03*
X432609Y328066D02*
D03*
X534609Y94566D02*
D03*
X596109Y87066D02*
D03*
X580609Y94316D02*
D03*
X413109Y162316D02*
D03*
X406359Y59066D02*
D03*
X575109Y131816D02*
D03*
X600859Y77066D02*
D03*
X176609Y225816D02*
D03*
X700569Y242066D02*
D03*
X718805Y180454D02*
D03*
X685609Y258316D02*
D03*
X767140Y749252D02*
D03*
X412109Y364316D02*
D03*
X27270Y751010D02*
D03*
D77*
X634485Y139442D02*
D03*
X624232Y129189D02*
D03*
D78*
X612982Y162692D02*
D03*
X623235Y152439D02*
D03*
D79*
X137109Y267291D02*
D03*
Y285816D02*
D03*
X236609Y252803D02*
D03*
Y271328D02*
D03*
D80*
X185573Y167747D02*
D03*
Y174247D02*
D03*
Y180746D02*
D03*
Y187246D02*
D03*
X230073Y167747D02*
D03*
Y174247D02*
D03*
Y180746D02*
D03*
Y187246D02*
D03*
D81*
X173109Y249066D02*
D03*
X172895Y258566D02*
D03*
Y268066D02*
D03*
X199109D02*
D03*
X199323Y258566D02*
D03*
Y249066D02*
D03*
D82*
X186109Y258566D02*
D03*
D83*
X267359Y105566D02*
D03*
X247359D02*
D03*
D84*
X695859Y193816D02*
D03*
Y208816D02*
D03*
Y203816D02*
D03*
Y198816D02*
D03*
Y188816D02*
D03*
X651359Y208816D02*
D03*
Y203816D02*
D03*
Y198816D02*
D03*
Y193816D02*
D03*
Y188816D02*
D03*
D85*
X295109Y114816D02*
D03*
Y134816D02*
D03*
D89*
X106119Y151829D02*
D03*
Y159829D02*
D03*
X91119D02*
D03*
Y151829D02*
D03*
D90*
X526359Y113016D02*
D03*
Y104616D02*
D03*
X405359Y153866D02*
D03*
Y162266D02*
D03*
M02*
