G04*
G04 #@! TF.GenerationSoftware,Altium Limited,Altium Designer,24.0.1 (36)*
G04*
G04 Layer_Color=32768*
%FSLAX44Y44*%
%MOMM*%
G71*
G04*
G04 #@! TF.SameCoordinates,3C6FB229-8EB3-43CD-B7CA-B0B301390D20*
G04*
G04*
G04 #@! TF.FilePolarity,Positive*
G04*
G01*
G75*
%ADD12C,0.1000*%
%ADD14C,0.2000*%
%ADD92C,0.0500*%
D12*
X146359Y281066D02*
X156359D01*
X151359Y276066D02*
Y286066D01*
X286359Y108816D02*
X296359D01*
X291359Y103816D02*
Y113816D01*
X202823Y177496D02*
X212823D01*
X207823Y172496D02*
Y182496D01*
X645020Y214760D02*
Y224760D01*
X640020Y219760D02*
X650020D01*
X410609Y68566D02*
Y73566D01*
X408109Y71066D02*
X413109D01*
X668609Y198816D02*
X678609D01*
X673609Y193816D02*
Y203816D01*
X76109Y275066D02*
X85609D01*
X80859Y270316D02*
Y279816D01*
X727359Y233316D02*
Y242816D01*
X722609Y238066D02*
X732109D01*
X192109Y179816D02*
Y189816D01*
X187109Y184816D02*
X197109D01*
X584109Y230816D02*
X594109D01*
X589109Y225816D02*
Y235816D01*
X427770Y437510D02*
Y447510D01*
X422770Y442510D02*
X432770D01*
X225109Y259066D02*
Y268566D01*
X220359Y263816D02*
X229859D01*
X406609Y322066D02*
Y331066D01*
X402109Y326566D02*
X411109D01*
X497770Y133760D02*
X502770D01*
X500270Y131260D02*
Y136260D01*
X250109Y109816D02*
X260109D01*
X255109Y104816D02*
Y114816D01*
X423609Y290566D02*
Y300566D01*
X418609Y295566D02*
X428609D01*
X538520Y129760D02*
X543520D01*
X541020Y127260D02*
Y132260D01*
X526359Y106316D02*
Y111316D01*
X523859Y108816D02*
X528859D01*
X405359Y155566D02*
Y160566D01*
X402859Y158066D02*
X407859D01*
X639109Y155066D02*
X648609D01*
X643859Y150316D02*
Y159816D01*
X427020Y359760D02*
Y369760D01*
X422020Y364760D02*
X432020D01*
D14*
X176609Y176566D02*
Y193066D01*
Y176566D02*
X207609D01*
Y193066D01*
X176609D02*
X207609D01*
X580859Y246316D02*
X597359D01*
X580859Y215316D02*
Y246316D01*
Y215316D02*
X597359D01*
Y246316D01*
D92*
X112359Y253066D02*
Y309066D01*
X190359Y253066D02*
Y309066D01*
X112359D02*
X190359D01*
X112359Y253066D02*
X190359D01*
X279859Y83416D02*
Y134216D01*
X302859Y83416D02*
Y134216D01*
X279859Y83416D02*
X302859D01*
X279859Y134216D02*
X302859D01*
X176323Y159496D02*
Y195497D01*
X239323Y159496D02*
Y195497D01*
X176323Y159496D02*
X239323D01*
X176323Y195497D02*
X239323D01*
X617020Y258760D02*
X673020D01*
X617020Y180760D02*
X673020D01*
Y258760D01*
X617020Y180760D02*
Y258760D01*
X417609Y67066D02*
Y75066D01*
X403609Y67066D02*
X417609D01*
X403609D02*
Y75066D01*
X417609D01*
X704859Y180816D02*
Y216816D01*
X642359Y180816D02*
Y216816D01*
X704859D01*
X642359Y180816D02*
X704859D01*
X67359Y267566D02*
Y282566D01*
X94359Y267566D02*
Y282566D01*
X67359D02*
X94359D01*
X67359Y267566D02*
X94359D01*
X719859Y251566D02*
X734859D01*
X719859Y224566D02*
X734859D01*
Y251566D01*
X719859Y224566D02*
Y251566D01*
X409770Y421260D02*
X445770D01*
X409770Y463760D02*
X445770D01*
X409770Y421260D02*
Y463760D01*
X445770Y421260D02*
Y463760D01*
X212109Y256316D02*
X238109D01*
X212109Y271316D02*
X238109D01*
Y256316D02*
Y271316D01*
X212109Y256316D02*
Y271316D01*
X390109Y336566D02*
X423109D01*
X390109Y316566D02*
X423109D01*
X390109D02*
Y336566D01*
X423109Y316566D02*
Y336566D01*
X493270Y129760D02*
X507270D01*
X493270D02*
Y137760D01*
X507270D01*
Y129760D02*
Y137760D01*
X271609Y85816D02*
Y133816D01*
X238609Y85816D02*
Y133816D01*
X271609D01*
X238609Y85816D02*
X271609D01*
X403609Y271816D02*
X443609D01*
X403609Y319316D02*
X443609D01*
X403609Y271816D02*
Y319316D01*
X443609Y271816D02*
Y319316D01*
X534020Y125760D02*
X548020D01*
X534020D02*
Y133760D01*
X548020D01*
Y125760D02*
Y133760D01*
X530359Y101816D02*
Y115816D01*
X522359Y101816D02*
X530359D01*
X522359D02*
Y115816D01*
X530359D01*
X401359Y151066D02*
Y165066D01*
X409359D01*
Y151066D02*
Y165066D01*
X401359Y151066D02*
X409359D01*
X636359Y142066D02*
Y168066D01*
X651359Y142066D02*
Y168066D01*
X636359Y142066D02*
X651359D01*
X636359Y168066D02*
X651359D01*
X409020Y343510D02*
X445020D01*
X409020Y386010D02*
X445020D01*
X409020Y343510D02*
Y386010D01*
X445020Y343510D02*
Y386010D01*
M02*
