G04*
G04 #@! TF.GenerationSoftware,Altium Limited,Altium Designer,24.0.1 (36)*
G04*
G04 Layer_Color=32896*
%FSLAX44Y44*%
%MOMM*%
G71*
G04*
G04 #@! TF.SameCoordinates,3C6FB229-8EB3-43CD-B7CA-B0B301390D20*
G04*
G04*
G04 #@! TF.FilePolarity,Positive*
G04*
G01*
G75*
%ADD14C,0.2000*%
G36*
X640120Y144331D02*
X640146D01*
X640159D01*
X640309Y144325D01*
X640453Y144312D01*
X640584Y144286D01*
X640714Y144246D01*
X640839Y144214D01*
X640956Y144161D01*
X641152Y144057D01*
X641244Y144004D01*
X641322Y143952D01*
X641388Y143900D01*
X641440Y143861D01*
X641486Y143828D01*
X641519Y143795D01*
X641538Y143776D01*
X641545Y143769D01*
X641689Y143612D01*
X641800Y143449D01*
X641885Y143285D01*
X641950Y143141D01*
X641996Y143017D01*
X642022Y142913D01*
X642035Y142847D01*
Y142834D01*
X642042Y142828D01*
X642055Y142632D01*
X642048Y142442D01*
X642016Y142266D01*
X641983Y142102D01*
X641937Y141965D01*
X641891Y141854D01*
X641878Y141814D01*
X641865Y141788D01*
X641859Y141769D01*
X641852Y141762D01*
X642022Y141827D01*
X642179Y141867D01*
X642323Y141893D01*
X642454Y141906D01*
X642558D01*
X642637D01*
X642689D01*
X642709Y141899D01*
X642859Y141867D01*
X642990Y141814D01*
X643114Y141756D01*
X643225Y141684D01*
X643310Y141625D01*
X643375Y141573D01*
X643415Y141533D01*
X643421Y141527D01*
X643428Y141520D01*
X643513Y141422D01*
X643591Y141331D01*
X643709Y141121D01*
X643794Y140919D01*
X643853Y140729D01*
X643885Y140566D01*
X643892Y140494D01*
X643905Y140428D01*
Y140376D01*
Y140337D01*
Y140324D01*
Y140311D01*
X643892Y140180D01*
X643879Y140049D01*
X643846Y139925D01*
X643807Y139807D01*
X643709Y139592D01*
X643591Y139396D01*
X643545Y139311D01*
X643486Y139239D01*
X643434Y139173D01*
X643388Y139114D01*
X643356Y139069D01*
X643297Y139010D01*
X643186Y138912D01*
X643075Y138814D01*
X642852Y138670D01*
X642741Y138611D01*
X642637Y138559D01*
X642532Y138519D01*
X642434Y138487D01*
X642349Y138467D01*
X642264Y138448D01*
X642192Y138428D01*
X642133Y138421D01*
X642087Y138415D01*
X642048D01*
X642029Y138408D01*
X642016D01*
X641891Y138415D01*
X641767Y138421D01*
X641649Y138448D01*
X641538Y138480D01*
X641336Y138552D01*
X641166Y138644D01*
X641028Y138729D01*
X640969Y138774D01*
X640924Y138807D01*
X640878Y138840D01*
X640852Y138866D01*
X640839Y138879D01*
X640832Y138885D01*
X640721Y139010D01*
X640630Y139141D01*
X640558Y139265D01*
X640505Y139382D01*
X640466Y139474D01*
X640440Y139552D01*
X640433Y139598D01*
X640427Y139618D01*
X640420Y139768D01*
X640427Y139918D01*
X640446Y140069D01*
X640479Y140206D01*
X640518Y140324D01*
X640551Y140409D01*
X640564Y140448D01*
X640577Y140474D01*
Y140487D01*
X640584Y140494D01*
X640388Y140389D01*
X640205Y140324D01*
X640022Y140285D01*
X639865Y140258D01*
X639727Y140252D01*
X639623D01*
X639564Y140258D01*
X639544Y140252D01*
X639538Y140258D01*
X639348Y140304D01*
X639165Y140370D01*
X639008Y140448D01*
X638864Y140540D01*
X638747Y140631D01*
X638694Y140670D01*
X638655Y140709D01*
X638623Y140729D01*
X638596Y140755D01*
X638583Y140768D01*
X638577Y140775D01*
X638479Y140886D01*
X638387Y141004D01*
X638309Y141121D01*
X638237Y141246D01*
X638139Y141474D01*
X638093Y141586D01*
X638067Y141690D01*
X638041Y141795D01*
X638021Y141880D01*
X638014Y141965D01*
X638001Y142030D01*
X637995Y142089D01*
Y142128D01*
Y142154D01*
Y142167D01*
X638001Y142318D01*
X638028Y142462D01*
X638067Y142605D01*
X638112Y142743D01*
X638165Y142860D01*
X638224Y142985D01*
X638354Y143207D01*
X638413Y143305D01*
X638472Y143390D01*
X638531Y143462D01*
X638583Y143527D01*
X638623Y143580D01*
X638688Y143645D01*
X638819Y143763D01*
X638943Y143861D01*
X639074Y143952D01*
X639198Y144037D01*
X639322Y144096D01*
X639446Y144155D01*
X639564Y144207D01*
X639675Y144240D01*
X639780Y144266D01*
X639871Y144292D01*
X639950Y144305D01*
X640028Y144318D01*
X640080Y144331D01*
X640120D01*
D02*
G37*
G36*
X637184Y139814D02*
X637799Y140428D01*
X638309Y139918D01*
X637694Y139304D01*
X640623Y136375D01*
X640172Y135924D01*
X635171Y136780D01*
X634661Y137290D01*
X636628Y139258D01*
X635543Y140343D01*
X636099Y140899D01*
X637184Y139814D01*
D02*
G37*
G36*
X633863Y136205D02*
X633902Y135983D01*
X633935Y135780D01*
X633948Y135597D01*
X633968Y135434D01*
Y135303D01*
Y135198D01*
Y135133D01*
Y135107D01*
X633955Y135015D01*
X633942Y134911D01*
X633896Y134721D01*
X633870Y134643D01*
X633857Y134577D01*
X633843Y134538D01*
X633837Y134518D01*
X633974Y134616D01*
X634105Y134708D01*
X634236Y134773D01*
X634360Y134845D01*
X634478Y134898D01*
X634595Y134937D01*
X634700Y134976D01*
X634798Y135009D01*
X634889Y135022D01*
X634975Y135041D01*
X635040Y135055D01*
X635099Y135061D01*
X635145Y135068D01*
X635184D01*
X635197D01*
X635210D01*
X635327Y135055D01*
X635445Y135041D01*
X635661Y134983D01*
X635850Y134898D01*
X636021Y134806D01*
X636158Y134721D01*
X636210Y134682D01*
X636256Y134636D01*
X636295Y134610D01*
X636321Y134584D01*
X636334Y134571D01*
X636341Y134564D01*
X636472Y134420D01*
X636576Y134277D01*
X636661Y134126D01*
X636727Y133995D01*
X636772Y133871D01*
X636812Y133780D01*
X636825Y133714D01*
Y133701D01*
X636831Y133695D01*
X636857Y133512D01*
X636870Y133342D01*
X636864Y133178D01*
X636844Y133041D01*
X636818Y132923D01*
X636785Y132838D01*
X636766Y132779D01*
Y132766D01*
X636759Y132760D01*
X636720Y132681D01*
X636668Y132590D01*
X636557Y132413D01*
X636419Y132237D01*
X636295Y132073D01*
X636164Y131930D01*
X636105Y131871D01*
X636060Y131812D01*
X633961Y129713D01*
X629437Y134237D01*
X630039Y134839D01*
X632046Y132832D01*
X632817Y133603D01*
X632882Y133682D01*
X632935Y133734D01*
X632974Y133786D01*
X633000Y133825D01*
X633026Y133851D01*
X633033Y133871D01*
X633039Y133878D01*
X633111Y134015D01*
X633137Y134080D01*
X633157Y134139D01*
X633177Y134198D01*
X633190Y134237D01*
X633196Y134257D01*
Y134270D01*
X633209Y134361D01*
X633216Y134459D01*
Y134656D01*
Y134747D01*
X633209Y134819D01*
X633203Y134865D01*
Y134878D01*
X633177Y135035D01*
X633150Y135205D01*
X633118Y135381D01*
X633092Y135551D01*
X633059Y135702D01*
X633033Y135819D01*
X633026Y135865D01*
X633020Y135898D01*
Y135924D01*
X633013Y135931D01*
X632667Y137467D01*
X633412Y138212D01*
X633863Y136205D01*
D02*
G37*
G36*
X609880Y251578D02*
X609750Y251393D01*
X609630Y251226D01*
X609510Y251088D01*
X609408Y250958D01*
X609316Y250866D01*
X609242Y250792D01*
X609196Y250746D01*
X609177Y250727D01*
X609103Y250672D01*
X609020Y250607D01*
X608853Y250505D01*
X608779Y250468D01*
X608724Y250431D01*
X608687Y250413D01*
X608669Y250403D01*
X608835Y250376D01*
X608992Y250348D01*
X609131Y250302D01*
X609269Y250265D01*
X609390Y250219D01*
X609501Y250163D01*
X609602Y250117D01*
X609695Y250071D01*
X609769Y250015D01*
X609843Y249969D01*
X609898Y249932D01*
X609944Y249895D01*
X609981Y249867D01*
X610009Y249839D01*
X610018Y249830D01*
X610028Y249821D01*
X610102Y249729D01*
X610176Y249636D01*
X610287Y249442D01*
X610360Y249248D01*
X610416Y249063D01*
X610453Y248906D01*
X610462Y248841D01*
Y248776D01*
X610471Y248730D01*
Y248693D01*
Y248675D01*
Y248665D01*
X610462Y248471D01*
X610434Y248295D01*
X610388Y248129D01*
X610342Y247990D01*
X610287Y247870D01*
X610250Y247778D01*
X610213Y247722D01*
X610203Y247713D01*
Y247704D01*
X610092Y247556D01*
X609981Y247426D01*
X609861Y247315D01*
X609750Y247232D01*
X609649Y247167D01*
X609565Y247131D01*
X609510Y247103D01*
X609501Y247094D01*
X609491D01*
X609408Y247066D01*
X609306Y247038D01*
X609103Y246992D01*
X608881Y246964D01*
X608678Y246936D01*
X608484Y246927D01*
X608400D01*
X608326Y246918D01*
X605359D01*
Y253316D01*
X606209D01*
Y250477D01*
X607300D01*
X607402Y250487D01*
X607476D01*
X607541Y250496D01*
X607587Y250505D01*
X607624D01*
X607642Y250514D01*
X607652D01*
X607799Y250561D01*
X607864Y250588D01*
X607920Y250616D01*
X607975Y250644D01*
X608012Y250662D01*
X608031Y250672D01*
X608040Y250681D01*
X608114Y250736D01*
X608188Y250801D01*
X608326Y250940D01*
X608391Y251004D01*
X608437Y251060D01*
X608465Y251097D01*
X608474Y251106D01*
X608567Y251236D01*
X608669Y251374D01*
X608770Y251522D01*
X608872Y251661D01*
X608955Y251790D01*
X609020Y251892D01*
X609048Y251929D01*
X609066Y251957D01*
X609085Y251975D01*
Y251984D01*
X609926Y253316D01*
X610980D01*
X609880Y251578D01*
D02*
G37*
G36*
X618238Y252964D02*
X618284Y252641D01*
X618330Y252345D01*
X618358Y252206D01*
X618386Y252077D01*
X618404Y251966D01*
X618432Y251864D01*
X618450Y251772D01*
X618469Y251698D01*
X618487Y251642D01*
X618497Y251596D01*
X618506Y251568D01*
Y251559D01*
X618645Y251134D01*
X618792Y250736D01*
X618867Y250542D01*
X618940Y250357D01*
X619024Y250191D01*
X619098Y250024D01*
X619162Y249876D01*
X619227Y249747D01*
X619282Y249636D01*
X619329Y249534D01*
X619375Y249451D01*
X619403Y249396D01*
X619421Y249359D01*
X619431Y249349D01*
X619541Y249155D01*
X619652Y248961D01*
X619763Y248785D01*
X619874Y248619D01*
X619976Y248471D01*
X620078Y248323D01*
X620179Y248194D01*
X620263Y248083D01*
X620346Y247972D01*
X620420Y247879D01*
X620494Y247805D01*
X620549Y247741D01*
X620586Y247685D01*
X620623Y247648D01*
X620642Y247630D01*
X620651Y247621D01*
Y247001D01*
X616509D01*
Y247759D01*
X619643D01*
X619421Y248027D01*
X619209Y248314D01*
X619024Y248591D01*
X618848Y248859D01*
X618774Y248980D01*
X618709Y249091D01*
X618645Y249192D01*
X618598Y249275D01*
X618561Y249349D01*
X618534Y249396D01*
X618515Y249433D01*
X618506Y249442D01*
X618321Y249812D01*
X618155Y250182D01*
X618016Y250533D01*
X617960Y250690D01*
X617905Y250847D01*
X617850Y250986D01*
X617812Y251115D01*
X617775Y251226D01*
X617748Y251319D01*
X617720Y251402D01*
X617701Y251457D01*
X617692Y251494D01*
Y251504D01*
X617600Y251883D01*
X617563Y252068D01*
X617535Y252234D01*
X617507Y252391D01*
X617480Y252548D01*
X617461Y252678D01*
X617443Y252807D01*
X617433Y252918D01*
X617424Y253020D01*
X617415Y253112D01*
Y253186D01*
X617406Y253242D01*
Y253279D01*
Y253307D01*
Y253316D01*
X618210D01*
X618238Y252964D01*
D02*
G37*
G36*
X614780Y251781D02*
X615649D01*
Y251060D01*
X614780D01*
Y246918D01*
X614142D01*
X611211Y251060D01*
Y251781D01*
X613994D01*
Y253316D01*
X614780D01*
Y251781D01*
D02*
G37*
G36*
X603359Y204816D02*
X602508D01*
Y207654D01*
X601417D01*
X601316Y207645D01*
X601242D01*
X601177Y207635D01*
X601131Y207626D01*
X601094D01*
X601075Y207617D01*
X601066D01*
X600918Y207571D01*
X600853Y207543D01*
X600798Y207515D01*
X600742Y207488D01*
X600705Y207469D01*
X600687Y207460D01*
X600678Y207451D01*
X600604Y207395D01*
X600530Y207330D01*
X600391Y207192D01*
X600326Y207127D01*
X600280Y207071D01*
X600252Y207034D01*
X600243Y207025D01*
X600151Y206896D01*
X600049Y206757D01*
X599947Y206609D01*
X599846Y206471D01*
X599762Y206341D01*
X599698Y206239D01*
X599670Y206202D01*
X599651Y206175D01*
X599633Y206156D01*
Y206147D01*
X598792Y204816D01*
X597738D01*
X598838Y206554D01*
X598967Y206739D01*
X599087Y206905D01*
X599208Y207044D01*
X599309Y207173D01*
X599402Y207266D01*
X599476Y207340D01*
X599522Y207386D01*
X599540Y207404D01*
X599614Y207460D01*
X599698Y207525D01*
X599864Y207626D01*
X599938Y207663D01*
X599994Y207700D01*
X600031Y207719D01*
X600049Y207728D01*
X599883Y207756D01*
X599725Y207783D01*
X599587Y207830D01*
X599448Y207867D01*
X599328Y207913D01*
X599217Y207968D01*
X599115Y208015D01*
X599023Y208061D01*
X598949Y208116D01*
X598875Y208162D01*
X598819Y208200D01*
X598773Y208237D01*
X598736Y208264D01*
X598708Y208292D01*
X598699Y208301D01*
X598690Y208310D01*
X598616Y208403D01*
X598542Y208495D01*
X598431Y208689D01*
X598357Y208884D01*
X598302Y209069D01*
X598265Y209226D01*
X598255Y209291D01*
Y209355D01*
X598246Y209401D01*
Y209438D01*
Y209457D01*
Y209466D01*
X598255Y209660D01*
X598283Y209836D01*
X598329Y210002D01*
X598376Y210141D01*
X598431Y210261D01*
X598468Y210354D01*
X598505Y210409D01*
X598514Y210418D01*
Y210428D01*
X598625Y210576D01*
X598736Y210705D01*
X598856Y210816D01*
X598967Y210899D01*
X599069Y210964D01*
X599152Y211001D01*
X599208Y211029D01*
X599217Y211038D01*
X599226D01*
X599309Y211066D01*
X599411Y211093D01*
X599614Y211140D01*
X599836Y211167D01*
X600040Y211195D01*
X600234Y211204D01*
X600317D01*
X600391Y211213D01*
X603359D01*
Y204816D01*
D02*
G37*
G36*
X597506Y207071D02*
Y206350D01*
X594724D01*
Y204816D01*
X593938D01*
Y206350D01*
X593069D01*
Y207071D01*
X593938D01*
Y211213D01*
X594576D01*
X597506Y207071D01*
D02*
G37*
G36*
X592532D02*
Y206350D01*
X589749D01*
Y204816D01*
X588964D01*
Y206350D01*
X588094D01*
Y207071D01*
X588964D01*
Y211213D01*
X589602D01*
X592532Y207071D01*
D02*
G37*
G36*
X590276Y187834D02*
X590526Y187787D01*
X590738Y187714D01*
X590923Y187640D01*
X591007Y187593D01*
X591071Y187556D01*
X591136Y187519D01*
X591182Y187482D01*
X591219Y187455D01*
X591247Y187436D01*
X591265Y187427D01*
X591275Y187418D01*
X591450Y187242D01*
X591589Y187048D01*
X591700Y186845D01*
X591792Y186641D01*
X591848Y186465D01*
X591876Y186391D01*
X591894Y186327D01*
X591903Y186271D01*
X591913Y186234D01*
X591922Y186206D01*
Y186197D01*
X591136Y186059D01*
X591099Y186262D01*
X591044Y186438D01*
X590979Y186586D01*
X590914Y186706D01*
X590849Y186798D01*
X590794Y186863D01*
X590757Y186909D01*
X590748Y186918D01*
X590627Y187011D01*
X590498Y187085D01*
X590378Y187131D01*
X590258Y187168D01*
X590147Y187187D01*
X590063Y187205D01*
X589990D01*
X589823Y187196D01*
X589675Y187159D01*
X589546Y187113D01*
X589435Y187066D01*
X589352Y187011D01*
X589287Y186965D01*
X589241Y186928D01*
X589231Y186918D01*
X589130Y186807D01*
X589056Y186687D01*
X589009Y186567D01*
X588973Y186456D01*
X588954Y186354D01*
X588936Y186280D01*
Y186225D01*
Y186216D01*
Y186206D01*
Y186105D01*
X588954Y186012D01*
X589000Y185855D01*
X589065Y185716D01*
X589139Y185596D01*
X589213Y185513D01*
X589278Y185448D01*
X589324Y185411D01*
X589333Y185402D01*
X589342D01*
X589500Y185319D01*
X589647Y185254D01*
X589805Y185208D01*
X589943Y185180D01*
X590063Y185162D01*
X590165Y185143D01*
X590285D01*
X590322Y185152D01*
X590368D01*
X590461Y184459D01*
X590341Y184487D01*
X590230Y184505D01*
X590137Y184524D01*
X590054Y184533D01*
X589990Y184542D01*
X589906D01*
X589712Y184524D01*
X589536Y184487D01*
X589379Y184431D01*
X589250Y184367D01*
X589148Y184302D01*
X589074Y184246D01*
X589028Y184209D01*
X589009Y184191D01*
X588889Y184052D01*
X588797Y183904D01*
X588732Y183756D01*
X588695Y183608D01*
X588667Y183488D01*
X588658Y183387D01*
X588649Y183350D01*
Y183322D01*
Y183303D01*
Y183294D01*
X588667Y183091D01*
X588714Y182906D01*
X588769Y182749D01*
X588843Y182610D01*
X588917Y182499D01*
X588973Y182416D01*
X589019Y182360D01*
X589037Y182342D01*
X589185Y182212D01*
X589342Y182120D01*
X589500Y182055D01*
X589647Y182009D01*
X589777Y181981D01*
X589879Y181972D01*
X589916Y181963D01*
X589971D01*
X590137Y181972D01*
X590295Y182009D01*
X590433Y182055D01*
X590544Y182111D01*
X590637Y182157D01*
X590711Y182203D01*
X590748Y182240D01*
X590766Y182249D01*
X590877Y182379D01*
X590970Y182527D01*
X591053Y182684D01*
X591117Y182850D01*
X591164Y182989D01*
X591182Y183054D01*
X591191Y183109D01*
X591201Y183155D01*
X591210Y183192D01*
X591219Y183211D01*
Y183220D01*
X592005Y183118D01*
X591987Y182971D01*
X591959Y182832D01*
X591876Y182573D01*
X591774Y182351D01*
X591718Y182259D01*
X591663Y182166D01*
X591608Y182083D01*
X591552Y182018D01*
X591506Y181954D01*
X591460Y181907D01*
X591432Y181870D01*
X591404Y181843D01*
X591386Y181824D01*
X591376Y181815D01*
X591265Y181732D01*
X591154Y181648D01*
X591044Y181584D01*
X590923Y181528D01*
X590692Y181436D01*
X590470Y181380D01*
X590368Y181362D01*
X590276Y181343D01*
X590193Y181334D01*
X590119Y181325D01*
X590063Y181316D01*
X589980D01*
X589805Y181325D01*
X589647Y181343D01*
X589490Y181371D01*
X589342Y181408D01*
X589204Y181454D01*
X589083Y181500D01*
X588963Y181556D01*
X588862Y181611D01*
X588760Y181658D01*
X588677Y181713D01*
X588603Y181759D01*
X588547Y181806D01*
X588501Y181843D01*
X588464Y181870D01*
X588446Y181889D01*
X588436Y181898D01*
X588325Y182009D01*
X588233Y182129D01*
X588150Y182249D01*
X588076Y182370D01*
X588020Y182481D01*
X587965Y182601D01*
X587891Y182823D01*
X587872Y182924D01*
X587854Y183017D01*
X587835Y183100D01*
X587826Y183174D01*
X587817Y183229D01*
Y183276D01*
Y183303D01*
Y183313D01*
X587826Y183535D01*
X587863Y183738D01*
X587919Y183914D01*
X587974Y184062D01*
X588029Y184182D01*
X588085Y184274D01*
X588122Y184330D01*
X588131Y184348D01*
X588260Y184487D01*
X588399Y184607D01*
X588547Y184699D01*
X588695Y184773D01*
X588825Y184829D01*
X588926Y184866D01*
X588963Y184875D01*
X588991Y184884D01*
X589009Y184894D01*
X589019D01*
X588862Y184977D01*
X588732Y185060D01*
X588621Y185152D01*
X588529Y185236D01*
X588455Y185310D01*
X588399Y185374D01*
X588372Y185411D01*
X588362Y185430D01*
X588288Y185559D01*
X588233Y185689D01*
X588187Y185818D01*
X588159Y185938D01*
X588140Y186040D01*
X588131Y186114D01*
Y186169D01*
Y186188D01*
X588140Y186345D01*
X588168Y186502D01*
X588205Y186641D01*
X588251Y186761D01*
X588298Y186863D01*
X588335Y186946D01*
X588362Y186992D01*
X588372Y187011D01*
X588464Y187150D01*
X588575Y187270D01*
X588686Y187372D01*
X588797Y187464D01*
X588889Y187529D01*
X588973Y187584D01*
X589028Y187612D01*
X589037Y187621D01*
X589046D01*
X589213Y187695D01*
X589379Y187750D01*
X589546Y187797D01*
X589694Y187824D01*
X589814Y187843D01*
X589916Y187852D01*
X590147D01*
X590276Y187834D01*
D02*
G37*
G36*
X603109Y181427D02*
X602258D01*
Y184265D01*
X601167D01*
X601066Y184256D01*
X600992D01*
X600927Y184246D01*
X600881Y184237D01*
X600844D01*
X600825Y184228D01*
X600816D01*
X600668Y184182D01*
X600603Y184154D01*
X600548Y184126D01*
X600493Y184098D01*
X600456Y184080D01*
X600437Y184071D01*
X600428Y184062D01*
X600354Y184006D01*
X600280Y183941D01*
X600141Y183803D01*
X600076Y183738D01*
X600030Y183682D01*
X600003Y183645D01*
X599993Y183636D01*
X599901Y183507D01*
X599799Y183368D01*
X599697Y183220D01*
X599596Y183081D01*
X599512Y182952D01*
X599448Y182850D01*
X599420Y182813D01*
X599402Y182786D01*
X599383Y182767D01*
Y182758D01*
X598542Y181427D01*
X597488D01*
X598588Y183165D01*
X598717Y183350D01*
X598838Y183516D01*
X598958Y183655D01*
X599059Y183784D01*
X599152Y183877D01*
X599226Y183951D01*
X599272Y183997D01*
X599291Y184015D01*
X599365Y184071D01*
X599448Y184135D01*
X599614Y184237D01*
X599688Y184274D01*
X599744Y184311D01*
X599781Y184330D01*
X599799Y184339D01*
X599633Y184367D01*
X599476Y184394D01*
X599337Y184441D01*
X599198Y184478D01*
X599078Y184524D01*
X598967Y184579D01*
X598865Y184625D01*
X598773Y184672D01*
X598699Y184727D01*
X598625Y184773D01*
X598569Y184810D01*
X598523Y184847D01*
X598486Y184875D01*
X598458Y184903D01*
X598449Y184912D01*
X598440Y184921D01*
X598366Y185014D01*
X598292Y185106D01*
X598181Y185300D01*
X598107Y185495D01*
X598052Y185679D01*
X598015Y185837D01*
X598005Y185901D01*
Y185966D01*
X597996Y186012D01*
Y186049D01*
Y186068D01*
Y186077D01*
X598005Y186271D01*
X598033Y186447D01*
X598079Y186613D01*
X598126Y186752D01*
X598181Y186872D01*
X598218Y186965D01*
X598255Y187020D01*
X598264Y187029D01*
Y187039D01*
X598375Y187187D01*
X598486Y187316D01*
X598606Y187427D01*
X598717Y187510D01*
X598819Y187575D01*
X598902Y187612D01*
X598958Y187640D01*
X598967Y187649D01*
X598976D01*
X599059Y187677D01*
X599161Y187704D01*
X599365Y187750D01*
X599586Y187778D01*
X599790Y187806D01*
X599984Y187815D01*
X600067D01*
X600141Y187824D01*
X603109D01*
Y181427D01*
D02*
G37*
G36*
X597257Y183682D02*
Y182961D01*
X594474D01*
Y181427D01*
X593688D01*
Y182961D01*
X592819D01*
Y183682D01*
X593688D01*
Y187824D01*
X594326D01*
X597257Y183682D01*
D02*
G37*
G36*
X612003Y172210D02*
X612042D01*
X612081D01*
X612094D01*
X612107D01*
X612225Y172197D01*
X612343Y172171D01*
X612565Y172105D01*
X612761Y172014D01*
X612931Y171909D01*
X613081Y171811D01*
X613140Y171765D01*
X613186Y171719D01*
X613232Y171687D01*
X613284Y171635D01*
X613408Y171497D01*
X613519Y171360D01*
X613611Y171216D01*
X613689Y171072D01*
X613742Y170928D01*
X613801Y170791D01*
X613833Y170654D01*
X613866Y170530D01*
X613885Y170418D01*
X613899Y170301D01*
X613912Y170209D01*
Y170131D01*
X613905Y170059D01*
Y170007D01*
Y169981D01*
Y169967D01*
X613872Y169765D01*
X613807Y169555D01*
X613729Y169346D01*
X613637Y169137D01*
X613526Y168934D01*
X613408Y168738D01*
X613278Y168542D01*
X613153Y168366D01*
X613022Y168196D01*
X612898Y168045D01*
X612787Y167908D01*
X612689Y167797D01*
X612598Y167705D01*
X612539Y167633D01*
X612513Y167607D01*
X612493Y167588D01*
X612486Y167581D01*
X612480Y167575D01*
X612264Y167372D01*
X612055Y167189D01*
X611852Y167026D01*
X611650Y166888D01*
X611467Y166770D01*
X611297Y166666D01*
X611133Y166581D01*
X610976Y166516D01*
X610845Y166463D01*
X610721Y166418D01*
X610623Y166385D01*
X610525Y166365D01*
X610453Y166346D01*
X610407Y166339D01*
X610375Y166332D01*
X610362D01*
X610185Y166326D01*
X610015Y166339D01*
X609858Y166365D01*
X609708Y166398D01*
X609558Y166444D01*
X609427Y166496D01*
X609303Y166555D01*
X609185Y166620D01*
X609087Y166679D01*
X608989Y166738D01*
X608910Y166790D01*
X608845Y166842D01*
X608793Y166895D01*
X608754Y166921D01*
X608721Y166954D01*
X608577Y167111D01*
X608466Y167274D01*
X608368Y167424D01*
X608296Y167575D01*
X608244Y167692D01*
X608211Y167790D01*
X608191Y167823D01*
X608185Y167856D01*
Y167869D01*
X608178Y167875D01*
X608145Y168065D01*
X608132Y168261D01*
X608139Y168438D01*
X608159Y168601D01*
X608185Y168745D01*
X608211Y168850D01*
X608224Y168889D01*
X608231Y168921D01*
Y168934D01*
X608237Y168941D01*
X608309Y169144D01*
X608407Y169333D01*
X608505Y169497D01*
X608610Y169641D01*
X608695Y169765D01*
X608734Y169804D01*
X608767Y169850D01*
X608799Y169882D01*
X608819Y169902D01*
X608832Y169915D01*
X608839Y169922D01*
X608963Y170033D01*
X609087Y170131D01*
X609218Y170222D01*
X609335Y170301D01*
X609460Y170360D01*
X609584Y170418D01*
X609695Y170464D01*
X609806Y170497D01*
X609911Y170523D01*
X610002Y170549D01*
X610081Y170562D01*
X610159Y170575D01*
X610211Y170588D01*
X610251D01*
X610277D01*
X610290D01*
X610434D01*
X610578Y170575D01*
X610715Y170543D01*
X610839Y170510D01*
X610963Y170477D01*
X611074Y170432D01*
X611270Y170327D01*
X611356Y170281D01*
X611434Y170229D01*
X611493Y170183D01*
X611552Y170137D01*
X611597Y170105D01*
X611650Y170052D01*
X611761Y169928D01*
X611852Y169797D01*
X611937Y169673D01*
X612003Y169555D01*
X612048Y169444D01*
X612088Y169366D01*
X612107Y169307D01*
Y169294D01*
X612114Y169287D01*
X612153Y169118D01*
X612173Y168954D01*
X612186Y168797D01*
X612173Y168653D01*
X612166Y168529D01*
X612160Y168431D01*
X612146Y168366D01*
Y168353D01*
X612264Y168470D01*
X612375Y168594D01*
X612473Y168706D01*
X612565Y168823D01*
X612650Y168921D01*
X612722Y169019D01*
X612787Y169111D01*
X612840Y169202D01*
X612892Y169281D01*
X612931Y169346D01*
X612964Y169405D01*
X612996Y169451D01*
X613009Y169490D01*
X613022Y169516D01*
X613029Y169536D01*
X613036Y169543D01*
X613101Y169739D01*
X613153Y169922D01*
X613173Y170085D01*
X613186Y170229D01*
X613193Y170353D01*
Y170445D01*
X613186Y170504D01*
X613180Y170523D01*
X613153Y170654D01*
X613107Y170765D01*
X613055Y170870D01*
X612996Y170968D01*
X612951Y171040D01*
X612905Y171098D01*
X612859Y171144D01*
X612728Y171249D01*
X612591Y171334D01*
X612460Y171386D01*
X612336Y171432D01*
X612225Y171451D01*
X612140Y171458D01*
X612088D01*
X612062D01*
X611957Y171445D01*
X611839Y171419D01*
X611722Y171380D01*
X611617Y171327D01*
X611519Y171282D01*
X611441Y171242D01*
X611395Y171210D01*
X611382D01*
X611375Y171203D01*
X610865Y171805D01*
X611087Y171948D01*
X611310Y172053D01*
X611519Y172131D01*
X611708Y172177D01*
X611872Y172197D01*
X611937Y172210D01*
X612003D01*
D02*
G37*
G36*
X616501Y168379D02*
X615644Y163377D01*
X615134Y162868D01*
X613166Y164835D01*
X612081Y163750D01*
X611525Y164306D01*
X612611Y165391D01*
X611996Y166006D01*
X612506Y166516D01*
X613121Y165901D01*
X616049Y168830D01*
X616501Y168379D01*
D02*
G37*
G36*
X619246Y165071D02*
X619384Y165051D01*
X619501Y165025D01*
X619586Y164992D01*
X619645Y164973D01*
X619658D01*
X619665Y164966D01*
X619743Y164927D01*
X619835Y164875D01*
X620011Y164763D01*
X620188Y164626D01*
X620351Y164502D01*
X620495Y164371D01*
X620554Y164312D01*
X620613Y164267D01*
X622711Y162168D01*
X618187Y157644D01*
X617586Y158245D01*
X619593Y160252D01*
X618821Y161024D01*
X618743Y161089D01*
X618691Y161142D01*
X618638Y161181D01*
X618599Y161207D01*
X618573Y161233D01*
X618553Y161240D01*
X618547Y161246D01*
X618410Y161318D01*
X618344Y161344D01*
X618285Y161364D01*
X618227Y161383D01*
X618187Y161397D01*
X618168Y161403D01*
X618155D01*
X618063Y161416D01*
X617965Y161423D01*
X617769D01*
X617677D01*
X617605Y161416D01*
X617560Y161410D01*
X617547D01*
X617390Y161383D01*
X617220Y161357D01*
X617043Y161325D01*
X616873Y161299D01*
X616723Y161266D01*
X616605Y161240D01*
X616559Y161233D01*
X616527Y161227D01*
X616501D01*
X616494Y161220D01*
X614958Y160874D01*
X614212Y161619D01*
X616219Y162070D01*
X616442Y162109D01*
X616644Y162142D01*
X616828Y162155D01*
X616991Y162175D01*
X617122D01*
X617226D01*
X617292D01*
X617318D01*
X617409Y162162D01*
X617514Y162148D01*
X617704Y162103D01*
X617782Y162076D01*
X617847Y162063D01*
X617887Y162050D01*
X617906Y162044D01*
X617808Y162181D01*
X617717Y162312D01*
X617651Y162443D01*
X617579Y162567D01*
X617527Y162684D01*
X617488Y162802D01*
X617449Y162907D01*
X617416Y163005D01*
X617403Y163096D01*
X617383Y163181D01*
X617370Y163247D01*
X617364Y163306D01*
X617357Y163351D01*
Y163391D01*
Y163404D01*
Y163417D01*
X617370Y163534D01*
X617383Y163652D01*
X617442Y163868D01*
X617527Y164057D01*
X617618Y164227D01*
X617704Y164365D01*
X617743Y164417D01*
X617789Y164463D01*
X617815Y164502D01*
X617841Y164528D01*
X617854Y164541D01*
X617860Y164548D01*
X618004Y164678D01*
X618148Y164783D01*
X618298Y164868D01*
X618429Y164933D01*
X618553Y164979D01*
X618645Y165018D01*
X618710Y165032D01*
X618723D01*
X618730Y165038D01*
X618913Y165064D01*
X619083Y165077D01*
X619246Y165071D01*
D02*
G37*
G36*
X611498Y227715D02*
X608660D01*
Y226624D01*
X608669Y226523D01*
Y226449D01*
X608678Y226384D01*
X608687Y226338D01*
Y226301D01*
X608697Y226282D01*
Y226273D01*
X608743Y226125D01*
X608770Y226060D01*
X608798Y226005D01*
X608826Y225949D01*
X608844Y225912D01*
X608854Y225894D01*
X608863Y225885D01*
X608918Y225811D01*
X608983Y225737D01*
X609122Y225598D01*
X609187Y225533D01*
X609242Y225487D01*
X609279Y225459D01*
X609288Y225450D01*
X609418Y225358D01*
X609556Y225256D01*
X609704Y225154D01*
X609843Y225053D01*
X609972Y224969D01*
X610074Y224905D01*
X610111Y224877D01*
X610139Y224858D01*
X610157Y224840D01*
X610167D01*
X611498Y223999D01*
Y222945D01*
X609760Y224045D01*
X609575Y224174D01*
X609408Y224294D01*
X609270Y224415D01*
X609140Y224516D01*
X609048Y224609D01*
X608974Y224683D01*
X608928Y224729D01*
X608909Y224747D01*
X608854Y224821D01*
X608789Y224905D01*
X608687Y225071D01*
X608650Y225145D01*
X608613Y225201D01*
X608595Y225237D01*
X608586Y225256D01*
X608558Y225089D01*
X608530Y224932D01*
X608484Y224794D01*
X608447Y224655D01*
X608401Y224535D01*
X608345Y224424D01*
X608299Y224322D01*
X608253Y224230D01*
X608197Y224156D01*
X608151Y224082D01*
X608114Y224026D01*
X608077Y223980D01*
X608049Y223943D01*
X608022Y223915D01*
X608012Y223906D01*
X608003Y223897D01*
X607911Y223823D01*
X607818Y223749D01*
X607624Y223638D01*
X607430Y223564D01*
X607245Y223508D01*
X607088Y223472D01*
X607023Y223462D01*
X606958D01*
X606912Y223453D01*
X606875D01*
X606857D01*
X606847D01*
X606653Y223462D01*
X606478Y223490D01*
X606311Y223536D01*
X606172Y223582D01*
X606052Y223638D01*
X605960Y223675D01*
X605904Y223712D01*
X605895Y223721D01*
X605886D01*
X605738Y223832D01*
X605608Y223943D01*
X605498Y224063D01*
X605414Y224174D01*
X605350Y224276D01*
X605313Y224359D01*
X605285Y224415D01*
X605276Y224424D01*
Y224433D01*
X605248Y224516D01*
X605220Y224618D01*
X605174Y224821D01*
X605146Y225043D01*
X605118Y225247D01*
X605109Y225441D01*
Y225524D01*
X605100Y225598D01*
Y228566D01*
X611498D01*
Y227715D01*
D02*
G37*
G36*
X609963Y219930D02*
X611498D01*
Y219145D01*
X609963D01*
Y218276D01*
X609242D01*
Y219145D01*
X605100D01*
Y219783D01*
X609242Y222713D01*
X609963D01*
Y219930D01*
D02*
G37*
G36*
X609972Y217453D02*
X610111Y217425D01*
X610370Y217342D01*
X610592Y217240D01*
X610694Y217185D01*
X610777Y217129D01*
X610860Y217083D01*
X610934Y217027D01*
X610989Y216981D01*
X611036Y216935D01*
X611073Y216898D01*
X611110Y216879D01*
X611119Y216861D01*
X611128Y216852D01*
X611211Y216741D01*
X611285Y216630D01*
X611350Y216510D01*
X611405Y216389D01*
X611489Y216158D01*
X611544Y215927D01*
X611572Y215825D01*
X611581Y215724D01*
X611590Y215641D01*
X611600Y215567D01*
X611609Y215502D01*
Y215419D01*
X611600Y215224D01*
X611572Y215040D01*
X611535Y214864D01*
X611489Y214707D01*
X611424Y214559D01*
X611359Y214420D01*
X611295Y214291D01*
X611221Y214180D01*
X611147Y214078D01*
X611082Y213986D01*
X611008Y213912D01*
X610952Y213847D01*
X610906Y213801D01*
X610869Y213764D01*
X610842Y213745D01*
X610832Y213736D01*
X610712Y213643D01*
X610583Y213570D01*
X610462Y213496D01*
X610333Y213440D01*
X610083Y213348D01*
X609843Y213292D01*
X609741Y213274D01*
X609640Y213255D01*
X609556Y213246D01*
X609482Y213237D01*
X609418Y213227D01*
X609371D01*
X609344D01*
X609334D01*
X609168Y213237D01*
X609011Y213255D01*
X608854Y213283D01*
X608715Y213320D01*
X608586Y213366D01*
X608456Y213412D01*
X608345Y213468D01*
X608243Y213514D01*
X608151Y213570D01*
X608068Y213625D01*
X608003Y213671D01*
X607938Y213717D01*
X607892Y213754D01*
X607864Y213782D01*
X607846Y213801D01*
X607837Y213810D01*
X607735Y213921D01*
X607643Y214032D01*
X607569Y214152D01*
X607504Y214272D01*
X607439Y214392D01*
X607393Y214513D01*
X607328Y214734D01*
X607300Y214836D01*
X607282Y214929D01*
X607273Y215012D01*
X607263Y215086D01*
X607254Y215141D01*
Y215345D01*
X607273Y215456D01*
X607319Y215678D01*
X607384Y215881D01*
X607458Y216066D01*
X607532Y216214D01*
X607569Y216278D01*
X607596Y216334D01*
X607624Y216380D01*
X607643Y216408D01*
X607652Y216426D01*
X607661Y216436D01*
X605932Y216094D01*
Y213533D01*
X605183D01*
Y216713D01*
X608475Y217332D01*
X608576Y216593D01*
X608475Y216528D01*
X608391Y216445D01*
X608308Y216371D01*
X608243Y216297D01*
X608197Y216223D01*
X608151Y216168D01*
X608133Y216131D01*
X608123Y216121D01*
X608068Y216001D01*
X608022Y215881D01*
X607994Y215770D01*
X607966Y215659D01*
X607957Y215567D01*
X607948Y215493D01*
Y215317D01*
X607966Y215206D01*
X608012Y215012D01*
X608077Y214845D01*
X608142Y214697D01*
X608216Y214587D01*
X608280Y214503D01*
X608327Y214457D01*
X608336Y214439D01*
X608345D01*
X608502Y214309D01*
X608669Y214217D01*
X608844Y214152D01*
X609020Y214106D01*
X609168Y214078D01*
X609233Y214069D01*
X609288D01*
X609334Y214060D01*
X609371D01*
X609390D01*
X609399D01*
X609529D01*
X609649Y214078D01*
X609880Y214124D01*
X610074Y214189D01*
X610231Y214254D01*
X610361Y214328D01*
X610462Y214392D01*
X610490Y214420D01*
X610518Y214439D01*
X610527Y214448D01*
X610536Y214457D01*
X610610Y214531D01*
X610675Y214605D01*
X610786Y214771D01*
X610860Y214929D01*
X610906Y215086D01*
X610943Y215215D01*
X610952Y215326D01*
X610962Y215363D01*
Y215419D01*
X610952Y215594D01*
X610915Y215751D01*
X610869Y215890D01*
X610814Y216001D01*
X610758Y216103D01*
X610712Y216177D01*
X610675Y216214D01*
X610666Y216232D01*
X610536Y216343D01*
X610398Y216436D01*
X610241Y216510D01*
X610102Y216565D01*
X609963Y216602D01*
X609861Y216630D01*
X609815Y216639D01*
X609788Y216648D01*
X609769D01*
X609760D01*
X609824Y217471D01*
X609972Y217453D01*
D02*
G37*
G36*
X233465Y228080D02*
X233612D01*
X233760Y228071D01*
X233890Y228052D01*
X234019Y228043D01*
X234130Y228034D01*
X234232Y228015D01*
X234324Y228006D01*
X234408Y227988D01*
X234472Y227978D01*
X234528Y227969D01*
X234574Y227960D01*
X234602Y227951D01*
X234620Y227941D01*
X234629D01*
X234833Y227886D01*
X235018Y227821D01*
X235175Y227747D01*
X235314Y227692D01*
X235434Y227627D01*
X235517Y227590D01*
X235563Y227553D01*
X235582Y227544D01*
X235720Y227442D01*
X235841Y227340D01*
X235942Y227229D01*
X236035Y227128D01*
X236099Y227035D01*
X236146Y226961D01*
X236173Y226915D01*
X236183Y226906D01*
Y226897D01*
X236257Y226749D01*
X236303Y226591D01*
X236340Y226444D01*
X236368Y226305D01*
X236386Y226185D01*
X236395Y226083D01*
Y226000D01*
X236377Y225750D01*
X236340Y225519D01*
X236275Y225325D01*
X236210Y225158D01*
X236136Y225020D01*
X236109Y224964D01*
X236072Y224918D01*
X236053Y224881D01*
X236035Y224853D01*
X236016Y224844D01*
Y224835D01*
X235868Y224668D01*
X235693Y224530D01*
X235517Y224410D01*
X235351Y224317D01*
X235193Y224243D01*
X235129Y224206D01*
X235064Y224188D01*
X235018Y224169D01*
X234981Y224151D01*
X234962Y224141D01*
X234953D01*
X234814Y224104D01*
X234676Y224067D01*
X234371Y224012D01*
X234065Y223966D01*
X233779Y223938D01*
X233640Y223929D01*
X233520Y223920D01*
X233409D01*
X233307Y223910D01*
X233233D01*
X233169D01*
X233132D01*
X233122D01*
X232799Y223920D01*
X232494Y223938D01*
X232216Y223966D01*
X231957Y224012D01*
X231717Y224058D01*
X231504Y224114D01*
X231310Y224169D01*
X231144Y224225D01*
X230996Y224280D01*
X230867Y224345D01*
X230756Y224391D01*
X230672Y224437D01*
X230598Y224484D01*
X230552Y224511D01*
X230524Y224530D01*
X230515Y224539D01*
X230404Y224641D01*
X230303Y224752D01*
X230210Y224872D01*
X230136Y224992D01*
X230071Y225112D01*
X230016Y225232D01*
X229979Y225353D01*
X229942Y225464D01*
X229914Y225574D01*
X229896Y225676D01*
X229877Y225769D01*
X229868Y225843D01*
X229859Y225907D01*
Y226000D01*
X229877Y226249D01*
X229914Y226481D01*
X229979Y226675D01*
X230044Y226841D01*
X230108Y226980D01*
X230145Y227026D01*
X230173Y227072D01*
X230192Y227109D01*
X230210Y227137D01*
X230229Y227146D01*
Y227155D01*
X230386Y227322D01*
X230552Y227461D01*
X230737Y227581D01*
X230903Y227673D01*
X231061Y227747D01*
X231125Y227784D01*
X231190Y227803D01*
X231236Y227821D01*
X231273Y227840D01*
X231292Y227849D01*
X231301D01*
X231440Y227895D01*
X231578Y227932D01*
X231874Y227988D01*
X232179Y228034D01*
X232475Y228062D01*
X232605Y228071D01*
X232725Y228080D01*
X232836D01*
X232938Y228089D01*
X233011D01*
X233076D01*
X233113D01*
X233122D01*
X233298D01*
X233465Y228080D01*
D02*
G37*
G36*
X232226Y222237D02*
X236368D01*
Y221599D01*
X232226Y218668D01*
X231504D01*
Y221451D01*
X229970D01*
Y222237D01*
X231504D01*
Y223106D01*
X232226D01*
Y222237D01*
D02*
G37*
G36*
X231708Y217337D02*
X231893Y217207D01*
X232059Y217087D01*
X232198Y216967D01*
X232327Y216865D01*
X232420Y216773D01*
X232494Y216699D01*
X232540Y216653D01*
X232558Y216634D01*
X232614Y216560D01*
X232679Y216477D01*
X232780Y216310D01*
X232817Y216236D01*
X232854Y216181D01*
X232873Y216144D01*
X232882Y216126D01*
X232910Y216292D01*
X232938Y216449D01*
X232984Y216588D01*
X233021Y216726D01*
X233067Y216847D01*
X233122Y216958D01*
X233169Y217059D01*
X233215Y217152D01*
X233270Y217226D01*
X233317Y217300D01*
X233354Y217355D01*
X233391Y217401D01*
X233418Y217438D01*
X233446Y217466D01*
X233455Y217475D01*
X233465Y217485D01*
X233557Y217558D01*
X233649Y217633D01*
X233844Y217743D01*
X234038Y217817D01*
X234223Y217873D01*
X234380Y217910D01*
X234445Y217919D01*
X234509D01*
X234555Y217928D01*
X234592D01*
X234611D01*
X234620D01*
X234814Y217919D01*
X234990Y217891D01*
X235156Y217845D01*
X235295Y217799D01*
X235415Y217743D01*
X235508Y217707D01*
X235563Y217670D01*
X235572Y217660D01*
X235582D01*
X235730Y217549D01*
X235859Y217438D01*
X235970Y217318D01*
X236053Y217207D01*
X236118Y217106D01*
X236155Y217022D01*
X236183Y216967D01*
X236192Y216958D01*
Y216948D01*
X236220Y216865D01*
X236247Y216763D01*
X236294Y216560D01*
X236321Y216338D01*
X236349Y216135D01*
X236358Y215941D01*
Y215857D01*
X236368Y215783D01*
Y212816D01*
X229970D01*
Y213666D01*
X232808D01*
Y214757D01*
X232799Y214859D01*
Y214933D01*
X232790Y214998D01*
X232780Y215044D01*
Y215081D01*
X232771Y215099D01*
Y215109D01*
X232725Y215256D01*
X232697Y215321D01*
X232669Y215377D01*
X232642Y215432D01*
X232623Y215469D01*
X232614Y215487D01*
X232605Y215497D01*
X232549Y215571D01*
X232484Y215645D01*
X232346Y215783D01*
X232281Y215848D01*
X232226Y215894D01*
X232189Y215922D01*
X232179Y215931D01*
X232050Y216024D01*
X231911Y216126D01*
X231763Y216227D01*
X231625Y216329D01*
X231495Y216412D01*
X231394Y216477D01*
X231357Y216504D01*
X231329Y216523D01*
X231310Y216542D01*
X231301D01*
X229970Y217383D01*
Y218437D01*
X231708Y217337D01*
D02*
G37*
G36*
X147859Y119965D02*
X145021D01*
Y118874D01*
X145030Y118773D01*
Y118699D01*
X145039Y118634D01*
X145048Y118588D01*
Y118551D01*
X145057Y118532D01*
Y118523D01*
X145104Y118375D01*
X145132Y118310D01*
X145159Y118255D01*
X145187Y118199D01*
X145205Y118162D01*
X145215Y118144D01*
X145224Y118135D01*
X145279Y118061D01*
X145344Y117987D01*
X145483Y117848D01*
X145548Y117783D01*
X145603Y117737D01*
X145640Y117709D01*
X145649Y117700D01*
X145779Y117608D01*
X145917Y117506D01*
X146065Y117404D01*
X146204Y117303D01*
X146333Y117219D01*
X146435Y117155D01*
X146472Y117127D01*
X146500Y117108D01*
X146518Y117090D01*
X146528D01*
X147859Y116249D01*
Y115195D01*
X146121Y116295D01*
X145936Y116424D01*
X145769Y116544D01*
X145631Y116665D01*
X145501Y116766D01*
X145409Y116859D01*
X145335Y116933D01*
X145289Y116979D01*
X145270Y116997D01*
X145215Y117071D01*
X145150Y117155D01*
X145048Y117321D01*
X145011Y117395D01*
X144974Y117451D01*
X144956Y117487D01*
X144947Y117506D01*
X144919Y117339D01*
X144891Y117182D01*
X144845Y117044D01*
X144808Y116905D01*
X144762Y116785D01*
X144706Y116674D01*
X144660Y116572D01*
X144614Y116480D01*
X144558Y116406D01*
X144512Y116332D01*
X144475Y116276D01*
X144438Y116230D01*
X144410Y116193D01*
X144383Y116165D01*
X144373Y116156D01*
X144364Y116147D01*
X144272Y116073D01*
X144179Y115999D01*
X143985Y115888D01*
X143791Y115814D01*
X143606Y115758D01*
X143449Y115722D01*
X143384Y115712D01*
X143319D01*
X143273Y115703D01*
X143236D01*
X143218D01*
X143208D01*
X143014Y115712D01*
X142839Y115740D01*
X142672Y115786D01*
X142534Y115833D01*
X142413Y115888D01*
X142321Y115925D01*
X142265Y115962D01*
X142256Y115971D01*
X142247D01*
X142099Y116082D01*
X141969Y116193D01*
X141859Y116313D01*
X141775Y116424D01*
X141711Y116526D01*
X141674Y116609D01*
X141646Y116665D01*
X141637Y116674D01*
Y116683D01*
X141609Y116766D01*
X141581Y116868D01*
X141535Y117071D01*
X141507Y117293D01*
X141480Y117497D01*
X141470Y117691D01*
Y117774D01*
X141461Y117848D01*
Y120816D01*
X147859D01*
Y119965D01*
D02*
G37*
G36*
X143745Y113956D02*
X143680Y113817D01*
X143615Y113678D01*
X143551Y113549D01*
X143495Y113438D01*
X143449Y113345D01*
X143412Y113290D01*
X143403Y113281D01*
Y113272D01*
X143301Y113105D01*
X143199Y112957D01*
X143107Y112828D01*
X143024Y112726D01*
X142959Y112633D01*
X142903Y112578D01*
X142866Y112532D01*
X142857Y112523D01*
X147859D01*
Y111737D01*
X141433D01*
Y112245D01*
X141590Y112338D01*
X141738Y112439D01*
X141886Y112559D01*
X142016Y112670D01*
X142127Y112781D01*
X142219Y112865D01*
X142247Y112902D01*
X142275Y112929D01*
X142284Y112939D01*
X142293Y112948D01*
X142450Y113142D01*
X142598Y113336D01*
X142728Y113521D01*
X142829Y113706D01*
X142922Y113863D01*
X142959Y113928D01*
X142986Y113983D01*
X143014Y114030D01*
X143024Y114067D01*
X143042Y114085D01*
Y114094D01*
X143800D01*
X143745Y113956D01*
D02*
G37*
G36*
Y108982D02*
X143680Y108843D01*
X143615Y108704D01*
X143551Y108575D01*
X143495Y108464D01*
X143449Y108371D01*
X143412Y108316D01*
X143403Y108307D01*
Y108297D01*
X143301Y108131D01*
X143199Y107983D01*
X143107Y107853D01*
X143024Y107752D01*
X142959Y107659D01*
X142903Y107604D01*
X142866Y107558D01*
X142857Y107548D01*
X147859D01*
Y106763D01*
X141433D01*
Y107271D01*
X141590Y107364D01*
X141738Y107465D01*
X141886Y107585D01*
X142016Y107696D01*
X142127Y107807D01*
X142219Y107891D01*
X142247Y107928D01*
X142275Y107955D01*
X142284Y107964D01*
X142293Y107974D01*
X142450Y108168D01*
X142598Y108362D01*
X142728Y108547D01*
X142829Y108732D01*
X142922Y108889D01*
X142959Y108954D01*
X142986Y109009D01*
X143014Y109056D01*
X143024Y109092D01*
X143042Y109111D01*
Y109120D01*
X143800D01*
X143745Y108982D01*
D02*
G37*
G36*
X139465Y204330D02*
X139612D01*
X139760Y204321D01*
X139890Y204302D01*
X140019Y204293D01*
X140130Y204284D01*
X140232Y204265D01*
X140324Y204256D01*
X140407Y204238D01*
X140472Y204228D01*
X140528Y204219D01*
X140574Y204210D01*
X140602Y204201D01*
X140620Y204191D01*
X140629D01*
X140833Y204136D01*
X141018Y204071D01*
X141175Y203997D01*
X141314Y203942D01*
X141434Y203877D01*
X141517Y203840D01*
X141563Y203803D01*
X141582Y203794D01*
X141720Y203692D01*
X141841Y203590D01*
X141942Y203479D01*
X142035Y203378D01*
X142100Y203285D01*
X142146Y203211D01*
X142174Y203165D01*
X142183Y203156D01*
Y203147D01*
X142257Y202999D01*
X142303Y202841D01*
X142340Y202694D01*
X142368Y202555D01*
X142386Y202435D01*
X142395Y202333D01*
Y202250D01*
X142377Y202000D01*
X142340Y201769D01*
X142275Y201575D01*
X142210Y201408D01*
X142136Y201270D01*
X142109Y201214D01*
X142072Y201168D01*
X142053Y201131D01*
X142035Y201103D01*
X142016Y201094D01*
Y201085D01*
X141868Y200918D01*
X141693Y200780D01*
X141517Y200660D01*
X141351Y200567D01*
X141193Y200493D01*
X141129Y200456D01*
X141064Y200438D01*
X141018Y200419D01*
X140981Y200401D01*
X140962Y200391D01*
X140953D01*
X140814Y200354D01*
X140676Y200317D01*
X140371Y200262D01*
X140065Y200216D01*
X139779Y200188D01*
X139640Y200179D01*
X139520Y200170D01*
X139409D01*
X139307Y200160D01*
X139233D01*
X139169D01*
X139132D01*
X139122D01*
X138799Y200170D01*
X138494Y200188D01*
X138216Y200216D01*
X137957Y200262D01*
X137717Y200308D01*
X137504Y200364D01*
X137310Y200419D01*
X137144Y200475D01*
X136996Y200530D01*
X136867Y200595D01*
X136756Y200641D01*
X136672Y200687D01*
X136598Y200734D01*
X136552Y200761D01*
X136524Y200780D01*
X136515Y200789D01*
X136404Y200891D01*
X136302Y201002D01*
X136210Y201122D01*
X136136Y201242D01*
X136071Y201362D01*
X136016Y201482D01*
X135979Y201603D01*
X135942Y201714D01*
X135914Y201824D01*
X135896Y201926D01*
X135877Y202019D01*
X135868Y202093D01*
X135859Y202157D01*
Y202250D01*
X135877Y202499D01*
X135914Y202731D01*
X135979Y202925D01*
X136044Y203091D01*
X136108Y203230D01*
X136145Y203276D01*
X136173Y203322D01*
X136192Y203359D01*
X136210Y203387D01*
X136229Y203396D01*
Y203405D01*
X136386Y203572D01*
X136552Y203711D01*
X136737Y203831D01*
X136903Y203923D01*
X137061Y203997D01*
X137125Y204034D01*
X137190Y204053D01*
X137236Y204071D01*
X137273Y204090D01*
X137292Y204099D01*
X137301D01*
X137440Y204145D01*
X137578Y204182D01*
X137874Y204238D01*
X138179Y204284D01*
X138475Y204312D01*
X138605Y204321D01*
X138725Y204330D01*
X138836D01*
X138938Y204339D01*
X139011D01*
X139076D01*
X139113D01*
X139122D01*
X139298D01*
X139465Y204330D01*
D02*
G37*
G36*
X142395Y197636D02*
X142238Y197544D01*
X142090Y197442D01*
X141942Y197322D01*
X141813Y197211D01*
X141702Y197100D01*
X141609Y197017D01*
X141582Y196980D01*
X141554Y196952D01*
X141545Y196943D01*
X141536Y196933D01*
X141378Y196739D01*
X141230Y196545D01*
X141101Y196360D01*
X140999Y196175D01*
X140907Y196018D01*
X140870Y195954D01*
X140842Y195898D01*
X140814Y195852D01*
X140805Y195815D01*
X140787Y195796D01*
Y195787D01*
X140028D01*
X140084Y195926D01*
X140149Y196064D01*
X140213Y196203D01*
X140278Y196333D01*
X140334Y196444D01*
X140380Y196536D01*
X140417Y196591D01*
X140426Y196601D01*
Y196610D01*
X140528Y196776D01*
X140629Y196924D01*
X140722Y197054D01*
X140805Y197155D01*
X140870Y197248D01*
X140925Y197303D01*
X140962Y197350D01*
X140971Y197359D01*
X135970D01*
Y198145D01*
X142395D01*
Y197636D01*
D02*
G37*
G36*
X137708Y193587D02*
X137893Y193457D01*
X138059Y193337D01*
X138198Y193217D01*
X138327Y193115D01*
X138420Y193023D01*
X138494Y192949D01*
X138540Y192903D01*
X138558Y192884D01*
X138614Y192810D01*
X138679Y192727D01*
X138780Y192560D01*
X138817Y192486D01*
X138854Y192431D01*
X138873Y192394D01*
X138882Y192376D01*
X138910Y192542D01*
X138938Y192699D01*
X138984Y192838D01*
X139021Y192976D01*
X139067Y193097D01*
X139122Y193208D01*
X139169Y193309D01*
X139215Y193402D01*
X139270Y193476D01*
X139317Y193550D01*
X139354Y193605D01*
X139390Y193651D01*
X139418Y193688D01*
X139446Y193716D01*
X139455Y193725D01*
X139465Y193735D01*
X139557Y193808D01*
X139649Y193883D01*
X139844Y193993D01*
X140038Y194067D01*
X140223Y194123D01*
X140380Y194160D01*
X140444Y194169D01*
X140509D01*
X140555Y194178D01*
X140592D01*
X140611D01*
X140620D01*
X140814Y194169D01*
X140990Y194141D01*
X141156Y194095D01*
X141295Y194049D01*
X141415Y193993D01*
X141508Y193957D01*
X141563Y193920D01*
X141573Y193910D01*
X141582D01*
X141730Y193799D01*
X141859Y193688D01*
X141970Y193568D01*
X142053Y193457D01*
X142118Y193356D01*
X142155Y193272D01*
X142183Y193217D01*
X142192Y193208D01*
Y193198D01*
X142220Y193115D01*
X142247Y193013D01*
X142294Y192810D01*
X142321Y192588D01*
X142349Y192385D01*
X142358Y192190D01*
Y192107D01*
X142368Y192033D01*
Y189065D01*
X135970D01*
Y189916D01*
X138808D01*
Y191007D01*
X138799Y191109D01*
Y191183D01*
X138790Y191248D01*
X138780Y191294D01*
Y191331D01*
X138771Y191349D01*
Y191358D01*
X138725Y191506D01*
X138697Y191571D01*
X138669Y191627D01*
X138642Y191682D01*
X138623Y191719D01*
X138614Y191737D01*
X138605Y191747D01*
X138549Y191821D01*
X138484Y191895D01*
X138346Y192033D01*
X138281Y192098D01*
X138226Y192144D01*
X138189Y192172D01*
X138179Y192181D01*
X138050Y192274D01*
X137911Y192376D01*
X137763Y192477D01*
X137625Y192579D01*
X137495Y192662D01*
X137394Y192727D01*
X137357Y192754D01*
X137329Y192773D01*
X137310Y192792D01*
X137301D01*
X135970Y193633D01*
Y194687D01*
X137708Y193587D01*
D02*
G37*
G36*
X134086Y276535D02*
X134409Y276498D01*
X134696Y276452D01*
X134834Y276415D01*
X134955Y276387D01*
X135066Y276359D01*
X135167Y276322D01*
X135260Y276294D01*
X135334Y276276D01*
X135389Y276248D01*
X135435Y276239D01*
X135463Y276221D01*
X135472D01*
X135750Y276082D01*
X135999Y275925D01*
X136212Y275758D01*
X136295Y275675D01*
X136378Y275601D01*
X136453Y275527D01*
X136517Y275453D01*
X136573Y275389D01*
X136610Y275333D01*
X136647Y275296D01*
X136674Y275259D01*
X136684Y275240D01*
X136693Y275231D01*
X136767Y275102D01*
X136832Y274972D01*
X136933Y274695D01*
X137007Y274418D01*
X137053Y274150D01*
X137072Y274020D01*
X137091Y273909D01*
X137100Y273808D01*
Y273724D01*
X137109Y273650D01*
Y273549D01*
X137100Y273364D01*
X137081Y273188D01*
X137063Y273022D01*
X137026Y272864D01*
X136980Y272717D01*
X136933Y272578D01*
X136887Y272448D01*
X136832Y272328D01*
X136785Y272227D01*
X136739Y272125D01*
X136693Y272051D01*
X136647Y271977D01*
X136610Y271931D01*
X136591Y271884D01*
X136573Y271866D01*
X136564Y271857D01*
X136453Y271727D01*
X136342Y271616D01*
X136212Y271515D01*
X136083Y271413D01*
X135824Y271246D01*
X135565Y271117D01*
X135445Y271061D01*
X135334Y271015D01*
X135232Y270978D01*
X135149Y270951D01*
X135075Y270923D01*
X135019Y270904D01*
X134983Y270895D01*
X134973D01*
X134761Y271746D01*
X134909Y271783D01*
X135047Y271829D01*
X135177Y271875D01*
X135297Y271921D01*
X135408Y271977D01*
X135500Y272032D01*
X135593Y272097D01*
X135676Y272153D01*
X135750Y272199D01*
X135805Y272254D01*
X135861Y272300D01*
X135907Y272337D01*
X135935Y272374D01*
X135962Y272402D01*
X135972Y272411D01*
X135981Y272421D01*
X136055Y272513D01*
X136110Y272615D01*
X136212Y272818D01*
X136286Y273012D01*
X136332Y273207D01*
X136369Y273373D01*
X136378Y273438D01*
Y273502D01*
X136388Y273558D01*
Y273623D01*
X136378Y273835D01*
X136342Y274039D01*
X136295Y274223D01*
X136240Y274390D01*
X136184Y274519D01*
X136157Y274575D01*
X136138Y274621D01*
X136120Y274658D01*
X136101Y274686D01*
X136092Y274704D01*
Y274713D01*
X135962Y274889D01*
X135824Y275037D01*
X135667Y275167D01*
X135519Y275268D01*
X135389Y275352D01*
X135278Y275407D01*
X135232Y275425D01*
X135204Y275444D01*
X135186Y275453D01*
X135177D01*
X134936Y275527D01*
X134696Y275583D01*
X134455Y275629D01*
X134234Y275657D01*
X134132Y275666D01*
X134039Y275675D01*
X133956D01*
X133891Y275684D01*
X133836D01*
X133790D01*
X133762D01*
X133753D01*
X133512Y275675D01*
X133291Y275657D01*
X133087Y275620D01*
X132902Y275583D01*
X132745Y275555D01*
X132680Y275536D01*
X132625Y275518D01*
X132579Y275509D01*
X132551Y275499D01*
X132532Y275490D01*
X132523D01*
X132310Y275398D01*
X132116Y275296D01*
X131959Y275185D01*
X131820Y275065D01*
X131709Y274963D01*
X131636Y274880D01*
X131589Y274815D01*
X131571Y274806D01*
Y274797D01*
X131451Y274603D01*
X131358Y274390D01*
X131293Y274186D01*
X131257Y273992D01*
X131229Y273817D01*
X131220Y273743D01*
Y273678D01*
X131210Y273632D01*
Y273558D01*
X131220Y273327D01*
X131257Y273114D01*
X131312Y272938D01*
X131367Y272781D01*
X131432Y272661D01*
X131478Y272569D01*
X131515Y272513D01*
X131534Y272495D01*
X131672Y272347D01*
X131830Y272208D01*
X131996Y272097D01*
X132163Y272005D01*
X132310Y271931D01*
X132384Y271903D01*
X132440Y271884D01*
X132486Y271866D01*
X132523Y271847D01*
X132542Y271838D01*
X132551D01*
X132357Y271006D01*
X132190Y271061D01*
X132042Y271117D01*
X131904Y271191D01*
X131765Y271256D01*
X131645Y271330D01*
X131534Y271413D01*
X131423Y271487D01*
X131330Y271561D01*
X131257Y271635D01*
X131182Y271700D01*
X131118Y271764D01*
X131072Y271810D01*
X131025Y271857D01*
X130998Y271894D01*
X130988Y271912D01*
X130979Y271921D01*
X130896Y272051D01*
X130813Y272180D01*
X130748Y272310D01*
X130693Y272448D01*
X130609Y272726D01*
X130554Y272975D01*
X130526Y273096D01*
X130517Y273197D01*
X130508Y273299D01*
X130498Y273382D01*
X130489Y273447D01*
Y273539D01*
X130508Y273845D01*
X130554Y274140D01*
X130609Y274399D01*
X130646Y274519D01*
X130683Y274630D01*
X130720Y274732D01*
X130757Y274825D01*
X130785Y274898D01*
X130813Y274972D01*
X130840Y275019D01*
X130859Y275056D01*
X130868Y275083D01*
X130877Y275093D01*
X131035Y275342D01*
X131220Y275555D01*
X131404Y275740D01*
X131589Y275897D01*
X131756Y276017D01*
X131830Y276063D01*
X131894Y276100D01*
X131941Y276137D01*
X131978Y276156D01*
X132005Y276165D01*
X132015Y276174D01*
X132301Y276304D01*
X132597Y276396D01*
X132893Y276461D01*
X133161Y276507D01*
X133281Y276526D01*
X133401Y276535D01*
X133494Y276544D01*
X133586D01*
X133651Y276553D01*
X133707D01*
X133743D01*
X133753D01*
X134086Y276535D01*
D02*
G37*
G36*
X136998Y266041D02*
X136240D01*
Y269194D01*
X136083Y269083D01*
X136018Y269028D01*
X135953Y268981D01*
X135898Y268935D01*
X135861Y268898D01*
X135833Y268870D01*
X135824Y268861D01*
X135778Y268815D01*
X135731Y268759D01*
X135611Y268630D01*
X135472Y268482D01*
X135334Y268325D01*
X135214Y268177D01*
X135158Y268112D01*
X135103Y268057D01*
X135066Y268011D01*
X135038Y267973D01*
X135019Y267955D01*
X135010Y267946D01*
X134881Y267798D01*
X134761Y267650D01*
X134640Y267521D01*
X134539Y267400D01*
X134437Y267289D01*
X134345Y267197D01*
X134261Y267104D01*
X134187Y267031D01*
X134113Y266957D01*
X134058Y266901D01*
X134012Y266855D01*
X133965Y266809D01*
X133910Y266762D01*
X133891Y266744D01*
X133734Y266614D01*
X133596Y266504D01*
X133457Y266411D01*
X133346Y266337D01*
X133244Y266282D01*
X133170Y266245D01*
X133124Y266226D01*
X133106Y266217D01*
X132967Y266161D01*
X132828Y266124D01*
X132699Y266087D01*
X132588Y266069D01*
X132486Y266060D01*
X132412Y266050D01*
X132366D01*
X132347D01*
X132209Y266060D01*
X132079Y266078D01*
X131950Y266097D01*
X131839Y266134D01*
X131617Y266226D01*
X131441Y266318D01*
X131358Y266374D01*
X131293Y266420D01*
X131229Y266467D01*
X131182Y266513D01*
X131145Y266550D01*
X131109Y266568D01*
X131099Y266587D01*
X131090Y266596D01*
X130998Y266698D01*
X130914Y266809D01*
X130850Y266929D01*
X130794Y267049D01*
X130702Y267289D01*
X130637Y267530D01*
X130618Y267631D01*
X130600Y267733D01*
X130591Y267826D01*
X130582Y267899D01*
X130572Y267964D01*
Y268057D01*
X130582Y268223D01*
X130591Y268380D01*
X130618Y268528D01*
X130646Y268667D01*
X130683Y268796D01*
X130720Y268917D01*
X130766Y269028D01*
X130813Y269129D01*
X130859Y269222D01*
X130905Y269296D01*
X130942Y269360D01*
X130979Y269416D01*
X131007Y269462D01*
X131035Y269490D01*
X131044Y269508D01*
X131053Y269517D01*
X131145Y269610D01*
X131247Y269693D01*
X131358Y269776D01*
X131469Y269841D01*
X131691Y269952D01*
X131913Y270026D01*
X132015Y270054D01*
X132116Y270082D01*
X132199Y270100D01*
X132274Y270119D01*
X132338Y270128D01*
X132384D01*
X132412Y270137D01*
X132421D01*
X132505Y269333D01*
X132292Y269314D01*
X132107Y269277D01*
X131941Y269222D01*
X131811Y269157D01*
X131700Y269102D01*
X131626Y269046D01*
X131580Y269009D01*
X131562Y268990D01*
X131451Y268852D01*
X131367Y268704D01*
X131303Y268547D01*
X131266Y268408D01*
X131238Y268279D01*
X131229Y268168D01*
X131220Y268131D01*
Y268075D01*
X131229Y267881D01*
X131266Y267705D01*
X131321Y267558D01*
X131377Y267428D01*
X131441Y267326D01*
X131488Y267262D01*
X131525Y267215D01*
X131543Y267197D01*
X131672Y267086D01*
X131802Y267003D01*
X131931Y266938D01*
X132061Y266901D01*
X132163Y266873D01*
X132255Y266864D01*
X132310Y266855D01*
X132320D01*
X132329D01*
X132495Y266873D01*
X132671Y266910D01*
X132828Y266975D01*
X132976Y267040D01*
X133096Y267114D01*
X133198Y267178D01*
X133235Y267197D01*
X133263Y267215D01*
X133272Y267234D01*
X133281D01*
X133383Y267308D01*
X133485Y267400D01*
X133596Y267502D01*
X133707Y267613D01*
X133928Y267844D01*
X134150Y268075D01*
X134252Y268195D01*
X134345Y268297D01*
X134428Y268399D01*
X134502Y268482D01*
X134557Y268547D01*
X134603Y268602D01*
X134631Y268639D01*
X134640Y268648D01*
X134834Y268880D01*
X135019Y269092D01*
X135186Y269268D01*
X135324Y269407D01*
X135445Y269527D01*
X135528Y269610D01*
X135583Y269656D01*
X135593Y269675D01*
X135602D01*
X135759Y269804D01*
X135907Y269906D01*
X136055Y269998D01*
X136184Y270072D01*
X136295Y270128D01*
X136378Y270165D01*
X136434Y270183D01*
X136443Y270192D01*
X136453D01*
X136554Y270229D01*
X136647Y270248D01*
X136739Y270266D01*
X136822Y270276D01*
X136896Y270285D01*
X136952D01*
X136989D01*
X136998D01*
Y266041D01*
D02*
G37*
G36*
X134169Y265191D02*
X134474Y265172D01*
X134751Y265144D01*
X135010Y265098D01*
X135251Y265052D01*
X135463Y264996D01*
X135657Y264941D01*
X135824Y264886D01*
X135972Y264830D01*
X136101Y264765D01*
X136212Y264719D01*
X136295Y264673D01*
X136369Y264627D01*
X136416Y264599D01*
X136443Y264580D01*
X136453Y264571D01*
X136564Y264469D01*
X136665Y264359D01*
X136758Y264238D01*
X136832Y264118D01*
X136896Y263998D01*
X136952Y263878D01*
X136989Y263757D01*
X137026Y263647D01*
X137053Y263536D01*
X137072Y263434D01*
X137091Y263342D01*
X137100Y263267D01*
X137109Y263203D01*
Y263110D01*
X137091Y262861D01*
X137053Y262630D01*
X136989Y262435D01*
X136924Y262269D01*
X136859Y262130D01*
X136822Y262084D01*
X136795Y262038D01*
X136776Y262001D01*
X136758Y261973D01*
X136739Y261964D01*
Y261955D01*
X136582Y261788D01*
X136416Y261649D01*
X136231Y261529D01*
X136064Y261437D01*
X135907Y261363D01*
X135842Y261326D01*
X135778Y261307D01*
X135731Y261289D01*
X135694Y261270D01*
X135676Y261261D01*
X135667D01*
X135528Y261215D01*
X135389Y261178D01*
X135093Y261122D01*
X134788Y261076D01*
X134492Y261049D01*
X134363Y261039D01*
X134243Y261030D01*
X134132D01*
X134030Y261021D01*
X133956D01*
X133891D01*
X133855D01*
X133845D01*
X133670D01*
X133503Y261030D01*
X133355D01*
X133207Y261039D01*
X133078Y261058D01*
X132948Y261067D01*
X132837Y261076D01*
X132736Y261095D01*
X132643Y261104D01*
X132560Y261122D01*
X132495Y261132D01*
X132440Y261141D01*
X132394Y261150D01*
X132366Y261159D01*
X132347Y261169D01*
X132338D01*
X132135Y261224D01*
X131950Y261289D01*
X131793Y261363D01*
X131654Y261418D01*
X131534Y261483D01*
X131451Y261520D01*
X131404Y261557D01*
X131386Y261566D01*
X131247Y261668D01*
X131127Y261770D01*
X131025Y261881D01*
X130933Y261982D01*
X130868Y262075D01*
X130822Y262149D01*
X130794Y262195D01*
X130785Y262204D01*
Y262213D01*
X130711Y262361D01*
X130665Y262519D01*
X130628Y262666D01*
X130600Y262805D01*
X130582Y262925D01*
X130572Y263027D01*
Y263110D01*
X130591Y263360D01*
X130628Y263591D01*
X130693Y263785D01*
X130757Y263952D01*
X130831Y264090D01*
X130859Y264146D01*
X130896Y264192D01*
X130914Y264229D01*
X130933Y264257D01*
X130951Y264266D01*
Y264275D01*
X131099Y264442D01*
X131275Y264580D01*
X131451Y264701D01*
X131617Y264793D01*
X131774Y264867D01*
X131839Y264904D01*
X131904Y264923D01*
X131950Y264941D01*
X131987Y264959D01*
X132005Y264969D01*
X132015D01*
X132153Y265006D01*
X132292Y265043D01*
X132597Y265098D01*
X132902Y265144D01*
X133189Y265172D01*
X133328Y265181D01*
X133448Y265191D01*
X133559D01*
X133660Y265200D01*
X133734D01*
X133799D01*
X133836D01*
X133845D01*
X134169Y265191D01*
D02*
G37*
G36*
X233586Y262047D02*
X233909Y262010D01*
X234196Y261964D01*
X234335Y261927D01*
X234455Y261899D01*
X234566Y261872D01*
X234667Y261835D01*
X234760Y261807D01*
X234834Y261789D01*
X234889Y261761D01*
X234935Y261751D01*
X234963Y261733D01*
X234972D01*
X235250Y261594D01*
X235499Y261437D01*
X235712Y261271D01*
X235795Y261187D01*
X235879Y261113D01*
X235952Y261040D01*
X236017Y260966D01*
X236073Y260901D01*
X236110Y260845D01*
X236147Y260808D01*
X236174Y260772D01*
X236184Y260753D01*
X236193Y260744D01*
X236267Y260614D01*
X236332Y260485D01*
X236433Y260208D01*
X236507Y259930D01*
X236553Y259662D01*
X236572Y259533D01*
X236590Y259422D01*
X236600Y259320D01*
Y259237D01*
X236609Y259163D01*
Y259061D01*
X236600Y258876D01*
X236581Y258700D01*
X236563Y258534D01*
X236526Y258377D01*
X236479Y258229D01*
X236433Y258090D01*
X236387Y257961D01*
X236332Y257841D01*
X236285Y257739D01*
X236239Y257637D01*
X236193Y257563D01*
X236147Y257489D01*
X236110Y257443D01*
X236091Y257397D01*
X236073Y257378D01*
X236063Y257369D01*
X235952Y257240D01*
X235842Y257129D01*
X235712Y257027D01*
X235583Y256925D01*
X235324Y256759D01*
X235065Y256629D01*
X234945Y256574D01*
X234834Y256528D01*
X234732Y256491D01*
X234649Y256463D01*
X234575Y256435D01*
X234519Y256417D01*
X234482Y256408D01*
X234473D01*
X234261Y257258D01*
X234408Y257295D01*
X234547Y257341D01*
X234677Y257388D01*
X234797Y257434D01*
X234908Y257489D01*
X235000Y257545D01*
X235093Y257610D01*
X235176Y257665D01*
X235250Y257711D01*
X235305Y257767D01*
X235361Y257813D01*
X235407Y257850D01*
X235435Y257887D01*
X235462Y257915D01*
X235472Y257924D01*
X235481Y257933D01*
X235555Y258025D01*
X235610Y258127D01*
X235712Y258331D01*
X235786Y258525D01*
X235832Y258719D01*
X235869Y258885D01*
X235879Y258950D01*
Y259015D01*
X235888Y259070D01*
Y259135D01*
X235879Y259348D01*
X235842Y259551D01*
X235795Y259736D01*
X235740Y259902D01*
X235684Y260032D01*
X235657Y260087D01*
X235638Y260133D01*
X235620Y260170D01*
X235601Y260198D01*
X235592Y260217D01*
Y260226D01*
X235462Y260402D01*
X235324Y260550D01*
X235167Y260679D01*
X235019Y260781D01*
X234889Y260864D01*
X234778Y260919D01*
X234732Y260938D01*
X234704Y260956D01*
X234686Y260966D01*
X234677D01*
X234436Y261040D01*
X234196Y261095D01*
X233955Y261141D01*
X233734Y261169D01*
X233632Y261178D01*
X233539Y261187D01*
X233456D01*
X233391Y261197D01*
X233336D01*
X233290D01*
X233262D01*
X233253D01*
X233012Y261187D01*
X232791Y261169D01*
X232587Y261132D01*
X232402Y261095D01*
X232245Y261067D01*
X232180Y261049D01*
X232125Y261030D01*
X232079Y261021D01*
X232051Y261012D01*
X232032Y261003D01*
X232023D01*
X231810Y260910D01*
X231616Y260808D01*
X231459Y260697D01*
X231320Y260577D01*
X231210Y260476D01*
X231136Y260392D01*
X231089Y260328D01*
X231071Y260318D01*
Y260309D01*
X230951Y260115D01*
X230858Y259902D01*
X230793Y259699D01*
X230756Y259505D01*
X230729Y259329D01*
X230720Y259255D01*
Y259191D01*
X230710Y259144D01*
Y259070D01*
X230720Y258839D01*
X230756Y258626D01*
X230812Y258451D01*
X230867Y258294D01*
X230932Y258173D01*
X230978Y258081D01*
X231015Y258025D01*
X231034Y258007D01*
X231173Y257859D01*
X231330Y257720D01*
X231496Y257610D01*
X231663Y257517D01*
X231810Y257443D01*
X231884Y257415D01*
X231940Y257397D01*
X231986Y257378D01*
X232023Y257360D01*
X232042Y257351D01*
X232051D01*
X231857Y256518D01*
X231690Y256574D01*
X231542Y256629D01*
X231404Y256703D01*
X231265Y256768D01*
X231145Y256842D01*
X231034Y256925D01*
X230923Y256999D01*
X230830Y257073D01*
X230756Y257147D01*
X230683Y257212D01*
X230618Y257277D01*
X230571Y257323D01*
X230525Y257369D01*
X230498Y257406D01*
X230488Y257425D01*
X230479Y257434D01*
X230396Y257563D01*
X230313Y257693D01*
X230248Y257822D01*
X230193Y257961D01*
X230109Y258238D01*
X230054Y258488D01*
X230026Y258608D01*
X230017Y258710D01*
X230008Y258811D01*
X229998Y258895D01*
X229989Y258959D01*
Y259052D01*
X230008Y259357D01*
X230054Y259653D01*
X230109Y259912D01*
X230146Y260032D01*
X230183Y260143D01*
X230220Y260245D01*
X230257Y260337D01*
X230285Y260411D01*
X230313Y260485D01*
X230340Y260531D01*
X230359Y260568D01*
X230368Y260596D01*
X230377Y260605D01*
X230535Y260855D01*
X230720Y261067D01*
X230904Y261252D01*
X231089Y261409D01*
X231256Y261530D01*
X231330Y261576D01*
X231394Y261613D01*
X231441Y261650D01*
X231478Y261668D01*
X231505Y261677D01*
X231515Y261687D01*
X231801Y261816D01*
X232097Y261909D01*
X232393Y261973D01*
X232661Y262020D01*
X232781Y262038D01*
X232901Y262047D01*
X232994Y262057D01*
X233086D01*
X233151Y262066D01*
X233207D01*
X233244D01*
X233253D01*
X233586Y262047D01*
D02*
G37*
G36*
X232384Y254947D02*
X232319Y254808D01*
X232254Y254669D01*
X232190Y254540D01*
X232134Y254429D01*
X232088Y254336D01*
X232051Y254281D01*
X232042Y254272D01*
Y254263D01*
X231940Y254096D01*
X231838Y253948D01*
X231746Y253819D01*
X231663Y253717D01*
X231598Y253625D01*
X231542Y253569D01*
X231505Y253523D01*
X231496Y253514D01*
X236498D01*
Y252728D01*
X230072D01*
Y253236D01*
X230229Y253329D01*
X230377Y253431D01*
X230525Y253551D01*
X230655Y253662D01*
X230766Y253773D01*
X230858Y253856D01*
X230886Y253893D01*
X230914Y253920D01*
X230923Y253930D01*
X230932Y253939D01*
X231089Y254133D01*
X231237Y254327D01*
X231367Y254512D01*
X231468Y254697D01*
X231561Y254854D01*
X231598Y254919D01*
X231625Y254974D01*
X231653Y255021D01*
X231663Y255058D01*
X231681Y255076D01*
Y255085D01*
X232439D01*
X232384Y254947D01*
D02*
G37*
G36*
X232411Y250703D02*
X232569Y250685D01*
X232726Y250666D01*
X232874Y250629D01*
X233003Y250583D01*
X233133Y250537D01*
X233244Y250490D01*
X233345Y250435D01*
X233438Y250389D01*
X233521Y250342D01*
X233586Y250296D01*
X233650Y250250D01*
X233697Y250213D01*
X233724Y250194D01*
X233743Y250176D01*
X233752Y250167D01*
X233854Y250065D01*
X233937Y249954D01*
X234020Y249843D01*
X234085Y249723D01*
X234140Y249612D01*
X234187Y249501D01*
X234251Y249288D01*
X234279Y249196D01*
X234298Y249104D01*
X234307Y249030D01*
X234316Y248956D01*
X234325Y248900D01*
Y248826D01*
X234316Y248650D01*
X234288Y248484D01*
X234251Y248336D01*
X234205Y248197D01*
X234168Y248096D01*
X234131Y248013D01*
X234103Y247957D01*
X234094Y247939D01*
X234002Y247791D01*
X233900Y247661D01*
X233798Y247550D01*
X233706Y247458D01*
X233613Y247393D01*
X233549Y247338D01*
X233502Y247301D01*
X233484Y247291D01*
X233558D01*
X233604D01*
X233632D01*
X233641D01*
X233826Y247301D01*
X234002Y247310D01*
X234159Y247328D01*
X234307Y247347D01*
X234427Y247375D01*
X234519Y247393D01*
X234556Y247402D01*
X234584D01*
X234593Y247412D01*
X234603D01*
X234769Y247458D01*
X234917Y247504D01*
X235046Y247550D01*
X235157Y247596D01*
X235241Y247633D01*
X235305Y247670D01*
X235352Y247689D01*
X235361Y247698D01*
X235462Y247772D01*
X235546Y247846D01*
X235620Y247920D01*
X235684Y247994D01*
X235740Y248050D01*
X235777Y248105D01*
X235795Y248142D01*
X235805Y248151D01*
X235860Y248253D01*
X235897Y248364D01*
X235925Y248466D01*
X235943Y248567D01*
X235952Y248650D01*
X235962Y248715D01*
Y248780D01*
X235952Y248928D01*
X235925Y249067D01*
X235888Y249187D01*
X235842Y249288D01*
X235805Y249362D01*
X235768Y249427D01*
X235740Y249464D01*
X235731Y249473D01*
X235629Y249566D01*
X235509Y249640D01*
X235379Y249704D01*
X235250Y249751D01*
X235139Y249788D01*
X235037Y249815D01*
X235000Y249825D01*
X234982D01*
X234963Y249834D01*
X234954D01*
X235019Y250592D01*
X235287Y250537D01*
X235518Y250463D01*
X235721Y250370D01*
X235888Y250278D01*
X236017Y250185D01*
X236073Y250139D01*
X236119Y250102D01*
X236147Y250074D01*
X236174Y250047D01*
X236184Y250037D01*
X236193Y250028D01*
X236267Y249936D01*
X236332Y249834D01*
X236433Y249631D01*
X236507Y249427D01*
X236553Y249233D01*
X236590Y249057D01*
X236600Y248983D01*
Y248919D01*
X236609Y248872D01*
Y248798D01*
X236590Y248540D01*
X236553Y248308D01*
X236489Y248096D01*
X236415Y247920D01*
X236387Y247846D01*
X236350Y247772D01*
X236313Y247717D01*
X236285Y247661D01*
X236267Y247624D01*
X236248Y247596D01*
X236230Y247578D01*
Y247569D01*
X236073Y247384D01*
X235897Y247217D01*
X235712Y247088D01*
X235536Y246977D01*
X235379Y246885D01*
X235305Y246848D01*
X235250Y246820D01*
X235194Y246801D01*
X235157Y246783D01*
X235139Y246774D01*
X235130D01*
X234991Y246727D01*
X234834Y246681D01*
X234519Y246616D01*
X234187Y246570D01*
X233872Y246542D01*
X233734Y246524D01*
X233595Y246515D01*
X233475D01*
X233373Y246506D01*
X233290D01*
X233225D01*
X233179D01*
X233170D01*
X232957D01*
X232754Y246515D01*
X232569Y246533D01*
X232393Y246552D01*
X232236Y246570D01*
X232088Y246589D01*
X231949Y246616D01*
X231829Y246644D01*
X231727Y246672D01*
X231635Y246690D01*
X231552Y246718D01*
X231487Y246737D01*
X231441Y246755D01*
X231404Y246774D01*
X231385Y246783D01*
X231376D01*
X231154Y246894D01*
X230960Y247014D01*
X230793Y247153D01*
X230655Y247273D01*
X230553Y247393D01*
X230479Y247486D01*
X230451Y247523D01*
X230433Y247550D01*
X230414Y247560D01*
Y247569D01*
X230303Y247763D01*
X230220Y247957D01*
X230156Y248151D01*
X230119Y248327D01*
X230091Y248484D01*
X230082Y248549D01*
Y248595D01*
X230072Y248641D01*
Y248706D01*
X230082Y248863D01*
X230100Y249011D01*
X230128Y249159D01*
X230165Y249288D01*
X230266Y249538D01*
X230313Y249649D01*
X230368Y249741D01*
X230433Y249834D01*
X230479Y249908D01*
X230535Y249982D01*
X230581Y250037D01*
X230618Y250084D01*
X230646Y250111D01*
X230664Y250130D01*
X230673Y250139D01*
X230784Y250241D01*
X230914Y250324D01*
X231034Y250407D01*
X231163Y250472D01*
X231302Y250527D01*
X231431Y250574D01*
X231672Y250638D01*
X231792Y250666D01*
X231894Y250685D01*
X231995Y250694D01*
X232079Y250703D01*
X232143Y250712D01*
X232190D01*
X232227D01*
X232236D01*
X232411Y250703D01*
D02*
G37*
%LPC*%
G36*
X640061Y143593D02*
X639871Y143573D01*
X639701Y143534D01*
X639551Y143462D01*
X639413Y143390D01*
X639302Y143318D01*
X639217Y143246D01*
X639185Y143226D01*
X639146Y143187D01*
X639061Y143089D01*
X638982Y142985D01*
X638917Y142880D01*
X638864Y142788D01*
X638825Y142710D01*
X638799Y142645D01*
X638786Y142605D01*
X638779Y142586D01*
X638753Y142455D01*
X638740Y142337D01*
Y142220D01*
X638753Y142115D01*
X638760Y142030D01*
X638773Y141965D01*
X638792Y141919D01*
Y141906D01*
X638845Y141788D01*
X638897Y141684D01*
X638956Y141586D01*
X639015Y141501D01*
X639067Y141435D01*
X639106Y141383D01*
X639132Y141357D01*
X639146Y141344D01*
X639296Y141220D01*
X639446Y141121D01*
X639597Y141049D01*
X639747Y141004D01*
X639865Y140978D01*
X639963Y140958D01*
X640022Y140951D01*
X640048D01*
X640231Y140964D01*
X640407Y141010D01*
X640558Y141069D01*
X640695Y141141D01*
X640806Y141213D01*
X640884Y141278D01*
X640917Y141298D01*
X640956Y141337D01*
X641087Y141494D01*
X641192Y141651D01*
X641264Y141814D01*
X641316Y141958D01*
X641342Y142089D01*
X641355Y142194D01*
X641362Y142252D01*
Y142279D01*
X641349Y142475D01*
X641303Y142651D01*
X641237Y142808D01*
X641172Y142939D01*
X641094Y143056D01*
X641028Y143135D01*
X641009Y143168D01*
X640989Y143187D01*
X640976Y143200D01*
X640969Y143207D01*
X640819Y143331D01*
X640662Y143436D01*
X640505Y143501D01*
X640368Y143547D01*
X640250Y143573D01*
X640146Y143586D01*
X640087Y143593D01*
X640061D01*
D02*
G37*
G36*
X642159Y141233D02*
X642016Y141220D01*
X641872Y141180D01*
X641754Y141128D01*
X641643Y141069D01*
X641551Y141004D01*
X641486Y140951D01*
X641440Y140919D01*
X641427Y140906D01*
X641316Y140781D01*
X641237Y140651D01*
X641179Y140527D01*
X641140Y140409D01*
X641113Y140317D01*
X641100Y140239D01*
X641094Y140180D01*
Y140167D01*
X641107Y140023D01*
X641146Y139879D01*
X641198Y139762D01*
X641257Y139650D01*
X641316Y139565D01*
X641368Y139500D01*
X641401Y139454D01*
X641407Y139448D01*
X641414Y139441D01*
X641525Y139343D01*
X641643Y139278D01*
X641760Y139226D01*
X641872Y139193D01*
X641963Y139167D01*
X642042Y139154D01*
X642094D01*
X642107D01*
X642264Y139167D01*
X642401Y139199D01*
X642525Y139258D01*
X642637Y139317D01*
X642728Y139382D01*
X642800Y139428D01*
X642852Y139480D01*
X642957Y139598D01*
X643035Y139729D01*
X643088Y139847D01*
X643127Y139964D01*
X643147Y140062D01*
X643160Y140141D01*
X643166Y140200D01*
Y140213D01*
X643153Y140370D01*
X643120Y140507D01*
X643075Y140631D01*
X643022Y140736D01*
X642963Y140821D01*
X642918Y140893D01*
X642878Y140932D01*
X642872Y140938D01*
X642865Y140945D01*
X642754Y141043D01*
X642630Y141115D01*
X642512Y141167D01*
X642401Y141200D01*
X642303Y141220D01*
X642231Y141226D01*
X642172Y141233D01*
X642159D01*
D02*
G37*
G36*
X637138Y138748D02*
X635713Y137323D01*
X639165Y136722D01*
X637138Y138748D01*
D02*
G37*
G36*
X634961Y134257D02*
X634857Y134244D01*
X634759Y134224D01*
X634680Y134198D01*
X634622Y134178D01*
X634582Y134165D01*
X634563Y134159D01*
X634445Y134093D01*
X634321Y134008D01*
X634203Y133917D01*
X634092Y133819D01*
X633994Y133734D01*
X633909Y133662D01*
X632562Y132315D01*
X634059Y130818D01*
X635484Y132243D01*
X635654Y132426D01*
X635779Y132603D01*
X635877Y132766D01*
X635936Y132904D01*
X635981Y133028D01*
X636001Y133113D01*
X636007Y133172D01*
X636014Y133191D01*
X636007Y133355D01*
X635981Y133498D01*
X635929Y133629D01*
X635883Y133740D01*
X635818Y133832D01*
X635765Y133897D01*
X635733Y133943D01*
X635726Y133950D01*
X635720Y133956D01*
X635635Y134028D01*
X635543Y134093D01*
X635458Y134139D01*
X635380Y134178D01*
X635301Y134205D01*
X635243Y134224D01*
X635203Y134237D01*
X635190D01*
X635079Y134257D01*
X634961D01*
D02*
G37*
G36*
X608114Y249747D02*
X606209D01*
Y247630D01*
X608225D01*
X608474Y247639D01*
X608687Y247676D01*
X608872Y247722D01*
X609011Y247778D01*
X609131Y247833D01*
X609205Y247879D01*
X609251Y247916D01*
X609269Y247926D01*
X609380Y248046D01*
X609464Y248166D01*
X609519Y248295D01*
X609565Y248406D01*
X609584Y248517D01*
X609593Y248601D01*
X609602Y248656D01*
Y248665D01*
Y248675D01*
X609593Y248785D01*
X609575Y248896D01*
X609547Y248989D01*
X609519Y249072D01*
X609482Y249146D01*
X609454Y249202D01*
X609436Y249238D01*
X609427Y249248D01*
X609362Y249340D01*
X609279Y249423D01*
X609196Y249488D01*
X609112Y249544D01*
X609038Y249581D01*
X608983Y249608D01*
X608946Y249627D01*
X608927Y249636D01*
X608798Y249673D01*
X608650Y249701D01*
X608502Y249719D01*
X608354Y249729D01*
X608225Y249738D01*
X608114Y249747D01*
D02*
G37*
G36*
X613994Y251060D02*
X611978D01*
X613994Y248194D01*
Y251060D01*
D02*
G37*
G36*
X602508Y210502D02*
X600493D01*
X600243Y210492D01*
X600031Y210455D01*
X599846Y210409D01*
X599707Y210354D01*
X599587Y210298D01*
X599513Y210252D01*
X599467Y210215D01*
X599448Y210206D01*
X599337Y210086D01*
X599254Y209965D01*
X599198Y209836D01*
X599152Y209725D01*
X599134Y209614D01*
X599124Y209531D01*
X599115Y209475D01*
Y209466D01*
Y209457D01*
X599124Y209346D01*
X599143Y209235D01*
X599171Y209142D01*
X599198Y209059D01*
X599235Y208985D01*
X599263Y208930D01*
X599282Y208893D01*
X599291Y208884D01*
X599356Y208791D01*
X599439Y208708D01*
X599522Y208643D01*
X599605Y208588D01*
X599679Y208551D01*
X599735Y208523D01*
X599772Y208505D01*
X599790Y208495D01*
X599920Y208458D01*
X600067Y208431D01*
X600215Y208412D01*
X600363Y208403D01*
X600493Y208394D01*
X600604Y208384D01*
X602508D01*
Y210502D01*
D02*
G37*
G36*
X594724Y209938D02*
Y207071D01*
X596739D01*
X594724Y209938D01*
D02*
G37*
G36*
X589749D02*
Y207071D01*
X591765D01*
X589749Y209938D01*
D02*
G37*
G36*
X602258Y187113D02*
X600243D01*
X599993Y187103D01*
X599781Y187066D01*
X599596Y187020D01*
X599457Y186965D01*
X599337Y186909D01*
X599263Y186863D01*
X599217Y186826D01*
X599198Y186817D01*
X599087Y186696D01*
X599004Y186576D01*
X598949Y186447D01*
X598902Y186336D01*
X598884Y186225D01*
X598875Y186142D01*
X598865Y186086D01*
Y186077D01*
Y186068D01*
X598875Y185957D01*
X598893Y185846D01*
X598921Y185753D01*
X598949Y185670D01*
X598985Y185596D01*
X599013Y185541D01*
X599032Y185504D01*
X599041Y185495D01*
X599106Y185402D01*
X599189Y185319D01*
X599272Y185254D01*
X599355Y185199D01*
X599429Y185162D01*
X599485Y185134D01*
X599522Y185116D01*
X599540Y185106D01*
X599670Y185069D01*
X599818Y185042D01*
X599966Y185023D01*
X600113Y185014D01*
X600243Y185005D01*
X600354Y184995D01*
X602258D01*
Y187113D01*
D02*
G37*
G36*
X594474Y186549D02*
Y183682D01*
X596489D01*
X594474Y186549D01*
D02*
G37*
G36*
X610368Y169804D02*
X610172Y169778D01*
X609989Y169725D01*
X609819Y169647D01*
X609675Y169555D01*
X609551Y169471D01*
X609499Y169431D01*
X609460Y169392D01*
X609420Y169366D01*
X609394Y169340D01*
X609381Y169327D01*
X609375Y169320D01*
X609211Y169131D01*
X609087Y168954D01*
X608995Y168784D01*
X608930Y168627D01*
X608897Y168490D01*
X608871Y168385D01*
X608858Y168320D01*
X608865Y168300D01*
X608858Y168294D01*
X608852Y168196D01*
X608865Y168104D01*
X608897Y167928D01*
X608956Y167777D01*
X609008Y167647D01*
X609074Y167542D01*
X609133Y167470D01*
X609152Y167437D01*
X609185Y167405D01*
X609283Y167320D01*
X609381Y167248D01*
X609486Y167195D01*
X609577Y167156D01*
X609656Y167117D01*
X609728Y167097D01*
X609767Y167084D01*
X609786Y167078D01*
X609924Y167058D01*
X610048Y167052D01*
X610179Y167065D01*
X610283Y167078D01*
X610381Y167097D01*
X610453Y167117D01*
X610506Y167130D01*
X610525Y167137D01*
X610662Y167195D01*
X610787Y167267D01*
X610904Y167333D01*
X611002Y167405D01*
X611081Y167470D01*
X611146Y167522D01*
X611179Y167555D01*
X611192Y167568D01*
X611336Y167738D01*
X611447Y167901D01*
X611525Y168071D01*
X611578Y168215D01*
X611617Y168346D01*
X611630Y168451D01*
X611637Y168510D01*
Y168536D01*
X611623Y168732D01*
X611584Y168902D01*
X611525Y169065D01*
X611460Y169196D01*
X611388Y169307D01*
X611329Y169379D01*
X611310Y169412D01*
X611270Y169451D01*
X611120Y169575D01*
X610963Y169667D01*
X610819Y169732D01*
X610676Y169771D01*
X610551Y169791D01*
X610460Y169804D01*
X610394D01*
X610368D01*
D02*
G37*
G36*
X615703Y167372D02*
X613676Y165345D01*
X615102Y163920D01*
X615703Y167372D01*
D02*
G37*
G36*
X619233Y164221D02*
X619070Y164214D01*
X618926Y164188D01*
X618795Y164136D01*
X618684Y164090D01*
X618593Y164025D01*
X618527Y163972D01*
X618481Y163940D01*
X618475Y163933D01*
X618468Y163927D01*
X618396Y163842D01*
X618331Y163750D01*
X618285Y163665D01*
X618246Y163587D01*
X618220Y163508D01*
X618200Y163449D01*
X618187Y163410D01*
Y163397D01*
X618168Y163286D01*
Y163168D01*
X618181Y163064D01*
X618200Y162966D01*
X618227Y162887D01*
X618246Y162828D01*
X618259Y162789D01*
X618266Y162770D01*
X618331Y162652D01*
X618416Y162528D01*
X618508Y162410D01*
X618606Y162299D01*
X618691Y162201D01*
X618763Y162116D01*
X620109Y160769D01*
X621606Y162266D01*
X620181Y163691D01*
X619998Y163861D01*
X619822Y163986D01*
X619658Y164083D01*
X619521Y164142D01*
X619397Y164188D01*
X619312Y164208D01*
X619253Y164214D01*
X619233Y164221D01*
D02*
G37*
G36*
X607929Y227715D02*
X605812D01*
Y225700D01*
X605821Y225450D01*
X605858Y225237D01*
X605904Y225053D01*
X605960Y224914D01*
X606015Y224794D01*
X606062Y224720D01*
X606099Y224674D01*
X606108Y224655D01*
X606228Y224544D01*
X606348Y224461D01*
X606478Y224405D01*
X606589Y224359D01*
X606699Y224341D01*
X606783Y224331D01*
X606838Y224322D01*
X606847D01*
X606857D01*
X606968Y224331D01*
X607079Y224350D01*
X607171Y224378D01*
X607254Y224405D01*
X607328Y224442D01*
X607384Y224470D01*
X607421Y224489D01*
X607430Y224498D01*
X607522Y224562D01*
X607606Y224646D01*
X607670Y224729D01*
X607726Y224812D01*
X607763Y224886D01*
X607790Y224942D01*
X607809Y224979D01*
X607818Y224997D01*
X607855Y225126D01*
X607883Y225274D01*
X607901Y225422D01*
X607911Y225570D01*
X607920Y225700D01*
X607929Y225811D01*
Y227715D01*
D02*
G37*
G36*
X609242Y221946D02*
X606376Y219930D01*
X609242D01*
Y221946D01*
D02*
G37*
G36*
X233270Y227285D02*
X233187D01*
X233141D01*
X233132D01*
X233122D01*
X232836D01*
X232577Y227266D01*
X232346Y227248D01*
X232124Y227229D01*
X231939Y227202D01*
X231763Y227165D01*
X231615Y227128D01*
X231477Y227100D01*
X231366Y227063D01*
X231273Y227026D01*
X231190Y226998D01*
X231125Y226961D01*
X231079Y226943D01*
X231051Y226924D01*
X231033Y226906D01*
X231024D01*
X230931Y226832D01*
X230857Y226758D01*
X230783Y226684D01*
X230728Y226610D01*
X230635Y226453D01*
X230571Y226314D01*
X230534Y226185D01*
X230515Y226092D01*
X230506Y226055D01*
Y226000D01*
X230515Y225898D01*
X230524Y225806D01*
X230589Y225630D01*
X230672Y225473D01*
X230765Y225334D01*
X230857Y225232D01*
X230940Y225149D01*
X231005Y225103D01*
X231014Y225084D01*
X231024D01*
X231135Y225020D01*
X231264Y224964D01*
X231412Y224909D01*
X231569Y224872D01*
X231736Y224835D01*
X231911Y224807D01*
X232272Y224761D01*
X232438Y224742D01*
X232595Y224733D01*
X232743Y224724D01*
X232864D01*
X232974Y224715D01*
X233058D01*
X233104D01*
X233122D01*
X233409Y224724D01*
X233668Y224733D01*
X233908Y224752D01*
X234130Y224779D01*
X234324Y224807D01*
X234500Y224844D01*
X234657Y224881D01*
X234796Y224918D01*
X234916Y224955D01*
X235018Y224983D01*
X235101Y225020D01*
X235175Y225047D01*
X235221Y225075D01*
X235258Y225094D01*
X235277Y225112D01*
X235286D01*
X235369Y225177D01*
X235443Y225242D01*
X235499Y225316D01*
X235554Y225390D01*
X235637Y225537D01*
X235693Y225676D01*
X235720Y225796D01*
X235739Y225898D01*
X235748Y225935D01*
Y225991D01*
X235739Y226092D01*
X235730Y226194D01*
X235702Y226286D01*
X235665Y226370D01*
X235582Y226527D01*
X235489Y226665D01*
X235388Y226767D01*
X235304Y226850D01*
X235267Y226878D01*
X235240Y226897D01*
X235230Y226915D01*
X235221D01*
X235110Y226980D01*
X234981Y227035D01*
X234833Y227091D01*
X234676Y227128D01*
X234509Y227165D01*
X234334Y227192D01*
X233982Y227239D01*
X233807Y227257D01*
X233649Y227266D01*
X233501Y227276D01*
X233381D01*
X233270Y227285D01*
D02*
G37*
G36*
X235092Y221451D02*
X232226D01*
Y219435D01*
X235092Y221451D01*
D02*
G37*
G36*
X234629Y217059D02*
X234620D01*
X234611D01*
X234500Y217050D01*
X234389Y217031D01*
X234297Y217004D01*
X234213Y216976D01*
X234139Y216939D01*
X234084Y216911D01*
X234047Y216893D01*
X234038Y216884D01*
X233945Y216819D01*
X233862Y216736D01*
X233797Y216653D01*
X233742Y216569D01*
X233705Y216495D01*
X233677Y216440D01*
X233659Y216403D01*
X233649Y216384D01*
X233612Y216255D01*
X233585Y216107D01*
X233566Y215959D01*
X233557Y215811D01*
X233548Y215682D01*
X233538Y215571D01*
Y213666D01*
X235656D01*
Y215682D01*
X235646Y215931D01*
X235609Y216144D01*
X235563Y216329D01*
X235508Y216468D01*
X235452Y216588D01*
X235406Y216662D01*
X235369Y216708D01*
X235360Y216726D01*
X235240Y216837D01*
X235119Y216921D01*
X234990Y216976D01*
X234879Y217022D01*
X234768Y217041D01*
X234685Y217050D01*
X234629Y217059D01*
D02*
G37*
G36*
X144290Y119965D02*
X142173D01*
Y117950D01*
X142182Y117700D01*
X142219Y117487D01*
X142265Y117303D01*
X142321Y117164D01*
X142376Y117044D01*
X142423Y116970D01*
X142459Y116924D01*
X142469Y116905D01*
X142589Y116794D01*
X142709Y116711D01*
X142839Y116655D01*
X142949Y116609D01*
X143061Y116591D01*
X143144Y116581D01*
X143199Y116572D01*
X143208D01*
X143218D01*
X143329Y116581D01*
X143440Y116600D01*
X143532Y116628D01*
X143615Y116655D01*
X143689Y116692D01*
X143745Y116720D01*
X143782Y116739D01*
X143791Y116748D01*
X143883Y116812D01*
X143967Y116896D01*
X144031Y116979D01*
X144087Y117062D01*
X144124Y117136D01*
X144151Y117192D01*
X144170Y117229D01*
X144179Y117247D01*
X144216Y117376D01*
X144244Y117524D01*
X144262Y117672D01*
X144272Y117820D01*
X144281Y117950D01*
X144290Y118061D01*
Y119965D01*
D02*
G37*
G36*
X139270Y203535D02*
X139187D01*
X139141D01*
X139132D01*
X139122D01*
X138836D01*
X138577Y203516D01*
X138346Y203498D01*
X138124Y203479D01*
X137939Y203452D01*
X137763Y203415D01*
X137615Y203378D01*
X137477Y203350D01*
X137366Y203313D01*
X137273Y203276D01*
X137190Y203248D01*
X137125Y203211D01*
X137079Y203193D01*
X137051Y203174D01*
X137033Y203156D01*
X137024D01*
X136931Y203082D01*
X136857Y203008D01*
X136783Y202934D01*
X136728Y202860D01*
X136635Y202703D01*
X136571Y202564D01*
X136534Y202435D01*
X136515Y202342D01*
X136506Y202305D01*
Y202250D01*
X136515Y202148D01*
X136524Y202056D01*
X136589Y201880D01*
X136672Y201723D01*
X136765Y201584D01*
X136857Y201482D01*
X136940Y201399D01*
X137005Y201353D01*
X137014Y201334D01*
X137024D01*
X137135Y201270D01*
X137264Y201214D01*
X137412Y201159D01*
X137569Y201122D01*
X137736Y201085D01*
X137911Y201057D01*
X138272Y201011D01*
X138438Y200992D01*
X138595Y200983D01*
X138743Y200974D01*
X138863D01*
X138975Y200965D01*
X139058D01*
X139104D01*
X139122D01*
X139409Y200974D01*
X139668Y200983D01*
X139908Y201002D01*
X140130Y201029D01*
X140324Y201057D01*
X140500Y201094D01*
X140657Y201131D01*
X140796Y201168D01*
X140916Y201205D01*
X141018Y201233D01*
X141101Y201270D01*
X141175Y201297D01*
X141221Y201325D01*
X141258Y201344D01*
X141277Y201362D01*
X141286D01*
X141369Y201427D01*
X141443Y201492D01*
X141498Y201566D01*
X141554Y201640D01*
X141637Y201787D01*
X141693Y201926D01*
X141720Y202046D01*
X141739Y202148D01*
X141748Y202185D01*
Y202241D01*
X141739Y202342D01*
X141730Y202444D01*
X141702Y202536D01*
X141665Y202620D01*
X141582Y202777D01*
X141489Y202915D01*
X141388Y203017D01*
X141304Y203100D01*
X141267Y203128D01*
X141240Y203147D01*
X141230Y203165D01*
X141221D01*
X141110Y203230D01*
X140981Y203285D01*
X140833Y203341D01*
X140676Y203378D01*
X140509Y203415D01*
X140334Y203442D01*
X139982Y203489D01*
X139807Y203507D01*
X139649Y203516D01*
X139501Y203526D01*
X139381D01*
X139270Y203535D01*
D02*
G37*
G36*
X140629Y193309D02*
X140620D01*
X140611D01*
X140500Y193300D01*
X140389Y193281D01*
X140297Y193254D01*
X140213Y193226D01*
X140139Y193189D01*
X140084Y193161D01*
X140047Y193143D01*
X140038Y193134D01*
X139945Y193069D01*
X139862Y192986D01*
X139797Y192903D01*
X139742Y192819D01*
X139705Y192745D01*
X139677Y192690D01*
X139659Y192653D01*
X139649Y192634D01*
X139612Y192505D01*
X139585Y192357D01*
X139566Y192209D01*
X139557Y192061D01*
X139548Y191932D01*
X139538Y191821D01*
Y189916D01*
X141656D01*
Y191932D01*
X141646Y192181D01*
X141609Y192394D01*
X141563Y192579D01*
X141508Y192717D01*
X141452Y192838D01*
X141406Y192912D01*
X141369Y192958D01*
X141360Y192976D01*
X141240Y193087D01*
X141119Y193171D01*
X140990Y193226D01*
X140879Y193272D01*
X140768Y193291D01*
X140685Y193300D01*
X140629Y193309D01*
D02*
G37*
G36*
X133993Y264396D02*
X133910D01*
X133864D01*
X133845D01*
X133559Y264386D01*
X133300Y264377D01*
X133059Y264359D01*
X132837Y264331D01*
X132643Y264303D01*
X132468Y264266D01*
X132310Y264229D01*
X132172Y264192D01*
X132052Y264155D01*
X131950Y264127D01*
X131867Y264090D01*
X131793Y264063D01*
X131747Y264035D01*
X131709Y264016D01*
X131691Y263998D01*
X131682D01*
X131599Y263933D01*
X131525Y263869D01*
X131469Y263794D01*
X131414Y263720D01*
X131330Y263573D01*
X131275Y263434D01*
X131247Y263314D01*
X131229Y263212D01*
X131220Y263175D01*
Y263120D01*
X131229Y263018D01*
X131238Y262916D01*
X131266Y262824D01*
X131303Y262740D01*
X131386Y262583D01*
X131478Y262445D01*
X131580Y262343D01*
X131663Y262260D01*
X131700Y262232D01*
X131728Y262213D01*
X131737Y262195D01*
X131747D01*
X131857Y262130D01*
X131987Y262075D01*
X132135Y262019D01*
X132292Y261982D01*
X132458Y261945D01*
X132634Y261918D01*
X132985Y261871D01*
X133161Y261853D01*
X133318Y261844D01*
X133466Y261834D01*
X133586D01*
X133697Y261825D01*
X133780D01*
X133827D01*
X133836D01*
X133845D01*
X134132D01*
X134391Y261844D01*
X134622Y261862D01*
X134844Y261881D01*
X135029Y261908D01*
X135204Y261945D01*
X135352Y261982D01*
X135491Y262010D01*
X135602Y262047D01*
X135694Y262084D01*
X135778Y262112D01*
X135842Y262149D01*
X135889Y262167D01*
X135916Y262186D01*
X135935Y262204D01*
X135944D01*
X136037Y262278D01*
X136110Y262352D01*
X136184Y262426D01*
X136240Y262500D01*
X136332Y262657D01*
X136397Y262796D01*
X136434Y262925D01*
X136453Y263018D01*
X136462Y263055D01*
Y263110D01*
X136453Y263212D01*
X136443Y263305D01*
X136378Y263480D01*
X136295Y263637D01*
X136203Y263776D01*
X136110Y263878D01*
X136027Y263961D01*
X135962Y264007D01*
X135953Y264026D01*
X135944D01*
X135833Y264090D01*
X135704Y264146D01*
X135556Y264201D01*
X135399Y264238D01*
X135232Y264275D01*
X135056Y264303D01*
X134696Y264349D01*
X134529Y264368D01*
X134372Y264377D01*
X134224Y264386D01*
X134104D01*
X133993Y264396D01*
D02*
G37*
G36*
X232319Y249908D02*
X232291D01*
X232273D01*
X232264D01*
X232023Y249889D01*
X231801Y249852D01*
X231607Y249788D01*
X231450Y249714D01*
X231320Y249649D01*
X231228Y249584D01*
X231200Y249566D01*
X231173Y249547D01*
X231163Y249529D01*
X231154D01*
X231080Y249455D01*
X231006Y249381D01*
X230904Y249224D01*
X230821Y249067D01*
X230775Y248919D01*
X230738Y248798D01*
X230729Y248697D01*
X230720Y248660D01*
Y248512D01*
X230738Y248419D01*
X230784Y248253D01*
X230849Y248105D01*
X230914Y247976D01*
X230988Y247874D01*
X231052Y247800D01*
X231098Y247754D01*
X231108Y247735D01*
X231117D01*
X231274Y247615D01*
X231450Y247523D01*
X231635Y247458D01*
X231810Y247421D01*
X231958Y247393D01*
X232023Y247384D01*
X232088D01*
X232134Y247375D01*
X232171D01*
X232190D01*
X232199D01*
X232439Y247393D01*
X232652Y247430D01*
X232827Y247486D01*
X232975Y247550D01*
X233096Y247624D01*
X233179Y247680D01*
X233234Y247717D01*
X233253Y247735D01*
X233382Y247874D01*
X233475Y248022D01*
X233539Y248170D01*
X233586Y248318D01*
X233613Y248438D01*
X233623Y248540D01*
X233632Y248577D01*
Y248632D01*
X233613Y248826D01*
X233576Y249002D01*
X233512Y249159D01*
X233438Y249298D01*
X233373Y249399D01*
X233308Y249483D01*
X233271Y249529D01*
X233253Y249547D01*
X233105Y249667D01*
X232938Y249760D01*
X232772Y249815D01*
X232615Y249862D01*
X232476Y249889D01*
X232421Y249899D01*
X232365D01*
X232319Y249908D01*
D02*
G37*
%LPD*%
D14*
X617161Y130250D02*
X625293Y122118D01*
X617161Y130250D02*
X633425Y146513D01*
X641556Y138382D01*
X625293Y122118D02*
X641556Y138382D01*
X593859Y247566D02*
Y259066D01*
X616859D01*
Y247566D02*
Y259066D01*
X593859Y247566D02*
X616859D01*
X614859Y199066D02*
Y210566D01*
X591859Y199066D02*
X614859D01*
X591859D02*
Y210566D01*
X614859D01*
X614609Y175566D02*
Y187066D01*
X591609Y175566D02*
X614609D01*
X591609D02*
Y187066D01*
X614609D01*
X622175Y145368D02*
X630306Y153500D01*
X605911Y161632D02*
X622175Y145368D01*
X605911Y161632D02*
X614043Y169763D01*
X630306Y153500D01*
X605859Y240066D02*
X617359D01*
Y217066D02*
Y240066D01*
X605859Y217066D02*
X617359D01*
X605859D02*
Y240066D01*
X224109Y201316D02*
X235609D01*
X224109D02*
Y224316D01*
X235609D01*
Y201316D02*
Y224316D01*
X142109Y132316D02*
X153609D01*
Y109316D02*
Y132316D01*
X142109Y109316D02*
X153609D01*
X142109D02*
Y132316D01*
X130109Y177566D02*
X141609D01*
X130109D02*
Y200566D01*
X141609D01*
Y177566D02*
Y200566D01*
X124568Y297844D02*
X149650D01*
Y255262D02*
Y297844D01*
X124568Y255262D02*
X149650D01*
X124568D02*
Y297844D01*
X224068Y283357D02*
X249150D01*
Y240775D02*
Y283357D01*
X224068Y240775D02*
X249150D01*
X224068D02*
Y283357D01*
X169609Y275066D02*
X202609D01*
Y242066D02*
Y275066D01*
X169609Y242066D02*
X202609D01*
X169609D02*
Y275066D01*
M02*
