G04*
G04 #@! TF.GenerationSoftware,Altium Limited,Altium Designer,24.0.1 (36)*
G04*
G04 Layer_Color=16711935*
%FSLAX44Y44*%
%MOMM*%
G71*
G04*
G04 #@! TF.SameCoordinates,3C6FB229-8EB3-43CD-B7CA-B0B301390D20*
G04*
G04*
G04 #@! TF.FilePolarity,Positive*
G04*
G01*
G75*
%ADD12C,0.1000*%
%ADD14C,0.2000*%
D12*
X142859Y297566D02*
G03*
X142859Y297566I-5000J0D01*
G01*
X666520Y233260D02*
G03*
X666520Y233260I-5000J0D01*
G01*
X128859Y255566D02*
Y306566D01*
X173859Y255566D02*
Y306566D01*
X128859D02*
X173859D01*
X128859Y255566D02*
X173859D01*
X282609Y92566D02*
Y125066D01*
X300109Y92566D02*
Y125066D01*
X282609Y92566D02*
X300109D01*
X282609Y125066D02*
X300109D01*
X619520Y242260D02*
X670520D01*
X619520Y197260D02*
X670520D01*
Y242260D01*
X619520Y197260D02*
Y242260D01*
X414609Y68066D02*
Y74066D01*
X406609Y68066D02*
X414609D01*
X406609D02*
Y74066D01*
X414609D01*
X72109Y270316D02*
Y279816D01*
X89609Y270316D02*
Y279816D01*
X72109D02*
X89609D01*
X72109Y270316D02*
X89609D01*
X722609Y246816D02*
X732109D01*
X722609Y229316D02*
X732109D01*
Y246816D01*
X722609Y229316D02*
Y246816D01*
X412270Y434010D02*
X443270D01*
X412270Y451010D02*
X443270D01*
X412270Y434010D02*
Y451010D01*
X443270Y434010D02*
Y451010D01*
X216859Y259066D02*
X233359D01*
X216859Y268566D02*
X233359D01*
Y259066D02*
Y268566D01*
X216859Y259066D02*
Y268566D01*
X398109Y331066D02*
X415109D01*
X398109Y322066D02*
X415109D01*
X398109D02*
Y331066D01*
X415109Y322066D02*
Y331066D01*
X268609Y91816D02*
Y127816D01*
X241609Y91816D02*
Y127816D01*
X268609D01*
X241609Y91816D02*
X268609D01*
X408409Y288566D02*
X438809D01*
X408409Y302566D02*
X438809D01*
X408409Y288566D02*
Y302566D01*
X438809Y288566D02*
Y302566D01*
X639109Y146816D02*
Y163316D01*
X648609Y146816D02*
Y163316D01*
X639109Y146816D02*
X648609D01*
X639109Y163316D02*
X648609D01*
X411520Y356260D02*
X442520D01*
X411520Y373260D02*
X442520D01*
X411520Y356260D02*
Y373260D01*
X442520Y356260D02*
Y373260D01*
D14*
X194050Y218465D02*
X203550D01*
Y235465D01*
X194050D02*
X203550D01*
X194050Y218465D02*
Y235465D01*
X224609Y285816D02*
Y295316D01*
X207609D02*
X224609D01*
X207609Y285816D02*
Y295316D01*
Y285816D02*
X224609D01*
X63359Y294566D02*
Y304066D01*
Y294566D02*
X80359D01*
Y304066D01*
X63359D02*
X80359D01*
X88398Y252755D02*
Y262255D01*
X71398D02*
X88398D01*
X71398Y252755D02*
Y262255D01*
Y252755D02*
X88398D01*
X597270Y150260D02*
X606770D01*
Y167260D01*
X597270D02*
X606770D01*
X597270Y150260D02*
Y167260D01*
X658609Y146316D02*
X668109D01*
Y163316D01*
X658609D02*
X668109D01*
X658609Y146316D02*
Y163316D01*
X701609Y285299D02*
X711109D01*
X701609Y268299D02*
Y285299D01*
Y268299D02*
X711109D01*
Y285299D01*
X689359Y211316D02*
X698859D01*
X689359Y194316D02*
Y211316D01*
Y194316D02*
X698859D01*
Y211316D01*
X195359Y102316D02*
X204859D01*
X195359Y85316D02*
Y102316D01*
Y85316D02*
X204859D01*
Y102316D01*
X172609D02*
X182109D01*
X172609Y85316D02*
Y102316D01*
Y85316D02*
X182109D01*
Y102316D01*
X429609Y499316D02*
X439109D01*
Y516316D01*
X429609D02*
X439109D01*
X429609Y499316D02*
Y516316D01*
X129359Y239816D02*
Y249316D01*
X112359D02*
X129359D01*
X112359Y239816D02*
Y249316D01*
Y239816D02*
X129359D01*
X676609Y273816D02*
X686109D01*
Y290816D01*
X676609D02*
X686109D01*
X676609Y273816D02*
Y290816D01*
X673726Y327551D02*
X702935D01*
Y298848D02*
Y327551D01*
X673726Y298848D02*
X702935D01*
X673726D02*
Y327551D01*
X663359Y75816D02*
Y106816D01*
X632359D02*
X663359D01*
X632359Y75816D02*
Y106816D01*
Y75816D02*
X663359D01*
X236008Y45671D02*
X264710D01*
X236008Y16461D02*
Y45671D01*
Y16461D02*
X264710D01*
Y45671D01*
X704754Y84465D02*
Y113167D01*
Y84465D02*
X733964D01*
Y113167D01*
X704754D02*
X733964D01*
X739258Y230211D02*
X767960D01*
Y259421D01*
X739258D02*
X767960D01*
X739258Y230211D02*
Y259421D01*
X738958Y269261D02*
X767660D01*
Y298471D01*
X738958D02*
X767660D01*
X738958Y269261D02*
Y298471D01*
X413008Y213961D02*
Y243171D01*
X441710D01*
Y213961D02*
Y243171D01*
X413008Y213961D02*
X441710D01*
X714859Y162816D02*
Y170816D01*
X698859D02*
X714859D01*
X698859Y162816D02*
Y170816D01*
Y162816D02*
X714859D01*
X136609Y321316D02*
X144609D01*
Y337316D01*
X136609D02*
X144609D01*
X136609Y321316D02*
Y337316D01*
X699859Y141316D02*
Y149316D01*
Y141316D02*
X715859D01*
Y149316D01*
X699859D02*
X715859D01*
X99359Y321583D02*
X107359D01*
Y337583D01*
X99359D02*
X107359D01*
X99359Y321583D02*
Y337583D01*
X28508Y172211D02*
X57210D01*
Y201421D01*
X28508D02*
X57210D01*
X28508Y172211D02*
Y201421D01*
X245508Y224171D02*
X274210D01*
X245508Y194961D02*
Y224171D01*
Y194961D02*
X274210D01*
Y224171D01*
X294008Y17711D02*
X322710D01*
Y46921D01*
X294008D02*
X322710D01*
X294008Y17711D02*
Y46921D01*
X783758Y381461D02*
X812460D01*
Y410671D01*
X783758D02*
X812460D01*
X783758Y381461D02*
Y410671D01*
M02*
