G04*
G04 #@! TF.GenerationSoftware,Altium Limited,Altium Designer,24.0.1 (36)*
G04*
G04 Layer_Color=32768*
%FSLAX44Y44*%
%MOMM*%
G71*
G04*
G04 #@! TF.SameCoordinates,3C6FB229-8EB3-43CD-B7CA-B0B301390D20*
G04*
G04*
G04 #@! TF.FilePolarity,Positive*
G04*
G01*
G75*
%ADD12C,0.1000*%
D12*
X193800Y226965D02*
X203800D01*
X198800Y221965D02*
Y231965D01*
X216109Y285566D02*
Y295566D01*
X211109Y290566D02*
X221109D01*
X71859Y294316D02*
Y304316D01*
X66859Y299316D02*
X76859D01*
X79897Y252505D02*
Y262505D01*
X74897Y257505D02*
X84897D01*
X597020Y158760D02*
X607020D01*
X602020Y153760D02*
Y163760D01*
X658359Y154816D02*
X668359D01*
X663359Y149816D02*
Y159816D01*
X701359Y276799D02*
X711359D01*
X706359Y271799D02*
Y281799D01*
X689109Y202816D02*
X699109D01*
X694109Y197816D02*
Y207816D01*
X195109Y93816D02*
X205109D01*
X200109Y88816D02*
Y98816D01*
X172359Y93816D02*
X182359D01*
X177359Y88816D02*
Y98816D01*
X429359Y507816D02*
X439359D01*
X434359Y502816D02*
Y512816D01*
X120859Y239566D02*
Y249566D01*
X115859Y244566D02*
X125859D01*
X676359Y282316D02*
X686359D01*
X681359Y277316D02*
Y287316D01*
X683331Y313200D02*
X693331D01*
X688331Y308200D02*
Y318200D01*
X647859Y86316D02*
Y96316D01*
X642859Y91316D02*
X652859D01*
X245359Y31066D02*
X255359D01*
X250359Y26066D02*
Y36066D01*
X719359Y93816D02*
Y103816D01*
X714359Y98816D02*
X724359D01*
X748609Y244816D02*
X758609D01*
X753609Y239816D02*
Y249816D01*
X748309Y283866D02*
X758309D01*
X753309Y278866D02*
Y288866D01*
X427359Y223566D02*
Y233566D01*
X422359Y228566D02*
X432359D01*
X706859Y161816D02*
Y171816D01*
X701859Y166816D02*
X711859D01*
X135609Y329316D02*
X145609D01*
X140609Y324316D02*
Y334316D01*
X707859Y140316D02*
Y150316D01*
X702859Y145316D02*
X712859D01*
X98359Y329583D02*
X108359D01*
X103359Y324583D02*
Y334583D01*
X37859Y186816D02*
X47859D01*
X42859Y181816D02*
Y191816D01*
X254859Y209566D02*
X264859D01*
X259859Y204566D02*
Y214566D01*
X303359Y32316D02*
X313359D01*
X308359Y27316D02*
Y37316D01*
X793109Y396066D02*
X803109D01*
X798109Y391066D02*
Y401066D01*
M02*
