G04*
G04 #@! TF.GenerationSoftware,Altium Limited,Altium Designer,24.0.1 (36)*
G04*
G04 Layer_Color=8388736*
%FSLAX44Y44*%
%MOMM*%
G71*
G04*
G04 #@! TF.SameCoordinates,3C6FB229-8EB3-43CD-B7CA-B0B301390D20*
G04*
G04*
G04 #@! TF.FilePolarity,Negative*
G04*
G01*
G75*
%ADD16R,0.9000X0.6500*%
%ADD17R,0.6500X0.9000*%
%ADD18R,0.9000X0.8000*%
%ADD19R,0.8000X0.9000*%
%ADD20R,0.7500X0.9000*%
%ADD21O,1.6000X0.3500*%
%ADD23O,0.3500X1.6000*%
G04:AMPARAMS|DCode=25|XSize=1.45mm|YSize=0.3mm|CornerRadius=0.0495mm|HoleSize=0mm|Usage=FLASHONLY|Rotation=180.000|XOffset=0mm|YOffset=0mm|HoleType=Round|Shape=RoundedRectangle|*
%AMROUNDEDRECTD25*
21,1,1.4500,0.2010,0,0,180.0*
21,1,1.3510,0.3000,0,0,180.0*
1,1,0.0990,-0.6755,0.1005*
1,1,0.0990,0.6755,0.1005*
1,1,0.0990,0.6755,-0.1005*
1,1,0.0990,-0.6755,-0.1005*
%
%ADD25ROUNDEDRECTD25*%
%ADD28R,0.9500X1.4500*%
%ADD29R,1.4500X0.9500*%
%ADD34R,0.9000X0.7500*%
%ADD36R,0.5000X0.4500*%
%ADD40R,1.8250X4.6000*%
%ADD41R,1.7750X4.5000*%
%ADD42R,4.5500X1.9750*%
%ADD43R,4.6000X1.8500*%
%ADD44C,3.0000*%
%ADD45R,1.9016X1.4016*%
%ADD46R,0.4616X0.3516*%
%ADD47R,0.9016X1.0516*%
%ADD48R,1.0516X0.9016*%
%ADD49R,0.7016X1.1516*%
G04:AMPARAMS|DCode=50|XSize=0.7016mm|YSize=1.1016mm|CornerRadius=0.2008mm|HoleSize=0mm|Usage=FLASHONLY|Rotation=90.000|XOffset=0mm|YOffset=0mm|HoleType=Round|Shape=RoundedRectangle|*
%AMROUNDEDRECTD50*
21,1,0.7016,0.7000,0,0,90.0*
21,1,0.3000,1.1016,0,0,90.0*
1,1,0.4016,0.3500,0.1500*
1,1,0.4016,0.3500,-0.1500*
1,1,0.4016,-0.3500,-0.1500*
1,1,0.4016,-0.3500,0.1500*
%
%ADD50ROUNDEDRECTD50*%
%ADD51R,0.9016X1.1016*%
%ADD52R,1.5016X1.6016*%
G04:AMPARAMS|DCode=53|XSize=0.7516mm|YSize=1.3016mm|CornerRadius=0.0996mm|HoleSize=0mm|Usage=FLASHONLY|Rotation=180.000|XOffset=0mm|YOffset=0mm|HoleType=Round|Shape=RoundedRectangle|*
%AMROUNDEDRECTD53*
21,1,0.7516,1.1025,0,0,180.0*
21,1,0.5525,1.3016,0,0,180.0*
1,1,0.1991,-0.2763,0.5513*
1,1,0.1991,0.2763,0.5513*
1,1,0.1991,0.2763,-0.5513*
1,1,0.1991,-0.2763,-0.5513*
%
%ADD53ROUNDEDRECTD53*%
%ADD54R,1.0587X1.1121*%
%ADD55R,1.1121X1.0587*%
G04:AMPARAMS|DCode=56|XSize=0.7016mm|YSize=1.1016mm|CornerRadius=0.2008mm|HoleSize=0mm|Usage=FLASHONLY|Rotation=180.000|XOffset=0mm|YOffset=0mm|HoleType=Round|Shape=RoundedRectangle|*
%AMROUNDEDRECTD56*
21,1,0.7016,0.7000,0,0,180.0*
21,1,0.3000,1.1016,0,0,180.0*
1,1,0.4016,-0.1500,0.3500*
1,1,0.4016,0.1500,0.3500*
1,1,0.4016,0.1500,-0.3500*
1,1,0.4016,-0.1500,-0.3500*
%
%ADD56ROUNDEDRECTD56*%
%ADD57O,2.0000X1.5700*%
%ADD58O,1.1016X1.6256*%
G04:AMPARAMS|DCode=59|XSize=2.1016mm|YSize=2.1016mm|CornerRadius=0.5508mm|HoleSize=0mm|Usage=FLASHONLY|Rotation=90.000|XOffset=0mm|YOffset=0mm|HoleType=Round|Shape=RoundedRectangle|*
%AMROUNDEDRECTD59*
21,1,2.1016,1.0000,0,0,90.0*
21,1,1.0000,2.1016,0,0,90.0*
1,1,1.1016,0.5000,0.5000*
1,1,1.1016,0.5000,-0.5000*
1,1,1.1016,-0.5000,-0.5000*
1,1,1.1016,-0.5000,0.5000*
%
%ADD59ROUNDEDRECTD59*%
%ADD60O,1.6016X1.6256*%
%ADD61C,3.8016*%
%ADD62O,1.5700X2.0000*%
%ADD63C,0.7016*%
D16*
X198800Y234215D02*
D03*
Y219715D02*
D03*
X602020Y166010D02*
D03*
Y151510D02*
D03*
X663359Y162066D02*
D03*
Y147566D02*
D03*
X706359Y269549D02*
D03*
Y284049D02*
D03*
X694109Y195566D02*
D03*
Y210066D02*
D03*
X200109Y86566D02*
D03*
Y101066D02*
D03*
X177359Y86566D02*
D03*
Y101066D02*
D03*
X434359Y515066D02*
D03*
Y500566D02*
D03*
X681359Y289566D02*
D03*
Y275066D02*
D03*
D17*
X208859Y290566D02*
D03*
X223359D02*
D03*
X79109Y299316D02*
D03*
X64609D02*
D03*
X72648Y257505D02*
D03*
X87148D02*
D03*
X113609Y244566D02*
D03*
X128109D02*
D03*
D18*
X177334Y115816D02*
D03*
Y130816D02*
D03*
X340513Y112031D02*
D03*
Y127031D02*
D03*
X51359Y273816D02*
D03*
Y258816D02*
D03*
X716667Y210316D02*
D03*
Y195316D02*
D03*
X198359Y116316D02*
D03*
Y131316D02*
D03*
X320359Y111816D02*
D03*
Y126816D02*
D03*
X402859Y484566D02*
D03*
Y469566D02*
D03*
D19*
X416770Y393260D02*
D03*
X401770D02*
D03*
X591899Y121586D02*
D03*
X606899D02*
D03*
X93359Y233816D02*
D03*
X78359D02*
D03*
X651109Y275816D02*
D03*
X636109D02*
D03*
D20*
X218609Y248066D02*
D03*
X234109D02*
D03*
D21*
X123359Y300566D02*
D03*
Y294066D02*
D03*
Y287566D02*
D03*
Y281066D02*
D03*
Y274566D02*
D03*
Y268066D02*
D03*
Y261566D02*
D03*
X179359Y300566D02*
D03*
Y294066D02*
D03*
Y287566D02*
D03*
Y281066D02*
D03*
Y274566D02*
D03*
Y268066D02*
D03*
Y261566D02*
D03*
D23*
X664520Y247760D02*
D03*
X658020D02*
D03*
X651520D02*
D03*
X645020D02*
D03*
X638520D02*
D03*
X632020D02*
D03*
X625520D02*
D03*
X664520Y191760D02*
D03*
X658020D02*
D03*
X651520D02*
D03*
X645020D02*
D03*
X638520D02*
D03*
X632020D02*
D03*
X625520D02*
D03*
D25*
X625859Y81316D02*
D03*
Y86316D02*
D03*
Y91316D02*
D03*
Y96316D02*
D03*
Y101316D02*
D03*
X669859D02*
D03*
Y96316D02*
D03*
Y91316D02*
D03*
Y86316D02*
D03*
Y81316D02*
D03*
D28*
X201859Y184816D02*
D03*
X182359D02*
D03*
D29*
X589109Y221066D02*
D03*
Y240566D02*
D03*
D34*
X219770Y131510D02*
D03*
Y116010D02*
D03*
X627359Y147066D02*
D03*
Y162566D02*
D03*
D36*
X27020Y733260D02*
D03*
Y741760D02*
D03*
D40*
X179234Y280816D02*
D03*
D41*
X123484Y281066D02*
D03*
D42*
X645359Y192441D02*
D03*
D43*
X645109Y247816D02*
D03*
D44*
X791359Y610566D02*
D03*
X623859Y36816D02*
D03*
X184859Y42066D02*
D03*
D45*
X291359Y91816D02*
D03*
Y125816D02*
D03*
D46*
X406409Y71066D02*
D03*
X414809D02*
D03*
D47*
X74109Y275066D02*
D03*
X87609D02*
D03*
X231609Y263816D02*
D03*
X218609D02*
D03*
D48*
X727359Y244816D02*
D03*
Y231316D02*
D03*
X643859Y148566D02*
D03*
Y161566D02*
D03*
D49*
X418270Y428760D02*
D03*
X427770D02*
D03*
X437270D02*
D03*
Y456260D02*
D03*
X418270D02*
D03*
X417520Y351010D02*
D03*
X427020D02*
D03*
X436520D02*
D03*
Y378510D02*
D03*
X417520D02*
D03*
D50*
X805609Y270316D02*
D03*
X781609Y260816D02*
D03*
Y279816D02*
D03*
D51*
X399109Y326566D02*
D03*
X414109D02*
D03*
D52*
X255109Y127596D02*
D03*
Y92036D02*
D03*
D53*
X414109Y282566D02*
D03*
X433109D02*
D03*
X423609Y308566D02*
D03*
D54*
X699092Y166816D02*
D03*
X714626D02*
D03*
X715626Y145316D02*
D03*
X700092D02*
D03*
D55*
X140609Y337083D02*
D03*
Y321549D02*
D03*
X103359Y337350D02*
D03*
Y321816D02*
D03*
D56*
X60359Y342316D02*
D03*
X69859Y318316D02*
D03*
X50859D02*
D03*
D57*
X688331Y313200D02*
D03*
X719359Y98816D02*
D03*
D58*
X433109Y556816D02*
D03*
X408109Y556721D02*
D03*
D59*
X341829Y65131D02*
D03*
X498330D02*
D03*
D60*
X413729Y101131D02*
D03*
X451829Y126531D02*
D03*
X426429D02*
D03*
X401029D02*
D03*
X375629D02*
D03*
X464529Y101131D02*
D03*
X439129D02*
D03*
X388329D02*
D03*
D61*
X362929Y37631D02*
D03*
X477229D02*
D03*
D62*
X250359Y31066D02*
D03*
X753609Y244816D02*
D03*
X753309Y283866D02*
D03*
X427359Y228566D02*
D03*
X42859Y186816D02*
D03*
X259859Y209566D02*
D03*
X308359Y32316D02*
D03*
X798109Y396066D02*
D03*
D63*
X111859Y108066D02*
D03*
X98859Y167566D02*
D03*
X177859Y77566D02*
D03*
X352639Y112907D02*
D03*
X611859Y74566D02*
D03*
X571539Y104206D02*
D03*
X159359Y142316D02*
D03*
X201258Y277394D02*
D03*
X252609Y272066D02*
D03*
X585359Y195066D02*
D03*
X570359Y243566D02*
D03*
X175109Y319316D02*
D03*
X137359Y208316D02*
D03*
X156359Y187316D02*
D03*
X240609Y142816D02*
D03*
X640859Y121566D02*
D03*
X526359Y129566D02*
D03*
X487109Y133316D02*
D03*
X715609Y255816D02*
D03*
X616859Y264066D02*
D03*
X695359Y181066D02*
D03*
X148758Y308144D02*
D03*
X117528Y232976D02*
D03*
X120028Y214726D02*
D03*
X62109Y274816D02*
D03*
X183109Y217316D02*
D03*
X436609Y118066D02*
D03*
X543859Y104316D02*
D03*
X396609Y500816D02*
D03*
X431359Y398316D02*
D03*
X433859Y483566D02*
D03*
X419859Y255566D02*
D03*
X431678Y411043D02*
D03*
X432609Y328066D02*
D03*
X534609Y94566D02*
D03*
X596109Y87066D02*
D03*
X580609Y94316D02*
D03*
X413109Y162316D02*
D03*
X406359Y59066D02*
D03*
X575109Y131816D02*
D03*
X600859Y77066D02*
D03*
X176609Y225816D02*
D03*
X700569Y242066D02*
D03*
X718805Y180454D02*
D03*
X685609Y258316D02*
D03*
X767140Y749252D02*
D03*
X412109Y364316D02*
D03*
X27270Y751010D02*
D03*
M02*
