G04*
G04 #@! TF.GenerationSoftware,Altium Limited,Altium Designer,24.0.1 (36)*
G04*
G04 Layer_Color=8388736*
%FSLAX44Y44*%
%MOMM*%
G71*
G04*
G04 #@! TF.SameCoordinates,3C6FB229-8EB3-43CD-B7CA-B0B301390D20*
G04*
G04*
G04 #@! TF.FilePolarity,Positive*
G04*
G01*
G75*
%ADD14C,0.2000*%
G36*
X207142Y190492D02*
X204581D01*
X204239Y188764D01*
X204248Y188773D01*
X204267Y188782D01*
X204294Y188801D01*
X204341Y188828D01*
X204396Y188856D01*
X204461Y188893D01*
X204609Y188967D01*
X204794Y189041D01*
X204997Y189106D01*
X205219Y189152D01*
X205330Y189170D01*
X205533D01*
X205589Y189161D01*
X205663Y189152D01*
X205746Y189142D01*
X205838Y189124D01*
X205940Y189096D01*
X206162Y189032D01*
X206282Y188985D01*
X206402Y188921D01*
X206523Y188856D01*
X206643Y188782D01*
X206754Y188689D01*
X206865Y188588D01*
X206874Y188579D01*
X206892Y188560D01*
X206920Y188532D01*
X206957Y188486D01*
X207003Y188421D01*
X207050Y188357D01*
X207105Y188274D01*
X207160Y188181D01*
X207207Y188079D01*
X207262Y187968D01*
X207309Y187839D01*
X207355Y187710D01*
X207392Y187571D01*
X207419Y187414D01*
X207438Y187256D01*
X207447Y187090D01*
Y187081D01*
Y187053D01*
Y187007D01*
X207438Y186942D01*
X207429Y186868D01*
X207419Y186785D01*
X207401Y186683D01*
X207382Y186581D01*
X207327Y186341D01*
X207234Y186091D01*
X207179Y185962D01*
X207105Y185842D01*
X207031Y185712D01*
X206939Y185592D01*
X206929Y185583D01*
X206911Y185555D01*
X206874Y185518D01*
X206828Y185472D01*
X206763Y185417D01*
X206689Y185343D01*
X206597Y185278D01*
X206495Y185204D01*
X206384Y185130D01*
X206255Y185065D01*
X206116Y185000D01*
X205968Y184936D01*
X205811Y184890D01*
X205635Y184853D01*
X205450Y184825D01*
X205256Y184816D01*
X205173D01*
X205108Y184825D01*
X205034Y184834D01*
X204951Y184843D01*
X204849Y184853D01*
X204747Y184880D01*
X204516Y184936D01*
X204285Y185019D01*
X204165Y185075D01*
X204045Y185139D01*
X203934Y185213D01*
X203823Y185296D01*
X203814Y185306D01*
X203795Y185315D01*
X203777Y185352D01*
X203740Y185389D01*
X203693Y185435D01*
X203647Y185490D01*
X203592Y185564D01*
X203545Y185648D01*
X203490Y185731D01*
X203435Y185833D01*
X203333Y186054D01*
X203250Y186313D01*
X203222Y186452D01*
X203203Y186600D01*
X204026Y186665D01*
Y186656D01*
Y186637D01*
X204035Y186609D01*
X204045Y186563D01*
X204072Y186461D01*
X204109Y186323D01*
X204165Y186184D01*
X204239Y186027D01*
X204331Y185888D01*
X204442Y185759D01*
X204461Y185749D01*
X204498Y185712D01*
X204572Y185666D01*
X204674Y185611D01*
X204784Y185555D01*
X204923Y185509D01*
X205080Y185472D01*
X205256Y185463D01*
X205311D01*
X205348Y185472D01*
X205459Y185481D01*
X205589Y185518D01*
X205746Y185564D01*
X205903Y185639D01*
X206070Y185749D01*
X206143Y185814D01*
X206217Y185888D01*
X206227Y185897D01*
X206236Y185907D01*
X206255Y185934D01*
X206282Y185962D01*
X206347Y186064D01*
X206421Y186193D01*
X206486Y186350D01*
X206550Y186544D01*
X206597Y186776D01*
X206615Y186896D01*
Y187025D01*
Y187035D01*
Y187053D01*
Y187090D01*
X206606Y187136D01*
Y187192D01*
X206597Y187256D01*
X206569Y187404D01*
X206523Y187580D01*
X206458Y187756D01*
X206365Y187922D01*
X206236Y188079D01*
Y188088D01*
X206217Y188098D01*
X206171Y188144D01*
X206088Y188209D01*
X205977Y188283D01*
X205829Y188347D01*
X205663Y188412D01*
X205469Y188458D01*
X205358Y188477D01*
X205182D01*
X205108Y188468D01*
X205016Y188458D01*
X204905Y188431D01*
X204794Y188403D01*
X204674Y188357D01*
X204553Y188301D01*
X204544Y188292D01*
X204507Y188274D01*
X204452Y188227D01*
X204378Y188181D01*
X204304Y188116D01*
X204230Y188033D01*
X204146Y187950D01*
X204082Y187848D01*
X203342Y187950D01*
X203962Y191241D01*
X207142D01*
Y190492D01*
D02*
G37*
G36*
X200504Y191343D02*
X200578Y191334D01*
X200670Y191325D01*
X200772Y191306D01*
X200874Y191287D01*
X201114Y191223D01*
X201354Y191130D01*
X201474Y191075D01*
X201595Y191010D01*
X201706Y190927D01*
X201807Y190835D01*
X201817Y190825D01*
X201835Y190816D01*
X201854Y190779D01*
X201891Y190742D01*
X201937Y190696D01*
X201983Y190631D01*
X202029Y190566D01*
X202085Y190483D01*
X202177Y190308D01*
X202270Y190086D01*
X202307Y189975D01*
X202325Y189845D01*
X202344Y189716D01*
X202353Y189577D01*
Y189559D01*
Y189512D01*
X202344Y189438D01*
X202334Y189337D01*
X202316Y189226D01*
X202279Y189096D01*
X202242Y188958D01*
X202186Y188819D01*
X202177Y188801D01*
X202159Y188754D01*
X202122Y188680D01*
X202066Y188579D01*
X201992Y188468D01*
X201900Y188329D01*
X201789Y188190D01*
X201659Y188033D01*
X201641Y188015D01*
X201595Y187959D01*
X201549Y187913D01*
X201502Y187867D01*
X201447Y187811D01*
X201373Y187737D01*
X201299Y187663D01*
X201206Y187580D01*
X201114Y187488D01*
X201003Y187386D01*
X200883Y187284D01*
X200753Y187164D01*
X200605Y187044D01*
X200457Y186914D01*
X200448Y186905D01*
X200430Y186887D01*
X200393Y186859D01*
X200347Y186822D01*
X200291Y186766D01*
X200226Y186711D01*
X200078Y186591D01*
X199921Y186452D01*
X199773Y186313D01*
X199644Y186193D01*
X199588Y186147D01*
X199542Y186101D01*
X199533Y186091D01*
X199505Y186064D01*
X199468Y186027D01*
X199422Y185971D01*
X199376Y185907D01*
X199320Y185842D01*
X199209Y185685D01*
X202362D01*
Y184927D01*
X198118D01*
Y184936D01*
Y184973D01*
Y185028D01*
X198128Y185102D01*
X198137Y185185D01*
X198155Y185278D01*
X198174Y185370D01*
X198211Y185472D01*
Y185481D01*
X198220Y185490D01*
X198239Y185546D01*
X198276Y185629D01*
X198331Y185740D01*
X198405Y185870D01*
X198497Y186017D01*
X198599Y186166D01*
X198729Y186323D01*
Y186332D01*
X198747Y186341D01*
X198793Y186397D01*
X198876Y186480D01*
X198997Y186600D01*
X199135Y186739D01*
X199311Y186905D01*
X199524Y187090D01*
X199755Y187284D01*
X199764Y187293D01*
X199801Y187321D01*
X199856Y187367D01*
X199921Y187423D01*
X200005Y187497D01*
X200106Y187580D01*
X200208Y187673D01*
X200328Y187774D01*
X200559Y187996D01*
X200790Y188218D01*
X200901Y188329D01*
X201003Y188440D01*
X201095Y188542D01*
X201169Y188643D01*
Y188652D01*
X201188Y188662D01*
X201206Y188689D01*
X201225Y188727D01*
X201290Y188828D01*
X201364Y188948D01*
X201428Y189096D01*
X201493Y189254D01*
X201530Y189429D01*
X201549Y189596D01*
Y189605D01*
Y189614D01*
X201539Y189669D01*
X201530Y189762D01*
X201502Y189864D01*
X201465Y189993D01*
X201401Y190123D01*
X201317Y190252D01*
X201206Y190382D01*
X201188Y190400D01*
X201142Y190437D01*
X201077Y190483D01*
X200975Y190548D01*
X200846Y190603D01*
X200698Y190659D01*
X200522Y190696D01*
X200328Y190705D01*
X200273D01*
X200236Y190696D01*
X200125Y190687D01*
X199995Y190659D01*
X199856Y190622D01*
X199699Y190557D01*
X199551Y190474D01*
X199413Y190363D01*
X199394Y190345D01*
X199357Y190298D01*
X199302Y190224D01*
X199246Y190113D01*
X199182Y189984D01*
X199126Y189818D01*
X199089Y189633D01*
X199071Y189420D01*
X198266Y189503D01*
Y189512D01*
X198276Y189540D01*
Y189586D01*
X198285Y189651D01*
X198303Y189725D01*
X198322Y189808D01*
X198349Y189910D01*
X198377Y190012D01*
X198451Y190233D01*
X198562Y190455D01*
X198627Y190566D01*
X198710Y190677D01*
X198793Y190779D01*
X198886Y190872D01*
X198895Y190881D01*
X198913Y190890D01*
X198941Y190918D01*
X198987Y190945D01*
X199043Y190982D01*
X199108Y191019D01*
X199182Y191066D01*
X199274Y191112D01*
X199376Y191158D01*
X199487Y191204D01*
X199607Y191241D01*
X199736Y191278D01*
X199875Y191306D01*
X200023Y191334D01*
X200180Y191343D01*
X200347Y191352D01*
X200439D01*
X200504Y191343D01*
D02*
G37*
G36*
X195151Y191315D02*
X195234D01*
X195428Y191306D01*
X195631Y191278D01*
X195853Y191250D01*
X196057Y191204D01*
X196158Y191177D01*
X196241Y191149D01*
X196251D01*
X196260Y191140D01*
X196315Y191112D01*
X196399Y191075D01*
X196500Y191010D01*
X196611Y190927D01*
X196731Y190816D01*
X196842Y190687D01*
X196953Y190539D01*
Y190529D01*
X196963Y190520D01*
X197000Y190465D01*
X197037Y190372D01*
X197092Y190252D01*
X197138Y190113D01*
X197185Y189947D01*
X197212Y189771D01*
X197222Y189577D01*
Y189568D01*
Y189549D01*
Y189512D01*
X197212Y189466D01*
Y189401D01*
X197203Y189337D01*
X197166Y189179D01*
X197111Y188995D01*
X197037Y188801D01*
X196926Y188606D01*
X196852Y188514D01*
X196778Y188421D01*
X196768Y188412D01*
X196759Y188403D01*
X196731Y188375D01*
X196695Y188347D01*
X196648Y188310D01*
X196593Y188274D01*
X196519Y188227D01*
X196445Y188172D01*
X196352Y188125D01*
X196251Y188079D01*
X196140Y188024D01*
X196020Y187978D01*
X195881Y187941D01*
X195742Y187894D01*
X195585Y187867D01*
X195419Y187839D01*
X195437Y187830D01*
X195474Y187811D01*
X195530Y187774D01*
X195604Y187737D01*
X195770Y187635D01*
X195853Y187571D01*
X195927Y187515D01*
X195946Y187497D01*
X195992Y187451D01*
X196066Y187377D01*
X196158Y187284D01*
X196260Y187155D01*
X196380Y187016D01*
X196500Y186850D01*
X196630Y186665D01*
X197730Y184927D01*
X196676D01*
X195835Y186258D01*
Y186267D01*
X195816Y186286D01*
X195798Y186313D01*
X195770Y186350D01*
X195705Y186452D01*
X195622Y186581D01*
X195520Y186720D01*
X195419Y186868D01*
X195317Y187007D01*
X195224Y187136D01*
X195215Y187146D01*
X195187Y187183D01*
X195141Y187238D01*
X195077Y187303D01*
X194938Y187441D01*
X194864Y187506D01*
X194790Y187562D01*
X194781Y187571D01*
X194762Y187580D01*
X194725Y187598D01*
X194670Y187626D01*
X194614Y187654D01*
X194550Y187682D01*
X194402Y187728D01*
X194392D01*
X194374Y187737D01*
X194337D01*
X194291Y187747D01*
X194226Y187756D01*
X194152D01*
X194050Y187765D01*
X192959D01*
Y184927D01*
X192109D01*
Y191325D01*
X195077D01*
X195151Y191315D01*
D02*
G37*
G36*
X595507Y227848D02*
X595497Y227774D01*
Y227691D01*
X595488Y227497D01*
X595461Y227293D01*
X595433Y227071D01*
X595387Y226868D01*
X595359Y226766D01*
X595331Y226683D01*
Y226674D01*
X595322Y226665D01*
X595294Y226609D01*
X595257Y226526D01*
X595192Y226424D01*
X595109Y226313D01*
X594998Y226193D01*
X594869Y226082D01*
X594721Y225971D01*
X594712D01*
X594702Y225962D01*
X594647Y225925D01*
X594554Y225888D01*
X594434Y225832D01*
X594296Y225786D01*
X594129Y225740D01*
X593953Y225712D01*
X593759Y225703D01*
X593750D01*
X593731D01*
X593694D01*
X593648Y225712D01*
X593584D01*
X593519Y225721D01*
X593362Y225758D01*
X593177Y225814D01*
X592983Y225888D01*
X592789Y225999D01*
X592696Y226073D01*
X592604Y226147D01*
X592594Y226156D01*
X592585Y226165D01*
X592557Y226193D01*
X592530Y226230D01*
X592493Y226276D01*
X592456Y226332D01*
X592409Y226406D01*
X592354Y226480D01*
X592308Y226572D01*
X592262Y226674D01*
X592206Y226785D01*
X592160Y226905D01*
X592123Y227044D01*
X592077Y227182D01*
X592049Y227339D01*
X592021Y227506D01*
X592012Y227487D01*
X591993Y227450D01*
X591956Y227395D01*
X591919Y227321D01*
X591818Y227155D01*
X591753Y227071D01*
X591698Y226997D01*
X591679Y226979D01*
X591633Y226933D01*
X591559Y226859D01*
X591466Y226766D01*
X591337Y226665D01*
X591198Y226544D01*
X591032Y226424D01*
X590847Y226295D01*
X589109Y225194D01*
Y226248D01*
X590440Y227090D01*
X590449D01*
X590468Y227108D01*
X590496Y227127D01*
X590533Y227155D01*
X590634Y227219D01*
X590764Y227302D01*
X590902Y227404D01*
X591050Y227506D01*
X591189Y227608D01*
X591318Y227700D01*
X591328Y227709D01*
X591365Y227737D01*
X591420Y227783D01*
X591485Y227848D01*
X591623Y227987D01*
X591688Y228061D01*
X591744Y228135D01*
X591753Y228144D01*
X591762Y228162D01*
X591781Y228199D01*
X591808Y228255D01*
X591836Y228310D01*
X591864Y228375D01*
X591910Y228523D01*
Y228532D01*
X591919Y228551D01*
Y228588D01*
X591929Y228634D01*
X591938Y228699D01*
Y228773D01*
X591947Y228874D01*
Y229965D01*
X589109D01*
Y230816D01*
X595507D01*
Y227848D01*
D02*
G37*
G36*
X595424Y220498D02*
X594804D01*
X594795Y220507D01*
X594776Y220525D01*
X594739Y220562D01*
X594684Y220599D01*
X594619Y220655D01*
X594545Y220729D01*
X594453Y220803D01*
X594342Y220886D01*
X594231Y220969D01*
X594101Y221071D01*
X593953Y221173D01*
X593806Y221274D01*
X593639Y221385D01*
X593463Y221496D01*
X593269Y221607D01*
X593075Y221718D01*
X593066Y221727D01*
X593029Y221746D01*
X592973Y221774D01*
X592890Y221820D01*
X592789Y221866D01*
X592677Y221922D01*
X592548Y221986D01*
X592400Y222051D01*
X592234Y222125D01*
X592067Y222208D01*
X591882Y222282D01*
X591688Y222356D01*
X591291Y222504D01*
X590865Y222643D01*
X590856D01*
X590828Y222652D01*
X590782Y222661D01*
X590727Y222680D01*
X590653Y222698D01*
X590560Y222717D01*
X590459Y222744D01*
X590348Y222763D01*
X590218Y222791D01*
X590079Y222818D01*
X589784Y222865D01*
X589460Y222911D01*
X589109Y222939D01*
Y223743D01*
X589118D01*
X589146D01*
X589183D01*
X589238Y223734D01*
X589312D01*
X589405Y223724D01*
X589506Y223715D01*
X589617Y223706D01*
X589747Y223687D01*
X589876Y223669D01*
X590033Y223641D01*
X590191Y223613D01*
X590357Y223586D01*
X590542Y223549D01*
X590921Y223456D01*
X590930D01*
X590967Y223447D01*
X591023Y223429D01*
X591106Y223401D01*
X591198Y223373D01*
X591309Y223336D01*
X591439Y223299D01*
X591577Y223244D01*
X591735Y223188D01*
X591892Y223133D01*
X592243Y222994D01*
X592613Y222828D01*
X592983Y222643D01*
X592992Y222633D01*
X593029Y222615D01*
X593075Y222587D01*
X593149Y222550D01*
X593232Y222504D01*
X593334Y222439D01*
X593445Y222375D01*
X593565Y222301D01*
X593833Y222125D01*
X594111Y221940D01*
X594397Y221727D01*
X594665Y221506D01*
Y224640D01*
X595424D01*
Y220498D01*
D02*
G37*
%LPC*%
G36*
X194975Y190613D02*
X192959D01*
Y188495D01*
X194864D01*
X194975Y188505D01*
X195104Y188514D01*
X195252Y188523D01*
X195400Y188542D01*
X195548Y188569D01*
X195678Y188606D01*
X195696Y188615D01*
X195733Y188634D01*
X195788Y188662D01*
X195862Y188699D01*
X195946Y188754D01*
X196029Y188819D01*
X196112Y188902D01*
X196177Y188995D01*
X196186Y189004D01*
X196204Y189041D01*
X196232Y189096D01*
X196269Y189170D01*
X196297Y189254D01*
X196325Y189346D01*
X196343Y189457D01*
X196352Y189568D01*
Y189577D01*
Y189586D01*
X196343Y189642D01*
X196334Y189725D01*
X196315Y189836D01*
X196269Y189947D01*
X196214Y190076D01*
X196131Y190196D01*
X196020Y190317D01*
X196001Y190326D01*
X195955Y190363D01*
X195881Y190409D01*
X195761Y190465D01*
X195622Y190520D01*
X195437Y190566D01*
X195224Y190603D01*
X194975Y190613D01*
D02*
G37*
G36*
X594795Y229965D02*
X592677D01*
Y228061D01*
X592687Y227950D01*
X592696Y227820D01*
X592705Y227672D01*
X592724Y227524D01*
X592752Y227376D01*
X592789Y227247D01*
X592798Y227229D01*
X592816Y227192D01*
X592844Y227136D01*
X592881Y227062D01*
X592936Y226979D01*
X593001Y226896D01*
X593084Y226812D01*
X593177Y226748D01*
X593186Y226738D01*
X593223Y226720D01*
X593279Y226692D01*
X593353Y226655D01*
X593436Y226628D01*
X593528Y226600D01*
X593639Y226581D01*
X593750Y226572D01*
X593759D01*
X593769D01*
X593824Y226581D01*
X593907Y226591D01*
X594018Y226609D01*
X594129Y226655D01*
X594258Y226711D01*
X594379Y226794D01*
X594499Y226905D01*
X594508Y226923D01*
X594545Y226970D01*
X594591Y227044D01*
X594647Y227164D01*
X594702Y227302D01*
X594748Y227487D01*
X594785Y227700D01*
X594795Y227950D01*
Y229965D01*
D02*
G37*
%LPD*%
D14*
X176609Y176566D02*
Y193066D01*
Y176566D02*
X207609D01*
Y193066D01*
X176609D02*
X207609D01*
X580859Y246316D02*
X597359D01*
X580859Y215316D02*
Y246316D01*
Y215316D02*
X597359D01*
Y246316D01*
M02*
