G04*
G04 #@! TF.GenerationSoftware,Altium Limited,Altium Designer,24.0.1 (36)*
G04*
G04 Layer_Color=32896*
%FSLAX44Y44*%
%MOMM*%
G71*
G04*
G04 #@! TF.SameCoordinates,3C6FB229-8EB3-43CD-B7CA-B0B301390D20*
G04*
G04*
G04 #@! TF.FilePolarity,Positive*
G04*
G01*
G75*
%ADD12C,0.1000*%
D12*
X625823Y137851D02*
X632894Y130780D01*
X625823D02*
X632894Y137851D01*
X605359Y248316D02*
Y258316D01*
X600359Y253316D02*
X610359D01*
X603359Y199816D02*
Y209816D01*
X598359Y204816D02*
X608359D01*
X603109Y176316D02*
Y186316D01*
X598109Y181316D02*
X608109D01*
X614573Y154030D02*
X621644Y161101D01*
X614573D02*
X621644Y154030D01*
X606609Y228566D02*
X616609D01*
X611609Y223566D02*
Y233566D01*
X224859Y212816D02*
X234859D01*
X229859Y207816D02*
Y217816D01*
X142859Y120816D02*
X152859D01*
X147859Y115816D02*
Y125816D01*
X130859Y189066D02*
X140859D01*
X135859Y184066D02*
Y194066D01*
X132109Y276553D02*
X142109D01*
X137109Y271553D02*
Y281553D01*
X231609Y262066D02*
X241609D01*
X236609Y257066D02*
Y267066D01*
X181109Y258566D02*
X191109D01*
X186109Y253566D02*
Y263566D01*
M02*
