G04*
G04 #@! TF.GenerationSoftware,Altium Limited,Altium Designer,24.0.1 (36)*
G04*
G04 Layer_Color=8421504*
%FSLAX44Y44*%
%MOMM*%
G71*
G04*
G04 #@! TF.SameCoordinates,3C6FB229-8EB3-43CD-B7CA-B0B301390D20*
G04*
G04*
G04 #@! TF.FilePolarity,Positive*
G04*
G01*
G75*
%ADD16R,0.9000X0.6500*%
%ADD17R,0.6500X0.9000*%
%ADD18R,0.9000X0.8000*%
%ADD19R,0.8000X0.9000*%
%ADD20R,0.7500X0.9000*%
%ADD21O,1.6000X0.3500*%
%ADD22R,1.8000X1.3000*%
%ADD23O,0.3500X1.6000*%
%ADD24R,0.3600X0.2500*%
G04:AMPARAMS|DCode=25|XSize=1.45mm|YSize=0.3mm|CornerRadius=0.0495mm|HoleSize=0mm|Usage=FLASHONLY|Rotation=180.000|XOffset=0mm|YOffset=0mm|HoleType=Round|Shape=RoundedRectangle|*
%AMROUNDEDRECTD25*
21,1,1.4500,0.2010,0,0,180.0*
21,1,1.3510,0.3000,0,0,180.0*
1,1,0.0990,-0.6755,0.1005*
1,1,0.0990,0.6755,0.1005*
1,1,0.0990,0.6755,-0.1005*
1,1,0.0990,-0.6755,-0.1005*
%
%ADD25ROUNDEDRECTD25*%
%ADD26R,0.8000X0.9500*%
%ADD27R,0.9500X0.8000*%
%ADD28R,0.9500X1.4500*%
%ADD29R,1.4500X0.9500*%
%ADD30R,0.6000X1.0500*%
G04:AMPARAMS|DCode=31|XSize=0.6mm|YSize=1mm|CornerRadius=0.15mm|HoleSize=0mm|Usage=FLASHONLY|Rotation=90.000|XOffset=0mm|YOffset=0mm|HoleType=Round|Shape=RoundedRectangle|*
%AMROUNDEDRECTD31*
21,1,0.6000,0.7000,0,0,90.0*
21,1,0.3000,1.0000,0,0,90.0*
1,1,0.3000,0.3500,0.1500*
1,1,0.3000,0.3500,-0.1500*
1,1,0.3000,-0.3500,-0.1500*
1,1,0.3000,-0.3500,0.1500*
%
%ADD31ROUNDEDRECTD31*%
%ADD32R,0.8000X1.0000*%
%ADD33R,1.4000X1.5000*%
%ADD34R,0.9000X0.7500*%
G04:AMPARAMS|DCode=35|XSize=0.65mm|YSize=1.2mm|CornerRadius=0.0488mm|HoleSize=0mm|Usage=FLASHONLY|Rotation=180.000|XOffset=0mm|YOffset=0mm|HoleType=Round|Shape=RoundedRectangle|*
%AMROUNDEDRECTD35*
21,1,0.6500,1.1025,0,0,180.0*
21,1,0.5525,1.2000,0,0,180.0*
1,1,0.0975,-0.2763,0.5513*
1,1,0.0975,0.2763,0.5513*
1,1,0.0975,0.2763,-0.5513*
1,1,0.0975,-0.2763,-0.5513*
%
%ADD35ROUNDEDRECTD35*%
%ADD36R,0.5000X0.4500*%
%ADD37R,0.8587X0.9121*%
%ADD38R,0.9121X0.8587*%
G04:AMPARAMS|DCode=39|XSize=0.6mm|YSize=1mm|CornerRadius=0.15mm|HoleSize=0mm|Usage=FLASHONLY|Rotation=180.000|XOffset=0mm|YOffset=0mm|HoleType=Round|Shape=RoundedRectangle|*
%AMROUNDEDRECTD39*
21,1,0.6000,0.7000,0,0,180.0*
21,1,0.3000,1.0000,0,0,180.0*
1,1,0.3000,-0.1500,0.3500*
1,1,0.3000,0.1500,0.3500*
1,1,0.3000,0.1500,-0.3500*
1,1,0.3000,-0.1500,-0.3500*
%
%ADD39ROUNDEDRECTD39*%
D16*
X198800Y234215D02*
D03*
Y219715D02*
D03*
X602020Y166010D02*
D03*
Y151510D02*
D03*
X663359Y162066D02*
D03*
Y147566D02*
D03*
X706359Y269549D02*
D03*
Y284049D02*
D03*
X694109Y195566D02*
D03*
Y210066D02*
D03*
X200109Y86566D02*
D03*
Y101066D02*
D03*
X177359Y86566D02*
D03*
Y101066D02*
D03*
X434359Y515066D02*
D03*
Y500566D02*
D03*
X681359Y289566D02*
D03*
Y275066D02*
D03*
D17*
X208859Y290566D02*
D03*
X223359D02*
D03*
X79109Y299316D02*
D03*
X64609D02*
D03*
X72648Y257505D02*
D03*
X87148D02*
D03*
X113609Y244566D02*
D03*
X128109D02*
D03*
D18*
X177334Y115816D02*
D03*
Y130816D02*
D03*
X340513Y112031D02*
D03*
Y127031D02*
D03*
X51359Y273816D02*
D03*
Y258816D02*
D03*
X716667Y210316D02*
D03*
Y195316D02*
D03*
X198359Y116316D02*
D03*
Y131316D02*
D03*
X320359Y111816D02*
D03*
Y126816D02*
D03*
X402859Y484566D02*
D03*
Y469566D02*
D03*
D19*
X416770Y393260D02*
D03*
X401770D02*
D03*
X591899Y121586D02*
D03*
X606899D02*
D03*
X93359Y233816D02*
D03*
X78359D02*
D03*
X651109Y275816D02*
D03*
X636109D02*
D03*
D20*
X218609Y248066D02*
D03*
X234109D02*
D03*
D21*
X123359Y300566D02*
D03*
Y294066D02*
D03*
Y287566D02*
D03*
Y281066D02*
D03*
Y274566D02*
D03*
Y268066D02*
D03*
Y261566D02*
D03*
X179359Y300566D02*
D03*
Y294066D02*
D03*
Y287566D02*
D03*
Y281066D02*
D03*
Y274566D02*
D03*
Y268066D02*
D03*
Y261566D02*
D03*
D22*
X291359Y91816D02*
D03*
Y125816D02*
D03*
D23*
X664520Y247760D02*
D03*
X658020D02*
D03*
X651520D02*
D03*
X645020D02*
D03*
X638520D02*
D03*
X632020D02*
D03*
X625520D02*
D03*
X664520Y191760D02*
D03*
X658020D02*
D03*
X651520D02*
D03*
X645020D02*
D03*
X638520D02*
D03*
X632020D02*
D03*
X625520D02*
D03*
D24*
X406409Y71066D02*
D03*
X414809D02*
D03*
D25*
X625859Y81316D02*
D03*
Y86316D02*
D03*
Y91316D02*
D03*
Y96316D02*
D03*
Y101316D02*
D03*
X669859D02*
D03*
Y96316D02*
D03*
Y91316D02*
D03*
Y86316D02*
D03*
Y81316D02*
D03*
D26*
X74109Y275066D02*
D03*
X87609D02*
D03*
X231609Y263816D02*
D03*
X218609D02*
D03*
D27*
X727359Y244816D02*
D03*
Y231316D02*
D03*
X643859Y148566D02*
D03*
Y161566D02*
D03*
D28*
X201859Y184816D02*
D03*
X182359D02*
D03*
D29*
X589109Y221066D02*
D03*
Y240566D02*
D03*
D30*
X418270Y428760D02*
D03*
X427770D02*
D03*
X437270D02*
D03*
Y456260D02*
D03*
X418270D02*
D03*
X417520Y351010D02*
D03*
X427020D02*
D03*
X436520D02*
D03*
Y378510D02*
D03*
X417520D02*
D03*
D31*
X805609Y270316D02*
D03*
X781609Y260816D02*
D03*
Y279816D02*
D03*
D32*
X399109Y326566D02*
D03*
X414109D02*
D03*
D33*
X255109Y127596D02*
D03*
Y92036D02*
D03*
D34*
X219770Y131510D02*
D03*
Y116010D02*
D03*
X627359Y147066D02*
D03*
Y162566D02*
D03*
D35*
X414109Y282566D02*
D03*
X433109D02*
D03*
X423609Y308566D02*
D03*
D36*
X27020Y733260D02*
D03*
Y741760D02*
D03*
D37*
X699092Y166816D02*
D03*
X714626D02*
D03*
X715626Y145316D02*
D03*
X700092D02*
D03*
D38*
X140609Y337083D02*
D03*
Y321549D02*
D03*
X103359Y337350D02*
D03*
Y321816D02*
D03*
D39*
X60359Y342316D02*
D03*
X69859Y318316D02*
D03*
X50859D02*
D03*
M02*
