M48
;Layer_Color=9474304
;FILE_FORMAT=4:4
METRIC,TZ
;TYPE=PLATED
T01F00S00C0.2000
T02F00S00C0.2550
T03F00S00C0.5500
T04F00S00C0.9000
T06F00S00C1.0200
T07F00S00C3.3000
%
T01
X600859Y77066
X611859Y74566
X596109Y87066
X640859Y121566
X695359Y181066
X715609Y255816
X616859Y264066
X585359Y195066
X570359Y243566
X575109Y131816
X571539Y104206
X580609Y94316
X534609Y94566
X543859Y104316
X526359Y129566
X487109Y133316
X413109Y162316
X352639Y112907
X406359Y59066
X240609Y142816
X252609Y272066
X201258Y277394
X175109Y319316
X148758Y308144
X117528Y232976
X120028Y214726
X137359Y208316
X156359Y187316
X159359Y142316
X111859Y108066
X98859Y167566
X183109Y217316
X176609Y225816
X177859Y77566
X62109Y274816
T02
X718805Y180454
X700569Y242066
X685609Y258316
X419859Y255566
X432609Y328066
X412109Y364316
X431359Y398316
X436609Y118066
X27270Y751010
X396609Y500816
X433859Y483566
X431678Y411043
X767140Y749252
T03
X408109Y556721
X433109Y556816
T04
X388329Y101131
X413729
X439129
X464529
X451829Y126531
X426429
X401029
X375629
T06
X719359Y98816
X753609Y244816
X753309Y283866
X688331Y313200
X798109Y396066
X427359Y228566
X259859Y209566
X250359Y31066
X308359Y32316
X42859Y186816
T07
X362929Y37631
X477229
M30
